G04 #@! TF.GenerationSoftware,KiCad,Pcbnew,7.0.5*
G04 #@! TF.CreationDate,2023-07-24T08:30:01+08:00*
G04 #@! TF.ProjectId,LM,4c4d2e6b-6963-4616-945f-706362585858,rev?*
G04 #@! TF.SameCoordinates,Original*
G04 #@! TF.FileFunction,Legend,Bot*
G04 #@! TF.FilePolarity,Positive*
%FSLAX46Y46*%
G04 Gerber Fmt 4.6, Leading zero omitted, Abs format (unit mm)*
G04 Created by KiCad (PCBNEW 7.0.5) date 2023-07-24 08:30:01*
%MOMM*%
%LPD*%
G01*
G04 APERTURE LIST*
G04 Aperture macros list*
%AMRoundRect*
0 Rectangle with rounded corners*
0 $1 Rounding radius*
0 $2 $3 $4 $5 $6 $7 $8 $9 X,Y pos of 4 corners*
0 Add a 4 corners polygon primitive as box body*
4,1,4,$2,$3,$4,$5,$6,$7,$8,$9,$2,$3,0*
0 Add four circle primitives for the rounded corners*
1,1,$1+$1,$2,$3*
1,1,$1+$1,$4,$5*
1,1,$1+$1,$6,$7*
1,1,$1+$1,$8,$9*
0 Add four rect primitives between the rounded corners*
20,1,$1+$1,$2,$3,$4,$5,0*
20,1,$1+$1,$4,$5,$6,$7,0*
20,1,$1+$1,$6,$7,$8,$9,0*
20,1,$1+$1,$8,$9,$2,$3,0*%
%AMHorizOval*
0 Thick line with rounded ends*
0 $1 width*
0 $2 $3 position (X,Y) of the first rounded end (center of the circle)*
0 $4 $5 position (X,Y) of the second rounded end (center of the circle)*
0 Add line between two ends*
20,1,$1,$2,$3,$4,$5,0*
0 Add two circle primitives to create the rounded ends*
1,1,$1,$2,$3*
1,1,$1,$4,$5*%
%AMOutline4P*
0 Free polygon, 4 corners , with rotation*
0 The origin of the aperture is its center*
0 number of corners: always 4*
0 $1 to $8 corner X, Y*
0 $9 Rotation angle, in degrees counterclockwise*
0 create outline with 4 corners*
4,1,4,$1,$2,$3,$4,$5,$6,$7,$8,$1,$2,$9*%
G04 Aperture macros list end*
%ADD10C,0.150000*%
%ADD11C,0.120000*%
%ADD12C,0.100000*%
%ADD13O,2.200000X1.900000*%
%ADD14C,5.050000*%
%ADD15HorizOval,2.400000X-0.305164X0.457575X0.305164X-0.457575X0*%
%ADD16C,2.400000*%
%ADD17Outline4P,-1.150000X-1.200000X1.150000X-1.200000X1.150000X1.200000X-1.150000X1.200000X0.000000*%
%ADD18Outline4P,-1.200000X-1.200000X1.200000X-1.200000X1.200000X1.200000X-1.200000X1.200000X0.000000*%
%ADD19RoundRect,0.425000X-0.425000X0.425000X-0.425000X-0.425000X0.425000X-0.425000X0.425000X0.425000X0*%
%ADD20O,1.700000X1.700000*%
%ADD21C,3.500000*%
%ADD22C,1.700000*%
%ADD23RoundRect,0.425000X-0.425000X-0.425000X0.425000X-0.425000X0.425000X0.425000X-0.425000X0.425000X0*%
%ADD24RoundRect,0.225000X-0.225000X-0.375000X0.225000X-0.375000X0.225000X0.375000X-0.225000X0.375000X0*%
G04 APERTURE END LIST*
D10*
X71651904Y-38254819D02*
X72128094Y-38254819D01*
X72128094Y-38254819D02*
X72128094Y-37254819D01*
X71318570Y-38254819D02*
X71318570Y-37254819D01*
X71318570Y-37254819D02*
X70985237Y-37969104D01*
X70985237Y-37969104D02*
X70651904Y-37254819D01*
X70651904Y-37254819D02*
X70651904Y-38254819D01*
X43111428Y-61012295D02*
X43111428Y-60212295D01*
X43111428Y-60212295D02*
X42920952Y-60212295D01*
X42920952Y-60212295D02*
X42806666Y-60250390D01*
X42806666Y-60250390D02*
X42730476Y-60326580D01*
X42730476Y-60326580D02*
X42692381Y-60402771D01*
X42692381Y-60402771D02*
X42654285Y-60555152D01*
X42654285Y-60555152D02*
X42654285Y-60669438D01*
X42654285Y-60669438D02*
X42692381Y-60821819D01*
X42692381Y-60821819D02*
X42730476Y-60898009D01*
X42730476Y-60898009D02*
X42806666Y-60974200D01*
X42806666Y-60974200D02*
X42920952Y-61012295D01*
X42920952Y-61012295D02*
X43111428Y-61012295D01*
X41892381Y-61012295D02*
X42349524Y-61012295D01*
X42120952Y-61012295D02*
X42120952Y-60212295D01*
X42120952Y-60212295D02*
X42197143Y-60326580D01*
X42197143Y-60326580D02*
X42273333Y-60402771D01*
X42273333Y-60402771D02*
X42349524Y-60440866D01*
X41625714Y-60212295D02*
X41092380Y-60212295D01*
X41092380Y-60212295D02*
X41435238Y-61012295D01*
X62161428Y-80062295D02*
X62161428Y-79262295D01*
X62161428Y-79262295D02*
X61970952Y-79262295D01*
X61970952Y-79262295D02*
X61856666Y-79300390D01*
X61856666Y-79300390D02*
X61780476Y-79376580D01*
X61780476Y-79376580D02*
X61742381Y-79452771D01*
X61742381Y-79452771D02*
X61704285Y-79605152D01*
X61704285Y-79605152D02*
X61704285Y-79719438D01*
X61704285Y-79719438D02*
X61742381Y-79871819D01*
X61742381Y-79871819D02*
X61780476Y-79948009D01*
X61780476Y-79948009D02*
X61856666Y-80024200D01*
X61856666Y-80024200D02*
X61970952Y-80062295D01*
X61970952Y-80062295D02*
X62161428Y-80062295D01*
X61437619Y-79262295D02*
X60942381Y-79262295D01*
X60942381Y-79262295D02*
X61209047Y-79567057D01*
X61209047Y-79567057D02*
X61094762Y-79567057D01*
X61094762Y-79567057D02*
X61018571Y-79605152D01*
X61018571Y-79605152D02*
X60980476Y-79643247D01*
X60980476Y-79643247D02*
X60942381Y-79719438D01*
X60942381Y-79719438D02*
X60942381Y-79909914D01*
X60942381Y-79909914D02*
X60980476Y-79986104D01*
X60980476Y-79986104D02*
X61018571Y-80024200D01*
X61018571Y-80024200D02*
X61094762Y-80062295D01*
X61094762Y-80062295D02*
X61323333Y-80062295D01*
X61323333Y-80062295D02*
X61399524Y-80024200D01*
X61399524Y-80024200D02*
X61437619Y-79986104D01*
X60447142Y-79262295D02*
X60370952Y-79262295D01*
X60370952Y-79262295D02*
X60294761Y-79300390D01*
X60294761Y-79300390D02*
X60256666Y-79338485D01*
X60256666Y-79338485D02*
X60218571Y-79414676D01*
X60218571Y-79414676D02*
X60180476Y-79567057D01*
X60180476Y-79567057D02*
X60180476Y-79757533D01*
X60180476Y-79757533D02*
X60218571Y-79909914D01*
X60218571Y-79909914D02*
X60256666Y-79986104D01*
X60256666Y-79986104D02*
X60294761Y-80024200D01*
X60294761Y-80024200D02*
X60370952Y-80062295D01*
X60370952Y-80062295D02*
X60447142Y-80062295D01*
X60447142Y-80062295D02*
X60523333Y-80024200D01*
X60523333Y-80024200D02*
X60561428Y-79986104D01*
X60561428Y-79986104D02*
X60599523Y-79909914D01*
X60599523Y-79909914D02*
X60637619Y-79757533D01*
X60637619Y-79757533D02*
X60637619Y-79567057D01*
X60637619Y-79567057D02*
X60599523Y-79414676D01*
X60599523Y-79414676D02*
X60561428Y-79338485D01*
X60561428Y-79338485D02*
X60523333Y-79300390D01*
X60523333Y-79300390D02*
X60447142Y-79262295D01*
X43111428Y-80062295D02*
X43111428Y-79262295D01*
X43111428Y-79262295D02*
X42920952Y-79262295D01*
X42920952Y-79262295D02*
X42806666Y-79300390D01*
X42806666Y-79300390D02*
X42730476Y-79376580D01*
X42730476Y-79376580D02*
X42692381Y-79452771D01*
X42692381Y-79452771D02*
X42654285Y-79605152D01*
X42654285Y-79605152D02*
X42654285Y-79719438D01*
X42654285Y-79719438D02*
X42692381Y-79871819D01*
X42692381Y-79871819D02*
X42730476Y-79948009D01*
X42730476Y-79948009D02*
X42806666Y-80024200D01*
X42806666Y-80024200D02*
X42920952Y-80062295D01*
X42920952Y-80062295D02*
X43111428Y-80062295D01*
X42349524Y-79338485D02*
X42311428Y-79300390D01*
X42311428Y-79300390D02*
X42235238Y-79262295D01*
X42235238Y-79262295D02*
X42044762Y-79262295D01*
X42044762Y-79262295D02*
X41968571Y-79300390D01*
X41968571Y-79300390D02*
X41930476Y-79338485D01*
X41930476Y-79338485D02*
X41892381Y-79414676D01*
X41892381Y-79414676D02*
X41892381Y-79490866D01*
X41892381Y-79490866D02*
X41930476Y-79605152D01*
X41930476Y-79605152D02*
X42387619Y-80062295D01*
X42387619Y-80062295D02*
X41892381Y-80062295D01*
X41511428Y-80062295D02*
X41359047Y-80062295D01*
X41359047Y-80062295D02*
X41282857Y-80024200D01*
X41282857Y-80024200D02*
X41244761Y-79986104D01*
X41244761Y-79986104D02*
X41168571Y-79871819D01*
X41168571Y-79871819D02*
X41130476Y-79719438D01*
X41130476Y-79719438D02*
X41130476Y-79414676D01*
X41130476Y-79414676D02*
X41168571Y-79338485D01*
X41168571Y-79338485D02*
X41206666Y-79300390D01*
X41206666Y-79300390D02*
X41282857Y-79262295D01*
X41282857Y-79262295D02*
X41435238Y-79262295D01*
X41435238Y-79262295D02*
X41511428Y-79300390D01*
X41511428Y-79300390D02*
X41549523Y-79338485D01*
X41549523Y-79338485D02*
X41587619Y-79414676D01*
X41587619Y-79414676D02*
X41587619Y-79605152D01*
X41587619Y-79605152D02*
X41549523Y-79681342D01*
X41549523Y-79681342D02*
X41511428Y-79719438D01*
X41511428Y-79719438D02*
X41435238Y-79757533D01*
X41435238Y-79757533D02*
X41282857Y-79757533D01*
X41282857Y-79757533D02*
X41206666Y-79719438D01*
X41206666Y-79719438D02*
X41168571Y-79681342D01*
X41168571Y-79681342D02*
X41130476Y-79605152D01*
X42730475Y-41962295D02*
X42730475Y-41162295D01*
X42730475Y-41162295D02*
X42539999Y-41162295D01*
X42539999Y-41162295D02*
X42425713Y-41200390D01*
X42425713Y-41200390D02*
X42349523Y-41276580D01*
X42349523Y-41276580D02*
X42311428Y-41352771D01*
X42311428Y-41352771D02*
X42273332Y-41505152D01*
X42273332Y-41505152D02*
X42273332Y-41619438D01*
X42273332Y-41619438D02*
X42311428Y-41771819D01*
X42311428Y-41771819D02*
X42349523Y-41848009D01*
X42349523Y-41848009D02*
X42425713Y-41924200D01*
X42425713Y-41924200D02*
X42539999Y-41962295D01*
X42539999Y-41962295D02*
X42730475Y-41962295D01*
X41549523Y-41162295D02*
X41930475Y-41162295D01*
X41930475Y-41162295D02*
X41968571Y-41543247D01*
X41968571Y-41543247D02*
X41930475Y-41505152D01*
X41930475Y-41505152D02*
X41854285Y-41467057D01*
X41854285Y-41467057D02*
X41663809Y-41467057D01*
X41663809Y-41467057D02*
X41587618Y-41505152D01*
X41587618Y-41505152D02*
X41549523Y-41543247D01*
X41549523Y-41543247D02*
X41511428Y-41619438D01*
X41511428Y-41619438D02*
X41511428Y-41809914D01*
X41511428Y-41809914D02*
X41549523Y-41886104D01*
X41549523Y-41886104D02*
X41587618Y-41924200D01*
X41587618Y-41924200D02*
X41663809Y-41962295D01*
X41663809Y-41962295D02*
X41854285Y-41962295D01*
X41854285Y-41962295D02*
X41930475Y-41924200D01*
X41930475Y-41924200D02*
X41968571Y-41886104D01*
X62161428Y-61012295D02*
X62161428Y-60212295D01*
X62161428Y-60212295D02*
X61970952Y-60212295D01*
X61970952Y-60212295D02*
X61856666Y-60250390D01*
X61856666Y-60250390D02*
X61780476Y-60326580D01*
X61780476Y-60326580D02*
X61742381Y-60402771D01*
X61742381Y-60402771D02*
X61704285Y-60555152D01*
X61704285Y-60555152D02*
X61704285Y-60669438D01*
X61704285Y-60669438D02*
X61742381Y-60821819D01*
X61742381Y-60821819D02*
X61780476Y-60898009D01*
X61780476Y-60898009D02*
X61856666Y-60974200D01*
X61856666Y-60974200D02*
X61970952Y-61012295D01*
X61970952Y-61012295D02*
X62161428Y-61012295D01*
X60942381Y-61012295D02*
X61399524Y-61012295D01*
X61170952Y-61012295D02*
X61170952Y-60212295D01*
X61170952Y-60212295D02*
X61247143Y-60326580D01*
X61247143Y-60326580D02*
X61323333Y-60402771D01*
X61323333Y-60402771D02*
X61399524Y-60440866D01*
X60485238Y-60555152D02*
X60561428Y-60517057D01*
X60561428Y-60517057D02*
X60599523Y-60478961D01*
X60599523Y-60478961D02*
X60637619Y-60402771D01*
X60637619Y-60402771D02*
X60637619Y-60364676D01*
X60637619Y-60364676D02*
X60599523Y-60288485D01*
X60599523Y-60288485D02*
X60561428Y-60250390D01*
X60561428Y-60250390D02*
X60485238Y-60212295D01*
X60485238Y-60212295D02*
X60332857Y-60212295D01*
X60332857Y-60212295D02*
X60256666Y-60250390D01*
X60256666Y-60250390D02*
X60218571Y-60288485D01*
X60218571Y-60288485D02*
X60180476Y-60364676D01*
X60180476Y-60364676D02*
X60180476Y-60402771D01*
X60180476Y-60402771D02*
X60218571Y-60478961D01*
X60218571Y-60478961D02*
X60256666Y-60517057D01*
X60256666Y-60517057D02*
X60332857Y-60555152D01*
X60332857Y-60555152D02*
X60485238Y-60555152D01*
X60485238Y-60555152D02*
X60561428Y-60593247D01*
X60561428Y-60593247D02*
X60599523Y-60631342D01*
X60599523Y-60631342D02*
X60637619Y-60707533D01*
X60637619Y-60707533D02*
X60637619Y-60859914D01*
X60637619Y-60859914D02*
X60599523Y-60936104D01*
X60599523Y-60936104D02*
X60561428Y-60974200D01*
X60561428Y-60974200D02*
X60485238Y-61012295D01*
X60485238Y-61012295D02*
X60332857Y-61012295D01*
X60332857Y-61012295D02*
X60256666Y-60974200D01*
X60256666Y-60974200D02*
X60218571Y-60936104D01*
X60218571Y-60936104D02*
X60180476Y-60859914D01*
X60180476Y-60859914D02*
X60180476Y-60707533D01*
X60180476Y-60707533D02*
X60218571Y-60631342D01*
X60218571Y-60631342D02*
X60256666Y-60593247D01*
X60256666Y-60593247D02*
X60332857Y-60555152D01*
X61780475Y-41962295D02*
X61780475Y-41162295D01*
X61780475Y-41162295D02*
X61589999Y-41162295D01*
X61589999Y-41162295D02*
X61475713Y-41200390D01*
X61475713Y-41200390D02*
X61399523Y-41276580D01*
X61399523Y-41276580D02*
X61361428Y-41352771D01*
X61361428Y-41352771D02*
X61323332Y-41505152D01*
X61323332Y-41505152D02*
X61323332Y-41619438D01*
X61323332Y-41619438D02*
X61361428Y-41771819D01*
X61361428Y-41771819D02*
X61399523Y-41848009D01*
X61399523Y-41848009D02*
X61475713Y-41924200D01*
X61475713Y-41924200D02*
X61589999Y-41962295D01*
X61589999Y-41962295D02*
X61780475Y-41962295D01*
X60637618Y-41162295D02*
X60789999Y-41162295D01*
X60789999Y-41162295D02*
X60866190Y-41200390D01*
X60866190Y-41200390D02*
X60904285Y-41238485D01*
X60904285Y-41238485D02*
X60980475Y-41352771D01*
X60980475Y-41352771D02*
X61018571Y-41505152D01*
X61018571Y-41505152D02*
X61018571Y-41809914D01*
X61018571Y-41809914D02*
X60980475Y-41886104D01*
X60980475Y-41886104D02*
X60942380Y-41924200D01*
X60942380Y-41924200D02*
X60866190Y-41962295D01*
X60866190Y-41962295D02*
X60713809Y-41962295D01*
X60713809Y-41962295D02*
X60637618Y-41924200D01*
X60637618Y-41924200D02*
X60599523Y-41886104D01*
X60599523Y-41886104D02*
X60561428Y-41809914D01*
X60561428Y-41809914D02*
X60561428Y-41619438D01*
X60561428Y-41619438D02*
X60599523Y-41543247D01*
X60599523Y-41543247D02*
X60637618Y-41505152D01*
X60637618Y-41505152D02*
X60713809Y-41467057D01*
X60713809Y-41467057D02*
X60866190Y-41467057D01*
X60866190Y-41467057D02*
X60942380Y-41505152D01*
X60942380Y-41505152D02*
X60980475Y-41543247D01*
X60980475Y-41543247D02*
X61018571Y-41619438D01*
D11*
X39780000Y-57650000D02*
X43790000Y-57650000D01*
X39780000Y-59650000D02*
X39780000Y-57650000D01*
X39780000Y-59650000D02*
X43790000Y-59650000D01*
D12*
X41384400Y-58650000D02*
X41784400Y-58650000D01*
X41784400Y-58650000D02*
X41784400Y-58100000D01*
X41784400Y-58650000D02*
X41784400Y-59200000D01*
X41784400Y-58650000D02*
X42384400Y-59050000D01*
X42384400Y-58250000D02*
X41784400Y-58650000D01*
X42384400Y-58650000D02*
X42884400Y-58650000D01*
X42384400Y-59050000D02*
X42384400Y-58250000D01*
D11*
X58830000Y-76700000D02*
X62840000Y-76700000D01*
X58830000Y-78700000D02*
X58830000Y-76700000D01*
X58830000Y-78700000D02*
X62840000Y-78700000D01*
D12*
X60434400Y-77700000D02*
X60834400Y-77700000D01*
X60834400Y-77700000D02*
X60834400Y-77150000D01*
X60834400Y-77700000D02*
X60834400Y-78250000D01*
X60834400Y-77700000D02*
X61434400Y-78100000D01*
X61434400Y-77300000D02*
X60834400Y-77700000D01*
X61434400Y-77700000D02*
X61934400Y-77700000D01*
X61434400Y-78100000D02*
X61434400Y-77300000D01*
D11*
X39780000Y-76700000D02*
X43790000Y-76700000D01*
X39780000Y-78700000D02*
X39780000Y-76700000D01*
X39780000Y-78700000D02*
X43790000Y-78700000D01*
D12*
X41384400Y-77700000D02*
X41784400Y-77700000D01*
X41784400Y-77700000D02*
X41784400Y-77150000D01*
X41784400Y-77700000D02*
X41784400Y-78250000D01*
X41784400Y-77700000D02*
X42384400Y-78100000D01*
X42384400Y-77300000D02*
X41784400Y-77700000D01*
X42384400Y-77700000D02*
X42884400Y-77700000D01*
X42384400Y-78100000D02*
X42384400Y-77300000D01*
D11*
X39780000Y-38600000D02*
X43790000Y-38600000D01*
X39780000Y-40600000D02*
X39780000Y-38600000D01*
X39780000Y-40600000D02*
X43790000Y-40600000D01*
D12*
X41384400Y-39600000D02*
X41784400Y-39600000D01*
X41784400Y-39600000D02*
X41784400Y-39050000D01*
X41784400Y-39600000D02*
X41784400Y-40150000D01*
X41784400Y-39600000D02*
X42384400Y-40000000D01*
X42384400Y-39200000D02*
X41784400Y-39600000D01*
X42384400Y-39600000D02*
X42884400Y-39600000D01*
X42384400Y-40000000D02*
X42384400Y-39200000D01*
D11*
X58830000Y-57650000D02*
X62840000Y-57650000D01*
X58830000Y-59650000D02*
X58830000Y-57650000D01*
X58830000Y-59650000D02*
X62840000Y-59650000D01*
D12*
X60434400Y-58650000D02*
X60834400Y-58650000D01*
X60834400Y-58650000D02*
X60834400Y-58100000D01*
X60834400Y-58650000D02*
X60834400Y-59200000D01*
X60834400Y-58650000D02*
X61434400Y-59050000D01*
X61434400Y-58250000D02*
X60834400Y-58650000D01*
X61434400Y-58650000D02*
X61934400Y-58650000D01*
X61434400Y-59050000D02*
X61434400Y-58250000D01*
D11*
X58830000Y-38600000D02*
X62840000Y-38600000D01*
X58830000Y-40600000D02*
X58830000Y-38600000D01*
X58830000Y-40600000D02*
X62840000Y-40600000D01*
D12*
X60434400Y-39600000D02*
X60834400Y-39600000D01*
X60834400Y-39600000D02*
X60834400Y-39050000D01*
X60834400Y-39600000D02*
X60834400Y-40150000D01*
X60834400Y-39600000D02*
X61434400Y-40000000D01*
X61434400Y-39200000D02*
X60834400Y-39600000D01*
X61434400Y-39600000D02*
X61934400Y-39600000D01*
X61434400Y-40000000D02*
X61434400Y-39200000D01*
%LPC*%
D13*
X58020000Y-46090000D03*
D14*
X63320000Y-46090000D03*
D13*
X68620000Y-46090000D03*
D15*
X58620000Y-50340000D03*
D16*
X59510000Y-43550000D03*
X63320000Y-51990000D03*
D17*
X64620000Y-51990000D03*
D16*
X65860000Y-40990000D03*
X65920000Y-51990000D03*
D18*
X67090000Y-40990000D03*
D16*
X68320000Y-40990000D03*
D13*
X38970000Y-46090000D03*
D14*
X44270000Y-46090000D03*
D13*
X49570000Y-46090000D03*
D15*
X39570000Y-50340000D03*
D16*
X40460000Y-43550000D03*
X44270000Y-51990000D03*
D17*
X45570000Y-51990000D03*
D16*
X46810000Y-40990000D03*
X46870000Y-51990000D03*
D18*
X48040000Y-40990000D03*
D16*
X49270000Y-40990000D03*
D19*
X57610000Y-92370000D03*
D20*
X55070000Y-92370000D03*
X52530000Y-92370000D03*
X49990000Y-92370000D03*
D21*
X53795000Y-74665000D03*
D22*
X75760000Y-53280000D03*
D20*
X75760000Y-55820000D03*
X75760000Y-58360000D03*
X75760000Y-60900000D03*
X75760000Y-63440000D03*
X75760000Y-65980000D03*
X75760000Y-68520000D03*
X75760000Y-71060000D03*
X75760000Y-73600000D03*
X78300000Y-53280000D03*
X78300000Y-55820000D03*
X78300000Y-58360000D03*
X78300000Y-60900000D03*
X78300000Y-63440000D03*
X78300000Y-65980000D03*
X78300000Y-68520000D03*
X78300000Y-71060000D03*
X78300000Y-73600000D03*
D21*
X53795000Y-55615000D03*
D22*
X36110000Y-57520000D03*
D20*
X36110000Y-60060000D03*
X36110000Y-62600000D03*
X36110000Y-65140000D03*
D23*
X36110000Y-67680000D03*
X36110000Y-70220000D03*
X36110000Y-72760000D03*
D13*
X38970000Y-84190000D03*
D14*
X44270000Y-84190000D03*
D13*
X49570000Y-84190000D03*
D15*
X39570000Y-88440000D03*
D16*
X40460000Y-81650000D03*
X44270000Y-90090000D03*
D17*
X45570000Y-90090000D03*
D16*
X46810000Y-79090000D03*
X46870000Y-90090000D03*
D18*
X48040000Y-79090000D03*
D16*
X49270000Y-79090000D03*
D13*
X58020000Y-65140000D03*
D14*
X63320000Y-65140000D03*
D13*
X68620000Y-65140000D03*
D15*
X58620000Y-69390000D03*
D16*
X59510000Y-62600000D03*
X63320000Y-71040000D03*
D17*
X64620000Y-71040000D03*
D16*
X65860000Y-60040000D03*
X65920000Y-71040000D03*
D18*
X67090000Y-60040000D03*
D16*
X68320000Y-60040000D03*
D13*
X58020000Y-84190000D03*
D14*
X63320000Y-84190000D03*
D13*
X68620000Y-84190000D03*
D15*
X58620000Y-88440000D03*
D16*
X59510000Y-81650000D03*
X63320000Y-90090000D03*
D17*
X64620000Y-90090000D03*
D16*
X65860000Y-79090000D03*
X65920000Y-90090000D03*
D18*
X67090000Y-79090000D03*
D16*
X68320000Y-79090000D03*
D13*
X38970000Y-65140000D03*
D14*
X44270000Y-65140000D03*
D13*
X49570000Y-65140000D03*
D15*
X39570000Y-69390000D03*
D16*
X40460000Y-62600000D03*
X44270000Y-71040000D03*
D17*
X45570000Y-71040000D03*
D16*
X46810000Y-60040000D03*
X46870000Y-71040000D03*
D18*
X48040000Y-60040000D03*
D16*
X49270000Y-60040000D03*
D24*
X40490000Y-58650000D03*
X43790000Y-58650000D03*
X59540000Y-77700000D03*
X62840000Y-77700000D03*
X40490000Y-77700000D03*
X43790000Y-77700000D03*
X40490000Y-39600000D03*
X43790000Y-39600000D03*
X59540000Y-58650000D03*
X62840000Y-58650000D03*
X59540000Y-39600000D03*
X62840000Y-39600000D03*
%LPD*%
M02*
