G04 #@! TF.GenerationSoftware,KiCad,Pcbnew,7.0.5*
G04 #@! TF.CreationDate,2023-08-14T09:39:27+08:00*
G04 #@! TF.ProjectId,LM,4c4d2e6b-6963-4616-945f-706362585858,rev?*
G04 #@! TF.SameCoordinates,Original*
G04 #@! TF.FileFunction,Copper,L2,Bot*
G04 #@! TF.FilePolarity,Positive*
%FSLAX46Y46*%
G04 Gerber Fmt 4.6, Leading zero omitted, Abs format (unit mm)*
G04 Created by KiCad (PCBNEW 7.0.5) date 2023-08-14 09:39:27*
%MOMM*%
%LPD*%
G01*
G04 APERTURE LIST*
G04 Aperture macros list*
%AMRoundRect*
0 Rectangle with rounded corners*
0 $1 Rounding radius*
0 $2 $3 $4 $5 $6 $7 $8 $9 X,Y pos of 4 corners*
0 Add a 4 corners polygon primitive as box body*
4,1,4,$2,$3,$4,$5,$6,$7,$8,$9,$2,$3,0*
0 Add four circle primitives for the rounded corners*
1,1,$1+$1,$2,$3*
1,1,$1+$1,$4,$5*
1,1,$1+$1,$6,$7*
1,1,$1+$1,$8,$9*
0 Add four rect primitives between the rounded corners*
20,1,$1+$1,$2,$3,$4,$5,0*
20,1,$1+$1,$4,$5,$6,$7,0*
20,1,$1+$1,$6,$7,$8,$9,0*
20,1,$1+$1,$8,$9,$2,$3,0*%
%AMHorizOval*
0 Thick line with rounded ends*
0 $1 width*
0 $2 $3 position (X,Y) of the first rounded end (center of the circle)*
0 $4 $5 position (X,Y) of the second rounded end (center of the circle)*
0 Add line between two ends*
20,1,$1,$2,$3,$4,$5,0*
0 Add two circle primitives to create the rounded ends*
1,1,$1,$2,$3*
1,1,$1,$4,$5*%
%AMOutline4P*
0 Free polygon, 4 corners , with rotation*
0 The origin of the aperture is its center*
0 number of corners: always 4*
0 $1 to $8 corner X, Y*
0 $9 Rotation angle, in degrees counterclockwise*
0 create outline with 4 corners*
4,1,4,$1,$2,$3,$4,$5,$6,$7,$8,$1,$2,$9*%
G04 Aperture macros list end*
G04 #@! TA.AperFunction,ComponentPad*
%ADD10HorizOval,2.400000X-0.305164X0.457575X0.305164X-0.457575X0*%
G04 #@! TD*
G04 #@! TA.AperFunction,ComponentPad*
%ADD11C,2.400000*%
G04 #@! TD*
G04 #@! TA.AperFunction,SMDPad,CuDef*
%ADD12Outline4P,-1.150000X-1.200000X1.150000X-1.200000X1.150000X1.200000X-1.150000X1.200000X0.000000*%
G04 #@! TD*
G04 #@! TA.AperFunction,SMDPad,CuDef*
%ADD13Outline4P,-1.200000X-1.200000X1.200000X-1.200000X1.200000X1.200000X-1.200000X1.200000X0.000000*%
G04 #@! TD*
G04 #@! TA.AperFunction,ComponentPad*
%ADD14RoundRect,0.425000X-0.425000X0.425000X-0.425000X-0.425000X0.425000X-0.425000X0.425000X0.425000X0*%
G04 #@! TD*
G04 #@! TA.AperFunction,ComponentPad*
%ADD15O,1.700000X1.700000*%
G04 #@! TD*
G04 #@! TA.AperFunction,ComponentPad*
%ADD16C,1.700000*%
G04 #@! TD*
G04 #@! TA.AperFunction,ComponentPad*
%ADD17RoundRect,0.425000X-0.425000X-0.425000X0.425000X-0.425000X0.425000X0.425000X-0.425000X0.425000X0*%
G04 #@! TD*
G04 #@! TA.AperFunction,ComponentPad*
%ADD18R,1.600000X1.600000*%
G04 #@! TD*
G04 #@! TA.AperFunction,SMDPad,CuDef*
%ADD19RoundRect,0.225000X0.375000X-0.225000X0.375000X0.225000X-0.375000X0.225000X-0.375000X-0.225000X0*%
G04 #@! TD*
G04 #@! TA.AperFunction,ComponentPad*
%ADD20O,1.600000X1.600000*%
G04 #@! TD*
G04 #@! TA.AperFunction,ViaPad*
%ADD21C,0.800000*%
G04 #@! TD*
G04 #@! TA.AperFunction,Conductor*
%ADD22C,0.250000*%
G04 #@! TD*
G04 APERTURE END LIST*
D10*
X58620000Y-50340000D03*
D11*
X59510000Y-43550000D03*
X63320000Y-51990000D03*
D12*
X64620000Y-51990000D03*
D11*
X65860000Y-40990000D03*
X65920000Y-51990000D03*
D13*
X67090000Y-40990000D03*
D11*
X68320000Y-40990000D03*
D10*
X39570000Y-50340000D03*
D11*
X40460000Y-43550000D03*
X44270000Y-51990000D03*
D12*
X45570000Y-51990000D03*
D11*
X46810000Y-40990000D03*
X46870000Y-51990000D03*
D13*
X48040000Y-40990000D03*
D11*
X49270000Y-40990000D03*
D14*
X57610000Y-92370000D03*
D15*
X55070000Y-92370000D03*
X52530000Y-92370000D03*
X49990000Y-92370000D03*
D16*
X75760000Y-53280000D03*
D15*
X75760000Y-55820000D03*
X75760000Y-58360000D03*
X75760000Y-60900000D03*
X75760000Y-63440000D03*
X75760000Y-65980000D03*
X75760000Y-68520000D03*
X75760000Y-71060000D03*
X75760000Y-73600000D03*
X78300000Y-53280000D03*
X78300000Y-55820000D03*
X78300000Y-58360000D03*
X78300000Y-60900000D03*
X78300000Y-63440000D03*
X78300000Y-65980000D03*
X78300000Y-68520000D03*
X78300000Y-71060000D03*
X78300000Y-73600000D03*
D16*
X36110000Y-57520000D03*
D15*
X36110000Y-60060000D03*
X36110000Y-62600000D03*
X36110000Y-65140000D03*
D17*
X36110000Y-67680000D03*
X36110000Y-70220000D03*
X36110000Y-72760000D03*
D10*
X39570000Y-88440000D03*
D11*
X40460000Y-81650000D03*
X44270000Y-90090000D03*
D12*
X45570000Y-90090000D03*
D11*
X46810000Y-79090000D03*
X46870000Y-90090000D03*
D13*
X48040000Y-79090000D03*
D11*
X49270000Y-79090000D03*
D10*
X58620000Y-69390000D03*
D11*
X59510000Y-62600000D03*
X63320000Y-71040000D03*
D12*
X64620000Y-71040000D03*
D11*
X65860000Y-60040000D03*
X65920000Y-71040000D03*
D13*
X67090000Y-60040000D03*
D11*
X68320000Y-60040000D03*
D10*
X58620000Y-88440000D03*
D11*
X59510000Y-81650000D03*
X63320000Y-90090000D03*
D12*
X64620000Y-90090000D03*
D11*
X65860000Y-79090000D03*
X65920000Y-90090000D03*
D13*
X67090000Y-79090000D03*
D11*
X68320000Y-79090000D03*
D10*
X39570000Y-69390000D03*
D11*
X40460000Y-62600000D03*
X44270000Y-71040000D03*
D12*
X45570000Y-71040000D03*
D11*
X46810000Y-60040000D03*
X46870000Y-71040000D03*
D13*
X48040000Y-60040000D03*
D11*
X49270000Y-60040000D03*
D18*
X52525000Y-68940000D03*
D19*
X52525000Y-66790000D03*
X52525000Y-63490000D03*
D20*
X52525000Y-61340000D03*
D18*
X55065000Y-87990000D03*
D19*
X55065000Y-85840000D03*
X55065000Y-82540000D03*
D20*
X55065000Y-80390000D03*
D18*
X52525000Y-87990000D03*
D19*
X52525000Y-85840000D03*
X52525000Y-82540000D03*
D20*
X52525000Y-80390000D03*
D18*
X52525000Y-49890000D03*
D19*
X52525000Y-47740000D03*
X52525000Y-44440000D03*
D20*
X52525000Y-42290000D03*
D18*
X55065000Y-68940000D03*
D19*
X55065000Y-66790000D03*
X55065000Y-63490000D03*
D20*
X55065000Y-61340000D03*
D18*
X55065000Y-49890000D03*
D19*
X55065000Y-47740000D03*
X55065000Y-44440000D03*
D20*
X55065000Y-42290000D03*
D21*
X56190000Y-53590000D03*
X51400000Y-52260000D03*
D22*
X55065000Y-87990000D02*
X55065000Y-92365000D01*
X56190000Y-86865000D02*
X55065000Y-87990000D01*
X56190000Y-67815000D02*
X55065000Y-68940000D01*
X56190000Y-51015000D02*
X56190000Y-53590000D01*
X55065000Y-85840000D02*
X55065000Y-87990000D01*
X55065000Y-66790000D02*
X55065000Y-68940000D01*
X56190000Y-70065000D02*
X56190000Y-86865000D01*
X55065000Y-92365000D02*
X55070000Y-92370000D01*
X56190000Y-53590000D02*
X56190000Y-67815000D01*
X55065000Y-49890000D02*
X56190000Y-51015000D01*
X55065000Y-49890000D02*
X55065000Y-47740000D01*
X55065000Y-68940000D02*
X56190000Y-70065000D01*
X52525000Y-66790000D02*
X52525000Y-68940000D01*
X51400000Y-52260000D02*
X51400000Y-67815000D01*
X52525000Y-87990000D02*
X52525000Y-92365000D01*
X51400000Y-86865000D02*
X52525000Y-87990000D01*
X51400000Y-51015000D02*
X51400000Y-52260000D01*
X51400000Y-70065000D02*
X51400000Y-86865000D01*
X51400000Y-67815000D02*
X52525000Y-68940000D01*
X52525000Y-49890000D02*
X51400000Y-51015000D01*
X52525000Y-87990000D02*
X52525000Y-85840000D01*
X52525000Y-92365000D02*
X52530000Y-92370000D01*
X52525000Y-68940000D02*
X51400000Y-70065000D01*
X52525000Y-47740000D02*
X52525000Y-49890000D01*
X37380000Y-58790000D02*
X37380000Y-90340000D01*
X39410000Y-92370000D02*
X49990000Y-92370000D01*
X37380000Y-90340000D02*
X39410000Y-92370000D01*
X36110000Y-57520000D02*
X37380000Y-58790000D01*
X58620000Y-54240000D02*
X60200000Y-55820000D01*
X40460000Y-49450000D02*
X39570000Y-50340000D01*
X59510000Y-49450000D02*
X58620000Y-50340000D01*
X72030000Y-56840000D02*
X72030000Y-63470000D01*
X60200000Y-55820000D02*
X71010000Y-55820000D01*
X73270000Y-64710000D02*
X77030000Y-64710000D01*
X40460000Y-43550000D02*
X40460000Y-49450000D01*
X58620000Y-50340000D02*
X58620000Y-54240000D01*
X59510000Y-43550000D02*
X59510000Y-49450000D01*
X77030000Y-64710000D02*
X78300000Y-65980000D01*
X71010000Y-55820000D02*
X72030000Y-56840000D01*
X72030000Y-63470000D02*
X73270000Y-64710000D01*
X40460000Y-62600000D02*
X40460000Y-68500000D01*
X59510000Y-68500000D02*
X58620000Y-69390000D01*
X59510000Y-62600000D02*
X59510000Y-68500000D01*
X40460000Y-68500000D02*
X39570000Y-69390000D01*
X59510000Y-81650000D02*
X59510000Y-87550000D01*
X40460000Y-87550000D02*
X39570000Y-88440000D01*
X40460000Y-81650000D02*
X40460000Y-87550000D01*
X59510000Y-87550000D02*
X58620000Y-88440000D01*
X70830000Y-90540000D02*
X70830000Y-73830000D01*
X70830000Y-73830000D02*
X72340000Y-72320000D01*
X77020000Y-72320000D02*
X78300000Y-73600000D01*
X69000000Y-92370000D02*
X70830000Y-90540000D01*
X72340000Y-72320000D02*
X77020000Y-72320000D01*
X57610000Y-92370000D02*
X69000000Y-92370000D01*
X48010000Y-42190000D02*
X48010000Y-50850000D01*
X52525000Y-42290000D02*
X52525000Y-44440000D01*
X48010000Y-50850000D02*
X46870000Y-51990000D01*
X46810000Y-40990000D02*
X48010000Y-42190000D01*
X67060000Y-50850000D02*
X65920000Y-51990000D01*
X65860000Y-40990000D02*
X67060000Y-42190000D01*
X67060000Y-42190000D02*
X67060000Y-50850000D01*
X55065000Y-42290000D02*
X55065000Y-44440000D01*
X48010000Y-61240000D02*
X48010000Y-69900000D01*
X46810000Y-60040000D02*
X48010000Y-61240000D01*
X52525000Y-61340000D02*
X52525000Y-63490000D01*
X48010000Y-69900000D02*
X46870000Y-71040000D01*
X65860000Y-60040000D02*
X67060000Y-61240000D01*
X55065000Y-61340000D02*
X55065000Y-63490000D01*
X67060000Y-61240000D02*
X67060000Y-69900000D01*
X67060000Y-69900000D02*
X65920000Y-71040000D01*
X52525000Y-80390000D02*
X52525000Y-82540000D01*
X48010000Y-80290000D02*
X48010000Y-88950000D01*
X46810000Y-79090000D02*
X48010000Y-80290000D01*
X48010000Y-88950000D02*
X46870000Y-90090000D01*
X67120000Y-88890000D02*
X67120000Y-80350000D01*
X65920000Y-90090000D02*
X67120000Y-88890000D01*
X55065000Y-80390000D02*
X55065000Y-82540000D01*
X67120000Y-80350000D02*
X65860000Y-79090000D01*
G04 #@! TA.AperFunction,NonConductor*
G36*
X72347063Y-36565733D02*
G01*
X72366036Y-36567870D01*
X72371350Y-36568469D01*
X72455954Y-36579607D01*
X72470722Y-36583123D01*
X72510423Y-36597015D01*
X72512281Y-36597723D01*
X72571089Y-36622082D01*
X72582117Y-36627779D01*
X72599232Y-36638533D01*
X72621500Y-36652526D01*
X72624340Y-36654501D01*
X72674505Y-36692994D01*
X72678140Y-36696182D01*
X72713816Y-36731858D01*
X72717011Y-36735501D01*
X72755497Y-36785658D01*
X72757472Y-36788498D01*
X72773800Y-36814482D01*
X72782214Y-36827873D01*
X72787921Y-36838920D01*
X72812256Y-36897669D01*
X72812996Y-36899609D01*
X72826873Y-36939269D01*
X72830392Y-36954049D01*
X72841534Y-37038678D01*
X72844267Y-37062928D01*
X72844500Y-37067075D01*
X72844500Y-51995318D01*
X72844433Y-51995656D01*
X72844459Y-52010001D01*
X72844526Y-52010163D01*
X72844616Y-52010382D01*
X72844617Y-52010383D01*
X72845000Y-52010541D01*
X72859660Y-52010531D01*
X72859817Y-52010500D01*
X79495500Y-52010500D01*
X79543066Y-52027813D01*
X79568376Y-52071650D01*
X79569500Y-52084500D01*
X79569500Y-74795500D01*
X79552187Y-74843066D01*
X79508350Y-74868376D01*
X79495500Y-74869500D01*
X72859816Y-74869500D01*
X72859610Y-74869459D01*
X72845000Y-74869459D01*
X72844964Y-74869474D01*
X72844617Y-74869616D01*
X72844458Y-74870000D01*
X72844468Y-74884661D01*
X72844500Y-74884816D01*
X72844500Y-93212923D01*
X72844267Y-93217071D01*
X72841533Y-93241326D01*
X72830392Y-93325949D01*
X72826873Y-93340729D01*
X72812996Y-93380389D01*
X72812256Y-93382329D01*
X72787921Y-93441078D01*
X72782211Y-93452132D01*
X72757472Y-93491500D01*
X72755497Y-93494340D01*
X72717011Y-93544497D01*
X72713816Y-93548140D01*
X72678140Y-93583816D01*
X72674497Y-93587011D01*
X72624340Y-93625497D01*
X72621500Y-93627472D01*
X72582132Y-93652211D01*
X72571078Y-93657921D01*
X72512329Y-93682256D01*
X72510389Y-93682996D01*
X72470729Y-93696873D01*
X72455949Y-93700392D01*
X72371326Y-93711533D01*
X72357223Y-93713122D01*
X72347063Y-93714267D01*
X72342924Y-93714500D01*
X35347075Y-93714500D01*
X35342936Y-93714267D01*
X35322976Y-93712018D01*
X35318678Y-93711534D01*
X35234049Y-93700392D01*
X35219269Y-93696873D01*
X35179609Y-93682996D01*
X35177680Y-93682260D01*
X35118919Y-93657920D01*
X35107873Y-93652214D01*
X35094482Y-93643800D01*
X35068498Y-93627472D01*
X35065658Y-93625497D01*
X35034313Y-93601446D01*
X35015496Y-93587007D01*
X35011858Y-93583816D01*
X34976182Y-93548140D01*
X34972994Y-93544505D01*
X34934501Y-93494340D01*
X34932526Y-93491500D01*
X34919329Y-93470499D01*
X34907779Y-93452117D01*
X34902082Y-93441089D01*
X34877723Y-93382281D01*
X34877015Y-93380423D01*
X34863123Y-93340722D01*
X34859607Y-93325954D01*
X34848466Y-93241326D01*
X34845733Y-93217063D01*
X34845500Y-93212918D01*
X34845500Y-65140003D01*
X35004785Y-65140003D01*
X35023601Y-65343076D01*
X35023602Y-65343082D01*
X35065752Y-65491221D01*
X35079418Y-65539250D01*
X35170327Y-65721821D01*
X35170328Y-65721822D01*
X35170329Y-65721825D01*
X35293234Y-65884578D01*
X35293235Y-65884579D01*
X35399695Y-65981629D01*
X35443959Y-66021981D01*
X35617363Y-66129348D01*
X35807544Y-66203024D01*
X36008024Y-66240500D01*
X36008026Y-66240500D01*
X36211974Y-66240500D01*
X36211976Y-66240500D01*
X36412456Y-66203024D01*
X36602637Y-66129348D01*
X36776041Y-66021981D01*
X36880648Y-65926619D01*
X36927462Y-65907369D01*
X36975699Y-65922715D01*
X37002787Y-65965476D01*
X37004500Y-65981307D01*
X37004500Y-66618280D01*
X36987187Y-66665846D01*
X36943350Y-66691156D01*
X36893500Y-66682366D01*
X36892217Y-66681608D01*
X36814267Y-66634486D01*
X36657661Y-66585686D01*
X36657658Y-66585685D01*
X36657657Y-66585685D01*
X36657655Y-66585684D01*
X36657651Y-66585684D01*
X36589601Y-66579500D01*
X36589594Y-66579500D01*
X35630406Y-66579500D01*
X35630398Y-66579500D01*
X35562348Y-66585684D01*
X35562338Y-66585686D01*
X35405732Y-66634486D01*
X35265346Y-66719352D01*
X35149352Y-66835346D01*
X35064486Y-66975732D01*
X35015686Y-67132338D01*
X35015684Y-67132348D01*
X35009500Y-67200398D01*
X35009500Y-68159601D01*
X35015684Y-68227651D01*
X35015686Y-68227661D01*
X35064486Y-68384267D01*
X35104942Y-68451189D01*
X35149352Y-68524653D01*
X35265347Y-68640648D01*
X35401712Y-68723083D01*
X35405732Y-68725513D01*
X35477803Y-68747971D01*
X35562343Y-68774315D01*
X35630406Y-68780500D01*
X35630408Y-68780500D01*
X36589592Y-68780500D01*
X36589594Y-68780500D01*
X36657657Y-68774315D01*
X36814270Y-68725512D01*
X36892218Y-68678390D01*
X36941880Y-68668599D01*
X36986218Y-68693021D01*
X37004485Y-68740229D01*
X37004500Y-68741719D01*
X37004500Y-69158280D01*
X36987187Y-69205846D01*
X36943350Y-69231156D01*
X36893500Y-69222366D01*
X36892217Y-69221608D01*
X36814267Y-69174486D01*
X36657661Y-69125686D01*
X36657658Y-69125685D01*
X36657657Y-69125685D01*
X36657655Y-69125684D01*
X36657651Y-69125684D01*
X36589601Y-69119500D01*
X36589594Y-69119500D01*
X35630406Y-69119500D01*
X35630398Y-69119500D01*
X35562348Y-69125684D01*
X35562338Y-69125686D01*
X35405732Y-69174486D01*
X35265346Y-69259352D01*
X35149352Y-69375346D01*
X35064486Y-69515732D01*
X35015686Y-69672338D01*
X35015684Y-69672348D01*
X35009500Y-69740398D01*
X35009500Y-70699601D01*
X35015684Y-70767651D01*
X35015686Y-70767661D01*
X35064486Y-70924267D01*
X35064488Y-70924270D01*
X35149352Y-71064653D01*
X35265347Y-71180648D01*
X35401712Y-71263083D01*
X35405732Y-71265513D01*
X35469539Y-71285396D01*
X35562343Y-71314315D01*
X35630406Y-71320500D01*
X35630408Y-71320500D01*
X36589592Y-71320500D01*
X36589594Y-71320500D01*
X36657657Y-71314315D01*
X36814270Y-71265512D01*
X36892218Y-71218390D01*
X36941880Y-71208599D01*
X36986218Y-71233021D01*
X37004485Y-71280229D01*
X37004500Y-71281719D01*
X37004500Y-71698280D01*
X36987187Y-71745846D01*
X36943350Y-71771156D01*
X36893500Y-71762366D01*
X36892217Y-71761608D01*
X36814267Y-71714486D01*
X36657661Y-71665686D01*
X36657658Y-71665685D01*
X36657657Y-71665685D01*
X36657655Y-71665684D01*
X36657651Y-71665684D01*
X36589601Y-71659500D01*
X36589594Y-71659500D01*
X35630406Y-71659500D01*
X35630398Y-71659500D01*
X35562348Y-71665684D01*
X35562338Y-71665686D01*
X35405732Y-71714486D01*
X35265346Y-71799352D01*
X35149352Y-71915346D01*
X35064486Y-72055732D01*
X35015686Y-72212338D01*
X35015684Y-72212348D01*
X35009500Y-72280398D01*
X35009500Y-73239601D01*
X35015684Y-73307651D01*
X35015686Y-73307661D01*
X35064486Y-73464267D01*
X35146537Y-73599996D01*
X35149352Y-73604653D01*
X35265347Y-73720648D01*
X35401712Y-73803083D01*
X35405732Y-73805513D01*
X35477803Y-73827971D01*
X35562343Y-73854315D01*
X35630406Y-73860500D01*
X35630408Y-73860500D01*
X36589592Y-73860500D01*
X36589594Y-73860500D01*
X36657657Y-73854315D01*
X36814270Y-73805512D01*
X36892218Y-73758390D01*
X36941880Y-73748599D01*
X36986218Y-73773021D01*
X37004485Y-73820229D01*
X37004500Y-73821719D01*
X37004500Y-90293381D01*
X37002925Y-90308566D01*
X36999633Y-90324264D01*
X36999633Y-90324268D01*
X37003315Y-90353809D01*
X37004216Y-90361032D01*
X37004500Y-90365613D01*
X37004500Y-90371118D01*
X37008215Y-90393380D01*
X37008435Y-90394892D01*
X37015134Y-90448627D01*
X37016884Y-90454504D01*
X37016615Y-90454584D01*
X37017679Y-90457904D01*
X37017945Y-90457813D01*
X37019935Y-90463610D01*
X37045696Y-90511215D01*
X37046396Y-90512574D01*
X37070175Y-90561214D01*
X37073738Y-90566204D01*
X37073510Y-90566366D01*
X37075595Y-90569162D01*
X37075817Y-90568990D01*
X37079579Y-90573823D01*
X37079581Y-90573826D01*
X37110903Y-90602660D01*
X37119400Y-90610482D01*
X37120504Y-90611541D01*
X39111518Y-92602555D01*
X39121140Y-92614404D01*
X39129916Y-92627836D01*
X39153003Y-92645805D01*
X39159154Y-92650593D01*
X39162593Y-92653631D01*
X39166482Y-92657519D01*
X39166481Y-92657519D01*
X39172409Y-92661751D01*
X39184884Y-92670658D01*
X39186083Y-92671553D01*
X39228807Y-92704807D01*
X39234202Y-92707726D01*
X39234067Y-92707974D01*
X39237170Y-92709572D01*
X39237295Y-92709318D01*
X39242798Y-92712008D01*
X39242801Y-92712010D01*
X39294732Y-92727470D01*
X39296092Y-92727906D01*
X39347340Y-92745500D01*
X39347341Y-92745500D01*
X39353391Y-92746510D01*
X39353344Y-92746787D01*
X39356791Y-92747289D01*
X39356826Y-92747010D01*
X39362906Y-92747767D01*
X39362912Y-92747769D01*
X39396593Y-92746375D01*
X39417010Y-92745532D01*
X39418539Y-92745500D01*
X48901773Y-92745500D01*
X48949339Y-92762813D01*
X48968014Y-92786514D01*
X49050327Y-92951821D01*
X49050328Y-92951822D01*
X49050329Y-92951825D01*
X49173234Y-93114578D01*
X49173235Y-93114579D01*
X49310637Y-93239836D01*
X49323959Y-93251981D01*
X49497363Y-93359348D01*
X49687544Y-93433024D01*
X49888024Y-93470500D01*
X49888026Y-93470500D01*
X50091974Y-93470500D01*
X50091976Y-93470500D01*
X50292456Y-93433024D01*
X50482637Y-93359348D01*
X50656041Y-93251981D01*
X50806764Y-93114579D01*
X50929673Y-92951821D01*
X51020582Y-92769250D01*
X51076397Y-92573083D01*
X51095215Y-92370000D01*
X51076397Y-92166917D01*
X51020582Y-91970750D01*
X50929673Y-91788179D01*
X50929670Y-91788175D01*
X50929670Y-91788174D01*
X50806765Y-91625421D01*
X50806764Y-91625420D01*
X50656041Y-91488019D01*
X50656040Y-91488019D01*
X50482637Y-91380652D01*
X50337655Y-91324486D01*
X50292459Y-91306977D01*
X50292458Y-91306976D01*
X50292456Y-91306976D01*
X50183015Y-91286518D01*
X50091979Y-91269500D01*
X50091976Y-91269500D01*
X49888024Y-91269500D01*
X49888020Y-91269500D01*
X49738115Y-91297522D01*
X49687544Y-91306976D01*
X49687542Y-91306976D01*
X49687540Y-91306977D01*
X49497368Y-91380650D01*
X49497363Y-91380652D01*
X49497358Y-91380654D01*
X49497358Y-91380655D01*
X49323958Y-91488019D01*
X49323957Y-91488019D01*
X49173235Y-91625420D01*
X49173234Y-91625421D01*
X49050329Y-91788174D01*
X49050328Y-91788177D01*
X48968015Y-91953485D01*
X48931315Y-91988347D01*
X48901773Y-91994500D01*
X39596189Y-91994500D01*
X39548623Y-91977187D01*
X39543863Y-91972826D01*
X37777174Y-90206136D01*
X37755782Y-90160260D01*
X37755500Y-90153810D01*
X37755500Y-88496176D01*
X37772813Y-88448610D01*
X37816650Y-88423300D01*
X37866500Y-88432090D01*
X37899037Y-88470867D01*
X37899260Y-88471487D01*
X37937543Y-88579660D01*
X37937546Y-88579665D01*
X38024791Y-88737300D01*
X38024807Y-88737326D01*
X38701699Y-89752286D01*
X38701700Y-89752287D01*
X38813711Y-89893423D01*
X38813713Y-89893425D01*
X38992101Y-90054553D01*
X39194577Y-90184120D01*
X39194585Y-90184123D01*
X39194588Y-90184125D01*
X39415617Y-90278594D01*
X39649184Y-90335396D01*
X39649187Y-90335396D01*
X39649194Y-90335398D01*
X39853766Y-90350401D01*
X39888932Y-90352981D01*
X39888932Y-90352980D01*
X39888934Y-90352981D01*
X40033428Y-90339630D01*
X40128291Y-90330866D01*
X40128293Y-90330865D01*
X40128298Y-90330865D01*
X40360757Y-90269652D01*
X40579971Y-90171013D01*
X40701440Y-90090003D01*
X42814529Y-90090003D01*
X42834378Y-90329556D01*
X42834378Y-90329557D01*
X42843509Y-90365613D01*
X42893041Y-90561214D01*
X42893392Y-90562597D01*
X42962958Y-90721191D01*
X42989951Y-90782728D01*
X43121429Y-90983969D01*
X43284236Y-91160825D01*
X43473933Y-91308472D01*
X43685344Y-91422882D01*
X43912703Y-91500934D01*
X44149808Y-91540500D01*
X44395326Y-91540500D01*
X46749808Y-91540500D01*
X46990192Y-91540500D01*
X47227297Y-91500934D01*
X47454656Y-91422882D01*
X47666067Y-91308472D01*
X47855764Y-91160825D01*
X48018571Y-90983969D01*
X48150049Y-90782728D01*
X48246610Y-90562591D01*
X48305620Y-90329563D01*
X48305620Y-90329559D01*
X48305621Y-90329557D01*
X48305621Y-90329556D01*
X48325471Y-90090003D01*
X48325471Y-90089996D01*
X48305621Y-89850443D01*
X48305621Y-89850442D01*
X48280765Y-89752287D01*
X48246610Y-89617409D01*
X48153196Y-89404448D01*
X48149944Y-89353934D01*
X48168636Y-89322399D01*
X48242558Y-89248477D01*
X48254400Y-89238861D01*
X48267836Y-89230084D01*
X48290594Y-89200843D01*
X48293631Y-89197405D01*
X48297519Y-89193518D01*
X48310636Y-89175145D01*
X48311552Y-89173916D01*
X48314536Y-89170082D01*
X48344809Y-89131189D01*
X48344810Y-89131183D01*
X48347729Y-89125792D01*
X48347978Y-89125926D01*
X48349571Y-89122832D01*
X48349316Y-89122708D01*
X48352009Y-89117200D01*
X48352008Y-89117200D01*
X48352010Y-89117199D01*
X48367459Y-89065302D01*
X48367900Y-89063925D01*
X48385500Y-89012660D01*
X48385500Y-89012656D01*
X48386510Y-89006609D01*
X48386786Y-89006655D01*
X48387289Y-89003207D01*
X48387009Y-89003173D01*
X48387765Y-88997096D01*
X48387768Y-88997089D01*
X48385931Y-88952656D01*
X48385532Y-88943002D01*
X48385500Y-88941473D01*
X48385500Y-85028185D01*
X48402813Y-84980619D01*
X48446650Y-84955309D01*
X48496500Y-84964099D01*
X48514187Y-84978332D01*
X48607763Y-85080981D01*
X48607764Y-85080982D01*
X48785306Y-85215055D01*
X48785309Y-85215057D01*
X48785310Y-85215057D01*
X48785311Y-85215058D01*
X48984472Y-85314229D01*
X49198464Y-85375115D01*
X49364497Y-85390500D01*
X49364499Y-85390500D01*
X49775501Y-85390500D01*
X49775503Y-85390500D01*
X49941536Y-85375115D01*
X50155528Y-85314229D01*
X50354689Y-85215058D01*
X50532236Y-85080981D01*
X50682124Y-84916562D01*
X50799247Y-84727401D01*
X50879618Y-84519940D01*
X50879617Y-84519940D01*
X50880854Y-84516750D01*
X50882046Y-84517211D01*
X50908986Y-84479963D01*
X50958075Y-84467610D01*
X51003619Y-84489700D01*
X51024308Y-84535898D01*
X51024500Y-84541221D01*
X51024500Y-86818381D01*
X51022925Y-86833566D01*
X51019633Y-86849264D01*
X51019633Y-86849269D01*
X51024216Y-86886032D01*
X51024500Y-86890613D01*
X51024500Y-86896118D01*
X51028215Y-86918380D01*
X51028435Y-86919892D01*
X51035134Y-86973627D01*
X51036884Y-86979504D01*
X51036615Y-86979584D01*
X51037679Y-86982904D01*
X51037945Y-86982813D01*
X51039935Y-86988610D01*
X51065696Y-87036215D01*
X51066391Y-87037564D01*
X51066522Y-87037832D01*
X51090175Y-87086214D01*
X51093738Y-87091204D01*
X51093510Y-87091366D01*
X51095595Y-87094162D01*
X51095817Y-87093990D01*
X51099579Y-87098823D01*
X51099581Y-87098826D01*
X51139400Y-87135482D01*
X51140504Y-87136541D01*
X51452826Y-87448863D01*
X51474218Y-87494739D01*
X51474500Y-87501188D01*
X51474500Y-88814674D01*
X51485808Y-88871524D01*
X51489034Y-88887740D01*
X51532408Y-88952656D01*
X51544399Y-88970601D01*
X51627260Y-89025966D01*
X51700326Y-89040500D01*
X52075500Y-89040500D01*
X52123066Y-89057813D01*
X52148376Y-89101650D01*
X52149500Y-89114500D01*
X52149499Y-91286518D01*
X52132186Y-91334084D01*
X52102232Y-91355521D01*
X52037365Y-91380651D01*
X52037358Y-91380655D01*
X51863958Y-91488019D01*
X51863957Y-91488019D01*
X51713235Y-91625420D01*
X51713234Y-91625421D01*
X51590329Y-91788174D01*
X51590328Y-91788177D01*
X51499418Y-91970750D01*
X51499416Y-91970755D01*
X51443602Y-92166917D01*
X51443601Y-92166923D01*
X51424785Y-92369996D01*
X51424785Y-92370003D01*
X51443601Y-92573076D01*
X51443602Y-92573082D01*
X51493306Y-92747769D01*
X51499418Y-92769250D01*
X51590327Y-92951821D01*
X51590328Y-92951822D01*
X51590329Y-92951825D01*
X51713234Y-93114578D01*
X51713235Y-93114579D01*
X51850636Y-93239836D01*
X51863959Y-93251981D01*
X52037363Y-93359348D01*
X52227544Y-93433024D01*
X52428024Y-93470500D01*
X52428026Y-93470500D01*
X52631974Y-93470500D01*
X52631976Y-93470500D01*
X52832456Y-93433024D01*
X53022637Y-93359348D01*
X53196041Y-93251981D01*
X53346764Y-93114579D01*
X53469673Y-92951821D01*
X53560582Y-92769250D01*
X53616397Y-92573083D01*
X53635215Y-92370000D01*
X53616397Y-92166917D01*
X53560582Y-91970750D01*
X53469673Y-91788179D01*
X53469670Y-91788175D01*
X53469670Y-91788174D01*
X53346765Y-91625421D01*
X53346764Y-91625420D01*
X53196041Y-91488019D01*
X53196040Y-91488019D01*
X53022637Y-91380652D01*
X52998258Y-91371207D01*
X52947768Y-91351647D01*
X52909668Y-91318320D01*
X52900500Y-91282644D01*
X52900500Y-89114500D01*
X52917813Y-89066934D01*
X52961650Y-89041624D01*
X52974500Y-89040500D01*
X53349672Y-89040500D01*
X53349674Y-89040500D01*
X53422740Y-89025966D01*
X53505601Y-88970601D01*
X53560966Y-88887740D01*
X53575500Y-88814674D01*
X53575500Y-87165326D01*
X53560966Y-87092260D01*
X53505601Y-87009399D01*
X53501765Y-87006836D01*
X53422740Y-86954034D01*
X53408422Y-86951186D01*
X53349674Y-86939500D01*
X53349672Y-86939500D01*
X52974500Y-86939500D01*
X52926934Y-86922187D01*
X52901624Y-86878350D01*
X52900500Y-86865500D01*
X52900500Y-86611806D01*
X52917813Y-86564240D01*
X52961650Y-86538930D01*
X52966587Y-86538230D01*
X53002114Y-86534412D01*
X53130226Y-86486628D01*
X53239687Y-86404687D01*
X53321628Y-86295226D01*
X53369412Y-86167114D01*
X53375500Y-86110485D01*
X53375499Y-85569516D01*
X53369412Y-85512886D01*
X53321628Y-85384774D01*
X53239687Y-85275313D01*
X53149098Y-85207499D01*
X53130225Y-85193371D01*
X53130226Y-85193371D01*
X53002114Y-85145588D01*
X52945486Y-85139500D01*
X52104515Y-85139500D01*
X52104514Y-85139501D01*
X52047885Y-85145588D01*
X51919774Y-85193371D01*
X51893846Y-85212781D01*
X51845392Y-85227426D01*
X51798860Y-85207499D01*
X51776023Y-85162324D01*
X51775500Y-85153540D01*
X51775500Y-83226459D01*
X51792813Y-83178893D01*
X51836650Y-83153583D01*
X51886500Y-83162373D01*
X51893842Y-83167216D01*
X51919774Y-83186628D01*
X51919773Y-83186628D01*
X51967556Y-83204450D01*
X52047886Y-83234412D01*
X52104515Y-83240500D01*
X52945484Y-83240499D01*
X53002114Y-83234412D01*
X53130226Y-83186628D01*
X53239687Y-83104687D01*
X53321628Y-82995226D01*
X53369412Y-82867114D01*
X53375500Y-82810485D01*
X53375499Y-82269516D01*
X53369412Y-82212886D01*
X53321628Y-82084774D01*
X53239687Y-81975313D01*
X53149098Y-81907499D01*
X53130225Y-81893371D01*
X53130226Y-81893371D01*
X53002114Y-81845588D01*
X52966588Y-81841768D01*
X52921146Y-81819469D01*
X52900668Y-81773177D01*
X52900500Y-81768192D01*
X52900500Y-81424794D01*
X52917813Y-81377228D01*
X52939615Y-81359533D01*
X53111450Y-81267685D01*
X53271410Y-81136410D01*
X53402685Y-80976450D01*
X53500232Y-80793954D01*
X53560300Y-80595934D01*
X53580583Y-80390000D01*
X53560300Y-80184066D01*
X53500232Y-79986046D01*
X53402685Y-79803550D01*
X53271410Y-79643590D01*
X53111450Y-79512315D01*
X52928954Y-79414768D01*
X52817158Y-79380855D01*
X52730935Y-79354700D01*
X52627967Y-79344558D01*
X52525000Y-79334417D01*
X52524999Y-79334417D01*
X52319064Y-79354700D01*
X52121043Y-79414769D01*
X51938549Y-79512315D01*
X51896445Y-79546869D01*
X51848692Y-79563662D01*
X51801318Y-79545831D01*
X51776488Y-79501719D01*
X51775500Y-79489666D01*
X51775500Y-75385144D01*
X51792813Y-75337578D01*
X51836650Y-75312268D01*
X51886500Y-75321058D01*
X51918834Y-75359284D01*
X51970630Y-75498157D01*
X52107772Y-75749313D01*
X52193517Y-75863855D01*
X52279261Y-75978395D01*
X52481605Y-76180739D01*
X52653415Y-76309354D01*
X52710686Y-76352227D01*
X52961843Y-76489369D01*
X53229939Y-76589364D01*
X53229945Y-76589365D01*
X53229954Y-76589369D01*
X53509572Y-76650196D01*
X53723539Y-76665499D01*
X53723544Y-76665500D01*
X53723552Y-76665500D01*
X53866456Y-76665500D01*
X53866459Y-76665499D01*
X54080428Y-76650196D01*
X54360046Y-76589369D01*
X54360057Y-76589364D01*
X54360060Y-76589364D01*
X54628156Y-76489369D01*
X54628156Y-76489368D01*
X54628161Y-76489367D01*
X54879315Y-76352226D01*
X55108395Y-76180739D01*
X55310739Y-75978395D01*
X55482226Y-75749315D01*
X55619367Y-75498161D01*
X55619367Y-75498159D01*
X55619369Y-75498157D01*
X55671166Y-75359284D01*
X55704009Y-75320767D01*
X55753928Y-75312372D01*
X55797563Y-75338029D01*
X55814500Y-75385144D01*
X55814500Y-79489666D01*
X55797187Y-79537232D01*
X55753350Y-79562542D01*
X55703500Y-79553752D01*
X55693555Y-79546869D01*
X55651450Y-79512315D01*
X55468956Y-79414769D01*
X55468955Y-79414768D01*
X55468954Y-79414768D01*
X55357158Y-79380855D01*
X55270935Y-79354700D01*
X55065000Y-79334417D01*
X54859064Y-79354700D01*
X54661043Y-79414769D01*
X54478549Y-79512315D01*
X54318590Y-79643589D01*
X54318589Y-79643590D01*
X54187315Y-79803549D01*
X54089769Y-79986043D01*
X54029700Y-80184064D01*
X54009417Y-80390000D01*
X54013507Y-80431531D01*
X54029700Y-80595934D01*
X54089768Y-80793954D01*
X54187315Y-80976450D01*
X54318590Y-81136410D01*
X54478550Y-81267685D01*
X54650383Y-81359532D01*
X54684171Y-81397223D01*
X54689499Y-81424794D01*
X54689500Y-81768193D01*
X54672187Y-81815759D01*
X54628350Y-81841069D01*
X54623410Y-81841769D01*
X54587885Y-81845588D01*
X54459774Y-81893371D01*
X54350313Y-81975313D01*
X54268371Y-82084774D01*
X54220588Y-82212884D01*
X54220588Y-82212887D01*
X54214500Y-82269513D01*
X54214500Y-82810484D01*
X54214501Y-82810485D01*
X54220588Y-82867114D01*
X54268371Y-82995225D01*
X54288972Y-83022745D01*
X54350313Y-83104687D01*
X54459774Y-83186628D01*
X54459773Y-83186628D01*
X54507556Y-83204450D01*
X54587886Y-83234412D01*
X54644515Y-83240500D01*
X55485484Y-83240499D01*
X55542114Y-83234412D01*
X55670226Y-83186628D01*
X55696153Y-83167218D01*
X55744607Y-83152573D01*
X55791139Y-83172499D01*
X55813977Y-83217673D01*
X55814500Y-83226459D01*
X55814500Y-85153540D01*
X55797187Y-85201106D01*
X55753350Y-85226416D01*
X55703500Y-85217626D01*
X55696154Y-85212781D01*
X55670225Y-85193371D01*
X55542114Y-85145588D01*
X55485486Y-85139500D01*
X54644515Y-85139500D01*
X54644514Y-85139501D01*
X54587885Y-85145588D01*
X54459774Y-85193371D01*
X54350313Y-85275313D01*
X54268371Y-85384774D01*
X54220588Y-85512884D01*
X54220588Y-85512887D01*
X54214500Y-85569513D01*
X54214500Y-86110484D01*
X54214501Y-86110485D01*
X54220588Y-86167114D01*
X54268371Y-86295225D01*
X54268372Y-86295226D01*
X54350313Y-86404687D01*
X54459774Y-86486628D01*
X54459773Y-86486628D01*
X54507556Y-86504450D01*
X54587886Y-86534412D01*
X54623410Y-86538231D01*
X54668853Y-86560529D01*
X54689332Y-86606821D01*
X54689500Y-86611807D01*
X54689500Y-86865500D01*
X54672187Y-86913066D01*
X54628350Y-86938376D01*
X54615500Y-86939500D01*
X54240326Y-86939500D01*
X54191615Y-86949189D01*
X54167259Y-86954034D01*
X54084399Y-87009398D01*
X54084398Y-87009399D01*
X54029034Y-87092259D01*
X54027728Y-87098826D01*
X54014500Y-87165326D01*
X54014500Y-88814674D01*
X54025808Y-88871524D01*
X54029034Y-88887740D01*
X54072408Y-88952656D01*
X54084399Y-88970601D01*
X54167260Y-89025966D01*
X54240326Y-89040500D01*
X54615500Y-89040500D01*
X54663066Y-89057813D01*
X54688376Y-89101650D01*
X54689500Y-89114500D01*
X54689500Y-91286518D01*
X54672187Y-91334084D01*
X54642233Y-91355521D01*
X54577364Y-91380651D01*
X54577358Y-91380655D01*
X54403958Y-91488019D01*
X54403957Y-91488019D01*
X54253235Y-91625420D01*
X54253234Y-91625421D01*
X54130329Y-91788174D01*
X54130328Y-91788177D01*
X54039418Y-91970750D01*
X54039416Y-91970755D01*
X53983602Y-92166917D01*
X53983601Y-92166923D01*
X53964785Y-92369996D01*
X53964785Y-92370003D01*
X53983601Y-92573076D01*
X53983602Y-92573082D01*
X54033306Y-92747769D01*
X54039418Y-92769250D01*
X54130327Y-92951821D01*
X54130328Y-92951822D01*
X54130329Y-92951825D01*
X54253234Y-93114578D01*
X54253235Y-93114579D01*
X54390636Y-93239836D01*
X54403959Y-93251981D01*
X54577363Y-93359348D01*
X54767544Y-93433024D01*
X54968024Y-93470500D01*
X54968026Y-93470500D01*
X55171974Y-93470500D01*
X55171976Y-93470500D01*
X55372456Y-93433024D01*
X55562637Y-93359348D01*
X55736041Y-93251981D01*
X55886764Y-93114579D01*
X56009673Y-92951821D01*
X56060572Y-92849601D01*
X56509500Y-92849601D01*
X56515684Y-92917651D01*
X56515686Y-92917661D01*
X56564486Y-93074267D01*
X56648303Y-93212918D01*
X56649352Y-93214653D01*
X56765347Y-93330648D01*
X56905730Y-93415512D01*
X56905732Y-93415513D01*
X56977803Y-93437971D01*
X57062343Y-93464315D01*
X57130406Y-93470500D01*
X57130408Y-93470500D01*
X58089592Y-93470500D01*
X58089594Y-93470500D01*
X58157657Y-93464315D01*
X58314270Y-93415512D01*
X58454653Y-93330648D01*
X58570648Y-93214653D01*
X58655512Y-93074270D01*
X58704315Y-92917657D01*
X58710500Y-92849594D01*
X58710500Y-92819500D01*
X58727813Y-92771934D01*
X58771650Y-92746624D01*
X58784500Y-92745500D01*
X68953383Y-92745500D01*
X68968567Y-92747074D01*
X68984268Y-92750367D01*
X69021036Y-92745783D01*
X69025615Y-92745500D01*
X69031111Y-92745500D01*
X69031114Y-92745500D01*
X69053387Y-92741782D01*
X69054887Y-92741564D01*
X69060604Y-92740851D01*
X69108626Y-92734866D01*
X69108629Y-92734864D01*
X69114507Y-92733115D01*
X69114587Y-92733386D01*
X69117904Y-92732323D01*
X69117812Y-92732055D01*
X69123606Y-92730065D01*
X69123610Y-92730065D01*
X69171235Y-92704290D01*
X69172535Y-92703622D01*
X69221211Y-92679826D01*
X69221213Y-92679823D01*
X69226204Y-92676261D01*
X69226369Y-92676493D01*
X69229158Y-92674414D01*
X69228983Y-92674189D01*
X69233824Y-92670420D01*
X69233823Y-92670420D01*
X69233826Y-92670419D01*
X69270512Y-92630565D01*
X69271517Y-92629518D01*
X71062561Y-90838475D01*
X71074401Y-90828861D01*
X71087836Y-90820084D01*
X71110598Y-90790837D01*
X71113620Y-90787417D01*
X71117520Y-90783518D01*
X71130660Y-90765111D01*
X71131564Y-90763900D01*
X71164807Y-90721191D01*
X71164809Y-90721189D01*
X71164810Y-90721184D01*
X71167729Y-90715792D01*
X71167979Y-90715927D01*
X71169571Y-90712835D01*
X71169316Y-90712710D01*
X71172010Y-90707199D01*
X71187469Y-90655271D01*
X71187897Y-90653932D01*
X71205500Y-90602660D01*
X71205500Y-90602656D01*
X71206510Y-90596610D01*
X71206786Y-90596656D01*
X71207289Y-90593206D01*
X71207009Y-90593172D01*
X71207765Y-90587095D01*
X71207768Y-90587088D01*
X71206462Y-90555511D01*
X71205532Y-90533002D01*
X71205500Y-90531474D01*
X71205500Y-74016189D01*
X71222813Y-73968623D01*
X71227174Y-73963863D01*
X72473863Y-72717174D01*
X72519739Y-72695782D01*
X72526189Y-72695500D01*
X74927645Y-72695500D01*
X74975211Y-72712813D01*
X75000521Y-72756650D01*
X74991731Y-72806500D01*
X74977498Y-72824187D01*
X74943235Y-72855420D01*
X74943234Y-72855421D01*
X74820329Y-73018174D01*
X74820328Y-73018177D01*
X74729418Y-73200750D01*
X74729416Y-73200755D01*
X74673602Y-73396917D01*
X74673601Y-73396923D01*
X74654785Y-73599996D01*
X74654785Y-73600003D01*
X74673601Y-73803076D01*
X74673602Y-73803082D01*
X74727475Y-73992421D01*
X74729418Y-73999250D01*
X74820327Y-74181821D01*
X74820328Y-74181822D01*
X74820329Y-74181825D01*
X74943234Y-74344578D01*
X74943235Y-74344579D01*
X75080637Y-74469836D01*
X75093959Y-74481981D01*
X75267363Y-74589348D01*
X75457544Y-74663024D01*
X75658024Y-74700500D01*
X75658026Y-74700500D01*
X75861974Y-74700500D01*
X75861976Y-74700500D01*
X76062456Y-74663024D01*
X76252637Y-74589348D01*
X76426041Y-74481981D01*
X76576764Y-74344579D01*
X76699673Y-74181821D01*
X76790582Y-73999250D01*
X76846397Y-73803083D01*
X76848267Y-73782908D01*
X76865215Y-73600003D01*
X76865215Y-73599996D01*
X76846398Y-73396923D01*
X76846397Y-73396917D01*
X76790583Y-73200755D01*
X76790582Y-73200750D01*
X76699673Y-73018179D01*
X76699670Y-73018175D01*
X76699670Y-73018174D01*
X76576765Y-72855421D01*
X76576764Y-72855420D01*
X76542502Y-72824187D01*
X76519013Y-72779348D01*
X76529842Y-72729901D01*
X76569921Y-72698982D01*
X76592355Y-72695500D01*
X76833811Y-72695500D01*
X76881377Y-72712813D01*
X76886137Y-72717174D01*
X77265108Y-73096145D01*
X77286500Y-73142021D01*
X77279026Y-73181451D01*
X77269417Y-73200750D01*
X77269416Y-73200752D01*
X77213602Y-73396917D01*
X77213601Y-73396923D01*
X77194785Y-73599996D01*
X77194785Y-73600003D01*
X77213601Y-73803076D01*
X77213602Y-73803082D01*
X77267475Y-73992421D01*
X77269418Y-73999250D01*
X77360327Y-74181821D01*
X77360328Y-74181822D01*
X77360329Y-74181825D01*
X77483234Y-74344578D01*
X77483235Y-74344579D01*
X77620637Y-74469836D01*
X77633959Y-74481981D01*
X77807363Y-74589348D01*
X77997544Y-74663024D01*
X78198024Y-74700500D01*
X78198026Y-74700500D01*
X78401974Y-74700500D01*
X78401976Y-74700500D01*
X78602456Y-74663024D01*
X78792637Y-74589348D01*
X78966041Y-74481981D01*
X79116764Y-74344579D01*
X79239673Y-74181821D01*
X79330582Y-73999250D01*
X79386397Y-73803083D01*
X79388267Y-73782908D01*
X79405215Y-73600003D01*
X79405215Y-73599996D01*
X79386398Y-73396923D01*
X79386397Y-73396917D01*
X79330583Y-73200755D01*
X79330582Y-73200750D01*
X79239673Y-73018179D01*
X79239670Y-73018175D01*
X79239670Y-73018174D01*
X79116765Y-72855421D01*
X79116764Y-72855420D01*
X78966041Y-72718019D01*
X78929671Y-72695500D01*
X78792637Y-72610652D01*
X78602456Y-72536976D01*
X78514407Y-72520516D01*
X78401979Y-72499500D01*
X78401976Y-72499500D01*
X78198024Y-72499500D01*
X78198020Y-72499500D01*
X78048115Y-72527522D01*
X77997544Y-72536976D01*
X77997542Y-72536976D01*
X77997540Y-72536977D01*
X77877066Y-72583648D01*
X77826458Y-72584687D01*
X77798009Y-72566971D01*
X77318479Y-72087441D01*
X77308853Y-72075586D01*
X77300086Y-72062166D01*
X77300083Y-72062163D01*
X77270853Y-72039412D01*
X77267415Y-72036377D01*
X77263518Y-72032480D01*
X77254004Y-72025687D01*
X77245123Y-72019346D01*
X77243897Y-72018432D01*
X77229864Y-72007510D01*
X77201189Y-71985191D01*
X77201186Y-71985190D01*
X77201185Y-71985189D01*
X77195795Y-71982272D01*
X77195928Y-71982024D01*
X77192829Y-71980429D01*
X77192706Y-71980682D01*
X77187201Y-71977990D01*
X77135347Y-71962552D01*
X77133892Y-71962086D01*
X77082661Y-71944499D01*
X77076615Y-71943491D01*
X77076661Y-71943214D01*
X77073206Y-71942710D01*
X77073172Y-71942991D01*
X77067089Y-71942232D01*
X77067088Y-71942232D01*
X77067086Y-71942232D01*
X77013003Y-71944468D01*
X77011475Y-71944500D01*
X76614294Y-71944500D01*
X76566728Y-71927187D01*
X76541418Y-71883350D01*
X76550208Y-71833500D01*
X76564441Y-71815813D01*
X76576764Y-71804579D01*
X76576765Y-71804578D01*
X76699670Y-71641825D01*
X76699670Y-71641824D01*
X76699673Y-71641821D01*
X76790582Y-71459250D01*
X76846397Y-71263083D01*
X76850422Y-71219652D01*
X76865215Y-71060003D01*
X77194785Y-71060003D01*
X77213601Y-71263076D01*
X77213602Y-71263082D01*
X77269416Y-71459244D01*
X77269418Y-71459250D01*
X77360327Y-71641821D01*
X77360328Y-71641822D01*
X77360329Y-71641825D01*
X77483234Y-71804578D01*
X77483235Y-71804579D01*
X77633956Y-71941979D01*
X77633957Y-71941979D01*
X77633959Y-71941981D01*
X77807363Y-72049348D01*
X77997544Y-72123024D01*
X78198024Y-72160500D01*
X78198026Y-72160500D01*
X78401974Y-72160500D01*
X78401976Y-72160500D01*
X78602456Y-72123024D01*
X78792637Y-72049348D01*
X78966041Y-71941981D01*
X78966042Y-71941979D01*
X78966044Y-71941979D01*
X79116764Y-71804579D01*
X79116765Y-71804578D01*
X79239670Y-71641825D01*
X79239670Y-71641824D01*
X79239673Y-71641821D01*
X79330582Y-71459250D01*
X79386397Y-71263083D01*
X79390422Y-71219652D01*
X79405215Y-71060003D01*
X79405215Y-71059996D01*
X79386398Y-70856923D01*
X79386397Y-70856917D01*
X79376793Y-70823162D01*
X79330582Y-70660750D01*
X79239673Y-70478179D01*
X79239670Y-70478175D01*
X79239670Y-70478174D01*
X79116765Y-70315421D01*
X79116764Y-70315420D01*
X78966041Y-70178019D01*
X78919227Y-70149033D01*
X78792637Y-70070652D01*
X78640696Y-70011790D01*
X78602459Y-69996977D01*
X78602458Y-69996976D01*
X78602456Y-69996976D01*
X78490062Y-69975966D01*
X78401979Y-69959500D01*
X78401976Y-69959500D01*
X78198024Y-69959500D01*
X78198020Y-69959500D01*
X78048115Y-69987522D01*
X77997544Y-69996976D01*
X77997542Y-69996976D01*
X77997540Y-69996977D01*
X77807368Y-70070650D01*
X77807363Y-70070652D01*
X77807358Y-70070654D01*
X77807358Y-70070655D01*
X77633958Y-70178019D01*
X77633957Y-70178019D01*
X77483235Y-70315420D01*
X77483234Y-70315421D01*
X77360329Y-70478174D01*
X77360328Y-70478177D01*
X77269418Y-70660750D01*
X77269416Y-70660755D01*
X77213602Y-70856917D01*
X77213601Y-70856923D01*
X77194785Y-71059996D01*
X77194785Y-71060003D01*
X76865215Y-71060003D01*
X76865215Y-71059996D01*
X76846398Y-70856923D01*
X76846397Y-70856917D01*
X76836793Y-70823162D01*
X76790582Y-70660750D01*
X76699673Y-70478179D01*
X76699670Y-70478175D01*
X76699670Y-70478174D01*
X76576765Y-70315421D01*
X76576764Y-70315420D01*
X76426041Y-70178019D01*
X76379227Y-70149033D01*
X76252637Y-70070652D01*
X76100696Y-70011790D01*
X76062459Y-69996977D01*
X76062458Y-69996976D01*
X76062456Y-69996976D01*
X75950062Y-69975966D01*
X75861979Y-69959500D01*
X75861976Y-69959500D01*
X75658024Y-69959500D01*
X75658020Y-69959500D01*
X75508115Y-69987522D01*
X75457544Y-69996976D01*
X75457542Y-69996976D01*
X75457540Y-69996977D01*
X75267368Y-70070650D01*
X75267363Y-70070652D01*
X75267358Y-70070654D01*
X75267358Y-70070655D01*
X75093958Y-70178019D01*
X75093957Y-70178019D01*
X74943235Y-70315420D01*
X74943234Y-70315421D01*
X74820329Y-70478174D01*
X74820328Y-70478177D01*
X74729418Y-70660750D01*
X74729416Y-70660755D01*
X74673602Y-70856917D01*
X74673601Y-70856923D01*
X74654785Y-71059996D01*
X74654785Y-71060003D01*
X74673601Y-71263076D01*
X74673602Y-71263082D01*
X74729416Y-71459244D01*
X74729418Y-71459250D01*
X74820327Y-71641821D01*
X74820328Y-71641822D01*
X74820329Y-71641825D01*
X74943234Y-71804578D01*
X74943235Y-71804579D01*
X74955559Y-71815813D01*
X74979048Y-71860652D01*
X74968219Y-71910099D01*
X74928140Y-71941017D01*
X74905706Y-71944500D01*
X72386617Y-71944500D01*
X72371432Y-71942925D01*
X72355731Y-71939633D01*
X72318965Y-71944216D01*
X72314386Y-71944500D01*
X72308879Y-71944500D01*
X72286613Y-71948216D01*
X72285102Y-71948436D01*
X72231374Y-71955134D01*
X72225498Y-71956884D01*
X72225417Y-71956615D01*
X72222102Y-71957677D01*
X72222193Y-71957942D01*
X72216392Y-71959933D01*
X72168789Y-71985694D01*
X72167431Y-71986393D01*
X72118787Y-72010174D01*
X72113797Y-72013737D01*
X72113636Y-72013511D01*
X72110837Y-72015598D01*
X72111008Y-72015818D01*
X72106175Y-72019578D01*
X72069515Y-72059400D01*
X72068457Y-72060503D01*
X70597440Y-73531520D01*
X70585592Y-73541142D01*
X70572163Y-73549916D01*
X70549408Y-73579150D01*
X70546377Y-73582583D01*
X70542484Y-73586477D01*
X70542478Y-73586484D01*
X70529353Y-73604867D01*
X70528440Y-73606092D01*
X70495194Y-73648806D01*
X70492273Y-73654204D01*
X70492026Y-73654070D01*
X70490430Y-73657171D01*
X70490682Y-73657295D01*
X70487988Y-73662804D01*
X70472550Y-73714658D01*
X70472084Y-73716113D01*
X70454499Y-73767339D01*
X70453491Y-73773386D01*
X70453213Y-73773339D01*
X70452711Y-73776790D01*
X70452990Y-73776825D01*
X70452232Y-73782908D01*
X70454468Y-73836996D01*
X70454500Y-73838524D01*
X70454500Y-90353809D01*
X70437187Y-90401375D01*
X70432826Y-90406135D01*
X68866136Y-91972826D01*
X68820260Y-91994218D01*
X68813810Y-91994500D01*
X58784500Y-91994500D01*
X58736934Y-91977187D01*
X58711624Y-91933350D01*
X58710500Y-91920500D01*
X58710500Y-91890408D01*
X58710499Y-91890398D01*
X58704315Y-91822348D01*
X58704315Y-91822343D01*
X58655512Y-91665730D01*
X58570648Y-91525347D01*
X58454653Y-91409352D01*
X58407177Y-91380652D01*
X58314267Y-91324486D01*
X58157661Y-91275686D01*
X58157658Y-91275685D01*
X58157657Y-91275685D01*
X58157655Y-91275684D01*
X58157651Y-91275684D01*
X58089601Y-91269500D01*
X58089594Y-91269500D01*
X57130406Y-91269500D01*
X57130398Y-91269500D01*
X57062348Y-91275684D01*
X57062338Y-91275686D01*
X56905732Y-91324486D01*
X56765346Y-91409352D01*
X56649352Y-91525346D01*
X56564486Y-91665732D01*
X56515686Y-91822338D01*
X56515684Y-91822348D01*
X56509500Y-91890398D01*
X56509500Y-92849601D01*
X56060572Y-92849601D01*
X56100582Y-92769250D01*
X56156397Y-92573083D01*
X56175215Y-92370000D01*
X56156397Y-92166917D01*
X56100582Y-91970750D01*
X56009673Y-91788179D01*
X56009670Y-91788175D01*
X56009670Y-91788174D01*
X55886765Y-91625421D01*
X55886764Y-91625420D01*
X55736041Y-91488019D01*
X55736040Y-91488019D01*
X55562637Y-91380652D01*
X55533942Y-91369535D01*
X55487767Y-91351647D01*
X55449667Y-91318320D01*
X55440499Y-91282644D01*
X55440500Y-89114500D01*
X55457813Y-89066934D01*
X55501650Y-89041624D01*
X55514500Y-89040500D01*
X55889672Y-89040500D01*
X55889674Y-89040500D01*
X55962740Y-89025966D01*
X56045601Y-88970601D01*
X56100966Y-88887740D01*
X56115500Y-88814674D01*
X56115500Y-87501188D01*
X56132813Y-87453622D01*
X56137163Y-87448873D01*
X56422558Y-87163477D01*
X56434400Y-87153861D01*
X56447836Y-87145084D01*
X56470594Y-87115843D01*
X56473631Y-87112405D01*
X56477519Y-87108518D01*
X56490636Y-87090145D01*
X56491552Y-87088916D01*
X56493657Y-87086211D01*
X56524809Y-87046189D01*
X56524810Y-87046183D01*
X56527729Y-87040792D01*
X56527978Y-87040926D01*
X56529571Y-87037832D01*
X56529316Y-87037708D01*
X56532009Y-87032200D01*
X56532008Y-87032200D01*
X56532010Y-87032199D01*
X56547459Y-86980302D01*
X56547900Y-86978925D01*
X56565500Y-86927660D01*
X56565500Y-86927656D01*
X56566510Y-86921609D01*
X56566786Y-86921655D01*
X56567288Y-86918208D01*
X56567009Y-86918174D01*
X56567765Y-86912096D01*
X56567768Y-86912089D01*
X56566156Y-86873113D01*
X56565531Y-86858002D01*
X56565499Y-86856473D01*
X56565499Y-84541218D01*
X56582812Y-84493652D01*
X56626649Y-84468342D01*
X56676499Y-84477132D01*
X56709036Y-84515909D01*
X56710133Y-84519297D01*
X56710381Y-84519939D01*
X56710382Y-84519940D01*
X56790753Y-84727401D01*
X56815803Y-84767858D01*
X56905499Y-84912724D01*
X56907876Y-84916562D01*
X57057764Y-85080981D01*
X57067713Y-85088494D01*
X57235306Y-85215055D01*
X57235309Y-85215057D01*
X57235310Y-85215057D01*
X57235311Y-85215058D01*
X57434472Y-85314229D01*
X57648464Y-85375115D01*
X57814497Y-85390500D01*
X57814499Y-85390500D01*
X58225501Y-85390500D01*
X58225503Y-85390500D01*
X58391536Y-85375115D01*
X58605528Y-85314229D01*
X58804689Y-85215058D01*
X58814699Y-85207499D01*
X58982235Y-85080982D01*
X58982236Y-85080981D01*
X59005813Y-85055118D01*
X59050652Y-85031629D01*
X59100099Y-85042458D01*
X59131017Y-85082537D01*
X59134500Y-85104971D01*
X59134500Y-86649669D01*
X59117187Y-86697235D01*
X59073350Y-86722545D01*
X59023500Y-86713755D01*
X59020615Y-86712000D01*
X58995426Y-86695882D01*
X58995423Y-86695880D01*
X58995419Y-86695878D01*
X58995411Y-86695874D01*
X58774382Y-86601405D01*
X58540815Y-86544603D01*
X58540807Y-86544602D01*
X58301067Y-86527018D01*
X58301060Y-86527019D01*
X58061708Y-86549133D01*
X57829239Y-86610349D01*
X57639154Y-86695882D01*
X57610030Y-86708987D01*
X57537477Y-86757374D01*
X57410038Y-86842365D01*
X57410036Y-86842367D01*
X57234734Y-87006834D01*
X57234731Y-87006837D01*
X57088891Y-87197915D01*
X57088885Y-87197924D01*
X56976484Y-87410399D01*
X56900584Y-87638494D01*
X56863264Y-87875960D01*
X56863263Y-87875964D01*
X56865538Y-88116338D01*
X56907344Y-88353052D01*
X56968887Y-88526946D01*
X56987545Y-88579664D01*
X56987546Y-88579665D01*
X57074791Y-88737300D01*
X57074807Y-88737326D01*
X57751699Y-89752286D01*
X57751700Y-89752287D01*
X57863711Y-89893423D01*
X57863713Y-89893425D01*
X58042101Y-90054553D01*
X58244577Y-90184120D01*
X58244585Y-90184123D01*
X58244588Y-90184125D01*
X58465617Y-90278594D01*
X58699184Y-90335396D01*
X58699187Y-90335396D01*
X58699194Y-90335398D01*
X58903766Y-90350401D01*
X58938932Y-90352981D01*
X58938932Y-90352980D01*
X58938934Y-90352981D01*
X59083428Y-90339630D01*
X59178291Y-90330866D01*
X59178293Y-90330865D01*
X59178298Y-90330865D01*
X59410757Y-90269652D01*
X59629971Y-90171013D01*
X59751440Y-90090003D01*
X61864529Y-90090003D01*
X61884378Y-90329556D01*
X61884378Y-90329557D01*
X61893509Y-90365613D01*
X61943041Y-90561214D01*
X61943392Y-90562597D01*
X62012958Y-90721191D01*
X62039951Y-90782728D01*
X62171429Y-90983969D01*
X62334236Y-91160825D01*
X62523933Y-91308472D01*
X62735344Y-91422882D01*
X62962703Y-91500934D01*
X63199808Y-91540500D01*
X63445326Y-91540500D01*
X65799808Y-91540500D01*
X66040192Y-91540500D01*
X66277297Y-91500934D01*
X66504656Y-91422882D01*
X66716067Y-91308472D01*
X66905764Y-91160825D01*
X67068571Y-90983969D01*
X67200049Y-90782728D01*
X67296610Y-90562591D01*
X67355620Y-90329563D01*
X67355620Y-90329559D01*
X67355621Y-90329557D01*
X67355621Y-90329556D01*
X67375471Y-90090003D01*
X67375471Y-90089996D01*
X67355621Y-89850443D01*
X67355621Y-89850442D01*
X67330765Y-89752287D01*
X67296610Y-89617409D01*
X67203196Y-89404448D01*
X67199944Y-89353934D01*
X67218636Y-89322399D01*
X67352558Y-89188477D01*
X67364400Y-89178861D01*
X67377836Y-89170084D01*
X67400594Y-89140843D01*
X67403631Y-89137405D01*
X67407519Y-89133518D01*
X67420636Y-89115145D01*
X67421552Y-89113916D01*
X67431099Y-89101650D01*
X67454809Y-89071189D01*
X67454810Y-89071183D01*
X67457729Y-89065792D01*
X67457978Y-89065926D01*
X67459571Y-89062832D01*
X67459316Y-89062708D01*
X67462009Y-89057200D01*
X67462008Y-89057200D01*
X67462010Y-89057199D01*
X67477459Y-89005302D01*
X67477900Y-89003925D01*
X67495500Y-88952660D01*
X67495500Y-88952656D01*
X67496510Y-88946609D01*
X67496786Y-88946655D01*
X67497289Y-88943207D01*
X67497009Y-88943173D01*
X67497765Y-88937096D01*
X67497768Y-88937089D01*
X67496487Y-88906131D01*
X67495532Y-88883002D01*
X67495500Y-88881473D01*
X67495500Y-85094002D01*
X67512813Y-85046436D01*
X67556650Y-85021126D01*
X67606500Y-85029916D01*
X67624187Y-85044149D01*
X67657763Y-85080981D01*
X67657764Y-85080982D01*
X67835306Y-85215055D01*
X67835309Y-85215057D01*
X67835310Y-85215057D01*
X67835311Y-85215058D01*
X68034472Y-85314229D01*
X68248464Y-85375115D01*
X68414497Y-85390500D01*
X68414499Y-85390500D01*
X68825501Y-85390500D01*
X68825503Y-85390500D01*
X68991536Y-85375115D01*
X69205528Y-85314229D01*
X69404689Y-85215058D01*
X69582236Y-85080981D01*
X69732124Y-84916562D01*
X69849247Y-84727401D01*
X69929618Y-84519940D01*
X69970500Y-84301243D01*
X69970500Y-84078757D01*
X69929618Y-83860060D01*
X69921374Y-83838781D01*
X69896971Y-83775789D01*
X69849247Y-83652599D01*
X69732124Y-83463438D01*
X69582236Y-83299019D01*
X69550467Y-83275028D01*
X69404693Y-83164944D01*
X69404690Y-83164942D01*
X69283679Y-83104686D01*
X69205528Y-83065771D01*
X69205524Y-83065770D01*
X69205522Y-83065769D01*
X68991537Y-83004885D01*
X68991524Y-83004883D01*
X68825509Y-82989500D01*
X68825503Y-82989500D01*
X68414497Y-82989500D01*
X68414490Y-82989500D01*
X68248475Y-83004883D01*
X68248462Y-83004885D01*
X68034477Y-83065769D01*
X68034472Y-83065771D01*
X67835309Y-83164942D01*
X67835306Y-83164944D01*
X67657764Y-83299017D01*
X67657762Y-83299019D01*
X67624186Y-83335851D01*
X67579347Y-83359339D01*
X67529900Y-83348509D01*
X67498982Y-83308430D01*
X67495500Y-83285997D01*
X67495500Y-80614500D01*
X67512813Y-80566934D01*
X67556650Y-80541624D01*
X67569500Y-80540500D01*
X68440192Y-80540500D01*
X68677297Y-80500934D01*
X68904656Y-80422882D01*
X69116067Y-80308472D01*
X69305764Y-80160825D01*
X69468571Y-79983969D01*
X69600049Y-79782728D01*
X69696610Y-79562591D01*
X69755620Y-79329563D01*
X69755620Y-79329559D01*
X69755621Y-79329557D01*
X69755621Y-79329556D01*
X69775471Y-79090003D01*
X69775471Y-79089996D01*
X69755621Y-78850443D01*
X69755621Y-78850442D01*
X69755620Y-78850437D01*
X69696610Y-78617409D01*
X69600049Y-78397272D01*
X69468571Y-78196031D01*
X69305764Y-78019175D01*
X69116067Y-77871528D01*
X69027715Y-77823714D01*
X68904655Y-77757117D01*
X68677295Y-77679065D01*
X68440194Y-77639500D01*
X68440192Y-77639500D01*
X68314674Y-77639500D01*
X65980192Y-77639500D01*
X65739808Y-77639500D01*
X65739805Y-77639500D01*
X65502704Y-77679065D01*
X65275344Y-77757117D01*
X65063940Y-77871524D01*
X65063928Y-77871531D01*
X64874234Y-78019176D01*
X64711427Y-78196033D01*
X64579951Y-78397271D01*
X64483392Y-78617402D01*
X64424378Y-78850442D01*
X64424378Y-78850443D01*
X64404529Y-79089996D01*
X64404529Y-79090003D01*
X64424378Y-79329556D01*
X64424378Y-79329557D01*
X64445957Y-79414769D01*
X64476968Y-79537232D01*
X64483392Y-79562597D01*
X64518919Y-79643589D01*
X64579951Y-79782728D01*
X64711429Y-79983969D01*
X64874236Y-80160825D01*
X65063933Y-80308472D01*
X65275344Y-80422882D01*
X65502703Y-80500934D01*
X65739808Y-80540500D01*
X65865326Y-80540500D01*
X66670500Y-80540500D01*
X66718066Y-80557813D01*
X66743376Y-80601650D01*
X66744500Y-80614500D01*
X66744499Y-88703810D01*
X66727186Y-88751376D01*
X66722825Y-88756136D01*
X66684597Y-88794364D01*
X66638721Y-88815756D01*
X66597051Y-88807119D01*
X66504659Y-88757119D01*
X66487796Y-88751330D01*
X66277297Y-88679066D01*
X66277294Y-88679065D01*
X66277293Y-88679065D01*
X66040194Y-88639500D01*
X66040192Y-88639500D01*
X65799808Y-88639500D01*
X65794674Y-88639500D01*
X63445326Y-88639500D01*
X63440192Y-88639500D01*
X63199808Y-88639500D01*
X63199805Y-88639500D01*
X62962704Y-88679065D01*
X62735344Y-88757117D01*
X62523940Y-88871524D01*
X62523928Y-88871531D01*
X62334234Y-89019176D01*
X62171427Y-89196033D01*
X62039951Y-89397271D01*
X61943392Y-89617402D01*
X61884378Y-89850442D01*
X61884378Y-89850443D01*
X61864529Y-90089996D01*
X61864529Y-90090003D01*
X59751440Y-90090003D01*
X59829959Y-90037637D01*
X60005267Y-89873164D01*
X60151112Y-89682080D01*
X60263517Y-89469596D01*
X60339415Y-89241508D01*
X60376736Y-89004039D01*
X60374462Y-88763666D01*
X60332655Y-88526946D01*
X60252455Y-88300336D01*
X60165199Y-88142683D01*
X59880738Y-87716152D01*
X59868751Y-87666975D01*
X59872312Y-87651073D01*
X59885500Y-87612660D01*
X59885500Y-87612656D01*
X59886510Y-87606610D01*
X59886786Y-87606656D01*
X59887289Y-87603206D01*
X59887009Y-87603172D01*
X59887765Y-87597095D01*
X59887768Y-87597088D01*
X59886462Y-87565511D01*
X59885532Y-87543002D01*
X59885500Y-87541474D01*
X59885500Y-84106882D01*
X60515804Y-84106882D01*
X60525654Y-84439099D01*
X60525656Y-84439121D01*
X60574730Y-84767856D01*
X60574731Y-84767857D01*
X60662344Y-85088494D01*
X60787266Y-85396516D01*
X60787267Y-85396517D01*
X60947742Y-85687603D01*
X61141519Y-85957665D01*
X61365877Y-86202914D01*
X61617666Y-86419906D01*
X61822316Y-86557748D01*
X61893351Y-86605594D01*
X61893353Y-86605595D01*
X62189067Y-86757374D01*
X62500656Y-86873113D01*
X62823747Y-86951187D01*
X63153805Y-86990500D01*
X63153809Y-86990500D01*
X63403023Y-86990500D01*
X63651807Y-86975736D01*
X63978956Y-86916939D01*
X64296854Y-86819862D01*
X64601040Y-86685868D01*
X64887243Y-86516837D01*
X65151445Y-86315142D01*
X65389937Y-86083616D01*
X65599373Y-85825506D01*
X65776810Y-85544438D01*
X65919760Y-85244357D01*
X66026215Y-84929475D01*
X66094680Y-84604212D01*
X66124195Y-84273134D01*
X66124195Y-84273120D01*
X66124195Y-84273117D01*
X66114345Y-83940900D01*
X66114345Y-83940890D01*
X66065269Y-83612142D01*
X65996190Y-83359339D01*
X65977655Y-83291505D01*
X65852733Y-82983483D01*
X65789329Y-82868475D01*
X65692258Y-82692397D01*
X65498481Y-82422335D01*
X65274123Y-82177086D01*
X65022334Y-81960094D01*
X64877178Y-81862324D01*
X64746648Y-81774405D01*
X64590253Y-81694134D01*
X64450933Y-81622626D01*
X64139344Y-81506887D01*
X63816253Y-81428813D01*
X63486195Y-81389500D01*
X63236977Y-81389500D01*
X62988201Y-81404263D01*
X62988184Y-81404265D01*
X62661049Y-81463059D01*
X62343147Y-81560137D01*
X62038954Y-81694134D01*
X61752773Y-81863152D01*
X61752752Y-81863166D01*
X61488557Y-82064855D01*
X61488547Y-82064864D01*
X61250068Y-82296378D01*
X61250063Y-82296383D01*
X61250063Y-82296384D01*
X61049168Y-82543969D01*
X61040625Y-82554497D01*
X61040623Y-82554498D01*
X60863189Y-82835562D01*
X60863188Y-82835564D01*
X60720239Y-83135644D01*
X60613787Y-83450515D01*
X60613784Y-83450525D01*
X60545321Y-83775778D01*
X60545320Y-83775787D01*
X60545320Y-83775788D01*
X60530602Y-83940890D01*
X60515804Y-84106879D01*
X60515804Y-84106882D01*
X59885500Y-84106882D01*
X59885500Y-83107519D01*
X59902813Y-83059953D01*
X59935471Y-83037529D01*
X60094656Y-82982882D01*
X60306067Y-82868472D01*
X60495764Y-82720825D01*
X60658571Y-82543969D01*
X60790049Y-82342728D01*
X60886610Y-82122591D01*
X60945620Y-81889563D01*
X60945620Y-81889559D01*
X60945621Y-81889557D01*
X60945621Y-81889556D01*
X60965471Y-81650003D01*
X60965471Y-81649996D01*
X60945621Y-81410443D01*
X60945621Y-81410442D01*
X60944057Y-81404264D01*
X60886610Y-81177409D01*
X60790049Y-80957272D01*
X60658571Y-80756031D01*
X60495764Y-80579175D01*
X60306067Y-80431528D01*
X60217715Y-80383714D01*
X60094655Y-80317117D01*
X59867295Y-80239065D01*
X59630194Y-80199500D01*
X59630192Y-80199500D01*
X59389808Y-80199500D01*
X59389805Y-80199500D01*
X59152704Y-80239065D01*
X58925344Y-80317117D01*
X58713940Y-80431524D01*
X58713928Y-80431531D01*
X58524234Y-80579176D01*
X58361427Y-80756033D01*
X58229951Y-80957271D01*
X58133392Y-81177402D01*
X58074378Y-81410442D01*
X58074378Y-81410443D01*
X58054529Y-81649996D01*
X58054529Y-81650003D01*
X58074378Y-81889556D01*
X58074378Y-81889557D01*
X58103884Y-82006076D01*
X58118769Y-82064855D01*
X58133392Y-82122597D01*
X58172997Y-82212886D01*
X58229951Y-82342728D01*
X58361429Y-82543969D01*
X58524236Y-82720825D01*
X58713933Y-82868472D01*
X58925344Y-82982882D01*
X59084527Y-83037528D01*
X59123894Y-83069348D01*
X59134499Y-83107519D01*
X59134499Y-83275027D01*
X59117186Y-83322593D01*
X59073349Y-83347903D01*
X59023499Y-83339113D01*
X59005812Y-83324881D01*
X59003727Y-83322594D01*
X58982236Y-83299019D01*
X58950467Y-83275028D01*
X58804693Y-83164944D01*
X58804690Y-83164942D01*
X58683679Y-83104686D01*
X58605528Y-83065771D01*
X58605524Y-83065770D01*
X58605522Y-83065769D01*
X58391537Y-83004885D01*
X58391524Y-83004883D01*
X58225509Y-82989500D01*
X58225503Y-82989500D01*
X57814497Y-82989500D01*
X57814490Y-82989500D01*
X57648475Y-83004883D01*
X57648462Y-83004885D01*
X57434477Y-83065769D01*
X57434472Y-83065771D01*
X57235309Y-83164942D01*
X57235306Y-83164944D01*
X57057767Y-83299016D01*
X57057764Y-83299018D01*
X57057764Y-83299019D01*
X57021213Y-83339114D01*
X56907874Y-83463440D01*
X56790756Y-83652594D01*
X56790751Y-83652604D01*
X56709146Y-83863250D01*
X56707957Y-83862789D01*
X56681002Y-83900047D01*
X56631911Y-83912391D01*
X56586371Y-83890292D01*
X56565690Y-83844091D01*
X56565499Y-83838781D01*
X56565499Y-78617402D01*
X56565499Y-70111607D01*
X56567074Y-70096435D01*
X56570367Y-70080732D01*
X56565783Y-70043963D01*
X56565500Y-70039385D01*
X56565500Y-70033890D01*
X56565499Y-70033881D01*
X56562833Y-70017908D01*
X56561784Y-70011624D01*
X56561565Y-70010119D01*
X56559927Y-69996976D01*
X56554866Y-69956374D01*
X56554864Y-69956370D01*
X56553115Y-69950493D01*
X56553386Y-69950412D01*
X56552324Y-69947096D01*
X56552056Y-69947189D01*
X56550065Y-69941389D01*
X56524312Y-69893802D01*
X56523612Y-69892442D01*
X56499826Y-69843788D01*
X56496264Y-69838800D01*
X56496493Y-69838636D01*
X56494407Y-69835839D01*
X56494185Y-69836013D01*
X56490419Y-69831174D01*
X56475655Y-69817583D01*
X56450591Y-69794510D01*
X56449495Y-69793458D01*
X56137174Y-69481136D01*
X56115782Y-69435259D01*
X56115500Y-69428810D01*
X56115500Y-68451187D01*
X56132813Y-68403621D01*
X56137163Y-68398872D01*
X56422558Y-68113477D01*
X56434400Y-68103861D01*
X56447836Y-68095084D01*
X56470594Y-68065843D01*
X56473631Y-68062405D01*
X56477519Y-68058518D01*
X56490636Y-68040145D01*
X56491552Y-68038916D01*
X56493657Y-68036211D01*
X56524809Y-67996189D01*
X56524810Y-67996183D01*
X56527729Y-67990792D01*
X56527978Y-67990926D01*
X56529571Y-67987832D01*
X56529316Y-67987708D01*
X56532009Y-67982200D01*
X56532008Y-67982200D01*
X56532010Y-67982199D01*
X56547459Y-67930302D01*
X56547900Y-67928925D01*
X56565500Y-67877660D01*
X56565500Y-67877656D01*
X56566510Y-67871609D01*
X56566786Y-67871655D01*
X56567289Y-67868207D01*
X56567009Y-67868173D01*
X56567765Y-67862096D01*
X56567768Y-67862089D01*
X56566156Y-67823110D01*
X56565532Y-67808002D01*
X56565500Y-67806473D01*
X56565500Y-65491221D01*
X56582813Y-65443655D01*
X56626650Y-65418345D01*
X56676500Y-65427135D01*
X56709037Y-65465912D01*
X56710136Y-65469305D01*
X56710381Y-65469939D01*
X56710382Y-65469940D01*
X56790753Y-65677401D01*
X56852374Y-65776923D01*
X56905499Y-65862724D01*
X56907876Y-65866562D01*
X57057764Y-66030981D01*
X57067713Y-66038494D01*
X57235306Y-66165055D01*
X57235309Y-66165057D01*
X57235310Y-66165057D01*
X57235311Y-66165058D01*
X57434472Y-66264229D01*
X57648464Y-66325115D01*
X57814497Y-66340500D01*
X57814499Y-66340500D01*
X58225501Y-66340500D01*
X58225503Y-66340500D01*
X58391536Y-66325115D01*
X58605528Y-66264229D01*
X58804689Y-66165058D01*
X58814699Y-66157499D01*
X58982235Y-66030982D01*
X58982236Y-66030981D01*
X58990441Y-66021981D01*
X59005813Y-66005117D01*
X59050652Y-65981629D01*
X59100099Y-65992458D01*
X59131017Y-66032537D01*
X59134500Y-66054971D01*
X59134500Y-67599669D01*
X59117187Y-67647235D01*
X59073350Y-67672545D01*
X59023500Y-67663755D01*
X59020615Y-67662000D01*
X58995426Y-67645882D01*
X58995423Y-67645880D01*
X58995419Y-67645878D01*
X58995411Y-67645874D01*
X58774382Y-67551405D01*
X58540815Y-67494603D01*
X58540807Y-67494602D01*
X58301067Y-67477018D01*
X58301060Y-67477019D01*
X58061708Y-67499133D01*
X57829239Y-67560349D01*
X57639154Y-67645882D01*
X57610030Y-67658987D01*
X57434492Y-67776056D01*
X57410038Y-67792365D01*
X57410036Y-67792367D01*
X57234734Y-67956834D01*
X57234731Y-67956837D01*
X57088891Y-68147915D01*
X57088885Y-68147924D01*
X56976484Y-68360399D01*
X56900584Y-68588494D01*
X56863264Y-68825960D01*
X56863263Y-68825964D01*
X56865538Y-69066338D01*
X56907344Y-69303052D01*
X56982614Y-69515732D01*
X56987545Y-69529664D01*
X56987546Y-69529665D01*
X57074791Y-69687300D01*
X57074807Y-69687326D01*
X57751699Y-70702286D01*
X57751700Y-70702287D01*
X57863711Y-70843423D01*
X57863713Y-70843425D01*
X58042101Y-71004553D01*
X58244577Y-71134120D01*
X58244585Y-71134123D01*
X58244588Y-71134125D01*
X58465617Y-71228594D01*
X58699184Y-71285396D01*
X58699187Y-71285396D01*
X58699194Y-71285398D01*
X58903765Y-71300401D01*
X58938932Y-71302981D01*
X58938932Y-71302980D01*
X58938934Y-71302981D01*
X59083428Y-71289630D01*
X59178291Y-71280866D01*
X59178293Y-71280865D01*
X59178298Y-71280865D01*
X59410757Y-71219652D01*
X59629971Y-71121013D01*
X59751440Y-71040003D01*
X61864529Y-71040003D01*
X61884378Y-71279556D01*
X61884378Y-71279557D01*
X61913884Y-71396077D01*
X61929882Y-71459250D01*
X61943392Y-71512597D01*
X62024841Y-71698280D01*
X62039951Y-71732728D01*
X62171429Y-71933969D01*
X62334236Y-72110825D01*
X62523933Y-72258472D01*
X62735344Y-72372882D01*
X62962703Y-72450934D01*
X63199808Y-72490500D01*
X63445326Y-72490500D01*
X65799808Y-72490500D01*
X66040192Y-72490500D01*
X66277297Y-72450934D01*
X66504656Y-72372882D01*
X66716067Y-72258472D01*
X66905764Y-72110825D01*
X67068571Y-71933969D01*
X67200049Y-71732728D01*
X67296610Y-71512591D01*
X67355620Y-71279563D01*
X67355620Y-71279559D01*
X67355621Y-71279557D01*
X67355621Y-71279556D01*
X67375471Y-71040003D01*
X67375471Y-71039996D01*
X67355621Y-70800443D01*
X67355621Y-70800442D01*
X67347319Y-70767657D01*
X67296610Y-70567409D01*
X67203196Y-70354448D01*
X67199944Y-70303934D01*
X67218636Y-70272399D01*
X67292558Y-70198477D01*
X67304400Y-70188861D01*
X67317836Y-70180084D01*
X67340594Y-70150843D01*
X67343631Y-70147405D01*
X67347519Y-70143518D01*
X67360636Y-70125145D01*
X67361552Y-70123916D01*
X67371125Y-70111617D01*
X67394809Y-70081189D01*
X67394810Y-70081183D01*
X67397729Y-70075792D01*
X67397978Y-70075926D01*
X67399571Y-70072832D01*
X67399316Y-70072708D01*
X67402009Y-70067200D01*
X67402008Y-70067200D01*
X67402010Y-70067199D01*
X67417459Y-70015302D01*
X67417900Y-70013925D01*
X67435500Y-69962660D01*
X67435500Y-69962656D01*
X67436510Y-69956609D01*
X67436786Y-69956655D01*
X67437289Y-69953207D01*
X67437009Y-69953173D01*
X67437765Y-69947096D01*
X67437768Y-69947089D01*
X67435730Y-69897801D01*
X67435532Y-69893002D01*
X67435500Y-69891473D01*
X67435500Y-68520003D01*
X74654785Y-68520003D01*
X74673601Y-68723076D01*
X74673602Y-68723082D01*
X74729416Y-68919244D01*
X74729418Y-68919250D01*
X74820327Y-69101821D01*
X74820328Y-69101822D01*
X74820329Y-69101825D01*
X74943234Y-69264578D01*
X74943235Y-69264579D01*
X75062497Y-69373300D01*
X75093959Y-69401981D01*
X75267363Y-69509348D01*
X75457544Y-69583024D01*
X75658024Y-69620500D01*
X75658026Y-69620500D01*
X75861974Y-69620500D01*
X75861976Y-69620500D01*
X76062456Y-69583024D01*
X76252637Y-69509348D01*
X76426041Y-69401981D01*
X76576764Y-69264579D01*
X76587522Y-69250334D01*
X76699670Y-69101825D01*
X76699670Y-69101824D01*
X76699673Y-69101821D01*
X76790582Y-68919250D01*
X76846397Y-68723083D01*
X76850539Y-68678391D01*
X76865215Y-68520003D01*
X77194785Y-68520003D01*
X77213601Y-68723076D01*
X77213602Y-68723082D01*
X77269416Y-68919244D01*
X77269418Y-68919250D01*
X77360327Y-69101821D01*
X77360328Y-69101822D01*
X77360329Y-69101825D01*
X77483234Y-69264578D01*
X77483235Y-69264579D01*
X77602497Y-69373300D01*
X77633959Y-69401981D01*
X77807363Y-69509348D01*
X77997544Y-69583024D01*
X78198024Y-69620500D01*
X78198026Y-69620500D01*
X78401974Y-69620500D01*
X78401976Y-69620500D01*
X78602456Y-69583024D01*
X78792637Y-69509348D01*
X78966041Y-69401981D01*
X79116764Y-69264579D01*
X79127522Y-69250334D01*
X79239670Y-69101825D01*
X79239670Y-69101824D01*
X79239673Y-69101821D01*
X79330582Y-68919250D01*
X79386397Y-68723083D01*
X79390539Y-68678391D01*
X79405215Y-68520003D01*
X79405215Y-68519996D01*
X79386398Y-68316923D01*
X79386397Y-68316917D01*
X79341634Y-68159594D01*
X79330582Y-68120750D01*
X79239673Y-67938179D01*
X79239670Y-67938175D01*
X79239670Y-67938174D01*
X79116765Y-67775421D01*
X79116764Y-67775420D01*
X78966041Y-67638019D01*
X78951168Y-67628810D01*
X78792637Y-67530652D01*
X78627936Y-67466847D01*
X78602459Y-67456977D01*
X78602458Y-67456976D01*
X78602456Y-67456976D01*
X78514407Y-67440516D01*
X78401979Y-67419500D01*
X78401976Y-67419500D01*
X78198024Y-67419500D01*
X78198020Y-67419500D01*
X78048115Y-67447522D01*
X77997544Y-67456976D01*
X77997542Y-67456976D01*
X77997540Y-67456977D01*
X77807368Y-67530650D01*
X77807363Y-67530652D01*
X77807358Y-67530654D01*
X77807358Y-67530655D01*
X77633958Y-67638019D01*
X77633957Y-67638019D01*
X77483235Y-67775420D01*
X77483234Y-67775421D01*
X77360329Y-67938174D01*
X77360328Y-67938177D01*
X77269418Y-68120750D01*
X77269416Y-68120755D01*
X77213602Y-68316917D01*
X77213601Y-68316923D01*
X77194785Y-68519996D01*
X77194785Y-68520003D01*
X76865215Y-68520003D01*
X76865215Y-68519996D01*
X76846398Y-68316923D01*
X76846397Y-68316917D01*
X76801634Y-68159594D01*
X76790582Y-68120750D01*
X76699673Y-67938179D01*
X76699670Y-67938175D01*
X76699670Y-67938174D01*
X76576765Y-67775421D01*
X76576764Y-67775420D01*
X76426041Y-67638019D01*
X76411168Y-67628810D01*
X76252637Y-67530652D01*
X76087936Y-67466847D01*
X76062459Y-67456977D01*
X76062458Y-67456976D01*
X76062456Y-67456976D01*
X75974407Y-67440516D01*
X75861979Y-67419500D01*
X75861976Y-67419500D01*
X75658024Y-67419500D01*
X75658020Y-67419500D01*
X75508115Y-67447522D01*
X75457544Y-67456976D01*
X75457542Y-67456976D01*
X75457540Y-67456977D01*
X75267368Y-67530650D01*
X75267363Y-67530652D01*
X75267358Y-67530654D01*
X75267358Y-67530655D01*
X75093958Y-67638019D01*
X75093957Y-67638019D01*
X74943235Y-67775420D01*
X74943234Y-67775421D01*
X74820329Y-67938174D01*
X74820328Y-67938177D01*
X74729418Y-68120750D01*
X74729416Y-68120755D01*
X74673602Y-68316917D01*
X74673601Y-68316923D01*
X74654785Y-68519996D01*
X74654785Y-68520003D01*
X67435500Y-68520003D01*
X67435500Y-65978185D01*
X67452813Y-65930619D01*
X67496650Y-65905309D01*
X67546500Y-65914099D01*
X67564187Y-65928332D01*
X67657763Y-66030981D01*
X67657764Y-66030982D01*
X67835306Y-66165055D01*
X67835309Y-66165057D01*
X67835310Y-66165057D01*
X67835311Y-66165058D01*
X68034472Y-66264229D01*
X68248464Y-66325115D01*
X68414497Y-66340500D01*
X68414499Y-66340500D01*
X68825501Y-66340500D01*
X68825503Y-66340500D01*
X68991536Y-66325115D01*
X69205528Y-66264229D01*
X69404689Y-66165058D01*
X69582236Y-66030981D01*
X69732124Y-65866562D01*
X69849247Y-65677401D01*
X69929618Y-65469940D01*
X69970500Y-65251243D01*
X69970500Y-65028757D01*
X69929618Y-64810060D01*
X69849247Y-64602599D01*
X69732124Y-64413438D01*
X69582236Y-64249019D01*
X69550467Y-64225028D01*
X69404693Y-64114944D01*
X69404690Y-64114942D01*
X69283679Y-64054686D01*
X69205528Y-64015771D01*
X69205524Y-64015770D01*
X69205522Y-64015769D01*
X68991537Y-63954885D01*
X68991524Y-63954883D01*
X68825509Y-63939500D01*
X68825503Y-63939500D01*
X68414497Y-63939500D01*
X68414490Y-63939500D01*
X68248475Y-63954883D01*
X68248462Y-63954885D01*
X68034477Y-64015769D01*
X68034472Y-64015771D01*
X67835309Y-64114942D01*
X67835306Y-64114944D01*
X67657764Y-64249017D01*
X67657763Y-64249018D01*
X67564187Y-64351668D01*
X67519347Y-64375157D01*
X67469900Y-64364328D01*
X67438982Y-64324248D01*
X67435500Y-64301815D01*
X67435500Y-61564500D01*
X67452813Y-61516934D01*
X67496650Y-61491624D01*
X67509500Y-61490500D01*
X68440192Y-61490500D01*
X68677297Y-61450934D01*
X68904656Y-61372882D01*
X69116067Y-61258472D01*
X69305764Y-61110825D01*
X69468571Y-60933969D01*
X69600049Y-60732728D01*
X69696610Y-60512591D01*
X69755620Y-60279563D01*
X69755620Y-60279559D01*
X69755621Y-60279557D01*
X69755621Y-60279556D01*
X69775471Y-60040003D01*
X69775471Y-60039996D01*
X69755621Y-59800443D01*
X69755621Y-59800442D01*
X69755620Y-59800437D01*
X69696610Y-59567409D01*
X69600049Y-59347272D01*
X69468571Y-59146031D01*
X69305764Y-58969175D01*
X69116067Y-58821528D01*
X69010476Y-58764385D01*
X68904655Y-58707117D01*
X68677295Y-58629065D01*
X68440194Y-58589500D01*
X68440192Y-58589500D01*
X68314674Y-58589500D01*
X65980192Y-58589500D01*
X65739808Y-58589500D01*
X65739805Y-58589500D01*
X65502704Y-58629065D01*
X65275344Y-58707117D01*
X65063940Y-58821524D01*
X65063928Y-58821531D01*
X64874234Y-58969176D01*
X64711427Y-59146033D01*
X64579951Y-59347271D01*
X64483392Y-59567402D01*
X64424378Y-59800442D01*
X64424378Y-59800443D01*
X64404529Y-60039996D01*
X64404529Y-60040003D01*
X64424378Y-60279556D01*
X64424378Y-60279557D01*
X64445957Y-60364769D01*
X64480391Y-60500750D01*
X64483392Y-60512597D01*
X64540076Y-60641822D01*
X64579951Y-60732728D01*
X64711429Y-60933969D01*
X64817639Y-61049344D01*
X64867102Y-61103076D01*
X64874236Y-61110825D01*
X65063933Y-61258472D01*
X65275344Y-61372882D01*
X65502703Y-61450934D01*
X65739808Y-61490500D01*
X65865326Y-61490500D01*
X66610500Y-61490500D01*
X66658066Y-61507813D01*
X66683376Y-61551650D01*
X66684500Y-61564500D01*
X66684500Y-69680256D01*
X66667187Y-69727822D01*
X66623350Y-69753132D01*
X66575280Y-69745337D01*
X66504656Y-69707117D01*
X66277295Y-69629065D01*
X66040194Y-69589500D01*
X66040192Y-69589500D01*
X65799808Y-69589500D01*
X65794674Y-69589500D01*
X63445326Y-69589500D01*
X63440192Y-69589500D01*
X63199808Y-69589500D01*
X63199805Y-69589500D01*
X62962704Y-69629065D01*
X62735344Y-69707117D01*
X62523940Y-69821524D01*
X62523928Y-69821531D01*
X62334234Y-69969176D01*
X62171427Y-70146033D01*
X62039951Y-70347271D01*
X61943392Y-70567402D01*
X61884378Y-70800442D01*
X61884378Y-70800443D01*
X61864529Y-71039996D01*
X61864529Y-71040003D01*
X59751440Y-71040003D01*
X59829959Y-70987637D01*
X60005267Y-70823164D01*
X60151112Y-70632080D01*
X60263517Y-70419596D01*
X60339415Y-70191508D01*
X60376736Y-69954039D01*
X60376690Y-69949229D01*
X60376166Y-69893802D01*
X60374462Y-69713666D01*
X60332655Y-69476946D01*
X60252455Y-69250336D01*
X60165199Y-69092683D01*
X59880738Y-68666152D01*
X59868751Y-68616975D01*
X59872312Y-68601073D01*
X59885500Y-68562660D01*
X59885500Y-68562656D01*
X59886510Y-68556610D01*
X59886786Y-68556656D01*
X59887289Y-68553206D01*
X59887009Y-68553172D01*
X59887765Y-68547095D01*
X59887768Y-68547088D01*
X59886462Y-68515511D01*
X59885532Y-68493002D01*
X59885500Y-68491474D01*
X59885500Y-65056882D01*
X60515804Y-65056882D01*
X60525654Y-65389099D01*
X60525656Y-65389121D01*
X60574730Y-65717856D01*
X60574731Y-65717857D01*
X60662344Y-66038494D01*
X60787266Y-66346516D01*
X60851420Y-66462884D01*
X60947742Y-66637603D01*
X61141519Y-66907665D01*
X61365877Y-67152914D01*
X61617666Y-67369906D01*
X61822316Y-67507748D01*
X61893351Y-67555594D01*
X61893353Y-67555595D01*
X62189067Y-67707374D01*
X62500656Y-67823113D01*
X62823747Y-67901187D01*
X63153805Y-67940500D01*
X63153809Y-67940500D01*
X63403023Y-67940500D01*
X63651807Y-67925736D01*
X63978956Y-67866939D01*
X64296854Y-67769862D01*
X64601040Y-67635868D01*
X64887243Y-67466837D01*
X65151445Y-67265142D01*
X65389937Y-67033616D01*
X65599373Y-66775506D01*
X65776810Y-66494438D01*
X65919760Y-66194357D01*
X66026215Y-65879475D01*
X66094680Y-65554212D01*
X66124195Y-65223134D01*
X66124195Y-65223120D01*
X66124195Y-65223117D01*
X66116228Y-64954406D01*
X66114345Y-64890890D01*
X66065269Y-64562142D01*
X65996457Y-64310316D01*
X65977655Y-64241505D01*
X65852733Y-63933483D01*
X65852401Y-63932881D01*
X65692258Y-63642397D01*
X65498481Y-63372335D01*
X65274123Y-63127086D01*
X65022334Y-62910094D01*
X64877178Y-62812324D01*
X64746648Y-62724405D01*
X64590253Y-62644134D01*
X64450933Y-62572626D01*
X64139344Y-62456887D01*
X63816253Y-62378813D01*
X63486195Y-62339500D01*
X63236977Y-62339500D01*
X62988201Y-62354263D01*
X62988184Y-62354265D01*
X62661049Y-62413059D01*
X62343147Y-62510137D01*
X62038954Y-62644134D01*
X61752773Y-62813152D01*
X61752752Y-62813166D01*
X61488557Y-63014855D01*
X61488547Y-63014864D01*
X61250068Y-63246378D01*
X61250063Y-63246383D01*
X61250063Y-63246384D01*
X61043367Y-63501118D01*
X61040625Y-63504497D01*
X61040623Y-63504498D01*
X60863189Y-63785562D01*
X60863188Y-63785564D01*
X60720239Y-64085644D01*
X60613787Y-64400515D01*
X60613784Y-64400525D01*
X60545321Y-64725778D01*
X60545320Y-64725787D01*
X60545320Y-64725788D01*
X60516598Y-65047978D01*
X60515804Y-65056879D01*
X60515804Y-65056882D01*
X59885500Y-65056882D01*
X59885500Y-64057519D01*
X59902813Y-64009953D01*
X59935471Y-63987529D01*
X60094656Y-63932882D01*
X60306067Y-63818472D01*
X60495764Y-63670825D01*
X60658571Y-63493969D01*
X60790049Y-63292728D01*
X60886610Y-63072591D01*
X60945620Y-62839563D01*
X60945620Y-62839559D01*
X60945621Y-62839557D01*
X60945621Y-62839556D01*
X60965471Y-62600003D01*
X60965471Y-62599996D01*
X60945621Y-62360443D01*
X60945621Y-62360442D01*
X60944057Y-62354264D01*
X60886610Y-62127409D01*
X60790049Y-61907272D01*
X60658571Y-61706031D01*
X60495764Y-61529175D01*
X60306067Y-61381528D01*
X60154020Y-61299244D01*
X60094655Y-61267117D01*
X59867295Y-61189065D01*
X59630194Y-61149500D01*
X59630192Y-61149500D01*
X59389808Y-61149500D01*
X59389805Y-61149500D01*
X59152704Y-61189065D01*
X58925344Y-61267117D01*
X58713940Y-61381524D01*
X58713928Y-61381531D01*
X58524234Y-61529176D01*
X58361427Y-61706033D01*
X58229951Y-61907271D01*
X58133392Y-62127402D01*
X58074378Y-62360442D01*
X58074378Y-62360443D01*
X58054529Y-62599996D01*
X58054529Y-62600003D01*
X58074378Y-62839556D01*
X58074378Y-62839557D01*
X58103884Y-62956076D01*
X58118769Y-63014855D01*
X58133392Y-63072597D01*
X58181303Y-63181822D01*
X58229951Y-63292728D01*
X58361429Y-63493969D01*
X58524236Y-63670825D01*
X58713933Y-63818472D01*
X58925344Y-63932882D01*
X59084527Y-63987528D01*
X59123894Y-64019348D01*
X59134499Y-64057519D01*
X59134499Y-64225027D01*
X59117186Y-64272593D01*
X59073349Y-64297903D01*
X59023499Y-64289113D01*
X59005812Y-64274881D01*
X58982236Y-64249019D01*
X58950467Y-64225028D01*
X58804693Y-64114944D01*
X58804690Y-64114942D01*
X58683679Y-64054686D01*
X58605528Y-64015771D01*
X58605524Y-64015770D01*
X58605522Y-64015769D01*
X58391537Y-63954885D01*
X58391524Y-63954883D01*
X58225509Y-63939500D01*
X58225503Y-63939500D01*
X57814497Y-63939500D01*
X57814490Y-63939500D01*
X57648475Y-63954883D01*
X57648462Y-63954885D01*
X57434477Y-64015769D01*
X57434472Y-64015771D01*
X57235309Y-64114942D01*
X57235306Y-64114944D01*
X57057767Y-64249016D01*
X57057764Y-64249018D01*
X57057764Y-64249019D01*
X57009634Y-64301815D01*
X56907874Y-64413440D01*
X56790756Y-64602594D01*
X56790751Y-64602604D01*
X56709146Y-64813250D01*
X56707954Y-64812788D01*
X56681007Y-64850041D01*
X56631917Y-64862388D01*
X56586375Y-64840292D01*
X56565691Y-64794092D01*
X56565500Y-64788778D01*
X56565500Y-54159699D01*
X56582813Y-54112133D01*
X56590429Y-54104309D01*
X56640151Y-54060260D01*
X56680483Y-54024530D01*
X56770220Y-53894523D01*
X56826237Y-53746818D01*
X56845278Y-53590000D01*
X56826237Y-53433182D01*
X56784406Y-53322882D01*
X56770221Y-53285478D01*
X56748997Y-53254731D01*
X56680483Y-53155470D01*
X56636774Y-53116748D01*
X56590429Y-53075689D01*
X56566305Y-53031188D01*
X56565500Y-53020299D01*
X56565500Y-51061617D01*
X56567075Y-51046431D01*
X56570367Y-51030732D01*
X56565783Y-50993963D01*
X56565500Y-50989385D01*
X56565500Y-50983890D01*
X56565499Y-50983881D01*
X56562834Y-50967912D01*
X56561784Y-50961624D01*
X56561565Y-50960119D01*
X56560154Y-50948802D01*
X56554866Y-50906374D01*
X56554864Y-50906370D01*
X56553115Y-50900493D01*
X56553386Y-50900412D01*
X56552324Y-50897096D01*
X56552056Y-50897189D01*
X56550065Y-50891389D01*
X56524312Y-50843802D01*
X56523612Y-50842442D01*
X56499826Y-50793788D01*
X56496264Y-50788800D01*
X56496493Y-50788636D01*
X56494407Y-50785839D01*
X56494185Y-50786013D01*
X56490419Y-50781174D01*
X56475655Y-50767583D01*
X56450591Y-50744510D01*
X56449495Y-50743458D01*
X56137174Y-50431136D01*
X56115782Y-50385259D01*
X56115500Y-50378810D01*
X56115500Y-49065327D01*
X56115500Y-49065326D01*
X56100966Y-48992260D01*
X56045601Y-48909399D01*
X56041765Y-48906836D01*
X55962740Y-48854034D01*
X55948422Y-48851186D01*
X55889674Y-48839500D01*
X55889672Y-48839500D01*
X55514500Y-48839500D01*
X55466934Y-48822187D01*
X55441624Y-48778350D01*
X55440500Y-48765500D01*
X55440500Y-48511806D01*
X55457813Y-48464240D01*
X55501650Y-48438930D01*
X55506587Y-48438230D01*
X55542114Y-48434412D01*
X55670226Y-48386628D01*
X55779687Y-48304687D01*
X55861628Y-48195226D01*
X55909412Y-48067114D01*
X55915500Y-48010485D01*
X55915499Y-47469516D01*
X55909412Y-47412886D01*
X55861628Y-47284774D01*
X55779687Y-47175313D01*
X55670226Y-47093372D01*
X55670225Y-47093371D01*
X55670226Y-47093371D01*
X55542114Y-47045588D01*
X55485486Y-47039500D01*
X54644515Y-47039500D01*
X54644514Y-47039501D01*
X54587885Y-47045588D01*
X54459774Y-47093371D01*
X54350313Y-47175313D01*
X54268371Y-47284774D01*
X54220588Y-47412884D01*
X54220588Y-47412887D01*
X54214500Y-47469513D01*
X54214500Y-48010484D01*
X54214501Y-48010485D01*
X54220588Y-48067114D01*
X54268371Y-48195225D01*
X54268372Y-48195226D01*
X54350313Y-48304687D01*
X54459774Y-48386628D01*
X54459773Y-48386628D01*
X54507557Y-48404450D01*
X54587886Y-48434412D01*
X54623410Y-48438231D01*
X54668853Y-48460529D01*
X54689332Y-48506821D01*
X54689500Y-48511807D01*
X54689500Y-48765500D01*
X54672187Y-48813066D01*
X54628350Y-48838376D01*
X54615500Y-48839500D01*
X54240326Y-48839500D01*
X54191615Y-48849189D01*
X54167259Y-48854034D01*
X54084399Y-48909398D01*
X54084398Y-48909399D01*
X54029034Y-48992259D01*
X54029033Y-48992260D01*
X54029034Y-48992260D01*
X54014500Y-49065326D01*
X54014500Y-50714674D01*
X54025808Y-50771524D01*
X54029034Y-50787740D01*
X54064936Y-50841473D01*
X54084399Y-50870601D01*
X54167260Y-50925966D01*
X54240326Y-50940500D01*
X55553811Y-50940500D01*
X55601377Y-50957813D01*
X55606137Y-50962174D01*
X55792826Y-51148863D01*
X55814218Y-51194739D01*
X55814500Y-51201189D01*
X55814500Y-53020299D01*
X55797187Y-53067865D01*
X55789571Y-53075689D01*
X55699517Y-53155470D01*
X55609779Y-53285478D01*
X55609778Y-53285478D01*
X55553764Y-53433177D01*
X55553761Y-53433191D01*
X55534722Y-53589996D01*
X55534722Y-53590003D01*
X55553761Y-53746808D01*
X55553764Y-53746822D01*
X55609778Y-53894521D01*
X55699516Y-54024529D01*
X55789571Y-54104309D01*
X55813694Y-54148809D01*
X55814500Y-54159699D01*
X55814500Y-54894855D01*
X55797187Y-54942421D01*
X55753350Y-54967731D01*
X55703500Y-54958941D01*
X55671166Y-54920715D01*
X55619369Y-54781843D01*
X55482227Y-54530686D01*
X55393809Y-54412574D01*
X55310739Y-54301605D01*
X55108395Y-54099261D01*
X54993854Y-54013517D01*
X54879313Y-53927772D01*
X54628156Y-53790630D01*
X54360060Y-53690635D01*
X54360042Y-53690630D01*
X54080425Y-53629803D01*
X53866460Y-53614500D01*
X53866448Y-53614500D01*
X53723552Y-53614500D01*
X53723539Y-53614500D01*
X53509574Y-53629803D01*
X53229957Y-53690630D01*
X53229939Y-53690635D01*
X52961843Y-53790630D01*
X52710686Y-53927772D01*
X52481602Y-54099263D01*
X52279263Y-54301602D01*
X52107772Y-54530686D01*
X51970630Y-54781843D01*
X51918834Y-54920715D01*
X51885990Y-54959232D01*
X51836072Y-54967627D01*
X51792437Y-54941970D01*
X51775500Y-54894855D01*
X51775500Y-52829699D01*
X51792813Y-52782133D01*
X51800429Y-52774309D01*
X51890483Y-52694530D01*
X51980220Y-52564523D01*
X52036237Y-52416818D01*
X52051556Y-52290652D01*
X52055278Y-52260003D01*
X52055278Y-52259996D01*
X52036238Y-52103191D01*
X52036237Y-52103182D01*
X52020710Y-52062240D01*
X51980221Y-51955478D01*
X51958997Y-51924731D01*
X51890483Y-51825470D01*
X51846774Y-51786748D01*
X51800429Y-51745689D01*
X51776305Y-51701188D01*
X51775500Y-51690299D01*
X51775500Y-51201189D01*
X51792813Y-51153623D01*
X51797174Y-51148863D01*
X51983863Y-50962174D01*
X52029739Y-50940782D01*
X52036189Y-50940500D01*
X53349672Y-50940500D01*
X53349674Y-50940500D01*
X53422740Y-50925966D01*
X53505601Y-50870601D01*
X53560966Y-50787740D01*
X53575500Y-50714674D01*
X53575500Y-49065326D01*
X53560966Y-48992260D01*
X53505601Y-48909399D01*
X53501765Y-48906836D01*
X53422740Y-48854034D01*
X53408422Y-48851186D01*
X53349674Y-48839500D01*
X53349672Y-48839500D01*
X52974500Y-48839500D01*
X52926934Y-48822187D01*
X52901624Y-48778350D01*
X52900500Y-48765500D01*
X52900500Y-48511806D01*
X52917813Y-48464240D01*
X52961650Y-48438930D01*
X52966587Y-48438230D01*
X53002114Y-48434412D01*
X53130226Y-48386628D01*
X53239687Y-48304687D01*
X53321628Y-48195226D01*
X53369412Y-48067114D01*
X53375500Y-48010485D01*
X53375499Y-47469516D01*
X53369412Y-47412886D01*
X53321628Y-47284774D01*
X53239687Y-47175313D01*
X53130226Y-47093372D01*
X53130225Y-47093371D01*
X53130226Y-47093371D01*
X53002114Y-47045588D01*
X52945486Y-47039500D01*
X52104515Y-47039500D01*
X52104514Y-47039501D01*
X52047885Y-47045588D01*
X51919774Y-47093371D01*
X51810313Y-47175313D01*
X51728371Y-47284774D01*
X51680588Y-47412884D01*
X51680588Y-47412887D01*
X51674500Y-47469513D01*
X51674500Y-48010484D01*
X51674501Y-48010485D01*
X51680588Y-48067114D01*
X51728371Y-48195225D01*
X51728372Y-48195226D01*
X51810313Y-48304687D01*
X51919774Y-48386628D01*
X51919773Y-48386628D01*
X51967557Y-48404450D01*
X52047886Y-48434412D01*
X52083410Y-48438231D01*
X52128853Y-48460529D01*
X52149332Y-48506821D01*
X52149500Y-48511807D01*
X52149500Y-48765500D01*
X52132187Y-48813066D01*
X52088350Y-48838376D01*
X52075500Y-48839500D01*
X51700326Y-48839500D01*
X51651615Y-48849189D01*
X51627259Y-48854034D01*
X51544399Y-48909398D01*
X51544398Y-48909399D01*
X51489034Y-48992259D01*
X51474500Y-49065327D01*
X51474500Y-50378809D01*
X51457187Y-50426375D01*
X51452826Y-50431135D01*
X51167440Y-50716520D01*
X51155592Y-50726142D01*
X51142163Y-50734916D01*
X51119408Y-50764150D01*
X51116377Y-50767583D01*
X51112484Y-50771477D01*
X51112478Y-50771484D01*
X51099353Y-50789867D01*
X51098440Y-50791092D01*
X51065194Y-50833806D01*
X51062273Y-50839204D01*
X51062026Y-50839070D01*
X51060430Y-50842171D01*
X51060682Y-50842295D01*
X51057988Y-50847804D01*
X51042550Y-50899658D01*
X51042084Y-50901113D01*
X51024499Y-50952339D01*
X51023491Y-50958386D01*
X51023213Y-50958339D01*
X51022711Y-50961790D01*
X51022990Y-50961825D01*
X51022231Y-50967909D01*
X51024467Y-51021997D01*
X51024499Y-51023525D01*
X51024500Y-51690299D01*
X51007187Y-51737865D01*
X50999571Y-51745689D01*
X50909517Y-51825470D01*
X50819779Y-51955478D01*
X50819778Y-51955478D01*
X50763764Y-52103177D01*
X50763761Y-52103191D01*
X50744722Y-52259996D01*
X50744722Y-52260003D01*
X50763761Y-52416808D01*
X50763764Y-52416822D01*
X50819778Y-52564521D01*
X50909516Y-52694529D01*
X50999571Y-52774309D01*
X51023694Y-52818809D01*
X51024500Y-52829699D01*
X51024500Y-64788778D01*
X51007187Y-64836344D01*
X50963350Y-64861654D01*
X50913500Y-64852864D01*
X50880963Y-64814087D01*
X50879867Y-64810703D01*
X50846971Y-64725789D01*
X50799247Y-64602599D01*
X50682124Y-64413438D01*
X50532236Y-64249019D01*
X50500467Y-64225028D01*
X50354693Y-64114944D01*
X50354690Y-64114942D01*
X50233679Y-64054686D01*
X50155528Y-64015771D01*
X50155524Y-64015770D01*
X50155522Y-64015769D01*
X49941537Y-63954885D01*
X49941524Y-63954883D01*
X49775509Y-63939500D01*
X49775503Y-63939500D01*
X49364497Y-63939500D01*
X49364490Y-63939500D01*
X49198475Y-63954883D01*
X49198462Y-63954885D01*
X48984477Y-64015769D01*
X48984472Y-64015771D01*
X48785309Y-64114942D01*
X48785306Y-64114944D01*
X48607764Y-64249017D01*
X48607763Y-64249018D01*
X48514187Y-64351668D01*
X48469347Y-64375157D01*
X48419900Y-64364328D01*
X48388982Y-64324248D01*
X48385500Y-64301815D01*
X48385500Y-61564500D01*
X48402813Y-61516934D01*
X48446650Y-61491624D01*
X48459500Y-61490500D01*
X49390192Y-61490500D01*
X49627297Y-61450934D01*
X49854656Y-61372882D01*
X50066067Y-61258472D01*
X50255764Y-61110825D01*
X50418571Y-60933969D01*
X50550049Y-60732728D01*
X50646610Y-60512591D01*
X50705620Y-60279563D01*
X50705620Y-60279559D01*
X50705621Y-60279557D01*
X50705621Y-60279556D01*
X50725471Y-60040003D01*
X50725471Y-60039996D01*
X50705621Y-59800443D01*
X50705621Y-59800442D01*
X50705620Y-59800437D01*
X50646610Y-59567409D01*
X50550049Y-59347272D01*
X50418571Y-59146031D01*
X50255764Y-58969175D01*
X50066067Y-58821528D01*
X49960476Y-58764385D01*
X49854655Y-58707117D01*
X49627295Y-58629065D01*
X49390194Y-58589500D01*
X49390192Y-58589500D01*
X49264674Y-58589500D01*
X46930192Y-58589500D01*
X46689808Y-58589500D01*
X46689805Y-58589500D01*
X46452704Y-58629065D01*
X46225344Y-58707117D01*
X46013940Y-58821524D01*
X46013928Y-58821531D01*
X45824234Y-58969176D01*
X45661427Y-59146033D01*
X45529951Y-59347271D01*
X45433392Y-59567402D01*
X45374378Y-59800442D01*
X45374378Y-59800443D01*
X45354529Y-60039996D01*
X45354529Y-60040003D01*
X45374378Y-60279556D01*
X45374378Y-60279557D01*
X45395957Y-60364769D01*
X45430391Y-60500750D01*
X45433392Y-60512597D01*
X45490076Y-60641822D01*
X45529951Y-60732728D01*
X45661429Y-60933969D01*
X45767639Y-61049344D01*
X45817102Y-61103076D01*
X45824236Y-61110825D01*
X46013933Y-61258472D01*
X46225344Y-61372882D01*
X46452703Y-61450934D01*
X46689808Y-61490500D01*
X46815326Y-61490500D01*
X47560500Y-61490500D01*
X47608066Y-61507813D01*
X47633376Y-61551650D01*
X47634500Y-61564500D01*
X47634500Y-69680256D01*
X47617187Y-69727822D01*
X47573350Y-69753132D01*
X47525280Y-69745337D01*
X47454656Y-69707117D01*
X47227295Y-69629065D01*
X46990194Y-69589500D01*
X46990192Y-69589500D01*
X46749808Y-69589500D01*
X46744674Y-69589500D01*
X44395326Y-69589500D01*
X44390192Y-69589500D01*
X44149808Y-69589500D01*
X44149805Y-69589500D01*
X43912704Y-69629065D01*
X43685344Y-69707117D01*
X43473940Y-69821524D01*
X43473928Y-69821531D01*
X43284234Y-69969176D01*
X43121427Y-70146033D01*
X42989951Y-70347271D01*
X42893392Y-70567402D01*
X42834378Y-70800442D01*
X42834378Y-70800443D01*
X42814529Y-71039996D01*
X42814529Y-71040003D01*
X42834378Y-71279556D01*
X42834378Y-71279557D01*
X42863884Y-71396076D01*
X42879882Y-71459250D01*
X42893392Y-71512597D01*
X42974841Y-71698280D01*
X42989951Y-71732728D01*
X43121429Y-71933969D01*
X43284236Y-72110825D01*
X43473933Y-72258472D01*
X43685344Y-72372882D01*
X43912703Y-72450934D01*
X44149808Y-72490500D01*
X44395326Y-72490500D01*
X46749808Y-72490500D01*
X46990192Y-72490500D01*
X47227297Y-72450934D01*
X47454656Y-72372882D01*
X47666067Y-72258472D01*
X47855764Y-72110825D01*
X48018571Y-71933969D01*
X48150049Y-71732728D01*
X48246610Y-71512591D01*
X48305620Y-71279563D01*
X48305620Y-71279559D01*
X48305621Y-71279557D01*
X48305621Y-71279556D01*
X48325471Y-71040003D01*
X48325471Y-71039996D01*
X48305621Y-70800443D01*
X48305621Y-70800442D01*
X48297319Y-70767657D01*
X48246610Y-70567409D01*
X48153196Y-70354448D01*
X48149944Y-70303934D01*
X48168636Y-70272399D01*
X48242558Y-70198477D01*
X48254400Y-70188861D01*
X48267836Y-70180084D01*
X48290594Y-70150843D01*
X48293631Y-70147405D01*
X48297519Y-70143518D01*
X48310636Y-70125145D01*
X48311552Y-70123916D01*
X48321125Y-70111617D01*
X48344809Y-70081189D01*
X48344810Y-70081183D01*
X48347729Y-70075792D01*
X48347978Y-70075926D01*
X48349571Y-70072832D01*
X48349316Y-70072708D01*
X48352009Y-70067200D01*
X48352008Y-70067200D01*
X48352010Y-70067199D01*
X48367459Y-70015302D01*
X48367900Y-70013925D01*
X48385500Y-69962660D01*
X48385500Y-69962656D01*
X48386510Y-69956609D01*
X48386786Y-69956655D01*
X48387289Y-69953207D01*
X48387009Y-69953173D01*
X48387765Y-69947096D01*
X48387768Y-69947089D01*
X48385730Y-69897801D01*
X48385532Y-69893002D01*
X48385500Y-69891473D01*
X48385500Y-65978185D01*
X48402813Y-65930619D01*
X48446650Y-65905309D01*
X48496500Y-65914099D01*
X48514187Y-65928332D01*
X48607763Y-66030981D01*
X48607764Y-66030982D01*
X48785306Y-66165055D01*
X48785309Y-66165057D01*
X48785310Y-66165057D01*
X48785311Y-66165058D01*
X48984472Y-66264229D01*
X49198464Y-66325115D01*
X49364497Y-66340500D01*
X49364499Y-66340500D01*
X49775501Y-66340500D01*
X49775503Y-66340500D01*
X49941536Y-66325115D01*
X50155528Y-66264229D01*
X50354689Y-66165058D01*
X50532236Y-66030981D01*
X50682124Y-65866562D01*
X50799247Y-65677401D01*
X50879618Y-65469940D01*
X50879617Y-65469940D01*
X50880854Y-65466750D01*
X50882046Y-65467211D01*
X50908986Y-65429963D01*
X50958075Y-65417610D01*
X51003619Y-65439700D01*
X51024308Y-65485898D01*
X51024500Y-65491221D01*
X51024500Y-67768381D01*
X51022925Y-67783566D01*
X51019633Y-67799264D01*
X51019633Y-67799269D01*
X51024216Y-67836032D01*
X51024500Y-67840613D01*
X51024500Y-67846118D01*
X51028215Y-67868380D01*
X51028435Y-67869892D01*
X51035134Y-67923627D01*
X51036884Y-67929504D01*
X51036615Y-67929584D01*
X51037679Y-67932904D01*
X51037945Y-67932813D01*
X51039935Y-67938610D01*
X51065696Y-67986215D01*
X51066391Y-67987564D01*
X51066522Y-67987832D01*
X51090175Y-68036214D01*
X51093738Y-68041204D01*
X51093510Y-68041366D01*
X51095595Y-68044162D01*
X51095817Y-68043990D01*
X51099579Y-68048823D01*
X51099581Y-68048826D01*
X51139400Y-68085482D01*
X51140504Y-68086541D01*
X51452826Y-68398863D01*
X51474218Y-68444739D01*
X51474500Y-68451189D01*
X51474500Y-69428809D01*
X51457187Y-69476375D01*
X51452826Y-69481135D01*
X51167440Y-69766520D01*
X51155592Y-69776142D01*
X51142163Y-69784916D01*
X51119408Y-69814150D01*
X51116377Y-69817583D01*
X51112484Y-69821477D01*
X51112478Y-69821484D01*
X51099353Y-69839867D01*
X51098440Y-69841092D01*
X51065194Y-69883806D01*
X51062273Y-69889204D01*
X51062026Y-69889070D01*
X51060430Y-69892171D01*
X51060682Y-69892295D01*
X51057988Y-69897804D01*
X51042550Y-69949658D01*
X51042084Y-69951113D01*
X51024499Y-70002339D01*
X51023491Y-70008386D01*
X51023213Y-70008339D01*
X51022711Y-70011790D01*
X51022990Y-70011825D01*
X51022232Y-70017908D01*
X51024468Y-70071996D01*
X51024500Y-70073524D01*
X51024500Y-83838778D01*
X51007187Y-83886344D01*
X50963350Y-83911654D01*
X50913500Y-83902864D01*
X50880963Y-83864087D01*
X50879867Y-83860703D01*
X50879617Y-83860057D01*
X50799247Y-83652599D01*
X50682124Y-83463438D01*
X50532236Y-83299019D01*
X50500467Y-83275028D01*
X50354693Y-83164944D01*
X50354690Y-83164942D01*
X50233679Y-83104686D01*
X50155528Y-83065771D01*
X50155524Y-83065770D01*
X50155522Y-83065769D01*
X49941537Y-83004885D01*
X49941524Y-83004883D01*
X49775509Y-82989500D01*
X49775503Y-82989500D01*
X49364497Y-82989500D01*
X49364490Y-82989500D01*
X49198475Y-83004883D01*
X49198462Y-83004885D01*
X48984477Y-83065769D01*
X48984472Y-83065771D01*
X48785309Y-83164942D01*
X48785306Y-83164944D01*
X48607764Y-83299017D01*
X48607763Y-83299018D01*
X48514187Y-83401668D01*
X48469347Y-83425157D01*
X48419900Y-83414328D01*
X48388982Y-83374248D01*
X48385500Y-83351815D01*
X48385500Y-80614500D01*
X48402813Y-80566934D01*
X48446650Y-80541624D01*
X48459500Y-80540500D01*
X49390192Y-80540500D01*
X49627297Y-80500934D01*
X49854656Y-80422882D01*
X50066067Y-80308472D01*
X50255764Y-80160825D01*
X50418571Y-79983969D01*
X50550049Y-79782728D01*
X50646610Y-79562591D01*
X50705620Y-79329563D01*
X50705620Y-79329559D01*
X50705621Y-79329557D01*
X50705621Y-79329556D01*
X50725471Y-79090003D01*
X50725471Y-79089996D01*
X50705621Y-78850443D01*
X50705621Y-78850442D01*
X50705620Y-78850437D01*
X50646610Y-78617409D01*
X50550049Y-78397272D01*
X50418571Y-78196031D01*
X50255764Y-78019175D01*
X50066067Y-77871528D01*
X49977715Y-77823714D01*
X49854655Y-77757117D01*
X49627295Y-77679065D01*
X49390194Y-77639500D01*
X49390192Y-77639500D01*
X49264674Y-77639500D01*
X46930192Y-77639500D01*
X46689808Y-77639500D01*
X46689805Y-77639500D01*
X46452704Y-77679065D01*
X46225344Y-77757117D01*
X46013940Y-77871524D01*
X46013928Y-77871531D01*
X45824234Y-78019176D01*
X45661427Y-78196033D01*
X45529951Y-78397271D01*
X45433392Y-78617402D01*
X45374378Y-78850442D01*
X45374378Y-78850443D01*
X45354529Y-79089996D01*
X45354529Y-79090003D01*
X45374378Y-79329556D01*
X45374378Y-79329557D01*
X45395957Y-79414769D01*
X45426968Y-79537232D01*
X45433392Y-79562597D01*
X45468919Y-79643589D01*
X45529951Y-79782728D01*
X45661429Y-79983969D01*
X45824236Y-80160825D01*
X46013933Y-80308472D01*
X46225344Y-80422882D01*
X46452703Y-80500934D01*
X46689808Y-80540500D01*
X46815326Y-80540500D01*
X47560500Y-80540500D01*
X47608066Y-80557813D01*
X47633376Y-80601650D01*
X47634500Y-80614500D01*
X47634500Y-88730256D01*
X47617187Y-88777822D01*
X47573350Y-88803132D01*
X47525280Y-88795337D01*
X47454656Y-88757117D01*
X47227295Y-88679065D01*
X46990194Y-88639500D01*
X46990192Y-88639500D01*
X46749808Y-88639500D01*
X46744674Y-88639500D01*
X44395326Y-88639500D01*
X44390192Y-88639500D01*
X44149808Y-88639500D01*
X44149805Y-88639500D01*
X43912704Y-88679065D01*
X43685344Y-88757117D01*
X43473940Y-88871524D01*
X43473928Y-88871531D01*
X43284234Y-89019176D01*
X43121427Y-89196033D01*
X42989951Y-89397271D01*
X42893392Y-89617402D01*
X42834378Y-89850442D01*
X42834378Y-89850443D01*
X42814529Y-90089996D01*
X42814529Y-90090003D01*
X40701440Y-90090003D01*
X40779959Y-90037637D01*
X40955267Y-89873164D01*
X41101112Y-89682080D01*
X41213517Y-89469596D01*
X41289415Y-89241508D01*
X41326736Y-89004039D01*
X41324462Y-88763666D01*
X41282655Y-88526946D01*
X41202455Y-88300336D01*
X41115199Y-88142683D01*
X40830738Y-87716152D01*
X40818751Y-87666975D01*
X40822312Y-87651073D01*
X40835500Y-87612660D01*
X40835500Y-87612656D01*
X40836510Y-87606610D01*
X40836786Y-87606656D01*
X40837289Y-87603206D01*
X40837009Y-87603172D01*
X40837765Y-87597095D01*
X40837768Y-87597088D01*
X40836462Y-87565511D01*
X40835532Y-87543002D01*
X40835500Y-87541474D01*
X40835500Y-84106882D01*
X41465804Y-84106882D01*
X41475654Y-84439099D01*
X41475656Y-84439121D01*
X41524730Y-84767856D01*
X41524731Y-84767857D01*
X41612344Y-85088494D01*
X41737266Y-85396516D01*
X41737267Y-85396517D01*
X41897742Y-85687603D01*
X42091519Y-85957665D01*
X42315877Y-86202914D01*
X42567666Y-86419906D01*
X42772316Y-86557748D01*
X42843351Y-86605594D01*
X42843353Y-86605595D01*
X43139067Y-86757374D01*
X43450656Y-86873113D01*
X43773747Y-86951187D01*
X44103805Y-86990500D01*
X44103809Y-86990500D01*
X44353023Y-86990500D01*
X44601807Y-86975736D01*
X44928956Y-86916939D01*
X45246854Y-86819862D01*
X45551040Y-86685868D01*
X45837243Y-86516837D01*
X46101445Y-86315142D01*
X46339937Y-86083616D01*
X46549373Y-85825506D01*
X46726810Y-85544438D01*
X46869760Y-85244357D01*
X46976215Y-84929475D01*
X47044680Y-84604212D01*
X47074195Y-84273134D01*
X47074195Y-84273120D01*
X47074195Y-84273117D01*
X47064345Y-83940900D01*
X47064345Y-83940890D01*
X47015269Y-83612142D01*
X46946190Y-83359339D01*
X46927655Y-83291505D01*
X46802733Y-82983483D01*
X46739329Y-82868475D01*
X46642258Y-82692397D01*
X46448481Y-82422335D01*
X46224123Y-82177086D01*
X45972334Y-81960094D01*
X45827178Y-81862324D01*
X45696648Y-81774405D01*
X45540253Y-81694134D01*
X45400933Y-81622626D01*
X45089344Y-81506887D01*
X44766253Y-81428813D01*
X44436195Y-81389500D01*
X44186977Y-81389500D01*
X43938201Y-81404263D01*
X43938184Y-81404265D01*
X43611049Y-81463059D01*
X43293147Y-81560137D01*
X42988954Y-81694134D01*
X42702773Y-81863152D01*
X42702752Y-81863166D01*
X42438557Y-82064855D01*
X42438547Y-82064864D01*
X42200068Y-82296378D01*
X42200063Y-82296383D01*
X42200063Y-82296384D01*
X41999168Y-82543969D01*
X41990625Y-82554497D01*
X41990623Y-82554498D01*
X41813189Y-82835562D01*
X41813188Y-82835564D01*
X41670239Y-83135644D01*
X41563787Y-83450515D01*
X41563784Y-83450525D01*
X41495321Y-83775778D01*
X41495320Y-83775787D01*
X41495320Y-83775788D01*
X41480602Y-83940890D01*
X41465804Y-84106879D01*
X41465804Y-84106882D01*
X40835500Y-84106882D01*
X40835500Y-83107519D01*
X40852813Y-83059953D01*
X40885471Y-83037529D01*
X41044656Y-82982882D01*
X41256067Y-82868472D01*
X41445764Y-82720825D01*
X41608571Y-82543969D01*
X41740049Y-82342728D01*
X41836610Y-82122591D01*
X41895620Y-81889563D01*
X41895620Y-81889559D01*
X41895621Y-81889557D01*
X41895621Y-81889556D01*
X41915471Y-81650003D01*
X41915471Y-81649996D01*
X41895621Y-81410443D01*
X41895621Y-81410442D01*
X41894057Y-81404264D01*
X41836610Y-81177409D01*
X41740049Y-80957272D01*
X41608571Y-80756031D01*
X41445764Y-80579175D01*
X41256067Y-80431528D01*
X41167715Y-80383714D01*
X41044655Y-80317117D01*
X40817295Y-80239065D01*
X40580194Y-80199500D01*
X40580192Y-80199500D01*
X40339808Y-80199500D01*
X40339805Y-80199500D01*
X40102704Y-80239065D01*
X39875344Y-80317117D01*
X39663940Y-80431524D01*
X39663928Y-80431531D01*
X39474234Y-80579176D01*
X39311427Y-80756033D01*
X39179951Y-80957271D01*
X39083392Y-81177402D01*
X39024378Y-81410442D01*
X39024378Y-81410443D01*
X39004529Y-81649996D01*
X39004529Y-81650003D01*
X39024378Y-81889556D01*
X39024378Y-81889557D01*
X39053885Y-82006076D01*
X39068769Y-82064855D01*
X39083392Y-82122597D01*
X39122997Y-82212886D01*
X39179951Y-82342728D01*
X39311429Y-82543969D01*
X39474236Y-82720825D01*
X39663933Y-82868472D01*
X39875344Y-82982882D01*
X40034528Y-83037528D01*
X40073895Y-83069347D01*
X40084500Y-83107519D01*
X40084500Y-83275028D01*
X40067187Y-83322594D01*
X40023350Y-83347904D01*
X39973500Y-83339114D01*
X39955814Y-83324882D01*
X39932237Y-83299019D01*
X39932235Y-83299017D01*
X39754693Y-83164944D01*
X39754690Y-83164942D01*
X39633679Y-83104686D01*
X39555528Y-83065771D01*
X39555524Y-83065770D01*
X39555522Y-83065769D01*
X39341537Y-83004885D01*
X39341524Y-83004883D01*
X39175509Y-82989500D01*
X39175503Y-82989500D01*
X38764497Y-82989500D01*
X38764490Y-82989500D01*
X38598475Y-83004883D01*
X38598462Y-83004885D01*
X38384477Y-83065769D01*
X38384472Y-83065771D01*
X38185309Y-83164942D01*
X38185306Y-83164944D01*
X38007764Y-83299017D01*
X38007763Y-83299018D01*
X37884187Y-83434576D01*
X37839347Y-83458065D01*
X37789900Y-83447236D01*
X37758982Y-83407156D01*
X37755500Y-83384723D01*
X37755500Y-69446176D01*
X37772813Y-69398610D01*
X37816650Y-69373300D01*
X37866500Y-69382090D01*
X37899037Y-69420867D01*
X37899260Y-69421487D01*
X37937543Y-69529660D01*
X37937546Y-69529665D01*
X38024791Y-69687300D01*
X38024807Y-69687326D01*
X38701699Y-70702286D01*
X38701700Y-70702287D01*
X38813711Y-70843423D01*
X38813713Y-70843425D01*
X38992101Y-71004553D01*
X39194577Y-71134120D01*
X39194585Y-71134123D01*
X39194588Y-71134125D01*
X39415617Y-71228594D01*
X39649184Y-71285396D01*
X39649187Y-71285396D01*
X39649194Y-71285398D01*
X39853766Y-71300401D01*
X39888932Y-71302981D01*
X39888932Y-71302980D01*
X39888934Y-71302981D01*
X40033428Y-71289630D01*
X40128291Y-71280866D01*
X40128293Y-71280865D01*
X40128298Y-71280865D01*
X40360757Y-71219652D01*
X40579971Y-71121013D01*
X40779959Y-70987637D01*
X40955267Y-70823164D01*
X41101112Y-70632080D01*
X41213517Y-70419596D01*
X41289415Y-70191508D01*
X41326736Y-69954039D01*
X41326690Y-69949229D01*
X41326166Y-69893802D01*
X41324462Y-69713666D01*
X41282655Y-69476946D01*
X41202455Y-69250336D01*
X41115199Y-69092683D01*
X40830738Y-68666152D01*
X40818751Y-68616975D01*
X40822312Y-68601073D01*
X40835500Y-68562660D01*
X40835500Y-68562656D01*
X40836510Y-68556610D01*
X40836786Y-68556656D01*
X40837289Y-68553206D01*
X40837009Y-68553172D01*
X40837765Y-68547095D01*
X40837768Y-68547088D01*
X40836462Y-68515511D01*
X40835532Y-68493002D01*
X40835500Y-68491474D01*
X40835500Y-65056882D01*
X41465804Y-65056882D01*
X41475654Y-65389099D01*
X41475656Y-65389121D01*
X41524730Y-65717856D01*
X41524731Y-65717857D01*
X41612344Y-66038494D01*
X41737266Y-66346516D01*
X41801420Y-66462884D01*
X41897742Y-66637603D01*
X42091519Y-66907665D01*
X42315877Y-67152914D01*
X42567666Y-67369906D01*
X42772316Y-67507748D01*
X42843351Y-67555594D01*
X42843353Y-67555595D01*
X43139067Y-67707374D01*
X43450656Y-67823113D01*
X43773747Y-67901187D01*
X44103805Y-67940500D01*
X44103809Y-67940500D01*
X44353023Y-67940500D01*
X44601807Y-67925736D01*
X44928956Y-67866939D01*
X45246854Y-67769862D01*
X45551040Y-67635868D01*
X45837243Y-67466837D01*
X46101445Y-67265142D01*
X46339937Y-67033616D01*
X46549373Y-66775506D01*
X46726810Y-66494438D01*
X46869760Y-66194357D01*
X46976215Y-65879475D01*
X47044680Y-65554212D01*
X47074195Y-65223134D01*
X47074195Y-65223120D01*
X47074195Y-65223117D01*
X47066228Y-64954406D01*
X47064345Y-64890890D01*
X47015269Y-64562142D01*
X46946457Y-64310316D01*
X46927655Y-64241505D01*
X46802733Y-63933483D01*
X46802401Y-63932881D01*
X46642258Y-63642397D01*
X46448481Y-63372335D01*
X46224123Y-63127086D01*
X45972334Y-62910094D01*
X45827178Y-62812324D01*
X45696648Y-62724405D01*
X45540253Y-62644134D01*
X45400933Y-62572626D01*
X45089344Y-62456887D01*
X44766253Y-62378813D01*
X44436195Y-62339500D01*
X44186977Y-62339500D01*
X43938201Y-62354263D01*
X43938184Y-62354265D01*
X43611049Y-62413059D01*
X43293147Y-62510137D01*
X42988954Y-62644134D01*
X42702773Y-62813152D01*
X42702752Y-62813166D01*
X42438557Y-63014855D01*
X42438547Y-63014864D01*
X42200068Y-63246378D01*
X42200063Y-63246383D01*
X42200063Y-63246384D01*
X41993367Y-63501118D01*
X41990625Y-63504497D01*
X41990623Y-63504498D01*
X41813189Y-63785562D01*
X41813188Y-63785564D01*
X41670239Y-64085644D01*
X41563787Y-64400515D01*
X41563784Y-64400525D01*
X41495321Y-64725778D01*
X41495320Y-64725787D01*
X41495320Y-64725788D01*
X41466598Y-65047978D01*
X41465804Y-65056879D01*
X41465804Y-65056882D01*
X40835500Y-65056882D01*
X40835500Y-64057519D01*
X40852813Y-64009953D01*
X40885471Y-63987529D01*
X41044656Y-63932882D01*
X41256067Y-63818472D01*
X41445764Y-63670825D01*
X41608571Y-63493969D01*
X41740049Y-63292728D01*
X41836610Y-63072591D01*
X41895620Y-62839563D01*
X41895620Y-62839559D01*
X41895621Y-62839557D01*
X41895621Y-62839556D01*
X41915471Y-62600003D01*
X41915471Y-62599996D01*
X41895621Y-62360443D01*
X41895621Y-62360442D01*
X41894057Y-62354264D01*
X41836610Y-62127409D01*
X41740049Y-61907272D01*
X41608571Y-61706031D01*
X41445764Y-61529175D01*
X41256067Y-61381528D01*
X41104020Y-61299244D01*
X41044655Y-61267117D01*
X40817295Y-61189065D01*
X40580194Y-61149500D01*
X40580192Y-61149500D01*
X40339808Y-61149500D01*
X40339805Y-61149500D01*
X40102704Y-61189065D01*
X39875344Y-61267117D01*
X39663940Y-61381524D01*
X39663928Y-61381531D01*
X39474234Y-61529176D01*
X39311427Y-61706033D01*
X39179951Y-61907271D01*
X39083392Y-62127402D01*
X39024378Y-62360442D01*
X39024378Y-62360443D01*
X39004529Y-62599996D01*
X39004529Y-62600003D01*
X39024378Y-62839556D01*
X39024378Y-62839557D01*
X39053884Y-62956076D01*
X39068769Y-63014855D01*
X39083392Y-63072597D01*
X39131303Y-63181822D01*
X39179951Y-63292728D01*
X39311429Y-63493969D01*
X39474236Y-63670825D01*
X39663933Y-63818472D01*
X39875344Y-63932882D01*
X40034528Y-63987528D01*
X40073895Y-64019347D01*
X40084500Y-64057519D01*
X40084500Y-64225028D01*
X40067187Y-64272594D01*
X40023350Y-64297904D01*
X39973500Y-64289114D01*
X39955814Y-64274882D01*
X39932237Y-64249019D01*
X39932235Y-64249017D01*
X39754693Y-64114944D01*
X39754690Y-64114942D01*
X39633679Y-64054686D01*
X39555528Y-64015771D01*
X39555524Y-64015770D01*
X39555522Y-64015769D01*
X39341537Y-63954885D01*
X39341524Y-63954883D01*
X39175509Y-63939500D01*
X39175503Y-63939500D01*
X38764497Y-63939500D01*
X38764490Y-63939500D01*
X38598475Y-63954883D01*
X38598462Y-63954885D01*
X38384477Y-64015769D01*
X38384472Y-64015771D01*
X38185309Y-64114942D01*
X38185306Y-64114944D01*
X38007764Y-64249017D01*
X38007763Y-64249018D01*
X37884187Y-64384576D01*
X37839347Y-64408065D01*
X37789900Y-64397236D01*
X37758982Y-64357156D01*
X37755500Y-64334723D01*
X37755500Y-58836617D01*
X37757075Y-58821431D01*
X37760367Y-58805732D01*
X37755783Y-58768963D01*
X37755500Y-58764385D01*
X37755500Y-58758890D01*
X37755499Y-58758881D01*
X37751786Y-58736633D01*
X37751565Y-58735119D01*
X37750154Y-58723802D01*
X37744866Y-58681374D01*
X37744864Y-58681370D01*
X37743115Y-58675493D01*
X37743386Y-58675412D01*
X37742324Y-58672096D01*
X37742056Y-58672189D01*
X37740065Y-58666389D01*
X37714312Y-58618802D01*
X37713612Y-58617442D01*
X37689826Y-58568788D01*
X37686264Y-58563800D01*
X37686493Y-58563636D01*
X37684407Y-58560839D01*
X37684185Y-58561013D01*
X37680419Y-58556174D01*
X37677000Y-58553027D01*
X37640591Y-58519510D01*
X37639495Y-58518458D01*
X37144890Y-58023853D01*
X37123498Y-57977977D01*
X37130975Y-57938542D01*
X37140582Y-57919250D01*
X37196397Y-57723083D01*
X37206374Y-57615420D01*
X37215215Y-57520003D01*
X37215215Y-57519996D01*
X37196398Y-57316923D01*
X37196397Y-57316917D01*
X37192217Y-57302226D01*
X37140582Y-57120750D01*
X37049673Y-56938179D01*
X37049670Y-56938175D01*
X37049670Y-56938174D01*
X36926765Y-56775421D01*
X36926764Y-56775420D01*
X36776041Y-56638019D01*
X36732425Y-56611013D01*
X36602637Y-56530652D01*
X36412456Y-56456976D01*
X36324407Y-56440516D01*
X36211979Y-56419500D01*
X36211976Y-56419500D01*
X36008024Y-56419500D01*
X36008020Y-56419500D01*
X35858115Y-56447522D01*
X35807544Y-56456976D01*
X35807542Y-56456976D01*
X35807540Y-56456977D01*
X35617368Y-56530650D01*
X35617363Y-56530652D01*
X35617358Y-56530654D01*
X35617358Y-56530655D01*
X35443958Y-56638019D01*
X35443957Y-56638019D01*
X35293235Y-56775420D01*
X35293234Y-56775421D01*
X35170329Y-56938174D01*
X35170328Y-56938177D01*
X35079418Y-57120750D01*
X35079416Y-57120755D01*
X35023602Y-57316917D01*
X35023601Y-57316923D01*
X35004785Y-57519996D01*
X35004785Y-57520003D01*
X35023601Y-57723076D01*
X35023602Y-57723082D01*
X35039279Y-57778179D01*
X35079418Y-57919250D01*
X35170327Y-58101821D01*
X35170328Y-58101822D01*
X35170329Y-58101825D01*
X35293234Y-58264578D01*
X35293235Y-58264579D01*
X35397908Y-58360000D01*
X35443959Y-58401981D01*
X35617363Y-58509348D01*
X35807544Y-58583024D01*
X36008024Y-58620500D01*
X36008026Y-58620500D01*
X36211974Y-58620500D01*
X36211976Y-58620500D01*
X36412456Y-58583024D01*
X36532934Y-58536349D01*
X36583540Y-58535310D01*
X36611990Y-58553027D01*
X36982826Y-58923863D01*
X37004218Y-58969739D01*
X37004500Y-58976189D01*
X37004500Y-59218692D01*
X36987187Y-59266258D01*
X36943350Y-59291568D01*
X36893500Y-59282778D01*
X36880647Y-59273379D01*
X36776041Y-59178019D01*
X36602637Y-59070652D01*
X36412456Y-58996976D01*
X36301255Y-58976189D01*
X36211979Y-58959500D01*
X36211976Y-58959500D01*
X36008024Y-58959500D01*
X36008020Y-58959500D01*
X35858115Y-58987522D01*
X35807544Y-58996976D01*
X35807542Y-58996976D01*
X35807540Y-58996977D01*
X35617368Y-59070650D01*
X35617363Y-59070652D01*
X35617358Y-59070654D01*
X35617358Y-59070655D01*
X35443958Y-59178019D01*
X35443957Y-59178019D01*
X35293235Y-59315420D01*
X35293234Y-59315421D01*
X35170329Y-59478174D01*
X35170328Y-59478177D01*
X35079418Y-59660750D01*
X35079416Y-59660755D01*
X35023602Y-59856917D01*
X35023601Y-59856923D01*
X35004785Y-60059996D01*
X35004785Y-60060003D01*
X35023601Y-60263076D01*
X35023602Y-60263082D01*
X35077275Y-60451719D01*
X35079418Y-60459250D01*
X35170327Y-60641821D01*
X35170328Y-60641822D01*
X35170329Y-60641825D01*
X35293234Y-60804578D01*
X35293235Y-60804579D01*
X35430636Y-60929836D01*
X35443959Y-60941981D01*
X35617363Y-61049348D01*
X35807544Y-61123024D01*
X36008024Y-61160500D01*
X36008026Y-61160500D01*
X36211974Y-61160500D01*
X36211976Y-61160500D01*
X36412456Y-61123024D01*
X36602637Y-61049348D01*
X36776041Y-60941981D01*
X36880648Y-60846619D01*
X36927462Y-60827369D01*
X36975699Y-60842715D01*
X37002787Y-60885476D01*
X37004500Y-60901307D01*
X37004500Y-61758692D01*
X36987187Y-61806258D01*
X36943350Y-61831568D01*
X36893500Y-61822778D01*
X36880647Y-61813379D01*
X36776041Y-61718019D01*
X36657429Y-61644578D01*
X36602637Y-61610652D01*
X36435582Y-61545935D01*
X36412459Y-61536977D01*
X36412458Y-61536976D01*
X36412456Y-61536976D01*
X36324407Y-61520516D01*
X36211979Y-61499500D01*
X36211976Y-61499500D01*
X36008024Y-61499500D01*
X36008020Y-61499500D01*
X35858115Y-61527522D01*
X35807544Y-61536976D01*
X35807542Y-61536976D01*
X35807540Y-61536977D01*
X35617368Y-61610650D01*
X35617363Y-61610652D01*
X35617358Y-61610654D01*
X35617358Y-61610655D01*
X35443958Y-61718019D01*
X35443957Y-61718019D01*
X35293235Y-61855420D01*
X35293234Y-61855421D01*
X35170329Y-62018174D01*
X35170328Y-62018177D01*
X35079418Y-62200750D01*
X35079416Y-62200755D01*
X35023602Y-62396917D01*
X35023601Y-62396923D01*
X35004785Y-62599996D01*
X35004785Y-62600003D01*
X35023601Y-62803076D01*
X35023602Y-62803082D01*
X35079416Y-62999244D01*
X35079418Y-62999250D01*
X35170327Y-63181821D01*
X35170328Y-63181822D01*
X35170329Y-63181825D01*
X35293234Y-63344578D01*
X35293235Y-63344579D01*
X35413555Y-63454264D01*
X35443959Y-63481981D01*
X35617363Y-63589348D01*
X35807544Y-63663024D01*
X36008024Y-63700500D01*
X36008026Y-63700500D01*
X36211974Y-63700500D01*
X36211976Y-63700500D01*
X36412456Y-63663024D01*
X36602637Y-63589348D01*
X36776041Y-63481981D01*
X36880648Y-63386619D01*
X36927462Y-63367369D01*
X36975699Y-63382715D01*
X37002787Y-63425476D01*
X37004500Y-63441307D01*
X37004500Y-64298692D01*
X36987187Y-64346258D01*
X36943350Y-64371568D01*
X36893500Y-64362778D01*
X36880647Y-64353379D01*
X36776041Y-64258019D01*
X36761501Y-64249016D01*
X36602637Y-64150652D01*
X36434831Y-64085644D01*
X36412459Y-64076977D01*
X36412458Y-64076976D01*
X36412456Y-64076976D01*
X36308370Y-64057519D01*
X36211979Y-64039500D01*
X36211976Y-64039500D01*
X36008024Y-64039500D01*
X36008020Y-64039500D01*
X35858115Y-64067522D01*
X35807544Y-64076976D01*
X35807542Y-64076976D01*
X35807540Y-64076977D01*
X35653563Y-64136628D01*
X35617363Y-64150652D01*
X35617358Y-64150654D01*
X35617358Y-64150655D01*
X35443958Y-64258019D01*
X35443957Y-64258019D01*
X35293235Y-64395420D01*
X35293234Y-64395421D01*
X35170329Y-64558174D01*
X35170328Y-64558177D01*
X35079418Y-64740750D01*
X35079416Y-64740755D01*
X35023602Y-64936917D01*
X35023601Y-64936923D01*
X35004785Y-65139996D01*
X35004785Y-65140003D01*
X34845500Y-65140003D01*
X34845500Y-46201246D01*
X37619500Y-46201246D01*
X37660382Y-46419942D01*
X37717031Y-46566168D01*
X37740753Y-46627401D01*
X37765803Y-46667858D01*
X37855499Y-46812724D01*
X37857876Y-46816562D01*
X38007764Y-46980981D01*
X38017713Y-46988494D01*
X38185306Y-47115055D01*
X38185309Y-47115057D01*
X38185310Y-47115057D01*
X38185311Y-47115058D01*
X38384472Y-47214229D01*
X38598464Y-47275115D01*
X38764497Y-47290500D01*
X38764499Y-47290500D01*
X39175501Y-47290500D01*
X39175503Y-47290500D01*
X39341536Y-47275115D01*
X39555528Y-47214229D01*
X39754689Y-47115058D01*
X39783407Y-47093371D01*
X39932235Y-46980982D01*
X39932236Y-46980981D01*
X39955813Y-46955118D01*
X40000652Y-46931629D01*
X40050099Y-46942458D01*
X40081017Y-46982537D01*
X40084500Y-47004971D01*
X40084500Y-48549669D01*
X40067187Y-48597235D01*
X40023350Y-48622545D01*
X39973500Y-48613755D01*
X39970615Y-48612000D01*
X39945426Y-48595882D01*
X39945423Y-48595880D01*
X39945419Y-48595878D01*
X39945411Y-48595874D01*
X39724382Y-48501405D01*
X39490815Y-48444603D01*
X39490807Y-48444602D01*
X39251067Y-48427018D01*
X39251060Y-48427019D01*
X39011708Y-48449133D01*
X38779239Y-48510349D01*
X38589154Y-48595882D01*
X38560030Y-48608987D01*
X38487477Y-48657374D01*
X38360038Y-48742365D01*
X38360036Y-48742367D01*
X38184734Y-48906834D01*
X38184731Y-48906837D01*
X38038891Y-49097915D01*
X38038885Y-49097924D01*
X37926484Y-49310399D01*
X37850584Y-49538494D01*
X37813264Y-49775960D01*
X37813263Y-49775964D01*
X37815538Y-50016338D01*
X37857344Y-50253052D01*
X37918685Y-50426375D01*
X37937545Y-50479664D01*
X37937546Y-50479665D01*
X38024791Y-50637300D01*
X38024807Y-50637326D01*
X38701699Y-51652286D01*
X38701700Y-51652287D01*
X38813711Y-51793423D01*
X38813713Y-51793425D01*
X38992101Y-51954553D01*
X39194577Y-52084120D01*
X39194585Y-52084123D01*
X39194588Y-52084125D01*
X39415617Y-52178594D01*
X39649184Y-52235396D01*
X39649187Y-52235396D01*
X39649194Y-52235398D01*
X39853766Y-52250401D01*
X39888932Y-52252981D01*
X39888932Y-52252980D01*
X39888934Y-52252981D01*
X40033428Y-52239630D01*
X40128291Y-52230866D01*
X40128293Y-52230865D01*
X40128298Y-52230865D01*
X40360757Y-52169652D01*
X40579971Y-52071013D01*
X40701440Y-51990003D01*
X42814529Y-51990003D01*
X42834378Y-52229556D01*
X42834378Y-52229557D01*
X42849850Y-52290655D01*
X42881796Y-52416808D01*
X42893392Y-52462597D01*
X42989951Y-52682727D01*
X42989951Y-52682728D01*
X43121429Y-52883969D01*
X43246929Y-53020299D01*
X43277589Y-53053605D01*
X43284236Y-53060825D01*
X43473933Y-53208472D01*
X43685344Y-53322882D01*
X43912703Y-53400934D01*
X44149808Y-53440500D01*
X44395326Y-53440500D01*
X46749808Y-53440500D01*
X46990192Y-53440500D01*
X47227297Y-53400934D01*
X47454656Y-53322882D01*
X47666067Y-53208472D01*
X47855764Y-53060825D01*
X48018571Y-52883969D01*
X48150049Y-52682728D01*
X48246610Y-52462591D01*
X48305620Y-52229563D01*
X48305620Y-52229559D01*
X48305621Y-52229557D01*
X48305621Y-52229556D01*
X48325471Y-51990003D01*
X48325471Y-51989996D01*
X48305621Y-51750443D01*
X48305621Y-51750442D01*
X48305620Y-51750437D01*
X48246610Y-51517409D01*
X48153196Y-51304448D01*
X48149944Y-51253934D01*
X48168636Y-51222399D01*
X48242558Y-51148477D01*
X48254400Y-51138861D01*
X48267836Y-51130084D01*
X48290594Y-51100843D01*
X48293631Y-51097405D01*
X48297519Y-51093518D01*
X48310636Y-51075145D01*
X48311552Y-51073916D01*
X48321125Y-51061617D01*
X48344809Y-51031189D01*
X48344810Y-51031183D01*
X48347729Y-51025792D01*
X48347978Y-51025926D01*
X48349571Y-51022832D01*
X48349316Y-51022708D01*
X48352009Y-51017200D01*
X48352008Y-51017200D01*
X48352010Y-51017199D01*
X48367459Y-50965302D01*
X48367900Y-50963925D01*
X48385500Y-50912660D01*
X48385500Y-50912656D01*
X48386510Y-50906609D01*
X48386786Y-50906655D01*
X48387289Y-50903207D01*
X48387009Y-50903173D01*
X48387765Y-50897096D01*
X48387768Y-50897089D01*
X48385730Y-50847801D01*
X48385532Y-50843002D01*
X48385500Y-50841473D01*
X48385500Y-46928185D01*
X48402813Y-46880619D01*
X48446650Y-46855309D01*
X48496500Y-46864099D01*
X48514187Y-46878332D01*
X48607763Y-46980981D01*
X48607764Y-46980982D01*
X48785306Y-47115055D01*
X48785309Y-47115057D01*
X48785310Y-47115057D01*
X48785311Y-47115058D01*
X48984472Y-47214229D01*
X49198464Y-47275115D01*
X49364497Y-47290500D01*
X49364499Y-47290500D01*
X49775501Y-47290500D01*
X49775503Y-47290500D01*
X49941536Y-47275115D01*
X50155528Y-47214229D01*
X50354689Y-47115058D01*
X50532236Y-46980981D01*
X50682124Y-46816562D01*
X50799247Y-46627401D01*
X50879618Y-46419940D01*
X50920499Y-46201246D01*
X56669500Y-46201246D01*
X56710382Y-46419942D01*
X56767031Y-46566168D01*
X56790753Y-46627401D01*
X56815803Y-46667858D01*
X56905499Y-46812724D01*
X56907876Y-46816562D01*
X57057764Y-46980981D01*
X57067713Y-46988494D01*
X57235306Y-47115055D01*
X57235309Y-47115057D01*
X57235310Y-47115057D01*
X57235311Y-47115058D01*
X57434472Y-47214229D01*
X57648464Y-47275115D01*
X57814497Y-47290500D01*
X57814499Y-47290500D01*
X58225501Y-47290500D01*
X58225503Y-47290500D01*
X58391536Y-47275115D01*
X58605528Y-47214229D01*
X58804689Y-47115058D01*
X58833407Y-47093371D01*
X58982235Y-46980982D01*
X58982236Y-46980981D01*
X59005813Y-46955118D01*
X59050652Y-46931629D01*
X59100099Y-46942458D01*
X59131017Y-46982537D01*
X59134500Y-47004971D01*
X59134500Y-48549669D01*
X59117187Y-48597235D01*
X59073350Y-48622545D01*
X59023500Y-48613755D01*
X59020615Y-48612000D01*
X58995426Y-48595882D01*
X58995423Y-48595880D01*
X58995419Y-48595878D01*
X58995411Y-48595874D01*
X58774382Y-48501405D01*
X58540815Y-48444603D01*
X58540807Y-48444602D01*
X58301067Y-48427018D01*
X58301060Y-48427019D01*
X58061708Y-48449133D01*
X57829239Y-48510349D01*
X57639154Y-48595882D01*
X57610030Y-48608987D01*
X57537477Y-48657374D01*
X57410038Y-48742365D01*
X57410036Y-48742367D01*
X57234734Y-48906834D01*
X57234731Y-48906837D01*
X57088891Y-49097915D01*
X57088885Y-49097924D01*
X56976484Y-49310399D01*
X56900584Y-49538494D01*
X56863264Y-49775960D01*
X56863263Y-49775964D01*
X56865538Y-50016338D01*
X56907344Y-50253052D01*
X56968685Y-50426375D01*
X56987545Y-50479664D01*
X56987546Y-50479665D01*
X57074791Y-50637300D01*
X57074807Y-50637326D01*
X57751699Y-51652286D01*
X57751700Y-51652287D01*
X57863711Y-51793423D01*
X57863713Y-51793425D01*
X58042101Y-51954553D01*
X58129348Y-52010383D01*
X58210386Y-52062240D01*
X58241120Y-52102461D01*
X58244500Y-52124571D01*
X58244500Y-54193381D01*
X58242925Y-54208566D01*
X58239633Y-54224264D01*
X58239633Y-54224269D01*
X58244216Y-54261032D01*
X58244500Y-54265613D01*
X58244500Y-54271118D01*
X58248215Y-54293380D01*
X58248435Y-54294892D01*
X58255134Y-54348627D01*
X58256884Y-54354504D01*
X58256615Y-54354584D01*
X58257679Y-54357904D01*
X58257945Y-54357813D01*
X58259935Y-54363610D01*
X58285696Y-54411215D01*
X58286396Y-54412574D01*
X58310175Y-54461214D01*
X58313738Y-54466204D01*
X58313510Y-54466366D01*
X58315595Y-54469162D01*
X58315817Y-54468990D01*
X58319579Y-54473823D01*
X58319581Y-54473826D01*
X58359400Y-54510482D01*
X58360504Y-54511541D01*
X59901518Y-56052555D01*
X59911142Y-56064406D01*
X59919915Y-56077834D01*
X59919918Y-56077838D01*
X59949154Y-56100594D01*
X59952591Y-56103628D01*
X59956484Y-56107521D01*
X59974858Y-56120639D01*
X59976085Y-56121554D01*
X59994903Y-56136200D01*
X60018811Y-56154809D01*
X60018812Y-56154809D01*
X60018813Y-56154810D01*
X60024206Y-56157729D01*
X60024071Y-56157977D01*
X60027170Y-56159572D01*
X60027295Y-56159318D01*
X60032799Y-56162009D01*
X60032800Y-56162009D01*
X60032801Y-56162010D01*
X60061294Y-56170492D01*
X60084675Y-56177454D01*
X60086107Y-56177912D01*
X60109472Y-56185933D01*
X60137338Y-56195500D01*
X60143385Y-56196509D01*
X60143338Y-56196785D01*
X60146792Y-56197289D01*
X60146827Y-56197009D01*
X60152904Y-56197766D01*
X60152911Y-56197768D01*
X60185910Y-56196403D01*
X60206996Y-56195532D01*
X60208524Y-56195500D01*
X70823811Y-56195500D01*
X70871377Y-56212813D01*
X70876137Y-56217174D01*
X71632826Y-56973863D01*
X71654218Y-57019738D01*
X71654500Y-57026188D01*
X71654500Y-63423381D01*
X71652925Y-63438566D01*
X71649633Y-63454264D01*
X71649633Y-63454268D01*
X71653087Y-63481981D01*
X71654216Y-63491032D01*
X71654500Y-63495613D01*
X71654500Y-63501118D01*
X71658215Y-63523380D01*
X71658435Y-63524892D01*
X71665134Y-63578627D01*
X71666884Y-63584504D01*
X71666615Y-63584584D01*
X71667679Y-63587904D01*
X71667945Y-63587813D01*
X71669935Y-63593610D01*
X71695696Y-63641215D01*
X71696396Y-63642574D01*
X71720175Y-63691214D01*
X71723738Y-63696204D01*
X71723510Y-63696366D01*
X71725595Y-63699162D01*
X71725817Y-63698990D01*
X71729578Y-63703823D01*
X71769399Y-63740481D01*
X71770503Y-63741540D01*
X72971518Y-64942556D01*
X72981141Y-64954406D01*
X72989913Y-64967832D01*
X72989916Y-64967836D01*
X73019152Y-64990591D01*
X73022585Y-64993623D01*
X73026481Y-64997519D01*
X73044873Y-65010650D01*
X73046088Y-65011555D01*
X73088811Y-65044809D01*
X73088813Y-65044809D01*
X73088816Y-65044812D01*
X73094206Y-65047729D01*
X73094071Y-65047978D01*
X73097163Y-65049569D01*
X73097288Y-65049315D01*
X73102798Y-65052008D01*
X73102801Y-65052010D01*
X73154710Y-65067463D01*
X73156083Y-65067903D01*
X73207340Y-65085500D01*
X73207341Y-65085500D01*
X73213391Y-65086510D01*
X73213344Y-65086786D01*
X73216793Y-65087289D01*
X73216828Y-65087009D01*
X73222905Y-65087766D01*
X73222912Y-65087768D01*
X73255911Y-65086403D01*
X73276997Y-65085532D01*
X73278525Y-65085500D01*
X74916675Y-65085500D01*
X74964241Y-65102813D01*
X74989551Y-65146650D01*
X74980761Y-65196500D01*
X74966530Y-65214185D01*
X74943237Y-65235420D01*
X74943233Y-65235424D01*
X74820329Y-65398174D01*
X74820328Y-65398177D01*
X74729418Y-65580750D01*
X74729416Y-65580755D01*
X74673602Y-65776917D01*
X74673601Y-65776923D01*
X74654785Y-65979996D01*
X74654785Y-65980003D01*
X74673601Y-66183076D01*
X74673602Y-66183082D01*
X74729416Y-66379244D01*
X74729418Y-66379250D01*
X74820327Y-66561821D01*
X74820328Y-66561822D01*
X74820329Y-66561825D01*
X74943234Y-66724578D01*
X74943235Y-66724579D01*
X74999100Y-66775506D01*
X75093959Y-66861981D01*
X75267363Y-66969348D01*
X75457544Y-67043024D01*
X75658024Y-67080500D01*
X75658026Y-67080500D01*
X75861974Y-67080500D01*
X75861976Y-67080500D01*
X76062456Y-67043024D01*
X76252637Y-66969348D01*
X76426041Y-66861981D01*
X76576764Y-66724579D01*
X76644798Y-66634488D01*
X76699670Y-66561825D01*
X76699670Y-66561824D01*
X76699673Y-66561821D01*
X76790582Y-66379250D01*
X76846397Y-66183083D01*
X76846922Y-66177426D01*
X76865215Y-65980003D01*
X76865215Y-65979996D01*
X76846398Y-65776923D01*
X76846397Y-65776917D01*
X76829592Y-65717856D01*
X76790582Y-65580750D01*
X76699673Y-65398179D01*
X76699670Y-65398175D01*
X76699670Y-65398174D01*
X76576766Y-65235424D01*
X76576764Y-65235421D01*
X76553470Y-65214186D01*
X76529983Y-65169347D01*
X76540812Y-65119900D01*
X76580892Y-65088982D01*
X76603325Y-65085500D01*
X76843811Y-65085500D01*
X76891377Y-65102813D01*
X76896137Y-65107174D01*
X77265108Y-65476145D01*
X77286500Y-65522021D01*
X77279026Y-65561451D01*
X77269417Y-65580750D01*
X77269416Y-65580752D01*
X77213602Y-65776917D01*
X77213601Y-65776923D01*
X77194785Y-65979996D01*
X77194785Y-65980003D01*
X77213601Y-66183076D01*
X77213602Y-66183082D01*
X77269416Y-66379244D01*
X77269418Y-66379250D01*
X77360327Y-66561821D01*
X77360328Y-66561822D01*
X77360329Y-66561825D01*
X77483234Y-66724578D01*
X77483235Y-66724579D01*
X77539100Y-66775506D01*
X77633959Y-66861981D01*
X77807363Y-66969348D01*
X77997544Y-67043024D01*
X78198024Y-67080500D01*
X78198026Y-67080500D01*
X78401974Y-67080500D01*
X78401976Y-67080500D01*
X78602456Y-67043024D01*
X78792637Y-66969348D01*
X78966041Y-66861981D01*
X79116764Y-66724579D01*
X79184798Y-66634488D01*
X79239670Y-66561825D01*
X79239670Y-66561824D01*
X79239673Y-66561821D01*
X79330582Y-66379250D01*
X79386397Y-66183083D01*
X79386922Y-66177426D01*
X79405215Y-65980003D01*
X79405215Y-65979996D01*
X79386398Y-65776923D01*
X79386397Y-65776917D01*
X79369592Y-65717856D01*
X79330582Y-65580750D01*
X79239673Y-65398179D01*
X79239670Y-65398175D01*
X79239670Y-65398174D01*
X79116765Y-65235421D01*
X79116764Y-65235420D01*
X78966041Y-65098019D01*
X78917434Y-65067923D01*
X78792637Y-64990652D01*
X78602456Y-64916976D01*
X78514407Y-64900516D01*
X78401979Y-64879500D01*
X78401976Y-64879500D01*
X78198024Y-64879500D01*
X78198020Y-64879500D01*
X78048115Y-64907522D01*
X77997544Y-64916976D01*
X77997542Y-64916976D01*
X77997540Y-64916977D01*
X77877065Y-64963648D01*
X77826457Y-64964687D01*
X77798008Y-64946971D01*
X77576826Y-64725789D01*
X77328479Y-64477441D01*
X77318853Y-64465586D01*
X77310086Y-64452166D01*
X77310083Y-64452163D01*
X77280853Y-64429412D01*
X77277415Y-64426377D01*
X77273518Y-64422480D01*
X77260856Y-64413440D01*
X77255123Y-64409346D01*
X77253897Y-64408432D01*
X77237179Y-64395420D01*
X77211189Y-64375191D01*
X77211186Y-64375190D01*
X77211185Y-64375189D01*
X77205795Y-64372272D01*
X77205928Y-64372024D01*
X77202829Y-64370429D01*
X77202706Y-64370682D01*
X77197201Y-64367990D01*
X77145347Y-64352552D01*
X77143892Y-64352086D01*
X77092661Y-64334499D01*
X77086615Y-64333491D01*
X77086661Y-64333214D01*
X77083206Y-64332710D01*
X77083172Y-64332991D01*
X77077089Y-64332232D01*
X77077088Y-64332232D01*
X77077086Y-64332232D01*
X77023003Y-64334468D01*
X77021475Y-64334500D01*
X76603325Y-64334500D01*
X76555759Y-64317187D01*
X76530449Y-64273350D01*
X76539239Y-64223500D01*
X76553471Y-64205813D01*
X76576764Y-64184579D01*
X76699673Y-64021821D01*
X76790582Y-63839250D01*
X76846397Y-63643083D01*
X76846445Y-63642574D01*
X76865215Y-63440003D01*
X77194785Y-63440003D01*
X77213601Y-63643076D01*
X77213602Y-63643082D01*
X77263120Y-63817115D01*
X77269418Y-63839250D01*
X77360327Y-64021821D01*
X77360328Y-64021822D01*
X77360329Y-64021825D01*
X77483234Y-64184578D01*
X77483235Y-64184579D01*
X77607547Y-64297903D01*
X77633959Y-64321981D01*
X77807363Y-64429348D01*
X77997544Y-64503024D01*
X78198024Y-64540500D01*
X78198026Y-64540500D01*
X78401974Y-64540500D01*
X78401976Y-64540500D01*
X78602456Y-64503024D01*
X78792637Y-64429348D01*
X78966041Y-64321981D01*
X79116764Y-64184579D01*
X79142385Y-64150652D01*
X79239670Y-64021825D01*
X79239670Y-64021824D01*
X79239673Y-64021821D01*
X79330582Y-63839250D01*
X79386397Y-63643083D01*
X79386445Y-63642574D01*
X79405215Y-63440003D01*
X79405215Y-63439996D01*
X79386398Y-63236923D01*
X79386397Y-63236917D01*
X79365333Y-63162885D01*
X79330582Y-63040750D01*
X79239673Y-62858179D01*
X79239670Y-62858175D01*
X79239670Y-62858174D01*
X79116765Y-62695421D01*
X79116764Y-62695420D01*
X78966041Y-62558019D01*
X78888710Y-62510138D01*
X78792637Y-62450652D01*
X78602456Y-62376976D01*
X78513980Y-62360437D01*
X78401979Y-62339500D01*
X78401976Y-62339500D01*
X78198024Y-62339500D01*
X78198020Y-62339500D01*
X78048115Y-62367522D01*
X77997544Y-62376976D01*
X77997542Y-62376976D01*
X77997540Y-62376977D01*
X77807368Y-62450650D01*
X77807363Y-62450652D01*
X77807358Y-62450654D01*
X77807358Y-62450655D01*
X77633958Y-62558019D01*
X77633957Y-62558019D01*
X77483235Y-62695420D01*
X77483234Y-62695421D01*
X77360329Y-62858174D01*
X77360328Y-62858177D01*
X77269418Y-63040750D01*
X77269416Y-63040755D01*
X77213602Y-63236917D01*
X77213601Y-63236923D01*
X77194785Y-63439996D01*
X77194785Y-63440003D01*
X76865215Y-63440003D01*
X76865215Y-63439996D01*
X76846398Y-63236923D01*
X76846397Y-63236917D01*
X76825333Y-63162885D01*
X76790582Y-63040750D01*
X76699673Y-62858179D01*
X76699670Y-62858175D01*
X76699670Y-62858174D01*
X76576765Y-62695421D01*
X76576764Y-62695420D01*
X76426041Y-62558019D01*
X76348710Y-62510138D01*
X76252637Y-62450652D01*
X76062456Y-62376976D01*
X75973980Y-62360437D01*
X75861979Y-62339500D01*
X75861976Y-62339500D01*
X75658024Y-62339500D01*
X75658020Y-62339500D01*
X75508115Y-62367522D01*
X75457544Y-62376976D01*
X75457542Y-62376976D01*
X75457540Y-62376977D01*
X75267368Y-62450650D01*
X75267363Y-62450652D01*
X75267358Y-62450654D01*
X75267358Y-62450655D01*
X75093958Y-62558019D01*
X75093957Y-62558019D01*
X74943235Y-62695420D01*
X74943234Y-62695421D01*
X74820329Y-62858174D01*
X74820328Y-62858177D01*
X74729418Y-63040750D01*
X74729416Y-63040755D01*
X74673602Y-63236917D01*
X74673601Y-63236923D01*
X74654785Y-63439996D01*
X74654785Y-63440003D01*
X74673601Y-63643076D01*
X74673602Y-63643082D01*
X74723120Y-63817115D01*
X74729418Y-63839250D01*
X74820327Y-64021821D01*
X74820328Y-64021822D01*
X74820329Y-64021825D01*
X74917618Y-64150655D01*
X74943236Y-64184579D01*
X74966529Y-64205813D01*
X74990017Y-64250653D01*
X74979188Y-64300100D01*
X74939108Y-64331018D01*
X74916675Y-64334500D01*
X73456189Y-64334500D01*
X73408623Y-64317187D01*
X73403863Y-64312826D01*
X72427174Y-63336136D01*
X72405782Y-63290259D01*
X72405500Y-63283810D01*
X72405500Y-60900003D01*
X74654785Y-60900003D01*
X74673601Y-61103076D01*
X74673602Y-61103082D01*
X74729416Y-61299244D01*
X74729418Y-61299250D01*
X74820327Y-61481821D01*
X74820328Y-61481822D01*
X74820329Y-61481825D01*
X74943234Y-61644578D01*
X74943235Y-61644579D01*
X75068412Y-61758692D01*
X75093959Y-61781981D01*
X75267363Y-61889348D01*
X75457544Y-61963024D01*
X75658024Y-62000500D01*
X75658026Y-62000500D01*
X75861974Y-62000500D01*
X75861976Y-62000500D01*
X76062456Y-61963024D01*
X76252637Y-61889348D01*
X76426041Y-61781981D01*
X76576764Y-61644579D01*
X76602385Y-61610652D01*
X76699670Y-61481825D01*
X76699670Y-61481824D01*
X76699673Y-61481821D01*
X76790582Y-61299250D01*
X76846397Y-61103083D01*
X76851377Y-61049348D01*
X76865215Y-60900003D01*
X77194785Y-60900003D01*
X77213601Y-61103076D01*
X77213602Y-61103082D01*
X77269416Y-61299244D01*
X77269418Y-61299250D01*
X77360327Y-61481821D01*
X77360328Y-61481822D01*
X77360329Y-61481825D01*
X77483234Y-61644578D01*
X77483235Y-61644579D01*
X77608412Y-61758692D01*
X77633959Y-61781981D01*
X77807363Y-61889348D01*
X77997544Y-61963024D01*
X78198024Y-62000500D01*
X78198026Y-62000500D01*
X78401974Y-62000500D01*
X78401976Y-62000500D01*
X78602456Y-61963024D01*
X78792637Y-61889348D01*
X78966041Y-61781981D01*
X79116764Y-61644579D01*
X79142385Y-61610652D01*
X79239670Y-61481825D01*
X79239670Y-61481824D01*
X79239673Y-61481821D01*
X79330582Y-61299250D01*
X79386397Y-61103083D01*
X79391377Y-61049348D01*
X79405215Y-60900003D01*
X79405215Y-60899996D01*
X79386398Y-60696923D01*
X79386397Y-60696917D01*
X79358069Y-60597355D01*
X79330582Y-60500750D01*
X79239673Y-60318179D01*
X79239670Y-60318175D01*
X79239670Y-60318174D01*
X79116765Y-60155421D01*
X79116764Y-60155420D01*
X78966041Y-60018019D01*
X78966041Y-60018018D01*
X78792637Y-59910652D01*
X78602456Y-59836976D01*
X78514407Y-59820516D01*
X78401979Y-59799500D01*
X78401976Y-59799500D01*
X78198024Y-59799500D01*
X78198020Y-59799500D01*
X78048115Y-59827522D01*
X77997544Y-59836976D01*
X77997542Y-59836976D01*
X77997540Y-59836977D01*
X77807368Y-59910650D01*
X77807363Y-59910652D01*
X77807358Y-59910654D01*
X77807358Y-59910655D01*
X77633958Y-60018019D01*
X77633957Y-60018019D01*
X77483235Y-60155420D01*
X77483234Y-60155421D01*
X77360329Y-60318174D01*
X77360328Y-60318177D01*
X77269418Y-60500750D01*
X77269416Y-60500755D01*
X77213602Y-60696917D01*
X77213601Y-60696923D01*
X77194785Y-60899996D01*
X77194785Y-60900003D01*
X76865215Y-60900003D01*
X76865215Y-60899996D01*
X76846398Y-60696923D01*
X76846397Y-60696917D01*
X76818069Y-60597355D01*
X76790582Y-60500750D01*
X76699673Y-60318179D01*
X76699670Y-60318175D01*
X76699670Y-60318174D01*
X76576765Y-60155421D01*
X76576764Y-60155420D01*
X76426041Y-60018019D01*
X76426041Y-60018018D01*
X76252637Y-59910652D01*
X76062456Y-59836976D01*
X75974407Y-59820516D01*
X75861979Y-59799500D01*
X75861976Y-59799500D01*
X75658024Y-59799500D01*
X75658020Y-59799500D01*
X75508115Y-59827522D01*
X75457544Y-59836976D01*
X75457542Y-59836976D01*
X75457540Y-59836977D01*
X75267368Y-59910650D01*
X75267363Y-59910652D01*
X75267358Y-59910654D01*
X75267358Y-59910655D01*
X75093958Y-60018019D01*
X75093957Y-60018019D01*
X74943235Y-60155420D01*
X74943234Y-60155421D01*
X74820329Y-60318174D01*
X74820328Y-60318177D01*
X74729418Y-60500750D01*
X74729416Y-60500755D01*
X74673602Y-60696917D01*
X74673601Y-60696923D01*
X74654785Y-60899996D01*
X74654785Y-60900003D01*
X72405500Y-60900003D01*
X72405500Y-58360003D01*
X74654785Y-58360003D01*
X74673601Y-58563076D01*
X74673602Y-58563082D01*
X74729416Y-58759244D01*
X74729418Y-58759250D01*
X74820327Y-58941821D01*
X74820328Y-58941822D01*
X74820329Y-58941825D01*
X74943234Y-59104578D01*
X74943235Y-59104579D01*
X75023796Y-59178019D01*
X75093959Y-59241981D01*
X75267363Y-59349348D01*
X75457544Y-59423024D01*
X75658024Y-59460500D01*
X75658026Y-59460500D01*
X75861974Y-59460500D01*
X75861976Y-59460500D01*
X76062456Y-59423024D01*
X76252637Y-59349348D01*
X76426041Y-59241981D01*
X76576764Y-59104579D01*
X76602385Y-59070652D01*
X76699670Y-58941825D01*
X76699670Y-58941824D01*
X76699673Y-58941821D01*
X76790582Y-58759250D01*
X76846397Y-58563083D01*
X76847038Y-58556174D01*
X76865215Y-58360003D01*
X77194785Y-58360003D01*
X77213601Y-58563076D01*
X77213602Y-58563082D01*
X77269416Y-58759244D01*
X77269418Y-58759250D01*
X77360327Y-58941821D01*
X77360328Y-58941822D01*
X77360329Y-58941825D01*
X77483234Y-59104578D01*
X77483235Y-59104579D01*
X77563796Y-59178019D01*
X77633959Y-59241981D01*
X77807363Y-59349348D01*
X77997544Y-59423024D01*
X78198024Y-59460500D01*
X78198026Y-59460500D01*
X78401974Y-59460500D01*
X78401976Y-59460500D01*
X78602456Y-59423024D01*
X78792637Y-59349348D01*
X78966041Y-59241981D01*
X79116764Y-59104579D01*
X79142385Y-59070652D01*
X79239670Y-58941825D01*
X79239670Y-58941824D01*
X79239673Y-58941821D01*
X79330582Y-58759250D01*
X79386397Y-58563083D01*
X79387038Y-58556174D01*
X79405215Y-58360003D01*
X79405215Y-58359996D01*
X79386398Y-58156923D01*
X79386397Y-58156917D01*
X79370721Y-58101821D01*
X79330582Y-57960750D01*
X79239673Y-57778179D01*
X79239670Y-57778175D01*
X79239670Y-57778174D01*
X79116765Y-57615421D01*
X79116764Y-57615420D01*
X78966041Y-57478019D01*
X78903619Y-57439369D01*
X78792637Y-57370652D01*
X78653930Y-57316917D01*
X78602459Y-57296977D01*
X78602458Y-57296976D01*
X78602456Y-57296976D01*
X78514407Y-57280516D01*
X78401979Y-57259500D01*
X78401976Y-57259500D01*
X78198024Y-57259500D01*
X78198020Y-57259500D01*
X78048115Y-57287522D01*
X77997544Y-57296976D01*
X77997542Y-57296976D01*
X77997540Y-57296977D01*
X77807368Y-57370650D01*
X77807363Y-57370652D01*
X77807358Y-57370654D01*
X77807358Y-57370655D01*
X77633958Y-57478019D01*
X77633957Y-57478019D01*
X77483235Y-57615420D01*
X77483234Y-57615421D01*
X77360329Y-57778174D01*
X77360328Y-57778177D01*
X77269418Y-57960750D01*
X77269416Y-57960755D01*
X77213602Y-58156917D01*
X77213601Y-58156923D01*
X77194785Y-58359996D01*
X77194785Y-58360003D01*
X76865215Y-58360003D01*
X76865215Y-58359996D01*
X76846398Y-58156923D01*
X76846397Y-58156917D01*
X76830721Y-58101821D01*
X76790582Y-57960750D01*
X76699673Y-57778179D01*
X76699670Y-57778175D01*
X76699670Y-57778174D01*
X76576765Y-57615421D01*
X76576764Y-57615420D01*
X76426041Y-57478019D01*
X76363619Y-57439369D01*
X76252637Y-57370652D01*
X76113930Y-57316917D01*
X76062459Y-57296977D01*
X76062458Y-57296976D01*
X76062456Y-57296976D01*
X75974407Y-57280516D01*
X75861979Y-57259500D01*
X75861976Y-57259500D01*
X75658024Y-57259500D01*
X75658020Y-57259500D01*
X75508115Y-57287522D01*
X75457544Y-57296976D01*
X75457542Y-57296976D01*
X75457540Y-57296977D01*
X75267368Y-57370650D01*
X75267363Y-57370652D01*
X75267358Y-57370654D01*
X75267358Y-57370655D01*
X75093958Y-57478019D01*
X75093957Y-57478019D01*
X74943235Y-57615420D01*
X74943234Y-57615421D01*
X74820329Y-57778174D01*
X74820328Y-57778177D01*
X74729418Y-57960750D01*
X74729416Y-57960755D01*
X74673602Y-58156917D01*
X74673601Y-58156923D01*
X74654785Y-58359996D01*
X74654785Y-58360003D01*
X72405500Y-58360003D01*
X72405500Y-56886618D01*
X72407075Y-56871433D01*
X72410366Y-56855735D01*
X72410367Y-56855732D01*
X72405783Y-56818963D01*
X72405500Y-56814385D01*
X72405500Y-56808890D01*
X72405499Y-56808881D01*
X72401786Y-56786633D01*
X72401565Y-56785119D01*
X72400154Y-56773802D01*
X72394866Y-56731374D01*
X72394864Y-56731370D01*
X72393115Y-56725493D01*
X72393386Y-56725412D01*
X72392324Y-56722096D01*
X72392056Y-56722189D01*
X72390065Y-56716389D01*
X72364312Y-56668802D01*
X72363612Y-56667442D01*
X72339826Y-56618788D01*
X72336264Y-56613800D01*
X72336493Y-56613636D01*
X72334407Y-56610839D01*
X72334185Y-56611013D01*
X72330419Y-56606174D01*
X72290599Y-56569517D01*
X72289495Y-56568458D01*
X71541041Y-55820003D01*
X74654785Y-55820003D01*
X74673601Y-56023076D01*
X74673602Y-56023082D01*
X74727586Y-56212813D01*
X74729418Y-56219250D01*
X74820327Y-56401821D01*
X74820328Y-56401822D01*
X74820329Y-56401825D01*
X74943234Y-56564578D01*
X74943235Y-56564579D01*
X75023796Y-56638019D01*
X75093959Y-56701981D01*
X75267363Y-56809348D01*
X75457544Y-56883024D01*
X75658024Y-56920500D01*
X75658026Y-56920500D01*
X75861974Y-56920500D01*
X75861976Y-56920500D01*
X76062456Y-56883024D01*
X76252637Y-56809348D01*
X76426041Y-56701981D01*
X76576764Y-56564579D01*
X76602385Y-56530652D01*
X76699670Y-56401825D01*
X76699670Y-56401824D01*
X76699673Y-56401821D01*
X76790582Y-56219250D01*
X76846397Y-56023083D01*
X76857763Y-55900428D01*
X76865215Y-55820003D01*
X77194785Y-55820003D01*
X77213601Y-56023076D01*
X77213602Y-56023082D01*
X77267586Y-56212813D01*
X77269418Y-56219250D01*
X77360327Y-56401821D01*
X77360328Y-56401822D01*
X77360329Y-56401825D01*
X77483234Y-56564578D01*
X77483235Y-56564579D01*
X77563796Y-56638019D01*
X77633959Y-56701981D01*
X77807363Y-56809348D01*
X77997544Y-56883024D01*
X78198024Y-56920500D01*
X78198026Y-56920500D01*
X78401974Y-56920500D01*
X78401976Y-56920500D01*
X78602456Y-56883024D01*
X78792637Y-56809348D01*
X78966041Y-56701981D01*
X79116764Y-56564579D01*
X79142385Y-56530652D01*
X79239670Y-56401825D01*
X79239670Y-56401824D01*
X79239673Y-56401821D01*
X79330582Y-56219250D01*
X79386397Y-56023083D01*
X79397763Y-55900428D01*
X79405215Y-55820003D01*
X79405215Y-55819996D01*
X79386398Y-55616923D01*
X79386397Y-55616917D01*
X79370818Y-55562163D01*
X79330582Y-55420750D01*
X79239673Y-55238179D01*
X79239670Y-55238175D01*
X79239670Y-55238174D01*
X79116765Y-55075421D01*
X79116764Y-55075420D01*
X78966041Y-54938019D01*
X78938094Y-54920715D01*
X78792637Y-54830652D01*
X78602456Y-54756976D01*
X78514407Y-54740516D01*
X78401979Y-54719500D01*
X78401976Y-54719500D01*
X78198024Y-54719500D01*
X78198020Y-54719500D01*
X78048115Y-54747522D01*
X77997544Y-54756976D01*
X77997542Y-54756976D01*
X77997540Y-54756977D01*
X77807368Y-54830650D01*
X77807363Y-54830652D01*
X77807358Y-54830654D01*
X77807358Y-54830655D01*
X77633958Y-54938019D01*
X77633957Y-54938019D01*
X77483235Y-55075420D01*
X77483234Y-55075421D01*
X77360329Y-55238174D01*
X77360328Y-55238177D01*
X77269418Y-55420750D01*
X77269416Y-55420755D01*
X77213602Y-55616917D01*
X77213601Y-55616923D01*
X77194785Y-55819996D01*
X77194785Y-55820003D01*
X76865215Y-55820003D01*
X76865215Y-55819996D01*
X76846398Y-55616923D01*
X76846397Y-55616917D01*
X76830818Y-55562163D01*
X76790582Y-55420750D01*
X76699673Y-55238179D01*
X76699670Y-55238175D01*
X76699670Y-55238174D01*
X76576765Y-55075421D01*
X76576764Y-55075420D01*
X76426041Y-54938019D01*
X76398094Y-54920715D01*
X76252637Y-54830652D01*
X76062456Y-54756976D01*
X75974407Y-54740516D01*
X75861979Y-54719500D01*
X75861976Y-54719500D01*
X75658024Y-54719500D01*
X75658020Y-54719500D01*
X75508115Y-54747522D01*
X75457544Y-54756976D01*
X75457542Y-54756976D01*
X75457540Y-54756977D01*
X75267368Y-54830650D01*
X75267363Y-54830652D01*
X75267358Y-54830654D01*
X75267358Y-54830655D01*
X75093958Y-54938019D01*
X75093957Y-54938019D01*
X74943235Y-55075420D01*
X74943234Y-55075421D01*
X74820329Y-55238174D01*
X74820328Y-55238177D01*
X74729418Y-55420750D01*
X74729416Y-55420755D01*
X74673602Y-55616917D01*
X74673601Y-55616923D01*
X74654785Y-55819996D01*
X74654785Y-55820003D01*
X71541041Y-55820003D01*
X71308479Y-55587441D01*
X71298853Y-55575586D01*
X71290086Y-55562166D01*
X71290083Y-55562163D01*
X71260853Y-55539412D01*
X71257415Y-55536377D01*
X71253518Y-55532480D01*
X71244004Y-55525687D01*
X71235123Y-55519346D01*
X71233897Y-55518432D01*
X71219864Y-55507510D01*
X71191189Y-55485191D01*
X71191186Y-55485190D01*
X71191185Y-55485189D01*
X71185795Y-55482272D01*
X71185928Y-55482024D01*
X71182829Y-55480429D01*
X71182706Y-55480682D01*
X71177201Y-55477990D01*
X71125347Y-55462552D01*
X71123892Y-55462086D01*
X71072661Y-55444499D01*
X71066615Y-55443491D01*
X71066661Y-55443214D01*
X71063206Y-55442710D01*
X71063172Y-55442991D01*
X71057089Y-55442232D01*
X71057088Y-55442232D01*
X71057086Y-55442232D01*
X71003003Y-55444468D01*
X71001475Y-55444500D01*
X60386190Y-55444500D01*
X60338624Y-55427187D01*
X60333864Y-55422826D01*
X59017174Y-54106136D01*
X58995782Y-54060260D01*
X58995500Y-54053810D01*
X58995500Y-52315232D01*
X59012813Y-52267666D01*
X59056650Y-52242356D01*
X59062692Y-52241546D01*
X59178291Y-52230866D01*
X59178293Y-52230865D01*
X59178298Y-52230865D01*
X59410757Y-52169652D01*
X59629971Y-52071013D01*
X59751440Y-51990003D01*
X61864529Y-51990003D01*
X61884378Y-52229556D01*
X61884378Y-52229557D01*
X61899850Y-52290655D01*
X61931796Y-52416808D01*
X61943392Y-52462597D01*
X62039951Y-52682727D01*
X62039951Y-52682728D01*
X62171429Y-52883969D01*
X62296929Y-53020299D01*
X62327589Y-53053605D01*
X62334236Y-53060825D01*
X62523933Y-53208472D01*
X62735344Y-53322882D01*
X62962703Y-53400934D01*
X63199808Y-53440500D01*
X63445326Y-53440500D01*
X65799808Y-53440500D01*
X66040192Y-53440500D01*
X66277297Y-53400934D01*
X66504656Y-53322882D01*
X66583889Y-53280003D01*
X74654785Y-53280003D01*
X74673601Y-53483076D01*
X74673602Y-53483082D01*
X74715349Y-53629803D01*
X74729418Y-53679250D01*
X74820327Y-53861821D01*
X74820328Y-53861822D01*
X74820329Y-53861825D01*
X74943234Y-54024578D01*
X74943235Y-54024579D01*
X75032700Y-54106136D01*
X75093959Y-54161981D01*
X75267363Y-54269348D01*
X75457544Y-54343024D01*
X75658024Y-54380500D01*
X75658026Y-54380500D01*
X75861974Y-54380500D01*
X75861976Y-54380500D01*
X76062456Y-54343024D01*
X76252637Y-54269348D01*
X76426041Y-54161981D01*
X76576764Y-54024579D01*
X76699673Y-53861821D01*
X76790582Y-53679250D01*
X76846397Y-53483083D01*
X76851022Y-53433177D01*
X76865215Y-53280003D01*
X77194785Y-53280003D01*
X77213601Y-53483076D01*
X77213602Y-53483082D01*
X77255349Y-53629803D01*
X77269418Y-53679250D01*
X77360327Y-53861821D01*
X77360328Y-53861822D01*
X77360329Y-53861825D01*
X77483234Y-54024578D01*
X77483235Y-54024579D01*
X77572700Y-54106136D01*
X77633959Y-54161981D01*
X77807363Y-54269348D01*
X77997544Y-54343024D01*
X78198024Y-54380500D01*
X78198026Y-54380500D01*
X78401974Y-54380500D01*
X78401976Y-54380500D01*
X78602456Y-54343024D01*
X78792637Y-54269348D01*
X78966041Y-54161981D01*
X79116764Y-54024579D01*
X79239673Y-53861821D01*
X79330582Y-53679250D01*
X79386397Y-53483083D01*
X79391022Y-53433177D01*
X79405215Y-53280003D01*
X79405215Y-53279996D01*
X79386398Y-53076923D01*
X79386397Y-53076917D01*
X79373386Y-53031188D01*
X79330582Y-52880750D01*
X79239673Y-52698179D01*
X79239670Y-52698175D01*
X79239670Y-52698174D01*
X79116765Y-52535421D01*
X79116764Y-52535420D01*
X78966041Y-52398019D01*
X78966040Y-52398019D01*
X78792637Y-52290652D01*
X78650009Y-52235398D01*
X78602459Y-52216977D01*
X78602458Y-52216976D01*
X78602456Y-52216976D01*
X78514407Y-52200516D01*
X78401979Y-52179500D01*
X78401976Y-52179500D01*
X78198024Y-52179500D01*
X78198020Y-52179500D01*
X78048115Y-52207522D01*
X77997544Y-52216976D01*
X77997542Y-52216976D01*
X77997540Y-52216977D01*
X77866697Y-52267666D01*
X77807363Y-52290652D01*
X77807358Y-52290654D01*
X77807358Y-52290655D01*
X77633958Y-52398019D01*
X77633957Y-52398019D01*
X77483235Y-52535420D01*
X77483234Y-52535421D01*
X77360329Y-52698174D01*
X77360328Y-52698177D01*
X77269418Y-52880750D01*
X77269416Y-52880755D01*
X77213602Y-53076917D01*
X77213601Y-53076923D01*
X77194785Y-53279996D01*
X77194785Y-53280003D01*
X76865215Y-53280003D01*
X76865215Y-53279996D01*
X76846398Y-53076923D01*
X76846397Y-53076917D01*
X76833386Y-53031188D01*
X76790582Y-52880750D01*
X76699673Y-52698179D01*
X76699670Y-52698175D01*
X76699670Y-52698174D01*
X76576765Y-52535421D01*
X76576764Y-52535420D01*
X76426041Y-52398019D01*
X76252637Y-52290652D01*
X76110009Y-52235398D01*
X76062459Y-52216977D01*
X76062458Y-52216976D01*
X76062456Y-52216976D01*
X75974407Y-52200516D01*
X75861979Y-52179500D01*
X75861976Y-52179500D01*
X75658024Y-52179500D01*
X75658020Y-52179500D01*
X75508115Y-52207522D01*
X75457544Y-52216976D01*
X75457542Y-52216976D01*
X75457540Y-52216977D01*
X75326697Y-52267666D01*
X75267363Y-52290652D01*
X75267358Y-52290654D01*
X75267358Y-52290655D01*
X75093958Y-52398019D01*
X75093957Y-52398019D01*
X74943235Y-52535420D01*
X74943234Y-52535421D01*
X74820329Y-52698174D01*
X74820328Y-52698177D01*
X74729418Y-52880750D01*
X74729416Y-52880755D01*
X74673602Y-53076917D01*
X74673601Y-53076923D01*
X74654785Y-53279996D01*
X74654785Y-53280003D01*
X66583889Y-53280003D01*
X66716067Y-53208472D01*
X66905764Y-53060825D01*
X67068571Y-52883969D01*
X67200049Y-52682728D01*
X67296610Y-52462591D01*
X67355620Y-52229563D01*
X67355620Y-52229559D01*
X67355621Y-52229557D01*
X67355621Y-52229556D01*
X67375471Y-51990003D01*
X67375471Y-51989996D01*
X67355621Y-51750443D01*
X67355621Y-51750442D01*
X67355620Y-51750437D01*
X67296610Y-51517409D01*
X67203196Y-51304448D01*
X67199944Y-51253934D01*
X67218636Y-51222399D01*
X67292558Y-51148477D01*
X67304400Y-51138861D01*
X67317836Y-51130084D01*
X67340594Y-51100843D01*
X67343631Y-51097405D01*
X67347519Y-51093518D01*
X67360636Y-51075145D01*
X67361552Y-51073916D01*
X67371125Y-51061617D01*
X67394809Y-51031189D01*
X67394810Y-51031183D01*
X67397729Y-51025792D01*
X67397978Y-51025926D01*
X67399571Y-51022832D01*
X67399316Y-51022708D01*
X67402009Y-51017200D01*
X67402008Y-51017200D01*
X67402010Y-51017199D01*
X67417459Y-50965302D01*
X67417900Y-50963925D01*
X67435500Y-50912660D01*
X67435500Y-50912656D01*
X67436510Y-50906609D01*
X67436786Y-50906655D01*
X67437289Y-50903207D01*
X67437009Y-50903173D01*
X67437765Y-50897096D01*
X67437768Y-50897089D01*
X67435730Y-50847801D01*
X67435532Y-50843002D01*
X67435500Y-50841473D01*
X67435500Y-46928185D01*
X67452813Y-46880619D01*
X67496650Y-46855309D01*
X67546500Y-46864099D01*
X67564187Y-46878332D01*
X67657763Y-46980981D01*
X67657764Y-46980982D01*
X67835306Y-47115055D01*
X67835309Y-47115057D01*
X67835310Y-47115057D01*
X67835311Y-47115058D01*
X68034472Y-47214229D01*
X68248464Y-47275115D01*
X68414497Y-47290500D01*
X68414499Y-47290500D01*
X68825501Y-47290500D01*
X68825503Y-47290500D01*
X68991536Y-47275115D01*
X69205528Y-47214229D01*
X69404689Y-47115058D01*
X69582236Y-46980981D01*
X69732124Y-46816562D01*
X69849247Y-46627401D01*
X69929618Y-46419940D01*
X69970500Y-46201243D01*
X69970500Y-45978757D01*
X69929618Y-45760060D01*
X69849247Y-45552599D01*
X69732124Y-45363438D01*
X69582236Y-45199019D01*
X69550467Y-45175028D01*
X69404693Y-45064944D01*
X69404690Y-45064942D01*
X69283679Y-45004686D01*
X69205528Y-44965771D01*
X69205524Y-44965770D01*
X69205522Y-44965769D01*
X68991537Y-44904885D01*
X68991524Y-44904883D01*
X68825509Y-44889500D01*
X68825503Y-44889500D01*
X68414497Y-44889500D01*
X68414490Y-44889500D01*
X68248475Y-44904883D01*
X68248462Y-44904885D01*
X68034477Y-44965769D01*
X68034472Y-44965771D01*
X67835309Y-45064942D01*
X67835306Y-45064944D01*
X67657764Y-45199017D01*
X67657763Y-45199018D01*
X67564187Y-45301668D01*
X67519347Y-45325157D01*
X67469900Y-45314328D01*
X67438982Y-45274248D01*
X67435500Y-45251815D01*
X67435500Y-42514500D01*
X67452813Y-42466934D01*
X67496650Y-42441624D01*
X67509500Y-42440500D01*
X68440192Y-42440500D01*
X68677297Y-42400934D01*
X68904656Y-42322882D01*
X69116067Y-42208472D01*
X69305764Y-42060825D01*
X69468571Y-41883969D01*
X69600049Y-41682728D01*
X69696610Y-41462591D01*
X69755620Y-41229563D01*
X69755620Y-41229559D01*
X69755621Y-41229557D01*
X69755621Y-41229556D01*
X69775471Y-40990003D01*
X69775471Y-40989996D01*
X69755621Y-40750443D01*
X69755621Y-40750442D01*
X69755620Y-40750437D01*
X69696610Y-40517409D01*
X69600049Y-40297272D01*
X69468571Y-40096031D01*
X69305764Y-39919175D01*
X69116067Y-39771528D01*
X69027715Y-39723714D01*
X68904655Y-39657117D01*
X68677295Y-39579065D01*
X68440194Y-39539500D01*
X68440192Y-39539500D01*
X68314674Y-39539500D01*
X65980192Y-39539500D01*
X65739808Y-39539500D01*
X65739805Y-39539500D01*
X65502704Y-39579065D01*
X65275344Y-39657117D01*
X65063940Y-39771524D01*
X65063928Y-39771531D01*
X64874234Y-39919176D01*
X64711427Y-40096033D01*
X64579951Y-40297271D01*
X64483392Y-40517402D01*
X64424378Y-40750442D01*
X64424378Y-40750443D01*
X64404529Y-40989996D01*
X64404529Y-40990003D01*
X64424378Y-41229556D01*
X64424378Y-41229557D01*
X64483392Y-41462597D01*
X64518919Y-41543589D01*
X64579951Y-41682728D01*
X64711429Y-41883969D01*
X64874236Y-42060825D01*
X65063933Y-42208472D01*
X65275344Y-42322882D01*
X65502703Y-42400934D01*
X65739808Y-42440500D01*
X65865326Y-42440500D01*
X66610500Y-42440500D01*
X66658066Y-42457813D01*
X66683376Y-42501650D01*
X66684500Y-42514500D01*
X66684500Y-50630256D01*
X66667187Y-50677822D01*
X66623350Y-50703132D01*
X66575280Y-50695337D01*
X66504656Y-50657117D01*
X66277295Y-50579065D01*
X66040194Y-50539500D01*
X66040192Y-50539500D01*
X65799808Y-50539500D01*
X65794674Y-50539500D01*
X63445326Y-50539500D01*
X63440192Y-50539500D01*
X63199808Y-50539500D01*
X63199805Y-50539500D01*
X62962704Y-50579065D01*
X62735344Y-50657117D01*
X62523940Y-50771524D01*
X62523928Y-50771531D01*
X62334234Y-50919176D01*
X62171427Y-51096033D01*
X62039951Y-51297271D01*
X61943392Y-51517402D01*
X61884378Y-51750442D01*
X61884378Y-51750443D01*
X61864529Y-51989996D01*
X61864529Y-51990003D01*
X59751440Y-51990003D01*
X59829959Y-51937637D01*
X60005267Y-51773164D01*
X60151112Y-51582080D01*
X60263517Y-51369596D01*
X60339415Y-51141508D01*
X60376736Y-50904039D01*
X60376690Y-50899229D01*
X60376166Y-50843802D01*
X60374462Y-50663666D01*
X60332655Y-50426946D01*
X60252455Y-50200336D01*
X60165199Y-50042683D01*
X59880738Y-49616152D01*
X59868751Y-49566975D01*
X59872312Y-49551073D01*
X59885500Y-49512660D01*
X59885500Y-49512656D01*
X59886510Y-49506610D01*
X59886786Y-49506656D01*
X59887289Y-49503206D01*
X59887009Y-49503172D01*
X59887765Y-49497095D01*
X59887768Y-49497088D01*
X59886462Y-49465511D01*
X59885532Y-49443002D01*
X59885500Y-49441474D01*
X59885500Y-46006882D01*
X60515804Y-46006882D01*
X60525654Y-46339099D01*
X60525656Y-46339121D01*
X60574730Y-46667856D01*
X60574731Y-46667857D01*
X60662344Y-46988494D01*
X60787266Y-47296516D01*
X60787267Y-47296517D01*
X60947742Y-47587603D01*
X61141519Y-47857665D01*
X61365877Y-48102914D01*
X61617666Y-48319906D01*
X61822316Y-48457748D01*
X61893351Y-48505594D01*
X61893353Y-48505595D01*
X62189067Y-48657374D01*
X62500656Y-48773113D01*
X62823747Y-48851187D01*
X63153805Y-48890500D01*
X63153809Y-48890500D01*
X63403023Y-48890500D01*
X63651807Y-48875736D01*
X63978956Y-48816939D01*
X64296854Y-48719862D01*
X64601040Y-48585868D01*
X64887243Y-48416837D01*
X65151445Y-48215142D01*
X65389937Y-47983616D01*
X65599373Y-47725506D01*
X65776810Y-47444438D01*
X65919760Y-47144357D01*
X66026215Y-46829475D01*
X66094680Y-46504212D01*
X66124195Y-46173134D01*
X66124195Y-46173120D01*
X66124195Y-46173117D01*
X66114345Y-45840900D01*
X66114345Y-45840890D01*
X66065269Y-45512142D01*
X65996457Y-45260316D01*
X65977655Y-45191505D01*
X65852733Y-44883483D01*
X65789329Y-44768475D01*
X65692258Y-44592397D01*
X65498481Y-44322335D01*
X65274123Y-44077086D01*
X65022334Y-43860094D01*
X64878407Y-43763152D01*
X64746648Y-43674405D01*
X64590253Y-43594134D01*
X64450933Y-43522626D01*
X64139344Y-43406887D01*
X63816253Y-43328813D01*
X63486195Y-43289500D01*
X63236977Y-43289500D01*
X62988201Y-43304263D01*
X62988184Y-43304265D01*
X62661049Y-43363059D01*
X62343147Y-43460137D01*
X62038954Y-43594134D01*
X61752773Y-43763152D01*
X61752752Y-43763166D01*
X61488557Y-43964855D01*
X61488547Y-43964864D01*
X61250068Y-44196378D01*
X61250063Y-44196383D01*
X61250063Y-44196384D01*
X61049168Y-44443969D01*
X61040625Y-44454497D01*
X61040623Y-44454498D01*
X60863189Y-44735562D01*
X60863188Y-44735564D01*
X60720239Y-45035644D01*
X60613787Y-45350515D01*
X60613784Y-45350525D01*
X60545321Y-45675778D01*
X60545320Y-45675787D01*
X60545320Y-45675788D01*
X60530602Y-45840890D01*
X60515804Y-46006879D01*
X60515804Y-46006882D01*
X59885500Y-46006882D01*
X59885500Y-45007519D01*
X59902813Y-44959953D01*
X59935471Y-44937529D01*
X60094656Y-44882882D01*
X60306067Y-44768472D01*
X60495764Y-44620825D01*
X60658571Y-44443969D01*
X60790049Y-44242728D01*
X60886610Y-44022591D01*
X60945620Y-43789563D01*
X60945620Y-43789559D01*
X60945621Y-43789557D01*
X60945621Y-43789556D01*
X60965471Y-43550003D01*
X60965471Y-43549996D01*
X60945621Y-43310443D01*
X60945621Y-43310442D01*
X60944057Y-43304264D01*
X60886610Y-43077409D01*
X60790049Y-42857272D01*
X60658571Y-42656031D01*
X60495764Y-42479175D01*
X60306067Y-42331528D01*
X60217715Y-42283714D01*
X60094655Y-42217117D01*
X59867295Y-42139065D01*
X59630194Y-42099500D01*
X59630192Y-42099500D01*
X59389808Y-42099500D01*
X59389805Y-42099500D01*
X59152704Y-42139065D01*
X58925344Y-42217117D01*
X58713940Y-42331524D01*
X58713928Y-42331531D01*
X58524234Y-42479176D01*
X58361427Y-42656033D01*
X58229951Y-42857271D01*
X58133392Y-43077402D01*
X58074378Y-43310442D01*
X58074378Y-43310443D01*
X58054529Y-43549996D01*
X58054529Y-43550003D01*
X58074378Y-43789556D01*
X58074378Y-43789557D01*
X58103884Y-43906076D01*
X58118769Y-43964855D01*
X58133392Y-44022597D01*
X58172997Y-44112886D01*
X58229951Y-44242728D01*
X58361429Y-44443969D01*
X58524236Y-44620825D01*
X58713933Y-44768472D01*
X58925344Y-44882882D01*
X59084527Y-44937528D01*
X59123894Y-44969348D01*
X59134499Y-45007519D01*
X59134499Y-45175027D01*
X59117186Y-45222593D01*
X59073349Y-45247903D01*
X59023499Y-45239113D01*
X59005812Y-45224881D01*
X59003727Y-45222594D01*
X58982236Y-45199019D01*
X58950467Y-45175028D01*
X58804693Y-45064944D01*
X58804690Y-45064942D01*
X58683679Y-45004686D01*
X58605528Y-44965771D01*
X58605524Y-44965770D01*
X58605522Y-44965769D01*
X58391537Y-44904885D01*
X58391524Y-44904883D01*
X58225509Y-44889500D01*
X58225503Y-44889500D01*
X57814497Y-44889500D01*
X57814490Y-44889500D01*
X57648475Y-44904883D01*
X57648462Y-44904885D01*
X57434477Y-44965769D01*
X57434472Y-44965771D01*
X57235309Y-45064942D01*
X57235306Y-45064944D01*
X57057767Y-45199016D01*
X57057764Y-45199018D01*
X57057764Y-45199019D01*
X57021213Y-45239114D01*
X56907874Y-45363440D01*
X56790756Y-45552594D01*
X56790751Y-45552604D01*
X56710382Y-45760057D01*
X56669500Y-45978753D01*
X56669500Y-46201246D01*
X50920499Y-46201246D01*
X50920500Y-46201243D01*
X50920500Y-45978757D01*
X50879618Y-45760060D01*
X50799247Y-45552599D01*
X50682124Y-45363438D01*
X50532236Y-45199019D01*
X50500467Y-45175028D01*
X50354693Y-45064944D01*
X50354690Y-45064942D01*
X50233679Y-45004686D01*
X50155528Y-44965771D01*
X50155524Y-44965770D01*
X50155522Y-44965769D01*
X49941537Y-44904885D01*
X49941524Y-44904883D01*
X49775509Y-44889500D01*
X49775503Y-44889500D01*
X49364497Y-44889500D01*
X49364490Y-44889500D01*
X49198475Y-44904883D01*
X49198462Y-44904885D01*
X48984477Y-44965769D01*
X48984472Y-44965771D01*
X48785309Y-45064942D01*
X48785306Y-45064944D01*
X48607764Y-45199017D01*
X48607763Y-45199018D01*
X48514187Y-45301668D01*
X48469347Y-45325157D01*
X48419900Y-45314328D01*
X48388982Y-45274248D01*
X48385500Y-45251815D01*
X48385500Y-42514500D01*
X48402813Y-42466934D01*
X48446650Y-42441624D01*
X48459500Y-42440500D01*
X49390192Y-42440500D01*
X49627297Y-42400934D01*
X49854656Y-42322882D01*
X49915417Y-42290000D01*
X51469417Y-42290000D01*
X51473507Y-42331531D01*
X51489700Y-42495934D01*
X51549768Y-42693954D01*
X51647315Y-42876450D01*
X51778590Y-43036410D01*
X51938550Y-43167685D01*
X52110383Y-43259532D01*
X52144172Y-43297223D01*
X52149500Y-43324794D01*
X52149500Y-43668193D01*
X52132187Y-43715759D01*
X52088350Y-43741069D01*
X52083410Y-43741769D01*
X52047885Y-43745588D01*
X51919774Y-43793371D01*
X51810313Y-43875313D01*
X51728371Y-43984774D01*
X51680588Y-44112884D01*
X51680588Y-44112887D01*
X51674500Y-44169513D01*
X51674500Y-44710484D01*
X51674501Y-44710485D01*
X51680588Y-44767114D01*
X51728371Y-44895225D01*
X51748972Y-44922744D01*
X51810313Y-45004687D01*
X51919774Y-45086628D01*
X51919773Y-45086628D01*
X51967557Y-45104450D01*
X52047886Y-45134412D01*
X52104515Y-45140500D01*
X52945484Y-45140499D01*
X53002114Y-45134412D01*
X53130226Y-45086628D01*
X53239687Y-45004687D01*
X53321628Y-44895226D01*
X53369412Y-44767114D01*
X53375500Y-44710485D01*
X53375499Y-44169516D01*
X53369412Y-44112886D01*
X53321628Y-43984774D01*
X53239687Y-43875313D01*
X53130226Y-43793372D01*
X53130225Y-43793371D01*
X53130226Y-43793371D01*
X53002114Y-43745588D01*
X52966588Y-43741768D01*
X52921146Y-43719469D01*
X52900668Y-43673177D01*
X52900500Y-43668192D01*
X52900500Y-43324794D01*
X52917813Y-43277228D01*
X52939615Y-43259533D01*
X53111450Y-43167685D01*
X53271410Y-43036410D01*
X53402685Y-42876450D01*
X53500232Y-42693954D01*
X53560300Y-42495934D01*
X53580583Y-42290000D01*
X54009417Y-42290000D01*
X54013507Y-42331531D01*
X54029700Y-42495934D01*
X54089768Y-42693954D01*
X54187315Y-42876450D01*
X54318590Y-43036410D01*
X54478550Y-43167685D01*
X54650383Y-43259532D01*
X54684171Y-43297223D01*
X54689499Y-43324794D01*
X54689500Y-43668193D01*
X54672187Y-43715759D01*
X54628350Y-43741069D01*
X54623410Y-43741769D01*
X54587885Y-43745588D01*
X54459774Y-43793371D01*
X54350313Y-43875313D01*
X54268371Y-43984774D01*
X54220588Y-44112884D01*
X54220588Y-44112887D01*
X54214500Y-44169513D01*
X54214500Y-44710484D01*
X54214501Y-44710485D01*
X54220588Y-44767114D01*
X54268371Y-44895225D01*
X54288972Y-44922744D01*
X54350313Y-45004687D01*
X54459774Y-45086628D01*
X54459773Y-45086628D01*
X54507557Y-45104450D01*
X54587886Y-45134412D01*
X54644515Y-45140500D01*
X55485484Y-45140499D01*
X55542114Y-45134412D01*
X55670226Y-45086628D01*
X55779687Y-45004687D01*
X55861628Y-44895226D01*
X55909412Y-44767114D01*
X55915500Y-44710485D01*
X55915499Y-44169516D01*
X55909412Y-44112886D01*
X55861628Y-43984774D01*
X55779687Y-43875313D01*
X55670226Y-43793372D01*
X55670225Y-43793371D01*
X55670226Y-43793371D01*
X55542114Y-43745588D01*
X55506588Y-43741768D01*
X55461146Y-43719469D01*
X55440668Y-43673177D01*
X55440500Y-43668192D01*
X55440500Y-43522626D01*
X55440500Y-43324791D01*
X55457812Y-43277228D01*
X55479612Y-43259534D01*
X55651450Y-43167685D01*
X55811410Y-43036410D01*
X55942685Y-42876450D01*
X56040232Y-42693954D01*
X56100300Y-42495934D01*
X56120583Y-42290000D01*
X56100300Y-42084066D01*
X56040232Y-41886046D01*
X55942685Y-41703550D01*
X55811410Y-41543590D01*
X55651450Y-41412315D01*
X55468954Y-41314768D01*
X55357158Y-41280855D01*
X55270935Y-41254700D01*
X55065000Y-41234417D01*
X54859064Y-41254700D01*
X54661043Y-41314769D01*
X54478549Y-41412315D01*
X54318590Y-41543589D01*
X54318589Y-41543590D01*
X54187315Y-41703549D01*
X54089769Y-41886043D01*
X54029700Y-42084064D01*
X54009417Y-42290000D01*
X53580583Y-42290000D01*
X53560300Y-42084066D01*
X53500232Y-41886046D01*
X53402685Y-41703550D01*
X53271410Y-41543590D01*
X53111450Y-41412315D01*
X52928954Y-41314768D01*
X52817158Y-41280855D01*
X52730935Y-41254700D01*
X52525000Y-41234417D01*
X52319064Y-41254700D01*
X52121043Y-41314769D01*
X51938549Y-41412315D01*
X51778590Y-41543589D01*
X51778589Y-41543590D01*
X51647315Y-41703549D01*
X51549769Y-41886043D01*
X51489700Y-42084064D01*
X51469417Y-42290000D01*
X49915417Y-42290000D01*
X50066067Y-42208472D01*
X50255764Y-42060825D01*
X50418571Y-41883969D01*
X50550049Y-41682728D01*
X50646610Y-41462591D01*
X50705620Y-41229563D01*
X50705620Y-41229559D01*
X50705621Y-41229557D01*
X50705621Y-41229556D01*
X50725471Y-40990003D01*
X50725471Y-40989996D01*
X50705621Y-40750443D01*
X50705621Y-40750442D01*
X50705620Y-40750437D01*
X50646610Y-40517409D01*
X50550049Y-40297272D01*
X50418571Y-40096031D01*
X50255764Y-39919175D01*
X50066067Y-39771528D01*
X49977715Y-39723714D01*
X49854655Y-39657117D01*
X49627295Y-39579065D01*
X49390194Y-39539500D01*
X49390192Y-39539500D01*
X49264674Y-39539500D01*
X46930192Y-39539500D01*
X46689808Y-39539500D01*
X46689805Y-39539500D01*
X46452704Y-39579065D01*
X46225344Y-39657117D01*
X46013940Y-39771524D01*
X46013928Y-39771531D01*
X45824234Y-39919176D01*
X45661427Y-40096033D01*
X45529951Y-40297271D01*
X45433392Y-40517402D01*
X45374378Y-40750442D01*
X45374378Y-40750443D01*
X45354529Y-40989996D01*
X45354529Y-40990003D01*
X45374378Y-41229556D01*
X45374378Y-41229557D01*
X45433392Y-41462597D01*
X45468919Y-41543589D01*
X45529951Y-41682728D01*
X45661429Y-41883969D01*
X45824236Y-42060825D01*
X46013933Y-42208472D01*
X46225344Y-42322882D01*
X46452703Y-42400934D01*
X46689808Y-42440500D01*
X46815326Y-42440500D01*
X47560500Y-42440500D01*
X47608066Y-42457813D01*
X47633376Y-42501650D01*
X47634500Y-42514500D01*
X47634500Y-50630256D01*
X47617187Y-50677822D01*
X47573350Y-50703132D01*
X47525280Y-50695337D01*
X47454656Y-50657117D01*
X47227295Y-50579065D01*
X46990194Y-50539500D01*
X46990192Y-50539500D01*
X46749808Y-50539500D01*
X46744674Y-50539500D01*
X44395326Y-50539500D01*
X44390192Y-50539500D01*
X44149808Y-50539500D01*
X44149805Y-50539500D01*
X43912704Y-50579065D01*
X43685344Y-50657117D01*
X43473940Y-50771524D01*
X43473928Y-50771531D01*
X43284234Y-50919176D01*
X43121427Y-51096033D01*
X42989951Y-51297271D01*
X42893392Y-51517402D01*
X42834378Y-51750442D01*
X42834378Y-51750443D01*
X42814529Y-51989996D01*
X42814529Y-51990003D01*
X40701440Y-51990003D01*
X40779959Y-51937637D01*
X40955267Y-51773164D01*
X41101112Y-51582080D01*
X41213517Y-51369596D01*
X41289415Y-51141508D01*
X41326736Y-50904039D01*
X41326690Y-50899229D01*
X41326166Y-50843802D01*
X41324462Y-50663666D01*
X41282655Y-50426946D01*
X41202455Y-50200336D01*
X41115199Y-50042683D01*
X40830738Y-49616152D01*
X40818751Y-49566975D01*
X40822312Y-49551073D01*
X40835500Y-49512660D01*
X40835500Y-49512656D01*
X40836510Y-49506610D01*
X40836786Y-49506656D01*
X40837289Y-49503206D01*
X40837009Y-49503172D01*
X40837765Y-49497095D01*
X40837768Y-49497088D01*
X40836462Y-49465511D01*
X40835532Y-49443002D01*
X40835500Y-49441474D01*
X40835500Y-46006882D01*
X41465804Y-46006882D01*
X41475654Y-46339099D01*
X41475656Y-46339121D01*
X41524730Y-46667856D01*
X41524731Y-46667857D01*
X41612344Y-46988494D01*
X41737266Y-47296516D01*
X41737267Y-47296517D01*
X41897742Y-47587603D01*
X42091519Y-47857665D01*
X42315877Y-48102914D01*
X42567666Y-48319906D01*
X42772316Y-48457748D01*
X42843351Y-48505594D01*
X42843353Y-48505595D01*
X43139067Y-48657374D01*
X43450656Y-48773113D01*
X43773747Y-48851187D01*
X44103805Y-48890500D01*
X44103809Y-48890500D01*
X44353023Y-48890500D01*
X44601807Y-48875736D01*
X44928956Y-48816939D01*
X45246854Y-48719862D01*
X45551040Y-48585868D01*
X45837243Y-48416837D01*
X46101445Y-48215142D01*
X46339937Y-47983616D01*
X46549373Y-47725506D01*
X46726810Y-47444438D01*
X46869760Y-47144357D01*
X46976215Y-46829475D01*
X47044680Y-46504212D01*
X47074195Y-46173134D01*
X47074195Y-46173120D01*
X47074195Y-46173117D01*
X47064345Y-45840900D01*
X47064345Y-45840890D01*
X47015269Y-45512142D01*
X46946457Y-45260316D01*
X46927655Y-45191505D01*
X46802733Y-44883483D01*
X46739329Y-44768475D01*
X46642258Y-44592397D01*
X46448481Y-44322335D01*
X46224123Y-44077086D01*
X45972334Y-43860094D01*
X45828407Y-43763152D01*
X45696648Y-43674405D01*
X45540253Y-43594134D01*
X45400933Y-43522626D01*
X45089344Y-43406887D01*
X44766253Y-43328813D01*
X44436195Y-43289500D01*
X44186977Y-43289500D01*
X43938201Y-43304263D01*
X43938184Y-43304265D01*
X43611049Y-43363059D01*
X43293147Y-43460137D01*
X42988954Y-43594134D01*
X42702773Y-43763152D01*
X42702752Y-43763166D01*
X42438557Y-43964855D01*
X42438547Y-43964864D01*
X42200068Y-44196378D01*
X42200063Y-44196383D01*
X42200063Y-44196384D01*
X41999168Y-44443969D01*
X41990625Y-44454497D01*
X41990623Y-44454498D01*
X41813189Y-44735562D01*
X41813188Y-44735564D01*
X41670239Y-45035644D01*
X41563787Y-45350515D01*
X41563784Y-45350525D01*
X41495321Y-45675778D01*
X41495320Y-45675787D01*
X41495320Y-45675788D01*
X41480602Y-45840890D01*
X41465804Y-46006879D01*
X41465804Y-46006882D01*
X40835500Y-46006882D01*
X40835500Y-45007519D01*
X40852813Y-44959953D01*
X40885471Y-44937529D01*
X41044656Y-44882882D01*
X41256067Y-44768472D01*
X41445764Y-44620825D01*
X41608571Y-44443969D01*
X41740049Y-44242728D01*
X41836610Y-44022591D01*
X41895620Y-43789563D01*
X41895620Y-43789559D01*
X41895621Y-43789557D01*
X41895621Y-43789556D01*
X41915471Y-43550003D01*
X41915471Y-43549996D01*
X41895621Y-43310443D01*
X41895621Y-43310442D01*
X41894057Y-43304264D01*
X41836610Y-43077409D01*
X41740049Y-42857272D01*
X41608571Y-42656031D01*
X41445764Y-42479175D01*
X41256067Y-42331528D01*
X41167715Y-42283714D01*
X41044655Y-42217117D01*
X40817295Y-42139065D01*
X40580194Y-42099500D01*
X40580192Y-42099500D01*
X40339808Y-42099500D01*
X40339805Y-42099500D01*
X40102704Y-42139065D01*
X39875344Y-42217117D01*
X39663940Y-42331524D01*
X39663928Y-42331531D01*
X39474234Y-42479176D01*
X39311427Y-42656033D01*
X39179951Y-42857271D01*
X39083392Y-43077402D01*
X39024378Y-43310442D01*
X39024378Y-43310443D01*
X39004529Y-43549996D01*
X39004529Y-43550003D01*
X39024378Y-43789556D01*
X39024378Y-43789557D01*
X39053884Y-43906076D01*
X39068769Y-43964855D01*
X39083392Y-44022597D01*
X39122997Y-44112886D01*
X39179951Y-44242728D01*
X39311429Y-44443969D01*
X39474236Y-44620825D01*
X39663933Y-44768472D01*
X39875344Y-44882882D01*
X40034528Y-44937528D01*
X40073895Y-44969347D01*
X40084500Y-45007519D01*
X40084500Y-45175028D01*
X40067187Y-45222594D01*
X40023350Y-45247904D01*
X39973500Y-45239114D01*
X39955814Y-45224882D01*
X39932237Y-45199019D01*
X39932235Y-45199017D01*
X39754693Y-45064944D01*
X39754690Y-45064942D01*
X39633679Y-45004686D01*
X39555528Y-44965771D01*
X39555524Y-44965770D01*
X39555522Y-44965769D01*
X39341537Y-44904885D01*
X39341524Y-44904883D01*
X39175509Y-44889500D01*
X39175503Y-44889500D01*
X38764497Y-44889500D01*
X38764490Y-44889500D01*
X38598475Y-44904883D01*
X38598462Y-44904885D01*
X38384477Y-44965769D01*
X38384472Y-44965771D01*
X38185309Y-45064942D01*
X38185306Y-45064944D01*
X38007767Y-45199016D01*
X38007764Y-45199018D01*
X38007764Y-45199019D01*
X37971213Y-45239114D01*
X37857874Y-45363440D01*
X37740756Y-45552594D01*
X37740751Y-45552604D01*
X37660382Y-45760057D01*
X37619500Y-45978753D01*
X37619500Y-46201246D01*
X34845500Y-46201246D01*
X34845500Y-37067081D01*
X34845733Y-37062937D01*
X34846755Y-37053855D01*
X34848472Y-37038620D01*
X34859607Y-36954041D01*
X34863122Y-36939281D01*
X34877023Y-36899552D01*
X34877714Y-36897741D01*
X34902087Y-36838900D01*
X34907773Y-36827891D01*
X34932530Y-36788492D01*
X34934489Y-36785674D01*
X34973006Y-36735478D01*
X34976167Y-36731874D01*
X35011874Y-36696167D01*
X35015478Y-36693006D01*
X35065674Y-36654489D01*
X35068492Y-36652530D01*
X35107891Y-36627773D01*
X35118900Y-36622087D01*
X35177741Y-36597714D01*
X35179552Y-36597023D01*
X35219281Y-36583122D01*
X35234041Y-36579607D01*
X35318620Y-36568472D01*
X35332767Y-36566878D01*
X35342938Y-36565733D01*
X35347083Y-36565500D01*
X72342918Y-36565500D01*
X72347063Y-36565733D01*
G37*
G04 #@! TD.AperFunction*
G04 #@! TA.AperFunction,NonConductor*
G36*
X55788682Y-62184168D02*
G01*
X55813512Y-62228279D01*
X55814500Y-62240333D01*
X55814500Y-62803540D01*
X55797187Y-62851106D01*
X55753350Y-62876416D01*
X55703500Y-62867626D01*
X55696154Y-62862781D01*
X55670225Y-62843371D01*
X55542114Y-62795588D01*
X55506588Y-62791768D01*
X55461146Y-62769469D01*
X55440668Y-62723177D01*
X55440500Y-62718192D01*
X55440500Y-62558019D01*
X55440500Y-62374791D01*
X55457812Y-62327228D01*
X55479612Y-62309534D01*
X55651450Y-62217685D01*
X55693556Y-62183129D01*
X55741307Y-62166337D01*
X55788682Y-62184168D01*
G37*
G04 #@! TD.AperFunction*
G04 #@! TA.AperFunction,NonConductor*
G36*
X51886500Y-62176247D02*
G01*
X51896440Y-62183127D01*
X51938550Y-62217685D01*
X52110383Y-62309532D01*
X52144172Y-62347223D01*
X52149500Y-62374794D01*
X52149500Y-62718193D01*
X52132187Y-62765759D01*
X52088350Y-62791069D01*
X52083410Y-62791769D01*
X52047885Y-62795588D01*
X51919774Y-62843371D01*
X51893846Y-62862781D01*
X51845392Y-62877426D01*
X51798860Y-62857499D01*
X51776023Y-62812324D01*
X51775500Y-62803540D01*
X51775500Y-62240333D01*
X51792813Y-62192767D01*
X51836650Y-62167457D01*
X51886500Y-62176247D01*
G37*
G04 #@! TD.AperFunction*
G04 #@! TA.AperFunction,NonConductor*
G36*
X55791137Y-67422498D02*
G01*
X55813975Y-67467672D01*
X55814499Y-67476459D01*
X55814499Y-67628810D01*
X55797186Y-67676376D01*
X55792825Y-67681136D01*
X55645613Y-67828350D01*
X55606137Y-67867826D01*
X55560261Y-67889218D01*
X55553811Y-67889500D01*
X55514500Y-67889500D01*
X55466934Y-67872187D01*
X55441624Y-67828350D01*
X55440500Y-67815500D01*
X55440500Y-67561806D01*
X55457813Y-67514240D01*
X55501650Y-67488930D01*
X55506587Y-67488230D01*
X55542114Y-67484412D01*
X55670226Y-67436628D01*
X55696153Y-67417219D01*
X55744604Y-67402573D01*
X55791137Y-67422498D01*
G37*
G04 #@! TD.AperFunction*
G04 #@! TA.AperFunction,NonConductor*
G36*
X51886500Y-67412373D02*
G01*
X51893842Y-67417216D01*
X51919774Y-67436628D01*
X51919773Y-67436628D01*
X51967556Y-67454450D01*
X52047886Y-67484412D01*
X52083410Y-67488231D01*
X52128853Y-67510529D01*
X52149332Y-67556821D01*
X52149500Y-67561807D01*
X52149500Y-67815500D01*
X52132187Y-67863066D01*
X52088350Y-67888376D01*
X52075500Y-67889500D01*
X52036190Y-67889500D01*
X51988624Y-67872187D01*
X51983864Y-67867826D01*
X51797174Y-67681136D01*
X51775782Y-67635260D01*
X51775500Y-67628810D01*
X51775500Y-67476459D01*
X51792813Y-67428893D01*
X51836650Y-67403583D01*
X51886500Y-67412373D01*
G37*
G04 #@! TD.AperFunction*
G04 #@! TA.AperFunction,NonConductor*
G36*
X51886500Y-56271058D02*
G01*
X51918834Y-56309284D01*
X51970630Y-56448157D01*
X52107772Y-56699313D01*
X52131772Y-56731373D01*
X52279261Y-56928395D01*
X52481605Y-57130739D01*
X52653414Y-57259354D01*
X52710686Y-57302227D01*
X52961843Y-57439369D01*
X53229939Y-57539364D01*
X53229945Y-57539365D01*
X53229954Y-57539369D01*
X53509572Y-57600196D01*
X53723539Y-57615499D01*
X53723544Y-57615500D01*
X53723552Y-57615500D01*
X53866456Y-57615500D01*
X53866459Y-57615499D01*
X54080428Y-57600196D01*
X54360046Y-57539369D01*
X54360057Y-57539364D01*
X54360060Y-57539364D01*
X54628156Y-57439369D01*
X54628156Y-57439368D01*
X54628161Y-57439367D01*
X54879315Y-57302226D01*
X55108395Y-57130739D01*
X55310739Y-56928395D01*
X55482226Y-56699315D01*
X55619367Y-56448161D01*
X55619367Y-56448159D01*
X55619369Y-56448157D01*
X55671166Y-56309284D01*
X55704009Y-56270767D01*
X55753928Y-56262372D01*
X55797563Y-56288029D01*
X55814500Y-56335144D01*
X55814500Y-60439666D01*
X55797187Y-60487232D01*
X55753350Y-60512542D01*
X55703500Y-60503752D01*
X55693555Y-60496869D01*
X55651450Y-60462315D01*
X55468956Y-60364769D01*
X55468955Y-60364768D01*
X55468954Y-60364768D01*
X55315369Y-60318179D01*
X55270935Y-60304700D01*
X55065000Y-60284417D01*
X54859064Y-60304700D01*
X54661043Y-60364769D01*
X54478549Y-60462315D01*
X54318590Y-60593589D01*
X54318589Y-60593590D01*
X54187315Y-60753549D01*
X54089769Y-60936043D01*
X54029700Y-61134064D01*
X54009417Y-61340000D01*
X54013507Y-61381531D01*
X54029700Y-61545934D01*
X54078264Y-61706031D01*
X54089769Y-61743956D01*
X54187315Y-61926450D01*
X54262594Y-62018179D01*
X54318590Y-62086410D01*
X54478550Y-62217685D01*
X54650383Y-62309532D01*
X54684171Y-62347223D01*
X54689499Y-62374794D01*
X54689500Y-62718193D01*
X54672187Y-62765759D01*
X54628350Y-62791069D01*
X54623410Y-62791769D01*
X54587885Y-62795588D01*
X54459774Y-62843371D01*
X54350313Y-62925313D01*
X54268371Y-63034774D01*
X54220588Y-63162884D01*
X54220588Y-63162887D01*
X54214500Y-63219513D01*
X54214500Y-63760484D01*
X54214501Y-63760485D01*
X54220588Y-63817114D01*
X54268371Y-63945225D01*
X54288972Y-63972745D01*
X54350313Y-64054687D01*
X54459774Y-64136628D01*
X54459773Y-64136628D01*
X54497368Y-64150650D01*
X54587886Y-64184412D01*
X54644515Y-64190500D01*
X55485484Y-64190499D01*
X55542114Y-64184412D01*
X55670226Y-64136628D01*
X55696153Y-64117218D01*
X55744607Y-64102573D01*
X55791139Y-64122499D01*
X55813977Y-64167673D01*
X55814500Y-64176459D01*
X55814500Y-66103540D01*
X55797187Y-66151106D01*
X55753350Y-66176416D01*
X55703500Y-66167626D01*
X55696154Y-66162781D01*
X55670225Y-66143371D01*
X55542114Y-66095588D01*
X55485486Y-66089500D01*
X54644515Y-66089500D01*
X54644514Y-66089501D01*
X54587885Y-66095588D01*
X54459774Y-66143371D01*
X54350313Y-66225313D01*
X54268371Y-66334774D01*
X54220588Y-66462884D01*
X54220588Y-66462887D01*
X54214500Y-66519513D01*
X54214500Y-67060484D01*
X54214501Y-67060485D01*
X54220588Y-67117114D01*
X54268371Y-67245225D01*
X54268372Y-67245226D01*
X54350313Y-67354687D01*
X54459774Y-67436628D01*
X54459773Y-67436628D01*
X54507556Y-67454450D01*
X54587886Y-67484412D01*
X54623410Y-67488231D01*
X54668853Y-67510529D01*
X54689332Y-67556821D01*
X54689500Y-67561807D01*
X54689500Y-67815500D01*
X54672187Y-67863066D01*
X54628350Y-67888376D01*
X54615500Y-67889500D01*
X54240326Y-67889500D01*
X54191615Y-67899189D01*
X54167259Y-67904034D01*
X54084399Y-67959398D01*
X54084398Y-67959399D01*
X54029034Y-68042259D01*
X54027728Y-68048826D01*
X54014500Y-68115326D01*
X54014500Y-69764674D01*
X54025808Y-69821524D01*
X54029034Y-69837740D01*
X54064936Y-69891473D01*
X54084399Y-69920601D01*
X54167260Y-69975966D01*
X54240326Y-69990500D01*
X55553811Y-69990500D01*
X55601377Y-70007813D01*
X55606137Y-70012174D01*
X55792826Y-70198863D01*
X55814218Y-70244739D01*
X55814500Y-70251189D01*
X55814500Y-73944855D01*
X55797187Y-73992421D01*
X55753350Y-74017731D01*
X55703500Y-74008941D01*
X55671166Y-73970715D01*
X55619369Y-73831843D01*
X55592648Y-73782908D01*
X55527065Y-73662801D01*
X55482227Y-73580686D01*
X55395079Y-73464270D01*
X55310739Y-73351605D01*
X55108395Y-73149261D01*
X54933283Y-73018174D01*
X54879313Y-72977772D01*
X54628156Y-72840630D01*
X54360060Y-72740635D01*
X54360042Y-72740630D01*
X54080425Y-72679803D01*
X53866460Y-72664500D01*
X53866448Y-72664500D01*
X53723552Y-72664500D01*
X53723539Y-72664500D01*
X53509574Y-72679803D01*
X53229957Y-72740630D01*
X53229939Y-72740635D01*
X52961843Y-72840630D01*
X52710686Y-72977772D01*
X52481602Y-73149263D01*
X52279263Y-73351602D01*
X52107772Y-73580686D01*
X51970630Y-73831843D01*
X51918834Y-73970715D01*
X51885990Y-74009232D01*
X51836072Y-74017627D01*
X51792437Y-73991970D01*
X51775500Y-73944855D01*
X51775500Y-70251189D01*
X51792813Y-70203623D01*
X51797174Y-70198863D01*
X51983863Y-70012174D01*
X52029739Y-69990782D01*
X52036189Y-69990500D01*
X53349672Y-69990500D01*
X53349674Y-69990500D01*
X53422740Y-69975966D01*
X53505601Y-69920601D01*
X53560966Y-69837740D01*
X53575500Y-69764674D01*
X53575500Y-68115326D01*
X53560966Y-68042260D01*
X53505601Y-67959399D01*
X53501765Y-67956836D01*
X53422740Y-67904034D01*
X53408422Y-67901186D01*
X53349674Y-67889500D01*
X53349672Y-67889500D01*
X52974500Y-67889500D01*
X52926934Y-67872187D01*
X52901624Y-67828350D01*
X52900500Y-67815500D01*
X52900500Y-67561806D01*
X52917813Y-67514240D01*
X52961650Y-67488930D01*
X52966587Y-67488230D01*
X53002114Y-67484412D01*
X53130226Y-67436628D01*
X53239687Y-67354687D01*
X53321628Y-67245226D01*
X53369412Y-67117114D01*
X53375500Y-67060485D01*
X53375499Y-66519516D01*
X53369412Y-66462886D01*
X53321628Y-66334774D01*
X53239687Y-66225313D01*
X53149098Y-66157499D01*
X53130225Y-66143371D01*
X53130226Y-66143371D01*
X53002114Y-66095588D01*
X52945486Y-66089500D01*
X52104515Y-66089500D01*
X52104514Y-66089501D01*
X52047885Y-66095588D01*
X51919774Y-66143371D01*
X51893846Y-66162781D01*
X51845392Y-66177426D01*
X51798860Y-66157499D01*
X51776023Y-66112324D01*
X51775500Y-66103540D01*
X51775500Y-64176459D01*
X51792813Y-64128893D01*
X51836650Y-64103583D01*
X51886500Y-64112373D01*
X51893842Y-64117216D01*
X51919774Y-64136628D01*
X51919773Y-64136628D01*
X51957368Y-64150650D01*
X52047886Y-64184412D01*
X52104515Y-64190500D01*
X52945484Y-64190499D01*
X53002114Y-64184412D01*
X53130226Y-64136628D01*
X53239687Y-64054687D01*
X53321628Y-63945226D01*
X53369412Y-63817114D01*
X53375500Y-63760485D01*
X53375499Y-63219516D01*
X53369412Y-63162886D01*
X53321628Y-63034774D01*
X53239687Y-62925313D01*
X53149098Y-62857499D01*
X53130225Y-62843371D01*
X53130226Y-62843371D01*
X53002114Y-62795588D01*
X52966588Y-62791768D01*
X52921146Y-62769469D01*
X52900668Y-62723177D01*
X52900500Y-62718192D01*
X52900500Y-62374794D01*
X52917813Y-62327228D01*
X52939615Y-62309533D01*
X53111450Y-62217685D01*
X53271410Y-62086410D01*
X53402685Y-61926450D01*
X53500232Y-61743954D01*
X53560300Y-61545934D01*
X53580583Y-61340000D01*
X53560300Y-61134066D01*
X53500232Y-60936046D01*
X53402685Y-60753550D01*
X53271410Y-60593590D01*
X53158283Y-60500750D01*
X53111450Y-60462315D01*
X52928956Y-60364769D01*
X52928955Y-60364768D01*
X52928954Y-60364768D01*
X52775369Y-60318179D01*
X52730935Y-60304700D01*
X52627967Y-60294558D01*
X52525000Y-60284417D01*
X52524999Y-60284417D01*
X52319064Y-60304700D01*
X52121043Y-60364769D01*
X51938549Y-60462315D01*
X51896445Y-60496869D01*
X51848692Y-60513662D01*
X51801318Y-60495831D01*
X51776488Y-60451719D01*
X51775500Y-60439666D01*
X51775500Y-56335144D01*
X51792813Y-56287578D01*
X51836650Y-56262268D01*
X51886500Y-56271058D01*
G37*
G04 #@! TD.AperFunction*
G04 #@! TA.AperFunction,NonConductor*
G36*
X55788682Y-81234168D02*
G01*
X55813512Y-81278279D01*
X55814500Y-81290333D01*
X55814500Y-81853540D01*
X55797187Y-81901106D01*
X55753350Y-81926416D01*
X55703500Y-81917626D01*
X55696154Y-81912781D01*
X55670225Y-81893371D01*
X55542114Y-81845588D01*
X55506588Y-81841768D01*
X55461146Y-81819469D01*
X55440668Y-81773177D01*
X55440500Y-81768192D01*
X55440500Y-81622626D01*
X55440500Y-81424791D01*
X55457812Y-81377228D01*
X55479612Y-81359534D01*
X55651450Y-81267685D01*
X55693556Y-81233129D01*
X55741307Y-81216337D01*
X55788682Y-81234168D01*
G37*
G04 #@! TD.AperFunction*
G04 #@! TA.AperFunction,NonConductor*
G36*
X51886500Y-81226247D02*
G01*
X51896440Y-81233127D01*
X51938550Y-81267685D01*
X52110383Y-81359532D01*
X52144172Y-81397223D01*
X52149500Y-81424794D01*
X52149500Y-81768193D01*
X52132187Y-81815759D01*
X52088350Y-81841069D01*
X52083410Y-81841769D01*
X52047885Y-81845588D01*
X51919774Y-81893371D01*
X51893846Y-81912781D01*
X51845392Y-81927426D01*
X51798860Y-81907499D01*
X51776023Y-81862324D01*
X51775500Y-81853540D01*
X51775500Y-81290333D01*
X51792813Y-81242767D01*
X51836650Y-81217457D01*
X51886500Y-81226247D01*
G37*
G04 #@! TD.AperFunction*
G04 #@! TA.AperFunction,NonConductor*
G36*
X55791139Y-86472499D02*
G01*
X55813977Y-86517673D01*
X55814500Y-86526459D01*
X55814500Y-86678810D01*
X55797187Y-86726376D01*
X55792826Y-86731136D01*
X55606137Y-86917826D01*
X55560261Y-86939218D01*
X55553811Y-86939500D01*
X55514500Y-86939500D01*
X55466934Y-86922187D01*
X55441624Y-86878350D01*
X55440500Y-86865500D01*
X55440500Y-86611806D01*
X55457813Y-86564240D01*
X55501650Y-86538930D01*
X55506587Y-86538230D01*
X55542114Y-86534412D01*
X55670226Y-86486628D01*
X55696153Y-86467218D01*
X55744607Y-86452573D01*
X55791139Y-86472499D01*
G37*
G04 #@! TD.AperFunction*
G04 #@! TA.AperFunction,NonConductor*
G36*
X51886500Y-86462373D02*
G01*
X51893842Y-86467216D01*
X51919774Y-86486628D01*
X51919773Y-86486628D01*
X51967556Y-86504450D01*
X52047886Y-86534412D01*
X52083410Y-86538231D01*
X52128853Y-86560529D01*
X52149332Y-86606821D01*
X52149500Y-86611807D01*
X52149500Y-86865500D01*
X52132187Y-86913066D01*
X52088350Y-86938376D01*
X52075500Y-86939500D01*
X52036190Y-86939500D01*
X51988624Y-86922187D01*
X51983864Y-86917826D01*
X51797174Y-86731136D01*
X51775782Y-86685260D01*
X51775500Y-86678810D01*
X51775500Y-86526459D01*
X51792813Y-86478893D01*
X51836650Y-86453583D01*
X51886500Y-86462373D01*
G37*
G04 #@! TD.AperFunction*
G04 #@! TA.AperFunction,NonConductor*
G36*
X37866500Y-65881191D02*
G01*
X37884187Y-65895424D01*
X38007763Y-66030981D01*
X38007764Y-66030982D01*
X38185306Y-66165055D01*
X38185309Y-66165057D01*
X38185310Y-66165057D01*
X38185311Y-66165058D01*
X38384472Y-66264229D01*
X38598464Y-66325115D01*
X38764497Y-66340500D01*
X38764499Y-66340500D01*
X39175501Y-66340500D01*
X39175503Y-66340500D01*
X39341536Y-66325115D01*
X39555528Y-66264229D01*
X39754689Y-66165058D01*
X39764699Y-66157499D01*
X39932235Y-66030982D01*
X39932236Y-66030981D01*
X39940441Y-66021981D01*
X39955813Y-66005117D01*
X40000652Y-65981629D01*
X40050099Y-65992458D01*
X40081017Y-66032537D01*
X40084500Y-66054971D01*
X40084500Y-67599669D01*
X40067187Y-67647235D01*
X40023350Y-67672545D01*
X39973500Y-67663755D01*
X39970615Y-67662000D01*
X39945426Y-67645882D01*
X39945423Y-67645880D01*
X39945419Y-67645878D01*
X39945411Y-67645874D01*
X39724382Y-67551405D01*
X39490815Y-67494603D01*
X39490807Y-67494602D01*
X39251067Y-67477018D01*
X39251060Y-67477019D01*
X39011708Y-67499133D01*
X38779239Y-67560349D01*
X38589154Y-67645882D01*
X38560030Y-67658987D01*
X38384492Y-67776056D01*
X38360038Y-67792365D01*
X38360036Y-67792367D01*
X38184734Y-67956834D01*
X38184731Y-67956837D01*
X38038891Y-68147915D01*
X38038885Y-68147924D01*
X37926485Y-68360398D01*
X37926483Y-68360403D01*
X37926483Y-68360404D01*
X37906474Y-68420537D01*
X37899715Y-68440848D01*
X37868269Y-68480514D01*
X37818683Y-68490688D01*
X37774158Y-68466608D01*
X37755529Y-68419542D01*
X37755500Y-68417483D01*
X37755500Y-65945277D01*
X37772813Y-65897711D01*
X37816650Y-65872401D01*
X37866500Y-65881191D01*
G37*
G04 #@! TD.AperFunction*
G04 #@! TA.AperFunction,NonConductor*
G36*
X37866500Y-84931191D02*
G01*
X37884187Y-84945424D01*
X38007763Y-85080981D01*
X38007764Y-85080982D01*
X38185306Y-85215055D01*
X38185309Y-85215057D01*
X38185310Y-85215057D01*
X38185311Y-85215058D01*
X38384472Y-85314229D01*
X38598464Y-85375115D01*
X38764497Y-85390500D01*
X38764499Y-85390500D01*
X39175501Y-85390500D01*
X39175503Y-85390500D01*
X39341536Y-85375115D01*
X39555528Y-85314229D01*
X39754689Y-85215058D01*
X39764699Y-85207499D01*
X39932235Y-85080982D01*
X39932236Y-85080981D01*
X39955813Y-85055118D01*
X40000652Y-85031629D01*
X40050099Y-85042458D01*
X40081017Y-85082537D01*
X40084500Y-85104971D01*
X40084500Y-86649669D01*
X40067187Y-86697235D01*
X40023350Y-86722545D01*
X39973500Y-86713755D01*
X39970615Y-86712000D01*
X39945426Y-86695882D01*
X39945423Y-86695880D01*
X39945419Y-86695878D01*
X39945411Y-86695874D01*
X39724382Y-86601405D01*
X39490815Y-86544603D01*
X39490807Y-86544602D01*
X39251067Y-86527018D01*
X39251060Y-86527019D01*
X39011708Y-86549133D01*
X38779239Y-86610349D01*
X38589154Y-86695882D01*
X38560030Y-86708987D01*
X38487477Y-86757374D01*
X38360038Y-86842365D01*
X38360036Y-86842367D01*
X38184734Y-87006834D01*
X38184731Y-87006837D01*
X38038891Y-87197915D01*
X38038885Y-87197924D01*
X37926485Y-87410398D01*
X37926483Y-87410403D01*
X37926483Y-87410404D01*
X37906474Y-87470537D01*
X37899715Y-87490848D01*
X37868269Y-87530514D01*
X37818683Y-87540688D01*
X37774158Y-87516608D01*
X37755529Y-87469542D01*
X37755500Y-87467483D01*
X37755500Y-84995277D01*
X37772813Y-84947711D01*
X37816650Y-84922401D01*
X37866500Y-84931191D01*
G37*
G04 #@! TD.AperFunction*
M02*
