G04 #@! TF.GenerationSoftware,KiCad,Pcbnew,7.0.5*
G04 #@! TF.CreationDate,2023-08-16T13:58:43+08:00*
G04 #@! TF.ProjectId,LM,4c4d2e6b-6963-4616-945f-706362585858,rev?*
G04 #@! TF.SameCoordinates,Original*
G04 #@! TF.FileFunction,Legend,Bot*
G04 #@! TF.FilePolarity,Positive*
%FSLAX46Y46*%
G04 Gerber Fmt 4.6, Leading zero omitted, Abs format (unit mm)*
G04 Created by KiCad (PCBNEW 7.0.5) date 2023-08-16 13:58:43*
%MOMM*%
%LPD*%
G01*
G04 APERTURE LIST*
G04 Aperture macros list*
%AMRoundRect*
0 Rectangle with rounded corners*
0 $1 Rounding radius*
0 $2 $3 $4 $5 $6 $7 $8 $9 X,Y pos of 4 corners*
0 Add a 4 corners polygon primitive as box body*
4,1,4,$2,$3,$4,$5,$6,$7,$8,$9,$2,$3,0*
0 Add four circle primitives for the rounded corners*
1,1,$1+$1,$2,$3*
1,1,$1+$1,$4,$5*
1,1,$1+$1,$6,$7*
1,1,$1+$1,$8,$9*
0 Add four rect primitives between the rounded corners*
20,1,$1+$1,$2,$3,$4,$5,0*
20,1,$1+$1,$4,$5,$6,$7,0*
20,1,$1+$1,$6,$7,$8,$9,0*
20,1,$1+$1,$8,$9,$2,$3,0*%
%AMHorizOval*
0 Thick line with rounded ends*
0 $1 width*
0 $2 $3 position (X,Y) of the first rounded end (center of the circle)*
0 $4 $5 position (X,Y) of the second rounded end (center of the circle)*
0 Add line between two ends*
20,1,$1,$2,$3,$4,$5,0*
0 Add two circle primitives to create the rounded ends*
1,1,$1,$2,$3*
1,1,$1,$4,$5*%
%AMOutline4P*
0 Free polygon, 4 corners , with rotation*
0 The origin of the aperture is its center*
0 number of corners: always 4*
0 $1 to $8 corner X, Y*
0 $9 Rotation angle, in degrees counterclockwise*
0 create outline with 4 corners*
4,1,4,$1,$2,$3,$4,$5,$6,$7,$8,$1,$2,$9*%
G04 Aperture macros list end*
%ADD10C,0.150000*%
%ADD11C,0.120000*%
%ADD12C,0.100000*%
%ADD13O,2.200000X1.900000*%
%ADD14C,5.100000*%
%ADD15HorizOval,2.400000X-0.305164X0.457575X0.305164X-0.457575X0*%
%ADD16C,2.400000*%
%ADD17Outline4P,-1.150000X-1.200000X1.150000X-1.200000X1.150000X1.200000X-1.150000X1.200000X0.000000*%
%ADD18Outline4P,-1.200000X-1.200000X1.200000X-1.200000X1.200000X1.200000X-1.200000X1.200000X0.000000*%
%ADD19RoundRect,0.425000X-0.425000X0.425000X-0.425000X-0.425000X0.425000X-0.425000X0.425000X0.425000X0*%
%ADD20O,1.700000X1.700000*%
%ADD21C,3.500000*%
%ADD22C,1.700000*%
%ADD23RoundRect,0.425000X-0.425000X-0.425000X0.425000X-0.425000X0.425000X0.425000X-0.425000X0.425000X0*%
%ADD24R,1.600000X1.600000*%
%ADD25RoundRect,0.225000X0.375000X-0.225000X0.375000X0.225000X-0.375000X0.225000X-0.375000X-0.225000X0*%
%ADD26O,1.600000X1.600000*%
G04 APERTURE END LIST*
D10*
X71651904Y-38254819D02*
X72128094Y-38254819D01*
X72128094Y-38254819D02*
X72128094Y-37254819D01*
X71318570Y-38254819D02*
X71318570Y-37254819D01*
X71318570Y-37254819D02*
X70985237Y-37969104D01*
X70985237Y-37969104D02*
X70651904Y-37254819D01*
X70651904Y-37254819D02*
X70651904Y-38254819D01*
D11*
X52525000Y-67900000D02*
X52525000Y-67440000D01*
X51405000Y-67440000D02*
X51405000Y-62840000D01*
X53645000Y-67440000D02*
X51405000Y-67440000D01*
D12*
X52525000Y-65865600D02*
X52525000Y-65465600D01*
X52525000Y-65465600D02*
X51975000Y-65465600D01*
X52525000Y-65465600D02*
X53075000Y-65465600D01*
X52525000Y-65465600D02*
X52925000Y-64865600D01*
X52125000Y-64865600D02*
X52525000Y-65465600D01*
X52525000Y-64865600D02*
X52525000Y-64365600D01*
X52925000Y-64865600D02*
X52125000Y-64865600D01*
D11*
X51405000Y-62840000D02*
X53645000Y-62840000D01*
X53645000Y-62840000D02*
X53645000Y-67440000D01*
X52525000Y-62360000D02*
X52525000Y-62840000D01*
X55065000Y-86950000D02*
X55065000Y-86490000D01*
X53945000Y-86490000D02*
X53945000Y-81890000D01*
X56185000Y-86490000D02*
X53945000Y-86490000D01*
D12*
X55065000Y-84915600D02*
X55065000Y-84515600D01*
X55065000Y-84515600D02*
X54515000Y-84515600D01*
X55065000Y-84515600D02*
X55615000Y-84515600D01*
X55065000Y-84515600D02*
X55465000Y-83915600D01*
X54665000Y-83915600D02*
X55065000Y-84515600D01*
X55065000Y-83915600D02*
X55065000Y-83415600D01*
X55465000Y-83915600D02*
X54665000Y-83915600D01*
D11*
X53945000Y-81890000D02*
X56185000Y-81890000D01*
X56185000Y-81890000D02*
X56185000Y-86490000D01*
X55065000Y-81410000D02*
X55065000Y-81890000D01*
X52525000Y-86950000D02*
X52525000Y-86490000D01*
X51405000Y-86490000D02*
X51405000Y-81890000D01*
X53645000Y-86490000D02*
X51405000Y-86490000D01*
D12*
X52525000Y-84915600D02*
X52525000Y-84515600D01*
X52525000Y-84515600D02*
X51975000Y-84515600D01*
X52525000Y-84515600D02*
X53075000Y-84515600D01*
X52525000Y-84515600D02*
X52925000Y-83915600D01*
X52125000Y-83915600D02*
X52525000Y-84515600D01*
X52525000Y-83915600D02*
X52525000Y-83415600D01*
X52925000Y-83915600D02*
X52125000Y-83915600D01*
D11*
X51405000Y-81890000D02*
X53645000Y-81890000D01*
X53645000Y-81890000D02*
X53645000Y-86490000D01*
X52525000Y-81410000D02*
X52525000Y-81890000D01*
X52525000Y-48850000D02*
X52525000Y-48390000D01*
X51405000Y-48390000D02*
X51405000Y-43790000D01*
X53645000Y-48390000D02*
X51405000Y-48390000D01*
D12*
X52525000Y-46815600D02*
X52525000Y-46415600D01*
X52525000Y-46415600D02*
X51975000Y-46415600D01*
X52525000Y-46415600D02*
X53075000Y-46415600D01*
X52525000Y-46415600D02*
X52925000Y-45815600D01*
X52125000Y-45815600D02*
X52525000Y-46415600D01*
X52525000Y-45815600D02*
X52525000Y-45315600D01*
X52925000Y-45815600D02*
X52125000Y-45815600D01*
D11*
X51405000Y-43790000D02*
X53645000Y-43790000D01*
X53645000Y-43790000D02*
X53645000Y-48390000D01*
X52525000Y-43310000D02*
X52525000Y-43790000D01*
X55065000Y-67900000D02*
X55065000Y-67440000D01*
X53945000Y-67440000D02*
X53945000Y-62840000D01*
X56185000Y-67440000D02*
X53945000Y-67440000D01*
D12*
X55065000Y-65865600D02*
X55065000Y-65465600D01*
X55065000Y-65465600D02*
X54515000Y-65465600D01*
X55065000Y-65465600D02*
X55615000Y-65465600D01*
X55065000Y-65465600D02*
X55465000Y-64865600D01*
X54665000Y-64865600D02*
X55065000Y-65465600D01*
X55065000Y-64865600D02*
X55065000Y-64365600D01*
X55465000Y-64865600D02*
X54665000Y-64865600D01*
D11*
X53945000Y-62840000D02*
X56185000Y-62840000D01*
X56185000Y-62840000D02*
X56185000Y-67440000D01*
X55065000Y-62360000D02*
X55065000Y-62840000D01*
X55065000Y-48850000D02*
X55065000Y-48390000D01*
X53945000Y-48390000D02*
X53945000Y-43790000D01*
X56185000Y-48390000D02*
X53945000Y-48390000D01*
D12*
X55065000Y-46815600D02*
X55065000Y-46415600D01*
X55065000Y-46415600D02*
X54515000Y-46415600D01*
X55065000Y-46415600D02*
X55615000Y-46415600D01*
X55065000Y-46415600D02*
X55465000Y-45815600D01*
X54665000Y-45815600D02*
X55065000Y-46415600D01*
X55065000Y-45815600D02*
X55065000Y-45315600D01*
X55465000Y-45815600D02*
X54665000Y-45815600D01*
D11*
X53945000Y-43790000D02*
X56185000Y-43790000D01*
X56185000Y-43790000D02*
X56185000Y-48390000D01*
X55065000Y-43310000D02*
X55065000Y-43790000D01*
%LPC*%
D13*
X58020000Y-46090000D03*
D14*
X63320000Y-46090000D03*
D13*
X68620000Y-46090000D03*
D15*
X58620000Y-50340000D03*
D16*
X59510000Y-43550000D03*
X63320000Y-51990000D03*
D17*
X64620000Y-51990000D03*
D16*
X65860000Y-40990000D03*
X65920000Y-51990000D03*
D18*
X67090000Y-40990000D03*
D16*
X68320000Y-40990000D03*
D13*
X38970000Y-46090000D03*
D14*
X44270000Y-46090000D03*
D13*
X49570000Y-46090000D03*
D15*
X39570000Y-50340000D03*
D16*
X40460000Y-43550000D03*
X44270000Y-51990000D03*
D17*
X45570000Y-51990000D03*
D16*
X46810000Y-40990000D03*
X46870000Y-51990000D03*
D18*
X48040000Y-40990000D03*
D16*
X49270000Y-40990000D03*
D19*
X57610000Y-92370000D03*
D20*
X55070000Y-92370000D03*
X52530000Y-92370000D03*
X49990000Y-92370000D03*
D21*
X53795000Y-74665000D03*
D22*
X75760000Y-53280000D03*
D20*
X75760000Y-55820000D03*
X75760000Y-58360000D03*
X75760000Y-60900000D03*
X75760000Y-63440000D03*
X75760000Y-65980000D03*
X75760000Y-68520000D03*
X75760000Y-71060000D03*
X75760000Y-73600000D03*
X78300000Y-53280000D03*
X78300000Y-55820000D03*
X78300000Y-58360000D03*
X78300000Y-60900000D03*
X78300000Y-63440000D03*
X78300000Y-65980000D03*
X78300000Y-68520000D03*
X78300000Y-71060000D03*
X78300000Y-73600000D03*
D21*
X53795000Y-55615000D03*
D22*
X36110000Y-57520000D03*
D20*
X36110000Y-60060000D03*
X36110000Y-62600000D03*
X36110000Y-65140000D03*
D23*
X36110000Y-67680000D03*
X36110000Y-70220000D03*
X36110000Y-72760000D03*
D13*
X38970000Y-84190000D03*
D14*
X44270000Y-84190000D03*
D13*
X49570000Y-84190000D03*
D15*
X39570000Y-88440000D03*
D16*
X40460000Y-81650000D03*
X44270000Y-90090000D03*
D17*
X45570000Y-90090000D03*
D16*
X46810000Y-79090000D03*
X46870000Y-90090000D03*
D18*
X48040000Y-79090000D03*
D16*
X49270000Y-79090000D03*
D13*
X58020000Y-65140000D03*
D14*
X63320000Y-65140000D03*
D13*
X68620000Y-65140000D03*
D15*
X58620000Y-69390000D03*
D16*
X59510000Y-62600000D03*
X63320000Y-71040000D03*
D17*
X64620000Y-71040000D03*
D16*
X65860000Y-60040000D03*
X65920000Y-71040000D03*
D18*
X67090000Y-60040000D03*
D16*
X68320000Y-60040000D03*
D13*
X58020000Y-84190000D03*
D14*
X63320000Y-84190000D03*
D13*
X68620000Y-84190000D03*
D15*
X58620000Y-88440000D03*
D16*
X59510000Y-81650000D03*
X63320000Y-90090000D03*
D17*
X64620000Y-90090000D03*
D16*
X65860000Y-79090000D03*
X65920000Y-90090000D03*
D18*
X67090000Y-79090000D03*
D16*
X68320000Y-79090000D03*
D13*
X38970000Y-65140000D03*
D14*
X44270000Y-65140000D03*
D13*
X49570000Y-65140000D03*
D15*
X39570000Y-69390000D03*
D16*
X40460000Y-62600000D03*
X44270000Y-71040000D03*
D17*
X45570000Y-71040000D03*
D16*
X46810000Y-60040000D03*
X46870000Y-71040000D03*
D18*
X48040000Y-60040000D03*
D16*
X49270000Y-60040000D03*
D24*
X52525000Y-68940000D03*
D25*
X52525000Y-66790000D03*
X52525000Y-63490000D03*
D26*
X52525000Y-61340000D03*
D24*
X55065000Y-87990000D03*
D25*
X55065000Y-85840000D03*
X55065000Y-82540000D03*
D26*
X55065000Y-80390000D03*
D24*
X52525000Y-87990000D03*
D25*
X52525000Y-85840000D03*
X52525000Y-82540000D03*
D26*
X52525000Y-80390000D03*
D24*
X52525000Y-49890000D03*
D25*
X52525000Y-47740000D03*
X52525000Y-44440000D03*
D26*
X52525000Y-42290000D03*
D24*
X55065000Y-68940000D03*
D25*
X55065000Y-66790000D03*
X55065000Y-63490000D03*
D26*
X55065000Y-61340000D03*
D24*
X55065000Y-49890000D03*
D25*
X55065000Y-47740000D03*
X55065000Y-44440000D03*
D26*
X55065000Y-42290000D03*
%LPD*%
M02*
