G04 #@! TF.GenerationSoftware,KiCad,Pcbnew,7.0.5*
G04 #@! TF.CreationDate,2023-07-24T08:30:01+08:00*
G04 #@! TF.ProjectId,LM,4c4d2e6b-6963-4616-945f-706362585858,rev?*
G04 #@! TF.SameCoordinates,Original*
G04 #@! TF.FileFunction,Copper,L1,Top*
G04 #@! TF.FilePolarity,Positive*
%FSLAX46Y46*%
G04 Gerber Fmt 4.6, Leading zero omitted, Abs format (unit mm)*
G04 Created by KiCad (PCBNEW 7.0.5) date 2023-07-24 08:30:01*
%MOMM*%
%LPD*%
G01*
G04 APERTURE LIST*
G04 Aperture macros list*
%AMRoundRect*
0 Rectangle with rounded corners*
0 $1 Rounding radius*
0 $2 $3 $4 $5 $6 $7 $8 $9 X,Y pos of 4 corners*
0 Add a 4 corners polygon primitive as box body*
4,1,4,$2,$3,$4,$5,$6,$7,$8,$9,$2,$3,0*
0 Add four circle primitives for the rounded corners*
1,1,$1+$1,$2,$3*
1,1,$1+$1,$4,$5*
1,1,$1+$1,$6,$7*
1,1,$1+$1,$8,$9*
0 Add four rect primitives between the rounded corners*
20,1,$1+$1,$2,$3,$4,$5,0*
20,1,$1+$1,$4,$5,$6,$7,0*
20,1,$1+$1,$6,$7,$8,$9,0*
20,1,$1+$1,$8,$9,$2,$3,0*%
%AMHorizOval*
0 Thick line with rounded ends*
0 $1 width*
0 $2 $3 position (X,Y) of the first rounded end (center of the circle)*
0 $4 $5 position (X,Y) of the second rounded end (center of the circle)*
0 Add line between two ends*
20,1,$1,$2,$3,$4,$5,0*
0 Add two circle primitives to create the rounded ends*
1,1,$1,$2,$3*
1,1,$1,$4,$5*%
%AMOutline4P*
0 Free polygon, 4 corners , with rotation*
0 The origin of the aperture is its center*
0 number of corners: always 4*
0 $1 to $8 corner X, Y*
0 $9 Rotation angle, in degrees counterclockwise*
0 create outline with 4 corners*
4,1,4,$1,$2,$3,$4,$5,$6,$7,$8,$1,$2,$9*%
G04 Aperture macros list end*
G04 #@! TA.AperFunction,ComponentPad*
%ADD10HorizOval,2.400000X-0.305164X0.457575X0.305164X-0.457575X0*%
G04 #@! TD*
G04 #@! TA.AperFunction,ComponentPad*
%ADD11C,2.400000*%
G04 #@! TD*
G04 #@! TA.AperFunction,SMDPad,CuDef*
%ADD12Outline4P,-1.300000X-1.200000X1.300000X-1.200000X1.300000X1.200000X-1.300000X1.200000X0.000000*%
G04 #@! TD*
G04 #@! TA.AperFunction,SMDPad,CuDef*
%ADD13Outline4P,-1.200000X-1.200000X1.200000X-1.200000X1.200000X1.200000X-1.200000X1.200000X0.000000*%
G04 #@! TD*
G04 #@! TA.AperFunction,ComponentPad*
%ADD14RoundRect,0.425000X-0.425000X0.425000X-0.425000X-0.425000X0.425000X-0.425000X0.425000X0.425000X0*%
G04 #@! TD*
G04 #@! TA.AperFunction,ComponentPad*
%ADD15O,1.700000X1.700000*%
G04 #@! TD*
G04 #@! TA.AperFunction,ComponentPad*
%ADD16C,1.700000*%
G04 #@! TD*
G04 #@! TA.AperFunction,ComponentPad*
%ADD17RoundRect,0.425000X-0.425000X-0.425000X0.425000X-0.425000X0.425000X0.425000X-0.425000X0.425000X0*%
G04 #@! TD*
G04 #@! TA.AperFunction,ViaPad*
%ADD18C,0.800000*%
G04 #@! TD*
G04 #@! TA.AperFunction,Conductor*
%ADD19C,0.250000*%
G04 #@! TD*
G04 APERTURE END LIST*
D10*
X58620000Y-50340000D03*
D11*
X59510000Y-43550000D03*
X63320000Y-51990000D03*
D12*
X64620000Y-51990000D03*
D11*
X65860000Y-40990000D03*
X65920000Y-51990000D03*
D13*
X67090000Y-40990000D03*
D11*
X68320000Y-40990000D03*
D10*
X39570000Y-50340000D03*
D11*
X40460000Y-43550000D03*
X44270000Y-51990000D03*
D12*
X45570000Y-51990000D03*
D11*
X46810000Y-40990000D03*
X46870000Y-51990000D03*
D13*
X48040000Y-40990000D03*
D11*
X49270000Y-40990000D03*
D14*
X57610000Y-92370000D03*
D15*
X55070000Y-92370000D03*
X52530000Y-92370000D03*
X49990000Y-92370000D03*
D16*
X75760000Y-53280000D03*
D15*
X75760000Y-55820000D03*
X75760000Y-58360000D03*
X75760000Y-60900000D03*
X75760000Y-63440000D03*
X75760000Y-65980000D03*
X75760000Y-68520000D03*
X75760000Y-71060000D03*
X75760000Y-73600000D03*
X78300000Y-53280000D03*
X78300000Y-55820000D03*
X78300000Y-58360000D03*
X78300000Y-60900000D03*
X78300000Y-63440000D03*
X78300000Y-65980000D03*
X78300000Y-68520000D03*
X78300000Y-71060000D03*
X78300000Y-73600000D03*
D16*
X36110000Y-57520000D03*
D15*
X36110000Y-60060000D03*
X36110000Y-62600000D03*
X36110000Y-65140000D03*
D17*
X36110000Y-67680000D03*
X36110000Y-70220000D03*
X36110000Y-72760000D03*
D10*
X39570000Y-88440000D03*
D11*
X40460000Y-81650000D03*
X44270000Y-90090000D03*
D12*
X45570000Y-90090000D03*
D11*
X46810000Y-79090000D03*
X46870000Y-90090000D03*
D13*
X48040000Y-79090000D03*
D11*
X49270000Y-79090000D03*
D10*
X58620000Y-69390000D03*
D11*
X59510000Y-62600000D03*
X63320000Y-71040000D03*
D12*
X64620000Y-71040000D03*
D11*
X65860000Y-60040000D03*
X65920000Y-71040000D03*
D13*
X67090000Y-60040000D03*
D11*
X68320000Y-60040000D03*
D10*
X58620000Y-88440000D03*
D11*
X59510000Y-81650000D03*
X63320000Y-90090000D03*
D12*
X64620000Y-90090000D03*
D11*
X65860000Y-79090000D03*
X65920000Y-90090000D03*
D13*
X67090000Y-79090000D03*
D11*
X68320000Y-79090000D03*
D10*
X39570000Y-69390000D03*
D11*
X40460000Y-62600000D03*
X44270000Y-71040000D03*
D12*
X45570000Y-71040000D03*
D11*
X46810000Y-60040000D03*
X46870000Y-71040000D03*
D13*
X48040000Y-60040000D03*
D11*
X49270000Y-60040000D03*
D18*
X70835500Y-62180000D03*
X68930000Y-57505500D03*
X71270000Y-56420000D03*
X62600000Y-61710000D03*
X73210000Y-60920000D03*
X51222701Y-53732701D03*
X50010000Y-87715500D03*
X64280000Y-55695500D03*
X59510000Y-56781000D03*
X56453200Y-56781000D03*
X52520000Y-62930000D03*
X51130000Y-75940000D03*
D19*
X52650000Y-58000000D02*
X54930000Y-58000000D01*
X77040000Y-62180000D02*
X78300000Y-63440000D01*
X55424500Y-57505500D02*
X68930000Y-57505500D01*
X38664500Y-57505500D02*
X52155500Y-57505500D01*
X70835500Y-62180000D02*
X77040000Y-62180000D01*
X36110000Y-60060000D02*
X38664500Y-57505500D01*
X54930000Y-58000000D02*
X55424500Y-57505500D01*
X52155500Y-57505500D02*
X52650000Y-58000000D01*
X49310000Y-56670000D02*
X36960000Y-56670000D01*
X63870000Y-56420000D02*
X60750000Y-53300000D01*
X60750000Y-53300000D02*
X52680000Y-53300000D01*
X36960000Y-56670000D02*
X36110000Y-57520000D01*
X52680000Y-53300000D02*
X49310000Y-56670000D01*
X71270000Y-56420000D02*
X63870000Y-56420000D01*
X70000000Y-61710000D02*
X70790000Y-60920000D01*
X70790000Y-60920000D02*
X73210000Y-60920000D01*
X62600000Y-61710000D02*
X70000000Y-61710000D01*
X51222701Y-53732701D02*
X52315402Y-52640000D01*
X77040000Y-54540000D02*
X78300000Y-53280000D01*
X52315402Y-52640000D02*
X60920000Y-52640000D01*
X60920000Y-52640000D02*
X62820000Y-54540000D01*
X62820000Y-54540000D02*
X77040000Y-54540000D01*
X51130000Y-86595500D02*
X50010000Y-87715500D01*
X73585000Y-55695000D02*
X64280500Y-55695000D01*
X46135000Y-61630000D02*
X44135000Y-59630000D01*
X36540000Y-62600000D02*
X36110000Y-62600000D01*
X77040000Y-57080000D02*
X74970000Y-57080000D01*
X51220000Y-61630000D02*
X46135000Y-61630000D01*
X44135000Y-59630000D02*
X39510000Y-59630000D01*
X51130000Y-75940000D02*
X51130000Y-86595500D01*
X56453200Y-56781000D02*
X59510000Y-56781000D01*
X39510000Y-59630000D02*
X36540000Y-62600000D01*
X74970000Y-57080000D02*
X73585000Y-55695000D01*
X78300000Y-55820000D02*
X77040000Y-57080000D01*
X64280500Y-55695000D02*
X64280000Y-55695500D01*
X52520000Y-62930000D02*
X51220000Y-61630000D01*
X77030000Y-59630000D02*
X78300000Y-58360000D01*
X54450000Y-63740000D02*
X59960000Y-58230000D01*
X39710000Y-60080000D02*
X43948604Y-60080000D01*
X52280000Y-63740000D02*
X54450000Y-63740000D01*
X73090000Y-58230000D02*
X74490000Y-59630000D01*
X43948604Y-60080000D02*
X45978604Y-62110000D01*
X45978604Y-62110000D02*
X50650000Y-62110000D01*
X37500000Y-63750000D02*
X37500000Y-62290000D01*
X37500000Y-62290000D02*
X39710000Y-60080000D01*
X74490000Y-59630000D02*
X77030000Y-59630000D01*
X36110000Y-65140000D02*
X37500000Y-63750000D01*
X59960000Y-58230000D02*
X73090000Y-58230000D01*
X50650000Y-62110000D02*
X52280000Y-63740000D01*
X77125000Y-67155000D02*
X78300000Y-65980000D01*
X40403213Y-67313213D02*
X41940000Y-68850000D01*
X40460000Y-49450000D02*
X39570000Y-50340000D01*
X59493213Y-67313213D02*
X61120000Y-68940000D01*
X41940000Y-68850000D02*
X55040000Y-68850000D01*
X36476787Y-67313213D02*
X40403213Y-67313213D01*
X55040000Y-68850000D02*
X56576787Y-67313213D01*
X40460000Y-43550000D02*
X40460000Y-49450000D01*
X73015000Y-67155000D02*
X77125000Y-67155000D01*
X71230000Y-68940000D02*
X73015000Y-67155000D01*
X36110000Y-67680000D02*
X36476787Y-67313213D01*
X59510000Y-43550000D02*
X59510000Y-49450000D01*
X39570000Y-50340000D02*
X58620000Y-50340000D01*
X56576787Y-67313213D02*
X59493213Y-67313213D01*
X59510000Y-49450000D02*
X58620000Y-50340000D01*
X61120000Y-68940000D02*
X71230000Y-68940000D01*
X77030000Y-69790000D02*
X78300000Y-68520000D01*
X58620000Y-69390000D02*
X71210000Y-69390000D01*
X71210000Y-69390000D02*
X71610000Y-69790000D01*
X36110000Y-70220000D02*
X36940000Y-69390000D01*
X39570000Y-69390000D02*
X58620000Y-69390000D01*
X36940000Y-69390000D02*
X39570000Y-69390000D01*
X71610000Y-69790000D02*
X77030000Y-69790000D01*
X77040000Y-72320000D02*
X78300000Y-71060000D01*
X73450000Y-72320000D02*
X77040000Y-72320000D01*
X71570000Y-74200000D02*
X73450000Y-72320000D01*
X59510000Y-87550000D02*
X59510000Y-81650000D01*
X58620000Y-88440000D02*
X69500000Y-88440000D01*
X40460000Y-87550000D02*
X39570000Y-88440000D01*
X40460000Y-81650000D02*
X40460000Y-87550000D01*
X39570000Y-88440000D02*
X58620000Y-88440000D01*
X69500000Y-88440000D02*
X71570000Y-86370000D01*
X36110000Y-72760000D02*
X36110000Y-84980000D01*
X71570000Y-86370000D02*
X71570000Y-74200000D01*
X58620000Y-88440000D02*
X59510000Y-87550000D01*
X36110000Y-84980000D02*
X39570000Y-88440000D01*
M02*
