G04 #@! TF.GenerationSoftware,KiCad,Pcbnew,7.0.5*
G04 #@! TF.CreationDate,2023-08-10T21:35:46+08:00*
G04 #@! TF.ProjectId,LM,4c4d2e6b-6963-4616-945f-706362585858,rev?*
G04 #@! TF.SameCoordinates,Original*
G04 #@! TF.FileFunction,Copper,L1,Top*
G04 #@! TF.FilePolarity,Positive*
%FSLAX46Y46*%
G04 Gerber Fmt 4.6, Leading zero omitted, Abs format (unit mm)*
G04 Created by KiCad (PCBNEW 7.0.5) date 2023-08-10 21:35:46*
%MOMM*%
%LPD*%
G01*
G04 APERTURE LIST*
G04 Aperture macros list*
%AMRoundRect*
0 Rectangle with rounded corners*
0 $1 Rounding radius*
0 $2 $3 $4 $5 $6 $7 $8 $9 X,Y pos of 4 corners*
0 Add a 4 corners polygon primitive as box body*
4,1,4,$2,$3,$4,$5,$6,$7,$8,$9,$2,$3,0*
0 Add four circle primitives for the rounded corners*
1,1,$1+$1,$2,$3*
1,1,$1+$1,$4,$5*
1,1,$1+$1,$6,$7*
1,1,$1+$1,$8,$9*
0 Add four rect primitives between the rounded corners*
20,1,$1+$1,$2,$3,$4,$5,0*
20,1,$1+$1,$4,$5,$6,$7,0*
20,1,$1+$1,$6,$7,$8,$9,0*
20,1,$1+$1,$8,$9,$2,$3,0*%
%AMHorizOval*
0 Thick line with rounded ends*
0 $1 width*
0 $2 $3 position (X,Y) of the first rounded end (center of the circle)*
0 $4 $5 position (X,Y) of the second rounded end (center of the circle)*
0 Add line between two ends*
20,1,$1,$2,$3,$4,$5,0*
0 Add two circle primitives to create the rounded ends*
1,1,$1,$2,$3*
1,1,$1,$4,$5*%
%AMOutline4P*
0 Free polygon, 4 corners , with rotation*
0 The origin of the aperture is its center*
0 number of corners: always 4*
0 $1 to $8 corner X, Y*
0 $9 Rotation angle, in degrees counterclockwise*
0 create outline with 4 corners*
4,1,4,$1,$2,$3,$4,$5,$6,$7,$8,$1,$2,$9*%
G04 Aperture macros list end*
G04 #@! TA.AperFunction,ComponentPad*
%ADD10HorizOval,2.400000X-0.305164X0.457575X0.305164X-0.457575X0*%
G04 #@! TD*
G04 #@! TA.AperFunction,ComponentPad*
%ADD11C,2.400000*%
G04 #@! TD*
G04 #@! TA.AperFunction,SMDPad,CuDef*
%ADD12Outline4P,-1.300000X-1.200000X1.300000X-1.200000X1.300000X1.200000X-1.300000X1.200000X0.000000*%
G04 #@! TD*
G04 #@! TA.AperFunction,SMDPad,CuDef*
%ADD13Outline4P,-1.200000X-1.200000X1.200000X-1.200000X1.200000X1.200000X-1.200000X1.200000X0.000000*%
G04 #@! TD*
G04 #@! TA.AperFunction,ComponentPad*
%ADD14RoundRect,0.425000X-0.425000X0.425000X-0.425000X-0.425000X0.425000X-0.425000X0.425000X0.425000X0*%
G04 #@! TD*
G04 #@! TA.AperFunction,ComponentPad*
%ADD15O,1.700000X1.700000*%
G04 #@! TD*
G04 #@! TA.AperFunction,ComponentPad*
%ADD16C,1.700000*%
G04 #@! TD*
G04 #@! TA.AperFunction,ComponentPad*
%ADD17RoundRect,0.425000X-0.425000X-0.425000X0.425000X-0.425000X0.425000X0.425000X-0.425000X0.425000X0*%
G04 #@! TD*
G04 #@! TA.AperFunction,ComponentPad*
%ADD18R,1.600000X1.600000*%
G04 #@! TD*
G04 #@! TA.AperFunction,ComponentPad*
%ADD19O,1.600000X1.600000*%
G04 #@! TD*
G04 #@! TA.AperFunction,ViaPad*
%ADD20C,0.800000*%
G04 #@! TD*
G04 #@! TA.AperFunction,Conductor*
%ADD21C,0.250000*%
G04 #@! TD*
G04 APERTURE END LIST*
D10*
X58620000Y-50340000D03*
D11*
X59510000Y-43550000D03*
X63320000Y-51990000D03*
D12*
X64620000Y-51990000D03*
D11*
X65860000Y-40990000D03*
X65920000Y-51990000D03*
D13*
X67090000Y-40990000D03*
D11*
X68320000Y-40990000D03*
D10*
X39570000Y-50340000D03*
D11*
X40460000Y-43550000D03*
X44270000Y-51990000D03*
D12*
X45570000Y-51990000D03*
D11*
X46810000Y-40990000D03*
X46870000Y-51990000D03*
D13*
X48040000Y-40990000D03*
D11*
X49270000Y-40990000D03*
D14*
X57610000Y-92370000D03*
D15*
X55070000Y-92370000D03*
X52530000Y-92370000D03*
X49990000Y-92370000D03*
D16*
X75760000Y-53280000D03*
D15*
X75760000Y-55820000D03*
X75760000Y-58360000D03*
X75760000Y-60900000D03*
X75760000Y-63440000D03*
X75760000Y-65980000D03*
X75760000Y-68520000D03*
X75760000Y-71060000D03*
X75760000Y-73600000D03*
X78300000Y-53280000D03*
X78300000Y-55820000D03*
X78300000Y-58360000D03*
X78300000Y-60900000D03*
X78300000Y-63440000D03*
X78300000Y-65980000D03*
X78300000Y-68520000D03*
X78300000Y-71060000D03*
X78300000Y-73600000D03*
D16*
X36110000Y-57520000D03*
D15*
X36110000Y-60060000D03*
X36110000Y-62600000D03*
X36110000Y-65140000D03*
D17*
X36110000Y-67680000D03*
X36110000Y-70220000D03*
X36110000Y-72760000D03*
D10*
X39570000Y-88440000D03*
D11*
X40460000Y-81650000D03*
X44270000Y-90090000D03*
D12*
X45570000Y-90090000D03*
D11*
X46810000Y-79090000D03*
X46870000Y-90090000D03*
D13*
X48040000Y-79090000D03*
D11*
X49270000Y-79090000D03*
D10*
X58620000Y-69390000D03*
D11*
X59510000Y-62600000D03*
X63320000Y-71040000D03*
D12*
X64620000Y-71040000D03*
D11*
X65860000Y-60040000D03*
X65920000Y-71040000D03*
D13*
X67090000Y-60040000D03*
D11*
X68320000Y-60040000D03*
D10*
X58620000Y-88440000D03*
D11*
X59510000Y-81650000D03*
X63320000Y-90090000D03*
D12*
X64620000Y-90090000D03*
D11*
X65860000Y-79090000D03*
X65920000Y-90090000D03*
D13*
X67090000Y-79090000D03*
D11*
X68320000Y-79090000D03*
D10*
X39570000Y-69390000D03*
D11*
X40460000Y-62600000D03*
X44270000Y-71040000D03*
D12*
X45570000Y-71040000D03*
D11*
X46810000Y-60040000D03*
X46870000Y-71040000D03*
D13*
X48040000Y-60040000D03*
D11*
X49270000Y-60040000D03*
D18*
X52525000Y-68940000D03*
D19*
X52525000Y-61340000D03*
D18*
X55065000Y-87990000D03*
D19*
X55065000Y-80390000D03*
D18*
X52525000Y-87990000D03*
D19*
X52525000Y-80390000D03*
D18*
X52525000Y-49890000D03*
D19*
X52525000Y-42290000D03*
D18*
X55065000Y-68940000D03*
D19*
X55065000Y-61340000D03*
D18*
X55065000Y-49890000D03*
D19*
X55065000Y-42290000D03*
D20*
X56190000Y-53590000D03*
X51400000Y-52260000D03*
D21*
X37380000Y-62580000D02*
X37380000Y-63870000D01*
X71580000Y-59960000D02*
X70050000Y-58430000D01*
X41520000Y-58440000D02*
X37380000Y-62580000D01*
X73270000Y-64710000D02*
X71580000Y-63020000D01*
X70050000Y-58430000D02*
X56736396Y-58430000D01*
X77030000Y-64710000D02*
X73270000Y-64710000D01*
X55646396Y-59520000D02*
X52090812Y-59520000D01*
X37380000Y-63870000D02*
X36110000Y-65140000D01*
X78300000Y-63440000D02*
X77030000Y-64710000D01*
X56736396Y-58430000D02*
X55646396Y-59520000D01*
X52090812Y-59520000D02*
X51010812Y-58440000D01*
X71580000Y-63020000D02*
X71580000Y-59960000D01*
X51010812Y-58440000D02*
X41520000Y-58440000D01*
X55460000Y-59070000D02*
X52277208Y-59070000D01*
X72030000Y-59773604D02*
X70236396Y-57980000D01*
X73250000Y-62170000D02*
X72030000Y-60950000D01*
X56550000Y-57980000D02*
X55460000Y-59070000D01*
X52277208Y-59070000D02*
X51197208Y-57990000D01*
X51197208Y-57990000D02*
X40720000Y-57990000D01*
X72030000Y-60950000D02*
X72030000Y-59773604D01*
X77030000Y-62170000D02*
X73250000Y-62170000D01*
X40720000Y-57990000D02*
X36110000Y-62600000D01*
X70236396Y-57980000D02*
X56550000Y-57980000D01*
X78300000Y-60900000D02*
X77030000Y-62170000D01*
X59430000Y-55820000D02*
X57200000Y-53590000D01*
X75760000Y-55820000D02*
X59430000Y-55820000D01*
X57200000Y-53590000D02*
X56190000Y-53590000D01*
X77040000Y-54540000D02*
X58920000Y-54540000D01*
X78300000Y-53280000D02*
X77040000Y-54540000D01*
X58920000Y-54540000D02*
X56640000Y-52260000D01*
X56640000Y-52260000D02*
X51400000Y-52260000D01*
X51570000Y-57090000D02*
X36540000Y-57090000D01*
X78300000Y-55820000D02*
X77040000Y-57080000D01*
X52650000Y-58170000D02*
X51570000Y-57090000D01*
X56040000Y-57080000D02*
X54950000Y-58170000D01*
X54950000Y-58170000D02*
X52650000Y-58170000D01*
X36540000Y-57090000D02*
X36110000Y-57520000D01*
X77040000Y-57080000D02*
X56040000Y-57080000D01*
X55136396Y-58620000D02*
X52463604Y-58620000D01*
X72522792Y-59630000D02*
X70422792Y-57530000D01*
X51383604Y-57540000D02*
X39900000Y-57540000D01*
X37380000Y-60060000D02*
X36110000Y-60060000D01*
X52463604Y-58620000D02*
X51383604Y-57540000D01*
X77030000Y-59630000D02*
X72522792Y-59630000D01*
X70422792Y-57530000D02*
X56226396Y-57530000D01*
X56226396Y-57530000D02*
X55136396Y-58620000D01*
X39900000Y-57540000D02*
X37380000Y-60060000D01*
X78300000Y-58360000D02*
X77030000Y-59630000D01*
X40313213Y-67313213D02*
X36476787Y-67313213D01*
X51400000Y-48765000D02*
X57045000Y-48765000D01*
X36476787Y-67313213D02*
X36110000Y-67680000D01*
X71710000Y-68700000D02*
X60870000Y-68700000D01*
X51218604Y-67360000D02*
X49638604Y-68940000D01*
X41940000Y-68940000D02*
X40313213Y-67313213D01*
X73160000Y-67250000D02*
X71710000Y-68700000D01*
X78300000Y-65980000D02*
X77030000Y-67250000D01*
X57045000Y-48765000D02*
X58620000Y-50340000D01*
X49638604Y-68940000D02*
X41940000Y-68940000D01*
X60870000Y-68700000D02*
X59530000Y-67360000D01*
X39570000Y-50340000D02*
X49825000Y-50340000D01*
X59530000Y-67360000D02*
X51218604Y-67360000D01*
X77030000Y-67250000D02*
X73160000Y-67250000D01*
X49825000Y-50340000D02*
X51400000Y-48765000D01*
X36940000Y-69390000D02*
X39570000Y-69390000D01*
X67370000Y-69780000D02*
X77040000Y-69780000D01*
X39570000Y-69390000D02*
X49825000Y-69390000D01*
X49825000Y-69390000D02*
X51400000Y-67815000D01*
X51400000Y-67815000D02*
X57045000Y-67815000D01*
X57045000Y-67815000D02*
X58620000Y-69390000D01*
X66980000Y-69390000D02*
X67370000Y-69780000D01*
X58620000Y-69390000D02*
X66980000Y-69390000D01*
X77040000Y-69780000D02*
X78300000Y-68520000D01*
X36110000Y-70220000D02*
X36940000Y-69390000D01*
X39570000Y-88440000D02*
X49825000Y-88440000D01*
X77040000Y-72320000D02*
X78300000Y-71060000D01*
X51400000Y-86865000D02*
X57045000Y-86865000D01*
X40460000Y-81650000D02*
X37820000Y-81650000D01*
X72340000Y-72320000D02*
X77040000Y-72320000D01*
X37820000Y-81650000D02*
X36110000Y-79940000D01*
X57045000Y-86865000D02*
X58620000Y-88440000D01*
X58620000Y-88440000D02*
X69200000Y-88440000D01*
X70830000Y-86810000D02*
X70830000Y-73830000D01*
X36110000Y-79940000D02*
X36110000Y-72760000D01*
X69200000Y-88440000D02*
X70830000Y-86810000D01*
X70830000Y-73830000D02*
X72340000Y-72320000D01*
X49825000Y-88440000D02*
X51400000Y-86865000D01*
X51225000Y-40990000D02*
X52525000Y-42290000D01*
X49270000Y-40990000D02*
X51225000Y-40990000D01*
X65860000Y-40990000D02*
X56365000Y-40990000D01*
X56365000Y-40990000D02*
X55065000Y-42290000D01*
X49270000Y-60040000D02*
X51225000Y-60040000D01*
X51225000Y-60040000D02*
X52525000Y-61340000D01*
X56365000Y-60040000D02*
X55065000Y-61340000D01*
X65860000Y-60040000D02*
X56365000Y-60040000D01*
X51225000Y-79090000D02*
X52525000Y-80390000D01*
X49270000Y-79090000D02*
X51225000Y-79090000D01*
X56365000Y-79090000D02*
X55065000Y-80390000D01*
X65860000Y-79090000D02*
X56365000Y-79090000D01*
M02*
