G04 #@! TF.GenerationSoftware,KiCad,Pcbnew,7.0.5*
G04 #@! TF.CreationDate,2023-08-20T01:58:49+08:00*
G04 #@! TF.ProjectId,LM,4c4d2e6b-6963-4616-945f-706362585858,rev?*
G04 #@! TF.SameCoordinates,Original*
G04 #@! TF.FileFunction,Copper,L1,Top*
G04 #@! TF.FilePolarity,Positive*
%FSLAX46Y46*%
G04 Gerber Fmt 4.6, Leading zero omitted, Abs format (unit mm)*
G04 Created by KiCad (PCBNEW 7.0.5) date 2023-08-20 01:58:49*
%MOMM*%
%LPD*%
G01*
G04 APERTURE LIST*
G04 Aperture macros list*
%AMRoundRect*
0 Rectangle with rounded corners*
0 $1 Rounding radius*
0 $2 $3 $4 $5 $6 $7 $8 $9 X,Y pos of 4 corners*
0 Add a 4 corners polygon primitive as box body*
4,1,4,$2,$3,$4,$5,$6,$7,$8,$9,$2,$3,0*
0 Add four circle primitives for the rounded corners*
1,1,$1+$1,$2,$3*
1,1,$1+$1,$4,$5*
1,1,$1+$1,$6,$7*
1,1,$1+$1,$8,$9*
0 Add four rect primitives between the rounded corners*
20,1,$1+$1,$2,$3,$4,$5,0*
20,1,$1+$1,$4,$5,$6,$7,0*
20,1,$1+$1,$6,$7,$8,$9,0*
20,1,$1+$1,$8,$9,$2,$3,0*%
%AMHorizOval*
0 Thick line with rounded ends*
0 $1 width*
0 $2 $3 position (X,Y) of the first rounded end (center of the circle)*
0 $4 $5 position (X,Y) of the second rounded end (center of the circle)*
0 Add line between two ends*
20,1,$1,$2,$3,$4,$5,0*
0 Add two circle primitives to create the rounded ends*
1,1,$1,$2,$3*
1,1,$1,$4,$5*%
%AMOutline4P*
0 Free polygon, 4 corners , with rotation*
0 The origin of the aperture is its center*
0 number of corners: always 4*
0 $1 to $8 corner X, Y*
0 $9 Rotation angle, in degrees counterclockwise*
0 create outline with 4 corners*
4,1,4,$1,$2,$3,$4,$5,$6,$7,$8,$1,$2,$9*%
G04 Aperture macros list end*
G04 #@! TA.AperFunction,ComponentPad*
%ADD10HorizOval,2.400000X-0.305164X0.457575X0.305164X-0.457575X0*%
G04 #@! TD*
G04 #@! TA.AperFunction,ComponentPad*
%ADD11C,2.400000*%
G04 #@! TD*
G04 #@! TA.AperFunction,SMDPad,CuDef*
%ADD12Outline4P,-1.300000X-1.200000X1.300000X-1.200000X1.300000X1.200000X-1.300000X1.200000X0.000000*%
G04 #@! TD*
G04 #@! TA.AperFunction,SMDPad,CuDef*
%ADD13Outline4P,-1.200000X-1.200000X1.200000X-1.200000X1.200000X1.200000X-1.200000X1.200000X0.000000*%
G04 #@! TD*
G04 #@! TA.AperFunction,ComponentPad*
%ADD14RoundRect,0.425000X-0.425000X0.425000X-0.425000X-0.425000X0.425000X-0.425000X0.425000X0.425000X0*%
G04 #@! TD*
G04 #@! TA.AperFunction,ComponentPad*
%ADD15O,1.700000X1.700000*%
G04 #@! TD*
G04 #@! TA.AperFunction,ComponentPad*
%ADD16C,1.700000*%
G04 #@! TD*
G04 #@! TA.AperFunction,ComponentPad*
%ADD17RoundRect,0.425000X-0.425000X-0.425000X0.425000X-0.425000X0.425000X0.425000X-0.425000X0.425000X0*%
G04 #@! TD*
G04 #@! TA.AperFunction,ComponentPad*
%ADD18R,1.600000X1.600000*%
G04 #@! TD*
G04 #@! TA.AperFunction,ComponentPad*
%ADD19O,1.600000X1.600000*%
G04 #@! TD*
G04 #@! TA.AperFunction,ViaPad*
%ADD20C,0.800000*%
G04 #@! TD*
G04 #@! TA.AperFunction,Conductor*
%ADD21C,0.250000*%
G04 #@! TD*
G04 APERTURE END LIST*
D10*
X58620000Y-50340000D03*
D11*
X59510000Y-43550000D03*
X63320000Y-51990000D03*
D12*
X64620000Y-51990000D03*
D11*
X65860000Y-40990000D03*
X65920000Y-51990000D03*
D13*
X67090000Y-40990000D03*
D11*
X68320000Y-40990000D03*
D10*
X39570000Y-50340000D03*
D11*
X40460000Y-43550000D03*
X44270000Y-51990000D03*
D12*
X45570000Y-51990000D03*
D11*
X46810000Y-40990000D03*
X46870000Y-51990000D03*
D13*
X48040000Y-40990000D03*
D11*
X49270000Y-40990000D03*
D14*
X57610000Y-92370000D03*
D15*
X55070000Y-92370000D03*
X52530000Y-92370000D03*
X49990000Y-92370000D03*
D16*
X75760000Y-53280000D03*
D15*
X75760000Y-55820000D03*
X75760000Y-58360000D03*
X75760000Y-60900000D03*
X75760000Y-63440000D03*
X75760000Y-65980000D03*
X75760000Y-68520000D03*
X75760000Y-71060000D03*
X75760000Y-73600000D03*
X78300000Y-53280000D03*
X78300000Y-55820000D03*
X78300000Y-58360000D03*
X78300000Y-60900000D03*
X78300000Y-63440000D03*
X78300000Y-65980000D03*
X78300000Y-68520000D03*
X78300000Y-71060000D03*
X78300000Y-73600000D03*
D16*
X36110000Y-57520000D03*
D15*
X36110000Y-60060000D03*
X36110000Y-62600000D03*
X36110000Y-65140000D03*
D17*
X36110000Y-67680000D03*
X36110000Y-70220000D03*
X36110000Y-72760000D03*
D10*
X39570000Y-88440000D03*
D11*
X40460000Y-81650000D03*
X44270000Y-90090000D03*
D12*
X45570000Y-90090000D03*
D11*
X46810000Y-79090000D03*
X46870000Y-90090000D03*
D13*
X48040000Y-79090000D03*
D11*
X49270000Y-79090000D03*
D10*
X58620000Y-69390000D03*
D11*
X59510000Y-62600000D03*
X63320000Y-71040000D03*
D12*
X64620000Y-71040000D03*
D11*
X65860000Y-60040000D03*
X65920000Y-71040000D03*
D13*
X67090000Y-60040000D03*
D11*
X68320000Y-60040000D03*
D10*
X58620000Y-88440000D03*
D11*
X59510000Y-81650000D03*
X63320000Y-90090000D03*
D12*
X64620000Y-90090000D03*
D11*
X65860000Y-79090000D03*
X65920000Y-90090000D03*
D13*
X67090000Y-79090000D03*
D11*
X68320000Y-79090000D03*
D10*
X39570000Y-69390000D03*
D11*
X40460000Y-62600000D03*
X44270000Y-71040000D03*
D12*
X45570000Y-71040000D03*
D11*
X46810000Y-60040000D03*
X46870000Y-71040000D03*
D13*
X48040000Y-60040000D03*
D11*
X49270000Y-60040000D03*
D18*
X52525000Y-68940000D03*
D19*
X52525000Y-61340000D03*
D18*
X55065000Y-87990000D03*
D19*
X55065000Y-80390000D03*
D18*
X52525000Y-87990000D03*
D19*
X52525000Y-80390000D03*
D18*
X52525000Y-49890000D03*
D19*
X52525000Y-42290000D03*
D18*
X55065000Y-68940000D03*
D19*
X55065000Y-61340000D03*
D18*
X55065000Y-49890000D03*
D19*
X55065000Y-42290000D03*
D20*
X56190000Y-53590000D03*
X51400000Y-52260000D03*
D21*
X37380000Y-62580000D02*
X37380000Y-63870000D01*
X71580000Y-59960000D02*
X70050000Y-58430000D01*
X41520000Y-58440000D02*
X37380000Y-62580000D01*
X73270000Y-64710000D02*
X71580000Y-63020000D01*
X70050000Y-58430000D02*
X56736396Y-58430000D01*
X77030000Y-64710000D02*
X73270000Y-64710000D01*
X55646396Y-59520000D02*
X52090812Y-59520000D01*
X37380000Y-63870000D02*
X36110000Y-65140000D01*
X78300000Y-63440000D02*
X77030000Y-64710000D01*
X56736396Y-58430000D02*
X55646396Y-59520000D01*
X52090812Y-59520000D02*
X51010812Y-58440000D01*
X71580000Y-63020000D02*
X71580000Y-59960000D01*
X51010812Y-58440000D02*
X41520000Y-58440000D01*
X55460000Y-59070000D02*
X52277208Y-59070000D01*
X72030000Y-59773604D02*
X70236396Y-57980000D01*
X73250000Y-62170000D02*
X72030000Y-60950000D01*
X56550000Y-57980000D02*
X55460000Y-59070000D01*
X52277208Y-59070000D02*
X51197208Y-57990000D01*
X51197208Y-57990000D02*
X40720000Y-57990000D01*
X72030000Y-60950000D02*
X72030000Y-59773604D01*
X77030000Y-62170000D02*
X73250000Y-62170000D01*
X40720000Y-57990000D02*
X36110000Y-62600000D01*
X70236396Y-57980000D02*
X56550000Y-57980000D01*
X78300000Y-60900000D02*
X77030000Y-62170000D01*
X59430000Y-55820000D02*
X57200000Y-53590000D01*
X75760000Y-55820000D02*
X59430000Y-55820000D01*
X57200000Y-53590000D02*
X56190000Y-53590000D01*
X77040000Y-54540000D02*
X58920000Y-54540000D01*
X78300000Y-53280000D02*
X77040000Y-54540000D01*
X58920000Y-54540000D02*
X56640000Y-52260000D01*
X56640000Y-52260000D02*
X51400000Y-52260000D01*
X51570000Y-57090000D02*
X36540000Y-57090000D01*
X78300000Y-55820000D02*
X77040000Y-57080000D01*
X52650000Y-58170000D02*
X51570000Y-57090000D01*
X56040000Y-57080000D02*
X54950000Y-58170000D01*
X54950000Y-58170000D02*
X52650000Y-58170000D01*
X36540000Y-57090000D02*
X36110000Y-57520000D01*
X77040000Y-57080000D02*
X56040000Y-57080000D01*
X55136396Y-58620000D02*
X52463604Y-58620000D01*
X72522792Y-59630000D02*
X70422792Y-57530000D01*
X51383604Y-57540000D02*
X39900000Y-57540000D01*
X37380000Y-60060000D02*
X36110000Y-60060000D01*
X52463604Y-58620000D02*
X51383604Y-57540000D01*
X77030000Y-59630000D02*
X72522792Y-59630000D01*
X70422792Y-57530000D02*
X56226396Y-57530000D01*
X56226396Y-57530000D02*
X55136396Y-58620000D01*
X39900000Y-57540000D02*
X37380000Y-60060000D01*
X78300000Y-58360000D02*
X77030000Y-59630000D01*
X40313213Y-67313213D02*
X36476787Y-67313213D01*
X51400000Y-48765000D02*
X57045000Y-48765000D01*
X36476787Y-67313213D02*
X36110000Y-67680000D01*
X71710000Y-68700000D02*
X60870000Y-68700000D01*
X51218604Y-67360000D02*
X49638604Y-68940000D01*
X41940000Y-68940000D02*
X40313213Y-67313213D01*
X73160000Y-67250000D02*
X71710000Y-68700000D01*
X78300000Y-65980000D02*
X77030000Y-67250000D01*
X57045000Y-48765000D02*
X58620000Y-50340000D01*
X49638604Y-68940000D02*
X41940000Y-68940000D01*
X60870000Y-68700000D02*
X59530000Y-67360000D01*
X39570000Y-50340000D02*
X49825000Y-50340000D01*
X59530000Y-67360000D02*
X51218604Y-67360000D01*
X77030000Y-67250000D02*
X73160000Y-67250000D01*
X49825000Y-50340000D02*
X51400000Y-48765000D01*
X36940000Y-69390000D02*
X39570000Y-69390000D01*
X67370000Y-69780000D02*
X77040000Y-69780000D01*
X39570000Y-69390000D02*
X49825000Y-69390000D01*
X49825000Y-69390000D02*
X51400000Y-67815000D01*
X51400000Y-67815000D02*
X57045000Y-67815000D01*
X57045000Y-67815000D02*
X58620000Y-69390000D01*
X66980000Y-69390000D02*
X67370000Y-69780000D01*
X58620000Y-69390000D02*
X66980000Y-69390000D01*
X77040000Y-69780000D02*
X78300000Y-68520000D01*
X36110000Y-70220000D02*
X36940000Y-69390000D01*
X39570000Y-88440000D02*
X49825000Y-88440000D01*
X77040000Y-72320000D02*
X78300000Y-71060000D01*
X51400000Y-86865000D02*
X57045000Y-86865000D01*
X40460000Y-81650000D02*
X37820000Y-81650000D01*
X72340000Y-72320000D02*
X77040000Y-72320000D01*
X37820000Y-81650000D02*
X36110000Y-79940000D01*
X57045000Y-86865000D02*
X58620000Y-88440000D01*
X58620000Y-88440000D02*
X69200000Y-88440000D01*
X70830000Y-86810000D02*
X70830000Y-73830000D01*
X36110000Y-79940000D02*
X36110000Y-72760000D01*
X69200000Y-88440000D02*
X70830000Y-86810000D01*
X70830000Y-73830000D02*
X72340000Y-72320000D01*
X49825000Y-88440000D02*
X51400000Y-86865000D01*
X51225000Y-40990000D02*
X52525000Y-42290000D01*
X49270000Y-40990000D02*
X51225000Y-40990000D01*
X65860000Y-40990000D02*
X56365000Y-40990000D01*
X56365000Y-40990000D02*
X55065000Y-42290000D01*
X49270000Y-60040000D02*
X51225000Y-60040000D01*
X51225000Y-60040000D02*
X52525000Y-61340000D01*
X56365000Y-60040000D02*
X55065000Y-61340000D01*
X65860000Y-60040000D02*
X56365000Y-60040000D01*
X51225000Y-79090000D02*
X52525000Y-80390000D01*
X49270000Y-79090000D02*
X51225000Y-79090000D01*
X56365000Y-79090000D02*
X55065000Y-80390000D01*
X65860000Y-79090000D02*
X56365000Y-79090000D01*
G04 #@! TA.AperFunction,NonConductor*
G36*
X56928939Y-54223415D02*
G01*
X56979438Y-54254028D01*
X58929197Y-56203788D01*
X58939022Y-56216051D01*
X58939243Y-56215869D01*
X58944210Y-56221874D01*
X58963627Y-56240107D01*
X58999022Y-56300348D01*
X58996230Y-56370162D01*
X58956137Y-56427383D01*
X58891472Y-56453845D01*
X58878744Y-56454500D01*
X56122743Y-56454500D01*
X56107122Y-56452775D01*
X56107096Y-56453061D01*
X56099333Y-56452326D01*
X56031153Y-56454469D01*
X56029206Y-56454500D01*
X56000649Y-56454500D01*
X55993766Y-56455369D01*
X55987949Y-56455826D01*
X55941373Y-56457290D01*
X55922129Y-56462881D01*
X55903079Y-56466825D01*
X55883211Y-56469334D01*
X55883210Y-56469334D01*
X55839883Y-56486488D01*
X55834355Y-56488380D01*
X55813452Y-56494453D01*
X55743583Y-56494254D01*
X55684913Y-56456312D01*
X55656069Y-56392674D01*
X55662675Y-56332046D01*
X55719369Y-56180046D01*
X55780196Y-55900428D01*
X55800610Y-55615000D01*
X55780196Y-55329572D01*
X55744504Y-55165500D01*
X55719371Y-55049962D01*
X55719370Y-55049960D01*
X55719369Y-55049954D01*
X55619367Y-54781839D01*
X55619182Y-54781501D01*
X55482229Y-54530690D01*
X55482224Y-54530682D01*
X55413082Y-54438319D01*
X55388665Y-54372855D01*
X55403517Y-54304582D01*
X55452922Y-54255177D01*
X55521195Y-54240325D01*
X55585234Y-54263691D01*
X55737265Y-54374148D01*
X55737270Y-54374151D01*
X55910192Y-54451142D01*
X55910197Y-54451144D01*
X56095354Y-54490500D01*
X56095355Y-54490500D01*
X56284644Y-54490500D01*
X56284646Y-54490500D01*
X56469803Y-54451144D01*
X56642730Y-54374151D01*
X56795871Y-54262888D01*
X56799602Y-54258744D01*
X56859082Y-54222092D01*
X56928939Y-54223415D01*
G37*
G04 #@! TD.AperFunction*
G04 #@! TA.AperFunction,NonConductor*
G36*
X72348456Y-36565889D02*
G01*
X72371354Y-36568469D01*
X72450831Y-36578932D01*
X72475597Y-36584829D01*
X72509735Y-36596775D01*
X72512984Y-36598015D01*
X72567195Y-36620469D01*
X72585695Y-36630027D01*
X72620520Y-36651909D01*
X72625267Y-36655212D01*
X72673200Y-36691993D01*
X72679295Y-36697337D01*
X72712660Y-36730702D01*
X72718005Y-36736798D01*
X72754786Y-36784731D01*
X72758097Y-36789490D01*
X72779967Y-36824296D01*
X72789536Y-36842818D01*
X72811983Y-36897014D01*
X72813223Y-36900263D01*
X72825169Y-36934401D01*
X72831066Y-36959169D01*
X72841528Y-37038632D01*
X72843643Y-37057397D01*
X72844109Y-37061534D01*
X72844110Y-37061537D01*
X72844500Y-37068486D01*
X72844500Y-51985467D01*
X72844416Y-51985889D01*
X72844459Y-52010001D01*
X72844544Y-52010206D01*
X72844616Y-52010382D01*
X72844618Y-52010384D01*
X72844808Y-52010462D01*
X72845000Y-52010541D01*
X72845002Y-52010539D01*
X72869616Y-52010524D01*
X72869616Y-52010528D01*
X72869760Y-52010500D01*
X74825230Y-52010500D01*
X74892269Y-52030185D01*
X74938024Y-52082989D01*
X74947968Y-52152147D01*
X74918943Y-52215703D01*
X74896354Y-52236074D01*
X74888598Y-52241504D01*
X74721505Y-52408597D01*
X74585965Y-52602169D01*
X74585964Y-52602171D01*
X74486098Y-52816335D01*
X74486094Y-52816344D01*
X74424938Y-53044586D01*
X74424936Y-53044596D01*
X74404341Y-53279999D01*
X74404341Y-53280000D01*
X74424936Y-53515403D01*
X74424938Y-53515413D01*
X74486096Y-53743662D01*
X74487707Y-53748087D01*
X74492140Y-53817816D01*
X74458170Y-53878873D01*
X74396584Y-53911871D01*
X74371186Y-53914500D01*
X66215954Y-53914500D01*
X66148915Y-53894815D01*
X66103160Y-53842011D01*
X66093216Y-53772853D01*
X66122241Y-53709297D01*
X66181019Y-53671523D01*
X66197469Y-53667885D01*
X66299458Y-53652513D01*
X66543004Y-53577389D01*
X66772634Y-53466805D01*
X66983217Y-53323232D01*
X67170050Y-53149877D01*
X67328959Y-52950612D01*
X67456393Y-52729888D01*
X67549508Y-52492637D01*
X67606222Y-52244157D01*
X67617130Y-52098591D01*
X67625268Y-51990004D01*
X67625268Y-51989995D01*
X67606222Y-51735845D01*
X67604382Y-51727785D01*
X67549508Y-51487363D01*
X67456393Y-51250112D01*
X67328959Y-51029388D01*
X67170050Y-50830123D01*
X66983217Y-50656768D01*
X66772634Y-50513195D01*
X66772630Y-50513193D01*
X66772627Y-50513191D01*
X66772626Y-50513190D01*
X66543006Y-50402612D01*
X66543008Y-50402612D01*
X66299466Y-50327489D01*
X66299462Y-50327488D01*
X66299458Y-50327487D01*
X66178231Y-50309214D01*
X66047440Y-50289500D01*
X66047435Y-50289500D01*
X65792565Y-50289500D01*
X65792564Y-50289500D01*
X63447441Y-50289500D01*
X63447435Y-50289500D01*
X63192565Y-50289500D01*
X63192559Y-50289500D01*
X63035609Y-50313157D01*
X62940542Y-50327487D01*
X62940538Y-50327488D01*
X62940539Y-50327488D01*
X62940533Y-50327489D01*
X62696992Y-50402612D01*
X62467373Y-50513190D01*
X62467372Y-50513191D01*
X62256782Y-50656768D01*
X62069952Y-50830121D01*
X62069950Y-50830123D01*
X61911041Y-51029388D01*
X61783608Y-51250109D01*
X61690492Y-51487362D01*
X61690490Y-51487369D01*
X61633777Y-51735845D01*
X61614732Y-51989995D01*
X61614732Y-51990004D01*
X61633777Y-52244154D01*
X61682591Y-52458024D01*
X61690492Y-52492637D01*
X61783607Y-52729888D01*
X61911041Y-52950612D01*
X62069950Y-53149877D01*
X62256783Y-53323232D01*
X62467366Y-53466805D01*
X62467371Y-53466807D01*
X62467372Y-53466808D01*
X62467373Y-53466809D01*
X62589328Y-53525538D01*
X62696992Y-53577387D01*
X62696993Y-53577387D01*
X62696996Y-53577389D01*
X62940542Y-53652513D01*
X63042528Y-53667885D01*
X63105885Y-53697342D01*
X63143258Y-53756376D01*
X63142783Y-53826244D01*
X63104609Y-53884763D01*
X63040857Y-53913355D01*
X63024046Y-53914500D01*
X59230452Y-53914500D01*
X59163413Y-53894815D01*
X59142771Y-53878181D01*
X58154469Y-52889879D01*
X57140803Y-51876212D01*
X57130980Y-51863950D01*
X57130759Y-51864134D01*
X57125786Y-51858122D01*
X57076066Y-51811432D01*
X57074666Y-51810075D01*
X57054476Y-51789884D01*
X57048986Y-51785625D01*
X57044561Y-51781847D01*
X57010582Y-51749938D01*
X57010580Y-51749936D01*
X57010577Y-51749935D01*
X56993029Y-51740288D01*
X56976763Y-51729604D01*
X56960933Y-51717325D01*
X56918168Y-51698818D01*
X56912922Y-51696248D01*
X56872093Y-51673803D01*
X56872092Y-51673802D01*
X56852693Y-51668822D01*
X56834281Y-51662518D01*
X56815898Y-51654562D01*
X56815892Y-51654560D01*
X56769874Y-51647272D01*
X56764152Y-51646087D01*
X56719021Y-51634500D01*
X56719019Y-51634500D01*
X56698984Y-51634500D01*
X56679586Y-51632973D01*
X56672162Y-51631797D01*
X56659805Y-51629840D01*
X56659804Y-51629840D01*
X56613416Y-51634225D01*
X56607578Y-51634500D01*
X52103748Y-51634500D01*
X52036709Y-51614815D01*
X52011600Y-51593474D01*
X52005873Y-51587114D01*
X52005869Y-51587110D01*
X51852734Y-51475851D01*
X51852732Y-51475850D01*
X51848983Y-51474181D01*
X51829889Y-51465679D01*
X51744763Y-51427778D01*
X51691527Y-51382527D01*
X51671206Y-51315678D01*
X51690252Y-51248454D01*
X51742618Y-51202200D01*
X51795195Y-51190499D01*
X53372872Y-51190499D01*
X53432483Y-51184091D01*
X53567331Y-51133796D01*
X53682546Y-51047546D01*
X53695733Y-51029929D01*
X53751666Y-50988058D01*
X53821358Y-50983074D01*
X53882681Y-51016558D01*
X53894267Y-51029930D01*
X53907454Y-51047546D01*
X53907455Y-51047547D01*
X54022664Y-51133793D01*
X54022671Y-51133797D01*
X54157517Y-51184091D01*
X54157516Y-51184091D01*
X54164444Y-51184835D01*
X54217127Y-51190500D01*
X55912872Y-51190499D01*
X55972483Y-51184091D01*
X56107331Y-51133796D01*
X56222546Y-51047546D01*
X56308796Y-50932331D01*
X56359091Y-50797483D01*
X56365500Y-50737873D01*
X56365499Y-49993260D01*
X56380284Y-49942905D01*
X56369692Y-49925487D01*
X56365499Y-49893515D01*
X56365499Y-49514500D01*
X56385184Y-49447461D01*
X56437988Y-49401706D01*
X56489499Y-49390500D01*
X56527240Y-49390500D01*
X56594279Y-49410185D01*
X56640034Y-49462989D01*
X56649978Y-49532147D01*
X56649279Y-49536463D01*
X56618100Y-49709708D01*
X56613461Y-49896592D01*
X56598591Y-49942946D01*
X56608476Y-49958327D01*
X56612478Y-49977381D01*
X56645062Y-50229698D01*
X56717640Y-50480512D01*
X56717642Y-50480517D01*
X56717643Y-50480519D01*
X56827660Y-50717321D01*
X56827663Y-50717326D01*
X56827665Y-50717329D01*
X57546590Y-51795314D01*
X57667338Y-51949364D01*
X57667340Y-51949366D01*
X57667341Y-51949367D01*
X57857903Y-52127875D01*
X58073480Y-52275201D01*
X58309019Y-52387893D01*
X58559002Y-52463309D01*
X58817566Y-52499682D01*
X59078652Y-52496158D01*
X59336141Y-52452822D01*
X59336147Y-52452819D01*
X59336152Y-52452819D01*
X59446189Y-52416354D01*
X59583996Y-52370687D01*
X59816410Y-52251681D01*
X60027933Y-52098591D01*
X60213608Y-51915007D01*
X60369084Y-51705232D01*
X60490715Y-51474181D01*
X60575651Y-51227271D01*
X60621900Y-50970290D01*
X60628379Y-50709260D01*
X60594938Y-50450301D01*
X60522357Y-50199481D01*
X60412340Y-49962679D01*
X59693412Y-48884689D01*
X59693409Y-48884685D01*
X59572661Y-48730635D01*
X59572659Y-48730633D01*
X59382097Y-48552125D01*
X59166520Y-48404799D01*
X59166517Y-48404798D01*
X59166515Y-48404796D01*
X59166512Y-48404794D01*
X58930982Y-48292108D01*
X58680997Y-48216690D01*
X58458804Y-48185435D01*
X58422434Y-48180319D01*
X58422433Y-48180319D01*
X58161347Y-48183841D01*
X57903858Y-48227178D01*
X57903847Y-48227180D01*
X57656009Y-48309311D01*
X57655995Y-48309317D01*
X57615927Y-48329833D01*
X57547284Y-48342865D01*
X57482491Y-48316717D01*
X57471733Y-48307141D01*
X57459476Y-48294884D01*
X57453986Y-48290625D01*
X57449561Y-48286847D01*
X57415582Y-48254938D01*
X57415580Y-48254936D01*
X57415577Y-48254935D01*
X57398029Y-48245288D01*
X57381763Y-48234604D01*
X57372192Y-48227180D01*
X57365936Y-48222327D01*
X57365935Y-48222326D01*
X57365933Y-48222325D01*
X57323168Y-48203818D01*
X57317922Y-48201248D01*
X57277093Y-48178803D01*
X57277092Y-48178802D01*
X57257693Y-48173822D01*
X57239281Y-48167518D01*
X57220898Y-48159562D01*
X57220892Y-48159560D01*
X57174874Y-48152272D01*
X57169152Y-48151087D01*
X57124021Y-48139500D01*
X57124019Y-48139500D01*
X57103984Y-48139500D01*
X57084586Y-48137973D01*
X57077162Y-48136797D01*
X57064805Y-48134840D01*
X57064804Y-48134840D01*
X57018416Y-48139225D01*
X57012578Y-48139500D01*
X51482737Y-48139500D01*
X51467120Y-48137776D01*
X51467093Y-48138062D01*
X51459331Y-48137327D01*
X51391171Y-48139469D01*
X51389224Y-48139500D01*
X51360650Y-48139500D01*
X51359929Y-48139590D01*
X51353757Y-48140369D01*
X51347945Y-48140826D01*
X51301372Y-48142290D01*
X51301369Y-48142291D01*
X51282126Y-48147881D01*
X51263083Y-48151825D01*
X51243204Y-48154336D01*
X51243203Y-48154337D01*
X51199878Y-48171490D01*
X51194352Y-48173382D01*
X51149608Y-48186383D01*
X51149604Y-48186385D01*
X51132365Y-48196580D01*
X51114898Y-48205137D01*
X51096269Y-48212512D01*
X51096267Y-48212513D01*
X51058564Y-48239906D01*
X51053682Y-48243112D01*
X51013580Y-48266828D01*
X50999408Y-48281000D01*
X50984623Y-48293628D01*
X50968412Y-48305407D01*
X50938709Y-48341310D01*
X50934777Y-48345631D01*
X49602228Y-49678181D01*
X49540905Y-49711666D01*
X49514547Y-49714500D01*
X41263175Y-49714500D01*
X41196136Y-49694815D01*
X41160013Y-49659301D01*
X41018733Y-49447461D01*
X40643412Y-48884689D01*
X40643409Y-48884685D01*
X40522661Y-48730635D01*
X40522659Y-48730633D01*
X40332097Y-48552125D01*
X40116520Y-48404799D01*
X40116517Y-48404798D01*
X40116515Y-48404796D01*
X40116512Y-48404794D01*
X39880982Y-48292108D01*
X39630997Y-48216690D01*
X39408804Y-48185435D01*
X39372434Y-48180319D01*
X39372433Y-48180319D01*
X39111347Y-48183841D01*
X38853858Y-48227178D01*
X38853847Y-48227180D01*
X38606009Y-48309311D01*
X38606002Y-48309314D01*
X38373591Y-48428319D01*
X38162075Y-48581403D01*
X38162067Y-48581409D01*
X37976392Y-48764992D01*
X37820916Y-48974766D01*
X37699287Y-49205814D01*
X37699282Y-49205826D01*
X37614349Y-49452728D01*
X37568100Y-49709709D01*
X37561620Y-49970740D01*
X37561620Y-49970741D01*
X37595062Y-50229698D01*
X37667640Y-50480512D01*
X37667642Y-50480517D01*
X37667643Y-50480519D01*
X37777660Y-50717321D01*
X37777663Y-50717326D01*
X37777665Y-50717329D01*
X38496590Y-51795314D01*
X38617338Y-51949364D01*
X38617340Y-51949366D01*
X38617341Y-51949367D01*
X38807903Y-52127875D01*
X39023480Y-52275201D01*
X39259019Y-52387893D01*
X39509002Y-52463309D01*
X39767566Y-52499682D01*
X40028652Y-52496158D01*
X40286141Y-52452822D01*
X40286147Y-52452819D01*
X40286152Y-52452819D01*
X40396189Y-52416354D01*
X40533996Y-52370687D01*
X40766410Y-52251681D01*
X40977933Y-52098591D01*
X41163608Y-51915007D01*
X41319084Y-51705232D01*
X41440715Y-51474181D01*
X41525651Y-51227271D01*
X41554399Y-51067536D01*
X41585647Y-51005043D01*
X41645720Y-50969365D01*
X41676438Y-50965500D01*
X42683153Y-50965500D01*
X42750192Y-50985185D01*
X42795947Y-51037989D01*
X42805891Y-51107147D01*
X42790540Y-51151500D01*
X42733608Y-51250109D01*
X42640492Y-51487362D01*
X42640490Y-51487369D01*
X42583777Y-51735845D01*
X42564732Y-51989995D01*
X42564732Y-51990004D01*
X42583777Y-52244154D01*
X42632591Y-52458024D01*
X42640492Y-52492637D01*
X42733607Y-52729888D01*
X42861041Y-52950612D01*
X43019950Y-53149877D01*
X43206783Y-53323232D01*
X43417366Y-53466805D01*
X43417371Y-53466807D01*
X43417372Y-53466808D01*
X43417373Y-53466809D01*
X43539328Y-53525538D01*
X43646992Y-53577387D01*
X43646993Y-53577387D01*
X43646996Y-53577389D01*
X43890542Y-53652513D01*
X44142565Y-53690500D01*
X44448789Y-53690500D01*
X44448798Y-53690499D01*
X46740361Y-53690499D01*
X46740389Y-53690500D01*
X46742565Y-53690500D01*
X46997435Y-53690500D01*
X47249458Y-53652513D01*
X47493004Y-53577389D01*
X47722634Y-53466805D01*
X47933217Y-53323232D01*
X48120050Y-53149877D01*
X48278959Y-52950612D01*
X48406393Y-52729888D01*
X48499508Y-52492637D01*
X48556222Y-52244157D01*
X48567130Y-52098591D01*
X48575268Y-51990004D01*
X48575268Y-51989995D01*
X48556222Y-51735845D01*
X48554382Y-51727785D01*
X48499508Y-51487363D01*
X48406393Y-51250112D01*
X48349460Y-51151500D01*
X48332987Y-51083599D01*
X48355840Y-51017573D01*
X48410761Y-50974382D01*
X48456847Y-50965500D01*
X49742257Y-50965500D01*
X49757877Y-50967224D01*
X49757904Y-50966939D01*
X49765666Y-50967673D01*
X49765666Y-50967672D01*
X49765667Y-50967673D01*
X49768999Y-50967568D01*
X49833847Y-50965531D01*
X49835794Y-50965500D01*
X49864347Y-50965500D01*
X49864350Y-50965500D01*
X49871228Y-50964630D01*
X49877041Y-50964172D01*
X49923627Y-50962709D01*
X49942869Y-50957117D01*
X49961912Y-50953174D01*
X49981792Y-50950664D01*
X50025122Y-50933507D01*
X50030646Y-50931617D01*
X50034396Y-50930527D01*
X50075390Y-50918618D01*
X50092629Y-50908422D01*
X50110103Y-50899862D01*
X50128727Y-50892488D01*
X50128727Y-50892487D01*
X50128732Y-50892486D01*
X50166449Y-50865082D01*
X50171305Y-50861892D01*
X50211420Y-50838170D01*
X50225589Y-50823999D01*
X50240379Y-50811368D01*
X50256587Y-50799594D01*
X50286299Y-50763676D01*
X50290212Y-50759376D01*
X51012820Y-50036769D01*
X51074142Y-50003285D01*
X51143834Y-50008269D01*
X51199767Y-50050141D01*
X51224184Y-50115605D01*
X51224500Y-50124451D01*
X51224500Y-50737870D01*
X51224501Y-50737876D01*
X51230908Y-50797483D01*
X51281202Y-50932328D01*
X51281206Y-50932335D01*
X51322921Y-50988058D01*
X51367454Y-51047546D01*
X51482669Y-51133796D01*
X51482670Y-51133796D01*
X51485925Y-51136233D01*
X51527796Y-51192167D01*
X51532780Y-51261859D01*
X51499295Y-51323182D01*
X51437971Y-51356666D01*
X51411614Y-51359500D01*
X51305354Y-51359500D01*
X51272897Y-51366398D01*
X51120197Y-51398855D01*
X51120192Y-51398857D01*
X50947270Y-51475848D01*
X50947265Y-51475851D01*
X50794129Y-51587111D01*
X50667466Y-51727785D01*
X50572821Y-51891715D01*
X50572818Y-51891722D01*
X50514327Y-52071740D01*
X50514326Y-52071744D01*
X50494540Y-52260000D01*
X50514326Y-52448256D01*
X50514327Y-52448259D01*
X50572818Y-52628277D01*
X50572821Y-52628284D01*
X50667467Y-52792216D01*
X50769185Y-52905185D01*
X50794129Y-52932888D01*
X50947265Y-53044148D01*
X50947270Y-53044151D01*
X51120192Y-53121142D01*
X51120197Y-53121144D01*
X51305354Y-53160500D01*
X51305355Y-53160500D01*
X51494644Y-53160500D01*
X51494646Y-53160500D01*
X51679803Y-53121144D01*
X51852730Y-53044151D01*
X52005871Y-52932888D01*
X52008788Y-52929647D01*
X52011600Y-52926526D01*
X52071087Y-52889879D01*
X52103748Y-52885500D01*
X55342161Y-52885500D01*
X55409200Y-52905185D01*
X55454955Y-52957989D01*
X55464899Y-53027147D01*
X55449548Y-53071500D01*
X55362821Y-53221715D01*
X55362818Y-53221722D01*
X55329836Y-53323232D01*
X55304326Y-53401744D01*
X55284540Y-53590000D01*
X55304326Y-53778256D01*
X55304327Y-53778259D01*
X55362818Y-53958277D01*
X55362823Y-53958289D01*
X55432013Y-54078130D01*
X55448486Y-54146030D01*
X55425633Y-54212057D01*
X55370712Y-54255247D01*
X55301158Y-54261888D01*
X55239056Y-54229872D01*
X55236945Y-54227810D01*
X55108405Y-54099270D01*
X55108387Y-54099254D01*
X54879317Y-53927775D01*
X54879309Y-53927770D01*
X54628166Y-53790635D01*
X54628167Y-53790635D01*
X54410091Y-53709297D01*
X54360046Y-53690631D01*
X54360043Y-53690630D01*
X54360037Y-53690628D01*
X54080433Y-53629804D01*
X53866450Y-53614500D01*
X53866448Y-53614500D01*
X53723552Y-53614500D01*
X53723549Y-53614500D01*
X53509566Y-53629804D01*
X53229962Y-53690628D01*
X52961833Y-53790635D01*
X52710690Y-53927770D01*
X52710682Y-53927775D01*
X52481612Y-54099254D01*
X52481594Y-54099270D01*
X52279270Y-54301594D01*
X52279254Y-54301612D01*
X52107775Y-54530682D01*
X52107770Y-54530690D01*
X51970635Y-54781833D01*
X51870628Y-55049962D01*
X51809804Y-55329566D01*
X51789390Y-55614998D01*
X51789390Y-55615001D01*
X51809804Y-55900433D01*
X51870629Y-56180039D01*
X51870630Y-56180042D01*
X51870631Y-56180046D01*
X51886232Y-56221874D01*
X51928349Y-56334795D01*
X51933333Y-56404487D01*
X51899848Y-56465810D01*
X51838525Y-56499294D01*
X51768833Y-56494310D01*
X51762918Y-56491928D01*
X51745898Y-56484562D01*
X51745892Y-56484560D01*
X51699874Y-56477272D01*
X51694152Y-56476087D01*
X51649021Y-56464500D01*
X51649019Y-56464500D01*
X51628984Y-56464500D01*
X51609586Y-56462973D01*
X51602162Y-56461797D01*
X51589805Y-56459840D01*
X51589804Y-56459840D01*
X51543416Y-56464225D01*
X51537578Y-56464500D01*
X36996213Y-56464500D01*
X36929174Y-56444815D01*
X36925090Y-56442075D01*
X36787831Y-56345965D01*
X36787829Y-56345964D01*
X36623263Y-56269226D01*
X36573663Y-56246097D01*
X36573659Y-56246096D01*
X36573655Y-56246094D01*
X36345413Y-56184938D01*
X36345403Y-56184936D01*
X36110001Y-56164341D01*
X36109999Y-56164341D01*
X35874596Y-56184936D01*
X35874586Y-56184938D01*
X35646344Y-56246094D01*
X35646335Y-56246098D01*
X35432171Y-56345964D01*
X35432169Y-56345965D01*
X35238597Y-56481505D01*
X35071506Y-56648596D01*
X35071072Y-56649217D01*
X35070808Y-56649427D01*
X35068026Y-56652744D01*
X35067359Y-56652184D01*
X35016493Y-56692840D01*
X34946994Y-56700029D01*
X34884641Y-56668504D01*
X34849230Y-56608273D01*
X34845500Y-56578089D01*
X34845500Y-46201243D01*
X37619500Y-46201243D01*
X37660382Y-46419940D01*
X37740752Y-46627398D01*
X37740754Y-46627404D01*
X37857874Y-46816560D01*
X37857876Y-46816562D01*
X38007761Y-46980979D01*
X38185308Y-47115056D01*
X38185316Y-47115061D01*
X38384461Y-47214224D01*
X38384465Y-47214225D01*
X38384472Y-47214229D01*
X38598464Y-47275115D01*
X38764497Y-47290500D01*
X38764501Y-47290500D01*
X39175499Y-47290500D01*
X39175503Y-47290500D01*
X39341536Y-47275115D01*
X39555528Y-47214229D01*
X39754689Y-47115058D01*
X39932236Y-46980981D01*
X40082124Y-46816562D01*
X40199247Y-46627401D01*
X40279618Y-46419940D01*
X40320500Y-46201243D01*
X40320500Y-45978757D01*
X40279618Y-45760060D01*
X40199247Y-45552599D01*
X40174197Y-45512142D01*
X40120286Y-45425072D01*
X40101731Y-45357712D01*
X40122539Y-45291012D01*
X40176104Y-45246151D01*
X40244194Y-45237180D01*
X40332565Y-45250500D01*
X40587435Y-45250500D01*
X40839458Y-45212513D01*
X41083004Y-45137389D01*
X41312634Y-45026805D01*
X41475351Y-44915866D01*
X41541828Y-44894366D01*
X41609378Y-44912220D01*
X41656553Y-44963760D01*
X41668373Y-45032622D01*
X41662669Y-45058033D01*
X41563785Y-45350521D01*
X41495319Y-45675789D01*
X41495319Y-45675794D01*
X41465805Y-46006853D01*
X41475655Y-46339112D01*
X41524731Y-46667857D01*
X41524732Y-46667862D01*
X41612345Y-46988494D01*
X41612346Y-46988498D01*
X41737264Y-47296511D01*
X41737269Y-47296522D01*
X41897740Y-47587599D01*
X41897740Y-47587600D01*
X42091520Y-47857667D01*
X42091529Y-47857677D01*
X42206737Y-47983612D01*
X42315877Y-48102914D01*
X42567666Y-48319906D01*
X42567671Y-48319909D01*
X42567677Y-48319914D01*
X42728625Y-48428320D01*
X42843353Y-48505595D01*
X43139067Y-48657374D01*
X43450656Y-48773113D01*
X43773747Y-48851187D01*
X44103805Y-48890500D01*
X44103812Y-48890500D01*
X44353025Y-48890500D01*
X44415218Y-48886809D01*
X44601807Y-48875736D01*
X44928956Y-48816939D01*
X45246854Y-48719862D01*
X45551040Y-48585868D01*
X45837243Y-48416837D01*
X46101445Y-48215142D01*
X46339937Y-47983616D01*
X46549373Y-47725506D01*
X46726810Y-47444438D01*
X46869760Y-47144357D01*
X46976215Y-46829475D01*
X47044680Y-46504212D01*
X47071689Y-46201243D01*
X48219500Y-46201243D01*
X48260382Y-46419940D01*
X48340752Y-46627398D01*
X48340754Y-46627404D01*
X48457874Y-46816560D01*
X48457876Y-46816562D01*
X48607761Y-46980979D01*
X48785308Y-47115056D01*
X48785316Y-47115061D01*
X48984461Y-47214224D01*
X48984465Y-47214225D01*
X48984472Y-47214229D01*
X49198464Y-47275115D01*
X49364497Y-47290500D01*
X49364501Y-47290500D01*
X49775499Y-47290500D01*
X49775503Y-47290500D01*
X49941536Y-47275115D01*
X50155528Y-47214229D01*
X50354689Y-47115058D01*
X50532236Y-46980981D01*
X50682124Y-46816562D01*
X50799247Y-46627401D01*
X50879618Y-46419940D01*
X50920500Y-46201243D01*
X50920500Y-45978757D01*
X50879618Y-45760060D01*
X50799247Y-45552599D01*
X50774197Y-45512142D01*
X50682125Y-45363439D01*
X50682123Y-45363437D01*
X50532238Y-45199020D01*
X50354691Y-45064943D01*
X50354683Y-45064938D01*
X50155538Y-44965775D01*
X50155523Y-44965769D01*
X49941537Y-44904885D01*
X49941535Y-44904884D01*
X49823653Y-44893961D01*
X49775503Y-44889500D01*
X49364497Y-44889500D01*
X49319601Y-44893660D01*
X49198464Y-44904884D01*
X49198462Y-44904885D01*
X48984476Y-44965769D01*
X48984461Y-44965775D01*
X48785316Y-45064938D01*
X48785308Y-45064943D01*
X48607761Y-45199020D01*
X48457876Y-45363437D01*
X48457874Y-45363439D01*
X48340754Y-45552595D01*
X48340753Y-45552599D01*
X48260382Y-45760060D01*
X48219500Y-45978757D01*
X48219500Y-46201243D01*
X47071689Y-46201243D01*
X47074195Y-46173134D01*
X47064345Y-45840890D01*
X47015269Y-45512142D01*
X46927655Y-45191506D01*
X46802733Y-44883483D01*
X46642258Y-44592397D01*
X46448481Y-44322335D01*
X46448479Y-44322332D01*
X46448470Y-44322322D01*
X46243666Y-44098449D01*
X46224123Y-44077086D01*
X46212852Y-44067373D01*
X45972336Y-43860096D01*
X45972334Y-43860094D01*
X45972330Y-43860091D01*
X45972322Y-43860085D01*
X45696653Y-43674409D01*
X45696652Y-43674408D01*
X45696649Y-43674406D01*
X45696647Y-43674405D01*
X45400933Y-43522626D01*
X45400928Y-43522624D01*
X45400926Y-43522623D01*
X45089348Y-43406888D01*
X44766254Y-43328813D01*
X44766249Y-43328812D01*
X44626687Y-43312189D01*
X44436195Y-43289500D01*
X44186977Y-43289500D01*
X44186975Y-43289500D01*
X43938198Y-43304263D01*
X43938191Y-43304264D01*
X43611043Y-43363061D01*
X43293142Y-43460139D01*
X42988960Y-43594131D01*
X42988955Y-43594134D01*
X42702765Y-43763157D01*
X42702748Y-43763169D01*
X42438553Y-43964859D01*
X42438544Y-43964867D01*
X42316329Y-44083513D01*
X42254517Y-44116086D01*
X42184907Y-44110069D01*
X42129600Y-44067373D01*
X42106155Y-44001554D01*
X42109066Y-43966949D01*
X42133454Y-43860096D01*
X42146222Y-43804157D01*
X42165268Y-43550000D01*
X42163216Y-43522623D01*
X42146222Y-43295845D01*
X42144898Y-43290045D01*
X42089508Y-43047363D01*
X41996393Y-42810112D01*
X41868959Y-42589388D01*
X41710050Y-42390123D01*
X41523217Y-42216768D01*
X41312634Y-42073195D01*
X41312630Y-42073193D01*
X41312627Y-42073191D01*
X41312626Y-42073190D01*
X41083006Y-41962612D01*
X41083008Y-41962612D01*
X40839466Y-41887489D01*
X40839462Y-41887488D01*
X40839458Y-41887487D01*
X40718231Y-41869214D01*
X40587440Y-41849500D01*
X40587435Y-41849500D01*
X40332565Y-41849500D01*
X40332559Y-41849500D01*
X40175609Y-41873157D01*
X40080542Y-41887487D01*
X40080538Y-41887488D01*
X40080539Y-41887488D01*
X40080533Y-41887489D01*
X39836992Y-41962612D01*
X39607373Y-42073190D01*
X39607372Y-42073191D01*
X39396782Y-42216768D01*
X39209952Y-42390121D01*
X39209950Y-42390123D01*
X39051041Y-42589388D01*
X38923608Y-42810109D01*
X38830492Y-43047362D01*
X38830490Y-43047369D01*
X38773777Y-43295845D01*
X38754732Y-43549995D01*
X38754732Y-43550004D01*
X38773777Y-43804154D01*
X38818832Y-44001554D01*
X38830492Y-44052637D01*
X38923607Y-44289888D01*
X39051041Y-44510612D01*
X39116265Y-44592400D01*
X39192653Y-44688187D01*
X39219061Y-44752874D01*
X39206306Y-44821569D01*
X39158435Y-44872463D01*
X39095706Y-44889500D01*
X38764497Y-44889500D01*
X38719601Y-44893660D01*
X38598464Y-44904884D01*
X38598462Y-44904885D01*
X38384476Y-44965769D01*
X38384461Y-44965775D01*
X38185316Y-45064938D01*
X38185308Y-45064943D01*
X38007761Y-45199020D01*
X37857876Y-45363437D01*
X37857874Y-45363439D01*
X37740754Y-45552595D01*
X37740753Y-45552599D01*
X37660382Y-45760060D01*
X37619500Y-45978757D01*
X37619500Y-46201243D01*
X34845500Y-46201243D01*
X34845500Y-40990004D01*
X45104732Y-40990004D01*
X45123777Y-41244154D01*
X45134230Y-41289953D01*
X45180492Y-41492637D01*
X45273607Y-41729888D01*
X45401041Y-41950612D01*
X45559950Y-42149877D01*
X45746783Y-42323232D01*
X45957366Y-42466805D01*
X45957371Y-42466807D01*
X45957372Y-42466808D01*
X45957373Y-42466809D01*
X46060945Y-42516686D01*
X46186992Y-42577387D01*
X46186993Y-42577387D01*
X46186996Y-42577389D01*
X46430542Y-42652513D01*
X46682565Y-42690500D01*
X46988789Y-42690500D01*
X46988798Y-42690499D01*
X49140361Y-42690499D01*
X49140389Y-42690500D01*
X49142565Y-42690500D01*
X49397435Y-42690500D01*
X49649458Y-42652513D01*
X49893004Y-42577389D01*
X50122634Y-42466805D01*
X50333217Y-42323232D01*
X50520050Y-42149877D01*
X50678959Y-41950612D01*
X50806393Y-41729888D01*
X50814402Y-41709479D01*
X50857216Y-41654268D01*
X50923085Y-41630966D01*
X50991096Y-41646974D01*
X51017511Y-41667101D01*
X51225586Y-41875176D01*
X51259071Y-41936499D01*
X51257681Y-41994948D01*
X51239365Y-42063307D01*
X51239364Y-42063313D01*
X51219532Y-42289999D01*
X51219532Y-42290001D01*
X51239364Y-42516686D01*
X51239366Y-42516697D01*
X51298258Y-42736488D01*
X51298261Y-42736497D01*
X51394431Y-42942732D01*
X51394432Y-42942734D01*
X51524954Y-43129141D01*
X51685858Y-43290045D01*
X51685861Y-43290047D01*
X51872266Y-43420568D01*
X52078504Y-43516739D01*
X52078509Y-43516740D01*
X52078511Y-43516741D01*
X52131415Y-43530916D01*
X52298308Y-43575635D01*
X52460230Y-43589801D01*
X52524998Y-43595468D01*
X52525000Y-43595468D01*
X52525002Y-43595468D01*
X52581672Y-43590509D01*
X52751692Y-43575635D01*
X52971496Y-43516739D01*
X53177734Y-43420568D01*
X53364139Y-43290047D01*
X53525047Y-43129139D01*
X53655568Y-42942734D01*
X53682618Y-42884724D01*
X53728790Y-42832285D01*
X53795983Y-42813133D01*
X53862865Y-42833348D01*
X53907382Y-42884725D01*
X53934429Y-42942728D01*
X53934432Y-42942734D01*
X54064954Y-43129141D01*
X54225858Y-43290045D01*
X54225861Y-43290047D01*
X54412266Y-43420568D01*
X54618504Y-43516739D01*
X54618509Y-43516740D01*
X54618511Y-43516741D01*
X54671415Y-43530916D01*
X54838308Y-43575635D01*
X55000230Y-43589801D01*
X55064998Y-43595468D01*
X55065000Y-43595468D01*
X55065002Y-43595468D01*
X55121672Y-43590509D01*
X55291692Y-43575635D01*
X55511496Y-43516739D01*
X55717734Y-43420568D01*
X55904139Y-43290047D01*
X56065047Y-43129139D01*
X56195568Y-42942734D01*
X56291739Y-42736496D01*
X56350635Y-42516692D01*
X56370468Y-42290000D01*
X56350635Y-42063308D01*
X56332318Y-41994947D01*
X56333981Y-41925101D01*
X56364408Y-41875180D01*
X56587772Y-41651816D01*
X56649094Y-41618334D01*
X56675452Y-41615500D01*
X59280389Y-41615500D01*
X59347428Y-41635185D01*
X59393183Y-41687989D01*
X59403127Y-41757147D01*
X59374102Y-41820703D01*
X59315324Y-41858477D01*
X59298870Y-41862115D01*
X59130542Y-41887487D01*
X59130538Y-41887488D01*
X59130539Y-41887488D01*
X59130533Y-41887489D01*
X58886992Y-41962612D01*
X58657373Y-42073190D01*
X58657372Y-42073191D01*
X58446782Y-42216768D01*
X58259952Y-42390121D01*
X58259950Y-42390123D01*
X58101041Y-42589388D01*
X57973608Y-42810109D01*
X57880492Y-43047362D01*
X57880490Y-43047369D01*
X57823777Y-43295845D01*
X57804732Y-43549995D01*
X57804732Y-43550004D01*
X57823777Y-43804154D01*
X57868832Y-44001554D01*
X57880492Y-44052637D01*
X57973607Y-44289888D01*
X58101041Y-44510612D01*
X58166265Y-44592400D01*
X58242653Y-44688187D01*
X58269061Y-44752874D01*
X58256306Y-44821569D01*
X58208435Y-44872463D01*
X58145706Y-44889500D01*
X57814497Y-44889500D01*
X57769601Y-44893660D01*
X57648464Y-44904884D01*
X57648462Y-44904885D01*
X57434476Y-44965769D01*
X57434461Y-44965775D01*
X57235316Y-45064938D01*
X57235308Y-45064943D01*
X57057761Y-45199020D01*
X56907876Y-45363437D01*
X56907874Y-45363439D01*
X56790754Y-45552595D01*
X56790753Y-45552599D01*
X56710382Y-45760060D01*
X56669500Y-45978757D01*
X56669500Y-46201243D01*
X56710382Y-46419940D01*
X56790752Y-46627398D01*
X56790754Y-46627404D01*
X56907874Y-46816560D01*
X56907876Y-46816562D01*
X57057761Y-46980979D01*
X57235308Y-47115056D01*
X57235316Y-47115061D01*
X57434461Y-47214224D01*
X57434465Y-47214225D01*
X57434472Y-47214229D01*
X57648464Y-47275115D01*
X57814497Y-47290500D01*
X57814501Y-47290500D01*
X58225499Y-47290500D01*
X58225503Y-47290500D01*
X58391536Y-47275115D01*
X58605528Y-47214229D01*
X58804689Y-47115058D01*
X58982236Y-46980981D01*
X59132124Y-46816562D01*
X59249247Y-46627401D01*
X59329618Y-46419940D01*
X59370500Y-46201243D01*
X59370500Y-45978757D01*
X59329618Y-45760060D01*
X59249247Y-45552599D01*
X59224197Y-45512142D01*
X59170286Y-45425072D01*
X59151731Y-45357712D01*
X59172539Y-45291012D01*
X59226104Y-45246151D01*
X59294194Y-45237180D01*
X59382565Y-45250500D01*
X59637435Y-45250500D01*
X59889458Y-45212513D01*
X60133004Y-45137389D01*
X60362634Y-45026805D01*
X60525351Y-44915866D01*
X60591828Y-44894366D01*
X60659378Y-44912220D01*
X60706553Y-44963760D01*
X60718373Y-45032622D01*
X60712669Y-45058033D01*
X60613785Y-45350521D01*
X60545319Y-45675789D01*
X60545319Y-45675794D01*
X60515805Y-46006853D01*
X60525655Y-46339112D01*
X60574731Y-46667857D01*
X60574732Y-46667862D01*
X60662345Y-46988494D01*
X60662346Y-46988498D01*
X60787264Y-47296511D01*
X60787269Y-47296522D01*
X60947740Y-47587599D01*
X60947740Y-47587600D01*
X61141520Y-47857667D01*
X61141529Y-47857677D01*
X61256737Y-47983612D01*
X61365877Y-48102914D01*
X61617666Y-48319906D01*
X61617671Y-48319909D01*
X61617677Y-48319914D01*
X61778625Y-48428320D01*
X61893353Y-48505595D01*
X62189067Y-48657374D01*
X62500656Y-48773113D01*
X62823747Y-48851187D01*
X63153805Y-48890500D01*
X63153812Y-48890500D01*
X63403025Y-48890500D01*
X63465218Y-48886809D01*
X63651807Y-48875736D01*
X63978956Y-48816939D01*
X64296854Y-48719862D01*
X64601040Y-48585868D01*
X64887243Y-48416837D01*
X65151445Y-48215142D01*
X65389937Y-47983616D01*
X65599373Y-47725506D01*
X65776810Y-47444438D01*
X65919760Y-47144357D01*
X66026215Y-46829475D01*
X66094680Y-46504212D01*
X66121689Y-46201243D01*
X67269500Y-46201243D01*
X67310382Y-46419940D01*
X67390752Y-46627398D01*
X67390754Y-46627404D01*
X67507874Y-46816560D01*
X67507876Y-46816562D01*
X67657761Y-46980979D01*
X67835308Y-47115056D01*
X67835316Y-47115061D01*
X68034461Y-47214224D01*
X68034465Y-47214225D01*
X68034472Y-47214229D01*
X68248464Y-47275115D01*
X68414497Y-47290500D01*
X68414501Y-47290500D01*
X68825499Y-47290500D01*
X68825503Y-47290500D01*
X68991536Y-47275115D01*
X69205528Y-47214229D01*
X69404689Y-47115058D01*
X69582236Y-46980981D01*
X69732124Y-46816562D01*
X69849247Y-46627401D01*
X69929618Y-46419940D01*
X69970500Y-46201243D01*
X69970500Y-45978757D01*
X69929618Y-45760060D01*
X69849247Y-45552599D01*
X69824197Y-45512142D01*
X69732125Y-45363439D01*
X69732123Y-45363437D01*
X69582238Y-45199020D01*
X69404691Y-45064943D01*
X69404683Y-45064938D01*
X69205538Y-44965775D01*
X69205523Y-44965769D01*
X68991537Y-44904885D01*
X68991535Y-44904884D01*
X68873653Y-44893961D01*
X68825503Y-44889500D01*
X68414497Y-44889500D01*
X68369601Y-44893660D01*
X68248464Y-44904884D01*
X68248462Y-44904885D01*
X68034476Y-44965769D01*
X68034461Y-44965775D01*
X67835316Y-45064938D01*
X67835308Y-45064943D01*
X67657761Y-45199020D01*
X67507876Y-45363437D01*
X67507874Y-45363439D01*
X67390754Y-45552595D01*
X67390753Y-45552599D01*
X67310382Y-45760060D01*
X67269500Y-45978757D01*
X67269500Y-46201243D01*
X66121689Y-46201243D01*
X66124195Y-46173134D01*
X66114345Y-45840890D01*
X66065269Y-45512142D01*
X65977655Y-45191506D01*
X65852733Y-44883483D01*
X65692258Y-44592397D01*
X65498481Y-44322335D01*
X65498479Y-44322332D01*
X65498470Y-44322322D01*
X65293666Y-44098449D01*
X65274123Y-44077086D01*
X65262852Y-44067373D01*
X65022336Y-43860096D01*
X65022334Y-43860094D01*
X65022330Y-43860091D01*
X65022322Y-43860085D01*
X64746653Y-43674409D01*
X64746652Y-43674408D01*
X64746649Y-43674406D01*
X64746647Y-43674405D01*
X64450933Y-43522626D01*
X64450928Y-43522624D01*
X64450926Y-43522623D01*
X64139348Y-43406888D01*
X63816254Y-43328813D01*
X63816249Y-43328812D01*
X63676687Y-43312189D01*
X63486195Y-43289500D01*
X63236977Y-43289500D01*
X63236975Y-43289500D01*
X62988198Y-43304263D01*
X62988191Y-43304264D01*
X62661043Y-43363061D01*
X62343142Y-43460139D01*
X62038960Y-43594131D01*
X62038955Y-43594134D01*
X61752765Y-43763157D01*
X61752748Y-43763169D01*
X61488553Y-43964859D01*
X61488544Y-43964867D01*
X61366329Y-44083513D01*
X61304517Y-44116086D01*
X61234907Y-44110069D01*
X61179600Y-44067373D01*
X61156155Y-44001554D01*
X61159066Y-43966949D01*
X61183454Y-43860096D01*
X61196222Y-43804157D01*
X61215268Y-43550000D01*
X61213216Y-43522623D01*
X61196222Y-43295845D01*
X61194898Y-43290045D01*
X61139508Y-43047363D01*
X61046393Y-42810112D01*
X60918959Y-42589388D01*
X60760050Y-42390123D01*
X60573217Y-42216768D01*
X60362634Y-42073195D01*
X60362630Y-42073193D01*
X60362627Y-42073191D01*
X60362626Y-42073190D01*
X60133006Y-41962612D01*
X60133008Y-41962612D01*
X59889466Y-41887489D01*
X59889462Y-41887488D01*
X59889458Y-41887487D01*
X59721129Y-41862115D01*
X59657772Y-41832658D01*
X59620399Y-41773624D01*
X59620874Y-41703756D01*
X59659048Y-41645237D01*
X59722800Y-41616645D01*
X59739611Y-41615500D01*
X64194172Y-41615500D01*
X64261211Y-41635185D01*
X64306966Y-41687989D01*
X64309588Y-41694170D01*
X64323607Y-41729888D01*
X64451041Y-41950612D01*
X64609950Y-42149877D01*
X64796783Y-42323232D01*
X65007366Y-42466805D01*
X65007371Y-42466807D01*
X65007372Y-42466808D01*
X65007373Y-42466809D01*
X65110945Y-42516686D01*
X65236992Y-42577387D01*
X65236993Y-42577387D01*
X65236996Y-42577389D01*
X65480542Y-42652513D01*
X65732565Y-42690500D01*
X66038789Y-42690500D01*
X66038798Y-42690499D01*
X68190361Y-42690499D01*
X68190389Y-42690500D01*
X68192565Y-42690500D01*
X68447435Y-42690500D01*
X68699458Y-42652513D01*
X68943004Y-42577389D01*
X69172634Y-42466805D01*
X69383217Y-42323232D01*
X69570050Y-42149877D01*
X69728959Y-41950612D01*
X69856393Y-41729888D01*
X69949508Y-41492637D01*
X70006222Y-41244157D01*
X70022944Y-41021016D01*
X70025268Y-40990004D01*
X70025268Y-40989995D01*
X70006222Y-40735845D01*
X69976634Y-40606212D01*
X69949508Y-40487363D01*
X69856393Y-40250112D01*
X69728959Y-40029388D01*
X69570050Y-39830123D01*
X69383217Y-39656768D01*
X69172634Y-39513195D01*
X69172630Y-39513193D01*
X69172627Y-39513191D01*
X69172626Y-39513190D01*
X68943006Y-39402612D01*
X68943008Y-39402612D01*
X68699466Y-39327489D01*
X68699462Y-39327488D01*
X68699458Y-39327487D01*
X68578231Y-39309214D01*
X68447440Y-39289500D01*
X68447435Y-39289500D01*
X68192565Y-39289500D01*
X68192564Y-39289500D01*
X65987441Y-39289500D01*
X65987435Y-39289500D01*
X65732565Y-39289500D01*
X65732559Y-39289500D01*
X65575609Y-39313157D01*
X65480542Y-39327487D01*
X65480538Y-39327488D01*
X65480539Y-39327488D01*
X65480533Y-39327489D01*
X65236992Y-39402612D01*
X65007373Y-39513190D01*
X65007372Y-39513191D01*
X64796782Y-39656768D01*
X64609952Y-39830121D01*
X64609950Y-39830123D01*
X64451041Y-40029388D01*
X64323609Y-40250107D01*
X64323607Y-40250111D01*
X64323607Y-40250112D01*
X64309599Y-40285803D01*
X64266785Y-40341015D01*
X64200915Y-40364317D01*
X64194172Y-40364500D01*
X56447743Y-40364500D01*
X56432122Y-40362775D01*
X56432095Y-40363061D01*
X56424333Y-40362326D01*
X56356140Y-40364469D01*
X56354193Y-40364500D01*
X56325649Y-40364500D01*
X56318778Y-40365367D01*
X56312959Y-40365825D01*
X56266374Y-40367289D01*
X56266368Y-40367290D01*
X56247126Y-40372880D01*
X56228087Y-40376823D01*
X56208217Y-40379334D01*
X56208203Y-40379337D01*
X56164883Y-40396488D01*
X56159358Y-40398380D01*
X56114613Y-40411380D01*
X56114610Y-40411381D01*
X56097366Y-40421579D01*
X56079905Y-40430133D01*
X56061274Y-40437510D01*
X56061262Y-40437517D01*
X56023570Y-40464902D01*
X56018687Y-40468109D01*
X55978580Y-40491829D01*
X55964414Y-40505995D01*
X55949624Y-40518627D01*
X55933414Y-40530404D01*
X55933411Y-40530407D01*
X55903710Y-40566309D01*
X55899777Y-40570631D01*
X55479821Y-40990586D01*
X55418498Y-41024071D01*
X55360048Y-41022680D01*
X55291697Y-41004366D01*
X55291693Y-41004365D01*
X55291692Y-41004365D01*
X55178345Y-40994448D01*
X55065001Y-40984532D01*
X55064998Y-40984532D01*
X54838313Y-41004364D01*
X54838302Y-41004366D01*
X54618511Y-41063258D01*
X54618502Y-41063261D01*
X54412267Y-41159431D01*
X54412265Y-41159432D01*
X54225858Y-41289954D01*
X54064954Y-41450858D01*
X53934432Y-41637265D01*
X53934431Y-41637267D01*
X53907382Y-41695275D01*
X53861209Y-41747714D01*
X53794016Y-41766866D01*
X53727135Y-41746650D01*
X53682618Y-41695275D01*
X53682116Y-41694199D01*
X53655568Y-41637266D01*
X53525047Y-41450861D01*
X53525045Y-41450858D01*
X53364141Y-41289954D01*
X53177734Y-41159432D01*
X53177732Y-41159431D01*
X52971497Y-41063261D01*
X52971488Y-41063258D01*
X52751697Y-41004366D01*
X52751693Y-41004365D01*
X52751692Y-41004365D01*
X52751691Y-41004364D01*
X52751686Y-41004364D01*
X52525002Y-40984532D01*
X52524999Y-40984532D01*
X52298313Y-41004364D01*
X52298296Y-41004367D01*
X52229949Y-41022680D01*
X52160099Y-41021016D01*
X52110177Y-40990586D01*
X51725803Y-40606212D01*
X51715980Y-40593950D01*
X51715759Y-40594134D01*
X51710786Y-40588122D01*
X51661066Y-40541432D01*
X51659666Y-40540075D01*
X51639476Y-40519884D01*
X51633986Y-40515625D01*
X51629561Y-40511847D01*
X51595582Y-40479938D01*
X51595580Y-40479936D01*
X51595577Y-40479935D01*
X51578029Y-40470288D01*
X51561763Y-40459604D01*
X51545933Y-40447325D01*
X51503168Y-40428818D01*
X51497922Y-40426248D01*
X51457093Y-40403803D01*
X51457092Y-40403802D01*
X51437693Y-40398822D01*
X51419281Y-40392518D01*
X51400898Y-40384562D01*
X51400892Y-40384560D01*
X51354874Y-40377272D01*
X51349152Y-40376087D01*
X51304021Y-40364500D01*
X51304019Y-40364500D01*
X51283984Y-40364500D01*
X51264586Y-40362973D01*
X51257162Y-40361797D01*
X51244805Y-40359840D01*
X51244804Y-40359840D01*
X51198416Y-40364225D01*
X51192578Y-40364500D01*
X50935828Y-40364500D01*
X50868789Y-40344815D01*
X50823034Y-40292011D01*
X50820411Y-40285829D01*
X50806393Y-40250112D01*
X50678959Y-40029388D01*
X50520050Y-39830123D01*
X50333217Y-39656768D01*
X50122634Y-39513195D01*
X50122630Y-39513193D01*
X50122627Y-39513191D01*
X50122626Y-39513190D01*
X49893006Y-39402612D01*
X49893008Y-39402612D01*
X49649466Y-39327489D01*
X49649462Y-39327488D01*
X49649458Y-39327487D01*
X49528231Y-39309214D01*
X49397440Y-39289500D01*
X49397435Y-39289500D01*
X49142565Y-39289500D01*
X49142564Y-39289500D01*
X46937441Y-39289500D01*
X46937435Y-39289500D01*
X46682565Y-39289500D01*
X46682559Y-39289500D01*
X46525609Y-39313157D01*
X46430542Y-39327487D01*
X46430538Y-39327488D01*
X46430539Y-39327488D01*
X46430533Y-39327489D01*
X46186992Y-39402612D01*
X45957373Y-39513190D01*
X45957372Y-39513191D01*
X45746782Y-39656768D01*
X45559952Y-39830121D01*
X45559950Y-39830123D01*
X45401041Y-40029388D01*
X45273608Y-40250109D01*
X45180492Y-40487362D01*
X45180490Y-40487369D01*
X45123777Y-40735845D01*
X45104732Y-40989995D01*
X45104732Y-40990004D01*
X34845500Y-40990004D01*
X34845500Y-37068480D01*
X34845890Y-37061537D01*
X34848471Y-37038629D01*
X34858933Y-36959163D01*
X34864827Y-36934407D01*
X34876775Y-36900263D01*
X34878006Y-36897035D01*
X34900474Y-36842794D01*
X34910021Y-36824313D01*
X34931922Y-36789459D01*
X34935197Y-36784752D01*
X34972003Y-36736786D01*
X34977323Y-36730718D01*
X35010718Y-36697323D01*
X35016786Y-36692003D01*
X35064752Y-36655197D01*
X35069459Y-36651922D01*
X35104313Y-36630021D01*
X35122794Y-36620474D01*
X35177035Y-36598006D01*
X35180263Y-36596775D01*
X35183351Y-36595694D01*
X35214407Y-36584827D01*
X35239163Y-36578933D01*
X35318629Y-36568471D01*
X35341541Y-36565889D01*
X35348481Y-36565500D01*
X72341519Y-36565500D01*
X72348456Y-36565889D01*
G37*
G04 #@! TD.AperFunction*
G04 #@! TA.AperFunction,NonConductor*
G36*
X70128885Y-59401090D02*
G01*
X70158252Y-59422842D01*
X70918181Y-60182771D01*
X70951666Y-60244094D01*
X70954500Y-60270452D01*
X70954500Y-62937255D01*
X70952775Y-62952872D01*
X70953061Y-62952899D01*
X70952326Y-62960666D01*
X70954469Y-63028846D01*
X70954500Y-63030793D01*
X70954500Y-63059343D01*
X70954501Y-63059360D01*
X70955368Y-63066231D01*
X70955826Y-63072050D01*
X70957290Y-63118624D01*
X70957291Y-63118627D01*
X70962880Y-63137867D01*
X70966824Y-63156911D01*
X70969336Y-63176792D01*
X70980344Y-63204596D01*
X70986490Y-63220119D01*
X70988382Y-63225647D01*
X71001381Y-63270388D01*
X71011580Y-63287634D01*
X71020138Y-63305103D01*
X71027514Y-63323732D01*
X71054898Y-63361423D01*
X71058106Y-63366307D01*
X71081827Y-63406416D01*
X71081833Y-63406424D01*
X71095990Y-63420580D01*
X71108628Y-63435376D01*
X71120405Y-63451586D01*
X71120406Y-63451587D01*
X71156309Y-63481288D01*
X71160620Y-63485210D01*
X72385409Y-64710000D01*
X72769197Y-65093788D01*
X72779022Y-65106051D01*
X72779243Y-65105869D01*
X72784211Y-65111874D01*
X72784213Y-65111876D01*
X72784214Y-65111877D01*
X72810095Y-65136181D01*
X72833932Y-65158566D01*
X72835332Y-65159923D01*
X72855523Y-65180115D01*
X72855527Y-65180118D01*
X72855529Y-65180120D01*
X72861011Y-65184373D01*
X72865443Y-65188157D01*
X72899418Y-65220062D01*
X72916976Y-65229714D01*
X72933233Y-65240393D01*
X72949064Y-65252673D01*
X72968737Y-65261186D01*
X72991833Y-65271182D01*
X72997077Y-65273750D01*
X73037908Y-65296197D01*
X73050523Y-65299435D01*
X73057305Y-65301177D01*
X73075719Y-65307481D01*
X73094104Y-65315438D01*
X73140157Y-65322732D01*
X73145826Y-65323906D01*
X73190981Y-65335500D01*
X73211016Y-65335500D01*
X73230413Y-65337026D01*
X73250196Y-65340160D01*
X73296583Y-65335775D01*
X73302422Y-65335500D01*
X74375782Y-65335500D01*
X74442821Y-65355185D01*
X74488576Y-65407989D01*
X74498520Y-65477147D01*
X74488163Y-65511906D01*
X74486099Y-65516330D01*
X74486094Y-65516344D01*
X74424938Y-65744586D01*
X74424936Y-65744596D01*
X74404341Y-65979999D01*
X74404341Y-65980000D01*
X74424936Y-66215403D01*
X74424938Y-66215413D01*
X74486094Y-66443655D01*
X74486099Y-66443669D01*
X74488163Y-66448094D01*
X74498656Y-66517171D01*
X74470137Y-66580955D01*
X74411661Y-66619196D01*
X74375782Y-66624500D01*
X73242743Y-66624500D01*
X73227122Y-66622775D01*
X73227095Y-66623061D01*
X73219333Y-66622326D01*
X73151140Y-66624469D01*
X73149193Y-66624500D01*
X73120649Y-66624500D01*
X73113778Y-66625367D01*
X73107959Y-66625825D01*
X73061374Y-66627289D01*
X73061368Y-66627290D01*
X73042126Y-66632880D01*
X73023087Y-66636823D01*
X73003217Y-66639334D01*
X73003203Y-66639337D01*
X72959883Y-66656488D01*
X72954358Y-66658380D01*
X72909613Y-66671380D01*
X72909610Y-66671381D01*
X72892366Y-66681579D01*
X72874905Y-66690133D01*
X72856274Y-66697510D01*
X72856262Y-66697517D01*
X72818570Y-66724902D01*
X72813687Y-66728109D01*
X72773580Y-66751829D01*
X72759414Y-66765995D01*
X72744624Y-66778627D01*
X72728414Y-66790404D01*
X72728411Y-66790407D01*
X72698710Y-66826309D01*
X72694777Y-66830631D01*
X71487228Y-68038181D01*
X71425905Y-68071666D01*
X71399547Y-68074500D01*
X64129892Y-68074500D01*
X64062853Y-68054815D01*
X64017098Y-68002011D01*
X64007154Y-67932853D01*
X64036179Y-67869297D01*
X64093675Y-67831906D01*
X64296854Y-67769862D01*
X64601040Y-67635868D01*
X64887243Y-67466837D01*
X65151445Y-67265142D01*
X65389937Y-67033616D01*
X65599373Y-66775506D01*
X65776810Y-66494438D01*
X65919760Y-66194357D01*
X66026215Y-65879475D01*
X66094680Y-65554212D01*
X66121689Y-65251243D01*
X67269500Y-65251243D01*
X67310382Y-65469940D01*
X67390752Y-65677398D01*
X67390754Y-65677404D01*
X67507874Y-65866560D01*
X67507876Y-65866562D01*
X67657761Y-66030979D01*
X67835308Y-66165056D01*
X67835316Y-66165061D01*
X68034461Y-66264224D01*
X68034465Y-66264225D01*
X68034472Y-66264229D01*
X68248464Y-66325115D01*
X68414497Y-66340500D01*
X68414501Y-66340500D01*
X68825499Y-66340500D01*
X68825503Y-66340500D01*
X68991536Y-66325115D01*
X69205528Y-66264229D01*
X69404689Y-66165058D01*
X69582236Y-66030981D01*
X69732124Y-65866562D01*
X69849247Y-65677401D01*
X69929618Y-65469940D01*
X69970500Y-65251243D01*
X69970500Y-65028757D01*
X69929618Y-64810060D01*
X69849247Y-64602599D01*
X69824197Y-64562142D01*
X69732125Y-64413439D01*
X69732123Y-64413437D01*
X69582238Y-64249020D01*
X69404691Y-64114943D01*
X69404683Y-64114938D01*
X69205538Y-64015775D01*
X69205523Y-64015769D01*
X68991537Y-63954885D01*
X68991535Y-63954884D01*
X68873653Y-63943961D01*
X68825503Y-63939500D01*
X68414497Y-63939500D01*
X68369601Y-63943660D01*
X68248464Y-63954884D01*
X68248462Y-63954885D01*
X68034476Y-64015769D01*
X68034461Y-64015775D01*
X67835316Y-64114938D01*
X67835308Y-64114943D01*
X67657761Y-64249020D01*
X67507876Y-64413437D01*
X67507874Y-64413439D01*
X67390754Y-64602595D01*
X67390752Y-64602601D01*
X67369999Y-64656172D01*
X67310382Y-64810060D01*
X67269500Y-65028757D01*
X67269500Y-65251243D01*
X66121689Y-65251243D01*
X66124195Y-65223134D01*
X66114345Y-64890890D01*
X66065269Y-64562142D01*
X65977655Y-64241506D01*
X65852733Y-63933483D01*
X65839556Y-63909582D01*
X65791825Y-63823002D01*
X65692258Y-63642397D01*
X65498481Y-63372335D01*
X65498479Y-63372332D01*
X65498470Y-63372322D01*
X65283977Y-63137858D01*
X65274123Y-63127086D01*
X65262852Y-63117373D01*
X65099200Y-62976337D01*
X65022334Y-62910094D01*
X65022330Y-62910091D01*
X65022322Y-62910085D01*
X64746653Y-62724409D01*
X64746652Y-62724408D01*
X64746649Y-62724406D01*
X64746647Y-62724405D01*
X64450933Y-62572626D01*
X64450928Y-62572624D01*
X64450926Y-62572623D01*
X64139348Y-62456888D01*
X63816254Y-62378813D01*
X63816249Y-62378812D01*
X63676687Y-62362189D01*
X63486195Y-62339500D01*
X63236977Y-62339500D01*
X63236975Y-62339500D01*
X62988198Y-62354263D01*
X62988191Y-62354264D01*
X62661043Y-62413061D01*
X62343142Y-62510139D01*
X62038960Y-62644131D01*
X62038955Y-62644134D01*
X61752765Y-62813157D01*
X61752748Y-62813169D01*
X61488553Y-63014859D01*
X61488544Y-63014867D01*
X61366329Y-63133513D01*
X61304517Y-63166086D01*
X61234907Y-63160069D01*
X61179600Y-63117373D01*
X61156155Y-63051554D01*
X61159066Y-63016949D01*
X61183454Y-62910096D01*
X61196222Y-62854157D01*
X61205245Y-62733755D01*
X61215268Y-62600004D01*
X61215268Y-62599995D01*
X61196222Y-62345845D01*
X61194898Y-62340045D01*
X61139508Y-62097363D01*
X61046393Y-61860112D01*
X60918959Y-61639388D01*
X60760050Y-61440123D01*
X60573217Y-61266768D01*
X60362634Y-61123195D01*
X60362630Y-61123193D01*
X60362627Y-61123191D01*
X60362626Y-61123190D01*
X60133006Y-61012612D01*
X60133008Y-61012612D01*
X59889466Y-60937489D01*
X59889462Y-60937488D01*
X59889458Y-60937487D01*
X59721129Y-60912115D01*
X59657772Y-60882658D01*
X59620399Y-60823624D01*
X59620874Y-60753756D01*
X59659048Y-60695237D01*
X59722800Y-60666645D01*
X59739611Y-60665500D01*
X64194172Y-60665500D01*
X64261211Y-60685185D01*
X64306966Y-60737989D01*
X64309588Y-60744170D01*
X64323607Y-60779888D01*
X64451041Y-61000612D01*
X64609950Y-61199877D01*
X64796783Y-61373232D01*
X65007366Y-61516805D01*
X65007371Y-61516807D01*
X65007372Y-61516808D01*
X65007373Y-61516809D01*
X65053861Y-61539196D01*
X65236992Y-61627387D01*
X65236993Y-61627387D01*
X65236996Y-61627389D01*
X65480542Y-61702513D01*
X65732565Y-61740500D01*
X66038789Y-61740500D01*
X66038798Y-61740499D01*
X68190361Y-61740499D01*
X68190389Y-61740500D01*
X68192565Y-61740500D01*
X68447435Y-61740500D01*
X68699458Y-61702513D01*
X68943004Y-61627389D01*
X69172634Y-61516805D01*
X69383217Y-61373232D01*
X69570050Y-61199877D01*
X69728959Y-61000612D01*
X69856393Y-60779888D01*
X69949508Y-60542637D01*
X70006222Y-60294157D01*
X70017362Y-60145500D01*
X70025268Y-60040004D01*
X70025268Y-60039995D01*
X70006222Y-59785845D01*
X69993835Y-59731575D01*
X69949679Y-59538116D01*
X69953953Y-59468377D01*
X69995252Y-59412019D01*
X70060464Y-59386936D01*
X70128885Y-59401090D01*
G37*
G04 #@! TD.AperFunction*
G04 #@! TA.AperFunction,NonConductor*
G36*
X45261325Y-59085185D02*
G01*
X45307080Y-59137989D01*
X45317024Y-59207147D01*
X45301673Y-59251500D01*
X45273608Y-59300109D01*
X45180492Y-59537362D01*
X45180490Y-59537369D01*
X45123777Y-59785845D01*
X45104732Y-60039995D01*
X45104732Y-60040004D01*
X45123777Y-60294154D01*
X45156229Y-60436337D01*
X45180492Y-60542637D01*
X45273607Y-60779888D01*
X45401041Y-61000612D01*
X45559950Y-61199877D01*
X45746783Y-61373232D01*
X45957366Y-61516805D01*
X45957371Y-61516807D01*
X45957372Y-61516808D01*
X45957373Y-61516809D01*
X46003861Y-61539196D01*
X46186992Y-61627387D01*
X46186993Y-61627387D01*
X46186996Y-61627389D01*
X46430542Y-61702513D01*
X46682565Y-61740500D01*
X46988789Y-61740500D01*
X46988798Y-61740499D01*
X49140361Y-61740499D01*
X49140389Y-61740500D01*
X49142565Y-61740500D01*
X49397435Y-61740500D01*
X49649458Y-61702513D01*
X49893004Y-61627389D01*
X50122634Y-61516805D01*
X50333217Y-61373232D01*
X50520050Y-61199877D01*
X50678959Y-61000612D01*
X50806393Y-60779888D01*
X50814402Y-60759479D01*
X50857216Y-60704268D01*
X50923085Y-60680966D01*
X50991096Y-60696974D01*
X51017511Y-60717101D01*
X51225586Y-60925176D01*
X51259071Y-60986499D01*
X51257681Y-61044948D01*
X51239365Y-61113307D01*
X51239364Y-61113313D01*
X51219532Y-61339999D01*
X51219532Y-61340001D01*
X51239364Y-61566686D01*
X51239366Y-61566697D01*
X51298258Y-61786488D01*
X51298261Y-61786497D01*
X51394431Y-61992732D01*
X51394432Y-61992734D01*
X51524954Y-62179141D01*
X51685858Y-62340045D01*
X51685861Y-62340047D01*
X51872266Y-62470568D01*
X52078504Y-62566739D01*
X52078509Y-62566740D01*
X52078511Y-62566741D01*
X52114388Y-62576354D01*
X52298308Y-62625635D01*
X52460230Y-62639801D01*
X52524998Y-62645468D01*
X52525000Y-62645468D01*
X52525002Y-62645468D01*
X52586128Y-62640120D01*
X52751692Y-62625635D01*
X52971496Y-62566739D01*
X53177734Y-62470568D01*
X53364139Y-62340047D01*
X53525047Y-62179139D01*
X53655568Y-61992734D01*
X53682618Y-61934724D01*
X53728790Y-61882285D01*
X53795983Y-61863133D01*
X53862865Y-61883348D01*
X53907382Y-61934725D01*
X53934429Y-61992728D01*
X53934432Y-61992734D01*
X54064954Y-62179141D01*
X54225858Y-62340045D01*
X54225861Y-62340047D01*
X54412266Y-62470568D01*
X54618504Y-62566739D01*
X54618509Y-62566740D01*
X54618511Y-62566741D01*
X54654388Y-62576354D01*
X54838308Y-62625635D01*
X55000230Y-62639801D01*
X55064998Y-62645468D01*
X55065000Y-62645468D01*
X55065002Y-62645468D01*
X55126128Y-62640120D01*
X55291692Y-62625635D01*
X55511496Y-62566739D01*
X55717734Y-62470568D01*
X55904139Y-62340047D01*
X56065047Y-62179139D01*
X56195568Y-61992734D01*
X56291739Y-61786496D01*
X56350635Y-61566692D01*
X56370468Y-61340000D01*
X56350635Y-61113308D01*
X56332318Y-61044947D01*
X56333981Y-60975101D01*
X56364408Y-60925180D01*
X56587772Y-60701816D01*
X56649094Y-60668334D01*
X56675452Y-60665500D01*
X59280389Y-60665500D01*
X59347428Y-60685185D01*
X59393183Y-60737989D01*
X59403127Y-60807147D01*
X59374102Y-60870703D01*
X59315324Y-60908477D01*
X59298870Y-60912115D01*
X59130542Y-60937487D01*
X59130538Y-60937488D01*
X59130539Y-60937488D01*
X59130533Y-60937489D01*
X58886992Y-61012612D01*
X58657373Y-61123190D01*
X58657372Y-61123191D01*
X58657366Y-61123194D01*
X58657366Y-61123195D01*
X58632639Y-61140053D01*
X58446782Y-61266768D01*
X58259952Y-61440121D01*
X58259950Y-61440123D01*
X58101041Y-61639388D01*
X57973608Y-61860109D01*
X57880492Y-62097362D01*
X57880490Y-62097369D01*
X57823777Y-62345845D01*
X57804732Y-62599995D01*
X57804732Y-62600004D01*
X57823777Y-62854154D01*
X57876198Y-63083827D01*
X57880492Y-63102637D01*
X57973607Y-63339888D01*
X58101041Y-63560612D01*
X58166265Y-63642400D01*
X58242653Y-63738187D01*
X58269061Y-63802874D01*
X58256306Y-63871569D01*
X58208435Y-63922463D01*
X58145706Y-63939500D01*
X57814497Y-63939500D01*
X57769601Y-63943660D01*
X57648464Y-63954884D01*
X57648462Y-63954885D01*
X57434476Y-64015769D01*
X57434461Y-64015775D01*
X57235316Y-64114938D01*
X57235308Y-64114943D01*
X57057761Y-64249020D01*
X56907876Y-64413437D01*
X56907874Y-64413439D01*
X56790754Y-64602595D01*
X56790752Y-64602601D01*
X56769999Y-64656172D01*
X56710382Y-64810060D01*
X56669500Y-65028757D01*
X56669500Y-65251243D01*
X56710382Y-65469940D01*
X56790752Y-65677398D01*
X56790754Y-65677404D01*
X56907874Y-65866560D01*
X56907876Y-65866562D01*
X57057761Y-66030979D01*
X57235308Y-66165056D01*
X57235316Y-66165061D01*
X57434461Y-66264224D01*
X57434465Y-66264225D01*
X57434472Y-66264229D01*
X57648464Y-66325115D01*
X57814497Y-66340500D01*
X57814501Y-66340500D01*
X58225499Y-66340500D01*
X58225503Y-66340500D01*
X58391536Y-66325115D01*
X58605528Y-66264229D01*
X58804689Y-66165058D01*
X58982236Y-66030981D01*
X59132124Y-65866562D01*
X59249247Y-65677401D01*
X59329618Y-65469940D01*
X59370500Y-65251243D01*
X59370500Y-65028757D01*
X59329618Y-64810060D01*
X59249247Y-64602599D01*
X59224197Y-64562142D01*
X59170286Y-64475072D01*
X59151731Y-64407712D01*
X59172539Y-64341012D01*
X59226104Y-64296151D01*
X59294194Y-64287180D01*
X59382565Y-64300500D01*
X59637435Y-64300500D01*
X59889458Y-64262513D01*
X60133004Y-64187389D01*
X60362634Y-64076805D01*
X60525351Y-63965866D01*
X60591828Y-63944366D01*
X60659378Y-63962220D01*
X60706553Y-64013760D01*
X60718373Y-64082622D01*
X60712669Y-64108033D01*
X60613785Y-64400521D01*
X60545319Y-64725789D01*
X60545319Y-64725794D01*
X60515805Y-65056853D01*
X60515805Y-65056862D01*
X60515805Y-65056866D01*
X60523048Y-65301177D01*
X60525655Y-65389112D01*
X60574731Y-65717857D01*
X60574732Y-65717862D01*
X60662345Y-66038494D01*
X60662346Y-66038498D01*
X60787264Y-66346511D01*
X60787269Y-66346522D01*
X60913500Y-66575492D01*
X60947742Y-66637603D01*
X60962650Y-66658380D01*
X61141520Y-66907667D01*
X61141529Y-66907677D01*
X61256737Y-67033612D01*
X61365877Y-67152914D01*
X61617666Y-67369906D01*
X61617671Y-67369909D01*
X61617677Y-67369914D01*
X61761584Y-67466842D01*
X61893353Y-67555595D01*
X62189067Y-67707374D01*
X62500656Y-67823113D01*
X62529031Y-67829969D01*
X62589570Y-67864850D01*
X62621642Y-67926924D01*
X62615063Y-67996483D01*
X62571921Y-68051443D01*
X62505915Y-68074354D01*
X62499904Y-68074500D01*
X61180453Y-68074500D01*
X61113414Y-68054815D01*
X61092772Y-68038181D01*
X60030803Y-66976212D01*
X60020980Y-66963950D01*
X60020759Y-66964134D01*
X60015786Y-66958122D01*
X59966066Y-66911432D01*
X59964666Y-66910075D01*
X59944476Y-66889884D01*
X59938986Y-66885625D01*
X59934561Y-66881847D01*
X59900582Y-66849938D01*
X59900580Y-66849936D01*
X59900577Y-66849935D01*
X59883029Y-66840288D01*
X59866763Y-66829604D01*
X59850933Y-66817325D01*
X59808168Y-66798818D01*
X59802922Y-66796248D01*
X59762093Y-66773803D01*
X59762092Y-66773802D01*
X59742693Y-66768822D01*
X59724281Y-66762518D01*
X59705898Y-66754562D01*
X59705892Y-66754560D01*
X59659874Y-66747272D01*
X59654152Y-66746087D01*
X59609021Y-66734500D01*
X59609019Y-66734500D01*
X59588984Y-66734500D01*
X59569586Y-66732973D01*
X59562162Y-66731797D01*
X59549805Y-66729840D01*
X59549804Y-66729840D01*
X59503416Y-66734225D01*
X59497578Y-66734500D01*
X51301341Y-66734500D01*
X51285724Y-66732776D01*
X51285697Y-66733062D01*
X51277935Y-66732327D01*
X51209775Y-66734469D01*
X51207828Y-66734500D01*
X51179254Y-66734500D01*
X51178533Y-66734590D01*
X51172361Y-66735369D01*
X51166549Y-66735826D01*
X51119976Y-66737290D01*
X51119973Y-66737291D01*
X51100730Y-66742881D01*
X51081687Y-66746825D01*
X51061808Y-66749336D01*
X51061807Y-66749337D01*
X51018482Y-66766490D01*
X51012956Y-66768382D01*
X50968212Y-66781383D01*
X50968208Y-66781385D01*
X50950969Y-66791580D01*
X50933502Y-66800137D01*
X50914873Y-66807512D01*
X50914871Y-66807513D01*
X50877168Y-66834906D01*
X50872286Y-66838112D01*
X50832184Y-66861828D01*
X50818012Y-66876000D01*
X50803227Y-66888628D01*
X50787016Y-66900407D01*
X50757313Y-66936310D01*
X50753381Y-66940631D01*
X49415832Y-68278181D01*
X49354509Y-68311666D01*
X49328151Y-68314500D01*
X42250453Y-68314500D01*
X42183414Y-68294815D01*
X42162772Y-68278181D01*
X40814016Y-66929425D01*
X40804193Y-66917163D01*
X40803972Y-66917347D01*
X40798999Y-66911335D01*
X40749279Y-66864645D01*
X40747879Y-66863288D01*
X40727689Y-66843097D01*
X40722199Y-66838838D01*
X40717774Y-66835060D01*
X40683795Y-66803151D01*
X40683793Y-66803149D01*
X40683790Y-66803148D01*
X40666242Y-66793501D01*
X40649976Y-66782817D01*
X40648130Y-66781385D01*
X40634149Y-66770540D01*
X40634148Y-66770539D01*
X40634146Y-66770538D01*
X40591381Y-66752031D01*
X40586135Y-66749461D01*
X40545306Y-66727016D01*
X40545305Y-66727015D01*
X40525906Y-66722035D01*
X40507494Y-66715731D01*
X40489111Y-66707775D01*
X40489105Y-66707773D01*
X40443087Y-66700485D01*
X40437365Y-66699300D01*
X40392234Y-66687713D01*
X40392232Y-66687713D01*
X40372197Y-66687713D01*
X40352799Y-66686186D01*
X40345375Y-66685010D01*
X40333018Y-66683053D01*
X40333017Y-66683053D01*
X40286629Y-66687438D01*
X40280791Y-66687713D01*
X37325661Y-66687713D01*
X37258622Y-66668028D01*
X37229296Y-66641749D01*
X37193034Y-66596970D01*
X37190554Y-66594962D01*
X37094491Y-66517171D01*
X37041837Y-66474532D01*
X36946020Y-66425712D01*
X36895223Y-66377738D01*
X36878428Y-66309917D01*
X36900965Y-66243782D01*
X36931189Y-66213653D01*
X36981401Y-66178495D01*
X37148495Y-66011401D01*
X37284035Y-65817830D01*
X37383903Y-65603663D01*
X37420259Y-65467977D01*
X37456623Y-65408318D01*
X37519470Y-65377788D01*
X37588846Y-65386082D01*
X37642724Y-65430567D01*
X37659300Y-65466136D01*
X37660380Y-65469933D01*
X37660381Y-65469936D01*
X37660382Y-65469940D01*
X37740752Y-65677398D01*
X37740754Y-65677404D01*
X37857874Y-65866560D01*
X37857876Y-65866562D01*
X38007761Y-66030979D01*
X38185308Y-66165056D01*
X38185316Y-66165061D01*
X38384461Y-66264224D01*
X38384465Y-66264225D01*
X38384472Y-66264229D01*
X38598464Y-66325115D01*
X38764497Y-66340500D01*
X38764501Y-66340500D01*
X39175499Y-66340500D01*
X39175503Y-66340500D01*
X39341536Y-66325115D01*
X39555528Y-66264229D01*
X39754689Y-66165058D01*
X39932236Y-66030981D01*
X40082124Y-65866562D01*
X40199247Y-65677401D01*
X40279618Y-65469940D01*
X40320500Y-65251243D01*
X40320500Y-65028757D01*
X40279618Y-64810060D01*
X40199247Y-64602599D01*
X40174197Y-64562142D01*
X40120286Y-64475072D01*
X40101731Y-64407712D01*
X40122539Y-64341012D01*
X40176104Y-64296151D01*
X40244194Y-64287180D01*
X40332565Y-64300500D01*
X40587435Y-64300500D01*
X40839458Y-64262513D01*
X41083004Y-64187389D01*
X41312634Y-64076805D01*
X41475351Y-63965866D01*
X41541828Y-63944366D01*
X41609378Y-63962220D01*
X41656553Y-64013760D01*
X41668373Y-64082622D01*
X41662669Y-64108033D01*
X41563785Y-64400521D01*
X41495319Y-64725789D01*
X41495319Y-64725794D01*
X41465805Y-65056853D01*
X41465805Y-65056862D01*
X41465805Y-65056866D01*
X41473048Y-65301177D01*
X41475655Y-65389112D01*
X41524731Y-65717857D01*
X41524732Y-65717862D01*
X41612345Y-66038494D01*
X41612346Y-66038498D01*
X41737264Y-66346511D01*
X41737269Y-66346522D01*
X41863500Y-66575492D01*
X41897742Y-66637603D01*
X41912650Y-66658380D01*
X42091520Y-66907667D01*
X42091529Y-66907677D01*
X42206737Y-67033612D01*
X42315877Y-67152914D01*
X42567666Y-67369906D01*
X42567671Y-67369909D01*
X42567677Y-67369914D01*
X42711584Y-67466842D01*
X42843353Y-67555595D01*
X43139067Y-67707374D01*
X43450656Y-67823113D01*
X43773747Y-67901187D01*
X44103805Y-67940500D01*
X44103812Y-67940500D01*
X44353025Y-67940500D01*
X44415218Y-67936809D01*
X44601807Y-67925736D01*
X44928956Y-67866939D01*
X45246854Y-67769862D01*
X45551040Y-67635868D01*
X45837243Y-67466837D01*
X46101445Y-67265142D01*
X46339937Y-67033616D01*
X46549373Y-66775506D01*
X46726810Y-66494438D01*
X46869760Y-66194357D01*
X46976215Y-65879475D01*
X47044680Y-65554212D01*
X47071689Y-65251243D01*
X48219500Y-65251243D01*
X48260382Y-65469940D01*
X48340752Y-65677398D01*
X48340754Y-65677404D01*
X48457874Y-65866560D01*
X48457876Y-65866562D01*
X48607761Y-66030979D01*
X48785308Y-66165056D01*
X48785316Y-66165061D01*
X48984461Y-66264224D01*
X48984465Y-66264225D01*
X48984472Y-66264229D01*
X49198464Y-66325115D01*
X49364497Y-66340500D01*
X49364501Y-66340500D01*
X49775499Y-66340500D01*
X49775503Y-66340500D01*
X49941536Y-66325115D01*
X50155528Y-66264229D01*
X50354689Y-66165058D01*
X50532236Y-66030981D01*
X50682124Y-65866562D01*
X50799247Y-65677401D01*
X50879618Y-65469940D01*
X50920500Y-65251243D01*
X50920500Y-65028757D01*
X50879618Y-64810060D01*
X50799247Y-64602599D01*
X50774197Y-64562142D01*
X50682125Y-64413439D01*
X50682123Y-64413437D01*
X50532238Y-64249020D01*
X50354691Y-64114943D01*
X50354683Y-64114938D01*
X50155538Y-64015775D01*
X50155523Y-64015769D01*
X49941537Y-63954885D01*
X49941535Y-63954884D01*
X49823653Y-63943961D01*
X49775503Y-63939500D01*
X49364497Y-63939500D01*
X49319601Y-63943660D01*
X49198464Y-63954884D01*
X49198462Y-63954885D01*
X48984476Y-64015769D01*
X48984461Y-64015775D01*
X48785316Y-64114938D01*
X48785308Y-64114943D01*
X48607761Y-64249020D01*
X48457876Y-64413437D01*
X48457874Y-64413439D01*
X48340754Y-64602595D01*
X48340752Y-64602601D01*
X48319999Y-64656172D01*
X48260382Y-64810060D01*
X48219500Y-65028757D01*
X48219500Y-65251243D01*
X47071689Y-65251243D01*
X47074195Y-65223134D01*
X47064345Y-64890890D01*
X47015269Y-64562142D01*
X46927655Y-64241506D01*
X46802733Y-63933483D01*
X46789556Y-63909582D01*
X46741825Y-63823002D01*
X46642258Y-63642397D01*
X46448481Y-63372335D01*
X46448479Y-63372332D01*
X46448470Y-63372322D01*
X46233977Y-63137858D01*
X46224123Y-63127086D01*
X46212852Y-63117373D01*
X46049200Y-62976337D01*
X45972334Y-62910094D01*
X45972330Y-62910091D01*
X45972322Y-62910085D01*
X45696653Y-62724409D01*
X45696652Y-62724408D01*
X45696649Y-62724406D01*
X45696647Y-62724405D01*
X45400933Y-62572626D01*
X45400928Y-62572624D01*
X45400926Y-62572623D01*
X45089348Y-62456888D01*
X44766254Y-62378813D01*
X44766249Y-62378812D01*
X44626687Y-62362189D01*
X44436195Y-62339500D01*
X44186977Y-62339500D01*
X44186975Y-62339500D01*
X43938198Y-62354263D01*
X43938191Y-62354264D01*
X43611043Y-62413061D01*
X43293142Y-62510139D01*
X42988960Y-62644131D01*
X42988955Y-62644134D01*
X42702765Y-62813157D01*
X42702748Y-62813169D01*
X42438553Y-63014859D01*
X42438544Y-63014867D01*
X42316329Y-63133513D01*
X42254517Y-63166086D01*
X42184907Y-63160069D01*
X42129600Y-63117373D01*
X42106155Y-63051554D01*
X42109066Y-63016949D01*
X42133454Y-62910096D01*
X42146222Y-62854157D01*
X42155245Y-62733755D01*
X42165268Y-62600004D01*
X42165268Y-62599995D01*
X42146222Y-62345845D01*
X42144898Y-62340045D01*
X42089508Y-62097363D01*
X41996393Y-61860112D01*
X41868959Y-61639388D01*
X41710050Y-61440123D01*
X41523217Y-61266768D01*
X41312634Y-61123195D01*
X41312630Y-61123193D01*
X41312627Y-61123191D01*
X41312626Y-61123190D01*
X41083006Y-61012612D01*
X41083008Y-61012612D01*
X40839466Y-60937489D01*
X40839462Y-60937488D01*
X40839458Y-60937487D01*
X40718231Y-60919214D01*
X40587440Y-60899500D01*
X40587435Y-60899500D01*
X40332565Y-60899500D01*
X40332556Y-60899500D01*
X40248943Y-60912103D01*
X40179718Y-60902630D01*
X40126605Y-60857235D01*
X40106465Y-60790331D01*
X40125693Y-60723159D01*
X40142775Y-60701813D01*
X41742771Y-59101819D01*
X41804095Y-59068334D01*
X41830453Y-59065500D01*
X45194286Y-59065500D01*
X45261325Y-59085185D01*
G37*
G04 #@! TD.AperFunction*
G04 #@! TA.AperFunction,NonConductor*
G36*
X56594279Y-68460185D02*
G01*
X56640034Y-68512989D01*
X56649978Y-68582147D01*
X56649279Y-68586463D01*
X56618100Y-68759708D01*
X56613461Y-68946592D01*
X56598591Y-68992946D01*
X56608476Y-69008327D01*
X56612478Y-69027381D01*
X56634490Y-69197830D01*
X56645062Y-69279699D01*
X56660436Y-69332827D01*
X56717640Y-69530512D01*
X56717642Y-69530517D01*
X56730642Y-69558498D01*
X56827660Y-69767321D01*
X56827663Y-69767326D01*
X56827665Y-69767329D01*
X57546590Y-70845314D01*
X57667338Y-70999364D01*
X57667340Y-70999366D01*
X57667341Y-70999367D01*
X57857903Y-71177875D01*
X58073480Y-71325201D01*
X58309019Y-71437893D01*
X58559002Y-71513309D01*
X58817566Y-71549682D01*
X59078652Y-71546158D01*
X59336141Y-71502822D01*
X59336147Y-71502819D01*
X59336152Y-71502819D01*
X59434044Y-71470378D01*
X59583996Y-71420687D01*
X59816410Y-71301681D01*
X60027933Y-71148591D01*
X60213608Y-70965007D01*
X60369084Y-70755232D01*
X60490715Y-70524181D01*
X60575651Y-70277271D01*
X60604399Y-70117536D01*
X60635647Y-70055043D01*
X60695720Y-70019365D01*
X60726438Y-70015500D01*
X61733153Y-70015500D01*
X61800192Y-70035185D01*
X61845947Y-70087989D01*
X61855891Y-70157147D01*
X61840540Y-70201500D01*
X61783608Y-70300109D01*
X61690492Y-70537362D01*
X61690490Y-70537369D01*
X61633777Y-70785845D01*
X61614732Y-71039995D01*
X61614732Y-71040004D01*
X61633777Y-71294154D01*
X61687826Y-71530960D01*
X61690492Y-71542637D01*
X61774445Y-71756545D01*
X61783608Y-71779890D01*
X61807821Y-71821828D01*
X61911041Y-72000612D01*
X62069950Y-72199877D01*
X62256783Y-72373232D01*
X62467366Y-72516805D01*
X62467371Y-72516807D01*
X62467372Y-72516808D01*
X62467373Y-72516809D01*
X62589328Y-72575538D01*
X62696992Y-72627387D01*
X62696993Y-72627387D01*
X62696996Y-72627389D01*
X62940542Y-72702513D01*
X63192565Y-72740500D01*
X63498789Y-72740500D01*
X63498798Y-72740499D01*
X65790361Y-72740499D01*
X65790389Y-72740500D01*
X65792565Y-72740500D01*
X66047435Y-72740500D01*
X66299458Y-72702513D01*
X66543004Y-72627389D01*
X66772634Y-72516805D01*
X66983217Y-72373232D01*
X67170050Y-72199877D01*
X67328959Y-72000612D01*
X67456393Y-71779888D01*
X67549508Y-71542637D01*
X67606222Y-71294157D01*
X67617130Y-71148591D01*
X67625268Y-71040004D01*
X67625268Y-71039995D01*
X67606577Y-70790578D01*
X67606222Y-70785843D01*
X67606222Y-70785842D01*
X67554012Y-70557092D01*
X67558285Y-70487354D01*
X67599584Y-70430996D01*
X67664796Y-70405913D01*
X67674903Y-70405500D01*
X74380445Y-70405500D01*
X74447484Y-70425185D01*
X74493239Y-70477989D01*
X74503183Y-70547147D01*
X74492827Y-70581905D01*
X74486097Y-70596335D01*
X74486094Y-70596344D01*
X74424938Y-70824586D01*
X74424936Y-70824596D01*
X74404341Y-71059999D01*
X74404341Y-71060000D01*
X74424936Y-71295403D01*
X74424938Y-71295413D01*
X74486096Y-71523662D01*
X74487707Y-71528087D01*
X74492140Y-71597816D01*
X74458170Y-71658873D01*
X74396584Y-71691871D01*
X74371186Y-71694500D01*
X72422737Y-71694500D01*
X72407120Y-71692776D01*
X72407093Y-71693062D01*
X72399331Y-71692327D01*
X72331171Y-71694469D01*
X72329224Y-71694500D01*
X72300650Y-71694500D01*
X72299929Y-71694590D01*
X72293757Y-71695369D01*
X72287945Y-71695826D01*
X72241372Y-71697290D01*
X72241369Y-71697291D01*
X72222126Y-71702881D01*
X72203083Y-71706825D01*
X72183204Y-71709336D01*
X72183203Y-71709337D01*
X72139878Y-71726490D01*
X72134352Y-71728382D01*
X72089608Y-71741383D01*
X72089604Y-71741385D01*
X72072365Y-71751580D01*
X72054898Y-71760137D01*
X72036269Y-71767512D01*
X72036267Y-71767513D01*
X71998564Y-71794906D01*
X71993682Y-71798112D01*
X71953580Y-71821828D01*
X71939408Y-71836000D01*
X71924623Y-71848628D01*
X71908412Y-71860407D01*
X71878709Y-71896310D01*
X71874777Y-71900631D01*
X70446208Y-73329199D01*
X70433951Y-73339020D01*
X70434134Y-73339241D01*
X70428122Y-73344214D01*
X70381432Y-73393932D01*
X70380079Y-73395329D01*
X70359889Y-73415519D01*
X70359877Y-73415532D01*
X70355621Y-73421017D01*
X70351837Y-73425447D01*
X70319937Y-73459418D01*
X70319936Y-73459420D01*
X70310284Y-73476976D01*
X70299610Y-73493226D01*
X70287329Y-73509061D01*
X70287324Y-73509068D01*
X70268815Y-73551838D01*
X70266245Y-73557084D01*
X70243803Y-73597906D01*
X70238822Y-73617307D01*
X70232521Y-73635710D01*
X70224562Y-73654102D01*
X70224561Y-73654105D01*
X70217271Y-73700127D01*
X70216087Y-73705846D01*
X70204501Y-73750972D01*
X70204500Y-73750982D01*
X70204500Y-73771016D01*
X70202973Y-73790413D01*
X70199840Y-73810196D01*
X70202223Y-73835403D01*
X70204225Y-73856583D01*
X70204500Y-73862421D01*
X70204500Y-78604023D01*
X70184815Y-78671062D01*
X70132011Y-78716817D01*
X70062853Y-78726761D01*
X69999297Y-78697736D01*
X69961523Y-78638958D01*
X69959609Y-78631616D01*
X69953311Y-78604023D01*
X69949508Y-78587363D01*
X69856393Y-78350112D01*
X69728959Y-78129388D01*
X69570050Y-77930123D01*
X69383217Y-77756768D01*
X69172634Y-77613195D01*
X69172630Y-77613193D01*
X69172627Y-77613191D01*
X69172626Y-77613190D01*
X68943006Y-77502612D01*
X68943008Y-77502612D01*
X68699466Y-77427489D01*
X68699462Y-77427488D01*
X68699458Y-77427487D01*
X68578231Y-77409214D01*
X68447440Y-77389500D01*
X68447435Y-77389500D01*
X68192565Y-77389500D01*
X68192564Y-77389500D01*
X65987441Y-77389500D01*
X65987435Y-77389500D01*
X65732565Y-77389500D01*
X65732559Y-77389500D01*
X65575609Y-77413157D01*
X65480542Y-77427487D01*
X65480538Y-77427488D01*
X65480539Y-77427488D01*
X65480533Y-77427489D01*
X65236992Y-77502612D01*
X65007373Y-77613190D01*
X65007372Y-77613191D01*
X64796782Y-77756768D01*
X64609952Y-77930121D01*
X64609950Y-77930123D01*
X64451041Y-78129388D01*
X64323609Y-78350107D01*
X64323607Y-78350111D01*
X64323607Y-78350112D01*
X64309599Y-78385803D01*
X64266785Y-78441015D01*
X64200915Y-78464317D01*
X64194172Y-78464500D01*
X56447743Y-78464500D01*
X56432122Y-78462775D01*
X56432095Y-78463061D01*
X56424333Y-78462326D01*
X56356140Y-78464469D01*
X56354193Y-78464500D01*
X56325649Y-78464500D01*
X56318778Y-78465367D01*
X56312959Y-78465825D01*
X56266374Y-78467289D01*
X56266368Y-78467290D01*
X56247126Y-78472880D01*
X56228087Y-78476823D01*
X56208217Y-78479334D01*
X56208203Y-78479337D01*
X56164883Y-78496488D01*
X56159358Y-78498380D01*
X56114613Y-78511380D01*
X56114610Y-78511381D01*
X56097366Y-78521579D01*
X56079905Y-78530133D01*
X56061274Y-78537510D01*
X56061262Y-78537517D01*
X56023570Y-78564902D01*
X56018687Y-78568109D01*
X55978580Y-78591829D01*
X55964414Y-78605995D01*
X55949624Y-78618627D01*
X55933414Y-78630404D01*
X55933411Y-78630407D01*
X55903710Y-78666309D01*
X55899777Y-78670631D01*
X55479821Y-79090586D01*
X55418498Y-79124071D01*
X55360048Y-79122680D01*
X55291697Y-79104366D01*
X55291693Y-79104365D01*
X55291692Y-79104365D01*
X55178345Y-79094448D01*
X55065001Y-79084532D01*
X55064998Y-79084532D01*
X54838313Y-79104364D01*
X54838302Y-79104366D01*
X54618511Y-79163258D01*
X54618502Y-79163261D01*
X54412267Y-79259431D01*
X54412265Y-79259432D01*
X54225858Y-79389954D01*
X54064954Y-79550858D01*
X53934432Y-79737265D01*
X53934431Y-79737267D01*
X53907382Y-79795275D01*
X53861209Y-79847714D01*
X53794016Y-79866866D01*
X53727135Y-79846650D01*
X53682618Y-79795275D01*
X53682116Y-79794199D01*
X53655568Y-79737266D01*
X53525047Y-79550861D01*
X53525045Y-79550858D01*
X53364141Y-79389954D01*
X53177734Y-79259432D01*
X53177732Y-79259431D01*
X52971497Y-79163261D01*
X52971488Y-79163258D01*
X52751697Y-79104366D01*
X52751693Y-79104365D01*
X52751692Y-79104365D01*
X52751691Y-79104364D01*
X52751686Y-79104364D01*
X52525002Y-79084532D01*
X52524999Y-79084532D01*
X52298313Y-79104364D01*
X52298296Y-79104367D01*
X52229949Y-79122680D01*
X52160099Y-79121016D01*
X52110177Y-79090586D01*
X51725803Y-78706212D01*
X51715980Y-78693950D01*
X51715759Y-78694134D01*
X51710786Y-78688122D01*
X51661066Y-78641432D01*
X51659666Y-78640075D01*
X51639476Y-78619884D01*
X51633986Y-78615625D01*
X51629561Y-78611847D01*
X51595582Y-78579938D01*
X51595580Y-78579936D01*
X51595577Y-78579935D01*
X51578029Y-78570288D01*
X51561763Y-78559604D01*
X51545933Y-78547325D01*
X51503168Y-78528818D01*
X51497922Y-78526248D01*
X51457093Y-78503803D01*
X51457092Y-78503802D01*
X51437693Y-78498822D01*
X51419281Y-78492518D01*
X51400898Y-78484562D01*
X51400892Y-78484560D01*
X51354874Y-78477272D01*
X51349152Y-78476087D01*
X51304021Y-78464500D01*
X51304019Y-78464500D01*
X51283984Y-78464500D01*
X51264586Y-78462973D01*
X51257162Y-78461797D01*
X51244805Y-78459840D01*
X51244804Y-78459840D01*
X51198416Y-78464225D01*
X51192578Y-78464500D01*
X50935828Y-78464500D01*
X50868789Y-78444815D01*
X50823034Y-78392011D01*
X50820411Y-78385829D01*
X50806393Y-78350112D01*
X50678959Y-78129388D01*
X50520050Y-77930123D01*
X50333217Y-77756768D01*
X50122634Y-77613195D01*
X50122630Y-77613193D01*
X50122627Y-77613191D01*
X50122626Y-77613190D01*
X49893006Y-77502612D01*
X49893008Y-77502612D01*
X49649466Y-77427489D01*
X49649462Y-77427488D01*
X49649458Y-77427487D01*
X49528231Y-77409214D01*
X49397440Y-77389500D01*
X49397435Y-77389500D01*
X49142565Y-77389500D01*
X49142564Y-77389500D01*
X46937441Y-77389500D01*
X46937435Y-77389500D01*
X46682565Y-77389500D01*
X46682559Y-77389500D01*
X46525609Y-77413157D01*
X46430542Y-77427487D01*
X46430538Y-77427488D01*
X46430539Y-77427488D01*
X46430533Y-77427489D01*
X46186992Y-77502612D01*
X45957373Y-77613190D01*
X45957372Y-77613191D01*
X45746782Y-77756768D01*
X45559952Y-77930121D01*
X45559950Y-77930123D01*
X45401041Y-78129388D01*
X45273608Y-78350109D01*
X45180492Y-78587362D01*
X45180490Y-78587369D01*
X45123777Y-78835845D01*
X45104732Y-79089995D01*
X45104732Y-79090004D01*
X45123777Y-79344154D01*
X45150273Y-79460242D01*
X45180492Y-79592637D01*
X45273607Y-79829888D01*
X45401041Y-80050612D01*
X45559950Y-80249877D01*
X45746783Y-80423232D01*
X45957366Y-80566805D01*
X45957371Y-80566807D01*
X45957372Y-80566808D01*
X45957373Y-80566809D01*
X46060945Y-80616686D01*
X46186992Y-80677387D01*
X46186993Y-80677387D01*
X46186996Y-80677389D01*
X46430542Y-80752513D01*
X46682565Y-80790500D01*
X46988789Y-80790500D01*
X46988798Y-80790499D01*
X49140361Y-80790499D01*
X49140389Y-80790500D01*
X49142565Y-80790500D01*
X49397435Y-80790500D01*
X49649458Y-80752513D01*
X49893004Y-80677389D01*
X50122634Y-80566805D01*
X50333217Y-80423232D01*
X50520050Y-80249877D01*
X50678959Y-80050612D01*
X50806393Y-79829888D01*
X50814402Y-79809479D01*
X50857216Y-79754268D01*
X50923085Y-79730966D01*
X50991096Y-79746974D01*
X51017511Y-79767101D01*
X51225586Y-79975176D01*
X51259071Y-80036499D01*
X51257681Y-80094948D01*
X51239365Y-80163307D01*
X51239364Y-80163313D01*
X51219532Y-80389999D01*
X51219532Y-80390001D01*
X51239364Y-80616686D01*
X51239366Y-80616697D01*
X51298258Y-80836488D01*
X51298261Y-80836497D01*
X51394431Y-81042732D01*
X51394432Y-81042734D01*
X51524954Y-81229141D01*
X51685858Y-81390045D01*
X51685861Y-81390047D01*
X51872266Y-81520568D01*
X52078504Y-81616739D01*
X52078509Y-81616740D01*
X52078511Y-81616741D01*
X52131415Y-81630916D01*
X52298308Y-81675635D01*
X52460230Y-81689801D01*
X52524998Y-81695468D01*
X52525000Y-81695468D01*
X52525002Y-81695468D01*
X52581672Y-81690509D01*
X52751692Y-81675635D01*
X52971496Y-81616739D01*
X53177734Y-81520568D01*
X53364139Y-81390047D01*
X53525047Y-81229139D01*
X53655568Y-81042734D01*
X53682618Y-80984724D01*
X53728790Y-80932285D01*
X53795983Y-80913133D01*
X53862865Y-80933348D01*
X53907381Y-80984724D01*
X53914978Y-81001015D01*
X53934429Y-81042728D01*
X53934432Y-81042734D01*
X54064954Y-81229141D01*
X54225858Y-81390045D01*
X54225861Y-81390047D01*
X54412266Y-81520568D01*
X54618504Y-81616739D01*
X54618509Y-81616740D01*
X54618511Y-81616741D01*
X54671415Y-81630916D01*
X54838308Y-81675635D01*
X55000230Y-81689801D01*
X55064998Y-81695468D01*
X55065000Y-81695468D01*
X55065002Y-81695468D01*
X55121672Y-81690509D01*
X55291692Y-81675635D01*
X55511496Y-81616739D01*
X55717734Y-81520568D01*
X55904139Y-81390047D01*
X56065047Y-81229139D01*
X56195568Y-81042734D01*
X56291739Y-80836496D01*
X56350635Y-80616692D01*
X56370468Y-80390000D01*
X56350635Y-80163308D01*
X56332318Y-80094947D01*
X56333981Y-80025101D01*
X56364408Y-79975180D01*
X56587772Y-79751816D01*
X56649094Y-79718334D01*
X56675452Y-79715500D01*
X59280389Y-79715500D01*
X59347428Y-79735185D01*
X59393183Y-79787989D01*
X59403127Y-79857147D01*
X59374102Y-79920703D01*
X59315324Y-79958477D01*
X59298870Y-79962115D01*
X59130542Y-79987487D01*
X59130538Y-79987488D01*
X59130539Y-79987488D01*
X59130533Y-79987489D01*
X58886992Y-80062612D01*
X58657373Y-80173190D01*
X58657372Y-80173191D01*
X58446782Y-80316768D01*
X58259952Y-80490121D01*
X58259950Y-80490123D01*
X58101041Y-80689388D01*
X57973608Y-80910109D01*
X57880492Y-81147362D01*
X57880490Y-81147369D01*
X57823777Y-81395845D01*
X57804732Y-81649995D01*
X57804732Y-81650004D01*
X57823777Y-81904154D01*
X57874905Y-82128161D01*
X57880492Y-82152637D01*
X57973607Y-82389888D01*
X58101041Y-82610612D01*
X58166265Y-82692400D01*
X58242653Y-82788187D01*
X58269061Y-82852874D01*
X58256306Y-82921569D01*
X58208435Y-82972463D01*
X58145706Y-82989500D01*
X57814497Y-82989500D01*
X57769601Y-82993660D01*
X57648464Y-83004884D01*
X57648462Y-83004885D01*
X57434476Y-83065769D01*
X57434461Y-83065775D01*
X57235316Y-83164938D01*
X57235308Y-83164943D01*
X57057761Y-83299020D01*
X56907876Y-83463437D01*
X56907874Y-83463439D01*
X56790754Y-83652595D01*
X56790753Y-83652599D01*
X56710382Y-83860060D01*
X56669500Y-84078757D01*
X56669500Y-84301243D01*
X56710382Y-84519940D01*
X56790752Y-84727398D01*
X56790754Y-84727404D01*
X56907874Y-84916560D01*
X56907876Y-84916562D01*
X57057761Y-85080979D01*
X57235308Y-85215056D01*
X57235316Y-85215061D01*
X57434461Y-85314224D01*
X57434465Y-85314225D01*
X57434472Y-85314229D01*
X57648464Y-85375115D01*
X57814497Y-85390500D01*
X57814501Y-85390500D01*
X58225499Y-85390500D01*
X58225503Y-85390500D01*
X58391536Y-85375115D01*
X58605528Y-85314229D01*
X58804689Y-85215058D01*
X58982236Y-85080981D01*
X59132124Y-84916562D01*
X59249247Y-84727401D01*
X59329618Y-84519940D01*
X59370500Y-84301243D01*
X59370500Y-84078757D01*
X59329618Y-83860060D01*
X59249247Y-83652599D01*
X59224197Y-83612142D01*
X59170286Y-83525072D01*
X59151731Y-83457712D01*
X59172539Y-83391012D01*
X59226104Y-83346151D01*
X59294194Y-83337180D01*
X59382565Y-83350500D01*
X59637435Y-83350500D01*
X59889458Y-83312513D01*
X60133004Y-83237389D01*
X60362634Y-83126805D01*
X60525351Y-83015866D01*
X60591828Y-82994366D01*
X60659378Y-83012220D01*
X60706553Y-83063760D01*
X60718373Y-83132622D01*
X60712669Y-83158033D01*
X60613785Y-83450521D01*
X60545319Y-83775789D01*
X60545319Y-83775794D01*
X60515805Y-84106853D01*
X60515805Y-84106862D01*
X60515805Y-84106866D01*
X60520561Y-84267286D01*
X60525655Y-84439112D01*
X60574731Y-84767857D01*
X60574732Y-84767862D01*
X60662345Y-85088494D01*
X60662346Y-85088498D01*
X60787264Y-85396511D01*
X60787269Y-85396522D01*
X60947740Y-85687599D01*
X60947740Y-85687600D01*
X61141520Y-85957667D01*
X61141529Y-85957677D01*
X61256737Y-86083612D01*
X61365877Y-86202914D01*
X61617666Y-86419906D01*
X61617671Y-86419909D01*
X61617677Y-86419914D01*
X61778625Y-86528320D01*
X61893353Y-86605595D01*
X62189067Y-86757374D01*
X62500656Y-86873113D01*
X62823747Y-86951187D01*
X63153805Y-86990500D01*
X63153812Y-86990500D01*
X63403025Y-86990500D01*
X63465218Y-86986809D01*
X63651807Y-86975736D01*
X63978956Y-86916939D01*
X64296854Y-86819862D01*
X64601040Y-86685868D01*
X64887243Y-86516837D01*
X65151445Y-86315142D01*
X65389937Y-86083616D01*
X65599373Y-85825506D01*
X65776810Y-85544438D01*
X65919760Y-85244357D01*
X66026215Y-84929475D01*
X66094680Y-84604212D01*
X66124195Y-84273134D01*
X66114345Y-83940890D01*
X66065269Y-83612142D01*
X65977655Y-83291506D01*
X65852733Y-82983483D01*
X65692258Y-82692397D01*
X65498481Y-82422335D01*
X65498479Y-82422332D01*
X65498470Y-82422322D01*
X65288381Y-82192672D01*
X65274123Y-82177086D01*
X65262852Y-82167373D01*
X65119079Y-82043469D01*
X65022334Y-81960094D01*
X65022330Y-81960091D01*
X65022322Y-81960085D01*
X64746653Y-81774409D01*
X64746652Y-81774408D01*
X64746649Y-81774406D01*
X64746647Y-81774405D01*
X64450933Y-81622626D01*
X64450928Y-81622624D01*
X64450926Y-81622623D01*
X64139348Y-81506888D01*
X63816254Y-81428813D01*
X63816249Y-81428812D01*
X63676687Y-81412189D01*
X63486195Y-81389500D01*
X63236977Y-81389500D01*
X63236975Y-81389500D01*
X62988198Y-81404263D01*
X62988191Y-81404264D01*
X62661043Y-81463061D01*
X62343142Y-81560139D01*
X62038960Y-81694131D01*
X62038955Y-81694134D01*
X61752765Y-81863157D01*
X61752748Y-81863169D01*
X61488553Y-82064859D01*
X61488544Y-82064867D01*
X61366329Y-82183513D01*
X61304517Y-82216086D01*
X61234907Y-82210069D01*
X61179600Y-82167373D01*
X61156155Y-82101554D01*
X61159066Y-82066949D01*
X61183454Y-81960096D01*
X61196222Y-81904157D01*
X61215268Y-81650000D01*
X61213216Y-81622623D01*
X61196222Y-81395845D01*
X61194898Y-81390045D01*
X61139508Y-81147363D01*
X61046393Y-80910112D01*
X60918959Y-80689388D01*
X60760050Y-80490123D01*
X60573217Y-80316768D01*
X60362634Y-80173195D01*
X60362630Y-80173193D01*
X60362627Y-80173191D01*
X60362626Y-80173190D01*
X60133006Y-80062612D01*
X60133008Y-80062612D01*
X59889466Y-79987489D01*
X59889462Y-79987488D01*
X59889458Y-79987487D01*
X59721129Y-79962115D01*
X59657772Y-79932658D01*
X59620399Y-79873624D01*
X59620874Y-79803756D01*
X59659048Y-79745237D01*
X59722800Y-79716645D01*
X59739611Y-79715500D01*
X64194172Y-79715500D01*
X64261211Y-79735185D01*
X64306966Y-79787989D01*
X64309588Y-79794170D01*
X64323607Y-79829888D01*
X64323609Y-79829892D01*
X64348439Y-79872899D01*
X64451041Y-80050612D01*
X64609950Y-80249877D01*
X64796783Y-80423232D01*
X65007366Y-80566805D01*
X65007371Y-80566807D01*
X65007372Y-80566808D01*
X65007373Y-80566809D01*
X65110945Y-80616686D01*
X65236992Y-80677387D01*
X65236993Y-80677387D01*
X65236996Y-80677389D01*
X65480542Y-80752513D01*
X65732565Y-80790500D01*
X66038789Y-80790500D01*
X66038798Y-80790499D01*
X68190361Y-80790499D01*
X68190389Y-80790500D01*
X68192565Y-80790500D01*
X68447435Y-80790500D01*
X68699458Y-80752513D01*
X68943004Y-80677389D01*
X69172634Y-80566805D01*
X69383217Y-80423232D01*
X69570050Y-80249877D01*
X69728959Y-80050612D01*
X69856393Y-79829888D01*
X69949508Y-79592637D01*
X69959608Y-79548383D01*
X69993718Y-79487405D01*
X70055379Y-79454547D01*
X70125016Y-79460242D01*
X70180520Y-79502682D01*
X70204268Y-79568392D01*
X70204500Y-79575976D01*
X70204500Y-83992374D01*
X70184815Y-84059413D01*
X70132011Y-84105168D01*
X70062853Y-84115112D01*
X69999297Y-84086087D01*
X69961523Y-84027309D01*
X69958611Y-84015159D01*
X69954352Y-83992374D01*
X69929618Y-83860060D01*
X69849247Y-83652599D01*
X69824197Y-83612142D01*
X69732125Y-83463439D01*
X69732123Y-83463437D01*
X69582238Y-83299020D01*
X69404691Y-83164943D01*
X69404683Y-83164938D01*
X69205538Y-83065775D01*
X69205523Y-83065769D01*
X68991537Y-83004885D01*
X68991535Y-83004884D01*
X68873653Y-82993961D01*
X68825503Y-82989500D01*
X68414497Y-82989500D01*
X68369601Y-82993660D01*
X68248464Y-83004884D01*
X68248462Y-83004885D01*
X68034476Y-83065769D01*
X68034461Y-83065775D01*
X67835316Y-83164938D01*
X67835308Y-83164943D01*
X67657761Y-83299020D01*
X67507876Y-83463437D01*
X67507874Y-83463439D01*
X67390754Y-83652595D01*
X67390753Y-83652599D01*
X67310382Y-83860060D01*
X67269500Y-84078757D01*
X67269500Y-84301243D01*
X67310382Y-84519940D01*
X67390752Y-84727398D01*
X67390754Y-84727404D01*
X67507874Y-84916560D01*
X67507876Y-84916562D01*
X67657761Y-85080979D01*
X67835308Y-85215056D01*
X67835316Y-85215061D01*
X68034461Y-85314224D01*
X68034465Y-85314225D01*
X68034472Y-85314229D01*
X68248464Y-85375115D01*
X68414497Y-85390500D01*
X68414501Y-85390500D01*
X68825499Y-85390500D01*
X68825503Y-85390500D01*
X68991536Y-85375115D01*
X69205528Y-85314229D01*
X69404689Y-85215058D01*
X69582236Y-85080981D01*
X69732124Y-84916562D01*
X69849247Y-84727401D01*
X69929618Y-84519940D01*
X69958611Y-84364838D01*
X69990279Y-84302559D01*
X70050592Y-84267286D01*
X70120400Y-84270220D01*
X70177540Y-84310429D01*
X70203871Y-84375147D01*
X70204500Y-84387625D01*
X70204500Y-86499547D01*
X70184815Y-86566586D01*
X70168181Y-86587228D01*
X68977228Y-87778181D01*
X68915905Y-87811666D01*
X68889547Y-87814500D01*
X60313175Y-87814500D01*
X60246136Y-87794815D01*
X60210013Y-87759301D01*
X60068733Y-87547461D01*
X59693412Y-86984689D01*
X59693409Y-86984685D01*
X59572661Y-86830635D01*
X59571774Y-86829804D01*
X59382097Y-86652125D01*
X59166520Y-86504799D01*
X59166517Y-86504798D01*
X59166515Y-86504796D01*
X59166512Y-86504794D01*
X58930982Y-86392108D01*
X58680997Y-86316690D01*
X58458805Y-86285435D01*
X58422434Y-86280319D01*
X58422433Y-86280319D01*
X58161347Y-86283841D01*
X57903858Y-86327178D01*
X57903847Y-86327180D01*
X57656009Y-86409311D01*
X57655995Y-86409317D01*
X57615927Y-86429833D01*
X57547284Y-86442865D01*
X57482491Y-86416717D01*
X57471733Y-86407141D01*
X57459476Y-86394884D01*
X57453986Y-86390625D01*
X57449561Y-86386847D01*
X57415582Y-86354938D01*
X57415580Y-86354936D01*
X57415577Y-86354935D01*
X57398029Y-86345288D01*
X57381763Y-86334604D01*
X57372192Y-86327180D01*
X57365936Y-86322327D01*
X57365935Y-86322326D01*
X57365933Y-86322325D01*
X57323168Y-86303818D01*
X57317922Y-86301248D01*
X57277093Y-86278803D01*
X57277092Y-86278802D01*
X57257693Y-86273822D01*
X57239281Y-86267518D01*
X57220898Y-86259562D01*
X57220892Y-86259560D01*
X57174874Y-86252272D01*
X57169152Y-86251087D01*
X57124021Y-86239500D01*
X57124019Y-86239500D01*
X57103984Y-86239500D01*
X57084586Y-86237973D01*
X57077162Y-86236797D01*
X57064805Y-86234840D01*
X57064804Y-86234840D01*
X57018416Y-86239225D01*
X57012578Y-86239500D01*
X51482737Y-86239500D01*
X51467120Y-86237776D01*
X51467093Y-86238062D01*
X51459331Y-86237327D01*
X51391171Y-86239469D01*
X51389224Y-86239500D01*
X51360650Y-86239500D01*
X51359929Y-86239590D01*
X51353757Y-86240369D01*
X51347945Y-86240826D01*
X51301372Y-86242290D01*
X51301369Y-86242291D01*
X51282126Y-86247881D01*
X51263083Y-86251825D01*
X51243204Y-86254336D01*
X51243203Y-86254337D01*
X51199878Y-86271490D01*
X51194352Y-86273382D01*
X51149608Y-86286383D01*
X51149604Y-86286385D01*
X51132365Y-86296580D01*
X51114898Y-86305137D01*
X51096269Y-86312512D01*
X51096267Y-86312513D01*
X51058564Y-86339906D01*
X51053682Y-86343112D01*
X51013580Y-86366828D01*
X50999408Y-86381000D01*
X50984623Y-86393628D01*
X50968412Y-86405407D01*
X50938709Y-86441310D01*
X50934777Y-86445631D01*
X49602228Y-87778181D01*
X49540905Y-87811666D01*
X49514547Y-87814500D01*
X41263175Y-87814500D01*
X41196136Y-87794815D01*
X41160013Y-87759301D01*
X41018733Y-87547461D01*
X40643412Y-86984689D01*
X40643409Y-86984685D01*
X40522661Y-86830635D01*
X40521774Y-86829804D01*
X40332097Y-86652125D01*
X40116520Y-86504799D01*
X40116517Y-86504798D01*
X40116515Y-86504796D01*
X40116512Y-86504794D01*
X39880982Y-86392108D01*
X39630997Y-86316690D01*
X39408804Y-86285435D01*
X39372434Y-86280319D01*
X39372433Y-86280319D01*
X39111347Y-86283841D01*
X38853858Y-86327178D01*
X38853847Y-86327180D01*
X38606009Y-86409311D01*
X38606002Y-86409314D01*
X38373591Y-86528319D01*
X38162075Y-86681403D01*
X38162067Y-86681409D01*
X37976392Y-86864992D01*
X37820916Y-87074766D01*
X37699287Y-87305814D01*
X37699282Y-87305826D01*
X37614349Y-87552728D01*
X37568100Y-87809709D01*
X37561620Y-88070740D01*
X37561620Y-88070741D01*
X37595062Y-88329698D01*
X37667640Y-88580512D01*
X37667642Y-88580517D01*
X37667643Y-88580519D01*
X37777660Y-88817321D01*
X37777663Y-88817326D01*
X37777665Y-88817329D01*
X38496590Y-89895314D01*
X38617338Y-90049364D01*
X38617340Y-90049366D01*
X38617341Y-90049367D01*
X38807903Y-90227875D01*
X39023480Y-90375201D01*
X39259019Y-90487893D01*
X39509002Y-90563309D01*
X39767566Y-90599682D01*
X40028652Y-90596158D01*
X40286141Y-90552822D01*
X40286147Y-90552819D01*
X40286152Y-90552819D01*
X40384044Y-90520378D01*
X40533996Y-90470687D01*
X40766410Y-90351681D01*
X40977933Y-90198591D01*
X41163608Y-90015007D01*
X41319084Y-89805232D01*
X41440715Y-89574181D01*
X41525651Y-89327271D01*
X41554399Y-89167536D01*
X41585647Y-89105043D01*
X41645720Y-89069365D01*
X41676438Y-89065500D01*
X42683153Y-89065500D01*
X42750192Y-89085185D01*
X42795947Y-89137989D01*
X42805891Y-89207147D01*
X42790540Y-89251500D01*
X42733608Y-89350109D01*
X42640492Y-89587362D01*
X42640490Y-89587369D01*
X42583777Y-89835845D01*
X42564732Y-90089995D01*
X42564732Y-90090004D01*
X42583777Y-90344154D01*
X42631403Y-90552819D01*
X42640492Y-90592637D01*
X42733607Y-90829888D01*
X42861041Y-91050612D01*
X43019950Y-91249877D01*
X43206783Y-91423232D01*
X43417366Y-91566805D01*
X43417371Y-91566807D01*
X43417372Y-91566808D01*
X43417373Y-91566809D01*
X43489558Y-91601571D01*
X43646992Y-91677387D01*
X43646993Y-91677387D01*
X43646996Y-91677389D01*
X43890542Y-91752513D01*
X44142565Y-91790500D01*
X44448789Y-91790500D01*
X44448798Y-91790499D01*
X46740361Y-91790499D01*
X46740389Y-91790500D01*
X46742565Y-91790500D01*
X46997435Y-91790500D01*
X47249458Y-91752513D01*
X47493004Y-91677389D01*
X47722634Y-91566805D01*
X47933217Y-91423232D01*
X48120050Y-91249877D01*
X48278959Y-91050612D01*
X48406393Y-90829888D01*
X48499508Y-90592637D01*
X48556222Y-90344157D01*
X48567130Y-90198591D01*
X48575268Y-90090004D01*
X48575268Y-90089995D01*
X48556222Y-89835845D01*
X48499509Y-89587369D01*
X48499508Y-89587363D01*
X48406393Y-89350112D01*
X48349460Y-89251500D01*
X48332987Y-89183599D01*
X48355840Y-89117573D01*
X48410761Y-89074382D01*
X48456847Y-89065500D01*
X49742257Y-89065500D01*
X49757877Y-89067224D01*
X49757904Y-89066939D01*
X49765666Y-89067673D01*
X49765666Y-89067672D01*
X49765667Y-89067673D01*
X49768999Y-89067568D01*
X49833847Y-89065531D01*
X49835794Y-89065500D01*
X49864347Y-89065500D01*
X49864350Y-89065500D01*
X49871228Y-89064630D01*
X49877041Y-89064172D01*
X49923627Y-89062709D01*
X49942869Y-89057117D01*
X49961912Y-89053174D01*
X49981792Y-89050664D01*
X50025122Y-89033507D01*
X50030646Y-89031617D01*
X50034396Y-89030527D01*
X50075390Y-89018618D01*
X50092629Y-89008422D01*
X50110103Y-88999862D01*
X50128727Y-88992488D01*
X50128727Y-88992487D01*
X50128732Y-88992486D01*
X50166449Y-88965082D01*
X50171305Y-88961892D01*
X50211420Y-88938170D01*
X50225589Y-88923999D01*
X50240379Y-88911368D01*
X50256587Y-88899594D01*
X50286299Y-88863676D01*
X50290212Y-88859376D01*
X51012820Y-88136769D01*
X51074142Y-88103285D01*
X51143834Y-88108269D01*
X51199767Y-88150141D01*
X51224184Y-88215605D01*
X51224500Y-88224451D01*
X51224500Y-88837870D01*
X51224501Y-88837876D01*
X51230908Y-88897483D01*
X51281202Y-89032328D01*
X51281206Y-89032335D01*
X51367452Y-89147544D01*
X51367455Y-89147547D01*
X51482664Y-89233793D01*
X51482671Y-89233797D01*
X51617517Y-89284091D01*
X51617516Y-89284091D01*
X51624444Y-89284835D01*
X51677127Y-89290500D01*
X53372872Y-89290499D01*
X53432483Y-89284091D01*
X53567331Y-89233796D01*
X53682546Y-89147546D01*
X53695733Y-89129929D01*
X53751666Y-89088058D01*
X53821358Y-89083074D01*
X53882681Y-89116558D01*
X53894267Y-89129930D01*
X53907454Y-89147546D01*
X53907455Y-89147547D01*
X54022664Y-89233793D01*
X54022671Y-89233797D01*
X54157517Y-89284091D01*
X54157516Y-89284091D01*
X54164444Y-89284835D01*
X54217127Y-89290500D01*
X55912872Y-89290499D01*
X55972483Y-89284091D01*
X56107331Y-89233796D01*
X56222546Y-89147546D01*
X56308796Y-89032331D01*
X56359091Y-88897483D01*
X56365500Y-88837873D01*
X56365499Y-88093260D01*
X56380284Y-88042905D01*
X56369692Y-88025487D01*
X56365499Y-87993515D01*
X56365499Y-87614500D01*
X56385184Y-87547461D01*
X56437988Y-87501706D01*
X56489499Y-87490500D01*
X56527240Y-87490500D01*
X56594279Y-87510185D01*
X56640034Y-87562989D01*
X56649978Y-87632147D01*
X56649279Y-87636463D01*
X56618100Y-87809708D01*
X56613461Y-87996592D01*
X56598591Y-88042946D01*
X56608476Y-88058327D01*
X56612478Y-88077381D01*
X56645062Y-88329698D01*
X56717640Y-88580512D01*
X56717642Y-88580517D01*
X56717643Y-88580519D01*
X56827660Y-88817321D01*
X56827663Y-88817326D01*
X56827665Y-88817329D01*
X57546590Y-89895314D01*
X57667338Y-90049364D01*
X57667340Y-90049366D01*
X57667341Y-90049367D01*
X57857903Y-90227875D01*
X58073480Y-90375201D01*
X58309019Y-90487893D01*
X58559002Y-90563309D01*
X58817566Y-90599682D01*
X59078652Y-90596158D01*
X59336141Y-90552822D01*
X59336147Y-90552819D01*
X59336152Y-90552819D01*
X59434044Y-90520378D01*
X59583996Y-90470687D01*
X59816410Y-90351681D01*
X60027933Y-90198591D01*
X60213608Y-90015007D01*
X60369084Y-89805232D01*
X60490715Y-89574181D01*
X60575651Y-89327271D01*
X60604399Y-89167536D01*
X60635647Y-89105043D01*
X60695720Y-89069365D01*
X60726438Y-89065500D01*
X61733153Y-89065500D01*
X61800192Y-89085185D01*
X61845947Y-89137989D01*
X61855891Y-89207147D01*
X61840540Y-89251500D01*
X61783608Y-89350109D01*
X61690492Y-89587362D01*
X61690490Y-89587369D01*
X61633777Y-89835845D01*
X61614732Y-90089995D01*
X61614732Y-90090004D01*
X61633777Y-90344154D01*
X61681403Y-90552819D01*
X61690492Y-90592637D01*
X61783607Y-90829888D01*
X61911041Y-91050612D01*
X62069950Y-91249877D01*
X62256783Y-91423232D01*
X62467366Y-91566805D01*
X62467371Y-91566807D01*
X62467372Y-91566808D01*
X62467373Y-91566809D01*
X62539558Y-91601571D01*
X62696992Y-91677387D01*
X62696993Y-91677387D01*
X62696996Y-91677389D01*
X62940542Y-91752513D01*
X63192565Y-91790500D01*
X63498789Y-91790500D01*
X63498798Y-91790499D01*
X65790361Y-91790499D01*
X65790389Y-91790500D01*
X65792565Y-91790500D01*
X66047435Y-91790500D01*
X66299458Y-91752513D01*
X66543004Y-91677389D01*
X66772634Y-91566805D01*
X66983217Y-91423232D01*
X67170050Y-91249877D01*
X67328959Y-91050612D01*
X67456393Y-90829888D01*
X67549508Y-90592637D01*
X67606222Y-90344157D01*
X67617130Y-90198591D01*
X67625268Y-90090004D01*
X67625268Y-90089995D01*
X67606222Y-89835845D01*
X67549509Y-89587369D01*
X67549508Y-89587363D01*
X67456393Y-89350112D01*
X67399460Y-89251500D01*
X67382987Y-89183599D01*
X67405840Y-89117573D01*
X67460761Y-89074382D01*
X67506847Y-89065500D01*
X69117257Y-89065500D01*
X69132877Y-89067224D01*
X69132904Y-89066939D01*
X69140666Y-89067673D01*
X69140666Y-89067672D01*
X69140667Y-89067673D01*
X69143999Y-89067568D01*
X69208847Y-89065531D01*
X69210794Y-89065500D01*
X69239347Y-89065500D01*
X69239350Y-89065500D01*
X69246228Y-89064630D01*
X69252041Y-89064172D01*
X69298627Y-89062709D01*
X69317869Y-89057117D01*
X69336912Y-89053174D01*
X69356792Y-89050664D01*
X69400122Y-89033507D01*
X69405646Y-89031617D01*
X69409396Y-89030527D01*
X69450390Y-89018618D01*
X69467629Y-89008422D01*
X69485103Y-88999862D01*
X69503727Y-88992488D01*
X69503727Y-88992487D01*
X69503732Y-88992486D01*
X69541449Y-88965082D01*
X69546305Y-88961892D01*
X69586420Y-88938170D01*
X69600589Y-88923999D01*
X69615379Y-88911368D01*
X69631587Y-88899594D01*
X69661299Y-88863676D01*
X69665212Y-88859376D01*
X71213787Y-87310801D01*
X71226042Y-87300986D01*
X71225859Y-87300764D01*
X71231868Y-87295791D01*
X71231877Y-87295786D01*
X71278607Y-87246022D01*
X71279846Y-87244743D01*
X71300120Y-87224471D01*
X71304379Y-87218978D01*
X71308152Y-87214561D01*
X71340062Y-87180582D01*
X71349713Y-87163024D01*
X71360396Y-87146761D01*
X71372673Y-87130936D01*
X71391185Y-87088153D01*
X71393738Y-87082941D01*
X71416197Y-87042092D01*
X71421180Y-87022680D01*
X71427481Y-87004280D01*
X71435437Y-86985896D01*
X71442729Y-86939852D01*
X71443906Y-86934171D01*
X71455500Y-86889019D01*
X71455500Y-86868982D01*
X71457027Y-86849582D01*
X71460160Y-86829804D01*
X71455775Y-86783415D01*
X71455500Y-86777577D01*
X71455500Y-74140452D01*
X71475185Y-74073413D01*
X71491819Y-74052771D01*
X72562772Y-72981819D01*
X72624095Y-72948334D01*
X72650453Y-72945500D01*
X74380445Y-72945500D01*
X74447484Y-72965185D01*
X74493239Y-73017989D01*
X74503183Y-73087147D01*
X74492827Y-73121905D01*
X74486097Y-73136335D01*
X74486094Y-73136344D01*
X74424938Y-73364586D01*
X74424936Y-73364596D01*
X74404341Y-73599999D01*
X74404341Y-73600000D01*
X74424936Y-73835403D01*
X74424938Y-73835413D01*
X74486094Y-74063655D01*
X74486096Y-74063659D01*
X74486097Y-74063663D01*
X74542478Y-74184572D01*
X74585965Y-74277830D01*
X74585967Y-74277834D01*
X74680491Y-74412827D01*
X74721501Y-74471396D01*
X74721506Y-74471402D01*
X74888597Y-74638493D01*
X74888606Y-74638501D01*
X74896354Y-74643926D01*
X74939979Y-74698503D01*
X74947171Y-74768002D01*
X74915648Y-74830356D01*
X74855418Y-74865769D01*
X74825230Y-74869500D01*
X72869760Y-74869500D01*
X72869554Y-74869459D01*
X72844998Y-74869459D01*
X72844909Y-74869496D01*
X72844619Y-74869615D01*
X72844615Y-74869618D01*
X72844459Y-74869999D01*
X72844476Y-74894616D01*
X72844471Y-74894616D01*
X72844500Y-74894759D01*
X72844500Y-93211513D01*
X72844110Y-93218459D01*
X72843721Y-93221909D01*
X72841528Y-93241366D01*
X72831066Y-93320829D01*
X72825169Y-93345597D01*
X72813223Y-93379735D01*
X72811983Y-93382984D01*
X72789536Y-93437180D01*
X72779967Y-93455702D01*
X72758097Y-93490508D01*
X72754786Y-93495267D01*
X72718005Y-93543200D01*
X72712653Y-93549304D01*
X72679304Y-93582653D01*
X72673200Y-93588005D01*
X72625267Y-93624786D01*
X72620508Y-93628097D01*
X72585702Y-93649967D01*
X72567180Y-93659536D01*
X72512984Y-93681983D01*
X72509735Y-93683223D01*
X72475597Y-93695169D01*
X72450829Y-93701066D01*
X72371367Y-93711528D01*
X72353828Y-93713505D01*
X72348458Y-93714110D01*
X72341514Y-93714500D01*
X58720311Y-93714500D01*
X58653272Y-93694815D01*
X58607517Y-93642011D01*
X58597573Y-93572853D01*
X58626598Y-93509297D01*
X58642275Y-93494134D01*
X58646753Y-93490508D01*
X58693032Y-93453032D01*
X58815465Y-93301840D01*
X58903788Y-93128496D01*
X58954141Y-92940578D01*
X58960500Y-92859778D01*
X58960500Y-91880222D01*
X58954141Y-91799422D01*
X58903788Y-91611504D01*
X58815465Y-91438160D01*
X58693032Y-91286968D01*
X58541840Y-91164535D01*
X58368496Y-91076212D01*
X58180578Y-91025859D01*
X58180577Y-91025858D01*
X58180574Y-91025858D01*
X58099783Y-91019500D01*
X58099778Y-91019500D01*
X57120222Y-91019500D01*
X57120216Y-91019500D01*
X57039425Y-91025858D01*
X56851504Y-91076212D01*
X56678161Y-91164534D01*
X56526968Y-91286968D01*
X56404534Y-91438161D01*
X56355712Y-91533980D01*
X56307737Y-91584776D01*
X56239916Y-91601571D01*
X56173781Y-91579034D01*
X56143652Y-91548808D01*
X56108494Y-91498597D01*
X55941402Y-91331506D01*
X55941395Y-91331501D01*
X55747834Y-91195967D01*
X55747830Y-91195965D01*
X55680426Y-91164534D01*
X55533663Y-91096097D01*
X55533659Y-91096096D01*
X55533655Y-91096094D01*
X55305413Y-91034938D01*
X55305403Y-91034936D01*
X55070001Y-91014341D01*
X55069999Y-91014341D01*
X54834596Y-91034936D01*
X54834586Y-91034938D01*
X54606344Y-91096094D01*
X54606335Y-91096098D01*
X54392171Y-91195964D01*
X54392169Y-91195965D01*
X54198597Y-91331505D01*
X54031508Y-91498594D01*
X53901574Y-91684159D01*
X53846997Y-91727784D01*
X53777498Y-91734976D01*
X53715144Y-91703454D01*
X53698424Y-91684158D01*
X53693684Y-91677389D01*
X53568495Y-91498599D01*
X53568494Y-91498597D01*
X53401402Y-91331506D01*
X53401395Y-91331501D01*
X53207834Y-91195967D01*
X53207830Y-91195965D01*
X53140426Y-91164534D01*
X52993663Y-91096097D01*
X52993659Y-91096096D01*
X52993655Y-91096094D01*
X52765413Y-91034938D01*
X52765403Y-91034936D01*
X52530001Y-91014341D01*
X52529999Y-91014341D01*
X52294596Y-91034936D01*
X52294586Y-91034938D01*
X52066344Y-91096094D01*
X52066335Y-91096098D01*
X51852171Y-91195964D01*
X51852169Y-91195965D01*
X51658597Y-91331505D01*
X51491505Y-91498597D01*
X51361575Y-91684158D01*
X51306998Y-91727783D01*
X51237500Y-91734977D01*
X51175145Y-91703454D01*
X51158425Y-91684158D01*
X51028494Y-91498597D01*
X50861402Y-91331506D01*
X50861395Y-91331501D01*
X50667834Y-91195967D01*
X50667830Y-91195965D01*
X50600426Y-91164534D01*
X50453663Y-91096097D01*
X50453659Y-91096096D01*
X50453655Y-91096094D01*
X50225413Y-91034938D01*
X50225403Y-91034936D01*
X49990001Y-91014341D01*
X49989999Y-91014341D01*
X49754596Y-91034936D01*
X49754586Y-91034938D01*
X49526344Y-91096094D01*
X49526335Y-91096098D01*
X49312171Y-91195964D01*
X49312169Y-91195965D01*
X49118597Y-91331505D01*
X48951505Y-91498597D01*
X48815965Y-91692169D01*
X48815964Y-91692171D01*
X48716098Y-91906335D01*
X48716094Y-91906344D01*
X48654938Y-92134586D01*
X48654936Y-92134596D01*
X48634341Y-92369999D01*
X48634341Y-92370000D01*
X48654936Y-92605403D01*
X48654938Y-92605413D01*
X48716094Y-92833655D01*
X48716096Y-92833659D01*
X48716097Y-92833663D01*
X48783854Y-92978968D01*
X48815965Y-93047830D01*
X48815967Y-93047834D01*
X48916348Y-93191192D01*
X48951505Y-93241401D01*
X49118599Y-93408495D01*
X49186018Y-93455702D01*
X49233465Y-93488925D01*
X49277089Y-93543502D01*
X49284282Y-93613001D01*
X49252760Y-93675355D01*
X49192530Y-93710769D01*
X49162341Y-93714500D01*
X35348486Y-93714500D01*
X35341540Y-93714110D01*
X35337397Y-93713643D01*
X35318632Y-93711528D01*
X35239169Y-93701066D01*
X35214401Y-93695169D01*
X35180263Y-93683223D01*
X35177014Y-93681983D01*
X35135803Y-93664914D01*
X35122813Y-93659533D01*
X35104296Y-93649967D01*
X35069490Y-93628097D01*
X35064731Y-93624786D01*
X35016798Y-93588005D01*
X35010702Y-93582660D01*
X34977337Y-93549295D01*
X34971993Y-93543200D01*
X34935212Y-93495267D01*
X34931909Y-93490520D01*
X34910027Y-93455695D01*
X34900469Y-93437195D01*
X34878015Y-93382984D01*
X34876775Y-93379735D01*
X34864829Y-93345597D01*
X34858932Y-93320831D01*
X34848469Y-93241354D01*
X34845889Y-93218456D01*
X34845500Y-93211519D01*
X34845500Y-73956053D01*
X34865185Y-73889014D01*
X34917989Y-73843259D01*
X34987147Y-73833315D01*
X35047534Y-73859686D01*
X35083751Y-73889014D01*
X35178162Y-73965467D01*
X35290808Y-74022862D01*
X35351504Y-74053788D01*
X35351506Y-74053788D01*
X35351507Y-74053789D01*
X35351506Y-74053789D01*
X35381308Y-74061773D01*
X35392591Y-74064797D01*
X35452252Y-74101160D01*
X35482783Y-74164007D01*
X35484500Y-74184572D01*
X35484500Y-79857255D01*
X35482775Y-79872872D01*
X35483061Y-79872899D01*
X35482326Y-79880666D01*
X35484469Y-79948846D01*
X35484500Y-79950793D01*
X35484500Y-79979343D01*
X35484501Y-79979360D01*
X35485368Y-79986231D01*
X35485826Y-79992050D01*
X35487290Y-80038624D01*
X35487291Y-80038627D01*
X35492880Y-80057867D01*
X35496824Y-80076911D01*
X35499336Y-80096791D01*
X35516490Y-80140119D01*
X35518382Y-80145647D01*
X35531381Y-80190388D01*
X35541580Y-80207634D01*
X35550138Y-80225103D01*
X35557514Y-80243732D01*
X35584898Y-80281423D01*
X35588106Y-80286307D01*
X35611827Y-80326416D01*
X35611833Y-80326424D01*
X35625990Y-80340580D01*
X35638628Y-80355376D01*
X35650405Y-80371586D01*
X35650406Y-80371587D01*
X35686309Y-80401288D01*
X35690620Y-80405210D01*
X36935404Y-81649995D01*
X37319197Y-82033788D01*
X37329022Y-82046051D01*
X37329243Y-82045869D01*
X37334211Y-82051874D01*
X37383932Y-82098566D01*
X37385332Y-82099923D01*
X37405523Y-82120115D01*
X37405527Y-82120118D01*
X37405529Y-82120120D01*
X37411011Y-82124373D01*
X37415443Y-82128157D01*
X37449418Y-82160062D01*
X37466976Y-82169714D01*
X37483235Y-82180395D01*
X37499064Y-82192673D01*
X37541838Y-82211182D01*
X37547056Y-82213738D01*
X37587908Y-82236197D01*
X37607316Y-82241180D01*
X37625717Y-82247480D01*
X37644104Y-82255437D01*
X37687488Y-82262308D01*
X37690119Y-82262725D01*
X37695839Y-82263909D01*
X37740981Y-82275500D01*
X37761016Y-82275500D01*
X37780414Y-82277026D01*
X37800194Y-82280159D01*
X37800195Y-82280160D01*
X37800195Y-82280159D01*
X37800196Y-82280160D01*
X37846583Y-82275775D01*
X37852422Y-82275500D01*
X38794172Y-82275500D01*
X38861211Y-82295185D01*
X38906966Y-82347989D01*
X38909588Y-82354170D01*
X38923607Y-82389888D01*
X38923609Y-82389892D01*
X38942338Y-82422332D01*
X39051041Y-82610612D01*
X39116265Y-82692400D01*
X39192653Y-82788187D01*
X39219061Y-82852874D01*
X39206306Y-82921569D01*
X39158435Y-82972463D01*
X39095706Y-82989500D01*
X38764497Y-82989500D01*
X38719601Y-82993660D01*
X38598464Y-83004884D01*
X38598462Y-83004885D01*
X38384476Y-83065769D01*
X38384461Y-83065775D01*
X38185316Y-83164938D01*
X38185308Y-83164943D01*
X38007761Y-83299020D01*
X37857876Y-83463437D01*
X37857874Y-83463439D01*
X37740754Y-83652595D01*
X37740753Y-83652599D01*
X37660382Y-83860060D01*
X37619500Y-84078757D01*
X37619500Y-84301243D01*
X37660382Y-84519940D01*
X37740752Y-84727398D01*
X37740754Y-84727404D01*
X37857874Y-84916560D01*
X37857876Y-84916562D01*
X38007761Y-85080979D01*
X38185308Y-85215056D01*
X38185316Y-85215061D01*
X38384461Y-85314224D01*
X38384465Y-85314225D01*
X38384472Y-85314229D01*
X38598464Y-85375115D01*
X38764497Y-85390500D01*
X38764501Y-85390500D01*
X39175499Y-85390500D01*
X39175503Y-85390500D01*
X39341536Y-85375115D01*
X39555528Y-85314229D01*
X39754689Y-85215058D01*
X39932236Y-85080981D01*
X40082124Y-84916562D01*
X40199247Y-84727401D01*
X40279618Y-84519940D01*
X40320500Y-84301243D01*
X40320500Y-84078757D01*
X40279618Y-83860060D01*
X40199247Y-83652599D01*
X40174197Y-83612142D01*
X40120286Y-83525072D01*
X40101731Y-83457712D01*
X40122539Y-83391012D01*
X40176104Y-83346151D01*
X40244194Y-83337180D01*
X40332565Y-83350500D01*
X40587435Y-83350500D01*
X40839458Y-83312513D01*
X41083004Y-83237389D01*
X41312634Y-83126805D01*
X41475351Y-83015866D01*
X41541828Y-82994366D01*
X41609378Y-83012220D01*
X41656553Y-83063760D01*
X41668373Y-83132622D01*
X41662669Y-83158033D01*
X41563785Y-83450521D01*
X41495319Y-83775789D01*
X41495319Y-83775794D01*
X41465805Y-84106853D01*
X41465805Y-84106862D01*
X41465805Y-84106866D01*
X41470561Y-84267286D01*
X41475655Y-84439112D01*
X41524731Y-84767857D01*
X41524732Y-84767862D01*
X41612345Y-85088494D01*
X41612346Y-85088498D01*
X41737264Y-85396511D01*
X41737269Y-85396522D01*
X41897740Y-85687599D01*
X41897740Y-85687600D01*
X42091520Y-85957667D01*
X42091529Y-85957677D01*
X42206737Y-86083612D01*
X42315877Y-86202914D01*
X42567666Y-86419906D01*
X42567671Y-86419909D01*
X42567677Y-86419914D01*
X42728625Y-86528320D01*
X42843353Y-86605595D01*
X43139067Y-86757374D01*
X43450656Y-86873113D01*
X43773747Y-86951187D01*
X44103805Y-86990500D01*
X44103812Y-86990500D01*
X44353025Y-86990500D01*
X44415218Y-86986809D01*
X44601807Y-86975736D01*
X44928956Y-86916939D01*
X45246854Y-86819862D01*
X45551040Y-86685868D01*
X45837243Y-86516837D01*
X46101445Y-86315142D01*
X46339937Y-86083616D01*
X46549373Y-85825506D01*
X46726810Y-85544438D01*
X46869760Y-85244357D01*
X46976215Y-84929475D01*
X47044680Y-84604212D01*
X47071689Y-84301243D01*
X48219500Y-84301243D01*
X48260382Y-84519940D01*
X48340752Y-84727398D01*
X48340754Y-84727404D01*
X48457874Y-84916560D01*
X48457876Y-84916562D01*
X48607761Y-85080979D01*
X48785308Y-85215056D01*
X48785316Y-85215061D01*
X48984461Y-85314224D01*
X48984465Y-85314225D01*
X48984472Y-85314229D01*
X49198464Y-85375115D01*
X49364497Y-85390500D01*
X49364501Y-85390500D01*
X49775499Y-85390500D01*
X49775503Y-85390500D01*
X49941536Y-85375115D01*
X50155528Y-85314229D01*
X50354689Y-85215058D01*
X50532236Y-85080981D01*
X50682124Y-84916562D01*
X50799247Y-84727401D01*
X50879618Y-84519940D01*
X50920500Y-84301243D01*
X50920500Y-84078757D01*
X50879618Y-83860060D01*
X50799247Y-83652599D01*
X50774197Y-83612142D01*
X50682125Y-83463439D01*
X50682123Y-83463437D01*
X50532238Y-83299020D01*
X50354691Y-83164943D01*
X50354683Y-83164938D01*
X50155538Y-83065775D01*
X50155523Y-83065769D01*
X49941537Y-83004885D01*
X49941535Y-83004884D01*
X49823653Y-82993961D01*
X49775503Y-82989500D01*
X49364497Y-82989500D01*
X49319601Y-82993660D01*
X49198464Y-83004884D01*
X49198462Y-83004885D01*
X48984476Y-83065769D01*
X48984461Y-83065775D01*
X48785316Y-83164938D01*
X48785308Y-83164943D01*
X48607761Y-83299020D01*
X48457876Y-83463437D01*
X48457874Y-83463439D01*
X48340754Y-83652595D01*
X48340753Y-83652599D01*
X48260382Y-83860060D01*
X48219500Y-84078757D01*
X48219500Y-84301243D01*
X47071689Y-84301243D01*
X47074195Y-84273134D01*
X47064345Y-83940890D01*
X47015269Y-83612142D01*
X46927655Y-83291506D01*
X46802733Y-82983483D01*
X46642258Y-82692397D01*
X46448481Y-82422335D01*
X46448479Y-82422332D01*
X46448470Y-82422322D01*
X46238381Y-82192672D01*
X46224123Y-82177086D01*
X46212852Y-82167373D01*
X46069079Y-82043469D01*
X45972334Y-81960094D01*
X45972330Y-81960091D01*
X45972322Y-81960085D01*
X45696653Y-81774409D01*
X45696652Y-81774408D01*
X45696649Y-81774406D01*
X45696647Y-81774405D01*
X45400933Y-81622626D01*
X45400928Y-81622624D01*
X45400926Y-81622623D01*
X45089348Y-81506888D01*
X44766254Y-81428813D01*
X44766249Y-81428812D01*
X44626687Y-81412189D01*
X44436195Y-81389500D01*
X44186977Y-81389500D01*
X44186975Y-81389500D01*
X43938198Y-81404263D01*
X43938191Y-81404264D01*
X43611043Y-81463061D01*
X43293142Y-81560139D01*
X42988960Y-81694131D01*
X42988955Y-81694134D01*
X42702765Y-81863157D01*
X42702748Y-81863169D01*
X42438553Y-82064859D01*
X42438544Y-82064867D01*
X42316329Y-82183513D01*
X42254517Y-82216086D01*
X42184907Y-82210069D01*
X42129600Y-82167373D01*
X42106155Y-82101554D01*
X42109066Y-82066949D01*
X42133454Y-81960096D01*
X42146222Y-81904157D01*
X42165268Y-81650000D01*
X42163216Y-81622623D01*
X42146222Y-81395845D01*
X42144898Y-81390045D01*
X42089508Y-81147363D01*
X41996393Y-80910112D01*
X41868959Y-80689388D01*
X41710050Y-80490123D01*
X41523217Y-80316768D01*
X41312634Y-80173195D01*
X41312630Y-80173193D01*
X41312627Y-80173191D01*
X41312626Y-80173190D01*
X41083006Y-80062612D01*
X41083008Y-80062612D01*
X40839466Y-79987489D01*
X40839462Y-79987488D01*
X40839458Y-79987487D01*
X40718231Y-79969214D01*
X40587440Y-79949500D01*
X40587435Y-79949500D01*
X40332565Y-79949500D01*
X40332559Y-79949500D01*
X40175609Y-79973157D01*
X40080542Y-79987487D01*
X40080538Y-79987488D01*
X40080539Y-79987488D01*
X40080533Y-79987489D01*
X39836992Y-80062612D01*
X39607373Y-80173190D01*
X39607372Y-80173191D01*
X39396782Y-80316768D01*
X39209952Y-80490121D01*
X39209950Y-80490123D01*
X39051041Y-80689388D01*
X38923609Y-80910107D01*
X38923607Y-80910111D01*
X38923607Y-80910112D01*
X38909599Y-80945803D01*
X38866785Y-81001015D01*
X38800915Y-81024317D01*
X38794172Y-81024500D01*
X38130453Y-81024500D01*
X38063414Y-81004815D01*
X38042772Y-80988181D01*
X36771819Y-79717228D01*
X36738334Y-79655905D01*
X36735500Y-79629547D01*
X36735500Y-74665001D01*
X51789390Y-74665001D01*
X51809804Y-74950433D01*
X51870628Y-75230037D01*
X51970635Y-75498166D01*
X52107770Y-75749309D01*
X52107775Y-75749317D01*
X52279254Y-75978387D01*
X52279270Y-75978405D01*
X52481594Y-76180729D01*
X52481612Y-76180745D01*
X52710682Y-76352224D01*
X52710690Y-76352229D01*
X52961833Y-76489364D01*
X52961832Y-76489364D01*
X52961836Y-76489365D01*
X52961839Y-76489367D01*
X53229954Y-76589369D01*
X53229960Y-76589370D01*
X53229962Y-76589371D01*
X53509566Y-76650195D01*
X53509568Y-76650195D01*
X53509572Y-76650196D01*
X53723552Y-76665500D01*
X53866448Y-76665500D01*
X54080428Y-76650196D01*
X54360046Y-76589369D01*
X54628161Y-76489367D01*
X54879315Y-76352226D01*
X55108395Y-76180739D01*
X55310739Y-75978395D01*
X55482226Y-75749315D01*
X55619367Y-75498161D01*
X55719369Y-75230046D01*
X55780196Y-74950428D01*
X55800610Y-74665000D01*
X55780196Y-74379572D01*
X55759806Y-74285842D01*
X55719371Y-74099962D01*
X55719370Y-74099960D01*
X55719369Y-74099954D01*
X55619367Y-73831839D01*
X55607548Y-73810195D01*
X55482229Y-73580690D01*
X55482224Y-73580682D01*
X55310745Y-73351612D01*
X55310729Y-73351594D01*
X55108405Y-73149270D01*
X55108387Y-73149254D01*
X54879317Y-72977775D01*
X54879309Y-72977770D01*
X54628166Y-72840635D01*
X54628167Y-72840635D01*
X54409142Y-72758943D01*
X54360046Y-72740631D01*
X54360043Y-72740630D01*
X54360037Y-72740628D01*
X54080433Y-72679804D01*
X53866450Y-72664500D01*
X53866448Y-72664500D01*
X53723552Y-72664500D01*
X53723549Y-72664500D01*
X53509566Y-72679804D01*
X53229962Y-72740628D01*
X52961833Y-72840635D01*
X52710690Y-72977770D01*
X52710682Y-72977775D01*
X52481612Y-73149254D01*
X52481594Y-73149270D01*
X52279270Y-73351594D01*
X52279254Y-73351612D01*
X52107775Y-73580682D01*
X52107770Y-73580690D01*
X51970635Y-73831833D01*
X51870628Y-74099962D01*
X51809804Y-74379566D01*
X51789390Y-74664998D01*
X51789390Y-74665001D01*
X36735500Y-74665001D01*
X36735500Y-74184572D01*
X36755185Y-74117533D01*
X36807989Y-74071778D01*
X36827407Y-74064797D01*
X36846821Y-74059595D01*
X36868493Y-74053789D01*
X36868493Y-74053788D01*
X36868496Y-74053788D01*
X36960117Y-74007104D01*
X37041837Y-73965467D01*
X37041838Y-73965465D01*
X37041840Y-73965465D01*
X37193032Y-73843032D01*
X37315465Y-73691840D01*
X37403788Y-73518496D01*
X37454141Y-73330578D01*
X37460500Y-73249778D01*
X37460500Y-72270222D01*
X37454141Y-72189422D01*
X37403788Y-72001504D01*
X37315465Y-71828160D01*
X37193032Y-71676968D01*
X37081145Y-71586364D01*
X37041436Y-71528879D01*
X37039108Y-71459048D01*
X37074903Y-71399044D01*
X37081133Y-71393646D01*
X37193032Y-71303032D01*
X37315465Y-71151840D01*
X37403788Y-70978496D01*
X37454141Y-70790578D01*
X37460500Y-70709778D01*
X37460500Y-70139499D01*
X37480185Y-70072461D01*
X37532989Y-70026706D01*
X37584500Y-70015500D01*
X37876825Y-70015500D01*
X37943864Y-70035185D01*
X37979987Y-70070699D01*
X38496590Y-70845314D01*
X38617338Y-70999364D01*
X38617340Y-70999366D01*
X38617341Y-70999367D01*
X38807903Y-71177875D01*
X39023480Y-71325201D01*
X39259019Y-71437893D01*
X39509002Y-71513309D01*
X39767566Y-71549682D01*
X40028652Y-71546158D01*
X40286141Y-71502822D01*
X40286147Y-71502819D01*
X40286152Y-71502819D01*
X40384044Y-71470378D01*
X40533996Y-71420687D01*
X40766410Y-71301681D01*
X40977933Y-71148591D01*
X41163608Y-70965007D01*
X41319084Y-70755232D01*
X41440715Y-70524181D01*
X41525651Y-70277271D01*
X41554399Y-70117536D01*
X41585647Y-70055043D01*
X41645720Y-70019365D01*
X41676438Y-70015500D01*
X42683153Y-70015500D01*
X42750192Y-70035185D01*
X42795947Y-70087989D01*
X42805891Y-70157147D01*
X42790540Y-70201500D01*
X42733608Y-70300109D01*
X42640492Y-70537362D01*
X42640490Y-70537369D01*
X42583777Y-70785845D01*
X42564732Y-71039995D01*
X42564732Y-71040004D01*
X42583777Y-71294154D01*
X42637826Y-71530960D01*
X42640492Y-71542637D01*
X42724445Y-71756545D01*
X42733608Y-71779890D01*
X42757821Y-71821828D01*
X42861041Y-72000612D01*
X43019950Y-72199877D01*
X43206783Y-72373232D01*
X43417366Y-72516805D01*
X43417371Y-72516807D01*
X43417372Y-72516808D01*
X43417373Y-72516809D01*
X43539328Y-72575538D01*
X43646992Y-72627387D01*
X43646993Y-72627387D01*
X43646996Y-72627389D01*
X43890542Y-72702513D01*
X44142565Y-72740500D01*
X44448789Y-72740500D01*
X44448798Y-72740499D01*
X46740361Y-72740499D01*
X46740389Y-72740500D01*
X46742565Y-72740500D01*
X46997435Y-72740500D01*
X47249458Y-72702513D01*
X47493004Y-72627389D01*
X47722634Y-72516805D01*
X47933217Y-72373232D01*
X48120050Y-72199877D01*
X48278959Y-72000612D01*
X48406393Y-71779888D01*
X48499508Y-71542637D01*
X48556222Y-71294157D01*
X48567130Y-71148591D01*
X48575268Y-71040004D01*
X48575268Y-71039995D01*
X48556577Y-70790578D01*
X48556222Y-70785843D01*
X48499508Y-70537363D01*
X48406393Y-70300112D01*
X48368276Y-70234091D01*
X48349460Y-70201500D01*
X48332987Y-70133599D01*
X48355840Y-70067573D01*
X48410761Y-70024382D01*
X48456847Y-70015500D01*
X49742257Y-70015500D01*
X49757877Y-70017224D01*
X49757904Y-70016939D01*
X49765666Y-70017673D01*
X49765666Y-70017672D01*
X49765667Y-70017673D01*
X49768999Y-70017568D01*
X49833847Y-70015531D01*
X49835794Y-70015500D01*
X49864347Y-70015500D01*
X49864350Y-70015500D01*
X49871228Y-70014630D01*
X49877041Y-70014172D01*
X49923627Y-70012709D01*
X49942869Y-70007117D01*
X49961912Y-70003174D01*
X49981792Y-70000664D01*
X50025122Y-69983507D01*
X50030646Y-69981617D01*
X50034396Y-69980527D01*
X50075390Y-69968618D01*
X50092629Y-69958422D01*
X50110103Y-69949862D01*
X50128727Y-69942488D01*
X50128727Y-69942487D01*
X50128732Y-69942486D01*
X50166449Y-69915082D01*
X50171305Y-69911892D01*
X50211420Y-69888170D01*
X50225589Y-69873999D01*
X50240379Y-69861368D01*
X50256587Y-69849594D01*
X50286299Y-69813676D01*
X50290212Y-69809376D01*
X51012820Y-69086769D01*
X51074142Y-69053285D01*
X51143834Y-69058269D01*
X51199767Y-69100141D01*
X51224184Y-69165605D01*
X51224500Y-69174451D01*
X51224500Y-69787870D01*
X51224501Y-69787876D01*
X51230908Y-69847483D01*
X51281202Y-69982328D01*
X51281206Y-69982335D01*
X51367452Y-70097544D01*
X51367455Y-70097547D01*
X51482664Y-70183793D01*
X51482671Y-70183797D01*
X51617517Y-70234091D01*
X51617516Y-70234091D01*
X51624444Y-70234835D01*
X51677127Y-70240500D01*
X53372872Y-70240499D01*
X53432483Y-70234091D01*
X53567331Y-70183796D01*
X53682546Y-70097546D01*
X53695733Y-70079929D01*
X53751666Y-70038058D01*
X53821358Y-70033074D01*
X53882681Y-70066558D01*
X53894267Y-70079930D01*
X53907454Y-70097546D01*
X53907455Y-70097547D01*
X54022664Y-70183793D01*
X54022671Y-70183797D01*
X54157517Y-70234091D01*
X54157516Y-70234091D01*
X54164444Y-70234835D01*
X54217127Y-70240500D01*
X55912872Y-70240499D01*
X55972483Y-70234091D01*
X56107331Y-70183796D01*
X56222546Y-70097546D01*
X56308796Y-69982331D01*
X56359091Y-69847483D01*
X56365500Y-69787873D01*
X56365499Y-69043260D01*
X56380284Y-68992905D01*
X56369692Y-68975487D01*
X56365499Y-68943515D01*
X56365499Y-68564500D01*
X56385184Y-68497461D01*
X56437988Y-68451706D01*
X56489499Y-68440500D01*
X56527240Y-68440500D01*
X56594279Y-68460185D01*
G37*
G04 #@! TD.AperFunction*
M02*
