M48
; DRILL file {KiCad 7.0.5} date Thu Aug 10 21:35:45 2023
; FORMAT={-:-/ absolute / metric / decimal}
; #@! TF.CreationDate,2023-08-10T21:35:45+08:00
; #@! TF.GenerationSoftware,Kicad,Pcbnew,7.0.5
; #@! TF.FileFunction,NonPlated,1,2,NPTH
FMAT,2
METRIC
; #@! TA.AperFunction,NonPlated,NPTH,ComponentDrill
T1C1.900
; #@! TA.AperFunction,NonPlated,NPTH,ComponentDrill
T2C3.500
; #@! TA.AperFunction,NonPlated,NPTH,ComponentDrill
T3C5.100
%
G90
G05
T2
X53.795Y-55.615
X53.795Y-74.665
T3
X44.27Y-46.09
X44.27Y-65.14
X44.27Y-84.19
X63.32Y-46.09
X63.32Y-65.14
X63.32Y-84.19
T1
X38.82Y-46.09G85X39.12Y-46.09
G05
X38.82Y-65.14G85X39.12Y-65.14
G05
X38.82Y-84.19G85X39.12Y-84.19
G05
X49.42Y-46.09G85X49.72Y-46.09
G05
X49.42Y-65.14G85X49.72Y-65.14
G05
X49.42Y-84.19G85X49.72Y-84.19
G05
X57.87Y-46.09G85X58.17Y-46.09
G05
X57.87Y-65.14G85X58.17Y-65.14
G05
X57.87Y-84.19G85X58.17Y-84.19
G05
X68.47Y-46.09G85X68.77Y-46.09
G05
X68.47Y-65.14G85X68.77Y-65.14
G05
X68.47Y-84.19G85X68.77Y-84.19
G05
T0
M30
