%TF.GenerationSoftware,KiCad,Pcbnew,7.0.5*%
%TF.CreationDate,2023-07-24T08:29:59+08:00*%
%TF.ProjectId,LM,4c4d2e6b-6963-4616-945f-706362585858,rev?*%
%TF.SameCoordinates,Original*%
%TF.FileFunction,Drillmap*%
%TF.FilePolarity,Positive*%
%FSLAX45Y45*%
G04 Gerber Fmt 4.5, Leading zero omitted, Abs format (unit mm)*
G04 Created by KiCad (PCBNEW 7.0.5) date 2023-07-24 08:29:59*
%MOMM*%
%LPD*%
G01*
G04 APERTURE LIST*
%ADD10C,0.100000*%
%ADD11C,0.200000*%
%ADD12C,0.190000*%
%ADD13C,0.350000*%
%ADD14C,0.505000*%
G04 APERTURE END LIST*
D10*
X3484500Y-9321500D02*
G75*
G03*
X3534500Y-9371500I50000J0D01*
G01*
X7234500Y-9371500D02*
G75*
G03*
X7284500Y-9321500I0J50000D01*
G01*
X7284500Y-3706500D02*
G75*
G03*
X7234500Y-3656500I-50000J0D01*
G01*
X3534500Y-3656500D02*
G75*
G03*
X3484500Y-3706500I0J-50000D01*
G01*
X7957000Y-7487000D02*
X7284500Y-7487000D01*
X3484500Y-9321500D02*
X3484500Y-3706500D01*
X7234500Y-3656500D02*
X3534500Y-3656500D01*
X7957000Y-5201000D02*
X7957000Y-7487000D01*
X7234500Y-9371500D02*
X3534500Y-9371500D01*
X7284500Y-7487000D02*
X7284500Y-9321500D01*
X7284500Y-5201000D02*
X7284500Y-3706500D01*
X7957000Y-5201000D02*
X7284500Y-5201000D01*
D11*
D12*
X3802000Y-4514000D02*
X3992000Y-4704000D01*
X3992000Y-4514000D02*
X3802000Y-4704000D01*
D11*
X3882000Y-4704000D02*
X3912000Y-4704000D01*
X3912000Y-4704000D02*
G75*
G03*
X3912000Y-4514000I0J95000D01*
G01*
X3912000Y-4514000D02*
X3882000Y-4514000D01*
X3882000Y-4514000D02*
G75*
G03*
X3882000Y-4704000I0J-95000D01*
G01*
D12*
X3802000Y-6419000D02*
X3992000Y-6609000D01*
X3992000Y-6419000D02*
X3802000Y-6609000D01*
D11*
X3882000Y-6609000D02*
X3912000Y-6609000D01*
X3912000Y-6609000D02*
G75*
G03*
X3912000Y-6419000I0J95000D01*
G01*
X3912000Y-6419000D02*
X3882000Y-6419000D01*
X3882000Y-6419000D02*
G75*
G03*
X3882000Y-6609000I0J-95000D01*
G01*
D12*
X3802000Y-8324000D02*
X3992000Y-8514000D01*
X3992000Y-8324000D02*
X3802000Y-8514000D01*
D11*
X3882000Y-8514000D02*
X3912000Y-8514000D01*
X3912000Y-8514000D02*
G75*
G03*
X3912000Y-8324000I0J95000D01*
G01*
X3912000Y-8324000D02*
X3882000Y-8324000D01*
X3882000Y-8324000D02*
G75*
G03*
X3882000Y-8514000I0J-95000D01*
G01*
D12*
X4862000Y-4514000D02*
X5052000Y-4704000D01*
X5052000Y-4514000D02*
X4862000Y-4704000D01*
D11*
X4942000Y-4704000D02*
X4972000Y-4704000D01*
X4972000Y-4704000D02*
G75*
G03*
X4972000Y-4514000I0J95000D01*
G01*
X4972000Y-4514000D02*
X4942000Y-4514000D01*
X4942000Y-4514000D02*
G75*
G03*
X4942000Y-4704000I0J-95000D01*
G01*
D12*
X4862000Y-6419000D02*
X5052000Y-6609000D01*
X5052000Y-6419000D02*
X4862000Y-6609000D01*
D11*
X4942000Y-6609000D02*
X4972000Y-6609000D01*
X4972000Y-6609000D02*
G75*
G03*
X4972000Y-6419000I0J95000D01*
G01*
X4972000Y-6419000D02*
X4942000Y-6419000D01*
X4942000Y-6419000D02*
G75*
G03*
X4942000Y-6609000I0J-95000D01*
G01*
D12*
X4862000Y-8324000D02*
X5052000Y-8514000D01*
X5052000Y-8324000D02*
X4862000Y-8514000D01*
D11*
X4942000Y-8514000D02*
X4972000Y-8514000D01*
X4972000Y-8514000D02*
G75*
G03*
X4972000Y-8324000I0J95000D01*
G01*
X4972000Y-8324000D02*
X4942000Y-8324000D01*
X4942000Y-8324000D02*
G75*
G03*
X4942000Y-8514000I0J-95000D01*
G01*
D12*
X5707000Y-4514000D02*
X5897000Y-4704000D01*
X5897000Y-4514000D02*
X5707000Y-4704000D01*
D11*
X5787000Y-4704000D02*
X5817000Y-4704000D01*
X5817000Y-4704000D02*
G75*
G03*
X5817000Y-4514000I0J95000D01*
G01*
X5817000Y-4514000D02*
X5787000Y-4514000D01*
X5787000Y-4514000D02*
G75*
G03*
X5787000Y-4704000I0J-95000D01*
G01*
D12*
X5707000Y-6419000D02*
X5897000Y-6609000D01*
X5897000Y-6419000D02*
X5707000Y-6609000D01*
D11*
X5787000Y-6609000D02*
X5817000Y-6609000D01*
X5817000Y-6609000D02*
G75*
G03*
X5817000Y-6419000I0J95000D01*
G01*
X5817000Y-6419000D02*
X5787000Y-6419000D01*
X5787000Y-6419000D02*
G75*
G03*
X5787000Y-6609000I0J-95000D01*
G01*
D12*
X5707000Y-8324000D02*
X5897000Y-8514000D01*
X5897000Y-8324000D02*
X5707000Y-8514000D01*
D11*
X5787000Y-8514000D02*
X5817000Y-8514000D01*
X5817000Y-8514000D02*
G75*
G03*
X5817000Y-8324000I0J95000D01*
G01*
X5817000Y-8324000D02*
X5787000Y-8324000D01*
X5787000Y-8324000D02*
G75*
G03*
X5787000Y-8514000I0J-95000D01*
G01*
D12*
X6767000Y-4514000D02*
X6957000Y-4704000D01*
X6957000Y-4514000D02*
X6767000Y-4704000D01*
D11*
X6847000Y-4704000D02*
X6877000Y-4704000D01*
X6877000Y-4704000D02*
G75*
G03*
X6877000Y-4514000I0J95000D01*
G01*
X6877000Y-4514000D02*
X6847000Y-4514000D01*
X6847000Y-4514000D02*
G75*
G03*
X6847000Y-4704000I0J-95000D01*
G01*
D12*
X6767000Y-6419000D02*
X6957000Y-6609000D01*
X6957000Y-6419000D02*
X6767000Y-6609000D01*
D11*
X6847000Y-6609000D02*
X6877000Y-6609000D01*
X6877000Y-6609000D02*
G75*
G03*
X6877000Y-6419000I0J95000D01*
G01*
X6877000Y-6419000D02*
X6847000Y-6419000D01*
X6847000Y-6419000D02*
G75*
G03*
X6847000Y-6609000I0J-95000D01*
G01*
D12*
X6767000Y-8324000D02*
X6957000Y-8514000D01*
X6957000Y-8324000D02*
X6767000Y-8514000D01*
D11*
X6847000Y-8514000D02*
X6877000Y-8514000D01*
X6877000Y-8514000D02*
G75*
G03*
X6877000Y-8324000I0J95000D01*
G01*
X6877000Y-8324000D02*
X6847000Y-8324000D01*
X6847000Y-8324000D02*
G75*
G03*
X6847000Y-8514000I0J-95000D01*
G01*
D13*
X5554500Y-5561500D02*
G75*
G03*
X5554500Y-5561500I-175000J0D01*
G01*
X5554500Y-7466500D02*
G75*
G03*
X5554500Y-7466500I-175000J0D01*
G01*
D14*
X4427000Y-4356500D02*
X4427000Y-4861500D01*
X4174500Y-4609000D02*
X4679500Y-4609000D01*
X4427000Y-6261500D02*
X4427000Y-6766500D01*
X4174500Y-6514000D02*
X4679500Y-6514000D01*
X4427000Y-8166500D02*
X4427000Y-8671500D01*
X4174500Y-8419000D02*
X4679500Y-8419000D01*
X6332000Y-4356500D02*
X6332000Y-4861500D01*
X6079500Y-4609000D02*
X6584500Y-4609000D01*
X6332000Y-6261500D02*
X6332000Y-6766500D01*
X6079500Y-6514000D02*
X6584500Y-6514000D01*
X6332000Y-8166500D02*
X6332000Y-8671500D01*
X6079500Y-8419000D02*
X6584500Y-8419000D01*
D11*
X3740277Y-9687984D02*
X3740277Y-9487984D01*
X3740277Y-9487984D02*
X3787896Y-9487984D01*
X3787896Y-9487984D02*
X3816467Y-9497508D01*
X3816467Y-9497508D02*
X3835515Y-9516555D01*
X3835515Y-9516555D02*
X3845039Y-9535603D01*
X3845039Y-9535603D02*
X3854562Y-9573698D01*
X3854562Y-9573698D02*
X3854562Y-9602270D01*
X3854562Y-9602270D02*
X3845039Y-9640365D01*
X3845039Y-9640365D02*
X3835515Y-9659412D01*
X3835515Y-9659412D02*
X3816467Y-9678460D01*
X3816467Y-9678460D02*
X3787896Y-9687984D01*
X3787896Y-9687984D02*
X3740277Y-9687984D01*
X3940277Y-9687984D02*
X3940277Y-9554650D01*
X3940277Y-9592746D02*
X3949801Y-9573698D01*
X3949801Y-9573698D02*
X3959324Y-9564174D01*
X3959324Y-9564174D02*
X3978372Y-9554650D01*
X3978372Y-9554650D02*
X3997420Y-9554650D01*
X4064086Y-9687984D02*
X4064086Y-9554650D01*
X4064086Y-9487984D02*
X4054562Y-9497508D01*
X4054562Y-9497508D02*
X4064086Y-9507031D01*
X4064086Y-9507031D02*
X4073610Y-9497508D01*
X4073610Y-9497508D02*
X4064086Y-9487984D01*
X4064086Y-9487984D02*
X4064086Y-9507031D01*
X4187896Y-9687984D02*
X4168848Y-9678460D01*
X4168848Y-9678460D02*
X4159324Y-9659412D01*
X4159324Y-9659412D02*
X4159324Y-9487984D01*
X4292658Y-9687984D02*
X4273610Y-9678460D01*
X4273610Y-9678460D02*
X4264086Y-9659412D01*
X4264086Y-9659412D02*
X4264086Y-9487984D01*
X4521229Y-9687984D02*
X4521229Y-9487984D01*
X4521229Y-9487984D02*
X4587896Y-9630841D01*
X4587896Y-9630841D02*
X4654563Y-9487984D01*
X4654563Y-9487984D02*
X4654563Y-9687984D01*
X4835515Y-9687984D02*
X4835515Y-9583222D01*
X4835515Y-9583222D02*
X4825991Y-9564174D01*
X4825991Y-9564174D02*
X4806944Y-9554650D01*
X4806944Y-9554650D02*
X4768848Y-9554650D01*
X4768848Y-9554650D02*
X4749801Y-9564174D01*
X4835515Y-9678460D02*
X4816467Y-9687984D01*
X4816467Y-9687984D02*
X4768848Y-9687984D01*
X4768848Y-9687984D02*
X4749801Y-9678460D01*
X4749801Y-9678460D02*
X4740277Y-9659412D01*
X4740277Y-9659412D02*
X4740277Y-9640365D01*
X4740277Y-9640365D02*
X4749801Y-9621317D01*
X4749801Y-9621317D02*
X4768848Y-9611793D01*
X4768848Y-9611793D02*
X4816467Y-9611793D01*
X4816467Y-9611793D02*
X4835515Y-9602270D01*
X4930753Y-9554650D02*
X4930753Y-9754650D01*
X4930753Y-9564174D02*
X4949801Y-9554650D01*
X4949801Y-9554650D02*
X4987896Y-9554650D01*
X4987896Y-9554650D02*
X5006944Y-9564174D01*
X5006944Y-9564174D02*
X5016467Y-9573698D01*
X5016467Y-9573698D02*
X5025991Y-9592746D01*
X5025991Y-9592746D02*
X5025991Y-9649889D01*
X5025991Y-9649889D02*
X5016467Y-9668936D01*
X5016467Y-9668936D02*
X5006944Y-9678460D01*
X5006944Y-9678460D02*
X4987896Y-9687984D01*
X4987896Y-9687984D02*
X4949801Y-9687984D01*
X4949801Y-9687984D02*
X4930753Y-9678460D01*
X5111705Y-9668936D02*
X5121229Y-9678460D01*
X5121229Y-9678460D02*
X5111705Y-9687984D01*
X5111705Y-9687984D02*
X5102182Y-9678460D01*
X5102182Y-9678460D02*
X5111705Y-9668936D01*
X5111705Y-9668936D02*
X5111705Y-9687984D01*
X5111705Y-9564174D02*
X5121229Y-9573698D01*
X5121229Y-9573698D02*
X5111705Y-9583222D01*
X5111705Y-9583222D02*
X5102182Y-9573698D01*
X5102182Y-9573698D02*
X5111705Y-9564174D01*
X5111705Y-9564174D02*
X5111705Y-9583222D01*
D12*
X3289500Y-9921500D02*
X3479500Y-10111500D01*
X3479500Y-9921500D02*
X3289500Y-10111500D01*
D11*
X3845039Y-10107984D02*
X3730753Y-10107984D01*
X3787896Y-10107984D02*
X3787896Y-9907984D01*
X3787896Y-9907984D02*
X3768848Y-9936555D01*
X3768848Y-9936555D02*
X3749801Y-9955603D01*
X3749801Y-9955603D02*
X3730753Y-9965127D01*
X3930753Y-10088936D02*
X3940277Y-10098460D01*
X3940277Y-10098460D02*
X3930753Y-10107984D01*
X3930753Y-10107984D02*
X3921229Y-10098460D01*
X3921229Y-10098460D02*
X3930753Y-10088936D01*
X3930753Y-10088936D02*
X3930753Y-10107984D01*
X4035515Y-10107984D02*
X4073610Y-10107984D01*
X4073610Y-10107984D02*
X4092658Y-10098460D01*
X4092658Y-10098460D02*
X4102182Y-10088936D01*
X4102182Y-10088936D02*
X4121229Y-10060365D01*
X4121229Y-10060365D02*
X4130753Y-10022270D01*
X4130753Y-10022270D02*
X4130753Y-9946079D01*
X4130753Y-9946079D02*
X4121229Y-9927031D01*
X4121229Y-9927031D02*
X4111705Y-9917508D01*
X4111705Y-9917508D02*
X4092658Y-9907984D01*
X4092658Y-9907984D02*
X4054562Y-9907984D01*
X4054562Y-9907984D02*
X4035515Y-9917508D01*
X4035515Y-9917508D02*
X4025991Y-9927031D01*
X4025991Y-9927031D02*
X4016467Y-9946079D01*
X4016467Y-9946079D02*
X4016467Y-9993698D01*
X4016467Y-9993698D02*
X4025991Y-10012746D01*
X4025991Y-10012746D02*
X4035515Y-10022270D01*
X4035515Y-10022270D02*
X4054562Y-10031793D01*
X4054562Y-10031793D02*
X4092658Y-10031793D01*
X4092658Y-10031793D02*
X4111705Y-10022270D01*
X4111705Y-10022270D02*
X4121229Y-10012746D01*
X4121229Y-10012746D02*
X4130753Y-9993698D01*
X4254563Y-9907984D02*
X4273610Y-9907984D01*
X4273610Y-9907984D02*
X4292658Y-9917508D01*
X4292658Y-9917508D02*
X4302182Y-9927031D01*
X4302182Y-9927031D02*
X4311705Y-9946079D01*
X4311705Y-9946079D02*
X4321229Y-9984174D01*
X4321229Y-9984174D02*
X4321229Y-10031793D01*
X4321229Y-10031793D02*
X4311705Y-10069889D01*
X4311705Y-10069889D02*
X4302182Y-10088936D01*
X4302182Y-10088936D02*
X4292658Y-10098460D01*
X4292658Y-10098460D02*
X4273610Y-10107984D01*
X4273610Y-10107984D02*
X4254563Y-10107984D01*
X4254563Y-10107984D02*
X4235515Y-10098460D01*
X4235515Y-10098460D02*
X4225991Y-10088936D01*
X4225991Y-10088936D02*
X4216467Y-10069889D01*
X4216467Y-10069889D02*
X4206944Y-10031793D01*
X4206944Y-10031793D02*
X4206944Y-9984174D01*
X4206944Y-9984174D02*
X4216467Y-9946079D01*
X4216467Y-9946079D02*
X4225991Y-9927031D01*
X4225991Y-9927031D02*
X4235515Y-9917508D01*
X4235515Y-9917508D02*
X4254563Y-9907984D01*
X4445039Y-9907984D02*
X4464086Y-9907984D01*
X4464086Y-9907984D02*
X4483134Y-9917508D01*
X4483134Y-9917508D02*
X4492658Y-9927031D01*
X4492658Y-9927031D02*
X4502182Y-9946079D01*
X4502182Y-9946079D02*
X4511705Y-9984174D01*
X4511705Y-9984174D02*
X4511705Y-10031793D01*
X4511705Y-10031793D02*
X4502182Y-10069889D01*
X4502182Y-10069889D02*
X4492658Y-10088936D01*
X4492658Y-10088936D02*
X4483134Y-10098460D01*
X4483134Y-10098460D02*
X4464086Y-10107984D01*
X4464086Y-10107984D02*
X4445039Y-10107984D01*
X4445039Y-10107984D02*
X4425991Y-10098460D01*
X4425991Y-10098460D02*
X4416467Y-10088936D01*
X4416467Y-10088936D02*
X4406944Y-10069889D01*
X4406944Y-10069889D02*
X4397420Y-10031793D01*
X4397420Y-10031793D02*
X4397420Y-9984174D01*
X4397420Y-9984174D02*
X4406944Y-9946079D01*
X4406944Y-9946079D02*
X4416467Y-9927031D01*
X4416467Y-9927031D02*
X4425991Y-9917508D01*
X4425991Y-9917508D02*
X4445039Y-9907984D01*
X4597420Y-10107984D02*
X4597420Y-9974650D01*
X4597420Y-9993698D02*
X4606944Y-9984174D01*
X4606944Y-9984174D02*
X4625991Y-9974650D01*
X4625991Y-9974650D02*
X4654563Y-9974650D01*
X4654563Y-9974650D02*
X4673610Y-9984174D01*
X4673610Y-9984174D02*
X4683134Y-10003222D01*
X4683134Y-10003222D02*
X4683134Y-10107984D01*
X4683134Y-10003222D02*
X4692658Y-9984174D01*
X4692658Y-9984174D02*
X4711705Y-9974650D01*
X4711705Y-9974650D02*
X4740277Y-9974650D01*
X4740277Y-9974650D02*
X4759325Y-9984174D01*
X4759325Y-9984174D02*
X4768848Y-10003222D01*
X4768848Y-10003222D02*
X4768848Y-10107984D01*
X4864086Y-10107984D02*
X4864086Y-9974650D01*
X4864086Y-9993698D02*
X4873610Y-9984174D01*
X4873610Y-9984174D02*
X4892658Y-9974650D01*
X4892658Y-9974650D02*
X4921229Y-9974650D01*
X4921229Y-9974650D02*
X4940277Y-9984174D01*
X4940277Y-9984174D02*
X4949801Y-10003222D01*
X4949801Y-10003222D02*
X4949801Y-10107984D01*
X4949801Y-10003222D02*
X4959325Y-9984174D01*
X4959325Y-9984174D02*
X4978372Y-9974650D01*
X4978372Y-9974650D02*
X5006944Y-9974650D01*
X5006944Y-9974650D02*
X5025991Y-9984174D01*
X5025991Y-9984174D02*
X5035515Y-10003222D01*
X5035515Y-10003222D02*
X5035515Y-10107984D01*
X5425991Y-9898460D02*
X5254563Y-10155603D01*
X5683134Y-9907984D02*
X5702182Y-9907984D01*
X5702182Y-9907984D02*
X5721229Y-9917508D01*
X5721229Y-9917508D02*
X5730753Y-9927031D01*
X5730753Y-9927031D02*
X5740277Y-9946079D01*
X5740277Y-9946079D02*
X5749801Y-9984174D01*
X5749801Y-9984174D02*
X5749801Y-10031793D01*
X5749801Y-10031793D02*
X5740277Y-10069889D01*
X5740277Y-10069889D02*
X5730753Y-10088936D01*
X5730753Y-10088936D02*
X5721229Y-10098460D01*
X5721229Y-10098460D02*
X5702182Y-10107984D01*
X5702182Y-10107984D02*
X5683134Y-10107984D01*
X5683134Y-10107984D02*
X5664086Y-10098460D01*
X5664086Y-10098460D02*
X5654563Y-10088936D01*
X5654563Y-10088936D02*
X5645039Y-10069889D01*
X5645039Y-10069889D02*
X5635515Y-10031793D01*
X5635515Y-10031793D02*
X5635515Y-9984174D01*
X5635515Y-9984174D02*
X5645039Y-9946079D01*
X5645039Y-9946079D02*
X5654563Y-9927031D01*
X5654563Y-9927031D02*
X5664086Y-9917508D01*
X5664086Y-9917508D02*
X5683134Y-9907984D01*
X5835515Y-10088936D02*
X5845039Y-10098460D01*
X5845039Y-10098460D02*
X5835515Y-10107984D01*
X5835515Y-10107984D02*
X5825991Y-10098460D01*
X5825991Y-10098460D02*
X5835515Y-10088936D01*
X5835515Y-10088936D02*
X5835515Y-10107984D01*
X5968848Y-9907984D02*
X5987896Y-9907984D01*
X5987896Y-9907984D02*
X6006944Y-9917508D01*
X6006944Y-9917508D02*
X6016467Y-9927031D01*
X6016467Y-9927031D02*
X6025991Y-9946079D01*
X6025991Y-9946079D02*
X6035515Y-9984174D01*
X6035515Y-9984174D02*
X6035515Y-10031793D01*
X6035515Y-10031793D02*
X6025991Y-10069889D01*
X6025991Y-10069889D02*
X6016467Y-10088936D01*
X6016467Y-10088936D02*
X6006944Y-10098460D01*
X6006944Y-10098460D02*
X5987896Y-10107984D01*
X5987896Y-10107984D02*
X5968848Y-10107984D01*
X5968848Y-10107984D02*
X5949801Y-10098460D01*
X5949801Y-10098460D02*
X5940277Y-10088936D01*
X5940277Y-10088936D02*
X5930753Y-10069889D01*
X5930753Y-10069889D02*
X5921229Y-10031793D01*
X5921229Y-10031793D02*
X5921229Y-9984174D01*
X5921229Y-9984174D02*
X5930753Y-9946079D01*
X5930753Y-9946079D02*
X5940277Y-9927031D01*
X5940277Y-9927031D02*
X5949801Y-9917508D01*
X5949801Y-9917508D02*
X5968848Y-9907984D01*
X6102182Y-9907984D02*
X6235515Y-9907984D01*
X6235515Y-9907984D02*
X6149801Y-10107984D01*
X6397420Y-9974650D02*
X6397420Y-10107984D01*
X6349801Y-9898460D02*
X6302182Y-10041317D01*
X6302182Y-10041317D02*
X6425991Y-10041317D01*
X6530753Y-9993698D02*
X6511706Y-9984174D01*
X6511706Y-9984174D02*
X6502182Y-9974650D01*
X6502182Y-9974650D02*
X6492658Y-9955603D01*
X6492658Y-9955603D02*
X6492658Y-9946079D01*
X6492658Y-9946079D02*
X6502182Y-9927031D01*
X6502182Y-9927031D02*
X6511706Y-9917508D01*
X6511706Y-9917508D02*
X6530753Y-9907984D01*
X6530753Y-9907984D02*
X6568848Y-9907984D01*
X6568848Y-9907984D02*
X6587896Y-9917508D01*
X6587896Y-9917508D02*
X6597420Y-9927031D01*
X6597420Y-9927031D02*
X6606944Y-9946079D01*
X6606944Y-9946079D02*
X6606944Y-9955603D01*
X6606944Y-9955603D02*
X6597420Y-9974650D01*
X6597420Y-9974650D02*
X6587896Y-9984174D01*
X6587896Y-9984174D02*
X6568848Y-9993698D01*
X6568848Y-9993698D02*
X6530753Y-9993698D01*
X6530753Y-9993698D02*
X6511706Y-10003222D01*
X6511706Y-10003222D02*
X6502182Y-10012746D01*
X6502182Y-10012746D02*
X6492658Y-10031793D01*
X6492658Y-10031793D02*
X6492658Y-10069889D01*
X6492658Y-10069889D02*
X6502182Y-10088936D01*
X6502182Y-10088936D02*
X6511706Y-10098460D01*
X6511706Y-10098460D02*
X6530753Y-10107984D01*
X6530753Y-10107984D02*
X6568848Y-10107984D01*
X6568848Y-10107984D02*
X6587896Y-10098460D01*
X6587896Y-10098460D02*
X6597420Y-10088936D01*
X6597420Y-10088936D02*
X6606944Y-10069889D01*
X6606944Y-10069889D02*
X6606944Y-10031793D01*
X6606944Y-10031793D02*
X6597420Y-10012746D01*
X6597420Y-10012746D02*
X6587896Y-10003222D01*
X6587896Y-10003222D02*
X6568848Y-9993698D01*
X6683134Y-9907984D02*
X6683134Y-9946079D01*
X6759325Y-9907984D02*
X6759325Y-9946079D01*
X7054563Y-10184174D02*
X7045039Y-10174650D01*
X7045039Y-10174650D02*
X7025991Y-10146079D01*
X7025991Y-10146079D02*
X7016468Y-10127031D01*
X7016468Y-10127031D02*
X7006944Y-10098460D01*
X7006944Y-10098460D02*
X6997420Y-10050841D01*
X6997420Y-10050841D02*
X6997420Y-10012746D01*
X6997420Y-10012746D02*
X7006944Y-9965127D01*
X7006944Y-9965127D02*
X7016468Y-9936555D01*
X7016468Y-9936555D02*
X7025991Y-9917508D01*
X7025991Y-9917508D02*
X7045039Y-9888936D01*
X7045039Y-9888936D02*
X7054563Y-9879412D01*
X7168848Y-9907984D02*
X7187896Y-9907984D01*
X7187896Y-9907984D02*
X7206944Y-9917508D01*
X7206944Y-9917508D02*
X7216468Y-9927031D01*
X7216468Y-9927031D02*
X7225991Y-9946079D01*
X7225991Y-9946079D02*
X7235515Y-9984174D01*
X7235515Y-9984174D02*
X7235515Y-10031793D01*
X7235515Y-10031793D02*
X7225991Y-10069889D01*
X7225991Y-10069889D02*
X7216468Y-10088936D01*
X7216468Y-10088936D02*
X7206944Y-10098460D01*
X7206944Y-10098460D02*
X7187896Y-10107984D01*
X7187896Y-10107984D02*
X7168848Y-10107984D01*
X7168848Y-10107984D02*
X7149801Y-10098460D01*
X7149801Y-10098460D02*
X7140277Y-10088936D01*
X7140277Y-10088936D02*
X7130753Y-10069889D01*
X7130753Y-10069889D02*
X7121229Y-10031793D01*
X7121229Y-10031793D02*
X7121229Y-9984174D01*
X7121229Y-9984174D02*
X7130753Y-9946079D01*
X7130753Y-9946079D02*
X7140277Y-9927031D01*
X7140277Y-9927031D02*
X7149801Y-9917508D01*
X7149801Y-9917508D02*
X7168848Y-9907984D01*
X7473610Y-10107984D02*
X7473610Y-9907984D01*
X7559325Y-10107984D02*
X7559325Y-10003222D01*
X7559325Y-10003222D02*
X7549801Y-9984174D01*
X7549801Y-9984174D02*
X7530753Y-9974650D01*
X7530753Y-9974650D02*
X7502182Y-9974650D01*
X7502182Y-9974650D02*
X7483134Y-9984174D01*
X7483134Y-9984174D02*
X7473610Y-9993698D01*
X7683134Y-10107984D02*
X7664087Y-10098460D01*
X7664087Y-10098460D02*
X7654563Y-10088936D01*
X7654563Y-10088936D02*
X7645039Y-10069889D01*
X7645039Y-10069889D02*
X7645039Y-10012746D01*
X7645039Y-10012746D02*
X7654563Y-9993698D01*
X7654563Y-9993698D02*
X7664087Y-9984174D01*
X7664087Y-9984174D02*
X7683134Y-9974650D01*
X7683134Y-9974650D02*
X7711706Y-9974650D01*
X7711706Y-9974650D02*
X7730753Y-9984174D01*
X7730753Y-9984174D02*
X7740277Y-9993698D01*
X7740277Y-9993698D02*
X7749801Y-10012746D01*
X7749801Y-10012746D02*
X7749801Y-10069889D01*
X7749801Y-10069889D02*
X7740277Y-10088936D01*
X7740277Y-10088936D02*
X7730753Y-10098460D01*
X7730753Y-10098460D02*
X7711706Y-10107984D01*
X7711706Y-10107984D02*
X7683134Y-10107984D01*
X7864087Y-10107984D02*
X7845039Y-10098460D01*
X7845039Y-10098460D02*
X7835515Y-10079412D01*
X7835515Y-10079412D02*
X7835515Y-9907984D01*
X8016468Y-10098460D02*
X7997420Y-10107984D01*
X7997420Y-10107984D02*
X7959325Y-10107984D01*
X7959325Y-10107984D02*
X7940277Y-10098460D01*
X7940277Y-10098460D02*
X7930753Y-10079412D01*
X7930753Y-10079412D02*
X7930753Y-10003222D01*
X7930753Y-10003222D02*
X7940277Y-9984174D01*
X7940277Y-9984174D02*
X7959325Y-9974650D01*
X7959325Y-9974650D02*
X7997420Y-9974650D01*
X7997420Y-9974650D02*
X8016468Y-9984174D01*
X8016468Y-9984174D02*
X8025991Y-10003222D01*
X8025991Y-10003222D02*
X8025991Y-10022270D01*
X8025991Y-10022270D02*
X7930753Y-10041317D01*
X8102182Y-10098460D02*
X8121230Y-10107984D01*
X8121230Y-10107984D02*
X8159325Y-10107984D01*
X8159325Y-10107984D02*
X8178372Y-10098460D01*
X8178372Y-10098460D02*
X8187896Y-10079412D01*
X8187896Y-10079412D02*
X8187896Y-10069889D01*
X8187896Y-10069889D02*
X8178372Y-10050841D01*
X8178372Y-10050841D02*
X8159325Y-10041317D01*
X8159325Y-10041317D02*
X8130753Y-10041317D01*
X8130753Y-10041317D02*
X8111706Y-10031793D01*
X8111706Y-10031793D02*
X8102182Y-10012746D01*
X8102182Y-10012746D02*
X8102182Y-10003222D01*
X8102182Y-10003222D02*
X8111706Y-9984174D01*
X8111706Y-9984174D02*
X8130753Y-9974650D01*
X8130753Y-9974650D02*
X8159325Y-9974650D01*
X8159325Y-9974650D02*
X8178372Y-9984174D01*
X8425992Y-10031793D02*
X8578373Y-10031793D01*
X8502182Y-10107984D02*
X8502182Y-9955603D01*
X8930754Y-10107984D02*
X8816468Y-10107984D01*
X8873611Y-10107984D02*
X8873611Y-9907984D01*
X8873611Y-9907984D02*
X8854563Y-9936555D01*
X8854563Y-9936555D02*
X8835515Y-9955603D01*
X8835515Y-9955603D02*
X8816468Y-9965127D01*
X9006944Y-9927031D02*
X9016468Y-9917508D01*
X9016468Y-9917508D02*
X9035515Y-9907984D01*
X9035515Y-9907984D02*
X9083135Y-9907984D01*
X9083135Y-9907984D02*
X9102182Y-9917508D01*
X9102182Y-9917508D02*
X9111706Y-9927031D01*
X9111706Y-9927031D02*
X9121230Y-9946079D01*
X9121230Y-9946079D02*
X9121230Y-9965127D01*
X9121230Y-9965127D02*
X9111706Y-9993698D01*
X9111706Y-9993698D02*
X8997420Y-10107984D01*
X8997420Y-10107984D02*
X9121230Y-10107984D01*
X9349801Y-10098460D02*
X9368849Y-10107984D01*
X9368849Y-10107984D02*
X9406944Y-10107984D01*
X9406944Y-10107984D02*
X9425992Y-10098460D01*
X9425992Y-10098460D02*
X9435516Y-10079412D01*
X9435516Y-10079412D02*
X9435516Y-10069889D01*
X9435516Y-10069889D02*
X9425992Y-10050841D01*
X9425992Y-10050841D02*
X9406944Y-10041317D01*
X9406944Y-10041317D02*
X9378373Y-10041317D01*
X9378373Y-10041317D02*
X9359325Y-10031793D01*
X9359325Y-10031793D02*
X9349801Y-10012746D01*
X9349801Y-10012746D02*
X9349801Y-10003222D01*
X9349801Y-10003222D02*
X9359325Y-9984174D01*
X9359325Y-9984174D02*
X9378373Y-9974650D01*
X9378373Y-9974650D02*
X9406944Y-9974650D01*
X9406944Y-9974650D02*
X9425992Y-9984174D01*
X9549801Y-10107984D02*
X9530754Y-10098460D01*
X9530754Y-10098460D02*
X9521230Y-10079412D01*
X9521230Y-10079412D02*
X9521230Y-9907984D01*
X9654563Y-10107984D02*
X9635516Y-10098460D01*
X9635516Y-10098460D02*
X9625992Y-10088936D01*
X9625992Y-10088936D02*
X9616468Y-10069889D01*
X9616468Y-10069889D02*
X9616468Y-10012746D01*
X9616468Y-10012746D02*
X9625992Y-9993698D01*
X9625992Y-9993698D02*
X9635516Y-9984174D01*
X9635516Y-9984174D02*
X9654563Y-9974650D01*
X9654563Y-9974650D02*
X9683135Y-9974650D01*
X9683135Y-9974650D02*
X9702182Y-9984174D01*
X9702182Y-9984174D02*
X9711706Y-9993698D01*
X9711706Y-9993698D02*
X9721230Y-10012746D01*
X9721230Y-10012746D02*
X9721230Y-10069889D01*
X9721230Y-10069889D02*
X9711706Y-10088936D01*
X9711706Y-10088936D02*
X9702182Y-10098460D01*
X9702182Y-10098460D02*
X9683135Y-10107984D01*
X9683135Y-10107984D02*
X9654563Y-10107984D01*
X9778373Y-9974650D02*
X9854563Y-9974650D01*
X9806944Y-9907984D02*
X9806944Y-10079412D01*
X9806944Y-10079412D02*
X9816468Y-10098460D01*
X9816468Y-10098460D02*
X9835516Y-10107984D01*
X9835516Y-10107984D02*
X9854563Y-10107984D01*
X9911706Y-10098460D02*
X9930754Y-10107984D01*
X9930754Y-10107984D02*
X9968849Y-10107984D01*
X9968849Y-10107984D02*
X9987897Y-10098460D01*
X9987897Y-10098460D02*
X9997420Y-10079412D01*
X9997420Y-10079412D02*
X9997420Y-10069889D01*
X9997420Y-10069889D02*
X9987897Y-10050841D01*
X9987897Y-10050841D02*
X9968849Y-10041317D01*
X9968849Y-10041317D02*
X9940277Y-10041317D01*
X9940277Y-10041317D02*
X9921230Y-10031793D01*
X9921230Y-10031793D02*
X9911706Y-10012746D01*
X9911706Y-10012746D02*
X9911706Y-10003222D01*
X9911706Y-10003222D02*
X9921230Y-9984174D01*
X9921230Y-9984174D02*
X9940277Y-9974650D01*
X9940277Y-9974650D02*
X9968849Y-9974650D01*
X9968849Y-9974650D02*
X9987897Y-9984174D01*
X10064087Y-10184174D02*
X10073611Y-10174650D01*
X10073611Y-10174650D02*
X10092658Y-10146079D01*
X10092658Y-10146079D02*
X10102182Y-10127031D01*
X10102182Y-10127031D02*
X10111706Y-10098460D01*
X10111706Y-10098460D02*
X10121230Y-10050841D01*
X10121230Y-10050841D02*
X10121230Y-10012746D01*
X10121230Y-10012746D02*
X10111706Y-9965127D01*
X10111706Y-9965127D02*
X10102182Y-9936555D01*
X10102182Y-9936555D02*
X10092658Y-9917508D01*
X10092658Y-9917508D02*
X10073611Y-9888936D01*
X10073611Y-9888936D02*
X10064087Y-9879412D01*
X10425992Y-10184174D02*
X10416468Y-10174650D01*
X10416468Y-10174650D02*
X10397420Y-10146079D01*
X10397420Y-10146079D02*
X10387897Y-10127031D01*
X10387897Y-10127031D02*
X10378373Y-10098460D01*
X10378373Y-10098460D02*
X10368849Y-10050841D01*
X10368849Y-10050841D02*
X10368849Y-10012746D01*
X10368849Y-10012746D02*
X10378373Y-9965127D01*
X10378373Y-9965127D02*
X10387897Y-9936555D01*
X10387897Y-9936555D02*
X10397420Y-9917508D01*
X10397420Y-9917508D02*
X10416468Y-9888936D01*
X10416468Y-9888936D02*
X10425992Y-9879412D01*
X10502182Y-9974650D02*
X10502182Y-10107984D01*
X10502182Y-9993698D02*
X10511706Y-9984174D01*
X10511706Y-9984174D02*
X10530754Y-9974650D01*
X10530754Y-9974650D02*
X10559325Y-9974650D01*
X10559325Y-9974650D02*
X10578373Y-9984174D01*
X10578373Y-9984174D02*
X10587897Y-10003222D01*
X10587897Y-10003222D02*
X10587897Y-10107984D01*
X10711706Y-10107984D02*
X10692658Y-10098460D01*
X10692658Y-10098460D02*
X10683135Y-10088936D01*
X10683135Y-10088936D02*
X10673611Y-10069889D01*
X10673611Y-10069889D02*
X10673611Y-10012746D01*
X10673611Y-10012746D02*
X10683135Y-9993698D01*
X10683135Y-9993698D02*
X10692658Y-9984174D01*
X10692658Y-9984174D02*
X10711706Y-9974650D01*
X10711706Y-9974650D02*
X10740278Y-9974650D01*
X10740278Y-9974650D02*
X10759325Y-9984174D01*
X10759325Y-9984174D02*
X10768849Y-9993698D01*
X10768849Y-9993698D02*
X10778373Y-10012746D01*
X10778373Y-10012746D02*
X10778373Y-10069889D01*
X10778373Y-10069889D02*
X10768849Y-10088936D01*
X10768849Y-10088936D02*
X10759325Y-10098460D01*
X10759325Y-10098460D02*
X10740278Y-10107984D01*
X10740278Y-10107984D02*
X10711706Y-10107984D01*
X10835516Y-9974650D02*
X10911706Y-9974650D01*
X10864087Y-9907984D02*
X10864087Y-10079412D01*
X10864087Y-10079412D02*
X10873611Y-10098460D01*
X10873611Y-10098460D02*
X10892658Y-10107984D01*
X10892658Y-10107984D02*
X10911706Y-10107984D01*
X11130754Y-9974650D02*
X11130754Y-10174650D01*
X11130754Y-9984174D02*
X11149801Y-9974650D01*
X11149801Y-9974650D02*
X11187897Y-9974650D01*
X11187897Y-9974650D02*
X11206944Y-9984174D01*
X11206944Y-9984174D02*
X11216468Y-9993698D01*
X11216468Y-9993698D02*
X11225992Y-10012746D01*
X11225992Y-10012746D02*
X11225992Y-10069889D01*
X11225992Y-10069889D02*
X11216468Y-10088936D01*
X11216468Y-10088936D02*
X11206944Y-10098460D01*
X11206944Y-10098460D02*
X11187897Y-10107984D01*
X11187897Y-10107984D02*
X11149801Y-10107984D01*
X11149801Y-10107984D02*
X11130754Y-10098460D01*
X11340277Y-10107984D02*
X11321230Y-10098460D01*
X11321230Y-10098460D02*
X11311706Y-10079412D01*
X11311706Y-10079412D02*
X11311706Y-9907984D01*
X11502182Y-10107984D02*
X11502182Y-10003222D01*
X11502182Y-10003222D02*
X11492658Y-9984174D01*
X11492658Y-9984174D02*
X11473611Y-9974650D01*
X11473611Y-9974650D02*
X11435516Y-9974650D01*
X11435516Y-9974650D02*
X11416468Y-9984174D01*
X11502182Y-10098460D02*
X11483135Y-10107984D01*
X11483135Y-10107984D02*
X11435516Y-10107984D01*
X11435516Y-10107984D02*
X11416468Y-10098460D01*
X11416468Y-10098460D02*
X11406944Y-10079412D01*
X11406944Y-10079412D02*
X11406944Y-10060365D01*
X11406944Y-10060365D02*
X11416468Y-10041317D01*
X11416468Y-10041317D02*
X11435516Y-10031793D01*
X11435516Y-10031793D02*
X11483135Y-10031793D01*
X11483135Y-10031793D02*
X11502182Y-10022270D01*
X11568849Y-9974650D02*
X11645039Y-9974650D01*
X11597420Y-9907984D02*
X11597420Y-10079412D01*
X11597420Y-10079412D02*
X11606944Y-10098460D01*
X11606944Y-10098460D02*
X11625992Y-10107984D01*
X11625992Y-10107984D02*
X11645039Y-10107984D01*
X11787897Y-10098460D02*
X11768849Y-10107984D01*
X11768849Y-10107984D02*
X11730754Y-10107984D01*
X11730754Y-10107984D02*
X11711706Y-10098460D01*
X11711706Y-10098460D02*
X11702182Y-10079412D01*
X11702182Y-10079412D02*
X11702182Y-10003222D01*
X11702182Y-10003222D02*
X11711706Y-9984174D01*
X11711706Y-9984174D02*
X11730754Y-9974650D01*
X11730754Y-9974650D02*
X11768849Y-9974650D01*
X11768849Y-9974650D02*
X11787897Y-9984174D01*
X11787897Y-9984174D02*
X11797420Y-10003222D01*
X11797420Y-10003222D02*
X11797420Y-10022270D01*
X11797420Y-10022270D02*
X11702182Y-10041317D01*
X11968849Y-10107984D02*
X11968849Y-9907984D01*
X11968849Y-10098460D02*
X11949801Y-10107984D01*
X11949801Y-10107984D02*
X11911706Y-10107984D01*
X11911706Y-10107984D02*
X11892658Y-10098460D01*
X11892658Y-10098460D02*
X11883135Y-10088936D01*
X11883135Y-10088936D02*
X11873611Y-10069889D01*
X11873611Y-10069889D02*
X11873611Y-10012746D01*
X11873611Y-10012746D02*
X11883135Y-9993698D01*
X11883135Y-9993698D02*
X11892658Y-9984174D01*
X11892658Y-9984174D02*
X11911706Y-9974650D01*
X11911706Y-9974650D02*
X11949801Y-9974650D01*
X11949801Y-9974650D02*
X11968849Y-9984174D01*
X12045039Y-10184174D02*
X12054563Y-10174650D01*
X12054563Y-10174650D02*
X12073611Y-10146079D01*
X12073611Y-10146079D02*
X12083135Y-10127031D01*
X12083135Y-10127031D02*
X12092658Y-10098460D01*
X12092658Y-10098460D02*
X12102182Y-10050841D01*
X12102182Y-10050841D02*
X12102182Y-10012746D01*
X12102182Y-10012746D02*
X12092658Y-9965127D01*
X12092658Y-9965127D02*
X12083135Y-9936555D01*
X12083135Y-9936555D02*
X12073611Y-9917508D01*
X12073611Y-9917508D02*
X12054563Y-9888936D01*
X12054563Y-9888936D02*
X12045039Y-9879412D01*
X3479500Y-10326500D02*
G75*
G03*
X3479500Y-10326500I-100000J0D01*
G01*
X3721229Y-10217984D02*
X3845039Y-10217984D01*
X3845039Y-10217984D02*
X3778372Y-10294174D01*
X3778372Y-10294174D02*
X3806943Y-10294174D01*
X3806943Y-10294174D02*
X3825991Y-10303698D01*
X3825991Y-10303698D02*
X3835515Y-10313222D01*
X3835515Y-10313222D02*
X3845039Y-10332270D01*
X3845039Y-10332270D02*
X3845039Y-10379889D01*
X3845039Y-10379889D02*
X3835515Y-10398936D01*
X3835515Y-10398936D02*
X3825991Y-10408460D01*
X3825991Y-10408460D02*
X3806943Y-10417984D01*
X3806943Y-10417984D02*
X3749801Y-10417984D01*
X3749801Y-10417984D02*
X3730753Y-10408460D01*
X3730753Y-10408460D02*
X3721229Y-10398936D01*
X3930753Y-10398936D02*
X3940277Y-10408460D01*
X3940277Y-10408460D02*
X3930753Y-10417984D01*
X3930753Y-10417984D02*
X3921229Y-10408460D01*
X3921229Y-10408460D02*
X3930753Y-10398936D01*
X3930753Y-10398936D02*
X3930753Y-10417984D01*
X4121229Y-10217984D02*
X4025991Y-10217984D01*
X4025991Y-10217984D02*
X4016467Y-10313222D01*
X4016467Y-10313222D02*
X4025991Y-10303698D01*
X4025991Y-10303698D02*
X4045039Y-10294174D01*
X4045039Y-10294174D02*
X4092658Y-10294174D01*
X4092658Y-10294174D02*
X4111705Y-10303698D01*
X4111705Y-10303698D02*
X4121229Y-10313222D01*
X4121229Y-10313222D02*
X4130753Y-10332270D01*
X4130753Y-10332270D02*
X4130753Y-10379889D01*
X4130753Y-10379889D02*
X4121229Y-10398936D01*
X4121229Y-10398936D02*
X4111705Y-10408460D01*
X4111705Y-10408460D02*
X4092658Y-10417984D01*
X4092658Y-10417984D02*
X4045039Y-10417984D01*
X4045039Y-10417984D02*
X4025991Y-10408460D01*
X4025991Y-10408460D02*
X4016467Y-10398936D01*
X4254563Y-10217984D02*
X4273610Y-10217984D01*
X4273610Y-10217984D02*
X4292658Y-10227508D01*
X4292658Y-10227508D02*
X4302182Y-10237031D01*
X4302182Y-10237031D02*
X4311705Y-10256079D01*
X4311705Y-10256079D02*
X4321229Y-10294174D01*
X4321229Y-10294174D02*
X4321229Y-10341793D01*
X4321229Y-10341793D02*
X4311705Y-10379889D01*
X4311705Y-10379889D02*
X4302182Y-10398936D01*
X4302182Y-10398936D02*
X4292658Y-10408460D01*
X4292658Y-10408460D02*
X4273610Y-10417984D01*
X4273610Y-10417984D02*
X4254563Y-10417984D01*
X4254563Y-10417984D02*
X4235515Y-10408460D01*
X4235515Y-10408460D02*
X4225991Y-10398936D01*
X4225991Y-10398936D02*
X4216467Y-10379889D01*
X4216467Y-10379889D02*
X4206944Y-10341793D01*
X4206944Y-10341793D02*
X4206944Y-10294174D01*
X4206944Y-10294174D02*
X4216467Y-10256079D01*
X4216467Y-10256079D02*
X4225991Y-10237031D01*
X4225991Y-10237031D02*
X4235515Y-10227508D01*
X4235515Y-10227508D02*
X4254563Y-10217984D01*
X4445039Y-10217984D02*
X4464086Y-10217984D01*
X4464086Y-10217984D02*
X4483134Y-10227508D01*
X4483134Y-10227508D02*
X4492658Y-10237031D01*
X4492658Y-10237031D02*
X4502182Y-10256079D01*
X4502182Y-10256079D02*
X4511705Y-10294174D01*
X4511705Y-10294174D02*
X4511705Y-10341793D01*
X4511705Y-10341793D02*
X4502182Y-10379889D01*
X4502182Y-10379889D02*
X4492658Y-10398936D01*
X4492658Y-10398936D02*
X4483134Y-10408460D01*
X4483134Y-10408460D02*
X4464086Y-10417984D01*
X4464086Y-10417984D02*
X4445039Y-10417984D01*
X4445039Y-10417984D02*
X4425991Y-10408460D01*
X4425991Y-10408460D02*
X4416467Y-10398936D01*
X4416467Y-10398936D02*
X4406944Y-10379889D01*
X4406944Y-10379889D02*
X4397420Y-10341793D01*
X4397420Y-10341793D02*
X4397420Y-10294174D01*
X4397420Y-10294174D02*
X4406944Y-10256079D01*
X4406944Y-10256079D02*
X4416467Y-10237031D01*
X4416467Y-10237031D02*
X4425991Y-10227508D01*
X4425991Y-10227508D02*
X4445039Y-10217984D01*
X4597420Y-10417984D02*
X4597420Y-10284650D01*
X4597420Y-10303698D02*
X4606944Y-10294174D01*
X4606944Y-10294174D02*
X4625991Y-10284650D01*
X4625991Y-10284650D02*
X4654563Y-10284650D01*
X4654563Y-10284650D02*
X4673610Y-10294174D01*
X4673610Y-10294174D02*
X4683134Y-10313222D01*
X4683134Y-10313222D02*
X4683134Y-10417984D01*
X4683134Y-10313222D02*
X4692658Y-10294174D01*
X4692658Y-10294174D02*
X4711705Y-10284650D01*
X4711705Y-10284650D02*
X4740277Y-10284650D01*
X4740277Y-10284650D02*
X4759325Y-10294174D01*
X4759325Y-10294174D02*
X4768848Y-10313222D01*
X4768848Y-10313222D02*
X4768848Y-10417984D01*
X4864086Y-10417984D02*
X4864086Y-10284650D01*
X4864086Y-10303698D02*
X4873610Y-10294174D01*
X4873610Y-10294174D02*
X4892658Y-10284650D01*
X4892658Y-10284650D02*
X4921229Y-10284650D01*
X4921229Y-10284650D02*
X4940277Y-10294174D01*
X4940277Y-10294174D02*
X4949801Y-10313222D01*
X4949801Y-10313222D02*
X4949801Y-10417984D01*
X4949801Y-10313222D02*
X4959325Y-10294174D01*
X4959325Y-10294174D02*
X4978372Y-10284650D01*
X4978372Y-10284650D02*
X5006944Y-10284650D01*
X5006944Y-10284650D02*
X5025991Y-10294174D01*
X5025991Y-10294174D02*
X5035515Y-10313222D01*
X5035515Y-10313222D02*
X5035515Y-10417984D01*
X5425991Y-10208460D02*
X5254563Y-10465603D01*
X5683134Y-10217984D02*
X5702182Y-10217984D01*
X5702182Y-10217984D02*
X5721229Y-10227508D01*
X5721229Y-10227508D02*
X5730753Y-10237031D01*
X5730753Y-10237031D02*
X5740277Y-10256079D01*
X5740277Y-10256079D02*
X5749801Y-10294174D01*
X5749801Y-10294174D02*
X5749801Y-10341793D01*
X5749801Y-10341793D02*
X5740277Y-10379889D01*
X5740277Y-10379889D02*
X5730753Y-10398936D01*
X5730753Y-10398936D02*
X5721229Y-10408460D01*
X5721229Y-10408460D02*
X5702182Y-10417984D01*
X5702182Y-10417984D02*
X5683134Y-10417984D01*
X5683134Y-10417984D02*
X5664086Y-10408460D01*
X5664086Y-10408460D02*
X5654563Y-10398936D01*
X5654563Y-10398936D02*
X5645039Y-10379889D01*
X5645039Y-10379889D02*
X5635515Y-10341793D01*
X5635515Y-10341793D02*
X5635515Y-10294174D01*
X5635515Y-10294174D02*
X5645039Y-10256079D01*
X5645039Y-10256079D02*
X5654563Y-10237031D01*
X5654563Y-10237031D02*
X5664086Y-10227508D01*
X5664086Y-10227508D02*
X5683134Y-10217984D01*
X5835515Y-10398936D02*
X5845039Y-10408460D01*
X5845039Y-10408460D02*
X5835515Y-10417984D01*
X5835515Y-10417984D02*
X5825991Y-10408460D01*
X5825991Y-10408460D02*
X5835515Y-10398936D01*
X5835515Y-10398936D02*
X5835515Y-10417984D01*
X6035515Y-10417984D02*
X5921229Y-10417984D01*
X5978372Y-10417984D02*
X5978372Y-10217984D01*
X5978372Y-10217984D02*
X5959325Y-10246555D01*
X5959325Y-10246555D02*
X5940277Y-10265603D01*
X5940277Y-10265603D02*
X5921229Y-10275127D01*
X6102182Y-10217984D02*
X6225991Y-10217984D01*
X6225991Y-10217984D02*
X6159325Y-10294174D01*
X6159325Y-10294174D02*
X6187896Y-10294174D01*
X6187896Y-10294174D02*
X6206944Y-10303698D01*
X6206944Y-10303698D02*
X6216467Y-10313222D01*
X6216467Y-10313222D02*
X6225991Y-10332270D01*
X6225991Y-10332270D02*
X6225991Y-10379889D01*
X6225991Y-10379889D02*
X6216467Y-10398936D01*
X6216467Y-10398936D02*
X6206944Y-10408460D01*
X6206944Y-10408460D02*
X6187896Y-10417984D01*
X6187896Y-10417984D02*
X6130753Y-10417984D01*
X6130753Y-10417984D02*
X6111706Y-10408460D01*
X6111706Y-10408460D02*
X6102182Y-10398936D01*
X6292658Y-10217984D02*
X6425991Y-10217984D01*
X6425991Y-10217984D02*
X6340277Y-10417984D01*
X6530753Y-10303698D02*
X6511706Y-10294174D01*
X6511706Y-10294174D02*
X6502182Y-10284650D01*
X6502182Y-10284650D02*
X6492658Y-10265603D01*
X6492658Y-10265603D02*
X6492658Y-10256079D01*
X6492658Y-10256079D02*
X6502182Y-10237031D01*
X6502182Y-10237031D02*
X6511706Y-10227508D01*
X6511706Y-10227508D02*
X6530753Y-10217984D01*
X6530753Y-10217984D02*
X6568848Y-10217984D01*
X6568848Y-10217984D02*
X6587896Y-10227508D01*
X6587896Y-10227508D02*
X6597420Y-10237031D01*
X6597420Y-10237031D02*
X6606944Y-10256079D01*
X6606944Y-10256079D02*
X6606944Y-10265603D01*
X6606944Y-10265603D02*
X6597420Y-10284650D01*
X6597420Y-10284650D02*
X6587896Y-10294174D01*
X6587896Y-10294174D02*
X6568848Y-10303698D01*
X6568848Y-10303698D02*
X6530753Y-10303698D01*
X6530753Y-10303698D02*
X6511706Y-10313222D01*
X6511706Y-10313222D02*
X6502182Y-10322746D01*
X6502182Y-10322746D02*
X6492658Y-10341793D01*
X6492658Y-10341793D02*
X6492658Y-10379889D01*
X6492658Y-10379889D02*
X6502182Y-10398936D01*
X6502182Y-10398936D02*
X6511706Y-10408460D01*
X6511706Y-10408460D02*
X6530753Y-10417984D01*
X6530753Y-10417984D02*
X6568848Y-10417984D01*
X6568848Y-10417984D02*
X6587896Y-10408460D01*
X6587896Y-10408460D02*
X6597420Y-10398936D01*
X6597420Y-10398936D02*
X6606944Y-10379889D01*
X6606944Y-10379889D02*
X6606944Y-10341793D01*
X6606944Y-10341793D02*
X6597420Y-10322746D01*
X6597420Y-10322746D02*
X6587896Y-10313222D01*
X6587896Y-10313222D02*
X6568848Y-10303698D01*
X6683134Y-10217984D02*
X6683134Y-10256079D01*
X6759325Y-10217984D02*
X6759325Y-10256079D01*
X7054563Y-10494174D02*
X7045039Y-10484650D01*
X7045039Y-10484650D02*
X7025991Y-10456079D01*
X7025991Y-10456079D02*
X7016468Y-10437031D01*
X7016468Y-10437031D02*
X7006944Y-10408460D01*
X7006944Y-10408460D02*
X6997420Y-10360841D01*
X6997420Y-10360841D02*
X6997420Y-10322746D01*
X6997420Y-10322746D02*
X7006944Y-10275127D01*
X7006944Y-10275127D02*
X7016468Y-10246555D01*
X7016468Y-10246555D02*
X7025991Y-10227508D01*
X7025991Y-10227508D02*
X7045039Y-10198936D01*
X7045039Y-10198936D02*
X7054563Y-10189412D01*
X7121229Y-10237031D02*
X7130753Y-10227508D01*
X7130753Y-10227508D02*
X7149801Y-10217984D01*
X7149801Y-10217984D02*
X7197420Y-10217984D01*
X7197420Y-10217984D02*
X7216468Y-10227508D01*
X7216468Y-10227508D02*
X7225991Y-10237031D01*
X7225991Y-10237031D02*
X7235515Y-10256079D01*
X7235515Y-10256079D02*
X7235515Y-10275127D01*
X7235515Y-10275127D02*
X7225991Y-10303698D01*
X7225991Y-10303698D02*
X7111706Y-10417984D01*
X7111706Y-10417984D02*
X7235515Y-10417984D01*
X7473610Y-10417984D02*
X7473610Y-10217984D01*
X7559325Y-10417984D02*
X7559325Y-10313222D01*
X7559325Y-10313222D02*
X7549801Y-10294174D01*
X7549801Y-10294174D02*
X7530753Y-10284650D01*
X7530753Y-10284650D02*
X7502182Y-10284650D01*
X7502182Y-10284650D02*
X7483134Y-10294174D01*
X7483134Y-10294174D02*
X7473610Y-10303698D01*
X7683134Y-10417984D02*
X7664087Y-10408460D01*
X7664087Y-10408460D02*
X7654563Y-10398936D01*
X7654563Y-10398936D02*
X7645039Y-10379889D01*
X7645039Y-10379889D02*
X7645039Y-10322746D01*
X7645039Y-10322746D02*
X7654563Y-10303698D01*
X7654563Y-10303698D02*
X7664087Y-10294174D01*
X7664087Y-10294174D02*
X7683134Y-10284650D01*
X7683134Y-10284650D02*
X7711706Y-10284650D01*
X7711706Y-10284650D02*
X7730753Y-10294174D01*
X7730753Y-10294174D02*
X7740277Y-10303698D01*
X7740277Y-10303698D02*
X7749801Y-10322746D01*
X7749801Y-10322746D02*
X7749801Y-10379889D01*
X7749801Y-10379889D02*
X7740277Y-10398936D01*
X7740277Y-10398936D02*
X7730753Y-10408460D01*
X7730753Y-10408460D02*
X7711706Y-10417984D01*
X7711706Y-10417984D02*
X7683134Y-10417984D01*
X7864087Y-10417984D02*
X7845039Y-10408460D01*
X7845039Y-10408460D02*
X7835515Y-10389412D01*
X7835515Y-10389412D02*
X7835515Y-10217984D01*
X8016468Y-10408460D02*
X7997420Y-10417984D01*
X7997420Y-10417984D02*
X7959325Y-10417984D01*
X7959325Y-10417984D02*
X7940277Y-10408460D01*
X7940277Y-10408460D02*
X7930753Y-10389412D01*
X7930753Y-10389412D02*
X7930753Y-10313222D01*
X7930753Y-10313222D02*
X7940277Y-10294174D01*
X7940277Y-10294174D02*
X7959325Y-10284650D01*
X7959325Y-10284650D02*
X7997420Y-10284650D01*
X7997420Y-10284650D02*
X8016468Y-10294174D01*
X8016468Y-10294174D02*
X8025991Y-10313222D01*
X8025991Y-10313222D02*
X8025991Y-10332270D01*
X8025991Y-10332270D02*
X7930753Y-10351317D01*
X8102182Y-10408460D02*
X8121230Y-10417984D01*
X8121230Y-10417984D02*
X8159325Y-10417984D01*
X8159325Y-10417984D02*
X8178372Y-10408460D01*
X8178372Y-10408460D02*
X8187896Y-10389412D01*
X8187896Y-10389412D02*
X8187896Y-10379889D01*
X8187896Y-10379889D02*
X8178372Y-10360841D01*
X8178372Y-10360841D02*
X8159325Y-10351317D01*
X8159325Y-10351317D02*
X8130753Y-10351317D01*
X8130753Y-10351317D02*
X8111706Y-10341793D01*
X8111706Y-10341793D02*
X8102182Y-10322746D01*
X8102182Y-10322746D02*
X8102182Y-10313222D01*
X8102182Y-10313222D02*
X8111706Y-10294174D01*
X8111706Y-10294174D02*
X8130753Y-10284650D01*
X8130753Y-10284650D02*
X8159325Y-10284650D01*
X8159325Y-10284650D02*
X8178372Y-10294174D01*
X8254563Y-10494174D02*
X8264087Y-10484650D01*
X8264087Y-10484650D02*
X8283134Y-10456079D01*
X8283134Y-10456079D02*
X8292658Y-10437031D01*
X8292658Y-10437031D02*
X8302182Y-10408460D01*
X8302182Y-10408460D02*
X8311706Y-10360841D01*
X8311706Y-10360841D02*
X8311706Y-10322746D01*
X8311706Y-10322746D02*
X8302182Y-10275127D01*
X8302182Y-10275127D02*
X8292658Y-10246555D01*
X8292658Y-10246555D02*
X8283134Y-10227508D01*
X8283134Y-10227508D02*
X8264087Y-10198936D01*
X8264087Y-10198936D02*
X8254563Y-10189412D01*
X8616468Y-10494174D02*
X8606944Y-10484650D01*
X8606944Y-10484650D02*
X8587896Y-10456079D01*
X8587896Y-10456079D02*
X8578373Y-10437031D01*
X8578373Y-10437031D02*
X8568849Y-10408460D01*
X8568849Y-10408460D02*
X8559325Y-10360841D01*
X8559325Y-10360841D02*
X8559325Y-10322746D01*
X8559325Y-10322746D02*
X8568849Y-10275127D01*
X8568849Y-10275127D02*
X8578373Y-10246555D01*
X8578373Y-10246555D02*
X8587896Y-10227508D01*
X8587896Y-10227508D02*
X8606944Y-10198936D01*
X8606944Y-10198936D02*
X8616468Y-10189412D01*
X8692658Y-10284650D02*
X8692658Y-10417984D01*
X8692658Y-10303698D02*
X8702182Y-10294174D01*
X8702182Y-10294174D02*
X8721230Y-10284650D01*
X8721230Y-10284650D02*
X8749801Y-10284650D01*
X8749801Y-10284650D02*
X8768849Y-10294174D01*
X8768849Y-10294174D02*
X8778373Y-10313222D01*
X8778373Y-10313222D02*
X8778373Y-10417984D01*
X8902182Y-10417984D02*
X8883134Y-10408460D01*
X8883134Y-10408460D02*
X8873611Y-10398936D01*
X8873611Y-10398936D02*
X8864087Y-10379889D01*
X8864087Y-10379889D02*
X8864087Y-10322746D01*
X8864087Y-10322746D02*
X8873611Y-10303698D01*
X8873611Y-10303698D02*
X8883134Y-10294174D01*
X8883134Y-10294174D02*
X8902182Y-10284650D01*
X8902182Y-10284650D02*
X8930754Y-10284650D01*
X8930754Y-10284650D02*
X8949801Y-10294174D01*
X8949801Y-10294174D02*
X8959325Y-10303698D01*
X8959325Y-10303698D02*
X8968849Y-10322746D01*
X8968849Y-10322746D02*
X8968849Y-10379889D01*
X8968849Y-10379889D02*
X8959325Y-10398936D01*
X8959325Y-10398936D02*
X8949801Y-10408460D01*
X8949801Y-10408460D02*
X8930754Y-10417984D01*
X8930754Y-10417984D02*
X8902182Y-10417984D01*
X9025992Y-10284650D02*
X9102182Y-10284650D01*
X9054563Y-10217984D02*
X9054563Y-10389412D01*
X9054563Y-10389412D02*
X9064087Y-10408460D01*
X9064087Y-10408460D02*
X9083134Y-10417984D01*
X9083134Y-10417984D02*
X9102182Y-10417984D01*
X9321230Y-10284650D02*
X9321230Y-10484650D01*
X9321230Y-10294174D02*
X9340277Y-10284650D01*
X9340277Y-10284650D02*
X9378373Y-10284650D01*
X9378373Y-10284650D02*
X9397420Y-10294174D01*
X9397420Y-10294174D02*
X9406944Y-10303698D01*
X9406944Y-10303698D02*
X9416468Y-10322746D01*
X9416468Y-10322746D02*
X9416468Y-10379889D01*
X9416468Y-10379889D02*
X9406944Y-10398936D01*
X9406944Y-10398936D02*
X9397420Y-10408460D01*
X9397420Y-10408460D02*
X9378373Y-10417984D01*
X9378373Y-10417984D02*
X9340277Y-10417984D01*
X9340277Y-10417984D02*
X9321230Y-10408460D01*
X9530754Y-10417984D02*
X9511706Y-10408460D01*
X9511706Y-10408460D02*
X9502182Y-10389412D01*
X9502182Y-10389412D02*
X9502182Y-10217984D01*
X9692658Y-10417984D02*
X9692658Y-10313222D01*
X9692658Y-10313222D02*
X9683135Y-10294174D01*
X9683135Y-10294174D02*
X9664087Y-10284650D01*
X9664087Y-10284650D02*
X9625992Y-10284650D01*
X9625992Y-10284650D02*
X9606944Y-10294174D01*
X9692658Y-10408460D02*
X9673611Y-10417984D01*
X9673611Y-10417984D02*
X9625992Y-10417984D01*
X9625992Y-10417984D02*
X9606944Y-10408460D01*
X9606944Y-10408460D02*
X9597420Y-10389412D01*
X9597420Y-10389412D02*
X9597420Y-10370365D01*
X9597420Y-10370365D02*
X9606944Y-10351317D01*
X9606944Y-10351317D02*
X9625992Y-10341793D01*
X9625992Y-10341793D02*
X9673611Y-10341793D01*
X9673611Y-10341793D02*
X9692658Y-10332270D01*
X9759325Y-10284650D02*
X9835515Y-10284650D01*
X9787896Y-10217984D02*
X9787896Y-10389412D01*
X9787896Y-10389412D02*
X9797420Y-10408460D01*
X9797420Y-10408460D02*
X9816468Y-10417984D01*
X9816468Y-10417984D02*
X9835515Y-10417984D01*
X9978373Y-10408460D02*
X9959325Y-10417984D01*
X9959325Y-10417984D02*
X9921230Y-10417984D01*
X9921230Y-10417984D02*
X9902182Y-10408460D01*
X9902182Y-10408460D02*
X9892658Y-10389412D01*
X9892658Y-10389412D02*
X9892658Y-10313222D01*
X9892658Y-10313222D02*
X9902182Y-10294174D01*
X9902182Y-10294174D02*
X9921230Y-10284650D01*
X9921230Y-10284650D02*
X9959325Y-10284650D01*
X9959325Y-10284650D02*
X9978373Y-10294174D01*
X9978373Y-10294174D02*
X9987896Y-10313222D01*
X9987896Y-10313222D02*
X9987896Y-10332270D01*
X9987896Y-10332270D02*
X9892658Y-10351317D01*
X10159325Y-10417984D02*
X10159325Y-10217984D01*
X10159325Y-10408460D02*
X10140277Y-10417984D01*
X10140277Y-10417984D02*
X10102182Y-10417984D01*
X10102182Y-10417984D02*
X10083135Y-10408460D01*
X10083135Y-10408460D02*
X10073611Y-10398936D01*
X10073611Y-10398936D02*
X10064087Y-10379889D01*
X10064087Y-10379889D02*
X10064087Y-10322746D01*
X10064087Y-10322746D02*
X10073611Y-10303698D01*
X10073611Y-10303698D02*
X10083135Y-10294174D01*
X10083135Y-10294174D02*
X10102182Y-10284650D01*
X10102182Y-10284650D02*
X10140277Y-10284650D01*
X10140277Y-10284650D02*
X10159325Y-10294174D01*
X10235516Y-10494174D02*
X10245039Y-10484650D01*
X10245039Y-10484650D02*
X10264087Y-10456079D01*
X10264087Y-10456079D02*
X10273611Y-10437031D01*
X10273611Y-10437031D02*
X10283135Y-10408460D01*
X10283135Y-10408460D02*
X10292658Y-10360841D01*
X10292658Y-10360841D02*
X10292658Y-10322746D01*
X10292658Y-10322746D02*
X10283135Y-10275127D01*
X10283135Y-10275127D02*
X10273611Y-10246555D01*
X10273611Y-10246555D02*
X10264087Y-10227508D01*
X10264087Y-10227508D02*
X10245039Y-10198936D01*
X10245039Y-10198936D02*
X10235516Y-10189412D01*
X3379500Y-10546500D02*
X3379500Y-10746500D01*
X3279500Y-10646500D02*
X3479500Y-10646500D01*
X3835515Y-10537984D02*
X3740277Y-10537984D01*
X3740277Y-10537984D02*
X3730753Y-10633222D01*
X3730753Y-10633222D02*
X3740277Y-10623698D01*
X3740277Y-10623698D02*
X3759324Y-10614174D01*
X3759324Y-10614174D02*
X3806943Y-10614174D01*
X3806943Y-10614174D02*
X3825991Y-10623698D01*
X3825991Y-10623698D02*
X3835515Y-10633222D01*
X3835515Y-10633222D02*
X3845039Y-10652270D01*
X3845039Y-10652270D02*
X3845039Y-10699889D01*
X3845039Y-10699889D02*
X3835515Y-10718936D01*
X3835515Y-10718936D02*
X3825991Y-10728460D01*
X3825991Y-10728460D02*
X3806943Y-10737984D01*
X3806943Y-10737984D02*
X3759324Y-10737984D01*
X3759324Y-10737984D02*
X3740277Y-10728460D01*
X3740277Y-10728460D02*
X3730753Y-10718936D01*
X3930753Y-10718936D02*
X3940277Y-10728460D01*
X3940277Y-10728460D02*
X3930753Y-10737984D01*
X3930753Y-10737984D02*
X3921229Y-10728460D01*
X3921229Y-10728460D02*
X3930753Y-10718936D01*
X3930753Y-10718936D02*
X3930753Y-10737984D01*
X4064086Y-10537984D02*
X4083134Y-10537984D01*
X4083134Y-10537984D02*
X4102182Y-10547508D01*
X4102182Y-10547508D02*
X4111705Y-10557031D01*
X4111705Y-10557031D02*
X4121229Y-10576079D01*
X4121229Y-10576079D02*
X4130753Y-10614174D01*
X4130753Y-10614174D02*
X4130753Y-10661793D01*
X4130753Y-10661793D02*
X4121229Y-10699889D01*
X4121229Y-10699889D02*
X4111705Y-10718936D01*
X4111705Y-10718936D02*
X4102182Y-10728460D01*
X4102182Y-10728460D02*
X4083134Y-10737984D01*
X4083134Y-10737984D02*
X4064086Y-10737984D01*
X4064086Y-10737984D02*
X4045039Y-10728460D01*
X4045039Y-10728460D02*
X4035515Y-10718936D01*
X4035515Y-10718936D02*
X4025991Y-10699889D01*
X4025991Y-10699889D02*
X4016467Y-10661793D01*
X4016467Y-10661793D02*
X4016467Y-10614174D01*
X4016467Y-10614174D02*
X4025991Y-10576079D01*
X4025991Y-10576079D02*
X4035515Y-10557031D01*
X4035515Y-10557031D02*
X4045039Y-10547508D01*
X4045039Y-10547508D02*
X4064086Y-10537984D01*
X4311705Y-10537984D02*
X4216467Y-10537984D01*
X4216467Y-10537984D02*
X4206944Y-10633222D01*
X4206944Y-10633222D02*
X4216467Y-10623698D01*
X4216467Y-10623698D02*
X4235515Y-10614174D01*
X4235515Y-10614174D02*
X4283134Y-10614174D01*
X4283134Y-10614174D02*
X4302182Y-10623698D01*
X4302182Y-10623698D02*
X4311705Y-10633222D01*
X4311705Y-10633222D02*
X4321229Y-10652270D01*
X4321229Y-10652270D02*
X4321229Y-10699889D01*
X4321229Y-10699889D02*
X4311705Y-10718936D01*
X4311705Y-10718936D02*
X4302182Y-10728460D01*
X4302182Y-10728460D02*
X4283134Y-10737984D01*
X4283134Y-10737984D02*
X4235515Y-10737984D01*
X4235515Y-10737984D02*
X4216467Y-10728460D01*
X4216467Y-10728460D02*
X4206944Y-10718936D01*
X4445039Y-10537984D02*
X4464086Y-10537984D01*
X4464086Y-10537984D02*
X4483134Y-10547508D01*
X4483134Y-10547508D02*
X4492658Y-10557031D01*
X4492658Y-10557031D02*
X4502182Y-10576079D01*
X4502182Y-10576079D02*
X4511705Y-10614174D01*
X4511705Y-10614174D02*
X4511705Y-10661793D01*
X4511705Y-10661793D02*
X4502182Y-10699889D01*
X4502182Y-10699889D02*
X4492658Y-10718936D01*
X4492658Y-10718936D02*
X4483134Y-10728460D01*
X4483134Y-10728460D02*
X4464086Y-10737984D01*
X4464086Y-10737984D02*
X4445039Y-10737984D01*
X4445039Y-10737984D02*
X4425991Y-10728460D01*
X4425991Y-10728460D02*
X4416467Y-10718936D01*
X4416467Y-10718936D02*
X4406944Y-10699889D01*
X4406944Y-10699889D02*
X4397420Y-10661793D01*
X4397420Y-10661793D02*
X4397420Y-10614174D01*
X4397420Y-10614174D02*
X4406944Y-10576079D01*
X4406944Y-10576079D02*
X4416467Y-10557031D01*
X4416467Y-10557031D02*
X4425991Y-10547508D01*
X4425991Y-10547508D02*
X4445039Y-10537984D01*
X4597420Y-10737984D02*
X4597420Y-10604650D01*
X4597420Y-10623698D02*
X4606944Y-10614174D01*
X4606944Y-10614174D02*
X4625991Y-10604650D01*
X4625991Y-10604650D02*
X4654563Y-10604650D01*
X4654563Y-10604650D02*
X4673610Y-10614174D01*
X4673610Y-10614174D02*
X4683134Y-10633222D01*
X4683134Y-10633222D02*
X4683134Y-10737984D01*
X4683134Y-10633222D02*
X4692658Y-10614174D01*
X4692658Y-10614174D02*
X4711705Y-10604650D01*
X4711705Y-10604650D02*
X4740277Y-10604650D01*
X4740277Y-10604650D02*
X4759325Y-10614174D01*
X4759325Y-10614174D02*
X4768848Y-10633222D01*
X4768848Y-10633222D02*
X4768848Y-10737984D01*
X4864086Y-10737984D02*
X4864086Y-10604650D01*
X4864086Y-10623698D02*
X4873610Y-10614174D01*
X4873610Y-10614174D02*
X4892658Y-10604650D01*
X4892658Y-10604650D02*
X4921229Y-10604650D01*
X4921229Y-10604650D02*
X4940277Y-10614174D01*
X4940277Y-10614174D02*
X4949801Y-10633222D01*
X4949801Y-10633222D02*
X4949801Y-10737984D01*
X4949801Y-10633222D02*
X4959325Y-10614174D01*
X4959325Y-10614174D02*
X4978372Y-10604650D01*
X4978372Y-10604650D02*
X5006944Y-10604650D01*
X5006944Y-10604650D02*
X5025991Y-10614174D01*
X5025991Y-10614174D02*
X5035515Y-10633222D01*
X5035515Y-10633222D02*
X5035515Y-10737984D01*
X5425991Y-10528460D02*
X5254563Y-10785603D01*
X5683134Y-10537984D02*
X5702182Y-10537984D01*
X5702182Y-10537984D02*
X5721229Y-10547508D01*
X5721229Y-10547508D02*
X5730753Y-10557031D01*
X5730753Y-10557031D02*
X5740277Y-10576079D01*
X5740277Y-10576079D02*
X5749801Y-10614174D01*
X5749801Y-10614174D02*
X5749801Y-10661793D01*
X5749801Y-10661793D02*
X5740277Y-10699889D01*
X5740277Y-10699889D02*
X5730753Y-10718936D01*
X5730753Y-10718936D02*
X5721229Y-10728460D01*
X5721229Y-10728460D02*
X5702182Y-10737984D01*
X5702182Y-10737984D02*
X5683134Y-10737984D01*
X5683134Y-10737984D02*
X5664086Y-10728460D01*
X5664086Y-10728460D02*
X5654563Y-10718936D01*
X5654563Y-10718936D02*
X5645039Y-10699889D01*
X5645039Y-10699889D02*
X5635515Y-10661793D01*
X5635515Y-10661793D02*
X5635515Y-10614174D01*
X5635515Y-10614174D02*
X5645039Y-10576079D01*
X5645039Y-10576079D02*
X5654563Y-10557031D01*
X5654563Y-10557031D02*
X5664086Y-10547508D01*
X5664086Y-10547508D02*
X5683134Y-10537984D01*
X5835515Y-10718936D02*
X5845039Y-10728460D01*
X5845039Y-10728460D02*
X5835515Y-10737984D01*
X5835515Y-10737984D02*
X5825991Y-10728460D01*
X5825991Y-10728460D02*
X5835515Y-10718936D01*
X5835515Y-10718936D02*
X5835515Y-10737984D01*
X6035515Y-10737984D02*
X5921229Y-10737984D01*
X5978372Y-10737984D02*
X5978372Y-10537984D01*
X5978372Y-10537984D02*
X5959325Y-10566555D01*
X5959325Y-10566555D02*
X5940277Y-10585603D01*
X5940277Y-10585603D02*
X5921229Y-10595127D01*
X6130753Y-10737984D02*
X6168848Y-10737984D01*
X6168848Y-10737984D02*
X6187896Y-10728460D01*
X6187896Y-10728460D02*
X6197420Y-10718936D01*
X6197420Y-10718936D02*
X6216467Y-10690365D01*
X6216467Y-10690365D02*
X6225991Y-10652270D01*
X6225991Y-10652270D02*
X6225991Y-10576079D01*
X6225991Y-10576079D02*
X6216467Y-10557031D01*
X6216467Y-10557031D02*
X6206944Y-10547508D01*
X6206944Y-10547508D02*
X6187896Y-10537984D01*
X6187896Y-10537984D02*
X6149801Y-10537984D01*
X6149801Y-10537984D02*
X6130753Y-10547508D01*
X6130753Y-10547508D02*
X6121229Y-10557031D01*
X6121229Y-10557031D02*
X6111706Y-10576079D01*
X6111706Y-10576079D02*
X6111706Y-10623698D01*
X6111706Y-10623698D02*
X6121229Y-10642746D01*
X6121229Y-10642746D02*
X6130753Y-10652270D01*
X6130753Y-10652270D02*
X6149801Y-10661793D01*
X6149801Y-10661793D02*
X6187896Y-10661793D01*
X6187896Y-10661793D02*
X6206944Y-10652270D01*
X6206944Y-10652270D02*
X6216467Y-10642746D01*
X6216467Y-10642746D02*
X6225991Y-10623698D01*
X6340277Y-10623698D02*
X6321229Y-10614174D01*
X6321229Y-10614174D02*
X6311706Y-10604650D01*
X6311706Y-10604650D02*
X6302182Y-10585603D01*
X6302182Y-10585603D02*
X6302182Y-10576079D01*
X6302182Y-10576079D02*
X6311706Y-10557031D01*
X6311706Y-10557031D02*
X6321229Y-10547508D01*
X6321229Y-10547508D02*
X6340277Y-10537984D01*
X6340277Y-10537984D02*
X6378372Y-10537984D01*
X6378372Y-10537984D02*
X6397420Y-10547508D01*
X6397420Y-10547508D02*
X6406944Y-10557031D01*
X6406944Y-10557031D02*
X6416467Y-10576079D01*
X6416467Y-10576079D02*
X6416467Y-10585603D01*
X6416467Y-10585603D02*
X6406944Y-10604650D01*
X6406944Y-10604650D02*
X6397420Y-10614174D01*
X6397420Y-10614174D02*
X6378372Y-10623698D01*
X6378372Y-10623698D02*
X6340277Y-10623698D01*
X6340277Y-10623698D02*
X6321229Y-10633222D01*
X6321229Y-10633222D02*
X6311706Y-10642746D01*
X6311706Y-10642746D02*
X6302182Y-10661793D01*
X6302182Y-10661793D02*
X6302182Y-10699889D01*
X6302182Y-10699889D02*
X6311706Y-10718936D01*
X6311706Y-10718936D02*
X6321229Y-10728460D01*
X6321229Y-10728460D02*
X6340277Y-10737984D01*
X6340277Y-10737984D02*
X6378372Y-10737984D01*
X6378372Y-10737984D02*
X6397420Y-10728460D01*
X6397420Y-10728460D02*
X6406944Y-10718936D01*
X6406944Y-10718936D02*
X6416467Y-10699889D01*
X6416467Y-10699889D02*
X6416467Y-10661793D01*
X6416467Y-10661793D02*
X6406944Y-10642746D01*
X6406944Y-10642746D02*
X6397420Y-10633222D01*
X6397420Y-10633222D02*
X6378372Y-10623698D01*
X6530753Y-10623698D02*
X6511706Y-10614174D01*
X6511706Y-10614174D02*
X6502182Y-10604650D01*
X6502182Y-10604650D02*
X6492658Y-10585603D01*
X6492658Y-10585603D02*
X6492658Y-10576079D01*
X6492658Y-10576079D02*
X6502182Y-10557031D01*
X6502182Y-10557031D02*
X6511706Y-10547508D01*
X6511706Y-10547508D02*
X6530753Y-10537984D01*
X6530753Y-10537984D02*
X6568848Y-10537984D01*
X6568848Y-10537984D02*
X6587896Y-10547508D01*
X6587896Y-10547508D02*
X6597420Y-10557031D01*
X6597420Y-10557031D02*
X6606944Y-10576079D01*
X6606944Y-10576079D02*
X6606944Y-10585603D01*
X6606944Y-10585603D02*
X6597420Y-10604650D01*
X6597420Y-10604650D02*
X6587896Y-10614174D01*
X6587896Y-10614174D02*
X6568848Y-10623698D01*
X6568848Y-10623698D02*
X6530753Y-10623698D01*
X6530753Y-10623698D02*
X6511706Y-10633222D01*
X6511706Y-10633222D02*
X6502182Y-10642746D01*
X6502182Y-10642746D02*
X6492658Y-10661793D01*
X6492658Y-10661793D02*
X6492658Y-10699889D01*
X6492658Y-10699889D02*
X6502182Y-10718936D01*
X6502182Y-10718936D02*
X6511706Y-10728460D01*
X6511706Y-10728460D02*
X6530753Y-10737984D01*
X6530753Y-10737984D02*
X6568848Y-10737984D01*
X6568848Y-10737984D02*
X6587896Y-10728460D01*
X6587896Y-10728460D02*
X6597420Y-10718936D01*
X6597420Y-10718936D02*
X6606944Y-10699889D01*
X6606944Y-10699889D02*
X6606944Y-10661793D01*
X6606944Y-10661793D02*
X6597420Y-10642746D01*
X6597420Y-10642746D02*
X6587896Y-10633222D01*
X6587896Y-10633222D02*
X6568848Y-10623698D01*
X6683134Y-10537984D02*
X6683134Y-10576079D01*
X6759325Y-10537984D02*
X6759325Y-10576079D01*
X7054563Y-10814174D02*
X7045039Y-10804650D01*
X7045039Y-10804650D02*
X7025991Y-10776079D01*
X7025991Y-10776079D02*
X7016468Y-10757031D01*
X7016468Y-10757031D02*
X7006944Y-10728460D01*
X7006944Y-10728460D02*
X6997420Y-10680841D01*
X6997420Y-10680841D02*
X6997420Y-10642746D01*
X6997420Y-10642746D02*
X7006944Y-10595127D01*
X7006944Y-10595127D02*
X7016468Y-10566555D01*
X7016468Y-10566555D02*
X7025991Y-10547508D01*
X7025991Y-10547508D02*
X7045039Y-10518936D01*
X7045039Y-10518936D02*
X7054563Y-10509412D01*
X7216468Y-10537984D02*
X7178372Y-10537984D01*
X7178372Y-10537984D02*
X7159325Y-10547508D01*
X7159325Y-10547508D02*
X7149801Y-10557031D01*
X7149801Y-10557031D02*
X7130753Y-10585603D01*
X7130753Y-10585603D02*
X7121229Y-10623698D01*
X7121229Y-10623698D02*
X7121229Y-10699889D01*
X7121229Y-10699889D02*
X7130753Y-10718936D01*
X7130753Y-10718936D02*
X7140277Y-10728460D01*
X7140277Y-10728460D02*
X7159325Y-10737984D01*
X7159325Y-10737984D02*
X7197420Y-10737984D01*
X7197420Y-10737984D02*
X7216468Y-10728460D01*
X7216468Y-10728460D02*
X7225991Y-10718936D01*
X7225991Y-10718936D02*
X7235515Y-10699889D01*
X7235515Y-10699889D02*
X7235515Y-10652270D01*
X7235515Y-10652270D02*
X7225991Y-10633222D01*
X7225991Y-10633222D02*
X7216468Y-10623698D01*
X7216468Y-10623698D02*
X7197420Y-10614174D01*
X7197420Y-10614174D02*
X7159325Y-10614174D01*
X7159325Y-10614174D02*
X7140277Y-10623698D01*
X7140277Y-10623698D02*
X7130753Y-10633222D01*
X7130753Y-10633222D02*
X7121229Y-10652270D01*
X7473610Y-10737984D02*
X7473610Y-10537984D01*
X7559325Y-10737984D02*
X7559325Y-10633222D01*
X7559325Y-10633222D02*
X7549801Y-10614174D01*
X7549801Y-10614174D02*
X7530753Y-10604650D01*
X7530753Y-10604650D02*
X7502182Y-10604650D01*
X7502182Y-10604650D02*
X7483134Y-10614174D01*
X7483134Y-10614174D02*
X7473610Y-10623698D01*
X7683134Y-10737984D02*
X7664087Y-10728460D01*
X7664087Y-10728460D02*
X7654563Y-10718936D01*
X7654563Y-10718936D02*
X7645039Y-10699889D01*
X7645039Y-10699889D02*
X7645039Y-10642746D01*
X7645039Y-10642746D02*
X7654563Y-10623698D01*
X7654563Y-10623698D02*
X7664087Y-10614174D01*
X7664087Y-10614174D02*
X7683134Y-10604650D01*
X7683134Y-10604650D02*
X7711706Y-10604650D01*
X7711706Y-10604650D02*
X7730753Y-10614174D01*
X7730753Y-10614174D02*
X7740277Y-10623698D01*
X7740277Y-10623698D02*
X7749801Y-10642746D01*
X7749801Y-10642746D02*
X7749801Y-10699889D01*
X7749801Y-10699889D02*
X7740277Y-10718936D01*
X7740277Y-10718936D02*
X7730753Y-10728460D01*
X7730753Y-10728460D02*
X7711706Y-10737984D01*
X7711706Y-10737984D02*
X7683134Y-10737984D01*
X7864087Y-10737984D02*
X7845039Y-10728460D01*
X7845039Y-10728460D02*
X7835515Y-10709412D01*
X7835515Y-10709412D02*
X7835515Y-10537984D01*
X8016468Y-10728460D02*
X7997420Y-10737984D01*
X7997420Y-10737984D02*
X7959325Y-10737984D01*
X7959325Y-10737984D02*
X7940277Y-10728460D01*
X7940277Y-10728460D02*
X7930753Y-10709412D01*
X7930753Y-10709412D02*
X7930753Y-10633222D01*
X7930753Y-10633222D02*
X7940277Y-10614174D01*
X7940277Y-10614174D02*
X7959325Y-10604650D01*
X7959325Y-10604650D02*
X7997420Y-10604650D01*
X7997420Y-10604650D02*
X8016468Y-10614174D01*
X8016468Y-10614174D02*
X8025991Y-10633222D01*
X8025991Y-10633222D02*
X8025991Y-10652270D01*
X8025991Y-10652270D02*
X7930753Y-10671317D01*
X8102182Y-10728460D02*
X8121230Y-10737984D01*
X8121230Y-10737984D02*
X8159325Y-10737984D01*
X8159325Y-10737984D02*
X8178372Y-10728460D01*
X8178372Y-10728460D02*
X8187896Y-10709412D01*
X8187896Y-10709412D02*
X8187896Y-10699889D01*
X8187896Y-10699889D02*
X8178372Y-10680841D01*
X8178372Y-10680841D02*
X8159325Y-10671317D01*
X8159325Y-10671317D02*
X8130753Y-10671317D01*
X8130753Y-10671317D02*
X8111706Y-10661793D01*
X8111706Y-10661793D02*
X8102182Y-10642746D01*
X8102182Y-10642746D02*
X8102182Y-10633222D01*
X8102182Y-10633222D02*
X8111706Y-10614174D01*
X8111706Y-10614174D02*
X8130753Y-10604650D01*
X8130753Y-10604650D02*
X8159325Y-10604650D01*
X8159325Y-10604650D02*
X8178372Y-10614174D01*
X8254563Y-10814174D02*
X8264087Y-10804650D01*
X8264087Y-10804650D02*
X8283134Y-10776079D01*
X8283134Y-10776079D02*
X8292658Y-10757031D01*
X8292658Y-10757031D02*
X8302182Y-10728460D01*
X8302182Y-10728460D02*
X8311706Y-10680841D01*
X8311706Y-10680841D02*
X8311706Y-10642746D01*
X8311706Y-10642746D02*
X8302182Y-10595127D01*
X8302182Y-10595127D02*
X8292658Y-10566555D01*
X8292658Y-10566555D02*
X8283134Y-10547508D01*
X8283134Y-10547508D02*
X8264087Y-10518936D01*
X8264087Y-10518936D02*
X8254563Y-10509412D01*
X8616468Y-10814174D02*
X8606944Y-10804650D01*
X8606944Y-10804650D02*
X8587896Y-10776079D01*
X8587896Y-10776079D02*
X8578373Y-10757031D01*
X8578373Y-10757031D02*
X8568849Y-10728460D01*
X8568849Y-10728460D02*
X8559325Y-10680841D01*
X8559325Y-10680841D02*
X8559325Y-10642746D01*
X8559325Y-10642746D02*
X8568849Y-10595127D01*
X8568849Y-10595127D02*
X8578373Y-10566555D01*
X8578373Y-10566555D02*
X8587896Y-10547508D01*
X8587896Y-10547508D02*
X8606944Y-10518936D01*
X8606944Y-10518936D02*
X8616468Y-10509412D01*
X8692658Y-10604650D02*
X8692658Y-10737984D01*
X8692658Y-10623698D02*
X8702182Y-10614174D01*
X8702182Y-10614174D02*
X8721230Y-10604650D01*
X8721230Y-10604650D02*
X8749801Y-10604650D01*
X8749801Y-10604650D02*
X8768849Y-10614174D01*
X8768849Y-10614174D02*
X8778373Y-10633222D01*
X8778373Y-10633222D02*
X8778373Y-10737984D01*
X8902182Y-10737984D02*
X8883134Y-10728460D01*
X8883134Y-10728460D02*
X8873611Y-10718936D01*
X8873611Y-10718936D02*
X8864087Y-10699889D01*
X8864087Y-10699889D02*
X8864087Y-10642746D01*
X8864087Y-10642746D02*
X8873611Y-10623698D01*
X8873611Y-10623698D02*
X8883134Y-10614174D01*
X8883134Y-10614174D02*
X8902182Y-10604650D01*
X8902182Y-10604650D02*
X8930754Y-10604650D01*
X8930754Y-10604650D02*
X8949801Y-10614174D01*
X8949801Y-10614174D02*
X8959325Y-10623698D01*
X8959325Y-10623698D02*
X8968849Y-10642746D01*
X8968849Y-10642746D02*
X8968849Y-10699889D01*
X8968849Y-10699889D02*
X8959325Y-10718936D01*
X8959325Y-10718936D02*
X8949801Y-10728460D01*
X8949801Y-10728460D02*
X8930754Y-10737984D01*
X8930754Y-10737984D02*
X8902182Y-10737984D01*
X9025992Y-10604650D02*
X9102182Y-10604650D01*
X9054563Y-10537984D02*
X9054563Y-10709412D01*
X9054563Y-10709412D02*
X9064087Y-10728460D01*
X9064087Y-10728460D02*
X9083134Y-10737984D01*
X9083134Y-10737984D02*
X9102182Y-10737984D01*
X9321230Y-10604650D02*
X9321230Y-10804650D01*
X9321230Y-10614174D02*
X9340277Y-10604650D01*
X9340277Y-10604650D02*
X9378373Y-10604650D01*
X9378373Y-10604650D02*
X9397420Y-10614174D01*
X9397420Y-10614174D02*
X9406944Y-10623698D01*
X9406944Y-10623698D02*
X9416468Y-10642746D01*
X9416468Y-10642746D02*
X9416468Y-10699889D01*
X9416468Y-10699889D02*
X9406944Y-10718936D01*
X9406944Y-10718936D02*
X9397420Y-10728460D01*
X9397420Y-10728460D02*
X9378373Y-10737984D01*
X9378373Y-10737984D02*
X9340277Y-10737984D01*
X9340277Y-10737984D02*
X9321230Y-10728460D01*
X9530754Y-10737984D02*
X9511706Y-10728460D01*
X9511706Y-10728460D02*
X9502182Y-10709412D01*
X9502182Y-10709412D02*
X9502182Y-10537984D01*
X9692658Y-10737984D02*
X9692658Y-10633222D01*
X9692658Y-10633222D02*
X9683135Y-10614174D01*
X9683135Y-10614174D02*
X9664087Y-10604650D01*
X9664087Y-10604650D02*
X9625992Y-10604650D01*
X9625992Y-10604650D02*
X9606944Y-10614174D01*
X9692658Y-10728460D02*
X9673611Y-10737984D01*
X9673611Y-10737984D02*
X9625992Y-10737984D01*
X9625992Y-10737984D02*
X9606944Y-10728460D01*
X9606944Y-10728460D02*
X9597420Y-10709412D01*
X9597420Y-10709412D02*
X9597420Y-10690365D01*
X9597420Y-10690365D02*
X9606944Y-10671317D01*
X9606944Y-10671317D02*
X9625992Y-10661793D01*
X9625992Y-10661793D02*
X9673611Y-10661793D01*
X9673611Y-10661793D02*
X9692658Y-10652270D01*
X9759325Y-10604650D02*
X9835515Y-10604650D01*
X9787896Y-10537984D02*
X9787896Y-10709412D01*
X9787896Y-10709412D02*
X9797420Y-10728460D01*
X9797420Y-10728460D02*
X9816468Y-10737984D01*
X9816468Y-10737984D02*
X9835515Y-10737984D01*
X9978373Y-10728460D02*
X9959325Y-10737984D01*
X9959325Y-10737984D02*
X9921230Y-10737984D01*
X9921230Y-10737984D02*
X9902182Y-10728460D01*
X9902182Y-10728460D02*
X9892658Y-10709412D01*
X9892658Y-10709412D02*
X9892658Y-10633222D01*
X9892658Y-10633222D02*
X9902182Y-10614174D01*
X9902182Y-10614174D02*
X9921230Y-10604650D01*
X9921230Y-10604650D02*
X9959325Y-10604650D01*
X9959325Y-10604650D02*
X9978373Y-10614174D01*
X9978373Y-10614174D02*
X9987896Y-10633222D01*
X9987896Y-10633222D02*
X9987896Y-10652270D01*
X9987896Y-10652270D02*
X9892658Y-10671317D01*
X10159325Y-10737984D02*
X10159325Y-10537984D01*
X10159325Y-10728460D02*
X10140277Y-10737984D01*
X10140277Y-10737984D02*
X10102182Y-10737984D01*
X10102182Y-10737984D02*
X10083135Y-10728460D01*
X10083135Y-10728460D02*
X10073611Y-10718936D01*
X10073611Y-10718936D02*
X10064087Y-10699889D01*
X10064087Y-10699889D02*
X10064087Y-10642746D01*
X10064087Y-10642746D02*
X10073611Y-10623698D01*
X10073611Y-10623698D02*
X10083135Y-10614174D01*
X10083135Y-10614174D02*
X10102182Y-10604650D01*
X10102182Y-10604650D02*
X10140277Y-10604650D01*
X10140277Y-10604650D02*
X10159325Y-10614174D01*
X10235516Y-10814174D02*
X10245039Y-10804650D01*
X10245039Y-10804650D02*
X10264087Y-10776079D01*
X10264087Y-10776079D02*
X10273611Y-10757031D01*
X10273611Y-10757031D02*
X10283135Y-10728460D01*
X10283135Y-10728460D02*
X10292658Y-10680841D01*
X10292658Y-10680841D02*
X10292658Y-10642746D01*
X10292658Y-10642746D02*
X10283135Y-10595127D01*
X10283135Y-10595127D02*
X10273611Y-10566555D01*
X10273611Y-10566555D02*
X10264087Y-10547508D01*
X10264087Y-10547508D02*
X10245039Y-10518936D01*
X10245039Y-10518936D02*
X10235516Y-10509412D01*
M02*
