M48
; DRILL file {KiCad 7.0.5} date Mon Jul 24 08:30:00 2023
; FORMAT={-:-/ absolute / metric / decimal}
; #@! TF.CreationDate,2023-07-24T08:30:00+08:00
; #@! TF.GenerationSoftware,Kicad,Pcbnew,7.0.5
; #@! TF.FileFunction,Plated,1,2,PTH
FMAT,2
METRIC
; #@! TA.AperFunction,Plated,PTH,ViaDrill
T1C0.400
; #@! TA.AperFunction,Plated,PTH,ComponentDrill
T2C1.000
; #@! TA.AperFunction,Plated,PTH,ComponentDrill
T3C1.500
%
G90
G05
T1
X50.01Y-87.715
X51.13Y-75.94
X51.223Y-53.733
X52.52Y-62.93
X56.453Y-56.781
X59.51Y-56.781
X62.6Y-61.71
X64.28Y-55.695
X68.93Y-57.505
X70.835Y-62.18
X71.27Y-56.42
X73.21Y-60.92
T2
X36.11Y-57.52
X36.11Y-60.06
X36.11Y-62.6
X36.11Y-65.14
X36.11Y-67.68
X36.11Y-70.22
X36.11Y-72.76
X49.99Y-92.37
X52.53Y-92.37
X55.07Y-92.37
X57.61Y-92.37
X75.76Y-53.28
X75.76Y-55.82
X75.76Y-58.36
X75.76Y-60.9
X75.76Y-63.44
X75.76Y-65.98
X75.76Y-68.52
X75.76Y-71.06
X75.76Y-73.6
X78.3Y-53.28
X78.3Y-55.82
X78.3Y-58.36
X78.3Y-60.9
X78.3Y-63.44
X78.3Y-65.98
X78.3Y-68.52
X78.3Y-71.06
X78.3Y-73.6
T3
X40.46Y-43.55
X40.46Y-62.6
X40.46Y-81.65
X44.27Y-51.99
X44.27Y-71.04
X44.27Y-90.09
X46.81Y-40.99
X46.81Y-60.04
X46.81Y-79.09
X46.87Y-51.99
X46.87Y-71.04
X46.87Y-90.09
X59.51Y-43.55
X59.51Y-62.6
X59.51Y-81.65
X63.32Y-51.99
X63.32Y-71.04
X63.32Y-90.09
X65.86Y-40.99
X65.86Y-60.04
X65.86Y-79.09
X65.92Y-51.99
X65.92Y-71.04
X65.92Y-90.09
T3
X39.847Y-50.756G85X39.293Y-49.924
G05
X39.847Y-69.806G85X39.293Y-68.974
G05
X39.847Y-88.856G85X39.293Y-88.024
G05
X49.27Y-40.99G85X49.27Y-40.99
G05
X49.27Y-60.04G85X49.27Y-60.04
G05
X49.27Y-79.09G85X49.27Y-79.09
G05
X58.897Y-50.756G85X58.343Y-49.924
G05
X58.897Y-69.806G85X58.343Y-68.974
G05
X58.897Y-88.856G85X58.343Y-88.024
G05
X68.32Y-40.99G85X68.32Y-40.99
G05
X68.32Y-60.04G85X68.32Y-60.04
G05
X68.32Y-79.09G85X68.32Y-79.09
G05
T0
M30
