%TF.GenerationSoftware,KiCad,Pcbnew,7.0.5*%
%TF.CreationDate,2023-07-24T08:29:59+08:00*%
%TF.ProjectId,LM,4c4d2e6b-6963-4616-945f-706362585858,rev?*%
%TF.SameCoordinates,Original*%
%TF.FileFunction,Drillmap*%
%TF.FilePolarity,Positive*%
%FSLAX45Y45*%
G04 Gerber Fmt 4.5, Leading zero omitted, Abs format (unit mm)*
G04 Created by KiCad (PCBNEW 7.0.5) date 2023-07-24 08:29:59*
%MOMM*%
%LPD*%
G01*
G04 APERTURE LIST*
%ADD10C,0.100000*%
%ADD11C,0.200000*%
%ADD12C,0.040000*%
%ADD13C,0.150000*%
G04 APERTURE END LIST*
D10*
X3484500Y-9321500D02*
G75*
G03*
X3534500Y-9371500I50000J0D01*
G01*
X7234500Y-9371500D02*
G75*
G03*
X7284500Y-9321500I0J50000D01*
G01*
X7284500Y-3706500D02*
G75*
G03*
X7234500Y-3656500I-50000J0D01*
G01*
X3534500Y-3656500D02*
G75*
G03*
X3484500Y-3706500I0J-50000D01*
G01*
X7957000Y-7487000D02*
X7284500Y-7487000D01*
X3484500Y-9321500D02*
X3484500Y-3706500D01*
X7234500Y-3656500D02*
X3534500Y-3656500D01*
X7957000Y-5201000D02*
X7957000Y-7487000D01*
X7234500Y-9371500D02*
X3534500Y-9371500D01*
X7284500Y-7487000D02*
X7284500Y-9321500D01*
X7284500Y-5201000D02*
X7284500Y-3706500D01*
X7957000Y-5201000D02*
X7284500Y-5201000D01*
D11*
D12*
X4981000Y-8751550D02*
X5021000Y-8791550D01*
X5021000Y-8751550D02*
X4981000Y-8791550D01*
X5093000Y-7574000D02*
X5133000Y-7614000D01*
X5133000Y-7574000D02*
X5093000Y-7614000D01*
X5102270Y-5353270D02*
X5142270Y-5393270D01*
X5142270Y-5353270D02*
X5102270Y-5393270D01*
X5232000Y-6273000D02*
X5272000Y-6313000D01*
X5272000Y-6273000D02*
X5232000Y-6313000D01*
X5625320Y-5658100D02*
X5665320Y-5698100D01*
X5665320Y-5658100D02*
X5625320Y-5698100D01*
X5931000Y-5658100D02*
X5971000Y-5698100D01*
X5971000Y-5658100D02*
X5931000Y-5698100D01*
X6240000Y-6151000D02*
X6280000Y-6191000D01*
X6280000Y-6151000D02*
X6240000Y-6191000D01*
X6408000Y-5549550D02*
X6448000Y-5589550D01*
X6448000Y-5549550D02*
X6408000Y-5589550D01*
X6873000Y-5730550D02*
X6913000Y-5770550D01*
X6913000Y-5730550D02*
X6873000Y-5770550D01*
X7063550Y-6198000D02*
X7103550Y-6238000D01*
X7103550Y-6198000D02*
X7063550Y-6238000D01*
X7107000Y-5622000D02*
X7147000Y-5662000D01*
X7147000Y-5622000D02*
X7107000Y-5662000D01*
X7301000Y-6072000D02*
X7341000Y-6112000D01*
X7341000Y-6072000D02*
X7301000Y-6112000D01*
D10*
X3661000Y-5752000D02*
G75*
G03*
X3661000Y-5752000I-50000J0D01*
G01*
X3661000Y-6006000D02*
G75*
G03*
X3661000Y-6006000I-50000J0D01*
G01*
X3661000Y-6260000D02*
G75*
G03*
X3661000Y-6260000I-50000J0D01*
G01*
X3661000Y-6514000D02*
G75*
G03*
X3661000Y-6514000I-50000J0D01*
G01*
X3661000Y-6768000D02*
G75*
G03*
X3661000Y-6768000I-50000J0D01*
G01*
X3661000Y-7022000D02*
G75*
G03*
X3661000Y-7022000I-50000J0D01*
G01*
X3661000Y-7276000D02*
G75*
G03*
X3661000Y-7276000I-50000J0D01*
G01*
X5049000Y-9237000D02*
G75*
G03*
X5049000Y-9237000I-50000J0D01*
G01*
X5303000Y-9237000D02*
G75*
G03*
X5303000Y-9237000I-50000J0D01*
G01*
X5557000Y-9237000D02*
G75*
G03*
X5557000Y-9237000I-50000J0D01*
G01*
X5811000Y-9237000D02*
G75*
G03*
X5811000Y-9237000I-50000J0D01*
G01*
X7626000Y-5328000D02*
G75*
G03*
X7626000Y-5328000I-50000J0D01*
G01*
X7626000Y-5582000D02*
G75*
G03*
X7626000Y-5582000I-50000J0D01*
G01*
X7626000Y-5836000D02*
G75*
G03*
X7626000Y-5836000I-50000J0D01*
G01*
X7626000Y-6090000D02*
G75*
G03*
X7626000Y-6090000I-50000J0D01*
G01*
X7626000Y-6344000D02*
G75*
G03*
X7626000Y-6344000I-50000J0D01*
G01*
X7626000Y-6598000D02*
G75*
G03*
X7626000Y-6598000I-50000J0D01*
G01*
X7626000Y-6852000D02*
G75*
G03*
X7626000Y-6852000I-50000J0D01*
G01*
X7626000Y-7106000D02*
G75*
G03*
X7626000Y-7106000I-50000J0D01*
G01*
X7626000Y-7360000D02*
G75*
G03*
X7626000Y-7360000I-50000J0D01*
G01*
X7880000Y-5328000D02*
G75*
G03*
X7880000Y-5328000I-50000J0D01*
G01*
X7880000Y-5582000D02*
G75*
G03*
X7880000Y-5582000I-50000J0D01*
G01*
X7880000Y-5836000D02*
G75*
G03*
X7880000Y-5836000I-50000J0D01*
G01*
X7880000Y-6090000D02*
G75*
G03*
X7880000Y-6090000I-50000J0D01*
G01*
X7880000Y-6344000D02*
G75*
G03*
X7880000Y-6344000I-50000J0D01*
G01*
X7880000Y-6598000D02*
G75*
G03*
X7880000Y-6598000I-50000J0D01*
G01*
X7880000Y-6852000D02*
G75*
G03*
X7880000Y-6852000I-50000J0D01*
G01*
X7880000Y-7106000D02*
G75*
G03*
X7880000Y-7106000I-50000J0D01*
G01*
X7880000Y-7360000D02*
G75*
G03*
X7880000Y-7360000I-50000J0D01*
G01*
D13*
X3957000Y-4959000D02*
X3957000Y-5109000D01*
X3882000Y-5034000D02*
X4032000Y-5034000D01*
D11*
X4047139Y-5033984D02*
X3991654Y-4950789D01*
X3991654Y-4950789D02*
G75*
G03*
X3866861Y-5034016I-62397J-41613D01*
G01*
X3866861Y-5034016D02*
X3922346Y-5117211D01*
X3922346Y-5117211D02*
G75*
G03*
X4047139Y-5033984I62397J41613D01*
G01*
D13*
X3957000Y-6864000D02*
X3957000Y-7014000D01*
X3882000Y-6939000D02*
X4032000Y-6939000D01*
D11*
X4047139Y-6938984D02*
X3991654Y-6855789D01*
X3991654Y-6855789D02*
G75*
G03*
X3866861Y-6939016I-62397J-41613D01*
G01*
X3866861Y-6939016D02*
X3922346Y-7022211D01*
X3922346Y-7022211D02*
G75*
G03*
X4047139Y-6938984I62397J41613D01*
G01*
D13*
X3957000Y-8769000D02*
X3957000Y-8919000D01*
X3882000Y-8844000D02*
X4032000Y-8844000D01*
D11*
X4047139Y-8843984D02*
X3991654Y-8760789D01*
X3991654Y-8760789D02*
G75*
G03*
X3866861Y-8844016I-62397J-41613D01*
G01*
X3866861Y-8844016D02*
X3922346Y-8927211D01*
X3922346Y-8927211D02*
G75*
G03*
X4047139Y-8843984I62397J41613D01*
G01*
D13*
X4046000Y-4280000D02*
X4046000Y-4430000D01*
X3971000Y-4355000D02*
X4121000Y-4355000D01*
X4046000Y-6185000D02*
X4046000Y-6335000D01*
X3971000Y-6260000D02*
X4121000Y-6260000D01*
X4046000Y-8090000D02*
X4046000Y-8240000D01*
X3971000Y-8165000D02*
X4121000Y-8165000D01*
X4427000Y-5124000D02*
X4427000Y-5274000D01*
X4352000Y-5199000D02*
X4502000Y-5199000D01*
X4427000Y-7029000D02*
X4427000Y-7179000D01*
X4352000Y-7104000D02*
X4502000Y-7104000D01*
X4427000Y-8934000D02*
X4427000Y-9084000D01*
X4352000Y-9009000D02*
X4502000Y-9009000D01*
X4681000Y-4024000D02*
X4681000Y-4174000D01*
X4606000Y-4099000D02*
X4756000Y-4099000D01*
X4681000Y-5929000D02*
X4681000Y-6079000D01*
X4606000Y-6004000D02*
X4756000Y-6004000D01*
X4681000Y-7834000D02*
X4681000Y-7984000D01*
X4606000Y-7909000D02*
X4756000Y-7909000D01*
X4687000Y-5124000D02*
X4687000Y-5274000D01*
X4612000Y-5199000D02*
X4762000Y-5199000D01*
X4687000Y-7029000D02*
X4687000Y-7179000D01*
X4612000Y-7104000D02*
X4762000Y-7104000D01*
X4687000Y-8934000D02*
X4687000Y-9084000D01*
X4612000Y-9009000D02*
X4762000Y-9009000D01*
X4927000Y-4024000D02*
X4927000Y-4174000D01*
X4852000Y-4099000D02*
X5002000Y-4099000D01*
D11*
X5002000Y-4099000D02*
X5002000Y-4099000D01*
X5002000Y-4099000D02*
G75*
G03*
X4852000Y-4099000I-75000J0D01*
G01*
X4852000Y-4099000D02*
X4852000Y-4099000D01*
X4852000Y-4099000D02*
G75*
G03*
X5002000Y-4099000I75000J0D01*
G01*
D13*
X4927000Y-5929000D02*
X4927000Y-6079000D01*
X4852000Y-6004000D02*
X5002000Y-6004000D01*
D11*
X5002000Y-6004000D02*
X5002000Y-6004000D01*
X5002000Y-6004000D02*
G75*
G03*
X4852000Y-6004000I-75000J0D01*
G01*
X4852000Y-6004000D02*
X4852000Y-6004000D01*
X4852000Y-6004000D02*
G75*
G03*
X5002000Y-6004000I75000J0D01*
G01*
D13*
X4927000Y-7834000D02*
X4927000Y-7984000D01*
X4852000Y-7909000D02*
X5002000Y-7909000D01*
D11*
X5002000Y-7909000D02*
X5002000Y-7909000D01*
X5002000Y-7909000D02*
G75*
G03*
X4852000Y-7909000I-75000J0D01*
G01*
X4852000Y-7909000D02*
X4852000Y-7909000D01*
X4852000Y-7909000D02*
G75*
G03*
X5002000Y-7909000I75000J0D01*
G01*
D13*
X5862000Y-4959000D02*
X5862000Y-5109000D01*
X5787000Y-5034000D02*
X5937000Y-5034000D01*
D11*
X5952139Y-5033984D02*
X5896654Y-4950789D01*
X5896654Y-4950789D02*
G75*
G03*
X5771861Y-5034016I-62397J-41613D01*
G01*
X5771861Y-5034016D02*
X5827346Y-5117211D01*
X5827346Y-5117211D02*
G75*
G03*
X5952139Y-5033984I62397J41613D01*
G01*
D13*
X5862000Y-6864000D02*
X5862000Y-7014000D01*
X5787000Y-6939000D02*
X5937000Y-6939000D01*
D11*
X5952139Y-6938984D02*
X5896654Y-6855789D01*
X5896654Y-6855789D02*
G75*
G03*
X5771861Y-6939016I-62397J-41613D01*
G01*
X5771861Y-6939016D02*
X5827346Y-7022211D01*
X5827346Y-7022211D02*
G75*
G03*
X5952139Y-6938984I62397J41613D01*
G01*
D13*
X5862000Y-8769000D02*
X5862000Y-8919000D01*
X5787000Y-8844000D02*
X5937000Y-8844000D01*
D11*
X5952139Y-8843984D02*
X5896654Y-8760789D01*
X5896654Y-8760789D02*
G75*
G03*
X5771861Y-8844016I-62397J-41613D01*
G01*
X5771861Y-8844016D02*
X5827346Y-8927211D01*
X5827346Y-8927211D02*
G75*
G03*
X5952139Y-8843984I62397J41613D01*
G01*
D13*
X5951000Y-4280000D02*
X5951000Y-4430000D01*
X5876000Y-4355000D02*
X6026000Y-4355000D01*
X5951000Y-6185000D02*
X5951000Y-6335000D01*
X5876000Y-6260000D02*
X6026000Y-6260000D01*
X5951000Y-8090000D02*
X5951000Y-8240000D01*
X5876000Y-8165000D02*
X6026000Y-8165000D01*
X6332000Y-5124000D02*
X6332000Y-5274000D01*
X6257000Y-5199000D02*
X6407000Y-5199000D01*
X6332000Y-7029000D02*
X6332000Y-7179000D01*
X6257000Y-7104000D02*
X6407000Y-7104000D01*
X6332000Y-8934000D02*
X6332000Y-9084000D01*
X6257000Y-9009000D02*
X6407000Y-9009000D01*
X6586000Y-4024000D02*
X6586000Y-4174000D01*
X6511000Y-4099000D02*
X6661000Y-4099000D01*
X6586000Y-5929000D02*
X6586000Y-6079000D01*
X6511000Y-6004000D02*
X6661000Y-6004000D01*
X6586000Y-7834000D02*
X6586000Y-7984000D01*
X6511000Y-7909000D02*
X6661000Y-7909000D01*
X6592000Y-5124000D02*
X6592000Y-5274000D01*
X6517000Y-5199000D02*
X6667000Y-5199000D01*
X6592000Y-7029000D02*
X6592000Y-7179000D01*
X6517000Y-7104000D02*
X6667000Y-7104000D01*
X6592000Y-8934000D02*
X6592000Y-9084000D01*
X6517000Y-9009000D02*
X6667000Y-9009000D01*
X6832000Y-4024000D02*
X6832000Y-4174000D01*
X6757000Y-4099000D02*
X6907000Y-4099000D01*
D11*
X6907000Y-4099000D02*
X6907000Y-4099000D01*
X6907000Y-4099000D02*
G75*
G03*
X6757000Y-4099000I-75000J0D01*
G01*
X6757000Y-4099000D02*
X6757000Y-4099000D01*
X6757000Y-4099000D02*
G75*
G03*
X6907000Y-4099000I75000J0D01*
G01*
D13*
X6832000Y-5929000D02*
X6832000Y-6079000D01*
X6757000Y-6004000D02*
X6907000Y-6004000D01*
D11*
X6907000Y-6004000D02*
X6907000Y-6004000D01*
X6907000Y-6004000D02*
G75*
G03*
X6757000Y-6004000I-75000J0D01*
G01*
X6757000Y-6004000D02*
X6757000Y-6004000D01*
X6757000Y-6004000D02*
G75*
G03*
X6907000Y-6004000I75000J0D01*
G01*
D13*
X6832000Y-7834000D02*
X6832000Y-7984000D01*
X6757000Y-7909000D02*
X6907000Y-7909000D01*
D11*
X6907000Y-7909000D02*
X6907000Y-7909000D01*
X6907000Y-7909000D02*
G75*
G03*
X6757000Y-7909000I-75000J0D01*
G01*
X6757000Y-7909000D02*
X6757000Y-7909000D01*
X6757000Y-7909000D02*
G75*
G03*
X6907000Y-7909000I75000J0D01*
G01*
X3740277Y-9687984D02*
X3740277Y-9487984D01*
X3740277Y-9487984D02*
X3787896Y-9487984D01*
X3787896Y-9487984D02*
X3816467Y-9497508D01*
X3816467Y-9497508D02*
X3835515Y-9516555D01*
X3835515Y-9516555D02*
X3845039Y-9535603D01*
X3845039Y-9535603D02*
X3854562Y-9573698D01*
X3854562Y-9573698D02*
X3854562Y-9602270D01*
X3854562Y-9602270D02*
X3845039Y-9640365D01*
X3845039Y-9640365D02*
X3835515Y-9659412D01*
X3835515Y-9659412D02*
X3816467Y-9678460D01*
X3816467Y-9678460D02*
X3787896Y-9687984D01*
X3787896Y-9687984D02*
X3740277Y-9687984D01*
X3940277Y-9687984D02*
X3940277Y-9554650D01*
X3940277Y-9592746D02*
X3949801Y-9573698D01*
X3949801Y-9573698D02*
X3959324Y-9564174D01*
X3959324Y-9564174D02*
X3978372Y-9554650D01*
X3978372Y-9554650D02*
X3997420Y-9554650D01*
X4064086Y-9687984D02*
X4064086Y-9554650D01*
X4064086Y-9487984D02*
X4054562Y-9497508D01*
X4054562Y-9497508D02*
X4064086Y-9507031D01*
X4064086Y-9507031D02*
X4073610Y-9497508D01*
X4073610Y-9497508D02*
X4064086Y-9487984D01*
X4064086Y-9487984D02*
X4064086Y-9507031D01*
X4187896Y-9687984D02*
X4168848Y-9678460D01*
X4168848Y-9678460D02*
X4159324Y-9659412D01*
X4159324Y-9659412D02*
X4159324Y-9487984D01*
X4292658Y-9687984D02*
X4273610Y-9678460D01*
X4273610Y-9678460D02*
X4264086Y-9659412D01*
X4264086Y-9659412D02*
X4264086Y-9487984D01*
X4521229Y-9687984D02*
X4521229Y-9487984D01*
X4521229Y-9487984D02*
X4587896Y-9630841D01*
X4587896Y-9630841D02*
X4654563Y-9487984D01*
X4654563Y-9487984D02*
X4654563Y-9687984D01*
X4835515Y-9687984D02*
X4835515Y-9583222D01*
X4835515Y-9583222D02*
X4825991Y-9564174D01*
X4825991Y-9564174D02*
X4806944Y-9554650D01*
X4806944Y-9554650D02*
X4768848Y-9554650D01*
X4768848Y-9554650D02*
X4749801Y-9564174D01*
X4835515Y-9678460D02*
X4816467Y-9687984D01*
X4816467Y-9687984D02*
X4768848Y-9687984D01*
X4768848Y-9687984D02*
X4749801Y-9678460D01*
X4749801Y-9678460D02*
X4740277Y-9659412D01*
X4740277Y-9659412D02*
X4740277Y-9640365D01*
X4740277Y-9640365D02*
X4749801Y-9621317D01*
X4749801Y-9621317D02*
X4768848Y-9611793D01*
X4768848Y-9611793D02*
X4816467Y-9611793D01*
X4816467Y-9611793D02*
X4835515Y-9602270D01*
X4930753Y-9554650D02*
X4930753Y-9754650D01*
X4930753Y-9564174D02*
X4949801Y-9554650D01*
X4949801Y-9554650D02*
X4987896Y-9554650D01*
X4987896Y-9554650D02*
X5006944Y-9564174D01*
X5006944Y-9564174D02*
X5016467Y-9573698D01*
X5016467Y-9573698D02*
X5025991Y-9592746D01*
X5025991Y-9592746D02*
X5025991Y-9649889D01*
X5025991Y-9649889D02*
X5016467Y-9668936D01*
X5016467Y-9668936D02*
X5006944Y-9678460D01*
X5006944Y-9678460D02*
X4987896Y-9687984D01*
X4987896Y-9687984D02*
X4949801Y-9687984D01*
X4949801Y-9687984D02*
X4930753Y-9678460D01*
X5111705Y-9668936D02*
X5121229Y-9678460D01*
X5121229Y-9678460D02*
X5111705Y-9687984D01*
X5111705Y-9687984D02*
X5102182Y-9678460D01*
X5102182Y-9678460D02*
X5111705Y-9668936D01*
X5111705Y-9668936D02*
X5111705Y-9687984D01*
X5111705Y-9564174D02*
X5121229Y-9573698D01*
X5121229Y-9573698D02*
X5111705Y-9583222D01*
X5111705Y-9583222D02*
X5102182Y-9573698D01*
X5102182Y-9573698D02*
X5111705Y-9564174D01*
X5111705Y-9564174D02*
X5111705Y-9583222D01*
D12*
X3439500Y-9996500D02*
X3479500Y-10036500D01*
X3479500Y-9996500D02*
X3439500Y-10036500D01*
D11*
X3778372Y-9907984D02*
X3797420Y-9907984D01*
X3797420Y-9907984D02*
X3816467Y-9917508D01*
X3816467Y-9917508D02*
X3825991Y-9927031D01*
X3825991Y-9927031D02*
X3835515Y-9946079D01*
X3835515Y-9946079D02*
X3845039Y-9984174D01*
X3845039Y-9984174D02*
X3845039Y-10031793D01*
X3845039Y-10031793D02*
X3835515Y-10069889D01*
X3835515Y-10069889D02*
X3825991Y-10088936D01*
X3825991Y-10088936D02*
X3816467Y-10098460D01*
X3816467Y-10098460D02*
X3797420Y-10107984D01*
X3797420Y-10107984D02*
X3778372Y-10107984D01*
X3778372Y-10107984D02*
X3759324Y-10098460D01*
X3759324Y-10098460D02*
X3749801Y-10088936D01*
X3749801Y-10088936D02*
X3740277Y-10069889D01*
X3740277Y-10069889D02*
X3730753Y-10031793D01*
X3730753Y-10031793D02*
X3730753Y-9984174D01*
X3730753Y-9984174D02*
X3740277Y-9946079D01*
X3740277Y-9946079D02*
X3749801Y-9927031D01*
X3749801Y-9927031D02*
X3759324Y-9917508D01*
X3759324Y-9917508D02*
X3778372Y-9907984D01*
X3930753Y-10088936D02*
X3940277Y-10098460D01*
X3940277Y-10098460D02*
X3930753Y-10107984D01*
X3930753Y-10107984D02*
X3921229Y-10098460D01*
X3921229Y-10098460D02*
X3930753Y-10088936D01*
X3930753Y-10088936D02*
X3930753Y-10107984D01*
X4111705Y-9974650D02*
X4111705Y-10107984D01*
X4064086Y-9898460D02*
X4016467Y-10041317D01*
X4016467Y-10041317D02*
X4140277Y-10041317D01*
X4254563Y-9907984D02*
X4273610Y-9907984D01*
X4273610Y-9907984D02*
X4292658Y-9917508D01*
X4292658Y-9917508D02*
X4302182Y-9927031D01*
X4302182Y-9927031D02*
X4311705Y-9946079D01*
X4311705Y-9946079D02*
X4321229Y-9984174D01*
X4321229Y-9984174D02*
X4321229Y-10031793D01*
X4321229Y-10031793D02*
X4311705Y-10069889D01*
X4311705Y-10069889D02*
X4302182Y-10088936D01*
X4302182Y-10088936D02*
X4292658Y-10098460D01*
X4292658Y-10098460D02*
X4273610Y-10107984D01*
X4273610Y-10107984D02*
X4254563Y-10107984D01*
X4254563Y-10107984D02*
X4235515Y-10098460D01*
X4235515Y-10098460D02*
X4225991Y-10088936D01*
X4225991Y-10088936D02*
X4216467Y-10069889D01*
X4216467Y-10069889D02*
X4206944Y-10031793D01*
X4206944Y-10031793D02*
X4206944Y-9984174D01*
X4206944Y-9984174D02*
X4216467Y-9946079D01*
X4216467Y-9946079D02*
X4225991Y-9927031D01*
X4225991Y-9927031D02*
X4235515Y-9917508D01*
X4235515Y-9917508D02*
X4254563Y-9907984D01*
X4445039Y-9907984D02*
X4464086Y-9907984D01*
X4464086Y-9907984D02*
X4483134Y-9917508D01*
X4483134Y-9917508D02*
X4492658Y-9927031D01*
X4492658Y-9927031D02*
X4502182Y-9946079D01*
X4502182Y-9946079D02*
X4511705Y-9984174D01*
X4511705Y-9984174D02*
X4511705Y-10031793D01*
X4511705Y-10031793D02*
X4502182Y-10069889D01*
X4502182Y-10069889D02*
X4492658Y-10088936D01*
X4492658Y-10088936D02*
X4483134Y-10098460D01*
X4483134Y-10098460D02*
X4464086Y-10107984D01*
X4464086Y-10107984D02*
X4445039Y-10107984D01*
X4445039Y-10107984D02*
X4425991Y-10098460D01*
X4425991Y-10098460D02*
X4416467Y-10088936D01*
X4416467Y-10088936D02*
X4406944Y-10069889D01*
X4406944Y-10069889D02*
X4397420Y-10031793D01*
X4397420Y-10031793D02*
X4397420Y-9984174D01*
X4397420Y-9984174D02*
X4406944Y-9946079D01*
X4406944Y-9946079D02*
X4416467Y-9927031D01*
X4416467Y-9927031D02*
X4425991Y-9917508D01*
X4425991Y-9917508D02*
X4445039Y-9907984D01*
X4597420Y-10107984D02*
X4597420Y-9974650D01*
X4597420Y-9993698D02*
X4606944Y-9984174D01*
X4606944Y-9984174D02*
X4625991Y-9974650D01*
X4625991Y-9974650D02*
X4654563Y-9974650D01*
X4654563Y-9974650D02*
X4673610Y-9984174D01*
X4673610Y-9984174D02*
X4683134Y-10003222D01*
X4683134Y-10003222D02*
X4683134Y-10107984D01*
X4683134Y-10003222D02*
X4692658Y-9984174D01*
X4692658Y-9984174D02*
X4711705Y-9974650D01*
X4711705Y-9974650D02*
X4740277Y-9974650D01*
X4740277Y-9974650D02*
X4759325Y-9984174D01*
X4759325Y-9984174D02*
X4768848Y-10003222D01*
X4768848Y-10003222D02*
X4768848Y-10107984D01*
X4864086Y-10107984D02*
X4864086Y-9974650D01*
X4864086Y-9993698D02*
X4873610Y-9984174D01*
X4873610Y-9984174D02*
X4892658Y-9974650D01*
X4892658Y-9974650D02*
X4921229Y-9974650D01*
X4921229Y-9974650D02*
X4940277Y-9984174D01*
X4940277Y-9984174D02*
X4949801Y-10003222D01*
X4949801Y-10003222D02*
X4949801Y-10107984D01*
X4949801Y-10003222D02*
X4959325Y-9984174D01*
X4959325Y-9984174D02*
X4978372Y-9974650D01*
X4978372Y-9974650D02*
X5006944Y-9974650D01*
X5006944Y-9974650D02*
X5025991Y-9984174D01*
X5025991Y-9984174D02*
X5035515Y-10003222D01*
X5035515Y-10003222D02*
X5035515Y-10107984D01*
X5425991Y-9898460D02*
X5254563Y-10155603D01*
X5683134Y-9907984D02*
X5702182Y-9907984D01*
X5702182Y-9907984D02*
X5721229Y-9917508D01*
X5721229Y-9917508D02*
X5730753Y-9927031D01*
X5730753Y-9927031D02*
X5740277Y-9946079D01*
X5740277Y-9946079D02*
X5749801Y-9984174D01*
X5749801Y-9984174D02*
X5749801Y-10031793D01*
X5749801Y-10031793D02*
X5740277Y-10069889D01*
X5740277Y-10069889D02*
X5730753Y-10088936D01*
X5730753Y-10088936D02*
X5721229Y-10098460D01*
X5721229Y-10098460D02*
X5702182Y-10107984D01*
X5702182Y-10107984D02*
X5683134Y-10107984D01*
X5683134Y-10107984D02*
X5664086Y-10098460D01*
X5664086Y-10098460D02*
X5654563Y-10088936D01*
X5654563Y-10088936D02*
X5645039Y-10069889D01*
X5645039Y-10069889D02*
X5635515Y-10031793D01*
X5635515Y-10031793D02*
X5635515Y-9984174D01*
X5635515Y-9984174D02*
X5645039Y-9946079D01*
X5645039Y-9946079D02*
X5654563Y-9927031D01*
X5654563Y-9927031D02*
X5664086Y-9917508D01*
X5664086Y-9917508D02*
X5683134Y-9907984D01*
X5835515Y-10088936D02*
X5845039Y-10098460D01*
X5845039Y-10098460D02*
X5835515Y-10107984D01*
X5835515Y-10107984D02*
X5825991Y-10098460D01*
X5825991Y-10098460D02*
X5835515Y-10088936D01*
X5835515Y-10088936D02*
X5835515Y-10107984D01*
X5968848Y-9907984D02*
X5987896Y-9907984D01*
X5987896Y-9907984D02*
X6006944Y-9917508D01*
X6006944Y-9917508D02*
X6016467Y-9927031D01*
X6016467Y-9927031D02*
X6025991Y-9946079D01*
X6025991Y-9946079D02*
X6035515Y-9984174D01*
X6035515Y-9984174D02*
X6035515Y-10031793D01*
X6035515Y-10031793D02*
X6025991Y-10069889D01*
X6025991Y-10069889D02*
X6016467Y-10088936D01*
X6016467Y-10088936D02*
X6006944Y-10098460D01*
X6006944Y-10098460D02*
X5987896Y-10107984D01*
X5987896Y-10107984D02*
X5968848Y-10107984D01*
X5968848Y-10107984D02*
X5949801Y-10098460D01*
X5949801Y-10098460D02*
X5940277Y-10088936D01*
X5940277Y-10088936D02*
X5930753Y-10069889D01*
X5930753Y-10069889D02*
X5921229Y-10031793D01*
X5921229Y-10031793D02*
X5921229Y-9984174D01*
X5921229Y-9984174D02*
X5930753Y-9946079D01*
X5930753Y-9946079D02*
X5940277Y-9927031D01*
X5940277Y-9927031D02*
X5949801Y-9917508D01*
X5949801Y-9917508D02*
X5968848Y-9907984D01*
X6225991Y-10107984D02*
X6111706Y-10107984D01*
X6168848Y-10107984D02*
X6168848Y-9907984D01*
X6168848Y-9907984D02*
X6149801Y-9936555D01*
X6149801Y-9936555D02*
X6130753Y-9955603D01*
X6130753Y-9955603D02*
X6111706Y-9965127D01*
X6406944Y-9907984D02*
X6311706Y-9907984D01*
X6311706Y-9907984D02*
X6302182Y-10003222D01*
X6302182Y-10003222D02*
X6311706Y-9993698D01*
X6311706Y-9993698D02*
X6330753Y-9984174D01*
X6330753Y-9984174D02*
X6378372Y-9984174D01*
X6378372Y-9984174D02*
X6397420Y-9993698D01*
X6397420Y-9993698D02*
X6406944Y-10003222D01*
X6406944Y-10003222D02*
X6416467Y-10022270D01*
X6416467Y-10022270D02*
X6416467Y-10069889D01*
X6416467Y-10069889D02*
X6406944Y-10088936D01*
X6406944Y-10088936D02*
X6397420Y-10098460D01*
X6397420Y-10098460D02*
X6378372Y-10107984D01*
X6378372Y-10107984D02*
X6330753Y-10107984D01*
X6330753Y-10107984D02*
X6311706Y-10098460D01*
X6311706Y-10098460D02*
X6302182Y-10088936D01*
X6483134Y-9907984D02*
X6616467Y-9907984D01*
X6616467Y-9907984D02*
X6530753Y-10107984D01*
X6683134Y-9907984D02*
X6683134Y-9946079D01*
X6759325Y-9907984D02*
X6759325Y-9946079D01*
X7054563Y-10184174D02*
X7045039Y-10174650D01*
X7045039Y-10174650D02*
X7025991Y-10146079D01*
X7025991Y-10146079D02*
X7016468Y-10127031D01*
X7016468Y-10127031D02*
X7006944Y-10098460D01*
X7006944Y-10098460D02*
X6997420Y-10050841D01*
X6997420Y-10050841D02*
X6997420Y-10012746D01*
X6997420Y-10012746D02*
X7006944Y-9965127D01*
X7006944Y-9965127D02*
X7016468Y-9936555D01*
X7016468Y-9936555D02*
X7025991Y-9917508D01*
X7025991Y-9917508D02*
X7045039Y-9888936D01*
X7045039Y-9888936D02*
X7054563Y-9879412D01*
X7235515Y-10107984D02*
X7121229Y-10107984D01*
X7178372Y-10107984D02*
X7178372Y-9907984D01*
X7178372Y-9907984D02*
X7159325Y-9936555D01*
X7159325Y-9936555D02*
X7140277Y-9955603D01*
X7140277Y-9955603D02*
X7121229Y-9965127D01*
X7311706Y-9927031D02*
X7321229Y-9917508D01*
X7321229Y-9917508D02*
X7340277Y-9907984D01*
X7340277Y-9907984D02*
X7387896Y-9907984D01*
X7387896Y-9907984D02*
X7406944Y-9917508D01*
X7406944Y-9917508D02*
X7416468Y-9927031D01*
X7416468Y-9927031D02*
X7425991Y-9946079D01*
X7425991Y-9946079D02*
X7425991Y-9965127D01*
X7425991Y-9965127D02*
X7416468Y-9993698D01*
X7416468Y-9993698D02*
X7302182Y-10107984D01*
X7302182Y-10107984D02*
X7425991Y-10107984D01*
X7664087Y-10107984D02*
X7664087Y-9907984D01*
X7749801Y-10107984D02*
X7749801Y-10003222D01*
X7749801Y-10003222D02*
X7740277Y-9984174D01*
X7740277Y-9984174D02*
X7721230Y-9974650D01*
X7721230Y-9974650D02*
X7692658Y-9974650D01*
X7692658Y-9974650D02*
X7673610Y-9984174D01*
X7673610Y-9984174D02*
X7664087Y-9993698D01*
X7873610Y-10107984D02*
X7854563Y-10098460D01*
X7854563Y-10098460D02*
X7845039Y-10088936D01*
X7845039Y-10088936D02*
X7835515Y-10069889D01*
X7835515Y-10069889D02*
X7835515Y-10012746D01*
X7835515Y-10012746D02*
X7845039Y-9993698D01*
X7845039Y-9993698D02*
X7854563Y-9984174D01*
X7854563Y-9984174D02*
X7873610Y-9974650D01*
X7873610Y-9974650D02*
X7902182Y-9974650D01*
X7902182Y-9974650D02*
X7921230Y-9984174D01*
X7921230Y-9984174D02*
X7930753Y-9993698D01*
X7930753Y-9993698D02*
X7940277Y-10012746D01*
X7940277Y-10012746D02*
X7940277Y-10069889D01*
X7940277Y-10069889D02*
X7930753Y-10088936D01*
X7930753Y-10088936D02*
X7921230Y-10098460D01*
X7921230Y-10098460D02*
X7902182Y-10107984D01*
X7902182Y-10107984D02*
X7873610Y-10107984D01*
X8054563Y-10107984D02*
X8035515Y-10098460D01*
X8035515Y-10098460D02*
X8025991Y-10079412D01*
X8025991Y-10079412D02*
X8025991Y-9907984D01*
X8206944Y-10098460D02*
X8187896Y-10107984D01*
X8187896Y-10107984D02*
X8149801Y-10107984D01*
X8149801Y-10107984D02*
X8130753Y-10098460D01*
X8130753Y-10098460D02*
X8121230Y-10079412D01*
X8121230Y-10079412D02*
X8121230Y-10003222D01*
X8121230Y-10003222D02*
X8130753Y-9984174D01*
X8130753Y-9984174D02*
X8149801Y-9974650D01*
X8149801Y-9974650D02*
X8187896Y-9974650D01*
X8187896Y-9974650D02*
X8206944Y-9984174D01*
X8206944Y-9984174D02*
X8216468Y-10003222D01*
X8216468Y-10003222D02*
X8216468Y-10022270D01*
X8216468Y-10022270D02*
X8121230Y-10041317D01*
X8292658Y-10098460D02*
X8311706Y-10107984D01*
X8311706Y-10107984D02*
X8349801Y-10107984D01*
X8349801Y-10107984D02*
X8368849Y-10098460D01*
X8368849Y-10098460D02*
X8378372Y-10079412D01*
X8378372Y-10079412D02*
X8378372Y-10069889D01*
X8378372Y-10069889D02*
X8368849Y-10050841D01*
X8368849Y-10050841D02*
X8349801Y-10041317D01*
X8349801Y-10041317D02*
X8321230Y-10041317D01*
X8321230Y-10041317D02*
X8302182Y-10031793D01*
X8302182Y-10031793D02*
X8292658Y-10012746D01*
X8292658Y-10012746D02*
X8292658Y-10003222D01*
X8292658Y-10003222D02*
X8302182Y-9984174D01*
X8302182Y-9984174D02*
X8321230Y-9974650D01*
X8321230Y-9974650D02*
X8349801Y-9974650D01*
X8349801Y-9974650D02*
X8368849Y-9984174D01*
X8445039Y-10184174D02*
X8454563Y-10174650D01*
X8454563Y-10174650D02*
X8473611Y-10146079D01*
X8473611Y-10146079D02*
X8483134Y-10127031D01*
X8483134Y-10127031D02*
X8492658Y-10098460D01*
X8492658Y-10098460D02*
X8502182Y-10050841D01*
X8502182Y-10050841D02*
X8502182Y-10012746D01*
X8502182Y-10012746D02*
X8492658Y-9965127D01*
X8492658Y-9965127D02*
X8483134Y-9936555D01*
X8483134Y-9936555D02*
X8473611Y-9917508D01*
X8473611Y-9917508D02*
X8454563Y-9888936D01*
X8454563Y-9888936D02*
X8445039Y-9879412D01*
D10*
X3479500Y-10280500D02*
G75*
G03*
X3479500Y-10280500I-50000J0D01*
G01*
D11*
X3845039Y-10371984D02*
X3730753Y-10371984D01*
X3787896Y-10371984D02*
X3787896Y-10171984D01*
X3787896Y-10171984D02*
X3768848Y-10200555D01*
X3768848Y-10200555D02*
X3749801Y-10219603D01*
X3749801Y-10219603D02*
X3730753Y-10229127D01*
X3930753Y-10352936D02*
X3940277Y-10362460D01*
X3940277Y-10362460D02*
X3930753Y-10371984D01*
X3930753Y-10371984D02*
X3921229Y-10362460D01*
X3921229Y-10362460D02*
X3930753Y-10352936D01*
X3930753Y-10352936D02*
X3930753Y-10371984D01*
X4064086Y-10171984D02*
X4083134Y-10171984D01*
X4083134Y-10171984D02*
X4102182Y-10181508D01*
X4102182Y-10181508D02*
X4111705Y-10191031D01*
X4111705Y-10191031D02*
X4121229Y-10210079D01*
X4121229Y-10210079D02*
X4130753Y-10248174D01*
X4130753Y-10248174D02*
X4130753Y-10295793D01*
X4130753Y-10295793D02*
X4121229Y-10333889D01*
X4121229Y-10333889D02*
X4111705Y-10352936D01*
X4111705Y-10352936D02*
X4102182Y-10362460D01*
X4102182Y-10362460D02*
X4083134Y-10371984D01*
X4083134Y-10371984D02*
X4064086Y-10371984D01*
X4064086Y-10371984D02*
X4045039Y-10362460D01*
X4045039Y-10362460D02*
X4035515Y-10352936D01*
X4035515Y-10352936D02*
X4025991Y-10333889D01*
X4025991Y-10333889D02*
X4016467Y-10295793D01*
X4016467Y-10295793D02*
X4016467Y-10248174D01*
X4016467Y-10248174D02*
X4025991Y-10210079D01*
X4025991Y-10210079D02*
X4035515Y-10191031D01*
X4035515Y-10191031D02*
X4045039Y-10181508D01*
X4045039Y-10181508D02*
X4064086Y-10171984D01*
X4254563Y-10171984D02*
X4273610Y-10171984D01*
X4273610Y-10171984D02*
X4292658Y-10181508D01*
X4292658Y-10181508D02*
X4302182Y-10191031D01*
X4302182Y-10191031D02*
X4311705Y-10210079D01*
X4311705Y-10210079D02*
X4321229Y-10248174D01*
X4321229Y-10248174D02*
X4321229Y-10295793D01*
X4321229Y-10295793D02*
X4311705Y-10333889D01*
X4311705Y-10333889D02*
X4302182Y-10352936D01*
X4302182Y-10352936D02*
X4292658Y-10362460D01*
X4292658Y-10362460D02*
X4273610Y-10371984D01*
X4273610Y-10371984D02*
X4254563Y-10371984D01*
X4254563Y-10371984D02*
X4235515Y-10362460D01*
X4235515Y-10362460D02*
X4225991Y-10352936D01*
X4225991Y-10352936D02*
X4216467Y-10333889D01*
X4216467Y-10333889D02*
X4206944Y-10295793D01*
X4206944Y-10295793D02*
X4206944Y-10248174D01*
X4206944Y-10248174D02*
X4216467Y-10210079D01*
X4216467Y-10210079D02*
X4225991Y-10191031D01*
X4225991Y-10191031D02*
X4235515Y-10181508D01*
X4235515Y-10181508D02*
X4254563Y-10171984D01*
X4445039Y-10171984D02*
X4464086Y-10171984D01*
X4464086Y-10171984D02*
X4483134Y-10181508D01*
X4483134Y-10181508D02*
X4492658Y-10191031D01*
X4492658Y-10191031D02*
X4502182Y-10210079D01*
X4502182Y-10210079D02*
X4511705Y-10248174D01*
X4511705Y-10248174D02*
X4511705Y-10295793D01*
X4511705Y-10295793D02*
X4502182Y-10333889D01*
X4502182Y-10333889D02*
X4492658Y-10352936D01*
X4492658Y-10352936D02*
X4483134Y-10362460D01*
X4483134Y-10362460D02*
X4464086Y-10371984D01*
X4464086Y-10371984D02*
X4445039Y-10371984D01*
X4445039Y-10371984D02*
X4425991Y-10362460D01*
X4425991Y-10362460D02*
X4416467Y-10352936D01*
X4416467Y-10352936D02*
X4406944Y-10333889D01*
X4406944Y-10333889D02*
X4397420Y-10295793D01*
X4397420Y-10295793D02*
X4397420Y-10248174D01*
X4397420Y-10248174D02*
X4406944Y-10210079D01*
X4406944Y-10210079D02*
X4416467Y-10191031D01*
X4416467Y-10191031D02*
X4425991Y-10181508D01*
X4425991Y-10181508D02*
X4445039Y-10171984D01*
X4597420Y-10371984D02*
X4597420Y-10238650D01*
X4597420Y-10257698D02*
X4606944Y-10248174D01*
X4606944Y-10248174D02*
X4625991Y-10238650D01*
X4625991Y-10238650D02*
X4654563Y-10238650D01*
X4654563Y-10238650D02*
X4673610Y-10248174D01*
X4673610Y-10248174D02*
X4683134Y-10267222D01*
X4683134Y-10267222D02*
X4683134Y-10371984D01*
X4683134Y-10267222D02*
X4692658Y-10248174D01*
X4692658Y-10248174D02*
X4711705Y-10238650D01*
X4711705Y-10238650D02*
X4740277Y-10238650D01*
X4740277Y-10238650D02*
X4759325Y-10248174D01*
X4759325Y-10248174D02*
X4768848Y-10267222D01*
X4768848Y-10267222D02*
X4768848Y-10371984D01*
X4864086Y-10371984D02*
X4864086Y-10238650D01*
X4864086Y-10257698D02*
X4873610Y-10248174D01*
X4873610Y-10248174D02*
X4892658Y-10238650D01*
X4892658Y-10238650D02*
X4921229Y-10238650D01*
X4921229Y-10238650D02*
X4940277Y-10248174D01*
X4940277Y-10248174D02*
X4949801Y-10267222D01*
X4949801Y-10267222D02*
X4949801Y-10371984D01*
X4949801Y-10267222D02*
X4959325Y-10248174D01*
X4959325Y-10248174D02*
X4978372Y-10238650D01*
X4978372Y-10238650D02*
X5006944Y-10238650D01*
X5006944Y-10238650D02*
X5025991Y-10248174D01*
X5025991Y-10248174D02*
X5035515Y-10267222D01*
X5035515Y-10267222D02*
X5035515Y-10371984D01*
X5425991Y-10162460D02*
X5254563Y-10419603D01*
X5683134Y-10171984D02*
X5702182Y-10171984D01*
X5702182Y-10171984D02*
X5721229Y-10181508D01*
X5721229Y-10181508D02*
X5730753Y-10191031D01*
X5730753Y-10191031D02*
X5740277Y-10210079D01*
X5740277Y-10210079D02*
X5749801Y-10248174D01*
X5749801Y-10248174D02*
X5749801Y-10295793D01*
X5749801Y-10295793D02*
X5740277Y-10333889D01*
X5740277Y-10333889D02*
X5730753Y-10352936D01*
X5730753Y-10352936D02*
X5721229Y-10362460D01*
X5721229Y-10362460D02*
X5702182Y-10371984D01*
X5702182Y-10371984D02*
X5683134Y-10371984D01*
X5683134Y-10371984D02*
X5664086Y-10362460D01*
X5664086Y-10362460D02*
X5654563Y-10352936D01*
X5654563Y-10352936D02*
X5645039Y-10333889D01*
X5645039Y-10333889D02*
X5635515Y-10295793D01*
X5635515Y-10295793D02*
X5635515Y-10248174D01*
X5635515Y-10248174D02*
X5645039Y-10210079D01*
X5645039Y-10210079D02*
X5654563Y-10191031D01*
X5654563Y-10191031D02*
X5664086Y-10181508D01*
X5664086Y-10181508D02*
X5683134Y-10171984D01*
X5835515Y-10352936D02*
X5845039Y-10362460D01*
X5845039Y-10362460D02*
X5835515Y-10371984D01*
X5835515Y-10371984D02*
X5825991Y-10362460D01*
X5825991Y-10362460D02*
X5835515Y-10352936D01*
X5835515Y-10352936D02*
X5835515Y-10371984D01*
X5968848Y-10171984D02*
X5987896Y-10171984D01*
X5987896Y-10171984D02*
X6006944Y-10181508D01*
X6006944Y-10181508D02*
X6016467Y-10191031D01*
X6016467Y-10191031D02*
X6025991Y-10210079D01*
X6025991Y-10210079D02*
X6035515Y-10248174D01*
X6035515Y-10248174D02*
X6035515Y-10295793D01*
X6035515Y-10295793D02*
X6025991Y-10333889D01*
X6025991Y-10333889D02*
X6016467Y-10352936D01*
X6016467Y-10352936D02*
X6006944Y-10362460D01*
X6006944Y-10362460D02*
X5987896Y-10371984D01*
X5987896Y-10371984D02*
X5968848Y-10371984D01*
X5968848Y-10371984D02*
X5949801Y-10362460D01*
X5949801Y-10362460D02*
X5940277Y-10352936D01*
X5940277Y-10352936D02*
X5930753Y-10333889D01*
X5930753Y-10333889D02*
X5921229Y-10295793D01*
X5921229Y-10295793D02*
X5921229Y-10248174D01*
X5921229Y-10248174D02*
X5930753Y-10210079D01*
X5930753Y-10210079D02*
X5940277Y-10191031D01*
X5940277Y-10191031D02*
X5949801Y-10181508D01*
X5949801Y-10181508D02*
X5968848Y-10171984D01*
X6102182Y-10171984D02*
X6225991Y-10171984D01*
X6225991Y-10171984D02*
X6159325Y-10248174D01*
X6159325Y-10248174D02*
X6187896Y-10248174D01*
X6187896Y-10248174D02*
X6206944Y-10257698D01*
X6206944Y-10257698D02*
X6216467Y-10267222D01*
X6216467Y-10267222D02*
X6225991Y-10286270D01*
X6225991Y-10286270D02*
X6225991Y-10333889D01*
X6225991Y-10333889D02*
X6216467Y-10352936D01*
X6216467Y-10352936D02*
X6206944Y-10362460D01*
X6206944Y-10362460D02*
X6187896Y-10371984D01*
X6187896Y-10371984D02*
X6130753Y-10371984D01*
X6130753Y-10371984D02*
X6111706Y-10362460D01*
X6111706Y-10362460D02*
X6102182Y-10352936D01*
X6321229Y-10371984D02*
X6359325Y-10371984D01*
X6359325Y-10371984D02*
X6378372Y-10362460D01*
X6378372Y-10362460D02*
X6387896Y-10352936D01*
X6387896Y-10352936D02*
X6406944Y-10324365D01*
X6406944Y-10324365D02*
X6416467Y-10286270D01*
X6416467Y-10286270D02*
X6416467Y-10210079D01*
X6416467Y-10210079D02*
X6406944Y-10191031D01*
X6406944Y-10191031D02*
X6397420Y-10181508D01*
X6397420Y-10181508D02*
X6378372Y-10171984D01*
X6378372Y-10171984D02*
X6340277Y-10171984D01*
X6340277Y-10171984D02*
X6321229Y-10181508D01*
X6321229Y-10181508D02*
X6311706Y-10191031D01*
X6311706Y-10191031D02*
X6302182Y-10210079D01*
X6302182Y-10210079D02*
X6302182Y-10257698D01*
X6302182Y-10257698D02*
X6311706Y-10276746D01*
X6311706Y-10276746D02*
X6321229Y-10286270D01*
X6321229Y-10286270D02*
X6340277Y-10295793D01*
X6340277Y-10295793D02*
X6378372Y-10295793D01*
X6378372Y-10295793D02*
X6397420Y-10286270D01*
X6397420Y-10286270D02*
X6406944Y-10276746D01*
X6406944Y-10276746D02*
X6416467Y-10257698D01*
X6587896Y-10238650D02*
X6587896Y-10371984D01*
X6540277Y-10162460D02*
X6492658Y-10305317D01*
X6492658Y-10305317D02*
X6616467Y-10305317D01*
X6683134Y-10171984D02*
X6683134Y-10210079D01*
X6759325Y-10171984D02*
X6759325Y-10210079D01*
X7054563Y-10448174D02*
X7045039Y-10438650D01*
X7045039Y-10438650D02*
X7025991Y-10410079D01*
X7025991Y-10410079D02*
X7016468Y-10391031D01*
X7016468Y-10391031D02*
X7006944Y-10362460D01*
X7006944Y-10362460D02*
X6997420Y-10314841D01*
X6997420Y-10314841D02*
X6997420Y-10276746D01*
X6997420Y-10276746D02*
X7006944Y-10229127D01*
X7006944Y-10229127D02*
X7016468Y-10200555D01*
X7016468Y-10200555D02*
X7025991Y-10181508D01*
X7025991Y-10181508D02*
X7045039Y-10152936D01*
X7045039Y-10152936D02*
X7054563Y-10143412D01*
X7121229Y-10191031D02*
X7130753Y-10181508D01*
X7130753Y-10181508D02*
X7149801Y-10171984D01*
X7149801Y-10171984D02*
X7197420Y-10171984D01*
X7197420Y-10171984D02*
X7216468Y-10181508D01*
X7216468Y-10181508D02*
X7225991Y-10191031D01*
X7225991Y-10191031D02*
X7235515Y-10210079D01*
X7235515Y-10210079D02*
X7235515Y-10229127D01*
X7235515Y-10229127D02*
X7225991Y-10257698D01*
X7225991Y-10257698D02*
X7111706Y-10371984D01*
X7111706Y-10371984D02*
X7235515Y-10371984D01*
X7330753Y-10371984D02*
X7368848Y-10371984D01*
X7368848Y-10371984D02*
X7387896Y-10362460D01*
X7387896Y-10362460D02*
X7397420Y-10352936D01*
X7397420Y-10352936D02*
X7416468Y-10324365D01*
X7416468Y-10324365D02*
X7425991Y-10286270D01*
X7425991Y-10286270D02*
X7425991Y-10210079D01*
X7425991Y-10210079D02*
X7416468Y-10191031D01*
X7416468Y-10191031D02*
X7406944Y-10181508D01*
X7406944Y-10181508D02*
X7387896Y-10171984D01*
X7387896Y-10171984D02*
X7349801Y-10171984D01*
X7349801Y-10171984D02*
X7330753Y-10181508D01*
X7330753Y-10181508D02*
X7321229Y-10191031D01*
X7321229Y-10191031D02*
X7311706Y-10210079D01*
X7311706Y-10210079D02*
X7311706Y-10257698D01*
X7311706Y-10257698D02*
X7321229Y-10276746D01*
X7321229Y-10276746D02*
X7330753Y-10286270D01*
X7330753Y-10286270D02*
X7349801Y-10295793D01*
X7349801Y-10295793D02*
X7387896Y-10295793D01*
X7387896Y-10295793D02*
X7406944Y-10286270D01*
X7406944Y-10286270D02*
X7416468Y-10276746D01*
X7416468Y-10276746D02*
X7425991Y-10257698D01*
X7664087Y-10371984D02*
X7664087Y-10171984D01*
X7749801Y-10371984D02*
X7749801Y-10267222D01*
X7749801Y-10267222D02*
X7740277Y-10248174D01*
X7740277Y-10248174D02*
X7721230Y-10238650D01*
X7721230Y-10238650D02*
X7692658Y-10238650D01*
X7692658Y-10238650D02*
X7673610Y-10248174D01*
X7673610Y-10248174D02*
X7664087Y-10257698D01*
X7873610Y-10371984D02*
X7854563Y-10362460D01*
X7854563Y-10362460D02*
X7845039Y-10352936D01*
X7845039Y-10352936D02*
X7835515Y-10333889D01*
X7835515Y-10333889D02*
X7835515Y-10276746D01*
X7835515Y-10276746D02*
X7845039Y-10257698D01*
X7845039Y-10257698D02*
X7854563Y-10248174D01*
X7854563Y-10248174D02*
X7873610Y-10238650D01*
X7873610Y-10238650D02*
X7902182Y-10238650D01*
X7902182Y-10238650D02*
X7921230Y-10248174D01*
X7921230Y-10248174D02*
X7930753Y-10257698D01*
X7930753Y-10257698D02*
X7940277Y-10276746D01*
X7940277Y-10276746D02*
X7940277Y-10333889D01*
X7940277Y-10333889D02*
X7930753Y-10352936D01*
X7930753Y-10352936D02*
X7921230Y-10362460D01*
X7921230Y-10362460D02*
X7902182Y-10371984D01*
X7902182Y-10371984D02*
X7873610Y-10371984D01*
X8054563Y-10371984D02*
X8035515Y-10362460D01*
X8035515Y-10362460D02*
X8025991Y-10343412D01*
X8025991Y-10343412D02*
X8025991Y-10171984D01*
X8206944Y-10362460D02*
X8187896Y-10371984D01*
X8187896Y-10371984D02*
X8149801Y-10371984D01*
X8149801Y-10371984D02*
X8130753Y-10362460D01*
X8130753Y-10362460D02*
X8121230Y-10343412D01*
X8121230Y-10343412D02*
X8121230Y-10267222D01*
X8121230Y-10267222D02*
X8130753Y-10248174D01*
X8130753Y-10248174D02*
X8149801Y-10238650D01*
X8149801Y-10238650D02*
X8187896Y-10238650D01*
X8187896Y-10238650D02*
X8206944Y-10248174D01*
X8206944Y-10248174D02*
X8216468Y-10267222D01*
X8216468Y-10267222D02*
X8216468Y-10286270D01*
X8216468Y-10286270D02*
X8121230Y-10305317D01*
X8292658Y-10362460D02*
X8311706Y-10371984D01*
X8311706Y-10371984D02*
X8349801Y-10371984D01*
X8349801Y-10371984D02*
X8368849Y-10362460D01*
X8368849Y-10362460D02*
X8378372Y-10343412D01*
X8378372Y-10343412D02*
X8378372Y-10333889D01*
X8378372Y-10333889D02*
X8368849Y-10314841D01*
X8368849Y-10314841D02*
X8349801Y-10305317D01*
X8349801Y-10305317D02*
X8321230Y-10305317D01*
X8321230Y-10305317D02*
X8302182Y-10295793D01*
X8302182Y-10295793D02*
X8292658Y-10276746D01*
X8292658Y-10276746D02*
X8292658Y-10267222D01*
X8292658Y-10267222D02*
X8302182Y-10248174D01*
X8302182Y-10248174D02*
X8321230Y-10238650D01*
X8321230Y-10238650D02*
X8349801Y-10238650D01*
X8349801Y-10238650D02*
X8368849Y-10248174D01*
X8445039Y-10448174D02*
X8454563Y-10438650D01*
X8454563Y-10438650D02*
X8473611Y-10410079D01*
X8473611Y-10410079D02*
X8483134Y-10391031D01*
X8483134Y-10391031D02*
X8492658Y-10362460D01*
X8492658Y-10362460D02*
X8502182Y-10314841D01*
X8502182Y-10314841D02*
X8502182Y-10276746D01*
X8502182Y-10276746D02*
X8492658Y-10229127D01*
X8492658Y-10229127D02*
X8483134Y-10200555D01*
X8483134Y-10200555D02*
X8473611Y-10181508D01*
X8473611Y-10181508D02*
X8454563Y-10152936D01*
X8454563Y-10152936D02*
X8445039Y-10143412D01*
D13*
X3404500Y-10469500D02*
X3404500Y-10619500D01*
X3329500Y-10544500D02*
X3479500Y-10544500D01*
D11*
X3845039Y-10635984D02*
X3730753Y-10635984D01*
X3787896Y-10635984D02*
X3787896Y-10435984D01*
X3787896Y-10435984D02*
X3768848Y-10464555D01*
X3768848Y-10464555D02*
X3749801Y-10483603D01*
X3749801Y-10483603D02*
X3730753Y-10493127D01*
X3930753Y-10616936D02*
X3940277Y-10626460D01*
X3940277Y-10626460D02*
X3930753Y-10635984D01*
X3930753Y-10635984D02*
X3921229Y-10626460D01*
X3921229Y-10626460D02*
X3930753Y-10616936D01*
X3930753Y-10616936D02*
X3930753Y-10635984D01*
X4121229Y-10435984D02*
X4025991Y-10435984D01*
X4025991Y-10435984D02*
X4016467Y-10531222D01*
X4016467Y-10531222D02*
X4025991Y-10521698D01*
X4025991Y-10521698D02*
X4045039Y-10512174D01*
X4045039Y-10512174D02*
X4092658Y-10512174D01*
X4092658Y-10512174D02*
X4111705Y-10521698D01*
X4111705Y-10521698D02*
X4121229Y-10531222D01*
X4121229Y-10531222D02*
X4130753Y-10550270D01*
X4130753Y-10550270D02*
X4130753Y-10597889D01*
X4130753Y-10597889D02*
X4121229Y-10616936D01*
X4121229Y-10616936D02*
X4111705Y-10626460D01*
X4111705Y-10626460D02*
X4092658Y-10635984D01*
X4092658Y-10635984D02*
X4045039Y-10635984D01*
X4045039Y-10635984D02*
X4025991Y-10626460D01*
X4025991Y-10626460D02*
X4016467Y-10616936D01*
X4254563Y-10435984D02*
X4273610Y-10435984D01*
X4273610Y-10435984D02*
X4292658Y-10445508D01*
X4292658Y-10445508D02*
X4302182Y-10455031D01*
X4302182Y-10455031D02*
X4311705Y-10474079D01*
X4311705Y-10474079D02*
X4321229Y-10512174D01*
X4321229Y-10512174D02*
X4321229Y-10559793D01*
X4321229Y-10559793D02*
X4311705Y-10597889D01*
X4311705Y-10597889D02*
X4302182Y-10616936D01*
X4302182Y-10616936D02*
X4292658Y-10626460D01*
X4292658Y-10626460D02*
X4273610Y-10635984D01*
X4273610Y-10635984D02*
X4254563Y-10635984D01*
X4254563Y-10635984D02*
X4235515Y-10626460D01*
X4235515Y-10626460D02*
X4225991Y-10616936D01*
X4225991Y-10616936D02*
X4216467Y-10597889D01*
X4216467Y-10597889D02*
X4206944Y-10559793D01*
X4206944Y-10559793D02*
X4206944Y-10512174D01*
X4206944Y-10512174D02*
X4216467Y-10474079D01*
X4216467Y-10474079D02*
X4225991Y-10455031D01*
X4225991Y-10455031D02*
X4235515Y-10445508D01*
X4235515Y-10445508D02*
X4254563Y-10435984D01*
X4445039Y-10435984D02*
X4464086Y-10435984D01*
X4464086Y-10435984D02*
X4483134Y-10445508D01*
X4483134Y-10445508D02*
X4492658Y-10455031D01*
X4492658Y-10455031D02*
X4502182Y-10474079D01*
X4502182Y-10474079D02*
X4511705Y-10512174D01*
X4511705Y-10512174D02*
X4511705Y-10559793D01*
X4511705Y-10559793D02*
X4502182Y-10597889D01*
X4502182Y-10597889D02*
X4492658Y-10616936D01*
X4492658Y-10616936D02*
X4483134Y-10626460D01*
X4483134Y-10626460D02*
X4464086Y-10635984D01*
X4464086Y-10635984D02*
X4445039Y-10635984D01*
X4445039Y-10635984D02*
X4425991Y-10626460D01*
X4425991Y-10626460D02*
X4416467Y-10616936D01*
X4416467Y-10616936D02*
X4406944Y-10597889D01*
X4406944Y-10597889D02*
X4397420Y-10559793D01*
X4397420Y-10559793D02*
X4397420Y-10512174D01*
X4397420Y-10512174D02*
X4406944Y-10474079D01*
X4406944Y-10474079D02*
X4416467Y-10455031D01*
X4416467Y-10455031D02*
X4425991Y-10445508D01*
X4425991Y-10445508D02*
X4445039Y-10435984D01*
X4597420Y-10635984D02*
X4597420Y-10502650D01*
X4597420Y-10521698D02*
X4606944Y-10512174D01*
X4606944Y-10512174D02*
X4625991Y-10502650D01*
X4625991Y-10502650D02*
X4654563Y-10502650D01*
X4654563Y-10502650D02*
X4673610Y-10512174D01*
X4673610Y-10512174D02*
X4683134Y-10531222D01*
X4683134Y-10531222D02*
X4683134Y-10635984D01*
X4683134Y-10531222D02*
X4692658Y-10512174D01*
X4692658Y-10512174D02*
X4711705Y-10502650D01*
X4711705Y-10502650D02*
X4740277Y-10502650D01*
X4740277Y-10502650D02*
X4759325Y-10512174D01*
X4759325Y-10512174D02*
X4768848Y-10531222D01*
X4768848Y-10531222D02*
X4768848Y-10635984D01*
X4864086Y-10635984D02*
X4864086Y-10502650D01*
X4864086Y-10521698D02*
X4873610Y-10512174D01*
X4873610Y-10512174D02*
X4892658Y-10502650D01*
X4892658Y-10502650D02*
X4921229Y-10502650D01*
X4921229Y-10502650D02*
X4940277Y-10512174D01*
X4940277Y-10512174D02*
X4949801Y-10531222D01*
X4949801Y-10531222D02*
X4949801Y-10635984D01*
X4949801Y-10531222D02*
X4959325Y-10512174D01*
X4959325Y-10512174D02*
X4978372Y-10502650D01*
X4978372Y-10502650D02*
X5006944Y-10502650D01*
X5006944Y-10502650D02*
X5025991Y-10512174D01*
X5025991Y-10512174D02*
X5035515Y-10531222D01*
X5035515Y-10531222D02*
X5035515Y-10635984D01*
X5425991Y-10426460D02*
X5254563Y-10683603D01*
X5683134Y-10435984D02*
X5702182Y-10435984D01*
X5702182Y-10435984D02*
X5721229Y-10445508D01*
X5721229Y-10445508D02*
X5730753Y-10455031D01*
X5730753Y-10455031D02*
X5740277Y-10474079D01*
X5740277Y-10474079D02*
X5749801Y-10512174D01*
X5749801Y-10512174D02*
X5749801Y-10559793D01*
X5749801Y-10559793D02*
X5740277Y-10597889D01*
X5740277Y-10597889D02*
X5730753Y-10616936D01*
X5730753Y-10616936D02*
X5721229Y-10626460D01*
X5721229Y-10626460D02*
X5702182Y-10635984D01*
X5702182Y-10635984D02*
X5683134Y-10635984D01*
X5683134Y-10635984D02*
X5664086Y-10626460D01*
X5664086Y-10626460D02*
X5654563Y-10616936D01*
X5654563Y-10616936D02*
X5645039Y-10597889D01*
X5645039Y-10597889D02*
X5635515Y-10559793D01*
X5635515Y-10559793D02*
X5635515Y-10512174D01*
X5635515Y-10512174D02*
X5645039Y-10474079D01*
X5645039Y-10474079D02*
X5654563Y-10455031D01*
X5654563Y-10455031D02*
X5664086Y-10445508D01*
X5664086Y-10445508D02*
X5683134Y-10435984D01*
X5835515Y-10616936D02*
X5845039Y-10626460D01*
X5845039Y-10626460D02*
X5835515Y-10635984D01*
X5835515Y-10635984D02*
X5825991Y-10626460D01*
X5825991Y-10626460D02*
X5835515Y-10616936D01*
X5835515Y-10616936D02*
X5835515Y-10635984D01*
X5968848Y-10435984D02*
X5987896Y-10435984D01*
X5987896Y-10435984D02*
X6006944Y-10445508D01*
X6006944Y-10445508D02*
X6016467Y-10455031D01*
X6016467Y-10455031D02*
X6025991Y-10474079D01*
X6025991Y-10474079D02*
X6035515Y-10512174D01*
X6035515Y-10512174D02*
X6035515Y-10559793D01*
X6035515Y-10559793D02*
X6025991Y-10597889D01*
X6025991Y-10597889D02*
X6016467Y-10616936D01*
X6016467Y-10616936D02*
X6006944Y-10626460D01*
X6006944Y-10626460D02*
X5987896Y-10635984D01*
X5987896Y-10635984D02*
X5968848Y-10635984D01*
X5968848Y-10635984D02*
X5949801Y-10626460D01*
X5949801Y-10626460D02*
X5940277Y-10616936D01*
X5940277Y-10616936D02*
X5930753Y-10597889D01*
X5930753Y-10597889D02*
X5921229Y-10559793D01*
X5921229Y-10559793D02*
X5921229Y-10512174D01*
X5921229Y-10512174D02*
X5930753Y-10474079D01*
X5930753Y-10474079D02*
X5940277Y-10455031D01*
X5940277Y-10455031D02*
X5949801Y-10445508D01*
X5949801Y-10445508D02*
X5968848Y-10435984D01*
X6216467Y-10435984D02*
X6121229Y-10435984D01*
X6121229Y-10435984D02*
X6111706Y-10531222D01*
X6111706Y-10531222D02*
X6121229Y-10521698D01*
X6121229Y-10521698D02*
X6140277Y-10512174D01*
X6140277Y-10512174D02*
X6187896Y-10512174D01*
X6187896Y-10512174D02*
X6206944Y-10521698D01*
X6206944Y-10521698D02*
X6216467Y-10531222D01*
X6216467Y-10531222D02*
X6225991Y-10550270D01*
X6225991Y-10550270D02*
X6225991Y-10597889D01*
X6225991Y-10597889D02*
X6216467Y-10616936D01*
X6216467Y-10616936D02*
X6206944Y-10626460D01*
X6206944Y-10626460D02*
X6187896Y-10635984D01*
X6187896Y-10635984D02*
X6140277Y-10635984D01*
X6140277Y-10635984D02*
X6121229Y-10626460D01*
X6121229Y-10626460D02*
X6111706Y-10616936D01*
X6321229Y-10635984D02*
X6359325Y-10635984D01*
X6359325Y-10635984D02*
X6378372Y-10626460D01*
X6378372Y-10626460D02*
X6387896Y-10616936D01*
X6387896Y-10616936D02*
X6406944Y-10588365D01*
X6406944Y-10588365D02*
X6416467Y-10550270D01*
X6416467Y-10550270D02*
X6416467Y-10474079D01*
X6416467Y-10474079D02*
X6406944Y-10455031D01*
X6406944Y-10455031D02*
X6397420Y-10445508D01*
X6397420Y-10445508D02*
X6378372Y-10435984D01*
X6378372Y-10435984D02*
X6340277Y-10435984D01*
X6340277Y-10435984D02*
X6321229Y-10445508D01*
X6321229Y-10445508D02*
X6311706Y-10455031D01*
X6311706Y-10455031D02*
X6302182Y-10474079D01*
X6302182Y-10474079D02*
X6302182Y-10521698D01*
X6302182Y-10521698D02*
X6311706Y-10540746D01*
X6311706Y-10540746D02*
X6321229Y-10550270D01*
X6321229Y-10550270D02*
X6340277Y-10559793D01*
X6340277Y-10559793D02*
X6378372Y-10559793D01*
X6378372Y-10559793D02*
X6397420Y-10550270D01*
X6397420Y-10550270D02*
X6406944Y-10540746D01*
X6406944Y-10540746D02*
X6416467Y-10521698D01*
X6606944Y-10635984D02*
X6492658Y-10635984D01*
X6549801Y-10635984D02*
X6549801Y-10435984D01*
X6549801Y-10435984D02*
X6530753Y-10464555D01*
X6530753Y-10464555D02*
X6511706Y-10483603D01*
X6511706Y-10483603D02*
X6492658Y-10493127D01*
X6683134Y-10435984D02*
X6683134Y-10474079D01*
X6759325Y-10435984D02*
X6759325Y-10474079D01*
X7054563Y-10712174D02*
X7045039Y-10702650D01*
X7045039Y-10702650D02*
X7025991Y-10674079D01*
X7025991Y-10674079D02*
X7016468Y-10655031D01*
X7016468Y-10655031D02*
X7006944Y-10626460D01*
X7006944Y-10626460D02*
X6997420Y-10578841D01*
X6997420Y-10578841D02*
X6997420Y-10540746D01*
X6997420Y-10540746D02*
X7006944Y-10493127D01*
X7006944Y-10493127D02*
X7016468Y-10464555D01*
X7016468Y-10464555D02*
X7025991Y-10445508D01*
X7025991Y-10445508D02*
X7045039Y-10416936D01*
X7045039Y-10416936D02*
X7054563Y-10407412D01*
X7121229Y-10455031D02*
X7130753Y-10445508D01*
X7130753Y-10445508D02*
X7149801Y-10435984D01*
X7149801Y-10435984D02*
X7197420Y-10435984D01*
X7197420Y-10435984D02*
X7216468Y-10445508D01*
X7216468Y-10445508D02*
X7225991Y-10455031D01*
X7225991Y-10455031D02*
X7235515Y-10474079D01*
X7235515Y-10474079D02*
X7235515Y-10493127D01*
X7235515Y-10493127D02*
X7225991Y-10521698D01*
X7225991Y-10521698D02*
X7111706Y-10635984D01*
X7111706Y-10635984D02*
X7235515Y-10635984D01*
X7406944Y-10502650D02*
X7406944Y-10635984D01*
X7359325Y-10426460D02*
X7311706Y-10569317D01*
X7311706Y-10569317D02*
X7435515Y-10569317D01*
X7664087Y-10635984D02*
X7664087Y-10435984D01*
X7749801Y-10635984D02*
X7749801Y-10531222D01*
X7749801Y-10531222D02*
X7740277Y-10512174D01*
X7740277Y-10512174D02*
X7721230Y-10502650D01*
X7721230Y-10502650D02*
X7692658Y-10502650D01*
X7692658Y-10502650D02*
X7673610Y-10512174D01*
X7673610Y-10512174D02*
X7664087Y-10521698D01*
X7873610Y-10635984D02*
X7854563Y-10626460D01*
X7854563Y-10626460D02*
X7845039Y-10616936D01*
X7845039Y-10616936D02*
X7835515Y-10597889D01*
X7835515Y-10597889D02*
X7835515Y-10540746D01*
X7835515Y-10540746D02*
X7845039Y-10521698D01*
X7845039Y-10521698D02*
X7854563Y-10512174D01*
X7854563Y-10512174D02*
X7873610Y-10502650D01*
X7873610Y-10502650D02*
X7902182Y-10502650D01*
X7902182Y-10502650D02*
X7921230Y-10512174D01*
X7921230Y-10512174D02*
X7930753Y-10521698D01*
X7930753Y-10521698D02*
X7940277Y-10540746D01*
X7940277Y-10540746D02*
X7940277Y-10597889D01*
X7940277Y-10597889D02*
X7930753Y-10616936D01*
X7930753Y-10616936D02*
X7921230Y-10626460D01*
X7921230Y-10626460D02*
X7902182Y-10635984D01*
X7902182Y-10635984D02*
X7873610Y-10635984D01*
X8054563Y-10635984D02*
X8035515Y-10626460D01*
X8035515Y-10626460D02*
X8025991Y-10607412D01*
X8025991Y-10607412D02*
X8025991Y-10435984D01*
X8206944Y-10626460D02*
X8187896Y-10635984D01*
X8187896Y-10635984D02*
X8149801Y-10635984D01*
X8149801Y-10635984D02*
X8130753Y-10626460D01*
X8130753Y-10626460D02*
X8121230Y-10607412D01*
X8121230Y-10607412D02*
X8121230Y-10531222D01*
X8121230Y-10531222D02*
X8130753Y-10512174D01*
X8130753Y-10512174D02*
X8149801Y-10502650D01*
X8149801Y-10502650D02*
X8187896Y-10502650D01*
X8187896Y-10502650D02*
X8206944Y-10512174D01*
X8206944Y-10512174D02*
X8216468Y-10531222D01*
X8216468Y-10531222D02*
X8216468Y-10550270D01*
X8216468Y-10550270D02*
X8121230Y-10569317D01*
X8292658Y-10626460D02*
X8311706Y-10635984D01*
X8311706Y-10635984D02*
X8349801Y-10635984D01*
X8349801Y-10635984D02*
X8368849Y-10626460D01*
X8368849Y-10626460D02*
X8378372Y-10607412D01*
X8378372Y-10607412D02*
X8378372Y-10597889D01*
X8378372Y-10597889D02*
X8368849Y-10578841D01*
X8368849Y-10578841D02*
X8349801Y-10569317D01*
X8349801Y-10569317D02*
X8321230Y-10569317D01*
X8321230Y-10569317D02*
X8302182Y-10559793D01*
X8302182Y-10559793D02*
X8292658Y-10540746D01*
X8292658Y-10540746D02*
X8292658Y-10531222D01*
X8292658Y-10531222D02*
X8302182Y-10512174D01*
X8302182Y-10512174D02*
X8321230Y-10502650D01*
X8321230Y-10502650D02*
X8349801Y-10502650D01*
X8349801Y-10502650D02*
X8368849Y-10512174D01*
X8616468Y-10559793D02*
X8768849Y-10559793D01*
X8692658Y-10635984D02*
X8692658Y-10483603D01*
X9121230Y-10635984D02*
X9006944Y-10635984D01*
X9064087Y-10635984D02*
X9064087Y-10435984D01*
X9064087Y-10435984D02*
X9045039Y-10464555D01*
X9045039Y-10464555D02*
X9025992Y-10483603D01*
X9025992Y-10483603D02*
X9006944Y-10493127D01*
X9197420Y-10455031D02*
X9206944Y-10445508D01*
X9206944Y-10445508D02*
X9225992Y-10435984D01*
X9225992Y-10435984D02*
X9273611Y-10435984D01*
X9273611Y-10435984D02*
X9292658Y-10445508D01*
X9292658Y-10445508D02*
X9302182Y-10455031D01*
X9302182Y-10455031D02*
X9311706Y-10474079D01*
X9311706Y-10474079D02*
X9311706Y-10493127D01*
X9311706Y-10493127D02*
X9302182Y-10521698D01*
X9302182Y-10521698D02*
X9187896Y-10635984D01*
X9187896Y-10635984D02*
X9311706Y-10635984D01*
X9540277Y-10626460D02*
X9559325Y-10635984D01*
X9559325Y-10635984D02*
X9597420Y-10635984D01*
X9597420Y-10635984D02*
X9616468Y-10626460D01*
X9616468Y-10626460D02*
X9625992Y-10607412D01*
X9625992Y-10607412D02*
X9625992Y-10597889D01*
X9625992Y-10597889D02*
X9616468Y-10578841D01*
X9616468Y-10578841D02*
X9597420Y-10569317D01*
X9597420Y-10569317D02*
X9568849Y-10569317D01*
X9568849Y-10569317D02*
X9549801Y-10559793D01*
X9549801Y-10559793D02*
X9540277Y-10540746D01*
X9540277Y-10540746D02*
X9540277Y-10531222D01*
X9540277Y-10531222D02*
X9549801Y-10512174D01*
X9549801Y-10512174D02*
X9568849Y-10502650D01*
X9568849Y-10502650D02*
X9597420Y-10502650D01*
X9597420Y-10502650D02*
X9616468Y-10512174D01*
X9740277Y-10635984D02*
X9721230Y-10626460D01*
X9721230Y-10626460D02*
X9711706Y-10607412D01*
X9711706Y-10607412D02*
X9711706Y-10435984D01*
X9845039Y-10635984D02*
X9825992Y-10626460D01*
X9825992Y-10626460D02*
X9816468Y-10616936D01*
X9816468Y-10616936D02*
X9806944Y-10597889D01*
X9806944Y-10597889D02*
X9806944Y-10540746D01*
X9806944Y-10540746D02*
X9816468Y-10521698D01*
X9816468Y-10521698D02*
X9825992Y-10512174D01*
X9825992Y-10512174D02*
X9845039Y-10502650D01*
X9845039Y-10502650D02*
X9873611Y-10502650D01*
X9873611Y-10502650D02*
X9892658Y-10512174D01*
X9892658Y-10512174D02*
X9902182Y-10521698D01*
X9902182Y-10521698D02*
X9911706Y-10540746D01*
X9911706Y-10540746D02*
X9911706Y-10597889D01*
X9911706Y-10597889D02*
X9902182Y-10616936D01*
X9902182Y-10616936D02*
X9892658Y-10626460D01*
X9892658Y-10626460D02*
X9873611Y-10635984D01*
X9873611Y-10635984D02*
X9845039Y-10635984D01*
X9968849Y-10502650D02*
X10045039Y-10502650D01*
X9997420Y-10435984D02*
X9997420Y-10607412D01*
X9997420Y-10607412D02*
X10006944Y-10626460D01*
X10006944Y-10626460D02*
X10025992Y-10635984D01*
X10025992Y-10635984D02*
X10045039Y-10635984D01*
X10102182Y-10626460D02*
X10121230Y-10635984D01*
X10121230Y-10635984D02*
X10159325Y-10635984D01*
X10159325Y-10635984D02*
X10178373Y-10626460D01*
X10178373Y-10626460D02*
X10187897Y-10607412D01*
X10187897Y-10607412D02*
X10187897Y-10597889D01*
X10187897Y-10597889D02*
X10178373Y-10578841D01*
X10178373Y-10578841D02*
X10159325Y-10569317D01*
X10159325Y-10569317D02*
X10130754Y-10569317D01*
X10130754Y-10569317D02*
X10111706Y-10559793D01*
X10111706Y-10559793D02*
X10102182Y-10540746D01*
X10102182Y-10540746D02*
X10102182Y-10531222D01*
X10102182Y-10531222D02*
X10111706Y-10512174D01*
X10111706Y-10512174D02*
X10130754Y-10502650D01*
X10130754Y-10502650D02*
X10159325Y-10502650D01*
X10159325Y-10502650D02*
X10178373Y-10512174D01*
X10254563Y-10712174D02*
X10264087Y-10702650D01*
X10264087Y-10702650D02*
X10283135Y-10674079D01*
X10283135Y-10674079D02*
X10292658Y-10655031D01*
X10292658Y-10655031D02*
X10302182Y-10626460D01*
X10302182Y-10626460D02*
X10311706Y-10578841D01*
X10311706Y-10578841D02*
X10311706Y-10540746D01*
X10311706Y-10540746D02*
X10302182Y-10493127D01*
X10302182Y-10493127D02*
X10292658Y-10464555D01*
X10292658Y-10464555D02*
X10283135Y-10445508D01*
X10283135Y-10445508D02*
X10264087Y-10416936D01*
X10264087Y-10416936D02*
X10254563Y-10407412D01*
M02*
