G04 #@! TF.GenerationSoftware,KiCad,Pcbnew,7.0.5*
G04 #@! TF.CreationDate,2023-08-03T23:10:00+08:00*
G04 #@! TF.ProjectId,RB,52422e6b-6963-4616-945f-706362585858,rev?*
G04 #@! TF.SameCoordinates,Original*
G04 #@! TF.FileFunction,Copper,L2,Bot*
G04 #@! TF.FilePolarity,Positive*
%FSLAX46Y46*%
G04 Gerber Fmt 4.6, Leading zero omitted, Abs format (unit mm)*
G04 Created by KiCad (PCBNEW 7.0.5) date 2023-08-03 23:10:00*
%MOMM*%
%LPD*%
G01*
G04 APERTURE LIST*
G04 Aperture macros list*
%AMRoundRect*
0 Rectangle with rounded corners*
0 $1 Rounding radius*
0 $2 $3 $4 $5 $6 $7 $8 $9 X,Y pos of 4 corners*
0 Add a 4 corners polygon primitive as box body*
4,1,4,$2,$3,$4,$5,$6,$7,$8,$9,$2,$3,0*
0 Add four circle primitives for the rounded corners*
1,1,$1+$1,$2,$3*
1,1,$1+$1,$4,$5*
1,1,$1+$1,$6,$7*
1,1,$1+$1,$8,$9*
0 Add four rect primitives between the rounded corners*
20,1,$1+$1,$2,$3,$4,$5,0*
20,1,$1+$1,$4,$5,$6,$7,0*
20,1,$1+$1,$6,$7,$8,$9,0*
20,1,$1+$1,$8,$9,$2,$3,0*%
%AMHorizOval*
0 Thick line with rounded ends*
0 $1 width*
0 $2 $3 position (X,Y) of the first rounded end (center of the circle)*
0 $4 $5 position (X,Y) of the second rounded end (center of the circle)*
0 Add line between two ends*
20,1,$1,$2,$3,$4,$5,0*
0 Add two circle primitives to create the rounded ends*
1,1,$1,$2,$3*
1,1,$1,$4,$5*%
%AMOutline4P*
0 Free polygon, 4 corners , with rotation*
0 The origin of the aperture is its center*
0 number of corners: always 4*
0 $1 to $8 corner X, Y*
0 $9 Rotation angle, in degrees counterclockwise*
0 create outline with 4 corners*
4,1,4,$1,$2,$3,$4,$5,$6,$7,$8,$1,$2,$9*%
G04 Aperture macros list end*
G04 #@! TA.AperFunction,ComponentPad*
%ADD10HorizOval,2.400000X-0.305164X0.457575X0.305164X-0.457575X0*%
G04 #@! TD*
G04 #@! TA.AperFunction,ComponentPad*
%ADD11C,2.400000*%
G04 #@! TD*
G04 #@! TA.AperFunction,SMDPad,CuDef*
%ADD12Outline4P,-1.150000X-1.200000X1.150000X-1.200000X1.150000X1.200000X-1.150000X1.200000X0.000000*%
G04 #@! TD*
G04 #@! TA.AperFunction,SMDPad,CuDef*
%ADD13Outline4P,-1.200000X-1.200000X1.200000X-1.200000X1.200000X1.200000X-1.200000X1.200000X0.000000*%
G04 #@! TD*
G04 #@! TA.AperFunction,ComponentPad*
%ADD14C,1.700000*%
G04 #@! TD*
G04 #@! TA.AperFunction,ComponentPad*
%ADD15O,1.700000X1.700000*%
G04 #@! TD*
G04 #@! TA.AperFunction,ComponentPad*
%ADD16RoundRect,0.425000X-0.425000X-0.425000X0.425000X-0.425000X0.425000X0.425000X-0.425000X0.425000X0*%
G04 #@! TD*
G04 #@! TA.AperFunction,SMDPad,CuDef*
%ADD17RoundRect,0.225000X-0.225000X-0.375000X0.225000X-0.375000X0.225000X0.375000X-0.225000X0.375000X0*%
G04 #@! TD*
G04 #@! TA.AperFunction,ViaPad*
%ADD18C,0.800000*%
G04 #@! TD*
G04 #@! TA.AperFunction,Conductor*
%ADD19C,0.250000*%
G04 #@! TD*
G04 APERTURE END LIST*
D10*
X137410000Y-58680000D03*
D11*
X138300000Y-51890000D03*
X142110000Y-60330000D03*
D12*
X143410000Y-60330000D03*
D11*
X144650000Y-49330000D03*
X144710000Y-60330000D03*
D13*
X145880000Y-49330000D03*
D11*
X147110000Y-49330000D03*
D10*
X118360000Y-58680000D03*
D11*
X119250000Y-51890000D03*
X123060000Y-60330000D03*
D12*
X124360000Y-60330000D03*
D11*
X125600000Y-49330000D03*
X125660000Y-60330000D03*
D13*
X126830000Y-49330000D03*
D11*
X128060000Y-49330000D03*
D10*
X118360000Y-96780000D03*
D11*
X119250000Y-89990000D03*
X123060000Y-98430000D03*
D12*
X124360000Y-98430000D03*
D11*
X125600000Y-87430000D03*
X125660000Y-98430000D03*
D13*
X126830000Y-87430000D03*
D11*
X128060000Y-87430000D03*
D10*
X137410000Y-77730000D03*
D11*
X138300000Y-70940000D03*
X142110000Y-79380000D03*
D12*
X143410000Y-79380000D03*
D11*
X144650000Y-68380000D03*
X144710000Y-79380000D03*
D13*
X145880000Y-68380000D03*
D11*
X147110000Y-68380000D03*
D10*
X137410000Y-96780000D03*
D11*
X138300000Y-89990000D03*
X142110000Y-98430000D03*
D12*
X143410000Y-98430000D03*
D11*
X144650000Y-87430000D03*
X144710000Y-98430000D03*
D13*
X145880000Y-87430000D03*
D11*
X147110000Y-87430000D03*
D10*
X118360000Y-77730000D03*
D11*
X119250000Y-70940000D03*
X123060000Y-79380000D03*
D12*
X124360000Y-79380000D03*
D11*
X125600000Y-68380000D03*
X125660000Y-79380000D03*
D13*
X126830000Y-68380000D03*
D11*
X128060000Y-68380000D03*
D14*
X114900000Y-68400000D03*
D15*
X114900000Y-70940000D03*
D16*
X114900000Y-73480000D03*
X114900000Y-76020000D03*
X114900000Y-78560000D03*
D17*
X119280000Y-66990000D03*
X122580000Y-66990000D03*
X138330000Y-86040000D03*
X141630000Y-86040000D03*
X119280000Y-86040000D03*
X122580000Y-86040000D03*
X119280000Y-47940000D03*
X122580000Y-47940000D03*
X138330000Y-66990000D03*
X141630000Y-66990000D03*
X138330000Y-47940000D03*
X141630000Y-47940000D03*
D18*
X135335000Y-69985000D03*
X116810000Y-70880000D03*
D19*
X125600000Y-49330000D02*
X126800000Y-50530000D01*
X126800000Y-50530000D02*
X126800000Y-59190000D01*
X126800000Y-59190000D02*
X125660000Y-60330000D01*
X124210000Y-47940000D02*
X125600000Y-49330000D01*
X122580000Y-47940000D02*
X124210000Y-47940000D01*
X145850000Y-59190000D02*
X144710000Y-60330000D01*
X143260000Y-47940000D02*
X144650000Y-49330000D01*
X141630000Y-47940000D02*
X143260000Y-47940000D01*
X144650000Y-49330000D02*
X145850000Y-50530000D01*
X145850000Y-50530000D02*
X145850000Y-59190000D01*
X125600000Y-68380000D02*
X126800000Y-69580000D01*
X126800000Y-78240000D02*
X125660000Y-79380000D01*
X124210000Y-66990000D02*
X125600000Y-68380000D01*
X122580000Y-66990000D02*
X124210000Y-66990000D01*
X126800000Y-69580000D02*
X126800000Y-78240000D01*
X141630000Y-66990000D02*
X143260000Y-66990000D01*
X143260000Y-66990000D02*
X144650000Y-68380000D01*
X145850000Y-78240000D02*
X144710000Y-79380000D01*
X145850000Y-69580000D02*
X145850000Y-78240000D01*
X144650000Y-68380000D02*
X145850000Y-69580000D01*
X125600000Y-87430000D02*
X126800000Y-88630000D01*
X126800000Y-97290000D02*
X125660000Y-98430000D01*
X124210000Y-86040000D02*
X125600000Y-87430000D01*
X122580000Y-86040000D02*
X124210000Y-86040000D01*
X126800000Y-88630000D02*
X126800000Y-97290000D01*
X144650000Y-87430000D02*
X145850000Y-88630000D01*
X145850000Y-97290000D02*
X144710000Y-98430000D01*
X141630000Y-86040000D02*
X143260000Y-86040000D01*
X145850000Y-88630000D02*
X145850000Y-97290000D01*
X143260000Y-86040000D02*
X144650000Y-87430000D01*
X135335000Y-83045000D02*
X138330000Y-86040000D01*
X138330000Y-47940000D02*
X135335000Y-50935000D01*
X138330000Y-66990000D02*
X135335000Y-69985000D01*
X135335000Y-50935000D02*
X135335000Y-63995000D01*
X135335000Y-69985000D02*
X135335000Y-83045000D01*
X135335000Y-63995000D02*
X138330000Y-66990000D01*
X119280000Y-47940000D02*
X116285000Y-50935000D01*
X114900000Y-70940000D02*
X116170000Y-72210000D01*
X116285000Y-50935000D02*
X116285000Y-63995000D01*
X118750000Y-66990000D02*
X114900000Y-70840000D01*
X114900000Y-70840000D02*
X114900000Y-70940000D01*
X116170000Y-72210000D02*
X116170000Y-82930000D01*
X116170000Y-82930000D02*
X119280000Y-86040000D01*
X116285000Y-63995000D02*
X119280000Y-66990000D01*
X119280000Y-66990000D02*
X118750000Y-66990000D01*
X120055000Y-67635000D02*
X120055000Y-60375000D01*
X116810000Y-70880000D02*
X120055000Y-67635000D01*
X120055000Y-60375000D02*
X118360000Y-58680000D01*
M02*
