G04 #@! TF.GenerationSoftware,KiCad,Pcbnew,7.0.5*
G04 #@! TF.CreationDate,2023-08-03T23:11:00+08:00*
G04 #@! TF.ProjectId,RM,524d2e6b-6963-4616-945f-706362585858,rev?*
G04 #@! TF.SameCoordinates,Original*
G04 #@! TF.FileFunction,Copper,L2,Bot*
G04 #@! TF.FilePolarity,Positive*
%FSLAX46Y46*%
G04 Gerber Fmt 4.6, Leading zero omitted, Abs format (unit mm)*
G04 Created by KiCad (PCBNEW 7.0.5) date 2023-08-03 23:11:00*
%MOMM*%
%LPD*%
G01*
G04 APERTURE LIST*
G04 Aperture macros list*
%AMRoundRect*
0 Rectangle with rounded corners*
0 $1 Rounding radius*
0 $2 $3 $4 $5 $6 $7 $8 $9 X,Y pos of 4 corners*
0 Add a 4 corners polygon primitive as box body*
4,1,4,$2,$3,$4,$5,$6,$7,$8,$9,$2,$3,0*
0 Add four circle primitives for the rounded corners*
1,1,$1+$1,$2,$3*
1,1,$1+$1,$4,$5*
1,1,$1+$1,$6,$7*
1,1,$1+$1,$8,$9*
0 Add four rect primitives between the rounded corners*
20,1,$1+$1,$2,$3,$4,$5,0*
20,1,$1+$1,$4,$5,$6,$7,0*
20,1,$1+$1,$6,$7,$8,$9,0*
20,1,$1+$1,$8,$9,$2,$3,0*%
%AMHorizOval*
0 Thick line with rounded ends*
0 $1 width*
0 $2 $3 position (X,Y) of the first rounded end (center of the circle)*
0 $4 $5 position (X,Y) of the second rounded end (center of the circle)*
0 Add line between two ends*
20,1,$1,$2,$3,$4,$5,0*
0 Add two circle primitives to create the rounded ends*
1,1,$1,$2,$3*
1,1,$1,$4,$5*%
%AMOutline4P*
0 Free polygon, 4 corners , with rotation*
0 The origin of the aperture is its center*
0 number of corners: always 4*
0 $1 to $8 corner X, Y*
0 $9 Rotation angle, in degrees counterclockwise*
0 create outline with 4 corners*
4,1,4,$1,$2,$3,$4,$5,$6,$7,$8,$1,$2,$9*%
G04 Aperture macros list end*
G04 #@! TA.AperFunction,ComponentPad*
%ADD10HorizOval,2.400000X-0.305164X0.457575X0.305164X-0.457575X0*%
G04 #@! TD*
G04 #@! TA.AperFunction,ComponentPad*
%ADD11C,2.400000*%
G04 #@! TD*
G04 #@! TA.AperFunction,SMDPad,CuDef*
%ADD12Outline4P,-1.150000X-1.200000X1.150000X-1.200000X1.150000X1.200000X-1.150000X1.200000X0.000000*%
G04 #@! TD*
G04 #@! TA.AperFunction,SMDPad,CuDef*
%ADD13Outline4P,-1.200000X-1.200000X1.200000X-1.200000X1.200000X1.200000X-1.200000X1.200000X0.000000*%
G04 #@! TD*
G04 #@! TA.AperFunction,ComponentPad*
%ADD14RoundRect,0.425000X0.425000X-0.425000X0.425000X0.425000X-0.425000X0.425000X-0.425000X-0.425000X0*%
G04 #@! TD*
G04 #@! TA.AperFunction,ComponentPad*
%ADD15O,1.700000X1.700000*%
G04 #@! TD*
G04 #@! TA.AperFunction,ComponentPad*
%ADD16C,1.700000*%
G04 #@! TD*
G04 #@! TA.AperFunction,ComponentPad*
%ADD17RoundRect,0.425000X-0.425000X-0.425000X0.425000X-0.425000X0.425000X0.425000X-0.425000X0.425000X0*%
G04 #@! TD*
G04 #@! TA.AperFunction,SMDPad,CuDef*
%ADD18RoundRect,0.225000X-0.225000X-0.375000X0.225000X-0.375000X0.225000X0.375000X-0.225000X0.375000X0*%
G04 #@! TD*
G04 #@! TA.AperFunction,ViaPad*
%ADD19C,0.800000*%
G04 #@! TD*
G04 #@! TA.AperFunction,Conductor*
%ADD20C,0.250000*%
G04 #@! TD*
G04 APERTURE END LIST*
D10*
X137410000Y-58680000D03*
D11*
X138300000Y-51890000D03*
X142110000Y-60330000D03*
D12*
X143410000Y-60330000D03*
D11*
X144650000Y-49330000D03*
X144710000Y-60330000D03*
D13*
X145880000Y-49330000D03*
D11*
X147110000Y-49330000D03*
D10*
X118360000Y-58680000D03*
D11*
X119250000Y-51890000D03*
X123060000Y-60330000D03*
D12*
X124360000Y-60330000D03*
D11*
X125600000Y-49330000D03*
X125660000Y-60330000D03*
D13*
X126830000Y-49330000D03*
D11*
X128060000Y-49330000D03*
D14*
X128780000Y-100710000D03*
D15*
X131320000Y-100710000D03*
X133860000Y-100710000D03*
X136400000Y-100710000D03*
X110620000Y-61620000D03*
X110620000Y-64160000D03*
X110620000Y-66700000D03*
X110620000Y-69240000D03*
X110620000Y-71780000D03*
X110620000Y-74320000D03*
X110620000Y-76860000D03*
X110620000Y-79400000D03*
X110620000Y-81940000D03*
D16*
X108080000Y-61620000D03*
D15*
X108080000Y-64160000D03*
X108080000Y-66700000D03*
X108080000Y-69240000D03*
X108080000Y-71780000D03*
X108080000Y-74320000D03*
X108080000Y-76860000D03*
X108080000Y-79400000D03*
X108080000Y-81940000D03*
D16*
X150230000Y-65860000D03*
D15*
X150230000Y-68400000D03*
X150230000Y-70940000D03*
X150230000Y-73480000D03*
D17*
X150230000Y-76020000D03*
X150230000Y-78560000D03*
X150230000Y-81100000D03*
D10*
X118360000Y-96780000D03*
D11*
X119250000Y-89990000D03*
X123060000Y-98430000D03*
D12*
X124360000Y-98430000D03*
D11*
X125600000Y-87430000D03*
X125660000Y-98430000D03*
D13*
X126830000Y-87430000D03*
D11*
X128060000Y-87430000D03*
D10*
X137410000Y-77730000D03*
D11*
X138300000Y-70940000D03*
X142110000Y-79380000D03*
D12*
X143410000Y-79380000D03*
D11*
X144650000Y-68380000D03*
X144710000Y-79380000D03*
D13*
X145880000Y-68380000D03*
D11*
X147110000Y-68380000D03*
D10*
X137410000Y-96780000D03*
D11*
X138300000Y-89990000D03*
X142110000Y-98430000D03*
D12*
X143410000Y-98430000D03*
D11*
X144650000Y-87430000D03*
X144710000Y-98430000D03*
D13*
X145880000Y-87430000D03*
D11*
X147110000Y-87430000D03*
D10*
X118360000Y-77730000D03*
D11*
X119250000Y-70940000D03*
X123060000Y-79380000D03*
D12*
X124360000Y-79380000D03*
D11*
X125600000Y-68380000D03*
X125660000Y-79380000D03*
D13*
X126830000Y-68380000D03*
D11*
X128060000Y-68380000D03*
D18*
X119280000Y-66990000D03*
X122580000Y-66990000D03*
X138330000Y-86040000D03*
X141630000Y-86040000D03*
X119280000Y-86040000D03*
X122580000Y-86040000D03*
X119280000Y-47940000D03*
X122580000Y-47940000D03*
X138330000Y-66990000D03*
X141630000Y-66990000D03*
X138330000Y-47940000D03*
X141630000Y-47940000D03*
D19*
X114862299Y-80597701D03*
X134760000Y-89150000D03*
X115190000Y-63360000D03*
X145020000Y-72050000D03*
D20*
X116280000Y-63653604D02*
X119280000Y-66653604D01*
X131320000Y-88533324D02*
X131320000Y-100710000D01*
X116280000Y-50940000D02*
X116280000Y-63653604D01*
X113900000Y-80660000D02*
X113900000Y-72220000D01*
X113900000Y-72220000D02*
X119130000Y-66990000D01*
X119868604Y-85115000D02*
X127901676Y-85115000D01*
X113900000Y-80660000D02*
X111900000Y-80660000D01*
X119130000Y-85890000D02*
X119130000Y-85853604D01*
X111900000Y-80660000D02*
X110620000Y-81940000D01*
X119130000Y-47940000D02*
X119130000Y-48090000D01*
X119130000Y-85853604D02*
X119868604Y-85115000D01*
X113900000Y-80660000D02*
X119130000Y-85890000D01*
X119130000Y-48090000D02*
X116280000Y-50940000D01*
X127901676Y-85115000D02*
X131320000Y-88533324D01*
X126860000Y-59130000D02*
X126860000Y-50590000D01*
X124210000Y-47940000D02*
X122580000Y-47940000D01*
X125600000Y-49330000D02*
X124210000Y-47940000D01*
X125660000Y-60330000D02*
X126860000Y-59130000D01*
X126860000Y-50590000D02*
X125600000Y-49330000D01*
X143260000Y-47940000D02*
X141630000Y-47940000D01*
X144650000Y-49330000D02*
X145850000Y-50530000D01*
X145850000Y-59190000D02*
X144710000Y-60330000D01*
X143260000Y-47940000D02*
X144650000Y-49330000D01*
X145850000Y-50530000D02*
X145850000Y-59190000D01*
X125600000Y-68380000D02*
X126885000Y-69665000D01*
X125600000Y-68380000D02*
X124210000Y-66990000D01*
X126885000Y-78155000D02*
X125660000Y-79380000D01*
X126885000Y-69665000D02*
X126885000Y-78155000D01*
X124210000Y-66990000D02*
X122580000Y-66990000D01*
X114862299Y-80597701D02*
X118655098Y-84390500D01*
X118655098Y-84390500D02*
X130630500Y-84390500D01*
X138330000Y-47940000D02*
X135335000Y-50935000D01*
X132280000Y-86040000D02*
X138180000Y-86040000D01*
X135335000Y-63995000D02*
X138330000Y-66990000D01*
X133860000Y-100710000D02*
X133860000Y-89024695D01*
X135335000Y-69985000D02*
X135335000Y-83045000D01*
X133860000Y-89024695D02*
X136844695Y-86040000D01*
X130630500Y-84390500D02*
X132280000Y-86040000D01*
X135335000Y-50935000D02*
X135335000Y-63995000D01*
X136844695Y-86040000D02*
X138330000Y-86040000D01*
X135335000Y-83045000D02*
X138330000Y-86040000D01*
X138330000Y-66990000D02*
X135335000Y-69985000D01*
X144650000Y-68380000D02*
X145850000Y-69580000D01*
X143260000Y-66990000D02*
X141630000Y-66990000D01*
X145850000Y-78240000D02*
X144710000Y-79380000D01*
X143260000Y-66990000D02*
X144650000Y-68380000D01*
X145850000Y-69580000D02*
X145850000Y-78240000D01*
X126800000Y-88630000D02*
X126800000Y-97290000D01*
X126800000Y-97290000D02*
X125660000Y-98430000D01*
X125600000Y-87430000D02*
X126800000Y-88630000D01*
X124210000Y-86040000D02*
X125600000Y-87430000D01*
X122580000Y-86040000D02*
X124210000Y-86040000D01*
X145850000Y-97290000D02*
X144710000Y-98430000D01*
X143260000Y-86040000D02*
X141630000Y-86040000D01*
X144650000Y-87430000D02*
X145850000Y-88630000D01*
X143260000Y-86040000D02*
X144650000Y-87430000D01*
X145850000Y-88630000D02*
X145850000Y-97290000D01*
X134760000Y-99070000D02*
X136400000Y-100710000D01*
X145770000Y-84960000D02*
X141120000Y-84960000D01*
X150230000Y-73580000D02*
X148010000Y-75800000D01*
X150230000Y-73480000D02*
X150230000Y-73580000D01*
X134760000Y-89150000D02*
X134760000Y-99070000D01*
X148010000Y-82720000D02*
X145770000Y-84960000D01*
X148010000Y-75800000D02*
X148010000Y-82720000D01*
X138930000Y-87150000D02*
X136760000Y-87150000D01*
X141120000Y-84960000D02*
X138930000Y-87150000D01*
X136760000Y-87150000D02*
X134760000Y-89150000D01*
X115190000Y-63360000D02*
X115190000Y-69750000D01*
X137410000Y-64440000D02*
X137410000Y-58680000D01*
X109370000Y-73030000D02*
X108080000Y-74320000D01*
X145020000Y-72050000D02*
X137410000Y-64440000D01*
X115190000Y-69750000D02*
X111910000Y-73030000D01*
X111910000Y-73030000D02*
X109370000Y-73030000D01*
M02*
