G04 #@! TF.GenerationSoftware,KiCad,Pcbnew,7.0.5*
G04 #@! TF.CreationDate,2023-08-27T01:20:59+08:00*
G04 #@! TF.ProjectId,RM,524d2e6b-6963-4616-945f-706362585858,rev?*
G04 #@! TF.SameCoordinates,Original*
G04 #@! TF.FileFunction,Copper,L2,Bot*
G04 #@! TF.FilePolarity,Positive*
%FSLAX46Y46*%
G04 Gerber Fmt 4.6, Leading zero omitted, Abs format (unit mm)*
G04 Created by KiCad (PCBNEW 7.0.5) date 2023-08-27 01:20:59*
%MOMM*%
%LPD*%
G01*
G04 APERTURE LIST*
G04 Aperture macros list*
%AMRoundRect*
0 Rectangle with rounded corners*
0 $1 Rounding radius*
0 $2 $3 $4 $5 $6 $7 $8 $9 X,Y pos of 4 corners*
0 Add a 4 corners polygon primitive as box body*
4,1,4,$2,$3,$4,$5,$6,$7,$8,$9,$2,$3,0*
0 Add four circle primitives for the rounded corners*
1,1,$1+$1,$2,$3*
1,1,$1+$1,$4,$5*
1,1,$1+$1,$6,$7*
1,1,$1+$1,$8,$9*
0 Add four rect primitives between the rounded corners*
20,1,$1+$1,$2,$3,$4,$5,0*
20,1,$1+$1,$4,$5,$6,$7,0*
20,1,$1+$1,$6,$7,$8,$9,0*
20,1,$1+$1,$8,$9,$2,$3,0*%
%AMHorizOval*
0 Thick line with rounded ends*
0 $1 width*
0 $2 $3 position (X,Y) of the first rounded end (center of the circle)*
0 $4 $5 position (X,Y) of the second rounded end (center of the circle)*
0 Add line between two ends*
20,1,$1,$2,$3,$4,$5,0*
0 Add two circle primitives to create the rounded ends*
1,1,$1,$2,$3*
1,1,$1,$4,$5*%
%AMOutline4P*
0 Free polygon, 4 corners , with rotation*
0 The origin of the aperture is its center*
0 number of corners: always 4*
0 $1 to $8 corner X, Y*
0 $9 Rotation angle, in degrees counterclockwise*
0 create outline with 4 corners*
4,1,4,$1,$2,$3,$4,$5,$6,$7,$8,$1,$2,$9*%
G04 Aperture macros list end*
G04 #@! TA.AperFunction,ComponentPad*
%ADD10HorizOval,2.400000X-0.305164X0.457575X0.305164X-0.457575X0*%
G04 #@! TD*
G04 #@! TA.AperFunction,ComponentPad*
%ADD11C,2.400000*%
G04 #@! TD*
G04 #@! TA.AperFunction,SMDPad,CuDef*
%ADD12Outline4P,-1.150000X-1.200000X1.150000X-1.200000X1.150000X1.200000X-1.150000X1.200000X0.000000*%
G04 #@! TD*
G04 #@! TA.AperFunction,SMDPad,CuDef*
%ADD13Outline4P,-1.200000X-1.200000X1.200000X-1.200000X1.200000X1.200000X-1.200000X1.200000X0.000000*%
G04 #@! TD*
G04 #@! TA.AperFunction,ComponentPad*
%ADD14RoundRect,0.425000X0.425000X-0.425000X0.425000X0.425000X-0.425000X0.425000X-0.425000X-0.425000X0*%
G04 #@! TD*
G04 #@! TA.AperFunction,ComponentPad*
%ADD15O,1.700000X1.700000*%
G04 #@! TD*
G04 #@! TA.AperFunction,ComponentPad*
%ADD16C,1.700000*%
G04 #@! TD*
G04 #@! TA.AperFunction,ComponentPad*
%ADD17RoundRect,0.425000X-0.425000X-0.425000X0.425000X-0.425000X0.425000X0.425000X-0.425000X0.425000X0*%
G04 #@! TD*
G04 #@! TA.AperFunction,ComponentPad*
%ADD18R,1.600000X1.600000*%
G04 #@! TD*
G04 #@! TA.AperFunction,SMDPad,CuDef*
%ADD19RoundRect,0.225000X0.375000X-0.225000X0.375000X0.225000X-0.375000X0.225000X-0.375000X-0.225000X0*%
G04 #@! TD*
G04 #@! TA.AperFunction,ComponentPad*
%ADD20O,1.600000X1.600000*%
G04 #@! TD*
G04 #@! TA.AperFunction,ViaPad*
%ADD21C,0.800000*%
G04 #@! TD*
G04 #@! TA.AperFunction,Conductor*
%ADD22C,0.250000*%
G04 #@! TD*
G04 APERTURE END LIST*
D10*
X137410000Y-58680000D03*
D11*
X138300000Y-51890000D03*
X142110000Y-60330000D03*
D12*
X143410000Y-60330000D03*
D11*
X144650000Y-49330000D03*
X144710000Y-60330000D03*
D13*
X145880000Y-49330000D03*
D11*
X147110000Y-49330000D03*
D10*
X118360000Y-58680000D03*
D11*
X119250000Y-51890000D03*
X123060000Y-60330000D03*
D12*
X124360000Y-60330000D03*
D11*
X125600000Y-49330000D03*
X125660000Y-60330000D03*
D13*
X126830000Y-49330000D03*
D11*
X128060000Y-49330000D03*
D14*
X128780000Y-100710000D03*
D15*
X131320000Y-100710000D03*
X133860000Y-100710000D03*
X136400000Y-100710000D03*
D16*
X150230000Y-65860000D03*
D15*
X150230000Y-68400000D03*
X150230000Y-70940000D03*
X150230000Y-73480000D03*
D17*
X150230000Y-76020000D03*
X150230000Y-78560000D03*
X150230000Y-81100000D03*
D10*
X118360000Y-96780000D03*
D11*
X119250000Y-89990000D03*
X123060000Y-98430000D03*
D12*
X124360000Y-98430000D03*
D11*
X125600000Y-87430000D03*
X125660000Y-98430000D03*
D13*
X126830000Y-87430000D03*
D11*
X128060000Y-87430000D03*
D10*
X137410000Y-77730000D03*
D11*
X138300000Y-70940000D03*
X142110000Y-79380000D03*
D12*
X143410000Y-79380000D03*
D11*
X144650000Y-68380000D03*
X144710000Y-79380000D03*
D13*
X145880000Y-68380000D03*
D11*
X147110000Y-68380000D03*
D10*
X137410000Y-96780000D03*
D11*
X138300000Y-89990000D03*
X142110000Y-98430000D03*
D12*
X143410000Y-98430000D03*
D11*
X144650000Y-87430000D03*
X144710000Y-98430000D03*
D13*
X145880000Y-87430000D03*
D11*
X147110000Y-87430000D03*
D10*
X118360000Y-77730000D03*
D11*
X119250000Y-70940000D03*
X123060000Y-79380000D03*
D12*
X124360000Y-79380000D03*
D11*
X125600000Y-68380000D03*
X125660000Y-79380000D03*
D13*
X126830000Y-68380000D03*
D11*
X128060000Y-68380000D03*
D18*
X131315000Y-77280000D03*
D19*
X131315000Y-75130000D03*
X131315000Y-71830000D03*
D20*
X131315000Y-69680000D03*
D18*
X133855000Y-96330000D03*
D19*
X133855000Y-94180000D03*
X133855000Y-90880000D03*
D20*
X133855000Y-88730000D03*
D16*
X110620000Y-61620000D03*
D15*
X110620000Y-64160000D03*
X110620000Y-66700000D03*
X110620000Y-69240000D03*
X110620000Y-71780000D03*
X110620000Y-74320000D03*
X110620000Y-76860000D03*
X110620000Y-79400000D03*
X110620000Y-81940000D03*
X108080000Y-61620000D03*
X108080000Y-64160000D03*
X108080000Y-66700000D03*
X108080000Y-69240000D03*
X108080000Y-71780000D03*
X108080000Y-74320000D03*
X108080000Y-76860000D03*
X108080000Y-79400000D03*
X108080000Y-81940000D03*
D18*
X131315000Y-96330000D03*
D19*
X131315000Y-94180000D03*
X131315000Y-90880000D03*
D20*
X131315000Y-88730000D03*
D18*
X131315000Y-58230000D03*
D19*
X131315000Y-56080000D03*
X131315000Y-52780000D03*
D20*
X131315000Y-50630000D03*
D18*
X133855000Y-77280000D03*
D19*
X133855000Y-75130000D03*
X133855000Y-71830000D03*
D20*
X133855000Y-69680000D03*
D18*
X133855000Y-58230000D03*
D19*
X133855000Y-56080000D03*
X133855000Y-52780000D03*
D20*
X133855000Y-50630000D03*
D21*
X130190000Y-80544500D03*
X134980000Y-79820000D03*
X146759500Y-77005500D03*
D22*
X130190000Y-59355000D02*
X130190000Y-76155000D01*
X131315000Y-96330000D02*
X131315000Y-100705000D01*
X131315000Y-100705000D02*
X131320000Y-100710000D01*
X130190000Y-80544500D02*
X130190000Y-78405000D01*
X130190000Y-95205000D02*
X131315000Y-96330000D01*
X130190000Y-80544500D02*
X130190000Y-95205000D01*
X131315000Y-58230000D02*
X130190000Y-59355000D01*
X130190000Y-78405000D02*
X131315000Y-77280000D01*
X131315000Y-56080000D02*
X131315000Y-58230000D01*
X130190000Y-76155000D02*
X131315000Y-77280000D01*
X131315000Y-77280000D02*
X131315000Y-75130000D01*
X131315000Y-96330000D02*
X131315000Y-94180000D01*
X131315000Y-50630000D02*
X131315000Y-52780000D01*
X126800000Y-50530000D02*
X126800000Y-59190000D01*
X125600000Y-49330000D02*
X126800000Y-50530000D01*
X126800000Y-59190000D02*
X125660000Y-60330000D01*
X145850000Y-50530000D02*
X145850000Y-59190000D01*
X144650000Y-49330000D02*
X145850000Y-50530000D01*
X133855000Y-50630000D02*
X133855000Y-52780000D01*
X145850000Y-59190000D02*
X144710000Y-60330000D01*
X126860000Y-78180000D02*
X126860000Y-69640000D01*
X131315000Y-71830000D02*
X131315000Y-69680000D01*
X126860000Y-69640000D02*
X125600000Y-68380000D01*
X125660000Y-79380000D02*
X126860000Y-78180000D01*
X133855000Y-77280000D02*
X133855000Y-75130000D01*
X134980000Y-76155000D02*
X134980000Y-59355000D01*
X133860000Y-96335000D02*
X133855000Y-96330000D01*
X134980000Y-78405000D02*
X133855000Y-77280000D01*
X134980000Y-79820000D02*
X134980000Y-95205000D01*
X133855000Y-56080000D02*
X133855000Y-58230000D01*
X134980000Y-95205000D02*
X133855000Y-96330000D01*
X134980000Y-59355000D02*
X133855000Y-58230000D01*
X134980000Y-79820000D02*
X134980000Y-78405000D01*
X133855000Y-77280000D02*
X134980000Y-76155000D01*
X133860000Y-100710000D02*
X133860000Y-96335000D01*
X133855000Y-96330000D02*
X133855000Y-94180000D01*
X144710000Y-79380000D02*
X145910000Y-78180000D01*
X145910000Y-78180000D02*
X145910000Y-69640000D01*
X145910000Y-69640000D02*
X144650000Y-68380000D01*
X133855000Y-69680000D02*
X133855000Y-71830000D01*
X125600000Y-87430000D02*
X126800000Y-88630000D01*
X126800000Y-88630000D02*
X126800000Y-97290000D01*
X131315000Y-88730000D02*
X131315000Y-90880000D01*
X126800000Y-97290000D02*
X125660000Y-98430000D01*
X145850000Y-97290000D02*
X144710000Y-98430000D01*
X145850000Y-88630000D02*
X145850000Y-97290000D01*
X133855000Y-90880000D02*
X133855000Y-88730000D01*
X144650000Y-87430000D02*
X145850000Y-88630000D01*
X146759500Y-77005500D02*
X148950000Y-79196000D01*
X146400000Y-100710000D02*
X136400000Y-100710000D01*
X148950000Y-98160000D02*
X146400000Y-100710000D01*
X148950000Y-79196000D02*
X148950000Y-98160000D01*
X146890000Y-65700000D02*
X139420000Y-65700000D01*
X114040000Y-75590000D02*
X109350000Y-75590000D01*
X115560000Y-74070000D02*
X114040000Y-75590000D01*
X109350000Y-75590000D02*
X108080000Y-74320000D01*
X118360000Y-58680000D02*
X115560000Y-61480000D01*
X150230000Y-76020000D02*
X148960000Y-74750000D01*
X137410000Y-63690000D02*
X137410000Y-58680000D01*
X119250000Y-57790000D02*
X118360000Y-58680000D01*
X115560000Y-61480000D02*
X115560000Y-74070000D01*
X148960000Y-74750000D02*
X148960000Y-67770000D01*
X138300000Y-51890000D02*
X138300000Y-57790000D01*
X139420000Y-65700000D02*
X137410000Y-63690000D01*
X148960000Y-67770000D02*
X146890000Y-65700000D01*
X138300000Y-57790000D02*
X137410000Y-58680000D01*
X119250000Y-51890000D02*
X119250000Y-57790000D01*
X119250000Y-76840000D02*
X118360000Y-77730000D01*
X138300000Y-76840000D02*
X137410000Y-77730000D01*
X138300000Y-70940000D02*
X138300000Y-76840000D01*
X119250000Y-70940000D02*
X119250000Y-76840000D01*
X138300000Y-95890000D02*
X138300000Y-89990000D01*
X116010000Y-94430000D02*
X118360000Y-96780000D01*
X118360000Y-96780000D02*
X119250000Y-95890000D01*
X137410000Y-96780000D02*
X138300000Y-95890000D01*
X108080000Y-79400000D02*
X109360000Y-78120000D01*
X109360000Y-78120000D02*
X114210000Y-78120000D01*
X119250000Y-95890000D02*
X119250000Y-89990000D01*
X114210000Y-78120000D02*
X116010000Y-79920000D01*
X116010000Y-79920000D02*
X116010000Y-94430000D01*
X114160000Y-80670000D02*
X115560000Y-82070000D01*
X117810000Y-100710000D02*
X128780000Y-100710000D01*
X115560000Y-98460000D02*
X117810000Y-100710000D01*
X115560000Y-82070000D02*
X115560000Y-98460000D01*
X109350000Y-80670000D02*
X114160000Y-80670000D01*
X108080000Y-81940000D02*
X109350000Y-80670000D01*
G04 #@! TA.AperFunction,NonConductor*
G36*
X132672681Y-59356558D02*
G01*
X132684264Y-59369927D01*
X132692903Y-59381466D01*
X132697454Y-59387546D01*
X132697455Y-59387547D01*
X132812664Y-59473793D01*
X132812671Y-59473797D01*
X132947517Y-59524091D01*
X132947516Y-59524091D01*
X132954444Y-59524835D01*
X133007127Y-59530500D01*
X134219545Y-59530499D01*
X134286584Y-59550184D01*
X134307222Y-59566814D01*
X134318177Y-59577768D01*
X134351665Y-59639089D01*
X134354500Y-59665453D01*
X134354500Y-62608029D01*
X134334815Y-62675068D01*
X134282011Y-62720823D01*
X134212853Y-62730767D01*
X134149297Y-62701742D01*
X134131233Y-62682340D01*
X134113385Y-62658498D01*
X134100739Y-62641605D01*
X134100734Y-62641600D01*
X134100729Y-62641594D01*
X133898405Y-62439270D01*
X133898387Y-62439254D01*
X133669317Y-62267775D01*
X133669309Y-62267770D01*
X133418166Y-62130635D01*
X133418167Y-62130635D01*
X133310915Y-62090632D01*
X133150046Y-62030631D01*
X133150043Y-62030630D01*
X133150037Y-62030628D01*
X132870433Y-61969804D01*
X132656450Y-61954500D01*
X132656448Y-61954500D01*
X132513552Y-61954500D01*
X132513549Y-61954500D01*
X132299566Y-61969804D01*
X132019962Y-62030628D01*
X131751833Y-62130635D01*
X131500690Y-62267770D01*
X131500682Y-62267775D01*
X131271612Y-62439254D01*
X131271594Y-62439270D01*
X131069270Y-62641594D01*
X131069252Y-62641615D01*
X131038765Y-62682341D01*
X130982831Y-62724212D01*
X130913140Y-62729196D01*
X130851817Y-62695710D01*
X130818333Y-62634387D01*
X130815499Y-62608030D01*
X130815499Y-61143226D01*
X130815499Y-59665448D01*
X130835183Y-59598413D01*
X130851816Y-59577772D01*
X130862775Y-59566813D01*
X130924099Y-59533332D01*
X130950452Y-59530499D01*
X132162871Y-59530499D01*
X132162872Y-59530499D01*
X132222483Y-59524091D01*
X132357331Y-59473796D01*
X132472546Y-59387546D01*
X132485733Y-59369929D01*
X132541666Y-59328058D01*
X132611358Y-59323074D01*
X132672681Y-59356558D01*
G37*
G04 #@! TD.AperFunction*
G04 #@! TA.AperFunction,NonConductor*
G36*
X131020702Y-65208256D02*
G01*
X131038766Y-65227659D01*
X131069254Y-65268387D01*
X131069270Y-65268405D01*
X131271594Y-65470729D01*
X131271612Y-65470745D01*
X131500682Y-65642224D01*
X131500690Y-65642229D01*
X131751833Y-65779364D01*
X131751832Y-65779364D01*
X131751836Y-65779365D01*
X131751839Y-65779367D01*
X132019954Y-65879369D01*
X132019960Y-65879370D01*
X132019962Y-65879371D01*
X132299566Y-65940195D01*
X132299568Y-65940195D01*
X132299572Y-65940196D01*
X132513552Y-65955500D01*
X132656448Y-65955500D01*
X132870428Y-65940196D01*
X133150046Y-65879369D01*
X133418161Y-65779367D01*
X133669315Y-65642226D01*
X133898395Y-65470739D01*
X134100739Y-65268395D01*
X134131234Y-65227659D01*
X134187166Y-65185788D01*
X134256857Y-65180804D01*
X134318181Y-65214288D01*
X134351666Y-65275611D01*
X134354500Y-65301970D01*
X134354500Y-68305863D01*
X134334815Y-68372902D01*
X134282011Y-68418657D01*
X134212853Y-68428601D01*
X134198407Y-68425638D01*
X134081697Y-68394366D01*
X134081693Y-68394365D01*
X134081692Y-68394365D01*
X134081691Y-68394364D01*
X134081686Y-68394364D01*
X133855002Y-68374532D01*
X133854998Y-68374532D01*
X133628313Y-68394364D01*
X133628302Y-68394366D01*
X133408511Y-68453258D01*
X133408502Y-68453261D01*
X133202267Y-68549431D01*
X133202265Y-68549432D01*
X133015858Y-68679954D01*
X132854954Y-68840858D01*
X132724432Y-69027265D01*
X132724431Y-69027267D01*
X132705310Y-69068272D01*
X132700854Y-69077830D01*
X132697382Y-69085275D01*
X132651209Y-69137714D01*
X132584016Y-69156866D01*
X132517135Y-69136650D01*
X132472618Y-69085275D01*
X132445568Y-69027266D01*
X132315047Y-68840861D01*
X132315045Y-68840858D01*
X132154141Y-68679954D01*
X131967734Y-68549432D01*
X131967732Y-68549431D01*
X131761497Y-68453261D01*
X131761488Y-68453258D01*
X131541697Y-68394366D01*
X131541693Y-68394365D01*
X131541692Y-68394365D01*
X131541691Y-68394364D01*
X131541686Y-68394364D01*
X131315002Y-68374532D01*
X131314998Y-68374532D01*
X131088313Y-68394364D01*
X131088302Y-68394366D01*
X130971592Y-68425638D01*
X130901742Y-68423975D01*
X130843880Y-68384812D01*
X130816376Y-68320583D01*
X130815499Y-68305878D01*
X130815499Y-65301968D01*
X130835184Y-65234930D01*
X130887988Y-65189175D01*
X130957146Y-65179231D01*
X131020702Y-65208256D01*
G37*
G04 #@! TD.AperFunction*
G04 #@! TA.AperFunction,NonConductor*
G36*
X132652865Y-70223348D02*
G01*
X132697382Y-70274725D01*
X132724429Y-70332728D01*
X132724432Y-70332734D01*
X132854954Y-70519141D01*
X133015858Y-70680045D01*
X133133878Y-70762683D01*
X133177503Y-70817260D01*
X133184697Y-70886758D01*
X133153174Y-70949113D01*
X133127853Y-70969796D01*
X133026956Y-71032031D01*
X132907032Y-71151955D01*
X132907029Y-71151959D01*
X132818001Y-71296294D01*
X132817996Y-71296305D01*
X132764651Y-71457290D01*
X132754500Y-71556647D01*
X132754500Y-72103337D01*
X132754501Y-72103355D01*
X132764650Y-72202707D01*
X132764651Y-72202710D01*
X132817996Y-72363694D01*
X132818001Y-72363705D01*
X132907029Y-72508040D01*
X132907032Y-72508044D01*
X133026955Y-72627967D01*
X133026959Y-72627970D01*
X133171294Y-72716998D01*
X133171297Y-72716999D01*
X133171303Y-72717003D01*
X133332292Y-72770349D01*
X133431655Y-72780500D01*
X134230500Y-72780499D01*
X134297539Y-72800183D01*
X134343294Y-72852987D01*
X134354500Y-72904499D01*
X134354500Y-74055500D01*
X134334815Y-74122539D01*
X134282011Y-74168294D01*
X134230500Y-74179500D01*
X133431662Y-74179500D01*
X133431644Y-74179501D01*
X133332292Y-74189650D01*
X133332289Y-74189651D01*
X133171305Y-74242996D01*
X133171294Y-74243001D01*
X133026959Y-74332029D01*
X133026955Y-74332032D01*
X132907032Y-74451955D01*
X132907029Y-74451959D01*
X132818001Y-74596294D01*
X132817996Y-74596305D01*
X132764651Y-74757290D01*
X132754500Y-74856647D01*
X132754500Y-75403337D01*
X132754501Y-75403355D01*
X132764650Y-75502707D01*
X132764651Y-75502710D01*
X132817996Y-75663694D01*
X132818001Y-75663705D01*
X132907029Y-75808040D01*
X132907032Y-75808044D01*
X132911141Y-75812153D01*
X132944626Y-75873476D01*
X132939642Y-75943168D01*
X132897770Y-75999101D01*
X132866794Y-76016016D01*
X132812670Y-76036203D01*
X132812664Y-76036206D01*
X132697455Y-76122452D01*
X132684263Y-76140074D01*
X132628328Y-76181943D01*
X132558636Y-76186924D01*
X132497314Y-76153437D01*
X132485736Y-76140074D01*
X132472546Y-76122454D01*
X132472544Y-76122453D01*
X132472544Y-76122452D01*
X132357335Y-76036206D01*
X132357328Y-76036202D01*
X132303206Y-76016016D01*
X132247272Y-75974145D01*
X132222855Y-75908680D01*
X132237707Y-75840407D01*
X132258860Y-75812151D01*
X132262968Y-75808044D01*
X132352003Y-75663697D01*
X132405349Y-75502708D01*
X132415500Y-75403345D01*
X132415499Y-74856656D01*
X132413229Y-74834438D01*
X132405349Y-74757292D01*
X132405348Y-74757289D01*
X132383272Y-74690667D01*
X132352003Y-74596303D01*
X132351999Y-74596297D01*
X132351998Y-74596294D01*
X132262970Y-74451959D01*
X132262967Y-74451955D01*
X132143044Y-74332032D01*
X132143040Y-74332029D01*
X131998705Y-74243001D01*
X131998699Y-74242998D01*
X131998697Y-74242997D01*
X131927712Y-74219475D01*
X131837709Y-74189651D01*
X131738352Y-74179500D01*
X130939499Y-74179500D01*
X130872460Y-74159815D01*
X130826705Y-74107011D01*
X130815499Y-74055500D01*
X130815499Y-73480000D01*
X130815499Y-72904495D01*
X130835184Y-72837460D01*
X130887988Y-72791705D01*
X130939494Y-72780499D01*
X131738344Y-72780499D01*
X131738352Y-72780498D01*
X131738355Y-72780498D01*
X131792760Y-72774940D01*
X131837708Y-72770349D01*
X131998697Y-72717003D01*
X132143044Y-72627968D01*
X132262968Y-72508044D01*
X132352003Y-72363697D01*
X132405349Y-72202708D01*
X132415500Y-72103345D01*
X132415499Y-71556656D01*
X132405349Y-71457292D01*
X132352003Y-71296303D01*
X132351999Y-71296297D01*
X132351998Y-71296294D01*
X132262970Y-71151959D01*
X132262967Y-71151955D01*
X132143043Y-71032031D01*
X132042145Y-70969796D01*
X131995421Y-70917848D01*
X131984200Y-70848885D01*
X132012043Y-70784803D01*
X132036114Y-70762687D01*
X132154139Y-70680047D01*
X132315047Y-70519139D01*
X132445568Y-70332734D01*
X132472618Y-70274724D01*
X132518790Y-70222285D01*
X132585983Y-70203133D01*
X132652865Y-70223348D01*
G37*
G04 #@! TD.AperFunction*
G04 #@! TA.AperFunction,NonConductor*
G36*
X132672681Y-78406558D02*
G01*
X132684264Y-78419927D01*
X132692903Y-78431466D01*
X132697454Y-78437546D01*
X132697455Y-78437547D01*
X132812664Y-78523793D01*
X132812671Y-78523797D01*
X132947517Y-78574091D01*
X132947516Y-78574091D01*
X132954444Y-78574835D01*
X133007127Y-78580500D01*
X134219545Y-78580499D01*
X134286584Y-78600184D01*
X134307222Y-78616814D01*
X134318177Y-78627768D01*
X134351665Y-78689089D01*
X134354500Y-78715453D01*
X134354500Y-79121312D01*
X134334815Y-79188351D01*
X134322650Y-79204284D01*
X134247466Y-79287784D01*
X134152821Y-79451715D01*
X134152818Y-79451722D01*
X134099354Y-79616268D01*
X134094326Y-79631744D01*
X134074540Y-79820000D01*
X134094326Y-80008256D01*
X134094327Y-80008259D01*
X134152818Y-80188277D01*
X134152821Y-80188284D01*
X134247467Y-80352216D01*
X134273818Y-80381481D01*
X134322650Y-80435715D01*
X134352880Y-80498706D01*
X134354500Y-80518687D01*
X134354500Y-81658029D01*
X134334815Y-81725068D01*
X134282011Y-81770823D01*
X134212853Y-81780767D01*
X134149297Y-81751742D01*
X134131233Y-81732340D01*
X134125168Y-81724238D01*
X134100739Y-81691605D01*
X134100734Y-81691600D01*
X134100729Y-81691594D01*
X133898405Y-81489270D01*
X133898387Y-81489254D01*
X133669317Y-81317775D01*
X133669309Y-81317770D01*
X133418166Y-81180635D01*
X133418167Y-81180635D01*
X133310915Y-81140632D01*
X133150046Y-81080631D01*
X133150043Y-81080630D01*
X133150037Y-81080628D01*
X132870433Y-81019804D01*
X132656450Y-81004500D01*
X132656448Y-81004500D01*
X132513552Y-81004500D01*
X132513549Y-81004500D01*
X132299566Y-81019804D01*
X132019962Y-81080628D01*
X131751833Y-81180635D01*
X131500690Y-81317770D01*
X131500682Y-81317775D01*
X131271612Y-81489254D01*
X131271594Y-81489270D01*
X131069270Y-81691594D01*
X131069257Y-81691609D01*
X131038765Y-81732341D01*
X130982830Y-81774212D01*
X130913138Y-81779195D01*
X130851816Y-81745708D01*
X130818332Y-81684385D01*
X130815500Y-81658038D01*
X130815500Y-81243183D01*
X130835184Y-81176148D01*
X130847350Y-81160214D01*
X130922533Y-81076716D01*
X131017179Y-80912784D01*
X131075674Y-80732756D01*
X131095460Y-80544500D01*
X131075674Y-80356244D01*
X131017179Y-80176216D01*
X130922533Y-80012284D01*
X130847348Y-79928783D01*
X130817119Y-79865793D01*
X130815499Y-79845823D01*
X130815499Y-78715450D01*
X130835184Y-78648412D01*
X130851817Y-78627771D01*
X130862774Y-78616814D01*
X130924099Y-78583332D01*
X130950452Y-78580499D01*
X132162871Y-78580499D01*
X132162872Y-78580499D01*
X132222483Y-78574091D01*
X132357331Y-78523796D01*
X132472546Y-78437546D01*
X132485733Y-78419929D01*
X132541666Y-78378058D01*
X132611358Y-78373074D01*
X132672681Y-78406558D01*
G37*
G04 #@! TD.AperFunction*
G04 #@! TA.AperFunction,NonConductor*
G36*
X131020702Y-84258257D02*
G01*
X131038765Y-84277659D01*
X131069252Y-84318384D01*
X131069270Y-84318405D01*
X131271594Y-84520729D01*
X131271612Y-84520745D01*
X131500682Y-84692224D01*
X131500690Y-84692229D01*
X131751833Y-84829364D01*
X131751832Y-84829364D01*
X131751836Y-84829365D01*
X131751839Y-84829367D01*
X132019954Y-84929369D01*
X132019960Y-84929370D01*
X132019962Y-84929371D01*
X132299566Y-84990195D01*
X132299568Y-84990195D01*
X132299572Y-84990196D01*
X132513552Y-85005500D01*
X132656448Y-85005500D01*
X132870428Y-84990196D01*
X133150046Y-84929369D01*
X133418161Y-84829367D01*
X133669315Y-84692226D01*
X133898395Y-84520739D01*
X134100739Y-84318395D01*
X134131234Y-84277659D01*
X134187166Y-84235788D01*
X134256857Y-84230804D01*
X134318181Y-84264288D01*
X134351666Y-84325611D01*
X134354500Y-84351970D01*
X134354500Y-87355863D01*
X134334815Y-87422902D01*
X134282011Y-87468657D01*
X134212853Y-87478601D01*
X134198407Y-87475638D01*
X134081697Y-87444366D01*
X134081693Y-87444365D01*
X134081692Y-87444365D01*
X134081691Y-87444364D01*
X134081686Y-87444364D01*
X133855002Y-87424532D01*
X133854998Y-87424532D01*
X133628313Y-87444364D01*
X133628302Y-87444366D01*
X133408511Y-87503258D01*
X133408502Y-87503261D01*
X133202267Y-87599431D01*
X133202265Y-87599432D01*
X133015858Y-87729954D01*
X132854954Y-87890858D01*
X132724432Y-88077265D01*
X132724431Y-88077267D01*
X132697382Y-88135275D01*
X132651209Y-88187714D01*
X132584016Y-88206866D01*
X132517135Y-88186650D01*
X132472618Y-88135275D01*
X132445568Y-88077267D01*
X132445567Y-88077265D01*
X132315045Y-87890858D01*
X132154141Y-87729954D01*
X131967734Y-87599432D01*
X131967732Y-87599431D01*
X131761497Y-87503261D01*
X131761488Y-87503258D01*
X131541697Y-87444366D01*
X131541693Y-87444365D01*
X131541692Y-87444365D01*
X131541691Y-87444364D01*
X131541686Y-87444364D01*
X131315002Y-87424532D01*
X131314998Y-87424532D01*
X131088313Y-87444364D01*
X131088302Y-87444366D01*
X130971593Y-87475638D01*
X130901743Y-87473975D01*
X130843881Y-87434812D01*
X130816377Y-87370583D01*
X130815500Y-87355863D01*
X130815500Y-85953190D01*
X130815500Y-84351966D01*
X130835184Y-84284931D01*
X130887988Y-84239176D01*
X130957146Y-84229232D01*
X131020702Y-84258257D01*
G37*
G04 #@! TD.AperFunction*
G04 #@! TA.AperFunction,NonConductor*
G36*
X137628508Y-93619196D02*
G01*
X137653491Y-93655339D01*
X137483261Y-93610542D01*
X137495227Y-93604584D01*
X137564013Y-93592323D01*
X137628508Y-93619196D01*
G37*
G04 #@! TD.AperFunction*
G04 #@! TA.AperFunction,NonConductor*
G36*
X132652865Y-89273348D02*
G01*
X132697382Y-89324725D01*
X132724429Y-89382728D01*
X132724432Y-89382734D01*
X132854954Y-89569141D01*
X133015858Y-89730045D01*
X133133878Y-89812683D01*
X133177503Y-89867260D01*
X133184697Y-89936758D01*
X133153174Y-89999113D01*
X133127853Y-90019796D01*
X133026956Y-90082031D01*
X132907032Y-90201955D01*
X132907029Y-90201959D01*
X132818001Y-90346294D01*
X132817996Y-90346305D01*
X132764651Y-90507290D01*
X132754500Y-90606647D01*
X132754500Y-91153337D01*
X132754501Y-91153355D01*
X132764650Y-91252707D01*
X132764651Y-91252710D01*
X132817996Y-91413694D01*
X132818001Y-91413705D01*
X132907029Y-91558040D01*
X132907032Y-91558044D01*
X133026955Y-91677967D01*
X133026959Y-91677970D01*
X133171294Y-91766998D01*
X133171297Y-91766999D01*
X133171303Y-91767003D01*
X133332292Y-91820349D01*
X133431655Y-91830500D01*
X134230500Y-91830499D01*
X134297539Y-91850183D01*
X134343294Y-91902987D01*
X134354500Y-91954499D01*
X134354500Y-93105500D01*
X134334815Y-93172539D01*
X134282011Y-93218294D01*
X134230500Y-93229500D01*
X133431662Y-93229500D01*
X133431644Y-93229501D01*
X133332292Y-93239650D01*
X133332289Y-93239651D01*
X133171305Y-93292996D01*
X133171294Y-93293001D01*
X133026959Y-93382029D01*
X133026955Y-93382032D01*
X132907032Y-93501955D01*
X132907029Y-93501959D01*
X132818001Y-93646294D01*
X132817996Y-93646305D01*
X132764651Y-93807290D01*
X132754500Y-93906647D01*
X132754500Y-94453337D01*
X132754501Y-94453355D01*
X132764650Y-94552707D01*
X132764651Y-94552710D01*
X132817996Y-94713694D01*
X132818001Y-94713705D01*
X132907029Y-94858040D01*
X132907032Y-94858044D01*
X132911141Y-94862153D01*
X132944626Y-94923476D01*
X132939642Y-94993168D01*
X132897770Y-95049101D01*
X132866794Y-95066016D01*
X132812670Y-95086203D01*
X132812664Y-95086206D01*
X132697455Y-95172452D01*
X132684263Y-95190074D01*
X132628328Y-95231943D01*
X132558636Y-95236924D01*
X132497314Y-95203437D01*
X132485736Y-95190074D01*
X132472546Y-95172454D01*
X132472544Y-95172453D01*
X132472544Y-95172452D01*
X132357335Y-95086206D01*
X132357328Y-95086202D01*
X132303206Y-95066016D01*
X132247272Y-95024145D01*
X132222855Y-94958680D01*
X132237707Y-94890407D01*
X132258860Y-94862151D01*
X132262968Y-94858044D01*
X132352003Y-94713697D01*
X132405349Y-94552708D01*
X132415500Y-94453345D01*
X132415499Y-93906656D01*
X132413229Y-93884438D01*
X132405349Y-93807292D01*
X132405348Y-93807289D01*
X132381898Y-93736522D01*
X132352003Y-93646303D01*
X132351999Y-93646297D01*
X132351998Y-93646294D01*
X132262970Y-93501959D01*
X132262967Y-93501955D01*
X132143044Y-93382032D01*
X132143040Y-93382029D01*
X131998705Y-93293001D01*
X131998699Y-93292998D01*
X131998697Y-93292997D01*
X131927712Y-93269475D01*
X131837709Y-93239651D01*
X131738352Y-93229500D01*
X130939499Y-93229500D01*
X130872460Y-93209815D01*
X130826705Y-93157011D01*
X130815499Y-93105500D01*
X130815499Y-92613134D01*
X130815499Y-91954495D01*
X130835184Y-91887460D01*
X130887988Y-91841705D01*
X130939494Y-91830499D01*
X131738344Y-91830499D01*
X131738352Y-91830498D01*
X131738355Y-91830498D01*
X131792760Y-91824940D01*
X131837708Y-91820349D01*
X131998697Y-91767003D01*
X132143044Y-91677968D01*
X132262968Y-91558044D01*
X132352003Y-91413697D01*
X132405349Y-91252708D01*
X132415500Y-91153345D01*
X132415499Y-90606656D01*
X132405349Y-90507292D01*
X132352003Y-90346303D01*
X132351999Y-90346297D01*
X132351998Y-90346294D01*
X132262970Y-90201959D01*
X132262967Y-90201955D01*
X132143043Y-90082031D01*
X132042145Y-90019796D01*
X131995421Y-89967848D01*
X131984200Y-89898885D01*
X132012043Y-89834803D01*
X132036114Y-89812687D01*
X132154139Y-89730047D01*
X132315047Y-89569139D01*
X132445568Y-89382734D01*
X132472618Y-89324724D01*
X132518790Y-89272285D01*
X132585983Y-89253133D01*
X132652865Y-89273348D01*
G37*
G04 #@! TD.AperFunction*
G04 #@! TA.AperFunction,NonConductor*
G36*
X132672681Y-97456558D02*
G01*
X132684267Y-97469930D01*
X132697454Y-97487546D01*
X132697455Y-97487547D01*
X132812664Y-97573793D01*
X132812671Y-97573797D01*
X132857618Y-97590561D01*
X132947517Y-97624091D01*
X133007127Y-97630500D01*
X133110500Y-97630499D01*
X133177538Y-97650183D01*
X133223294Y-97702986D01*
X133234500Y-97754499D01*
X133234500Y-99434773D01*
X133214815Y-99501812D01*
X133181623Y-99536348D01*
X132988597Y-99671505D01*
X132821505Y-99838597D01*
X132691575Y-100024158D01*
X132636998Y-100067783D01*
X132567500Y-100074977D01*
X132505145Y-100043454D01*
X132488425Y-100024158D01*
X132358494Y-99838597D01*
X132191402Y-99671506D01*
X132191395Y-99671501D01*
X131993396Y-99532860D01*
X131994891Y-99530723D01*
X131954216Y-99487962D01*
X131940500Y-99431274D01*
X131940500Y-97754499D01*
X131960185Y-97687460D01*
X132012989Y-97641705D01*
X132064500Y-97630499D01*
X132162871Y-97630499D01*
X132162872Y-97630499D01*
X132222483Y-97624091D01*
X132357331Y-97573796D01*
X132472546Y-97487546D01*
X132485733Y-97469929D01*
X132541666Y-97428058D01*
X132611358Y-97423074D01*
X132672681Y-97456558D01*
G37*
G04 #@! TD.AperFunction*
G04 #@! TA.AperFunction,NonConductor*
G36*
X146654772Y-93569728D02*
G01*
X146824461Y-93654224D01*
X146824465Y-93654225D01*
X146824472Y-93654229D01*
X147038464Y-93715115D01*
X147204497Y-93730500D01*
X147204501Y-93730500D01*
X147615499Y-93730500D01*
X147615503Y-93730500D01*
X147781536Y-93715115D01*
X147995528Y-93654229D01*
X148115883Y-93594299D01*
X148145228Y-93579687D01*
X148214013Y-93567426D01*
X148278508Y-93594299D01*
X148318236Y-93651775D01*
X148324500Y-93690687D01*
X148324500Y-97849547D01*
X148304815Y-97916586D01*
X148288181Y-97937228D01*
X146177228Y-100048181D01*
X146115905Y-100081666D01*
X146089547Y-100084500D01*
X145704001Y-100084500D01*
X145636962Y-100064815D01*
X145591207Y-100012011D01*
X145581263Y-99942853D01*
X145610288Y-99879297D01*
X145634144Y-99858049D01*
X145773217Y-99763232D01*
X145960050Y-99589877D01*
X146118959Y-99390612D01*
X146246393Y-99169888D01*
X146339508Y-98932637D01*
X146396222Y-98684157D01*
X146407130Y-98538591D01*
X146415268Y-98430004D01*
X146415268Y-98429995D01*
X146396519Y-98179804D01*
X146396222Y-98175843D01*
X146339508Y-97927363D01*
X146300656Y-97828371D01*
X146294487Y-97758774D01*
X146318102Y-97707071D01*
X146320113Y-97704477D01*
X146320120Y-97704471D01*
X146324388Y-97698968D01*
X146328155Y-97694557D01*
X146360062Y-97660582D01*
X146369713Y-97643024D01*
X146380396Y-97626761D01*
X146392673Y-97610936D01*
X146411185Y-97568153D01*
X146413738Y-97562941D01*
X146436197Y-97522092D01*
X146441180Y-97502680D01*
X146447481Y-97484280D01*
X146455437Y-97465896D01*
X146462729Y-97419852D01*
X146463906Y-97414171D01*
X146475500Y-97369019D01*
X146475500Y-97348982D01*
X146477027Y-97329582D01*
X146480160Y-97309804D01*
X146475775Y-97263415D01*
X146475500Y-97257577D01*
X146475500Y-93680728D01*
X146495185Y-93613689D01*
X146547989Y-93567934D01*
X146617147Y-93557990D01*
X146654772Y-93569728D01*
G37*
G04 #@! TD.AperFunction*
G04 #@! TA.AperFunction,NonConductor*
G36*
X135810703Y-59354792D02*
G01*
X135832662Y-59379704D01*
X136336590Y-60135314D01*
X136457338Y-60289364D01*
X136457340Y-60289366D01*
X136457341Y-60289367D01*
X136647903Y-60467875D01*
X136730465Y-60524298D01*
X136774706Y-60578373D01*
X136784500Y-60626673D01*
X136784500Y-63607255D01*
X136782775Y-63622872D01*
X136783061Y-63622899D01*
X136782326Y-63630666D01*
X136784469Y-63698846D01*
X136784500Y-63700793D01*
X136784500Y-63729343D01*
X136784501Y-63729360D01*
X136785368Y-63736231D01*
X136785826Y-63742050D01*
X136787290Y-63788624D01*
X136787291Y-63788627D01*
X136792880Y-63807867D01*
X136796824Y-63826911D01*
X136799336Y-63846791D01*
X136816490Y-63890119D01*
X136818382Y-63895647D01*
X136831381Y-63940388D01*
X136841580Y-63957634D01*
X136850138Y-63975103D01*
X136857514Y-63993732D01*
X136884898Y-64031423D01*
X136888106Y-64036307D01*
X136911827Y-64076416D01*
X136911833Y-64076424D01*
X136925990Y-64090580D01*
X136938628Y-64105376D01*
X136950405Y-64121586D01*
X136950406Y-64121587D01*
X136986309Y-64151288D01*
X136990620Y-64155210D01*
X138459995Y-65624586D01*
X138919197Y-66083788D01*
X138929022Y-66096051D01*
X138929243Y-66095869D01*
X138934211Y-66101874D01*
X138983932Y-66148566D01*
X138985332Y-66149923D01*
X139005523Y-66170115D01*
X139005527Y-66170118D01*
X139005529Y-66170120D01*
X139011011Y-66174373D01*
X139015443Y-66178157D01*
X139049418Y-66210062D01*
X139066976Y-66219714D01*
X139083235Y-66230395D01*
X139099064Y-66242673D01*
X139141838Y-66261182D01*
X139147056Y-66263738D01*
X139187908Y-66286197D01*
X139207316Y-66291180D01*
X139225717Y-66297480D01*
X139244104Y-66305437D01*
X139287488Y-66312308D01*
X139290119Y-66312725D01*
X139295839Y-66313909D01*
X139340981Y-66325500D01*
X139361016Y-66325500D01*
X139380414Y-66327026D01*
X139400194Y-66330159D01*
X139400195Y-66330160D01*
X139400195Y-66330159D01*
X139400196Y-66330160D01*
X139446583Y-66325775D01*
X139452422Y-66325500D01*
X146579548Y-66325500D01*
X146646587Y-66345185D01*
X146667229Y-66361819D01*
X146773229Y-66467819D01*
X146806714Y-66529142D01*
X146801730Y-66598834D01*
X146759858Y-66654767D01*
X146694394Y-66679184D01*
X146685548Y-66679500D01*
X144522559Y-66679500D01*
X144365609Y-66703157D01*
X144270542Y-66717487D01*
X144270538Y-66717488D01*
X144270539Y-66717488D01*
X144270533Y-66717489D01*
X144026992Y-66792612D01*
X143797373Y-66903190D01*
X143797372Y-66903191D01*
X143586782Y-67046768D01*
X143399952Y-67220121D01*
X143399950Y-67220123D01*
X143241041Y-67419388D01*
X143113608Y-67640109D01*
X143020492Y-67877362D01*
X143020490Y-67877369D01*
X142963777Y-68125845D01*
X142944732Y-68379995D01*
X142944732Y-68380004D01*
X142963777Y-68634154D01*
X142996229Y-68776337D01*
X143020492Y-68882637D01*
X143113607Y-69119888D01*
X143241041Y-69340612D01*
X143399950Y-69539877D01*
X143586783Y-69713232D01*
X143797366Y-69856805D01*
X143797371Y-69856807D01*
X143797372Y-69856808D01*
X143797373Y-69856809D01*
X143890186Y-69901505D01*
X144026992Y-69967387D01*
X144026993Y-69967387D01*
X144026996Y-69967389D01*
X144270542Y-70042513D01*
X144522565Y-70080500D01*
X144828789Y-70080500D01*
X144828798Y-70080499D01*
X145160500Y-70080499D01*
X145227539Y-70100184D01*
X145273294Y-70152988D01*
X145284500Y-70204499D01*
X145284500Y-77609635D01*
X145264815Y-77676674D01*
X145212011Y-77722429D01*
X145142853Y-77732373D01*
X145123951Y-77728126D01*
X145089470Y-77717490D01*
X145089463Y-77717488D01*
X145089458Y-77717487D01*
X144968231Y-77699214D01*
X144837440Y-77679500D01*
X144837435Y-77679500D01*
X144582565Y-77679500D01*
X144582564Y-77679500D01*
X142237441Y-77679500D01*
X142237435Y-77679500D01*
X141982565Y-77679500D01*
X141982559Y-77679500D01*
X141825609Y-77703157D01*
X141730542Y-77717487D01*
X141730538Y-77717488D01*
X141730539Y-77717488D01*
X141730533Y-77717489D01*
X141486992Y-77792612D01*
X141257373Y-77903190D01*
X141257372Y-77903191D01*
X141257366Y-77903194D01*
X141257366Y-77903195D01*
X141236816Y-77917206D01*
X141046782Y-78046768D01*
X140859952Y-78220121D01*
X140859950Y-78220123D01*
X140701041Y-78419388D01*
X140573608Y-78640109D01*
X140480492Y-78877362D01*
X140480490Y-78877369D01*
X140423777Y-79125845D01*
X140404732Y-79379995D01*
X140404732Y-79380004D01*
X140423777Y-79634154D01*
X140480038Y-79880651D01*
X140480492Y-79882637D01*
X140573607Y-80119888D01*
X140701041Y-80340612D01*
X140859950Y-80539877D01*
X141046783Y-80713232D01*
X141257366Y-80856805D01*
X141257371Y-80856807D01*
X141257372Y-80856808D01*
X141257373Y-80856809D01*
X141373593Y-80912777D01*
X141486992Y-80967387D01*
X141486993Y-80967387D01*
X141486996Y-80967389D01*
X141730542Y-81042513D01*
X141982565Y-81080500D01*
X142288789Y-81080500D01*
X142288798Y-81080499D01*
X144580361Y-81080499D01*
X144580389Y-81080500D01*
X144582565Y-81080500D01*
X144837435Y-81080500D01*
X145089458Y-81042513D01*
X145333004Y-80967389D01*
X145562634Y-80856805D01*
X145773217Y-80713232D01*
X145960050Y-80539877D01*
X146118959Y-80340612D01*
X146246393Y-80119888D01*
X146339508Y-79882637D01*
X146396222Y-79634157D01*
X146407130Y-79488591D01*
X146415268Y-79380004D01*
X146415268Y-79379995D01*
X146400678Y-79185311D01*
X146396222Y-79125843D01*
X146339508Y-78877363D01*
X146301454Y-78780406D01*
X146295286Y-78710811D01*
X146326488Y-78650226D01*
X146358605Y-78616024D01*
X146359877Y-78614712D01*
X146380120Y-78594471D01*
X146384379Y-78588978D01*
X146388152Y-78584561D01*
X146420062Y-78550582D01*
X146429713Y-78533024D01*
X146440396Y-78516761D01*
X146452673Y-78500936D01*
X146471185Y-78458153D01*
X146473738Y-78452941D01*
X146496197Y-78412092D01*
X146501180Y-78392680D01*
X146507481Y-78374280D01*
X146515437Y-78355896D01*
X146522729Y-78309852D01*
X146523906Y-78304171D01*
X146535500Y-78259019D01*
X146535500Y-78238982D01*
X146537027Y-78219582D01*
X146540160Y-78199804D01*
X146535775Y-78153415D01*
X146535500Y-78147577D01*
X146535500Y-78030000D01*
X146555185Y-77962961D01*
X146607989Y-77917206D01*
X146659500Y-77906000D01*
X146664854Y-77906000D01*
X146724048Y-77906000D01*
X146791087Y-77925685D01*
X146811729Y-77942319D01*
X148288181Y-79418771D01*
X148321666Y-79480094D01*
X148324500Y-79506452D01*
X148324500Y-85965291D01*
X148304815Y-86032330D01*
X148252011Y-86078085D01*
X148182853Y-86088029D01*
X148130649Y-86067745D01*
X147962634Y-85953195D01*
X147962626Y-85953190D01*
X147733006Y-85842612D01*
X147733008Y-85842612D01*
X147489466Y-85767489D01*
X147489462Y-85767488D01*
X147489458Y-85767487D01*
X147368231Y-85749214D01*
X147237440Y-85729500D01*
X147237435Y-85729500D01*
X146982565Y-85729500D01*
X146982564Y-85729500D01*
X144777441Y-85729500D01*
X144777435Y-85729500D01*
X144522565Y-85729500D01*
X144522559Y-85729500D01*
X144365609Y-85753157D01*
X144270542Y-85767487D01*
X144270538Y-85767488D01*
X144270539Y-85767488D01*
X144270533Y-85767489D01*
X144026992Y-85842612D01*
X143797373Y-85953190D01*
X143797372Y-85953191D01*
X143586782Y-86096768D01*
X143399952Y-86270121D01*
X143399950Y-86270123D01*
X143241041Y-86469388D01*
X143113608Y-86690109D01*
X143020492Y-86927362D01*
X143020490Y-86927369D01*
X142963777Y-87175845D01*
X142944732Y-87429995D01*
X142944732Y-87430004D01*
X142963777Y-87684154D01*
X142974230Y-87729953D01*
X143020492Y-87932637D01*
X143113607Y-88169888D01*
X143241041Y-88390612D01*
X143399950Y-88589877D01*
X143586783Y-88763232D01*
X143797366Y-88906805D01*
X143797371Y-88906807D01*
X143797372Y-88906808D01*
X143797373Y-88906809D01*
X143919328Y-88965538D01*
X144026992Y-89017387D01*
X144026993Y-89017387D01*
X144026996Y-89017389D01*
X144270542Y-89092513D01*
X144522565Y-89130500D01*
X144828789Y-89130500D01*
X144828798Y-89130499D01*
X145100500Y-89130499D01*
X145167539Y-89150184D01*
X145213294Y-89202988D01*
X145224500Y-89254499D01*
X145224500Y-96643751D01*
X145204815Y-96710790D01*
X145152011Y-96756545D01*
X145082853Y-96766489D01*
X145082140Y-96766384D01*
X144994680Y-96753201D01*
X144837440Y-96729500D01*
X144837435Y-96729500D01*
X144582565Y-96729500D01*
X144582564Y-96729500D01*
X142237441Y-96729500D01*
X142237435Y-96729500D01*
X141982565Y-96729500D01*
X141982559Y-96729500D01*
X141825609Y-96753157D01*
X141730542Y-96767487D01*
X141730538Y-96767488D01*
X141730539Y-96767488D01*
X141730533Y-96767489D01*
X141486992Y-96842612D01*
X141257373Y-96953190D01*
X141257372Y-96953191D01*
X141046782Y-97096768D01*
X140859952Y-97270121D01*
X140859950Y-97270123D01*
X140701041Y-97469388D01*
X140573608Y-97690109D01*
X140480492Y-97927362D01*
X140480490Y-97927369D01*
X140423777Y-98175845D01*
X140404732Y-98429995D01*
X140404732Y-98430004D01*
X140423777Y-98684154D01*
X140477901Y-98921288D01*
X140480492Y-98932637D01*
X140573607Y-99169888D01*
X140701041Y-99390612D01*
X140859950Y-99589877D01*
X141046783Y-99763232D01*
X141185852Y-99858048D01*
X141230153Y-99912075D01*
X141238212Y-99981478D01*
X141207469Y-100044221D01*
X141147685Y-100080383D01*
X141115999Y-100084500D01*
X137675227Y-100084500D01*
X137608188Y-100064815D01*
X137573652Y-100031623D01*
X137438494Y-99838597D01*
X137271402Y-99671506D01*
X137271395Y-99671501D01*
X137077834Y-99535967D01*
X137077830Y-99535965D01*
X137071171Y-99532860D01*
X136863663Y-99436097D01*
X136863659Y-99436096D01*
X136863655Y-99436094D01*
X136635413Y-99374938D01*
X136635403Y-99374936D01*
X136400001Y-99354341D01*
X136399999Y-99354341D01*
X136164596Y-99374936D01*
X136164586Y-99374938D01*
X135936344Y-99436094D01*
X135936337Y-99436096D01*
X135936337Y-99436097D01*
X135922816Y-99442401D01*
X135722171Y-99535964D01*
X135722169Y-99535965D01*
X135528597Y-99671505D01*
X135361505Y-99838597D01*
X135231575Y-100024158D01*
X135176998Y-100067783D01*
X135107500Y-100074977D01*
X135045145Y-100043454D01*
X135028425Y-100024158D01*
X134898494Y-99838597D01*
X134731402Y-99671506D01*
X134731401Y-99671505D01*
X134538376Y-99536347D01*
X134494751Y-99481770D01*
X134485500Y-99434772D01*
X134485500Y-97754499D01*
X134505185Y-97687460D01*
X134557989Y-97641705D01*
X134609500Y-97630499D01*
X134702871Y-97630499D01*
X134702872Y-97630499D01*
X134762483Y-97624091D01*
X134897331Y-97573796D01*
X135012546Y-97487546D01*
X135098796Y-97372331D01*
X135149091Y-97237483D01*
X135155500Y-97177873D01*
X135155499Y-96433260D01*
X135170284Y-96382906D01*
X135159692Y-96365489D01*
X135155499Y-96333517D01*
X135155499Y-95965452D01*
X135175184Y-95898413D01*
X135191813Y-95877776D01*
X135235440Y-95834149D01*
X135296761Y-95800666D01*
X135366453Y-95805650D01*
X135422386Y-95847522D01*
X135446803Y-95912986D01*
X135445158Y-95943795D01*
X135408100Y-96149708D01*
X135403461Y-96336594D01*
X135388591Y-96382946D01*
X135398476Y-96398327D01*
X135402478Y-96417381D01*
X135435062Y-96669698D01*
X135507640Y-96920512D01*
X135507642Y-96920517D01*
X135507643Y-96920519D01*
X135617660Y-97157321D01*
X135617663Y-97157326D01*
X135617665Y-97157329D01*
X136336590Y-98235314D01*
X136457338Y-98389364D01*
X136457340Y-98389366D01*
X136457341Y-98389367D01*
X136647903Y-98567875D01*
X136863480Y-98715201D01*
X137099019Y-98827893D01*
X137349002Y-98903309D01*
X137607566Y-98939682D01*
X137868652Y-98936158D01*
X138126141Y-98892822D01*
X138126147Y-98892819D01*
X138126152Y-98892819D01*
X138224044Y-98860378D01*
X138373996Y-98810687D01*
X138606410Y-98691681D01*
X138817933Y-98538591D01*
X139003608Y-98355007D01*
X139159084Y-98145232D01*
X139280715Y-97914181D01*
X139365651Y-97667271D01*
X139411900Y-97410290D01*
X139418379Y-97149260D01*
X139384938Y-96890301D01*
X139312357Y-96639481D01*
X139202340Y-96402679D01*
X138946338Y-96018819D01*
X138925518Y-95952123D01*
X138925500Y-95950018D01*
X138925500Y-95948983D01*
X138927027Y-95929582D01*
X138930160Y-95909804D01*
X138925775Y-95863415D01*
X138925500Y-95857577D01*
X138925500Y-91654100D01*
X138945185Y-91587061D01*
X138995695Y-91542381D01*
X139152634Y-91466805D01*
X139315351Y-91355866D01*
X139381828Y-91334366D01*
X139449378Y-91352220D01*
X139496553Y-91403760D01*
X139508373Y-91472622D01*
X139502669Y-91498033D01*
X139403785Y-91790521D01*
X139335319Y-92115789D01*
X139335319Y-92115794D01*
X139305805Y-92446853D01*
X139315655Y-92779112D01*
X139364731Y-93107857D01*
X139364732Y-93107862D01*
X139452345Y-93428494D01*
X139452346Y-93428498D01*
X139577264Y-93736511D01*
X139577269Y-93736522D01*
X139737740Y-94027599D01*
X139737740Y-94027600D01*
X139931520Y-94297667D01*
X139931529Y-94297677D01*
X140073944Y-94453352D01*
X140155877Y-94542914D01*
X140407666Y-94759906D01*
X140407671Y-94759909D01*
X140407677Y-94759914D01*
X140568625Y-94868320D01*
X140683353Y-94945595D01*
X140979067Y-95097374D01*
X141290656Y-95213113D01*
X141613747Y-95291187D01*
X141943805Y-95330500D01*
X141943812Y-95330500D01*
X142193025Y-95330500D01*
X142255218Y-95326809D01*
X142441807Y-95315736D01*
X142768956Y-95256939D01*
X143086854Y-95159862D01*
X143391040Y-95025868D01*
X143677243Y-94856837D01*
X143941445Y-94655142D01*
X144179937Y-94423616D01*
X144389373Y-94165506D01*
X144566810Y-93884438D01*
X144709760Y-93584357D01*
X144816215Y-93269475D01*
X144884680Y-92944212D01*
X144914195Y-92613134D01*
X144904345Y-92280890D01*
X144855269Y-91952142D01*
X144767655Y-91631506D01*
X144642733Y-91323483D01*
X144603715Y-91252709D01*
X144591371Y-91230317D01*
X144482258Y-91032397D01*
X144288481Y-90762335D01*
X144288479Y-90762332D01*
X144288470Y-90762322D01*
X144083666Y-90538449D01*
X144064123Y-90517086D01*
X144052852Y-90507373D01*
X143865953Y-90346303D01*
X143812334Y-90300094D01*
X143812330Y-90300091D01*
X143812322Y-90300085D01*
X143536653Y-90114409D01*
X143536652Y-90114408D01*
X143536649Y-90114406D01*
X143536647Y-90114405D01*
X143240933Y-89962626D01*
X143240928Y-89962624D01*
X143240926Y-89962623D01*
X142929348Y-89846888D01*
X142606254Y-89768813D01*
X142606249Y-89768812D01*
X142466687Y-89752189D01*
X142276195Y-89729500D01*
X142026977Y-89729500D01*
X142026975Y-89729500D01*
X141778198Y-89744263D01*
X141778191Y-89744264D01*
X141451043Y-89803061D01*
X141133142Y-89900139D01*
X140828960Y-90034131D01*
X140828955Y-90034134D01*
X140542765Y-90203157D01*
X140542748Y-90203169D01*
X140278553Y-90404859D01*
X140278544Y-90404867D01*
X140156329Y-90523513D01*
X140094517Y-90556086D01*
X140024907Y-90550069D01*
X139969600Y-90507373D01*
X139946155Y-90441554D01*
X139949066Y-90406949D01*
X139973454Y-90300096D01*
X139986222Y-90244157D01*
X140004585Y-89999113D01*
X140005268Y-89990004D01*
X140005268Y-89989995D01*
X139986222Y-89735845D01*
X139984898Y-89730045D01*
X139929508Y-89487363D01*
X139836393Y-89250112D01*
X139708959Y-89029388D01*
X139550050Y-88830123D01*
X139363217Y-88656768D01*
X139152634Y-88513195D01*
X139152630Y-88513193D01*
X139152627Y-88513191D01*
X139152626Y-88513190D01*
X138923006Y-88402612D01*
X138923008Y-88402612D01*
X138679466Y-88327489D01*
X138679462Y-88327488D01*
X138679458Y-88327487D01*
X138558231Y-88309214D01*
X138427440Y-88289500D01*
X138427435Y-88289500D01*
X138172565Y-88289500D01*
X138172559Y-88289500D01*
X138015609Y-88313157D01*
X137920542Y-88327487D01*
X137920538Y-88327488D01*
X137920539Y-88327488D01*
X137920533Y-88327489D01*
X137676992Y-88402612D01*
X137447373Y-88513190D01*
X137447372Y-88513191D01*
X137236782Y-88656768D01*
X137049952Y-88830121D01*
X137049950Y-88830123D01*
X136891041Y-89029388D01*
X136763608Y-89250109D01*
X136670492Y-89487362D01*
X136670490Y-89487369D01*
X136613777Y-89735845D01*
X136594732Y-89989995D01*
X136594732Y-89990004D01*
X136613777Y-90244154D01*
X136658832Y-90441554D01*
X136670492Y-90492637D01*
X136763607Y-90729888D01*
X136891041Y-90950612D01*
X136956265Y-91032400D01*
X137032653Y-91128187D01*
X137059061Y-91192874D01*
X137046306Y-91261569D01*
X136998435Y-91312463D01*
X136935706Y-91329500D01*
X136604497Y-91329500D01*
X136559601Y-91333660D01*
X136438464Y-91344884D01*
X136438462Y-91344885D01*
X136224476Y-91405769D01*
X136224461Y-91405775D01*
X136025316Y-91504938D01*
X136025308Y-91504943D01*
X135847761Y-91639021D01*
X135821136Y-91668227D01*
X135761424Y-91704508D01*
X135691577Y-91702747D01*
X135633770Y-91663502D01*
X135606356Y-91599235D01*
X135605500Y-91584688D01*
X135605500Y-80518687D01*
X135625185Y-80451648D01*
X135637350Y-80435715D01*
X135655891Y-80415122D01*
X135712533Y-80352216D01*
X135807179Y-80188284D01*
X135865674Y-80008256D01*
X135885460Y-79820000D01*
X135865674Y-79631744D01*
X135809452Y-79458713D01*
X135807181Y-79451722D01*
X135807180Y-79451721D01*
X135807179Y-79451716D01*
X135712533Y-79287784D01*
X135700830Y-79274786D01*
X135637350Y-79204284D01*
X135607120Y-79141292D01*
X135605500Y-79121312D01*
X135605500Y-78498505D01*
X135625185Y-78431466D01*
X135677989Y-78385711D01*
X135747147Y-78375767D01*
X135810703Y-78404792D01*
X135832662Y-78429704D01*
X136336590Y-79185314D01*
X136457338Y-79339364D01*
X136457340Y-79339366D01*
X136457341Y-79339367D01*
X136647903Y-79517875D01*
X136863480Y-79665201D01*
X137099019Y-79777893D01*
X137349002Y-79853309D01*
X137607566Y-79889682D01*
X137868652Y-79886158D01*
X138126141Y-79842822D01*
X138126147Y-79842819D01*
X138126152Y-79842819D01*
X138248887Y-79802146D01*
X138373996Y-79760687D01*
X138606410Y-79641681D01*
X138817933Y-79488591D01*
X139003608Y-79305007D01*
X139159084Y-79095232D01*
X139280715Y-78864181D01*
X139365651Y-78617271D01*
X139411900Y-78360290D01*
X139418379Y-78099260D01*
X139384938Y-77840301D01*
X139315484Y-77600288D01*
X139312359Y-77589487D01*
X139312357Y-77589482D01*
X139286489Y-77533803D01*
X139202340Y-77352679D01*
X139117499Y-77225465D01*
X138946338Y-76968819D01*
X138925518Y-76902123D01*
X138925500Y-76900018D01*
X138925500Y-76898983D01*
X138927027Y-76879582D01*
X138930160Y-76859804D01*
X138925775Y-76813415D01*
X138925500Y-76807577D01*
X138925500Y-72604100D01*
X138945185Y-72537061D01*
X138995695Y-72492381D01*
X139152634Y-72416805D01*
X139315351Y-72305866D01*
X139381828Y-72284366D01*
X139449378Y-72302220D01*
X139496553Y-72353760D01*
X139508373Y-72422622D01*
X139502669Y-72448033D01*
X139403785Y-72740521D01*
X139335319Y-73065789D01*
X139335319Y-73065794D01*
X139305805Y-73396853D01*
X139305805Y-73396862D01*
X139305805Y-73396866D01*
X139313078Y-73642171D01*
X139315655Y-73729112D01*
X139327721Y-73809937D01*
X139361703Y-74037577D01*
X139364731Y-74057857D01*
X139364732Y-74057862D01*
X139452345Y-74378494D01*
X139452346Y-74378498D01*
X139577264Y-74686511D01*
X139577269Y-74686522D01*
X139698704Y-74906792D01*
X139737742Y-74977603D01*
X139754091Y-75000388D01*
X139931520Y-75247667D01*
X139931529Y-75247677D01*
X140073944Y-75403352D01*
X140155877Y-75492914D01*
X140407666Y-75709906D01*
X140407671Y-75709909D01*
X140407677Y-75709914D01*
X140568625Y-75818320D01*
X140683353Y-75895595D01*
X140979067Y-76047374D01*
X141290656Y-76163113D01*
X141613747Y-76241187D01*
X141943805Y-76280500D01*
X141943812Y-76280500D01*
X142193025Y-76280500D01*
X142255218Y-76276809D01*
X142441807Y-76265736D01*
X142768956Y-76206939D01*
X143086854Y-76109862D01*
X143391040Y-75975868D01*
X143677243Y-75806837D01*
X143941445Y-75605142D01*
X144179937Y-75373616D01*
X144389373Y-75115506D01*
X144566810Y-74834438D01*
X144709760Y-74534357D01*
X144816215Y-74219475D01*
X144884680Y-73894212D01*
X144914195Y-73563134D01*
X144904345Y-73230890D01*
X144855269Y-72902142D01*
X144767655Y-72581506D01*
X144642733Y-72273483D01*
X144626293Y-72243663D01*
X144591371Y-72180317D01*
X144482258Y-71982397D01*
X144288481Y-71712335D01*
X144288479Y-71712332D01*
X144288470Y-71712322D01*
X144083666Y-71488449D01*
X144064123Y-71467086D01*
X144052852Y-71457373D01*
X143865953Y-71296303D01*
X143812334Y-71250094D01*
X143812330Y-71250091D01*
X143812322Y-71250085D01*
X143536653Y-71064409D01*
X143536652Y-71064408D01*
X143536649Y-71064406D01*
X143536647Y-71064405D01*
X143240933Y-70912626D01*
X143240928Y-70912624D01*
X143240926Y-70912623D01*
X142929348Y-70796888D01*
X142606254Y-70718813D01*
X142606249Y-70718812D01*
X142466687Y-70702189D01*
X142276195Y-70679500D01*
X142026977Y-70679500D01*
X142026975Y-70679500D01*
X141778198Y-70694263D01*
X141778191Y-70694264D01*
X141451043Y-70753061D01*
X141133142Y-70850139D01*
X140828960Y-70984131D01*
X140828955Y-70984134D01*
X140542765Y-71153157D01*
X140542748Y-71153169D01*
X140278553Y-71354859D01*
X140278544Y-71354867D01*
X140156329Y-71473513D01*
X140094517Y-71506086D01*
X140024907Y-71500069D01*
X139969600Y-71457373D01*
X139946155Y-71391554D01*
X139949066Y-71356949D01*
X139973454Y-71250096D01*
X139986222Y-71194157D01*
X140004585Y-70949113D01*
X140005268Y-70940004D01*
X140005268Y-70939995D01*
X139986222Y-70685845D01*
X139984898Y-70680045D01*
X139929508Y-70437363D01*
X139836393Y-70200112D01*
X139708959Y-69979388D01*
X139550050Y-69780123D01*
X139363217Y-69606768D01*
X139152634Y-69463195D01*
X139152630Y-69463193D01*
X139152627Y-69463191D01*
X139152626Y-69463190D01*
X138923006Y-69352612D01*
X138923008Y-69352612D01*
X138679466Y-69277489D01*
X138679462Y-69277488D01*
X138679458Y-69277487D01*
X138558231Y-69259214D01*
X138427440Y-69239500D01*
X138427435Y-69239500D01*
X138172565Y-69239500D01*
X138172559Y-69239500D01*
X138015609Y-69263157D01*
X137920542Y-69277487D01*
X137920538Y-69277488D01*
X137920539Y-69277488D01*
X137920533Y-69277489D01*
X137676992Y-69352612D01*
X137447373Y-69463190D01*
X137447372Y-69463191D01*
X137447366Y-69463194D01*
X137447366Y-69463195D01*
X137422639Y-69480053D01*
X137236782Y-69606768D01*
X137049952Y-69780121D01*
X137049950Y-69780123D01*
X136891041Y-69979388D01*
X136763608Y-70200109D01*
X136670492Y-70437362D01*
X136670490Y-70437369D01*
X136613777Y-70685845D01*
X136594732Y-70939995D01*
X136594732Y-70940004D01*
X136613777Y-71194154D01*
X136658832Y-71391554D01*
X136670492Y-71442637D01*
X136763607Y-71679888D01*
X136891041Y-71900612D01*
X136956265Y-71982400D01*
X137032653Y-72078187D01*
X137059061Y-72142874D01*
X137046306Y-72211569D01*
X136998435Y-72262463D01*
X136935706Y-72279500D01*
X136604497Y-72279500D01*
X136559601Y-72283660D01*
X136438464Y-72294884D01*
X136438462Y-72294885D01*
X136224476Y-72355769D01*
X136224461Y-72355775D01*
X136025316Y-72454938D01*
X136025308Y-72454943D01*
X135847761Y-72589021D01*
X135821136Y-72618227D01*
X135761424Y-72654508D01*
X135691577Y-72652747D01*
X135633770Y-72613502D01*
X135606356Y-72549235D01*
X135605500Y-72534688D01*
X135605500Y-59448505D01*
X135625185Y-59381466D01*
X135677989Y-59335711D01*
X135747147Y-59325767D01*
X135810703Y-59354792D01*
G37*
G04 #@! TD.AperFunction*
G04 #@! TA.AperFunction,NonConductor*
G36*
X129478421Y-93357252D02*
G01*
X129536229Y-93396495D01*
X129563644Y-93460762D01*
X129564500Y-93475311D01*
X129564500Y-95122255D01*
X129562775Y-95137872D01*
X129563061Y-95137899D01*
X129562326Y-95145666D01*
X129564469Y-95213846D01*
X129564500Y-95215793D01*
X129564500Y-95244343D01*
X129564501Y-95244360D01*
X129565368Y-95251231D01*
X129565826Y-95257050D01*
X129567290Y-95303624D01*
X129567291Y-95303627D01*
X129572880Y-95322867D01*
X129576824Y-95341911D01*
X129578848Y-95357925D01*
X129579336Y-95361791D01*
X129596490Y-95405119D01*
X129598382Y-95410647D01*
X129611381Y-95455388D01*
X129621580Y-95472634D01*
X129630138Y-95490103D01*
X129637514Y-95508732D01*
X129664898Y-95546423D01*
X129668106Y-95551307D01*
X129691827Y-95591416D01*
X129691833Y-95591424D01*
X129705990Y-95605580D01*
X129718628Y-95620376D01*
X129730405Y-95636586D01*
X129730406Y-95636587D01*
X129766309Y-95666288D01*
X129770620Y-95670210D01*
X129901076Y-95800666D01*
X129978181Y-95877771D01*
X130011666Y-95939094D01*
X130014500Y-95965452D01*
X130014500Y-97177870D01*
X130014501Y-97177876D01*
X130020908Y-97237483D01*
X130071202Y-97372328D01*
X130071206Y-97372335D01*
X130157452Y-97487544D01*
X130157455Y-97487547D01*
X130272664Y-97573793D01*
X130272671Y-97573797D01*
X130317618Y-97590561D01*
X130407517Y-97624091D01*
X130467127Y-97630500D01*
X130565500Y-97630499D01*
X130632538Y-97650183D01*
X130678294Y-97702986D01*
X130689500Y-97754499D01*
X130689499Y-99438274D01*
X130669814Y-99505314D01*
X130636623Y-99539849D01*
X130448594Y-99671508D01*
X130281507Y-99838595D01*
X130246346Y-99888810D01*
X130191769Y-99932434D01*
X130122270Y-99939626D01*
X130059916Y-99908103D01*
X130034287Y-99873979D01*
X129985467Y-99778162D01*
X129951725Y-99736494D01*
X129863032Y-99626968D01*
X129711840Y-99504535D01*
X129538496Y-99416212D01*
X129350578Y-99365859D01*
X129350577Y-99365858D01*
X129350574Y-99365858D01*
X129269783Y-99359500D01*
X129269778Y-99359500D01*
X128290222Y-99359500D01*
X128290216Y-99359500D01*
X128209425Y-99365858D01*
X128021504Y-99416212D01*
X127848161Y-99504534D01*
X127696968Y-99626968D01*
X127574534Y-99778161D01*
X127543742Y-99838595D01*
X127486212Y-99951504D01*
X127478181Y-99981478D01*
X127475202Y-99992594D01*
X127438837Y-100052254D01*
X127375990Y-100082783D01*
X127355427Y-100084500D01*
X126654001Y-100084500D01*
X126586962Y-100064815D01*
X126541207Y-100012011D01*
X126531263Y-99942853D01*
X126560288Y-99879297D01*
X126584144Y-99858049D01*
X126723217Y-99763232D01*
X126910050Y-99589877D01*
X127068959Y-99390612D01*
X127196393Y-99169888D01*
X127289508Y-98932637D01*
X127346222Y-98684157D01*
X127357130Y-98538591D01*
X127365268Y-98430004D01*
X127365268Y-98429995D01*
X127346519Y-98179804D01*
X127346222Y-98175843D01*
X127289508Y-97927363D01*
X127250656Y-97828371D01*
X127244487Y-97758774D01*
X127268102Y-97707071D01*
X127270113Y-97704477D01*
X127270120Y-97704471D01*
X127274388Y-97698968D01*
X127278155Y-97694557D01*
X127310062Y-97660582D01*
X127319713Y-97643024D01*
X127330396Y-97626761D01*
X127342673Y-97610936D01*
X127361185Y-97568153D01*
X127363738Y-97562941D01*
X127386197Y-97522092D01*
X127391180Y-97502680D01*
X127397481Y-97484280D01*
X127405437Y-97465896D01*
X127412729Y-97419852D01*
X127413906Y-97414171D01*
X127425500Y-97369019D01*
X127425500Y-97348982D01*
X127427027Y-97329582D01*
X127430160Y-97309804D01*
X127425775Y-97263415D01*
X127425500Y-97257577D01*
X127425500Y-95472634D01*
X127425499Y-93680724D01*
X127445184Y-93613689D01*
X127497988Y-93567934D01*
X127567146Y-93557990D01*
X127604771Y-93569728D01*
X127774461Y-93654224D01*
X127774465Y-93654225D01*
X127774472Y-93654229D01*
X127988464Y-93715115D01*
X128154497Y-93730500D01*
X128154501Y-93730500D01*
X128565499Y-93730500D01*
X128565503Y-93730500D01*
X128731536Y-93715115D01*
X128945528Y-93654229D01*
X129144689Y-93555058D01*
X129322236Y-93420981D01*
X129348862Y-93391773D01*
X129408574Y-93355491D01*
X129478421Y-93357252D01*
G37*
G04 #@! TD.AperFunction*
G04 #@! TA.AperFunction,NonConductor*
G36*
X151038456Y-44905889D02*
G01*
X151061354Y-44908469D01*
X151140831Y-44918932D01*
X151165597Y-44924829D01*
X151199735Y-44936775D01*
X151202984Y-44938015D01*
X151257195Y-44960469D01*
X151275695Y-44970027D01*
X151310520Y-44991909D01*
X151315267Y-44995212D01*
X151363200Y-45031993D01*
X151369295Y-45037337D01*
X151402660Y-45070702D01*
X151408005Y-45076798D01*
X151444786Y-45124731D01*
X151448097Y-45129490D01*
X151469967Y-45164296D01*
X151479536Y-45182818D01*
X151501983Y-45237014D01*
X151503223Y-45240263D01*
X151515169Y-45274401D01*
X151521066Y-45299169D01*
X151531528Y-45378632D01*
X151533643Y-45397397D01*
X151534109Y-45401534D01*
X151534110Y-45401537D01*
X151534500Y-45408486D01*
X151534500Y-64975215D01*
X151514815Y-65042254D01*
X151462011Y-65088009D01*
X151392853Y-65097953D01*
X151329297Y-65068928D01*
X151308925Y-65046339D01*
X151268491Y-64988594D01*
X151101402Y-64821506D01*
X151101395Y-64821501D01*
X150907834Y-64685967D01*
X150907830Y-64685965D01*
X150774223Y-64623663D01*
X150693663Y-64586097D01*
X150693659Y-64586096D01*
X150693655Y-64586094D01*
X150465413Y-64524938D01*
X150465403Y-64524936D01*
X150230001Y-64504341D01*
X150229999Y-64504341D01*
X149994596Y-64524936D01*
X149994586Y-64524938D01*
X149766344Y-64586094D01*
X149766335Y-64586098D01*
X149552171Y-64685964D01*
X149552169Y-64685965D01*
X149358597Y-64821505D01*
X149191505Y-64988597D01*
X149055965Y-65182169D01*
X149055964Y-65182171D01*
X148956098Y-65396335D01*
X148956094Y-65396344D01*
X148894938Y-65624586D01*
X148894936Y-65624596D01*
X148874341Y-65859999D01*
X148874341Y-65860000D01*
X148894936Y-66095403D01*
X148894938Y-66095413D01*
X148956094Y-66323655D01*
X148956096Y-66323659D01*
X148956097Y-66323663D01*
X149023318Y-66467819D01*
X149055965Y-66537830D01*
X149055967Y-66537834D01*
X149191501Y-66731395D01*
X149191506Y-66731402D01*
X149358597Y-66898493D01*
X149358603Y-66898498D01*
X149544158Y-67028425D01*
X149587783Y-67083002D01*
X149594977Y-67152500D01*
X149563454Y-67214855D01*
X149544159Y-67231574D01*
X149489409Y-67269910D01*
X149423204Y-67292237D01*
X149355437Y-67275227D01*
X149330606Y-67256016D01*
X148380027Y-66305437D01*
X147390803Y-65316212D01*
X147380980Y-65303950D01*
X147380759Y-65304134D01*
X147375786Y-65298122D01*
X147326066Y-65251432D01*
X147324666Y-65250075D01*
X147304476Y-65229884D01*
X147298986Y-65225625D01*
X147294561Y-65221847D01*
X147260582Y-65189938D01*
X147260580Y-65189936D01*
X147260577Y-65189935D01*
X147243029Y-65180288D01*
X147226763Y-65169604D01*
X147210933Y-65157325D01*
X147168168Y-65138818D01*
X147162922Y-65136248D01*
X147122093Y-65113803D01*
X147122092Y-65113802D01*
X147102693Y-65108822D01*
X147084281Y-65102518D01*
X147065898Y-65094562D01*
X147065892Y-65094560D01*
X147019874Y-65087272D01*
X147014152Y-65086087D01*
X146969021Y-65074500D01*
X146969019Y-65074500D01*
X146948984Y-65074500D01*
X146929586Y-65072973D01*
X146922162Y-65071797D01*
X146909805Y-65069840D01*
X146909804Y-65069840D01*
X146863416Y-65074225D01*
X146857578Y-65074500D01*
X139730453Y-65074500D01*
X139663414Y-65054815D01*
X139642772Y-65038181D01*
X138071819Y-63467227D01*
X138038334Y-63405904D01*
X138035500Y-63379546D01*
X138035500Y-60912304D01*
X138055185Y-60845265D01*
X138107989Y-60799510D01*
X138121758Y-60794707D01*
X138121629Y-60794318D01*
X138234421Y-60756939D01*
X138373996Y-60710687D01*
X138606410Y-60591681D01*
X138817933Y-60438591D01*
X138927757Y-60330004D01*
X140404732Y-60330004D01*
X140423777Y-60584154D01*
X140471834Y-60794707D01*
X140480492Y-60832637D01*
X140573607Y-61069888D01*
X140701041Y-61290612D01*
X140859950Y-61489877D01*
X141046783Y-61663232D01*
X141257366Y-61806805D01*
X141257371Y-61806807D01*
X141257372Y-61806808D01*
X141257373Y-61806809D01*
X141379328Y-61865538D01*
X141486992Y-61917387D01*
X141486993Y-61917387D01*
X141486996Y-61917389D01*
X141730542Y-61992513D01*
X141982565Y-62030500D01*
X142288789Y-62030500D01*
X142288798Y-62030499D01*
X144580361Y-62030499D01*
X144580389Y-62030500D01*
X144582565Y-62030500D01*
X144837435Y-62030500D01*
X145089458Y-61992513D01*
X145333004Y-61917389D01*
X145562634Y-61806805D01*
X145773217Y-61663232D01*
X145960050Y-61489877D01*
X146118959Y-61290612D01*
X146246393Y-61069888D01*
X146339508Y-60832637D01*
X146396222Y-60584157D01*
X146407130Y-60438591D01*
X146415268Y-60330004D01*
X146415268Y-60329995D01*
X146396222Y-60075845D01*
X146339509Y-59827369D01*
X146339508Y-59827363D01*
X146300656Y-59728371D01*
X146294487Y-59658774D01*
X146318102Y-59607071D01*
X146320113Y-59604477D01*
X146320120Y-59604471D01*
X146324388Y-59598968D01*
X146328155Y-59594557D01*
X146360062Y-59560582D01*
X146369713Y-59543024D01*
X146380396Y-59526761D01*
X146392673Y-59510936D01*
X146411185Y-59468153D01*
X146413738Y-59462941D01*
X146436197Y-59422092D01*
X146441180Y-59402680D01*
X146447481Y-59384280D01*
X146455437Y-59365896D01*
X146462729Y-59319852D01*
X146463906Y-59314171D01*
X146475500Y-59269019D01*
X146475500Y-59248982D01*
X146477027Y-59229582D01*
X146477315Y-59227766D01*
X146480160Y-59209804D01*
X146475775Y-59163415D01*
X146475500Y-59157577D01*
X146475500Y-55580728D01*
X146495185Y-55513689D01*
X146547989Y-55467934D01*
X146617147Y-55457990D01*
X146654772Y-55469728D01*
X146824461Y-55554224D01*
X146824465Y-55554225D01*
X146824472Y-55554229D01*
X147038464Y-55615115D01*
X147204497Y-55630500D01*
X147204501Y-55630500D01*
X147615499Y-55630500D01*
X147615503Y-55630500D01*
X147781536Y-55615115D01*
X147995528Y-55554229D01*
X148194689Y-55455058D01*
X148372236Y-55320981D01*
X148522124Y-55156562D01*
X148639247Y-54967401D01*
X148719618Y-54759940D01*
X148760500Y-54541243D01*
X148760500Y-54318757D01*
X148719618Y-54100060D01*
X148639247Y-53892599D01*
X148614197Y-53852142D01*
X148522125Y-53703439D01*
X148522123Y-53703437D01*
X148372238Y-53539020D01*
X148194691Y-53404943D01*
X148194683Y-53404938D01*
X147995538Y-53305775D01*
X147995523Y-53305769D01*
X147781537Y-53244885D01*
X147781535Y-53244884D01*
X147663653Y-53233961D01*
X147615503Y-53229500D01*
X147204497Y-53229500D01*
X147159601Y-53233660D01*
X147038464Y-53244884D01*
X147038462Y-53244885D01*
X146824476Y-53305769D01*
X146824461Y-53305775D01*
X146654772Y-53390272D01*
X146585987Y-53402533D01*
X146521492Y-53375660D01*
X146481764Y-53318185D01*
X146475500Y-53279272D01*
X146475500Y-51154499D01*
X146495185Y-51087460D01*
X146547989Y-51041705D01*
X146599500Y-51030499D01*
X146980361Y-51030499D01*
X146980389Y-51030500D01*
X146982565Y-51030500D01*
X147237435Y-51030500D01*
X147489458Y-50992513D01*
X147733004Y-50917389D01*
X147962634Y-50806805D01*
X148173217Y-50663232D01*
X148360050Y-50489877D01*
X148518959Y-50290612D01*
X148646393Y-50069888D01*
X148739508Y-49832637D01*
X148796222Y-49584157D01*
X148809778Y-49403258D01*
X148815268Y-49330004D01*
X148815268Y-49329995D01*
X148796222Y-49075845D01*
X148739509Y-48827369D01*
X148739508Y-48827363D01*
X148646393Y-48590112D01*
X148518959Y-48369388D01*
X148360050Y-48170123D01*
X148173217Y-47996768D01*
X147962634Y-47853195D01*
X147962630Y-47853193D01*
X147962627Y-47853191D01*
X147962626Y-47853190D01*
X147733006Y-47742612D01*
X147733008Y-47742612D01*
X147489466Y-47667489D01*
X147489462Y-47667488D01*
X147489458Y-47667487D01*
X147368231Y-47649214D01*
X147237440Y-47629500D01*
X147237435Y-47629500D01*
X146982565Y-47629500D01*
X146982564Y-47629500D01*
X144777441Y-47629500D01*
X144777435Y-47629500D01*
X144522565Y-47629500D01*
X144522559Y-47629500D01*
X144365609Y-47653157D01*
X144270542Y-47667487D01*
X144270538Y-47667488D01*
X144270539Y-47667488D01*
X144270533Y-47667489D01*
X144026992Y-47742612D01*
X143797373Y-47853190D01*
X143797372Y-47853191D01*
X143586782Y-47996768D01*
X143399952Y-48170121D01*
X143399950Y-48170123D01*
X143241041Y-48369388D01*
X143113608Y-48590109D01*
X143020492Y-48827362D01*
X143020490Y-48827369D01*
X142963777Y-49075845D01*
X142944732Y-49329995D01*
X142944732Y-49330004D01*
X142963777Y-49584154D01*
X142974230Y-49629953D01*
X143020492Y-49832637D01*
X143113607Y-50069888D01*
X143241041Y-50290612D01*
X143399950Y-50489877D01*
X143586783Y-50663232D01*
X143797366Y-50806805D01*
X143797371Y-50806807D01*
X143797372Y-50806808D01*
X143797373Y-50806809D01*
X143900945Y-50856686D01*
X144026992Y-50917387D01*
X144026993Y-50917387D01*
X144026996Y-50917389D01*
X144270542Y-50992513D01*
X144522565Y-51030500D01*
X144828789Y-51030500D01*
X144828798Y-51030499D01*
X145100500Y-51030499D01*
X145167539Y-51050184D01*
X145213294Y-51102988D01*
X145224500Y-51154499D01*
X145224500Y-58543751D01*
X145204815Y-58610790D01*
X145152011Y-58656545D01*
X145082853Y-58666489D01*
X145082140Y-58666384D01*
X144994680Y-58653201D01*
X144837440Y-58629500D01*
X144837435Y-58629500D01*
X144582565Y-58629500D01*
X144582564Y-58629500D01*
X142237441Y-58629500D01*
X142237435Y-58629500D01*
X141982565Y-58629500D01*
X141982559Y-58629500D01*
X141825609Y-58653157D01*
X141730542Y-58667487D01*
X141730538Y-58667488D01*
X141730539Y-58667488D01*
X141730533Y-58667489D01*
X141486992Y-58742612D01*
X141257373Y-58853190D01*
X141257372Y-58853191D01*
X141257366Y-58853194D01*
X141257366Y-58853195D01*
X141233870Y-58869214D01*
X141046782Y-58996768D01*
X140859952Y-59170121D01*
X140859950Y-59170123D01*
X140701041Y-59369388D01*
X140573608Y-59590109D01*
X140480492Y-59827362D01*
X140480490Y-59827369D01*
X140423777Y-60075845D01*
X140404732Y-60329995D01*
X140404732Y-60330004D01*
X138927757Y-60330004D01*
X139003608Y-60255007D01*
X139159084Y-60045232D01*
X139280715Y-59814181D01*
X139365651Y-59567271D01*
X139411900Y-59310290D01*
X139418379Y-59049260D01*
X139384938Y-58790301D01*
X139312357Y-58539481D01*
X139202340Y-58302679D01*
X139033632Y-58049711D01*
X138946338Y-57918819D01*
X138925518Y-57852123D01*
X138925500Y-57850018D01*
X138925500Y-57848983D01*
X138927027Y-57829582D01*
X138930160Y-57809804D01*
X138925775Y-57763415D01*
X138925500Y-57757577D01*
X138925500Y-53554100D01*
X138945185Y-53487061D01*
X138995695Y-53442381D01*
X139152634Y-53366805D01*
X139315351Y-53255866D01*
X139381828Y-53234366D01*
X139449378Y-53252220D01*
X139496553Y-53303760D01*
X139508373Y-53372622D01*
X139502669Y-53398033D01*
X139403785Y-53690521D01*
X139335319Y-54015789D01*
X139335319Y-54015794D01*
X139305805Y-54346853D01*
X139315655Y-54679112D01*
X139364731Y-55007857D01*
X139364732Y-55007862D01*
X139452345Y-55328494D01*
X139452346Y-55328498D01*
X139577264Y-55636511D01*
X139577269Y-55636522D01*
X139737740Y-55927599D01*
X139737740Y-55927600D01*
X139931520Y-56197667D01*
X139931529Y-56197677D01*
X140073944Y-56353352D01*
X140155877Y-56442914D01*
X140407666Y-56659906D01*
X140407671Y-56659909D01*
X140407677Y-56659914D01*
X140568625Y-56768320D01*
X140683353Y-56845595D01*
X140979067Y-56997374D01*
X141290656Y-57113113D01*
X141613747Y-57191187D01*
X141943805Y-57230500D01*
X141943812Y-57230500D01*
X142193025Y-57230500D01*
X142255218Y-57226809D01*
X142441807Y-57215736D01*
X142768956Y-57156939D01*
X143086854Y-57059862D01*
X143391040Y-56925868D01*
X143677243Y-56756837D01*
X143941445Y-56555142D01*
X144179937Y-56323616D01*
X144389373Y-56065506D01*
X144566810Y-55784438D01*
X144709760Y-55484357D01*
X144816215Y-55169475D01*
X144884680Y-54844212D01*
X144914195Y-54513134D01*
X144904345Y-54180890D01*
X144855269Y-53852142D01*
X144767655Y-53531506D01*
X144642733Y-53223483D01*
X144603715Y-53152709D01*
X144591371Y-53130317D01*
X144482258Y-52932397D01*
X144288481Y-52662335D01*
X144288479Y-52662332D01*
X144288470Y-52662322D01*
X144083666Y-52438449D01*
X144064123Y-52417086D01*
X144052852Y-52407373D01*
X143865953Y-52246303D01*
X143812334Y-52200094D01*
X143812330Y-52200091D01*
X143812322Y-52200085D01*
X143536653Y-52014409D01*
X143536652Y-52014408D01*
X143536649Y-52014406D01*
X143536647Y-52014405D01*
X143240933Y-51862626D01*
X143240928Y-51862624D01*
X143240926Y-51862623D01*
X142929348Y-51746888D01*
X142606254Y-51668813D01*
X142606249Y-51668812D01*
X142466687Y-51652189D01*
X142276195Y-51629500D01*
X142026977Y-51629500D01*
X142026975Y-51629500D01*
X141778198Y-51644263D01*
X141778191Y-51644264D01*
X141451043Y-51703061D01*
X141133142Y-51800139D01*
X140828960Y-51934131D01*
X140828955Y-51934134D01*
X140542765Y-52103157D01*
X140542748Y-52103169D01*
X140278553Y-52304859D01*
X140278544Y-52304867D01*
X140156329Y-52423513D01*
X140094517Y-52456086D01*
X140024907Y-52450069D01*
X139969600Y-52407373D01*
X139946155Y-52341554D01*
X139949066Y-52306949D01*
X139973454Y-52200096D01*
X139986222Y-52144157D01*
X140004585Y-51899113D01*
X140005268Y-51890004D01*
X140005268Y-51889995D01*
X139986222Y-51635845D01*
X139984898Y-51630045D01*
X139929508Y-51387363D01*
X139836393Y-51150112D01*
X139708959Y-50929388D01*
X139550050Y-50730123D01*
X139363217Y-50556768D01*
X139152634Y-50413195D01*
X139152630Y-50413193D01*
X139152627Y-50413191D01*
X139152626Y-50413190D01*
X138923006Y-50302612D01*
X138923008Y-50302612D01*
X138679466Y-50227489D01*
X138679462Y-50227488D01*
X138679458Y-50227487D01*
X138558231Y-50209214D01*
X138427440Y-50189500D01*
X138427435Y-50189500D01*
X138172565Y-50189500D01*
X138172559Y-50189500D01*
X138015609Y-50213157D01*
X137920542Y-50227487D01*
X137920538Y-50227488D01*
X137920539Y-50227488D01*
X137920533Y-50227489D01*
X137676992Y-50302612D01*
X137447373Y-50413190D01*
X137447372Y-50413191D01*
X137236782Y-50556768D01*
X137049952Y-50730121D01*
X137049950Y-50730123D01*
X136891041Y-50929388D01*
X136763608Y-51150109D01*
X136670492Y-51387362D01*
X136670490Y-51387369D01*
X136613777Y-51635845D01*
X136594732Y-51889995D01*
X136594732Y-51890004D01*
X136613777Y-52144154D01*
X136658832Y-52341554D01*
X136670492Y-52392637D01*
X136763607Y-52629888D01*
X136891041Y-52850612D01*
X136956265Y-52932400D01*
X137032653Y-53028187D01*
X137059061Y-53092874D01*
X137046306Y-53161569D01*
X136998435Y-53212463D01*
X136935706Y-53229500D01*
X136604497Y-53229500D01*
X136559601Y-53233660D01*
X136438464Y-53244884D01*
X136438462Y-53244885D01*
X136224476Y-53305769D01*
X136224461Y-53305775D01*
X136025316Y-53404938D01*
X136025308Y-53404943D01*
X135847761Y-53539020D01*
X135697876Y-53703437D01*
X135697874Y-53703439D01*
X135580754Y-53892595D01*
X135580753Y-53892599D01*
X135500382Y-54100060D01*
X135459500Y-54318757D01*
X135459500Y-54541243D01*
X135500382Y-54759940D01*
X135580752Y-54967398D01*
X135580754Y-54967404D01*
X135697874Y-55156560D01*
X135697876Y-55156562D01*
X135847761Y-55320979D01*
X136025308Y-55455056D01*
X136025316Y-55455061D01*
X136224461Y-55554224D01*
X136224465Y-55554225D01*
X136224472Y-55554229D01*
X136438464Y-55615115D01*
X136604497Y-55630500D01*
X136604501Y-55630500D01*
X137015499Y-55630500D01*
X137015503Y-55630500D01*
X137181536Y-55615115D01*
X137395528Y-55554229D01*
X137495227Y-55504584D01*
X137564013Y-55492323D01*
X137628508Y-55519196D01*
X137668236Y-55576671D01*
X137674500Y-55615584D01*
X137674500Y-56451155D01*
X137654815Y-56518194D01*
X137602011Y-56563949D01*
X137532853Y-56573893D01*
X137514687Y-56569871D01*
X137470995Y-56556690D01*
X137263043Y-56527438D01*
X137212434Y-56520319D01*
X137212433Y-56520319D01*
X136951347Y-56523841D01*
X136693858Y-56567178D01*
X136693847Y-56567180D01*
X136446009Y-56649311D01*
X136446002Y-56649314D01*
X136213591Y-56768319D01*
X136002075Y-56921403D01*
X136002067Y-56921409D01*
X135816392Y-57104992D01*
X135660916Y-57314766D01*
X135539287Y-57545814D01*
X135539282Y-57545826D01*
X135454349Y-57792728D01*
X135408100Y-58049709D01*
X135403461Y-58236607D01*
X135388595Y-58282948D01*
X135398476Y-58298324D01*
X135402478Y-58317378D01*
X135435062Y-58569700D01*
X135445987Y-58607454D01*
X135445713Y-58677323D01*
X135407708Y-58735952D01*
X135344039Y-58764727D01*
X135274920Y-58754512D01*
X135239193Y-58729602D01*
X135191818Y-58682227D01*
X135158333Y-58620904D01*
X135155499Y-58594546D01*
X135155499Y-58333259D01*
X135170281Y-58282915D01*
X135159692Y-58265502D01*
X135155499Y-58233530D01*
X135155499Y-57382129D01*
X135155498Y-57382123D01*
X135155497Y-57382116D01*
X135149091Y-57322517D01*
X135109264Y-57215736D01*
X135098797Y-57187671D01*
X135098793Y-57187664D01*
X135012547Y-57072455D01*
X135012544Y-57072452D01*
X134897335Y-56986206D01*
X134897328Y-56986202D01*
X134843206Y-56966016D01*
X134787272Y-56924145D01*
X134762855Y-56858680D01*
X134777707Y-56790407D01*
X134798860Y-56762151D01*
X134802968Y-56758044D01*
X134892003Y-56613697D01*
X134945349Y-56452708D01*
X134955500Y-56353345D01*
X134955499Y-55806656D01*
X134953229Y-55784438D01*
X134945349Y-55707292D01*
X134945348Y-55707289D01*
X134921898Y-55636522D01*
X134892003Y-55546303D01*
X134891999Y-55546297D01*
X134891998Y-55546294D01*
X134802970Y-55401959D01*
X134802967Y-55401955D01*
X134683044Y-55282032D01*
X134683040Y-55282029D01*
X134538705Y-55193001D01*
X134538699Y-55192998D01*
X134538697Y-55192997D01*
X134467712Y-55169475D01*
X134377709Y-55139651D01*
X134278346Y-55129500D01*
X133431662Y-55129500D01*
X133431644Y-55129501D01*
X133332292Y-55139650D01*
X133332289Y-55139651D01*
X133171305Y-55192996D01*
X133171294Y-55193001D01*
X133026959Y-55282029D01*
X133026955Y-55282032D01*
X132907032Y-55401955D01*
X132907029Y-55401959D01*
X132818001Y-55546294D01*
X132817996Y-55546305D01*
X132764651Y-55707290D01*
X132754500Y-55806647D01*
X132754500Y-56353337D01*
X132754501Y-56353355D01*
X132764650Y-56452707D01*
X132764651Y-56452710D01*
X132817996Y-56613694D01*
X132818001Y-56613705D01*
X132907029Y-56758040D01*
X132907032Y-56758044D01*
X132911141Y-56762153D01*
X132944626Y-56823476D01*
X132939642Y-56893168D01*
X132897770Y-56949101D01*
X132866794Y-56966016D01*
X132812670Y-56986203D01*
X132812664Y-56986206D01*
X132697455Y-57072452D01*
X132684266Y-57090071D01*
X132628332Y-57131941D01*
X132558640Y-57136925D01*
X132497317Y-57103439D01*
X132485734Y-57090071D01*
X132472546Y-57072454D01*
X132472544Y-57072453D01*
X132472544Y-57072452D01*
X132357335Y-56986206D01*
X132357328Y-56986202D01*
X132303206Y-56966016D01*
X132247272Y-56924145D01*
X132222855Y-56858680D01*
X132237707Y-56790407D01*
X132258860Y-56762151D01*
X132262968Y-56758044D01*
X132352003Y-56613697D01*
X132405349Y-56452708D01*
X132415500Y-56353345D01*
X132415499Y-55806656D01*
X132413229Y-55784438D01*
X132405349Y-55707292D01*
X132405348Y-55707289D01*
X132381898Y-55636522D01*
X132352003Y-55546303D01*
X132351999Y-55546297D01*
X132351998Y-55546294D01*
X132262970Y-55401959D01*
X132262967Y-55401955D01*
X132143044Y-55282032D01*
X132143040Y-55282029D01*
X131998705Y-55193001D01*
X131998699Y-55192998D01*
X131998697Y-55192997D01*
X131927712Y-55169475D01*
X131837709Y-55139651D01*
X131738346Y-55129500D01*
X130891662Y-55129500D01*
X130891644Y-55129501D01*
X130792292Y-55139650D01*
X130792289Y-55139651D01*
X130631305Y-55192996D01*
X130631294Y-55193001D01*
X130486959Y-55282029D01*
X130486955Y-55282032D01*
X130367032Y-55401955D01*
X130367029Y-55401959D01*
X130278001Y-55546294D01*
X130277996Y-55546305D01*
X130224651Y-55707290D01*
X130214500Y-55806647D01*
X130214500Y-56353337D01*
X130214501Y-56353355D01*
X130224650Y-56452707D01*
X130224651Y-56452710D01*
X130277996Y-56613694D01*
X130278001Y-56613705D01*
X130367029Y-56758040D01*
X130367032Y-56758044D01*
X130371141Y-56762153D01*
X130404626Y-56823476D01*
X130399642Y-56893168D01*
X130357770Y-56949101D01*
X130326794Y-56966016D01*
X130272670Y-56986203D01*
X130272664Y-56986206D01*
X130157455Y-57072452D01*
X130157452Y-57072455D01*
X130071206Y-57187664D01*
X130071202Y-57187671D01*
X130020908Y-57322517D01*
X130014501Y-57382116D01*
X130014501Y-57382123D01*
X130014500Y-57382135D01*
X130014500Y-58594545D01*
X129994815Y-58661584D01*
X129978181Y-58682226D01*
X129806208Y-58854199D01*
X129793951Y-58864020D01*
X129794134Y-58864241D01*
X129788122Y-58869214D01*
X129741432Y-58918932D01*
X129740079Y-58920329D01*
X129719889Y-58940519D01*
X129719877Y-58940532D01*
X129715621Y-58946017D01*
X129711837Y-58950447D01*
X129679937Y-58984418D01*
X129679936Y-58984420D01*
X129670284Y-59001976D01*
X129659610Y-59018226D01*
X129647329Y-59034061D01*
X129647324Y-59034068D01*
X129628815Y-59076838D01*
X129626245Y-59082084D01*
X129603803Y-59122906D01*
X129598822Y-59142307D01*
X129592521Y-59160710D01*
X129584562Y-59179102D01*
X129584561Y-59179106D01*
X129577271Y-59225127D01*
X129576087Y-59230846D01*
X129564499Y-59275983D01*
X129564499Y-59296019D01*
X129562973Y-59315407D01*
X129559840Y-59335192D01*
X129559840Y-59335195D01*
X129564225Y-59381583D01*
X129564500Y-59387421D01*
X129564500Y-67184821D01*
X129544815Y-67251860D01*
X129492011Y-67297615D01*
X129422853Y-67307559D01*
X129359297Y-67278534D01*
X129343554Y-67262135D01*
X129329127Y-67244045D01*
X129310050Y-67220123D01*
X129123217Y-67046768D01*
X128912634Y-66903195D01*
X128912630Y-66903193D01*
X128912627Y-66903191D01*
X128912626Y-66903190D01*
X128683006Y-66792612D01*
X128683008Y-66792612D01*
X128439466Y-66717489D01*
X128439462Y-66717488D01*
X128439458Y-66717487D01*
X128318231Y-66699214D01*
X128187440Y-66679500D01*
X128187435Y-66679500D01*
X127932565Y-66679500D01*
X127932564Y-66679500D01*
X125727441Y-66679500D01*
X125727435Y-66679500D01*
X125472565Y-66679500D01*
X125472559Y-66679500D01*
X125315609Y-66703157D01*
X125220542Y-66717487D01*
X125220538Y-66717488D01*
X125220539Y-66717488D01*
X125220533Y-66717489D01*
X124976992Y-66792612D01*
X124747373Y-66903190D01*
X124747372Y-66903191D01*
X124536782Y-67046768D01*
X124349952Y-67220121D01*
X124349950Y-67220123D01*
X124191041Y-67419388D01*
X124063608Y-67640109D01*
X123970492Y-67877362D01*
X123970490Y-67877369D01*
X123913777Y-68125845D01*
X123894732Y-68379995D01*
X123894732Y-68380004D01*
X123913777Y-68634154D01*
X123946229Y-68776337D01*
X123970492Y-68882637D01*
X124063607Y-69119888D01*
X124191041Y-69340612D01*
X124349950Y-69539877D01*
X124536783Y-69713232D01*
X124747366Y-69856805D01*
X124747371Y-69856807D01*
X124747372Y-69856808D01*
X124747373Y-69856809D01*
X124840186Y-69901505D01*
X124976992Y-69967387D01*
X124976993Y-69967387D01*
X124976996Y-69967389D01*
X125220542Y-70042513D01*
X125472565Y-70080500D01*
X125778789Y-70080500D01*
X125778798Y-70080499D01*
X126110500Y-70080499D01*
X126177539Y-70100184D01*
X126223294Y-70152988D01*
X126234500Y-70204499D01*
X126234499Y-77609635D01*
X126214814Y-77676674D01*
X126162010Y-77722429D01*
X126092852Y-77732373D01*
X126073949Y-77728126D01*
X126039465Y-77717489D01*
X126039463Y-77717488D01*
X126039458Y-77717487D01*
X125918231Y-77699214D01*
X125787440Y-77679500D01*
X125787435Y-77679500D01*
X125532565Y-77679500D01*
X125532564Y-77679500D01*
X123187441Y-77679500D01*
X123187435Y-77679500D01*
X122932565Y-77679500D01*
X122932559Y-77679500D01*
X122775609Y-77703157D01*
X122680542Y-77717487D01*
X122680538Y-77717488D01*
X122680539Y-77717488D01*
X122680533Y-77717489D01*
X122436992Y-77792612D01*
X122207373Y-77903190D01*
X122207372Y-77903191D01*
X122207366Y-77903194D01*
X122207366Y-77903195D01*
X122186816Y-77917206D01*
X121996782Y-78046768D01*
X121809952Y-78220121D01*
X121809950Y-78220123D01*
X121651041Y-78419388D01*
X121523608Y-78640109D01*
X121430492Y-78877362D01*
X121430490Y-78877369D01*
X121373777Y-79125845D01*
X121354732Y-79379995D01*
X121354732Y-79380004D01*
X121373777Y-79634154D01*
X121430038Y-79880651D01*
X121430492Y-79882637D01*
X121523607Y-80119888D01*
X121651041Y-80340612D01*
X121809950Y-80539877D01*
X121996783Y-80713232D01*
X122207366Y-80856805D01*
X122207371Y-80856807D01*
X122207372Y-80856808D01*
X122207373Y-80856809D01*
X122323593Y-80912777D01*
X122436992Y-80967387D01*
X122436993Y-80967387D01*
X122436996Y-80967389D01*
X122680542Y-81042513D01*
X122932565Y-81080500D01*
X123238789Y-81080500D01*
X123238798Y-81080499D01*
X125530361Y-81080499D01*
X125530389Y-81080500D01*
X125532565Y-81080500D01*
X125787435Y-81080500D01*
X126039458Y-81042513D01*
X126283004Y-80967389D01*
X126512634Y-80856805D01*
X126723217Y-80713232D01*
X126910050Y-80539877D01*
X127068959Y-80340612D01*
X127196393Y-80119888D01*
X127289508Y-79882637D01*
X127346222Y-79634157D01*
X127357130Y-79488591D01*
X127365268Y-79380004D01*
X127365268Y-79379995D01*
X127350678Y-79185311D01*
X127346222Y-79125843D01*
X127289508Y-78877363D01*
X127251454Y-78780406D01*
X127245286Y-78710811D01*
X127276488Y-78650226D01*
X127308605Y-78616024D01*
X127309877Y-78614712D01*
X127330120Y-78594471D01*
X127334379Y-78588978D01*
X127338152Y-78584561D01*
X127370062Y-78550582D01*
X127379713Y-78533024D01*
X127390396Y-78516761D01*
X127402673Y-78500936D01*
X127421185Y-78458153D01*
X127423738Y-78452941D01*
X127446197Y-78412092D01*
X127451180Y-78392680D01*
X127457481Y-78374280D01*
X127465437Y-78355896D01*
X127472729Y-78309852D01*
X127473906Y-78304171D01*
X127485500Y-78259019D01*
X127485500Y-78238982D01*
X127487027Y-78219582D01*
X127490160Y-78199804D01*
X127485775Y-78153415D01*
X127485500Y-78147577D01*
X127485500Y-74660605D01*
X127505185Y-74593566D01*
X127557989Y-74547811D01*
X127627147Y-74537867D01*
X127664772Y-74549605D01*
X127774461Y-74604224D01*
X127774465Y-74604225D01*
X127774472Y-74604229D01*
X127988464Y-74665115D01*
X128154497Y-74680500D01*
X128154501Y-74680500D01*
X128565499Y-74680500D01*
X128565503Y-74680500D01*
X128731536Y-74665115D01*
X128945528Y-74604229D01*
X129144689Y-74505058D01*
X129322236Y-74370981D01*
X129344558Y-74346495D01*
X129348863Y-74341773D01*
X129408574Y-74305491D01*
X129478421Y-74307252D01*
X129536229Y-74346495D01*
X129563644Y-74410762D01*
X129564500Y-74425311D01*
X129564500Y-76072255D01*
X129562775Y-76087872D01*
X129563061Y-76087899D01*
X129562326Y-76095666D01*
X129564469Y-76163846D01*
X129564500Y-76165793D01*
X129564500Y-76194343D01*
X129564501Y-76194360D01*
X129565368Y-76201231D01*
X129565826Y-76207050D01*
X129567290Y-76253624D01*
X129567291Y-76253627D01*
X129572880Y-76272867D01*
X129576824Y-76291911D01*
X129578848Y-76307925D01*
X129579336Y-76311791D01*
X129596490Y-76355119D01*
X129598382Y-76360647D01*
X129611381Y-76405388D01*
X129621580Y-76422634D01*
X129630138Y-76440103D01*
X129637514Y-76458732D01*
X129664898Y-76496423D01*
X129668106Y-76501307D01*
X129691827Y-76541416D01*
X129691833Y-76541424D01*
X129705990Y-76555580D01*
X129718628Y-76570376D01*
X129730405Y-76586586D01*
X129730406Y-76586587D01*
X129766309Y-76616288D01*
X129770620Y-76620210D01*
X129885196Y-76734786D01*
X129978181Y-76827771D01*
X130011666Y-76889094D01*
X130014500Y-76915452D01*
X130014500Y-77644546D01*
X129994815Y-77711585D01*
X129978181Y-77732227D01*
X129806208Y-77904199D01*
X129793951Y-77914020D01*
X129794134Y-77914241D01*
X129788122Y-77919214D01*
X129741432Y-77968932D01*
X129740079Y-77970329D01*
X129719889Y-77990519D01*
X129719877Y-77990532D01*
X129715621Y-77996017D01*
X129711837Y-78000447D01*
X129679937Y-78034418D01*
X129679936Y-78034420D01*
X129670284Y-78051976D01*
X129659610Y-78068226D01*
X129647329Y-78084061D01*
X129647324Y-78084068D01*
X129628815Y-78126838D01*
X129626245Y-78132084D01*
X129603803Y-78172906D01*
X129598822Y-78192307D01*
X129592521Y-78210710D01*
X129584562Y-78229102D01*
X129584561Y-78229105D01*
X129577271Y-78275127D01*
X129576087Y-78280846D01*
X129564501Y-78325972D01*
X129564500Y-78325982D01*
X129564500Y-78346016D01*
X129562973Y-78365415D01*
X129559840Y-78385194D01*
X129559839Y-78385197D01*
X129564224Y-78431585D01*
X129564499Y-78437421D01*
X129564500Y-79845812D01*
X129544815Y-79912851D01*
X129532650Y-79928784D01*
X129457466Y-80012284D01*
X129362821Y-80176215D01*
X129362818Y-80176222D01*
X129304327Y-80356240D01*
X129304326Y-80356244D01*
X129284540Y-80544500D01*
X129304326Y-80732756D01*
X129304327Y-80732759D01*
X129362818Y-80912777D01*
X129362821Y-80912784D01*
X129457467Y-81076716D01*
X129500772Y-81124810D01*
X129532650Y-81160215D01*
X129562880Y-81223206D01*
X129564500Y-81243187D01*
X129564500Y-86234821D01*
X129544815Y-86301860D01*
X129492011Y-86347615D01*
X129422853Y-86357559D01*
X129359297Y-86328534D01*
X129343554Y-86312135D01*
X129329127Y-86294045D01*
X129310050Y-86270123D01*
X129123217Y-86096768D01*
X128912634Y-85953195D01*
X128912630Y-85953193D01*
X128912627Y-85953191D01*
X128912626Y-85953190D01*
X128683006Y-85842612D01*
X128683008Y-85842612D01*
X128439466Y-85767489D01*
X128439462Y-85767488D01*
X128439458Y-85767487D01*
X128318231Y-85749214D01*
X128187440Y-85729500D01*
X128187435Y-85729500D01*
X127932565Y-85729500D01*
X127932564Y-85729500D01*
X125727441Y-85729500D01*
X125727435Y-85729500D01*
X125472565Y-85729500D01*
X125472559Y-85729500D01*
X125315609Y-85753157D01*
X125220542Y-85767487D01*
X125220538Y-85767488D01*
X125220539Y-85767488D01*
X125220533Y-85767489D01*
X124976992Y-85842612D01*
X124747373Y-85953190D01*
X124747372Y-85953191D01*
X124536782Y-86096768D01*
X124349952Y-86270121D01*
X124349950Y-86270123D01*
X124191041Y-86469388D01*
X124063608Y-86690109D01*
X123970492Y-86927362D01*
X123970490Y-86927369D01*
X123913777Y-87175845D01*
X123894732Y-87429995D01*
X123894732Y-87430004D01*
X123913777Y-87684154D01*
X123924230Y-87729953D01*
X123970492Y-87932637D01*
X124063607Y-88169888D01*
X124191041Y-88390612D01*
X124349950Y-88589877D01*
X124536783Y-88763232D01*
X124747366Y-88906805D01*
X124747371Y-88906807D01*
X124747372Y-88906808D01*
X124747373Y-88906809D01*
X124869328Y-88965538D01*
X124976992Y-89017387D01*
X124976993Y-89017387D01*
X124976996Y-89017389D01*
X125220542Y-89092513D01*
X125472565Y-89130500D01*
X125778789Y-89130500D01*
X125778798Y-89130499D01*
X126050500Y-89130499D01*
X126117539Y-89150184D01*
X126163294Y-89202988D01*
X126174500Y-89254499D01*
X126174500Y-96643751D01*
X126154815Y-96710790D01*
X126102011Y-96756545D01*
X126032853Y-96766489D01*
X126032140Y-96766384D01*
X125944680Y-96753201D01*
X125787440Y-96729500D01*
X125787435Y-96729500D01*
X125532565Y-96729500D01*
X125532564Y-96729500D01*
X123187441Y-96729500D01*
X123187435Y-96729500D01*
X122932565Y-96729500D01*
X122932559Y-96729500D01*
X122775609Y-96753157D01*
X122680542Y-96767487D01*
X122680538Y-96767488D01*
X122680539Y-96767488D01*
X122680533Y-96767489D01*
X122436992Y-96842612D01*
X122207373Y-96953190D01*
X122207372Y-96953191D01*
X121996782Y-97096768D01*
X121809952Y-97270121D01*
X121809950Y-97270123D01*
X121651041Y-97469388D01*
X121523608Y-97690109D01*
X121430492Y-97927362D01*
X121430490Y-97927369D01*
X121373777Y-98175845D01*
X121354732Y-98429995D01*
X121354732Y-98430004D01*
X121373777Y-98684154D01*
X121427901Y-98921288D01*
X121430492Y-98932637D01*
X121523607Y-99169888D01*
X121651041Y-99390612D01*
X121809950Y-99589877D01*
X121996783Y-99763232D01*
X122135852Y-99858048D01*
X122180153Y-99912075D01*
X122188212Y-99981478D01*
X122157469Y-100044221D01*
X122097685Y-100080383D01*
X122065999Y-100084500D01*
X118120453Y-100084500D01*
X118053414Y-100064815D01*
X118032772Y-100048181D01*
X116221819Y-98237228D01*
X116188334Y-98175905D01*
X116185500Y-98149547D01*
X116185500Y-96854667D01*
X116205185Y-96787628D01*
X116257989Y-96741873D01*
X116327147Y-96731929D01*
X116390703Y-96760954D01*
X116428477Y-96819732D01*
X116428613Y-96820199D01*
X116457640Y-96920512D01*
X116457642Y-96920517D01*
X116457643Y-96920519D01*
X116567660Y-97157321D01*
X116567663Y-97157326D01*
X116567665Y-97157329D01*
X117286590Y-98235314D01*
X117407338Y-98389364D01*
X117407340Y-98389366D01*
X117407341Y-98389367D01*
X117597903Y-98567875D01*
X117813480Y-98715201D01*
X118049019Y-98827893D01*
X118299002Y-98903309D01*
X118557566Y-98939682D01*
X118818652Y-98936158D01*
X119076141Y-98892822D01*
X119076147Y-98892819D01*
X119076152Y-98892819D01*
X119174044Y-98860378D01*
X119323996Y-98810687D01*
X119556410Y-98691681D01*
X119767933Y-98538591D01*
X119953608Y-98355007D01*
X120109084Y-98145232D01*
X120230715Y-97914181D01*
X120315651Y-97667271D01*
X120361900Y-97410290D01*
X120368379Y-97149260D01*
X120334938Y-96890301D01*
X120262357Y-96639481D01*
X120152340Y-96402679D01*
X119896338Y-96018819D01*
X119875518Y-95952123D01*
X119875500Y-95950018D01*
X119875500Y-95948983D01*
X119877027Y-95929582D01*
X119880160Y-95909804D01*
X119875775Y-95863415D01*
X119875500Y-95857577D01*
X119875500Y-91654100D01*
X119895185Y-91587061D01*
X119945695Y-91542381D01*
X120102634Y-91466805D01*
X120265351Y-91355866D01*
X120331828Y-91334366D01*
X120399378Y-91352220D01*
X120446553Y-91403760D01*
X120458373Y-91472622D01*
X120452669Y-91498033D01*
X120353785Y-91790521D01*
X120285319Y-92115789D01*
X120285319Y-92115794D01*
X120255805Y-92446853D01*
X120265655Y-92779112D01*
X120314731Y-93107857D01*
X120314732Y-93107862D01*
X120402345Y-93428494D01*
X120402346Y-93428498D01*
X120527264Y-93736511D01*
X120527269Y-93736522D01*
X120687740Y-94027599D01*
X120687740Y-94027600D01*
X120881520Y-94297667D01*
X120881529Y-94297677D01*
X121023944Y-94453352D01*
X121105877Y-94542914D01*
X121357666Y-94759906D01*
X121357671Y-94759909D01*
X121357677Y-94759914D01*
X121518625Y-94868320D01*
X121633353Y-94945595D01*
X121929067Y-95097374D01*
X122240656Y-95213113D01*
X122563747Y-95291187D01*
X122893805Y-95330500D01*
X122893812Y-95330500D01*
X123143025Y-95330500D01*
X123205218Y-95326809D01*
X123391807Y-95315736D01*
X123718956Y-95256939D01*
X124036854Y-95159862D01*
X124341040Y-95025868D01*
X124627243Y-94856837D01*
X124891445Y-94655142D01*
X125129937Y-94423616D01*
X125339373Y-94165506D01*
X125516810Y-93884438D01*
X125659760Y-93584357D01*
X125766215Y-93269475D01*
X125834680Y-92944212D01*
X125864195Y-92613134D01*
X125854345Y-92280890D01*
X125805269Y-91952142D01*
X125717655Y-91631506D01*
X125592733Y-91323483D01*
X125553715Y-91252709D01*
X125541371Y-91230317D01*
X125432258Y-91032397D01*
X125238481Y-90762335D01*
X125238479Y-90762332D01*
X125238470Y-90762322D01*
X125033666Y-90538449D01*
X125014123Y-90517086D01*
X125002852Y-90507373D01*
X124815953Y-90346303D01*
X124762334Y-90300094D01*
X124762330Y-90300091D01*
X124762322Y-90300085D01*
X124486653Y-90114409D01*
X124486652Y-90114408D01*
X124486649Y-90114406D01*
X124486647Y-90114405D01*
X124190933Y-89962626D01*
X124190928Y-89962624D01*
X124190926Y-89962623D01*
X123879348Y-89846888D01*
X123556254Y-89768813D01*
X123556249Y-89768812D01*
X123416687Y-89752189D01*
X123226195Y-89729500D01*
X122976977Y-89729500D01*
X122976975Y-89729500D01*
X122728198Y-89744263D01*
X122728191Y-89744264D01*
X122401043Y-89803061D01*
X122083142Y-89900139D01*
X121778960Y-90034131D01*
X121778955Y-90034134D01*
X121492765Y-90203157D01*
X121492748Y-90203169D01*
X121228553Y-90404859D01*
X121228544Y-90404867D01*
X121106329Y-90523513D01*
X121044517Y-90556086D01*
X120974907Y-90550069D01*
X120919600Y-90507373D01*
X120896155Y-90441554D01*
X120899066Y-90406949D01*
X120923454Y-90300096D01*
X120936222Y-90244157D01*
X120954585Y-89999113D01*
X120955268Y-89990004D01*
X120955268Y-89989995D01*
X120936222Y-89735845D01*
X120934898Y-89730045D01*
X120879508Y-89487363D01*
X120786393Y-89250112D01*
X120658959Y-89029388D01*
X120500050Y-88830123D01*
X120313217Y-88656768D01*
X120102634Y-88513195D01*
X120102630Y-88513193D01*
X120102627Y-88513191D01*
X120102626Y-88513190D01*
X119873006Y-88402612D01*
X119873008Y-88402612D01*
X119629466Y-88327489D01*
X119629462Y-88327488D01*
X119629458Y-88327487D01*
X119508231Y-88309214D01*
X119377440Y-88289500D01*
X119377435Y-88289500D01*
X119122565Y-88289500D01*
X119122559Y-88289500D01*
X118965609Y-88313157D01*
X118870542Y-88327487D01*
X118870538Y-88327488D01*
X118870539Y-88327488D01*
X118870533Y-88327489D01*
X118626992Y-88402612D01*
X118397373Y-88513190D01*
X118397372Y-88513191D01*
X118186782Y-88656768D01*
X117999952Y-88830121D01*
X117999950Y-88830123D01*
X117841041Y-89029388D01*
X117713608Y-89250109D01*
X117620492Y-89487362D01*
X117620490Y-89487369D01*
X117563777Y-89735845D01*
X117544732Y-89989995D01*
X117544732Y-89990004D01*
X117563777Y-90244154D01*
X117608832Y-90441554D01*
X117620492Y-90492637D01*
X117713607Y-90729888D01*
X117841041Y-90950612D01*
X117906265Y-91032400D01*
X117982653Y-91128187D01*
X118009061Y-91192874D01*
X117996306Y-91261569D01*
X117948435Y-91312463D01*
X117885706Y-91329500D01*
X117554497Y-91329500D01*
X117509601Y-91333660D01*
X117388464Y-91344884D01*
X117388462Y-91344885D01*
X117174476Y-91405769D01*
X117174461Y-91405775D01*
X116975316Y-91504938D01*
X116975302Y-91504947D01*
X116834226Y-91611483D01*
X116768865Y-91636175D01*
X116700530Y-91621610D01*
X116650918Y-91572412D01*
X116635500Y-91512529D01*
X116635500Y-80002737D01*
X116637224Y-79987123D01*
X116636938Y-79987096D01*
X116637672Y-79979333D01*
X116635531Y-79911170D01*
X116635500Y-79909223D01*
X116635500Y-79880651D01*
X116635500Y-79880650D01*
X116634629Y-79873759D01*
X116634172Y-79867945D01*
X116634104Y-79865793D01*
X116632709Y-79821372D01*
X116627120Y-79802137D01*
X116623174Y-79783084D01*
X116620664Y-79763208D01*
X116603501Y-79719859D01*
X116601614Y-79714346D01*
X116588617Y-79669610D01*
X116588616Y-79669608D01*
X116578421Y-79652369D01*
X116569860Y-79634893D01*
X116562486Y-79616269D01*
X116562486Y-79616267D01*
X116552474Y-79602488D01*
X116535083Y-79578550D01*
X116531900Y-79573705D01*
X116508170Y-79533579D01*
X116508165Y-79533573D01*
X116494005Y-79519413D01*
X116481370Y-79504620D01*
X116469723Y-79488591D01*
X116469594Y-79488413D01*
X116433693Y-79458713D01*
X116429381Y-79454790D01*
X114710803Y-77736212D01*
X114700980Y-77723950D01*
X114700759Y-77724134D01*
X114695786Y-77718122D01*
X114646066Y-77671432D01*
X114644666Y-77670075D01*
X114624476Y-77649884D01*
X114618986Y-77645625D01*
X114614561Y-77641847D01*
X114580582Y-77609938D01*
X114580580Y-77609936D01*
X114580577Y-77609935D01*
X114563029Y-77600288D01*
X114546763Y-77589604D01*
X114530936Y-77577327D01*
X114530935Y-77577326D01*
X114530933Y-77577325D01*
X114488168Y-77558818D01*
X114482922Y-77556248D01*
X114442093Y-77533803D01*
X114442092Y-77533802D01*
X114422693Y-77528822D01*
X114404281Y-77522518D01*
X114385898Y-77514562D01*
X114385892Y-77514560D01*
X114339874Y-77507272D01*
X114334152Y-77506087D01*
X114289021Y-77494500D01*
X114289019Y-77494500D01*
X114268984Y-77494500D01*
X114249586Y-77492973D01*
X114242162Y-77491797D01*
X114229805Y-77489840D01*
X114229804Y-77489840D01*
X114183416Y-77494225D01*
X114177578Y-77494500D01*
X112008814Y-77494500D01*
X111941775Y-77474815D01*
X111896020Y-77422011D01*
X111886076Y-77352853D01*
X111892293Y-77328087D01*
X111893903Y-77323662D01*
X111894629Y-77320952D01*
X111955063Y-77095408D01*
X111975659Y-76860000D01*
X111955063Y-76624592D01*
X111893903Y-76396337D01*
X111891837Y-76391906D01*
X111881344Y-76322829D01*
X111909863Y-76259045D01*
X111968339Y-76220804D01*
X112004218Y-76215500D01*
X113957257Y-76215500D01*
X113972877Y-76217224D01*
X113972904Y-76216939D01*
X113980666Y-76217673D01*
X113980666Y-76217672D01*
X113980667Y-76217673D01*
X113983999Y-76217568D01*
X114048847Y-76215531D01*
X114050794Y-76215500D01*
X114079347Y-76215500D01*
X114079350Y-76215500D01*
X114086228Y-76214630D01*
X114092041Y-76214172D01*
X114138627Y-76212709D01*
X114157869Y-76207117D01*
X114176912Y-76203174D01*
X114196792Y-76200664D01*
X114240122Y-76183507D01*
X114245646Y-76181617D01*
X114249396Y-76180527D01*
X114290390Y-76168618D01*
X114307629Y-76158422D01*
X114325103Y-76149862D01*
X114343727Y-76142488D01*
X114343727Y-76142487D01*
X114343732Y-76142486D01*
X114381449Y-76115082D01*
X114386305Y-76111892D01*
X114426420Y-76088170D01*
X114440589Y-76073999D01*
X114455379Y-76061368D01*
X114471587Y-76049594D01*
X114501299Y-76013676D01*
X114505212Y-76009376D01*
X115943786Y-74570802D01*
X115956048Y-74560980D01*
X115955865Y-74560759D01*
X115961873Y-74555788D01*
X115961877Y-74555786D01*
X116008649Y-74505977D01*
X116009891Y-74504697D01*
X116030120Y-74484470D01*
X116034373Y-74478986D01*
X116038150Y-74474563D01*
X116070062Y-74440582D01*
X116079714Y-74423023D01*
X116090389Y-74406772D01*
X116102674Y-74390936D01*
X116121186Y-74348152D01*
X116123742Y-74342935D01*
X116146197Y-74302092D01*
X116151180Y-74282680D01*
X116157477Y-74264291D01*
X116165438Y-74245895D01*
X116172729Y-74199853D01*
X116173908Y-74194162D01*
X116185500Y-74149019D01*
X116185500Y-74128982D01*
X116187027Y-74109582D01*
X116190160Y-74089804D01*
X116185775Y-74043415D01*
X116185500Y-74037577D01*
X116185500Y-73731119D01*
X116205185Y-73664080D01*
X116257989Y-73618325D01*
X116327147Y-73608381D01*
X116390703Y-73637406D01*
X116428477Y-73696184D01*
X116431385Y-73708321D01*
X116450382Y-73809940D01*
X116502187Y-73943663D01*
X116530752Y-74017398D01*
X116530754Y-74017404D01*
X116647874Y-74206560D01*
X116647876Y-74206562D01*
X116797761Y-74370979D01*
X116975308Y-74505056D01*
X116975316Y-74505061D01*
X117174461Y-74604224D01*
X117174465Y-74604225D01*
X117174472Y-74604229D01*
X117388464Y-74665115D01*
X117554497Y-74680500D01*
X117554501Y-74680500D01*
X117965499Y-74680500D01*
X117965503Y-74680500D01*
X118131536Y-74665115D01*
X118345528Y-74604229D01*
X118445227Y-74554584D01*
X118514013Y-74542323D01*
X118578508Y-74569196D01*
X118618236Y-74626671D01*
X118624500Y-74665584D01*
X118624500Y-75501155D01*
X118604815Y-75568194D01*
X118552011Y-75613949D01*
X118482853Y-75623893D01*
X118464687Y-75619871D01*
X118420995Y-75606690D01*
X118213043Y-75577438D01*
X118162434Y-75570319D01*
X118162433Y-75570319D01*
X117901347Y-75573841D01*
X117643858Y-75617178D01*
X117643847Y-75617180D01*
X117396009Y-75699311D01*
X117396002Y-75699314D01*
X117163591Y-75818319D01*
X116952075Y-75971403D01*
X116952067Y-75971409D01*
X116766392Y-76154992D01*
X116610916Y-76364766D01*
X116489287Y-76595814D01*
X116489282Y-76595826D01*
X116404349Y-76842728D01*
X116358100Y-77099709D01*
X116351620Y-77360740D01*
X116351620Y-77360741D01*
X116376868Y-77556248D01*
X116385062Y-77619699D01*
X116387511Y-77628161D01*
X116457640Y-77870512D01*
X116457642Y-77870517D01*
X116457643Y-77870519D01*
X116567660Y-78107321D01*
X116567663Y-78107326D01*
X116567665Y-78107329D01*
X117286590Y-79185314D01*
X117407338Y-79339364D01*
X117407340Y-79339366D01*
X117407341Y-79339367D01*
X117597903Y-79517875D01*
X117813480Y-79665201D01*
X118049019Y-79777893D01*
X118299002Y-79853309D01*
X118557566Y-79889682D01*
X118818652Y-79886158D01*
X119076141Y-79842822D01*
X119076147Y-79842819D01*
X119076152Y-79842819D01*
X119198887Y-79802146D01*
X119323996Y-79760687D01*
X119556410Y-79641681D01*
X119767933Y-79488591D01*
X119953608Y-79305007D01*
X120109084Y-79095232D01*
X120230715Y-78864181D01*
X120315651Y-78617271D01*
X120361900Y-78360290D01*
X120368379Y-78099260D01*
X120334938Y-77840301D01*
X120265484Y-77600288D01*
X120262359Y-77589487D01*
X120262357Y-77589482D01*
X120236489Y-77533803D01*
X120152340Y-77352679D01*
X120067499Y-77225465D01*
X119896338Y-76968819D01*
X119875518Y-76902123D01*
X119875500Y-76900018D01*
X119875500Y-76898983D01*
X119877027Y-76879582D01*
X119880160Y-76859804D01*
X119875775Y-76813415D01*
X119875500Y-76807577D01*
X119875500Y-72604100D01*
X119895185Y-72537061D01*
X119945695Y-72492381D01*
X120102634Y-72416805D01*
X120265351Y-72305866D01*
X120331828Y-72284366D01*
X120399378Y-72302220D01*
X120446553Y-72353760D01*
X120458373Y-72422622D01*
X120452669Y-72448033D01*
X120353785Y-72740521D01*
X120285319Y-73065789D01*
X120285319Y-73065794D01*
X120255805Y-73396853D01*
X120255805Y-73396862D01*
X120255805Y-73396866D01*
X120263078Y-73642171D01*
X120265655Y-73729112D01*
X120277721Y-73809937D01*
X120311703Y-74037577D01*
X120314731Y-74057857D01*
X120314732Y-74057862D01*
X120402345Y-74378494D01*
X120402346Y-74378498D01*
X120527264Y-74686511D01*
X120527269Y-74686522D01*
X120648704Y-74906792D01*
X120687742Y-74977603D01*
X120704091Y-75000388D01*
X120881520Y-75247667D01*
X120881529Y-75247677D01*
X121023944Y-75403352D01*
X121105877Y-75492914D01*
X121357666Y-75709906D01*
X121357671Y-75709909D01*
X121357677Y-75709914D01*
X121518625Y-75818320D01*
X121633353Y-75895595D01*
X121929067Y-76047374D01*
X122240656Y-76163113D01*
X122563747Y-76241187D01*
X122893805Y-76280500D01*
X122893812Y-76280500D01*
X123143025Y-76280500D01*
X123205218Y-76276809D01*
X123391807Y-76265736D01*
X123718956Y-76206939D01*
X124036854Y-76109862D01*
X124341040Y-75975868D01*
X124627243Y-75806837D01*
X124891445Y-75605142D01*
X125129937Y-75373616D01*
X125339373Y-75115506D01*
X125516810Y-74834438D01*
X125659760Y-74534357D01*
X125766215Y-74219475D01*
X125834680Y-73894212D01*
X125864195Y-73563134D01*
X125854345Y-73230890D01*
X125805269Y-72902142D01*
X125717655Y-72581506D01*
X125592733Y-72273483D01*
X125576293Y-72243663D01*
X125541371Y-72180317D01*
X125432258Y-71982397D01*
X125238481Y-71712335D01*
X125238479Y-71712332D01*
X125238470Y-71712322D01*
X125033666Y-71488449D01*
X125014123Y-71467086D01*
X125002852Y-71457373D01*
X124815953Y-71296303D01*
X124762334Y-71250094D01*
X124762330Y-71250091D01*
X124762322Y-71250085D01*
X124486653Y-71064409D01*
X124486652Y-71064408D01*
X124486649Y-71064406D01*
X124486647Y-71064405D01*
X124190933Y-70912626D01*
X124190928Y-70912624D01*
X124190926Y-70912623D01*
X123879348Y-70796888D01*
X123556254Y-70718813D01*
X123556249Y-70718812D01*
X123416688Y-70702189D01*
X123226195Y-70679500D01*
X122976977Y-70679500D01*
X122976975Y-70679500D01*
X122728198Y-70694263D01*
X122728191Y-70694264D01*
X122401043Y-70753061D01*
X122083142Y-70850139D01*
X121778960Y-70984131D01*
X121778955Y-70984134D01*
X121492765Y-71153157D01*
X121492748Y-71153169D01*
X121228553Y-71354859D01*
X121228544Y-71354867D01*
X121106329Y-71473513D01*
X121044517Y-71506086D01*
X120974907Y-71500069D01*
X120919600Y-71457373D01*
X120896155Y-71391554D01*
X120899066Y-71356949D01*
X120923454Y-71250096D01*
X120936222Y-71194157D01*
X120954585Y-70949113D01*
X120955268Y-70940004D01*
X120955268Y-70939995D01*
X120936222Y-70685845D01*
X120934898Y-70680045D01*
X120879508Y-70437363D01*
X120786393Y-70200112D01*
X120658959Y-69979388D01*
X120500050Y-69780123D01*
X120313217Y-69606768D01*
X120102634Y-69463195D01*
X120102630Y-69463193D01*
X120102627Y-69463191D01*
X120102626Y-69463190D01*
X119873006Y-69352612D01*
X119873008Y-69352612D01*
X119629466Y-69277489D01*
X119629462Y-69277488D01*
X119629458Y-69277487D01*
X119508231Y-69259214D01*
X119377440Y-69239500D01*
X119377435Y-69239500D01*
X119122565Y-69239500D01*
X119122559Y-69239500D01*
X118965609Y-69263157D01*
X118870542Y-69277487D01*
X118870538Y-69277488D01*
X118870539Y-69277488D01*
X118870533Y-69277489D01*
X118626992Y-69352612D01*
X118397373Y-69463190D01*
X118397372Y-69463191D01*
X118397366Y-69463194D01*
X118397366Y-69463195D01*
X118372639Y-69480053D01*
X118186782Y-69606768D01*
X117999952Y-69780121D01*
X117999950Y-69780123D01*
X117841041Y-69979388D01*
X117713608Y-70200109D01*
X117620492Y-70437362D01*
X117620490Y-70437369D01*
X117563777Y-70685845D01*
X117544732Y-70939995D01*
X117544732Y-70940004D01*
X117563777Y-71194154D01*
X117608832Y-71391554D01*
X117620492Y-71442637D01*
X117713607Y-71679888D01*
X117841041Y-71900612D01*
X117906265Y-71982400D01*
X117982653Y-72078187D01*
X118009061Y-72142874D01*
X117996306Y-72211569D01*
X117948435Y-72262463D01*
X117885706Y-72279500D01*
X117554497Y-72279500D01*
X117509601Y-72283660D01*
X117388464Y-72294884D01*
X117388462Y-72294885D01*
X117174476Y-72355769D01*
X117174461Y-72355775D01*
X116975316Y-72454938D01*
X116975308Y-72454943D01*
X116797761Y-72589020D01*
X116647876Y-72753437D01*
X116647874Y-72753439D01*
X116530754Y-72942595D01*
X116530752Y-72942601D01*
X116502187Y-73016337D01*
X116450382Y-73150060D01*
X116433316Y-73241358D01*
X116431389Y-73251665D01*
X116399721Y-73313946D01*
X116339408Y-73349219D01*
X116269600Y-73346285D01*
X116212460Y-73306076D01*
X116186129Y-73241358D01*
X116185500Y-73228880D01*
X116185500Y-61790451D01*
X116205185Y-61723412D01*
X116221814Y-61702775D01*
X117441305Y-60483283D01*
X117502626Y-60449800D01*
X117572318Y-60454784D01*
X117598947Y-60468588D01*
X117813480Y-60615201D01*
X118049019Y-60727893D01*
X118299002Y-60803309D01*
X118557566Y-60839682D01*
X118818652Y-60836158D01*
X119076141Y-60792822D01*
X119076147Y-60792819D01*
X119076152Y-60792819D01*
X119174044Y-60760378D01*
X119323996Y-60710687D01*
X119556410Y-60591681D01*
X119767933Y-60438591D01*
X119877757Y-60330004D01*
X121354732Y-60330004D01*
X121373777Y-60584154D01*
X121421834Y-60794707D01*
X121430492Y-60832637D01*
X121523607Y-61069888D01*
X121651041Y-61290612D01*
X121809950Y-61489877D01*
X121996783Y-61663232D01*
X122207366Y-61806805D01*
X122207371Y-61806807D01*
X122207372Y-61806808D01*
X122207373Y-61806809D01*
X122329328Y-61865538D01*
X122436992Y-61917387D01*
X122436993Y-61917387D01*
X122436996Y-61917389D01*
X122680542Y-61992513D01*
X122932565Y-62030500D01*
X123238789Y-62030500D01*
X123238798Y-62030499D01*
X125530361Y-62030499D01*
X125530389Y-62030500D01*
X125532565Y-62030500D01*
X125787435Y-62030500D01*
X126039458Y-61992513D01*
X126283004Y-61917389D01*
X126512634Y-61806805D01*
X126723217Y-61663232D01*
X126910050Y-61489877D01*
X127068959Y-61290612D01*
X127196393Y-61069888D01*
X127289508Y-60832637D01*
X127346222Y-60584157D01*
X127357130Y-60438591D01*
X127365268Y-60330004D01*
X127365268Y-60329995D01*
X127346222Y-60075845D01*
X127289509Y-59827369D01*
X127289508Y-59827363D01*
X127250656Y-59728371D01*
X127244487Y-59658774D01*
X127268102Y-59607071D01*
X127270113Y-59604477D01*
X127270120Y-59604471D01*
X127274388Y-59598968D01*
X127278155Y-59594557D01*
X127310062Y-59560582D01*
X127319713Y-59543024D01*
X127330396Y-59526761D01*
X127342673Y-59510936D01*
X127361185Y-59468153D01*
X127363738Y-59462941D01*
X127386197Y-59422092D01*
X127391180Y-59402680D01*
X127397481Y-59384280D01*
X127405437Y-59365896D01*
X127412729Y-59319852D01*
X127413906Y-59314171D01*
X127425500Y-59269019D01*
X127425500Y-59248982D01*
X127427027Y-59229582D01*
X127427315Y-59227766D01*
X127430160Y-59209804D01*
X127425775Y-59163415D01*
X127425500Y-59157577D01*
X127425500Y-57382116D01*
X127425499Y-55580724D01*
X127445184Y-55513689D01*
X127497988Y-55467934D01*
X127567146Y-55457990D01*
X127604771Y-55469728D01*
X127774461Y-55554224D01*
X127774465Y-55554225D01*
X127774472Y-55554229D01*
X127988464Y-55615115D01*
X128154497Y-55630500D01*
X128154501Y-55630500D01*
X128565499Y-55630500D01*
X128565503Y-55630500D01*
X128731536Y-55615115D01*
X128945528Y-55554229D01*
X129144689Y-55455058D01*
X129322236Y-55320981D01*
X129472124Y-55156562D01*
X129589247Y-54967401D01*
X129669618Y-54759940D01*
X129710500Y-54541243D01*
X129710500Y-54318757D01*
X129669618Y-54100060D01*
X129589247Y-53892599D01*
X129564197Y-53852142D01*
X129472125Y-53703439D01*
X129472123Y-53703437D01*
X129322238Y-53539020D01*
X129144691Y-53404943D01*
X129144683Y-53404938D01*
X128945538Y-53305775D01*
X128945523Y-53305769D01*
X128731537Y-53244885D01*
X128731535Y-53244884D01*
X128613653Y-53233961D01*
X128565503Y-53229500D01*
X128154497Y-53229500D01*
X128109601Y-53233660D01*
X127988464Y-53244884D01*
X127988462Y-53244885D01*
X127774476Y-53305769D01*
X127774461Y-53305775D01*
X127604772Y-53390272D01*
X127535987Y-53402533D01*
X127471492Y-53375660D01*
X127431764Y-53318185D01*
X127425500Y-53279272D01*
X127425500Y-51154499D01*
X127445185Y-51087460D01*
X127497989Y-51041705D01*
X127549500Y-51030499D01*
X127930361Y-51030499D01*
X127930389Y-51030500D01*
X127932565Y-51030500D01*
X128187435Y-51030500D01*
X128439458Y-50992513D01*
X128683004Y-50917389D01*
X128912634Y-50806805D01*
X129123217Y-50663232D01*
X129159032Y-50630001D01*
X130009532Y-50630001D01*
X130029364Y-50856686D01*
X130029366Y-50856697D01*
X130088258Y-51076488D01*
X130088261Y-51076497D01*
X130184431Y-51282732D01*
X130184432Y-51282734D01*
X130314954Y-51469141D01*
X130475858Y-51630045D01*
X130593878Y-51712683D01*
X130637503Y-51767260D01*
X130644697Y-51836758D01*
X130613174Y-51899113D01*
X130587853Y-51919796D01*
X130486956Y-51982031D01*
X130367032Y-52101955D01*
X130367029Y-52101959D01*
X130278001Y-52246294D01*
X130277996Y-52246305D01*
X130224651Y-52407290D01*
X130214500Y-52506647D01*
X130214500Y-53053337D01*
X130214501Y-53053355D01*
X130224650Y-53152707D01*
X130224651Y-53152710D01*
X130277996Y-53313694D01*
X130278001Y-53313705D01*
X130367029Y-53458040D01*
X130367032Y-53458044D01*
X130486955Y-53577967D01*
X130486959Y-53577970D01*
X130631294Y-53666998D01*
X130631297Y-53666999D01*
X130631303Y-53667003D01*
X130792292Y-53720349D01*
X130891655Y-53730500D01*
X131738344Y-53730499D01*
X131738352Y-53730498D01*
X131738355Y-53730498D01*
X131792760Y-53724940D01*
X131837708Y-53720349D01*
X131998697Y-53667003D01*
X132143044Y-53577968D01*
X132262968Y-53458044D01*
X132352003Y-53313697D01*
X132405349Y-53152708D01*
X132415500Y-53053345D01*
X132415499Y-52506656D01*
X132405349Y-52407292D01*
X132352003Y-52246303D01*
X132351999Y-52246297D01*
X132351998Y-52246294D01*
X132262970Y-52101959D01*
X132262967Y-52101955D01*
X132143043Y-51982031D01*
X132042145Y-51919796D01*
X131995421Y-51867848D01*
X131984200Y-51798885D01*
X132012043Y-51734803D01*
X132036114Y-51712687D01*
X132154139Y-51630047D01*
X132315047Y-51469139D01*
X132445568Y-51282734D01*
X132472618Y-51224724D01*
X132518790Y-51172285D01*
X132585983Y-51153133D01*
X132652865Y-51173348D01*
X132697382Y-51224725D01*
X132724429Y-51282728D01*
X132724432Y-51282734D01*
X132854954Y-51469141D01*
X133015858Y-51630045D01*
X133133878Y-51712683D01*
X133177503Y-51767260D01*
X133184697Y-51836758D01*
X133153174Y-51899113D01*
X133127853Y-51919796D01*
X133026956Y-51982031D01*
X132907032Y-52101955D01*
X132907029Y-52101959D01*
X132818001Y-52246294D01*
X132817996Y-52246305D01*
X132764651Y-52407290D01*
X132754500Y-52506647D01*
X132754500Y-53053337D01*
X132754501Y-53053355D01*
X132764650Y-53152707D01*
X132764651Y-53152710D01*
X132817996Y-53313694D01*
X132818001Y-53313705D01*
X132907029Y-53458040D01*
X132907032Y-53458044D01*
X133026955Y-53577967D01*
X133026959Y-53577970D01*
X133171294Y-53666998D01*
X133171297Y-53666999D01*
X133171303Y-53667003D01*
X133332292Y-53720349D01*
X133431655Y-53730500D01*
X134278344Y-53730499D01*
X134278352Y-53730498D01*
X134278355Y-53730498D01*
X134332760Y-53724940D01*
X134377708Y-53720349D01*
X134538697Y-53667003D01*
X134683044Y-53577968D01*
X134802968Y-53458044D01*
X134892003Y-53313697D01*
X134945349Y-53152708D01*
X134955500Y-53053345D01*
X134955499Y-52506656D01*
X134945349Y-52407292D01*
X134892003Y-52246303D01*
X134891999Y-52246297D01*
X134891998Y-52246294D01*
X134802970Y-52101959D01*
X134802967Y-52101955D01*
X134683043Y-51982031D01*
X134582146Y-51919796D01*
X134535422Y-51867847D01*
X134524201Y-51798885D01*
X134552045Y-51734803D01*
X134576121Y-51712683D01*
X134694139Y-51630047D01*
X134855047Y-51469139D01*
X134985568Y-51282734D01*
X135081739Y-51076496D01*
X135140635Y-50856692D01*
X135160468Y-50630000D01*
X135140635Y-50403308D01*
X135081739Y-50183504D01*
X134985568Y-49977266D01*
X134855047Y-49790861D01*
X134855045Y-49790858D01*
X134694141Y-49629954D01*
X134507734Y-49499432D01*
X134507732Y-49499431D01*
X134301497Y-49403261D01*
X134301488Y-49403258D01*
X134081697Y-49344366D01*
X134081693Y-49344365D01*
X134081692Y-49344365D01*
X134081691Y-49344364D01*
X134081686Y-49344364D01*
X133855002Y-49324532D01*
X133854998Y-49324532D01*
X133628313Y-49344364D01*
X133628302Y-49344366D01*
X133408511Y-49403258D01*
X133408502Y-49403261D01*
X133202267Y-49499431D01*
X133202265Y-49499432D01*
X133015858Y-49629954D01*
X132854954Y-49790858D01*
X132724432Y-49977265D01*
X132724431Y-49977267D01*
X132697382Y-50035275D01*
X132651209Y-50087714D01*
X132584016Y-50106866D01*
X132517135Y-50086650D01*
X132472618Y-50035275D01*
X132445568Y-49977267D01*
X132445567Y-49977265D01*
X132315045Y-49790858D01*
X132154141Y-49629954D01*
X131967734Y-49499432D01*
X131967732Y-49499431D01*
X131761497Y-49403261D01*
X131761488Y-49403258D01*
X131541697Y-49344366D01*
X131541693Y-49344365D01*
X131541692Y-49344365D01*
X131541691Y-49344364D01*
X131541686Y-49344364D01*
X131315002Y-49324532D01*
X131314998Y-49324532D01*
X131088313Y-49344364D01*
X131088302Y-49344366D01*
X130868511Y-49403258D01*
X130868502Y-49403261D01*
X130662267Y-49499431D01*
X130662265Y-49499432D01*
X130475858Y-49629954D01*
X130314954Y-49790858D01*
X130184432Y-49977265D01*
X130184431Y-49977267D01*
X130088261Y-50183502D01*
X130088258Y-50183511D01*
X130029366Y-50403302D01*
X130029364Y-50403313D01*
X130009532Y-50629998D01*
X130009532Y-50630001D01*
X129159032Y-50630001D01*
X129310050Y-50489877D01*
X129468959Y-50290612D01*
X129596393Y-50069888D01*
X129689508Y-49832637D01*
X129746222Y-49584157D01*
X129759778Y-49403258D01*
X129765268Y-49330004D01*
X129765268Y-49329995D01*
X129746222Y-49075845D01*
X129689509Y-48827369D01*
X129689508Y-48827363D01*
X129596393Y-48590112D01*
X129468959Y-48369388D01*
X129310050Y-48170123D01*
X129123217Y-47996768D01*
X128912634Y-47853195D01*
X128912630Y-47853193D01*
X128912627Y-47853191D01*
X128912626Y-47853190D01*
X128683006Y-47742612D01*
X128683008Y-47742612D01*
X128439466Y-47667489D01*
X128439462Y-47667488D01*
X128439458Y-47667487D01*
X128318231Y-47649214D01*
X128187440Y-47629500D01*
X128187435Y-47629500D01*
X127932565Y-47629500D01*
X127932564Y-47629500D01*
X125727441Y-47629500D01*
X125727435Y-47629500D01*
X125472565Y-47629500D01*
X125472559Y-47629500D01*
X125315609Y-47653157D01*
X125220542Y-47667487D01*
X125220538Y-47667488D01*
X125220539Y-47667488D01*
X125220533Y-47667489D01*
X124976992Y-47742612D01*
X124747373Y-47853190D01*
X124747372Y-47853191D01*
X124536782Y-47996768D01*
X124349952Y-48170121D01*
X124349950Y-48170123D01*
X124191041Y-48369388D01*
X124063608Y-48590109D01*
X123970492Y-48827362D01*
X123970490Y-48827369D01*
X123913777Y-49075845D01*
X123894732Y-49329995D01*
X123894732Y-49330004D01*
X123913777Y-49584154D01*
X123924230Y-49629953D01*
X123970492Y-49832637D01*
X124063607Y-50069888D01*
X124191041Y-50290612D01*
X124349950Y-50489877D01*
X124536783Y-50663232D01*
X124747366Y-50806805D01*
X124747371Y-50806807D01*
X124747372Y-50806808D01*
X124747373Y-50806809D01*
X124850945Y-50856686D01*
X124976992Y-50917387D01*
X124976993Y-50917387D01*
X124976996Y-50917389D01*
X125220542Y-50992513D01*
X125472565Y-51030500D01*
X125778789Y-51030500D01*
X125778798Y-51030499D01*
X126050500Y-51030499D01*
X126117539Y-51050184D01*
X126163294Y-51102988D01*
X126174500Y-51154499D01*
X126174500Y-58543751D01*
X126154815Y-58610790D01*
X126102011Y-58656545D01*
X126032853Y-58666489D01*
X126032140Y-58666384D01*
X125944680Y-58653201D01*
X125787440Y-58629500D01*
X125787435Y-58629500D01*
X125532565Y-58629500D01*
X125532564Y-58629500D01*
X123187441Y-58629500D01*
X123187435Y-58629500D01*
X122932565Y-58629500D01*
X122932559Y-58629500D01*
X122775609Y-58653157D01*
X122680542Y-58667487D01*
X122680538Y-58667488D01*
X122680539Y-58667488D01*
X122680533Y-58667489D01*
X122436992Y-58742612D01*
X122207373Y-58853190D01*
X122207372Y-58853191D01*
X122207366Y-58853194D01*
X122207366Y-58853195D01*
X122183870Y-58869214D01*
X121996782Y-58996768D01*
X121809952Y-59170121D01*
X121809950Y-59170123D01*
X121651041Y-59369388D01*
X121523608Y-59590109D01*
X121430492Y-59827362D01*
X121430490Y-59827369D01*
X121373777Y-60075845D01*
X121354732Y-60329995D01*
X121354732Y-60330004D01*
X119877757Y-60330004D01*
X119953608Y-60255007D01*
X120109084Y-60045232D01*
X120230715Y-59814181D01*
X120315651Y-59567271D01*
X120361900Y-59310290D01*
X120368379Y-59049260D01*
X120334938Y-58790301D01*
X120262357Y-58539481D01*
X120152340Y-58302679D01*
X119983632Y-58049711D01*
X119896338Y-57918819D01*
X119875518Y-57852123D01*
X119875500Y-57850018D01*
X119875500Y-57848983D01*
X119877027Y-57829582D01*
X119880160Y-57809804D01*
X119875775Y-57763415D01*
X119875500Y-57757577D01*
X119875500Y-53554100D01*
X119895185Y-53487061D01*
X119945695Y-53442381D01*
X120102634Y-53366805D01*
X120265351Y-53255866D01*
X120331828Y-53234366D01*
X120399378Y-53252220D01*
X120446553Y-53303760D01*
X120458373Y-53372622D01*
X120452669Y-53398033D01*
X120353785Y-53690521D01*
X120285319Y-54015789D01*
X120285319Y-54015794D01*
X120255805Y-54346853D01*
X120265655Y-54679112D01*
X120314731Y-55007857D01*
X120314732Y-55007862D01*
X120402345Y-55328494D01*
X120402346Y-55328498D01*
X120527264Y-55636511D01*
X120527269Y-55636522D01*
X120687740Y-55927599D01*
X120687740Y-55927600D01*
X120881520Y-56197667D01*
X120881529Y-56197677D01*
X121023944Y-56353352D01*
X121105877Y-56442914D01*
X121357666Y-56659906D01*
X121357671Y-56659909D01*
X121357677Y-56659914D01*
X121518625Y-56768320D01*
X121633353Y-56845595D01*
X121929067Y-56997374D01*
X122240656Y-57113113D01*
X122563747Y-57191187D01*
X122893805Y-57230500D01*
X122893812Y-57230500D01*
X123143025Y-57230500D01*
X123205218Y-57226809D01*
X123391807Y-57215736D01*
X123718956Y-57156939D01*
X124036854Y-57059862D01*
X124341040Y-56925868D01*
X124627243Y-56756837D01*
X124891445Y-56555142D01*
X125129937Y-56323616D01*
X125339373Y-56065506D01*
X125516810Y-55784438D01*
X125659760Y-55484357D01*
X125766215Y-55169475D01*
X125834680Y-54844212D01*
X125864195Y-54513134D01*
X125854345Y-54180890D01*
X125805269Y-53852142D01*
X125717655Y-53531506D01*
X125592733Y-53223483D01*
X125553715Y-53152709D01*
X125541371Y-53130317D01*
X125432258Y-52932397D01*
X125238481Y-52662335D01*
X125238479Y-52662332D01*
X125238470Y-52662322D01*
X125033666Y-52438449D01*
X125014123Y-52417086D01*
X125002852Y-52407373D01*
X124815953Y-52246303D01*
X124762334Y-52200094D01*
X124762330Y-52200091D01*
X124762322Y-52200085D01*
X124486653Y-52014409D01*
X124486652Y-52014408D01*
X124486649Y-52014406D01*
X124486647Y-52014405D01*
X124190933Y-51862626D01*
X124190928Y-51862624D01*
X124190926Y-51862623D01*
X123879348Y-51746888D01*
X123556254Y-51668813D01*
X123556249Y-51668812D01*
X123416687Y-51652189D01*
X123226195Y-51629500D01*
X122976977Y-51629500D01*
X122976975Y-51629500D01*
X122728198Y-51644263D01*
X122728191Y-51644264D01*
X122401043Y-51703061D01*
X122083142Y-51800139D01*
X121778960Y-51934131D01*
X121778955Y-51934134D01*
X121492765Y-52103157D01*
X121492748Y-52103169D01*
X121228553Y-52304859D01*
X121228544Y-52304867D01*
X121106329Y-52423513D01*
X121044517Y-52456086D01*
X120974907Y-52450069D01*
X120919600Y-52407373D01*
X120896155Y-52341554D01*
X120899066Y-52306949D01*
X120923454Y-52200096D01*
X120936222Y-52144157D01*
X120954585Y-51899113D01*
X120955268Y-51890004D01*
X120955268Y-51889995D01*
X120936222Y-51635845D01*
X120934898Y-51630045D01*
X120879508Y-51387363D01*
X120786393Y-51150112D01*
X120658959Y-50929388D01*
X120500050Y-50730123D01*
X120313217Y-50556768D01*
X120102634Y-50413195D01*
X120102630Y-50413193D01*
X120102627Y-50413191D01*
X120102626Y-50413190D01*
X119873006Y-50302612D01*
X119873008Y-50302612D01*
X119629466Y-50227489D01*
X119629462Y-50227488D01*
X119629458Y-50227487D01*
X119508231Y-50209214D01*
X119377440Y-50189500D01*
X119377435Y-50189500D01*
X119122565Y-50189500D01*
X119122559Y-50189500D01*
X118965609Y-50213157D01*
X118870542Y-50227487D01*
X118870538Y-50227488D01*
X118870539Y-50227488D01*
X118870533Y-50227489D01*
X118626992Y-50302612D01*
X118397373Y-50413190D01*
X118397372Y-50413191D01*
X118186782Y-50556768D01*
X117999952Y-50730121D01*
X117999950Y-50730123D01*
X117841041Y-50929388D01*
X117713608Y-51150109D01*
X117620492Y-51387362D01*
X117620490Y-51387369D01*
X117563777Y-51635845D01*
X117544732Y-51889995D01*
X117544732Y-51890004D01*
X117563777Y-52144154D01*
X117608832Y-52341554D01*
X117620492Y-52392637D01*
X117713607Y-52629888D01*
X117841041Y-52850612D01*
X117906265Y-52932400D01*
X117982653Y-53028187D01*
X118009061Y-53092874D01*
X117996306Y-53161569D01*
X117948435Y-53212463D01*
X117885706Y-53229500D01*
X117554497Y-53229500D01*
X117509601Y-53233660D01*
X117388464Y-53244884D01*
X117388462Y-53244885D01*
X117174476Y-53305769D01*
X117174461Y-53305775D01*
X116975316Y-53404938D01*
X116975308Y-53404943D01*
X116797761Y-53539020D01*
X116647876Y-53703437D01*
X116647874Y-53703439D01*
X116530754Y-53892595D01*
X116530752Y-53892601D01*
X116450382Y-54100061D01*
X116450382Y-54100062D01*
X116409499Y-54318759D01*
X116409499Y-54541240D01*
X116409500Y-54541243D01*
X116450382Y-54759940D01*
X116530752Y-54967398D01*
X116530754Y-54967404D01*
X116647874Y-55156560D01*
X116647876Y-55156562D01*
X116797761Y-55320979D01*
X116975308Y-55455056D01*
X116975316Y-55455061D01*
X117174461Y-55554224D01*
X117174465Y-55554225D01*
X117174472Y-55554229D01*
X117388464Y-55615115D01*
X117554497Y-55630500D01*
X117554501Y-55630500D01*
X117965499Y-55630500D01*
X117965503Y-55630500D01*
X118131536Y-55615115D01*
X118345528Y-55554229D01*
X118445227Y-55504584D01*
X118514013Y-55492323D01*
X118578508Y-55519196D01*
X118618236Y-55576671D01*
X118624500Y-55615584D01*
X118624500Y-56451155D01*
X118604815Y-56518194D01*
X118552011Y-56563949D01*
X118482853Y-56573893D01*
X118464687Y-56569871D01*
X118420995Y-56556690D01*
X118213043Y-56527438D01*
X118162434Y-56520319D01*
X118162433Y-56520319D01*
X117901347Y-56523841D01*
X117643858Y-56567178D01*
X117643847Y-56567180D01*
X117396009Y-56649311D01*
X117396002Y-56649314D01*
X117163591Y-56768319D01*
X116952075Y-56921403D01*
X116952067Y-56921409D01*
X116766392Y-57104992D01*
X116610916Y-57314766D01*
X116489287Y-57545814D01*
X116489282Y-57545826D01*
X116404349Y-57792728D01*
X116358100Y-58049709D01*
X116351620Y-58310740D01*
X116351620Y-58310741D01*
X116381160Y-58539481D01*
X116385062Y-58569699D01*
X116392252Y-58594545D01*
X116457640Y-58820512D01*
X116457642Y-58820517D01*
X116457643Y-58820519D01*
X116567660Y-59057321D01*
X116567663Y-59057326D01*
X116567665Y-59057329D01*
X116611401Y-59122908D01*
X116723465Y-59290942D01*
X116744285Y-59357637D01*
X116725742Y-59425001D01*
X116707984Y-59447423D01*
X115176208Y-60979199D01*
X115163951Y-60989020D01*
X115164134Y-60989241D01*
X115158122Y-60994214D01*
X115111432Y-61043932D01*
X115110079Y-61045329D01*
X115089889Y-61065519D01*
X115089877Y-61065532D01*
X115085621Y-61071017D01*
X115081837Y-61075447D01*
X115049937Y-61109418D01*
X115049936Y-61109420D01*
X115040284Y-61126976D01*
X115029610Y-61143226D01*
X115017329Y-61159061D01*
X115017324Y-61159068D01*
X114998815Y-61201838D01*
X114996245Y-61207084D01*
X114973803Y-61247906D01*
X114968822Y-61267307D01*
X114962521Y-61285710D01*
X114954562Y-61304102D01*
X114954561Y-61304105D01*
X114947271Y-61350127D01*
X114946087Y-61355846D01*
X114934501Y-61400972D01*
X114934500Y-61400982D01*
X114934500Y-61421016D01*
X114932973Y-61440415D01*
X114929840Y-61460194D01*
X114929840Y-61460195D01*
X114934225Y-61506583D01*
X114934500Y-61512421D01*
X114934500Y-73759547D01*
X114914815Y-73826586D01*
X114898181Y-73847228D01*
X113817228Y-74928181D01*
X113755905Y-74961666D01*
X113729547Y-74964500D01*
X112004218Y-74964500D01*
X111937179Y-74944815D01*
X111891424Y-74892011D01*
X111881480Y-74822853D01*
X111891837Y-74788094D01*
X111893900Y-74783669D01*
X111893903Y-74783663D01*
X111955063Y-74555408D01*
X111975659Y-74320000D01*
X111955063Y-74084592D01*
X111893903Y-73856337D01*
X111794035Y-73642171D01*
X111738702Y-73563146D01*
X111658494Y-73448597D01*
X111491402Y-73281506D01*
X111491396Y-73281501D01*
X111305842Y-73151575D01*
X111262217Y-73096998D01*
X111255023Y-73027500D01*
X111286546Y-72965145D01*
X111305842Y-72948425D01*
X111328026Y-72932891D01*
X111491401Y-72818495D01*
X111658495Y-72651401D01*
X111794035Y-72457830D01*
X111893903Y-72243663D01*
X111955063Y-72015408D01*
X111975659Y-71780000D01*
X111955063Y-71544592D01*
X111893903Y-71316337D01*
X111794035Y-71102171D01*
X111767594Y-71064408D01*
X111658494Y-70908597D01*
X111491402Y-70741506D01*
X111491396Y-70741501D01*
X111305842Y-70611575D01*
X111262217Y-70556998D01*
X111255023Y-70487500D01*
X111286546Y-70425145D01*
X111305842Y-70408425D01*
X111328026Y-70392891D01*
X111491401Y-70278495D01*
X111658495Y-70111401D01*
X111794035Y-69917830D01*
X111893903Y-69703663D01*
X111955063Y-69475408D01*
X111975659Y-69240000D01*
X111955063Y-69004592D01*
X111893903Y-68776337D01*
X111794035Y-68562171D01*
X111785115Y-68549431D01*
X111658494Y-68368597D01*
X111491402Y-68201506D01*
X111491396Y-68201501D01*
X111305842Y-68071575D01*
X111262217Y-68016998D01*
X111255023Y-67947500D01*
X111286546Y-67885145D01*
X111305842Y-67868425D01*
X111328026Y-67852891D01*
X111491401Y-67738495D01*
X111658495Y-67571401D01*
X111794035Y-67377830D01*
X111893903Y-67163663D01*
X111955063Y-66935408D01*
X111975659Y-66700000D01*
X111955063Y-66464592D01*
X111895601Y-66242673D01*
X111893905Y-66236344D01*
X111893904Y-66236343D01*
X111893903Y-66236337D01*
X111794035Y-66022171D01*
X111694045Y-65879369D01*
X111658494Y-65828597D01*
X111491402Y-65661506D01*
X111491396Y-65661501D01*
X111305842Y-65531575D01*
X111262217Y-65476998D01*
X111255023Y-65407500D01*
X111286546Y-65345145D01*
X111305842Y-65328425D01*
X111340796Y-65303950D01*
X111491401Y-65198495D01*
X111658495Y-65031401D01*
X111794035Y-64837830D01*
X111893903Y-64623663D01*
X111955063Y-64395408D01*
X111975659Y-64160000D01*
X111955063Y-63924592D01*
X111893903Y-63696337D01*
X111794035Y-63482171D01*
X111783572Y-63467227D01*
X111658494Y-63288597D01*
X111491402Y-63121506D01*
X111491396Y-63121501D01*
X111305842Y-62991575D01*
X111262217Y-62936998D01*
X111255023Y-62867500D01*
X111286546Y-62805145D01*
X111305842Y-62788425D01*
X111388186Y-62730767D01*
X111491401Y-62658495D01*
X111658495Y-62491401D01*
X111794035Y-62297830D01*
X111893903Y-62083663D01*
X111955063Y-61855408D01*
X111975659Y-61620000D01*
X111955063Y-61384592D01*
X111893903Y-61156337D01*
X111794035Y-60942171D01*
X111719805Y-60836158D01*
X111658494Y-60748597D01*
X111491402Y-60581506D01*
X111491393Y-60581498D01*
X111483646Y-60576074D01*
X111440021Y-60521497D01*
X111432829Y-60451998D01*
X111464352Y-60389644D01*
X111524582Y-60354231D01*
X111554770Y-60350500D01*
X113510240Y-60350500D01*
X113510383Y-60350528D01*
X113510384Y-60350524D01*
X113534997Y-60350539D01*
X113535000Y-60350541D01*
X113535383Y-60350383D01*
X113535500Y-60350099D01*
X113535541Y-60350000D01*
X113535540Y-60349997D01*
X113535583Y-60325889D01*
X113535500Y-60325467D01*
X113535500Y-45408480D01*
X113535890Y-45401537D01*
X113538471Y-45378629D01*
X113548933Y-45299163D01*
X113554827Y-45274407D01*
X113566775Y-45240263D01*
X113568006Y-45237035D01*
X113590474Y-45182794D01*
X113600021Y-45164313D01*
X113621922Y-45129459D01*
X113625197Y-45124752D01*
X113662003Y-45076786D01*
X113667323Y-45070718D01*
X113700718Y-45037323D01*
X113706786Y-45032003D01*
X113754752Y-44995197D01*
X113759459Y-44991922D01*
X113794313Y-44970021D01*
X113812794Y-44960474D01*
X113867035Y-44938006D01*
X113870263Y-44936775D01*
X113873351Y-44935694D01*
X113904407Y-44924827D01*
X113929163Y-44918933D01*
X114008629Y-44908471D01*
X114031541Y-44905889D01*
X114038481Y-44905500D01*
X151031519Y-44905500D01*
X151038456Y-44905889D01*
G37*
G04 #@! TD.AperFunction*
G04 #@! TA.AperFunction,NonConductor*
G36*
X151501453Y-82175424D02*
G01*
X151532581Y-82237976D01*
X151534500Y-82259706D01*
X151534500Y-101551513D01*
X151534110Y-101558459D01*
X151533721Y-101561909D01*
X151531528Y-101581366D01*
X151521066Y-101660829D01*
X151515169Y-101685597D01*
X151503223Y-101719735D01*
X151501983Y-101722984D01*
X151479536Y-101777180D01*
X151469967Y-101795702D01*
X151448097Y-101830508D01*
X151444786Y-101835267D01*
X151408005Y-101883200D01*
X151402653Y-101889304D01*
X151369304Y-101922653D01*
X151363200Y-101928005D01*
X151315267Y-101964786D01*
X151310508Y-101968097D01*
X151275702Y-101989967D01*
X151257180Y-101999536D01*
X151202984Y-102021983D01*
X151199735Y-102023223D01*
X151165597Y-102035169D01*
X151140829Y-102041066D01*
X151061367Y-102051528D01*
X151043828Y-102053505D01*
X151038458Y-102054110D01*
X151031514Y-102054500D01*
X137227659Y-102054500D01*
X137160620Y-102034815D01*
X137114865Y-101982011D01*
X137104921Y-101912853D01*
X137133946Y-101849297D01*
X137156535Y-101828925D01*
X137165044Y-101822967D01*
X137271401Y-101748495D01*
X137438495Y-101581401D01*
X137573651Y-101388377D01*
X137628229Y-101344752D01*
X137675227Y-101335500D01*
X146317257Y-101335500D01*
X146332877Y-101337224D01*
X146332904Y-101336939D01*
X146340666Y-101337673D01*
X146340666Y-101337672D01*
X146340667Y-101337673D01*
X146343999Y-101337568D01*
X146408847Y-101335531D01*
X146410794Y-101335500D01*
X146439347Y-101335500D01*
X146439350Y-101335500D01*
X146446228Y-101334630D01*
X146452041Y-101334172D01*
X146498627Y-101332709D01*
X146517869Y-101327117D01*
X146536912Y-101323174D01*
X146556792Y-101320664D01*
X146600122Y-101303507D01*
X146605646Y-101301617D01*
X146609396Y-101300527D01*
X146650390Y-101288618D01*
X146667629Y-101278422D01*
X146685103Y-101269862D01*
X146703727Y-101262488D01*
X146703727Y-101262487D01*
X146703732Y-101262486D01*
X146741449Y-101235082D01*
X146746305Y-101231892D01*
X146786420Y-101208170D01*
X146800589Y-101193999D01*
X146815379Y-101181368D01*
X146831587Y-101169594D01*
X146861299Y-101133676D01*
X146865212Y-101129376D01*
X149333786Y-98660802D01*
X149346048Y-98650980D01*
X149345865Y-98650759D01*
X149351873Y-98645788D01*
X149351877Y-98645786D01*
X149398649Y-98595977D01*
X149399891Y-98594697D01*
X149420120Y-98574470D01*
X149424373Y-98568986D01*
X149428150Y-98564563D01*
X149460062Y-98530582D01*
X149469714Y-98513023D01*
X149480389Y-98496772D01*
X149492674Y-98480936D01*
X149511186Y-98438152D01*
X149513742Y-98432935D01*
X149531483Y-98400666D01*
X149536194Y-98392098D01*
X149536194Y-98392097D01*
X149536197Y-98392092D01*
X149541180Y-98372680D01*
X149547477Y-98354291D01*
X149555438Y-98335895D01*
X149562729Y-98289853D01*
X149563908Y-98284162D01*
X149575500Y-98239019D01*
X149575500Y-98218982D01*
X149577027Y-98199582D01*
X149580160Y-98179804D01*
X149575775Y-98133415D01*
X149575500Y-98127577D01*
X149575500Y-82571678D01*
X149595185Y-82504639D01*
X149647989Y-82458884D01*
X149709227Y-82448060D01*
X149740222Y-82450500D01*
X149740230Y-82450500D01*
X150719770Y-82450500D01*
X150719778Y-82450500D01*
X150800578Y-82444141D01*
X150988496Y-82393788D01*
X151161840Y-82305465D01*
X151313032Y-82183032D01*
X151314134Y-82181670D01*
X151314971Y-82181092D01*
X151317627Y-82178437D01*
X151318112Y-82178922D01*
X151371617Y-82141960D01*
X151441448Y-82139630D01*
X151501453Y-82175424D01*
G37*
G04 #@! TD.AperFunction*
G04 #@! TA.AperFunction,NonConductor*
G36*
X113916587Y-81315185D02*
G01*
X113937229Y-81331819D01*
X114898181Y-82292771D01*
X114931666Y-82354094D01*
X114934500Y-82380452D01*
X114934500Y-98377255D01*
X114932775Y-98392872D01*
X114933061Y-98392899D01*
X114932326Y-98400666D01*
X114934469Y-98468846D01*
X114934500Y-98470793D01*
X114934500Y-98499343D01*
X114934501Y-98499360D01*
X114935368Y-98506231D01*
X114935826Y-98512050D01*
X114937290Y-98558624D01*
X114937291Y-98558627D01*
X114942880Y-98577867D01*
X114946824Y-98596911D01*
X114949336Y-98616791D01*
X114966490Y-98660119D01*
X114968382Y-98665647D01*
X114981381Y-98710388D01*
X114991580Y-98727634D01*
X115000138Y-98745103D01*
X115007514Y-98763732D01*
X115034898Y-98801423D01*
X115038106Y-98806307D01*
X115061827Y-98846416D01*
X115061833Y-98846424D01*
X115075990Y-98860580D01*
X115088628Y-98875376D01*
X115100405Y-98891586D01*
X115100406Y-98891587D01*
X115136309Y-98921288D01*
X115140620Y-98925210D01*
X116227421Y-100012011D01*
X117309194Y-101093784D01*
X117319019Y-101106048D01*
X117319240Y-101105866D01*
X117324210Y-101111874D01*
X117373949Y-101158582D01*
X117375316Y-101159906D01*
X117395530Y-101180120D01*
X117401004Y-101184366D01*
X117405442Y-101188156D01*
X117439418Y-101220062D01*
X117439422Y-101220064D01*
X117456973Y-101229713D01*
X117473231Y-101240392D01*
X117489064Y-101252674D01*
X117511015Y-101262172D01*
X117531837Y-101271183D01*
X117537081Y-101273752D01*
X117577908Y-101296197D01*
X117597312Y-101301179D01*
X117615710Y-101307478D01*
X117634105Y-101315438D01*
X117680129Y-101322726D01*
X117685832Y-101323907D01*
X117730981Y-101335500D01*
X117751016Y-101335500D01*
X117770413Y-101337026D01*
X117790196Y-101340160D01*
X117836583Y-101335775D01*
X117842422Y-101335500D01*
X127355427Y-101335500D01*
X127422466Y-101355185D01*
X127468221Y-101407989D01*
X127475200Y-101427402D01*
X127486212Y-101468496D01*
X127574535Y-101641840D01*
X127696968Y-101793032D01*
X127743247Y-101830508D01*
X127747725Y-101834134D01*
X127787436Y-101891621D01*
X127789764Y-101961452D01*
X127753968Y-102021456D01*
X127691415Y-102052582D01*
X127669689Y-102054500D01*
X114038486Y-102054500D01*
X114031540Y-102054110D01*
X114027397Y-102053643D01*
X114008632Y-102051528D01*
X113929169Y-102041066D01*
X113904401Y-102035169D01*
X113870263Y-102023223D01*
X113867014Y-102021983D01*
X113825803Y-102004914D01*
X113812813Y-101999533D01*
X113794296Y-101989967D01*
X113759490Y-101968097D01*
X113754731Y-101964786D01*
X113706798Y-101928005D01*
X113700702Y-101922660D01*
X113667337Y-101889295D01*
X113661993Y-101883200D01*
X113625212Y-101835267D01*
X113621909Y-101830520D01*
X113600027Y-101795695D01*
X113590469Y-101777195D01*
X113568015Y-101722984D01*
X113566775Y-101719735D01*
X113554829Y-101685597D01*
X113548932Y-101660831D01*
X113538469Y-101581354D01*
X113535889Y-101558456D01*
X113535500Y-101551519D01*
X113535500Y-83234759D01*
X113535528Y-83234616D01*
X113535524Y-83234616D01*
X113535539Y-83210002D01*
X113535541Y-83210000D01*
X113535462Y-83209808D01*
X113535384Y-83209618D01*
X113535383Y-83209617D01*
X113535381Y-83209616D01*
X113535090Y-83209496D01*
X113535001Y-83209459D01*
X113510446Y-83209459D01*
X113510240Y-83209500D01*
X111554770Y-83209500D01*
X111487731Y-83189815D01*
X111441976Y-83137011D01*
X111432032Y-83067853D01*
X111461057Y-83004297D01*
X111483646Y-82983926D01*
X111491393Y-82978501D01*
X111491395Y-82978499D01*
X111491401Y-82978495D01*
X111658495Y-82811401D01*
X111794035Y-82617830D01*
X111893903Y-82403663D01*
X111955063Y-82175408D01*
X111975659Y-81940000D01*
X111955063Y-81704592D01*
X111893903Y-81476337D01*
X111891837Y-81471906D01*
X111881344Y-81402829D01*
X111909863Y-81339045D01*
X111968339Y-81300804D01*
X112004218Y-81295500D01*
X113849548Y-81295500D01*
X113916587Y-81315185D01*
G37*
G04 #@! TD.AperFunction*
M02*
