G04 #@! TF.GenerationSoftware,KiCad,Pcbnew,7.0.5*
G04 #@! TF.CreationDate,2023-08-20T02:00:58+08:00*
G04 #@! TF.ProjectId,RM,524d2e6b-6963-4616-945f-706362585858,rev?*
G04 #@! TF.SameCoordinates,Original*
G04 #@! TF.FileFunction,Legend,Bot*
G04 #@! TF.FilePolarity,Positive*
%FSLAX46Y46*%
G04 Gerber Fmt 4.6, Leading zero omitted, Abs format (unit mm)*
G04 Created by KiCad (PCBNEW 7.0.5) date 2023-08-20 02:00:58*
%MOMM*%
%LPD*%
G01*
G04 APERTURE LIST*
G04 Aperture macros list*
%AMRoundRect*
0 Rectangle with rounded corners*
0 $1 Rounding radius*
0 $2 $3 $4 $5 $6 $7 $8 $9 X,Y pos of 4 corners*
0 Add a 4 corners polygon primitive as box body*
4,1,4,$2,$3,$4,$5,$6,$7,$8,$9,$2,$3,0*
0 Add four circle primitives for the rounded corners*
1,1,$1+$1,$2,$3*
1,1,$1+$1,$4,$5*
1,1,$1+$1,$6,$7*
1,1,$1+$1,$8,$9*
0 Add four rect primitives between the rounded corners*
20,1,$1+$1,$2,$3,$4,$5,0*
20,1,$1+$1,$4,$5,$6,$7,0*
20,1,$1+$1,$6,$7,$8,$9,0*
20,1,$1+$1,$8,$9,$2,$3,0*%
%AMHorizOval*
0 Thick line with rounded ends*
0 $1 width*
0 $2 $3 position (X,Y) of the first rounded end (center of the circle)*
0 $4 $5 position (X,Y) of the second rounded end (center of the circle)*
0 Add line between two ends*
20,1,$1,$2,$3,$4,$5,0*
0 Add two circle primitives to create the rounded ends*
1,1,$1,$2,$3*
1,1,$1,$4,$5*%
%AMOutline4P*
0 Free polygon, 4 corners , with rotation*
0 The origin of the aperture is its center*
0 number of corners: always 4*
0 $1 to $8 corner X, Y*
0 $9 Rotation angle, in degrees counterclockwise*
0 create outline with 4 corners*
4,1,4,$1,$2,$3,$4,$5,$6,$7,$8,$1,$2,$9*%
G04 Aperture macros list end*
%ADD10C,0.150000*%
%ADD11C,0.120000*%
%ADD12C,0.100000*%
%ADD13O,2.200000X1.900000*%
%ADD14C,5.100000*%
%ADD15HorizOval,2.400000X-0.305164X0.457575X0.305164X-0.457575X0*%
%ADD16C,2.400000*%
%ADD17Outline4P,-1.150000X-1.200000X1.150000X-1.200000X1.150000X1.200000X-1.150000X1.200000X0.000000*%
%ADD18Outline4P,-1.200000X-1.200000X1.200000X-1.200000X1.200000X1.200000X-1.200000X1.200000X0.000000*%
%ADD19RoundRect,0.425000X0.425000X-0.425000X0.425000X0.425000X-0.425000X0.425000X-0.425000X-0.425000X0*%
%ADD20O,1.700000X1.700000*%
%ADD21C,3.500000*%
%ADD22C,1.700000*%
%ADD23RoundRect,0.425000X-0.425000X-0.425000X0.425000X-0.425000X0.425000X0.425000X-0.425000X0.425000X0*%
%ADD24R,1.600000X1.600000*%
%ADD25RoundRect,0.225000X0.375000X-0.225000X0.375000X0.225000X-0.375000X0.225000X-0.375000X-0.225000X0*%
%ADD26O,1.600000X1.600000*%
G04 APERTURE END LIST*
D10*
X150441904Y-46594819D02*
X150775237Y-46118628D01*
X151013332Y-46594819D02*
X151013332Y-45594819D01*
X151013332Y-45594819D02*
X150632380Y-45594819D01*
X150632380Y-45594819D02*
X150537142Y-45642438D01*
X150537142Y-45642438D02*
X150489523Y-45690057D01*
X150489523Y-45690057D02*
X150441904Y-45785295D01*
X150441904Y-45785295D02*
X150441904Y-45928152D01*
X150441904Y-45928152D02*
X150489523Y-46023390D01*
X150489523Y-46023390D02*
X150537142Y-46071009D01*
X150537142Y-46071009D02*
X150632380Y-46118628D01*
X150632380Y-46118628D02*
X151013332Y-46118628D01*
X150013332Y-46594819D02*
X150013332Y-45594819D01*
X150013332Y-45594819D02*
X149679999Y-46309104D01*
X149679999Y-46309104D02*
X149346666Y-45594819D01*
X149346666Y-45594819D02*
X149346666Y-46594819D01*
D11*
X131315000Y-76240000D02*
X131315000Y-75780000D01*
X130195000Y-75780000D02*
X130195000Y-71180000D01*
X132435000Y-75780000D02*
X130195000Y-75780000D01*
D12*
X131315000Y-74205600D02*
X131315000Y-73805600D01*
X131315000Y-73805600D02*
X130765000Y-73805600D01*
X131315000Y-73805600D02*
X131865000Y-73805600D01*
X131315000Y-73805600D02*
X131715000Y-73205600D01*
X130915000Y-73205600D02*
X131315000Y-73805600D01*
X131315000Y-73205600D02*
X131315000Y-72705600D01*
X131715000Y-73205600D02*
X130915000Y-73205600D01*
D11*
X130195000Y-71180000D02*
X132435000Y-71180000D01*
X132435000Y-71180000D02*
X132435000Y-75780000D01*
X131315000Y-70700000D02*
X131315000Y-71180000D01*
X133855000Y-95290000D02*
X133855000Y-94830000D01*
X132735000Y-94830000D02*
X132735000Y-90230000D01*
X134975000Y-94830000D02*
X132735000Y-94830000D01*
D12*
X133855000Y-93255600D02*
X133855000Y-92855600D01*
X133855000Y-92855600D02*
X133305000Y-92855600D01*
X133855000Y-92855600D02*
X134405000Y-92855600D01*
X133855000Y-92855600D02*
X134255000Y-92255600D01*
X133455000Y-92255600D02*
X133855000Y-92855600D01*
X133855000Y-92255600D02*
X133855000Y-91755600D01*
X134255000Y-92255600D02*
X133455000Y-92255600D01*
D11*
X132735000Y-90230000D02*
X134975000Y-90230000D01*
X134975000Y-90230000D02*
X134975000Y-94830000D01*
X133855000Y-89750000D02*
X133855000Y-90230000D01*
X131315000Y-95290000D02*
X131315000Y-94830000D01*
X130195000Y-94830000D02*
X130195000Y-90230000D01*
X132435000Y-94830000D02*
X130195000Y-94830000D01*
D12*
X131315000Y-93255600D02*
X131315000Y-92855600D01*
X131315000Y-92855600D02*
X130765000Y-92855600D01*
X131315000Y-92855600D02*
X131865000Y-92855600D01*
X131315000Y-92855600D02*
X131715000Y-92255600D01*
X130915000Y-92255600D02*
X131315000Y-92855600D01*
X131315000Y-92255600D02*
X131315000Y-91755600D01*
X131715000Y-92255600D02*
X130915000Y-92255600D01*
D11*
X130195000Y-90230000D02*
X132435000Y-90230000D01*
X132435000Y-90230000D02*
X132435000Y-94830000D01*
X131315000Y-89750000D02*
X131315000Y-90230000D01*
X131315000Y-57190000D02*
X131315000Y-56730000D01*
X130195000Y-56730000D02*
X130195000Y-52130000D01*
X132435000Y-56730000D02*
X130195000Y-56730000D01*
D12*
X131315000Y-55155600D02*
X131315000Y-54755600D01*
X131315000Y-54755600D02*
X130765000Y-54755600D01*
X131315000Y-54755600D02*
X131865000Y-54755600D01*
X131315000Y-54755600D02*
X131715000Y-54155600D01*
X130915000Y-54155600D02*
X131315000Y-54755600D01*
X131315000Y-54155600D02*
X131315000Y-53655600D01*
X131715000Y-54155600D02*
X130915000Y-54155600D01*
D11*
X130195000Y-52130000D02*
X132435000Y-52130000D01*
X132435000Y-52130000D02*
X132435000Y-56730000D01*
X131315000Y-51650000D02*
X131315000Y-52130000D01*
X133855000Y-76240000D02*
X133855000Y-75780000D01*
X132735000Y-75780000D02*
X132735000Y-71180000D01*
X134975000Y-75780000D02*
X132735000Y-75780000D01*
D12*
X133855000Y-74205600D02*
X133855000Y-73805600D01*
X133855000Y-73805600D02*
X133305000Y-73805600D01*
X133855000Y-73805600D02*
X134405000Y-73805600D01*
X133855000Y-73805600D02*
X134255000Y-73205600D01*
X133455000Y-73205600D02*
X133855000Y-73805600D01*
X133855000Y-73205600D02*
X133855000Y-72705600D01*
X134255000Y-73205600D02*
X133455000Y-73205600D01*
D11*
X132735000Y-71180000D02*
X134975000Y-71180000D01*
X134975000Y-71180000D02*
X134975000Y-75780000D01*
X133855000Y-70700000D02*
X133855000Y-71180000D01*
X133855000Y-57190000D02*
X133855000Y-56730000D01*
X132735000Y-56730000D02*
X132735000Y-52130000D01*
X134975000Y-56730000D02*
X132735000Y-56730000D01*
D12*
X133855000Y-55155600D02*
X133855000Y-54755600D01*
X133855000Y-54755600D02*
X133305000Y-54755600D01*
X133855000Y-54755600D02*
X134405000Y-54755600D01*
X133855000Y-54755600D02*
X134255000Y-54155600D01*
X133455000Y-54155600D02*
X133855000Y-54755600D01*
X133855000Y-54155600D02*
X133855000Y-53655600D01*
X134255000Y-54155600D02*
X133455000Y-54155600D01*
D11*
X132735000Y-52130000D02*
X134975000Y-52130000D01*
X134975000Y-52130000D02*
X134975000Y-56730000D01*
X133855000Y-51650000D02*
X133855000Y-52130000D01*
%LPC*%
D13*
X136810000Y-54430000D03*
D14*
X142110000Y-54430000D03*
D13*
X147410000Y-54430000D03*
D15*
X137410000Y-58680000D03*
D16*
X138300000Y-51890000D03*
X142110000Y-60330000D03*
D17*
X143410000Y-60330000D03*
D16*
X144650000Y-49330000D03*
X144710000Y-60330000D03*
D18*
X145880000Y-49330000D03*
D16*
X147110000Y-49330000D03*
D13*
X117760000Y-54430000D03*
D14*
X123060000Y-54430000D03*
D13*
X128360000Y-54430000D03*
D15*
X118360000Y-58680000D03*
D16*
X119250000Y-51890000D03*
X123060000Y-60330000D03*
D17*
X124360000Y-60330000D03*
D16*
X125600000Y-49330000D03*
X125660000Y-60330000D03*
D18*
X126830000Y-49330000D03*
D16*
X128060000Y-49330000D03*
D19*
X128780000Y-100710000D03*
D20*
X131320000Y-100710000D03*
X133860000Y-100710000D03*
X136400000Y-100710000D03*
D21*
X132585000Y-83005000D03*
X132585000Y-63955000D03*
D22*
X150230000Y-65860000D03*
D20*
X150230000Y-68400000D03*
X150230000Y-70940000D03*
X150230000Y-73480000D03*
D23*
X150230000Y-76020000D03*
X150230000Y-78560000D03*
X150230000Y-81100000D03*
D13*
X117760000Y-92530000D03*
D14*
X123060000Y-92530000D03*
D13*
X128360000Y-92530000D03*
D15*
X118360000Y-96780000D03*
D16*
X119250000Y-89990000D03*
X123060000Y-98430000D03*
D17*
X124360000Y-98430000D03*
D16*
X125600000Y-87430000D03*
X125660000Y-98430000D03*
D18*
X126830000Y-87430000D03*
D16*
X128060000Y-87430000D03*
D13*
X136810000Y-73480000D03*
D14*
X142110000Y-73480000D03*
D13*
X147410000Y-73480000D03*
D15*
X137410000Y-77730000D03*
D16*
X138300000Y-70940000D03*
X142110000Y-79380000D03*
D17*
X143410000Y-79380000D03*
D16*
X144650000Y-68380000D03*
X144710000Y-79380000D03*
D18*
X145880000Y-68380000D03*
D16*
X147110000Y-68380000D03*
D13*
X136810000Y-92530000D03*
D14*
X142110000Y-92530000D03*
D13*
X147410000Y-92530000D03*
D15*
X137410000Y-96780000D03*
D16*
X138300000Y-89990000D03*
X142110000Y-98430000D03*
D17*
X143410000Y-98430000D03*
D16*
X144650000Y-87430000D03*
X144710000Y-98430000D03*
D18*
X145880000Y-87430000D03*
D16*
X147110000Y-87430000D03*
D13*
X117760000Y-73480000D03*
D14*
X123060000Y-73480000D03*
D13*
X128360000Y-73480000D03*
D15*
X118360000Y-77730000D03*
D16*
X119250000Y-70940000D03*
X123060000Y-79380000D03*
D17*
X124360000Y-79380000D03*
D16*
X125600000Y-68380000D03*
X125660000Y-79380000D03*
D18*
X126830000Y-68380000D03*
D16*
X128060000Y-68380000D03*
D24*
X131315000Y-77280000D03*
D25*
X131315000Y-75130000D03*
X131315000Y-71830000D03*
D26*
X131315000Y-69680000D03*
D24*
X133855000Y-96330000D03*
D25*
X133855000Y-94180000D03*
X133855000Y-90880000D03*
D26*
X133855000Y-88730000D03*
D22*
X110620000Y-61620000D03*
D20*
X110620000Y-64160000D03*
X110620000Y-66700000D03*
X110620000Y-69240000D03*
X110620000Y-71780000D03*
X110620000Y-74320000D03*
X110620000Y-76860000D03*
X110620000Y-79400000D03*
X110620000Y-81940000D03*
X108080000Y-61620000D03*
X108080000Y-64160000D03*
X108080000Y-66700000D03*
X108080000Y-69240000D03*
X108080000Y-71780000D03*
X108080000Y-74320000D03*
X108080000Y-76860000D03*
X108080000Y-79400000D03*
X108080000Y-81940000D03*
D24*
X131315000Y-96330000D03*
D25*
X131315000Y-94180000D03*
X131315000Y-90880000D03*
D26*
X131315000Y-88730000D03*
D24*
X131315000Y-58230000D03*
D25*
X131315000Y-56080000D03*
X131315000Y-52780000D03*
D26*
X131315000Y-50630000D03*
D24*
X133855000Y-77280000D03*
D25*
X133855000Y-75130000D03*
X133855000Y-71830000D03*
D26*
X133855000Y-69680000D03*
D24*
X133855000Y-58230000D03*
D25*
X133855000Y-56080000D03*
X133855000Y-52780000D03*
D26*
X133855000Y-50630000D03*
%LPD*%
M02*
