G04 #@! TF.GenerationSoftware,KiCad,Pcbnew,7.0.5*
G04 #@! TF.CreationDate,2023-08-10T21:37:04+08:00*
G04 #@! TF.ProjectId,RM,524d2e6b-6963-4616-945f-706362585858,rev?*
G04 #@! TF.SameCoordinates,Original*
G04 #@! TF.FileFunction,Copper,L1,Top*
G04 #@! TF.FilePolarity,Positive*
%FSLAX46Y46*%
G04 Gerber Fmt 4.6, Leading zero omitted, Abs format (unit mm)*
G04 Created by KiCad (PCBNEW 7.0.5) date 2023-08-10 21:37:04*
%MOMM*%
%LPD*%
G01*
G04 APERTURE LIST*
G04 Aperture macros list*
%AMRoundRect*
0 Rectangle with rounded corners*
0 $1 Rounding radius*
0 $2 $3 $4 $5 $6 $7 $8 $9 X,Y pos of 4 corners*
0 Add a 4 corners polygon primitive as box body*
4,1,4,$2,$3,$4,$5,$6,$7,$8,$9,$2,$3,0*
0 Add four circle primitives for the rounded corners*
1,1,$1+$1,$2,$3*
1,1,$1+$1,$4,$5*
1,1,$1+$1,$6,$7*
1,1,$1+$1,$8,$9*
0 Add four rect primitives between the rounded corners*
20,1,$1+$1,$2,$3,$4,$5,0*
20,1,$1+$1,$4,$5,$6,$7,0*
20,1,$1+$1,$6,$7,$8,$9,0*
20,1,$1+$1,$8,$9,$2,$3,0*%
%AMHorizOval*
0 Thick line with rounded ends*
0 $1 width*
0 $2 $3 position (X,Y) of the first rounded end (center of the circle)*
0 $4 $5 position (X,Y) of the second rounded end (center of the circle)*
0 Add line between two ends*
20,1,$1,$2,$3,$4,$5,0*
0 Add two circle primitives to create the rounded ends*
1,1,$1,$2,$3*
1,1,$1,$4,$5*%
%AMOutline4P*
0 Free polygon, 4 corners , with rotation*
0 The origin of the aperture is its center*
0 number of corners: always 4*
0 $1 to $8 corner X, Y*
0 $9 Rotation angle, in degrees counterclockwise*
0 create outline with 4 corners*
4,1,4,$1,$2,$3,$4,$5,$6,$7,$8,$1,$2,$9*%
G04 Aperture macros list end*
G04 #@! TA.AperFunction,ComponentPad*
%ADD10HorizOval,2.400000X-0.305164X0.457575X0.305164X-0.457575X0*%
G04 #@! TD*
G04 #@! TA.AperFunction,ComponentPad*
%ADD11C,2.400000*%
G04 #@! TD*
G04 #@! TA.AperFunction,SMDPad,CuDef*
%ADD12Outline4P,-1.300000X-1.200000X1.300000X-1.200000X1.300000X1.200000X-1.300000X1.200000X0.000000*%
G04 #@! TD*
G04 #@! TA.AperFunction,SMDPad,CuDef*
%ADD13Outline4P,-1.200000X-1.200000X1.200000X-1.200000X1.200000X1.200000X-1.200000X1.200000X0.000000*%
G04 #@! TD*
G04 #@! TA.AperFunction,ComponentPad*
%ADD14RoundRect,0.425000X0.425000X-0.425000X0.425000X0.425000X-0.425000X0.425000X-0.425000X-0.425000X0*%
G04 #@! TD*
G04 #@! TA.AperFunction,ComponentPad*
%ADD15O,1.700000X1.700000*%
G04 #@! TD*
G04 #@! TA.AperFunction,ComponentPad*
%ADD16C,1.700000*%
G04 #@! TD*
G04 #@! TA.AperFunction,ComponentPad*
%ADD17RoundRect,0.425000X-0.425000X-0.425000X0.425000X-0.425000X0.425000X0.425000X-0.425000X0.425000X0*%
G04 #@! TD*
G04 #@! TA.AperFunction,ComponentPad*
%ADD18R,1.600000X1.600000*%
G04 #@! TD*
G04 #@! TA.AperFunction,ComponentPad*
%ADD19O,1.600000X1.600000*%
G04 #@! TD*
G04 #@! TA.AperFunction,ViaPad*
%ADD20C,0.800000*%
G04 #@! TD*
G04 #@! TA.AperFunction,Conductor*
%ADD21C,0.250000*%
G04 #@! TD*
G04 APERTURE END LIST*
D10*
X137410000Y-58680000D03*
D11*
X138300000Y-51890000D03*
X142110000Y-60330000D03*
D12*
X143410000Y-60330000D03*
D11*
X144650000Y-49330000D03*
X144710000Y-60330000D03*
D13*
X145880000Y-49330000D03*
D11*
X147110000Y-49330000D03*
D10*
X118360000Y-58680000D03*
D11*
X119250000Y-51890000D03*
X123060000Y-60330000D03*
D12*
X124360000Y-60330000D03*
D11*
X125600000Y-49330000D03*
X125660000Y-60330000D03*
D13*
X126830000Y-49330000D03*
D11*
X128060000Y-49330000D03*
D14*
X128780000Y-100710000D03*
D15*
X131320000Y-100710000D03*
X133860000Y-100710000D03*
X136400000Y-100710000D03*
D16*
X150230000Y-65860000D03*
D15*
X150230000Y-68400000D03*
X150230000Y-70940000D03*
X150230000Y-73480000D03*
D17*
X150230000Y-76020000D03*
X150230000Y-78560000D03*
X150230000Y-81100000D03*
D10*
X118360000Y-96780000D03*
D11*
X119250000Y-89990000D03*
X123060000Y-98430000D03*
D12*
X124360000Y-98430000D03*
D11*
X125600000Y-87430000D03*
X125660000Y-98430000D03*
D13*
X126830000Y-87430000D03*
D11*
X128060000Y-87430000D03*
D10*
X137410000Y-77730000D03*
D11*
X138300000Y-70940000D03*
X142110000Y-79380000D03*
D12*
X143410000Y-79380000D03*
D11*
X144650000Y-68380000D03*
X144710000Y-79380000D03*
D13*
X145880000Y-68380000D03*
D11*
X147110000Y-68380000D03*
D10*
X137410000Y-96780000D03*
D11*
X138300000Y-89990000D03*
X142110000Y-98430000D03*
D12*
X143410000Y-98430000D03*
D11*
X144650000Y-87430000D03*
X144710000Y-98430000D03*
D13*
X145880000Y-87430000D03*
D11*
X147110000Y-87430000D03*
D10*
X118360000Y-77730000D03*
D11*
X119250000Y-70940000D03*
X123060000Y-79380000D03*
D12*
X124360000Y-79380000D03*
D11*
X125600000Y-68380000D03*
X125660000Y-79380000D03*
D13*
X126830000Y-68380000D03*
D11*
X128060000Y-68380000D03*
D18*
X131315000Y-77280000D03*
D19*
X131315000Y-69680000D03*
D18*
X133855000Y-96330000D03*
D19*
X133855000Y-88730000D03*
D16*
X110620000Y-61620000D03*
D15*
X110620000Y-64160000D03*
X110620000Y-66700000D03*
X110620000Y-69240000D03*
X110620000Y-71780000D03*
X110620000Y-74320000D03*
X110620000Y-76860000D03*
X110620000Y-79400000D03*
X110620000Y-81940000D03*
X108080000Y-61620000D03*
X108080000Y-64160000D03*
X108080000Y-66700000D03*
X108080000Y-69240000D03*
X108080000Y-71780000D03*
X108080000Y-74320000D03*
X108080000Y-76860000D03*
X108080000Y-79400000D03*
X108080000Y-81940000D03*
D18*
X131315000Y-96330000D03*
D19*
X131315000Y-88730000D03*
D18*
X131315000Y-58230000D03*
D19*
X131315000Y-50630000D03*
D18*
X133855000Y-77280000D03*
D19*
X133855000Y-69680000D03*
D18*
X133855000Y-58230000D03*
D19*
X133855000Y-50630000D03*
D20*
X130190000Y-80544500D03*
X134980000Y-79820000D03*
X146759500Y-77005500D03*
D21*
X110620000Y-81940000D02*
X128794500Y-81940000D01*
X128794500Y-81940000D02*
X130190000Y-80544500D01*
X128060000Y-49330000D02*
X130015000Y-49330000D01*
X130015000Y-49330000D02*
X131315000Y-50630000D01*
X135155000Y-49330000D02*
X133855000Y-50630000D01*
X144650000Y-49330000D02*
X135155000Y-49330000D01*
X128060000Y-68380000D02*
X130015000Y-68380000D01*
X130015000Y-68380000D02*
X131315000Y-69680000D01*
X134980000Y-79820000D02*
X129889195Y-79820000D01*
X115570000Y-81490000D02*
X113480000Y-79400000D01*
X129889195Y-79820000D02*
X128219195Y-81490000D01*
X113480000Y-79400000D02*
X110620000Y-79400000D01*
X128219195Y-81490000D02*
X115570000Y-81490000D01*
X144650000Y-68380000D02*
X135155000Y-68380000D01*
X135155000Y-68380000D02*
X133855000Y-69680000D01*
X130015000Y-87430000D02*
X131315000Y-88730000D01*
X128060000Y-87430000D02*
X130015000Y-87430000D01*
X135155000Y-87430000D02*
X133855000Y-88730000D01*
X144650000Y-87430000D02*
X135155000Y-87430000D01*
X131500000Y-66370000D02*
X130430000Y-65300000D01*
X150230000Y-65860000D02*
X149620000Y-65250000D01*
X112523604Y-69240000D02*
X110620000Y-69240000D01*
X149620000Y-65250000D02*
X134780000Y-65250000D01*
X130430000Y-65300000D02*
X116463604Y-65300000D01*
X116463604Y-65300000D02*
X112523604Y-69240000D01*
X133660000Y-66370000D02*
X131500000Y-66370000D01*
X134780000Y-65250000D02*
X133660000Y-66370000D01*
X131313604Y-66820000D02*
X133850000Y-66820000D01*
X134970000Y-65700000D02*
X147530000Y-65700000D01*
X112790000Y-71780000D02*
X114330000Y-70240000D01*
X110620000Y-71780000D02*
X112790000Y-71780000D01*
X116650000Y-65750000D02*
X130243604Y-65750000D01*
X114330000Y-70240000D02*
X114330000Y-68070000D01*
X133850000Y-66820000D02*
X134970000Y-65700000D01*
X147530000Y-65700000D02*
X150230000Y-68400000D01*
X130243604Y-65750000D02*
X131313604Y-66820000D01*
X114330000Y-68070000D02*
X116650000Y-65750000D01*
X130057208Y-66200000D02*
X131127208Y-67270000D01*
X113130000Y-74320000D02*
X114780000Y-72670000D01*
X147343604Y-66150000D02*
X148960000Y-67766396D01*
X114780000Y-72670000D02*
X114780000Y-68256396D01*
X148960000Y-69670000D02*
X150230000Y-70940000D01*
X110620000Y-74320000D02*
X113130000Y-74320000D01*
X134036396Y-67270000D02*
X135156396Y-66150000D01*
X148960000Y-67766396D02*
X148960000Y-69670000D01*
X131127208Y-67270000D02*
X134036396Y-67270000D01*
X135156396Y-66150000D02*
X147343604Y-66150000D01*
X114780000Y-68256396D02*
X116836396Y-66200000D01*
X116836396Y-66200000D02*
X130057208Y-66200000D01*
X146759500Y-77005500D02*
X146759500Y-76950500D01*
X146759500Y-76950500D02*
X150230000Y-73480000D01*
X138185000Y-75705000D02*
X130003604Y-75705000D01*
X139485500Y-77005500D02*
X138185000Y-75705000D01*
X128428604Y-77280000D02*
X120930000Y-77280000D01*
X114656787Y-75653213D02*
X113450000Y-76860000D01*
X120930000Y-77280000D02*
X119303213Y-75653213D01*
X119303213Y-75653213D02*
X114656787Y-75653213D01*
X113450000Y-76860000D02*
X110620000Y-76860000D01*
X146759500Y-77005500D02*
X139485500Y-77005500D01*
X130003604Y-75705000D02*
X128428604Y-77280000D01*
X118360000Y-58680000D02*
X128615000Y-58680000D01*
X130190000Y-57105000D02*
X135835000Y-57105000D01*
X128615000Y-58680000D02*
X130190000Y-57105000D01*
X135835000Y-57105000D02*
X137410000Y-58680000D01*
X137410000Y-77730000D02*
X149400000Y-77730000D01*
X130190000Y-76155000D02*
X135835000Y-76155000D01*
X135835000Y-76155000D02*
X137410000Y-77730000D01*
X118360000Y-77730000D02*
X128615000Y-77730000D01*
X128615000Y-77730000D02*
X130190000Y-76155000D01*
X149400000Y-77730000D02*
X150230000Y-78560000D01*
X108080000Y-76860000D02*
X109340000Y-78120000D01*
X117970000Y-78120000D02*
X118360000Y-77730000D01*
X109340000Y-78120000D02*
X117970000Y-78120000D01*
X135835000Y-95205000D02*
X137410000Y-96780000D01*
X128615000Y-96780000D02*
X130190000Y-95205000D01*
X150230000Y-94560000D02*
X150230000Y-81100000D01*
X148010000Y-96780000D02*
X150230000Y-94560000D01*
X137410000Y-96780000D02*
X148010000Y-96780000D01*
X118360000Y-96780000D02*
X128615000Y-96780000D01*
X130190000Y-95205000D02*
X135835000Y-95205000D01*
M02*
