%TF.GenerationSoftware,KiCad,Pcbnew,7.0.5*%
%TF.CreationDate,2023-08-14T09:45:32+08:00*%
%TF.ProjectId,RM,524d2e6b-6963-4616-945f-706362585858,rev?*%
%TF.SameCoordinates,Original*%
%TF.FileFunction,Drillmap*%
%TF.FilePolarity,Positive*%
%FSLAX45Y45*%
G04 Gerber Fmt 4.5, Leading zero omitted, Abs format (unit mm)*
G04 Created by KiCad (PCBNEW 7.0.5) date 2023-08-14 09:45:32*
%MOMM*%
%LPD*%
G01*
G04 APERTURE LIST*
%ADD10C,0.100000*%
%ADD11C,0.200000*%
%ADD12C,0.190000*%
%ADD13C,0.350000*%
%ADD14C,0.510000*%
G04 APERTURE END LIST*
D10*
X11353500Y-10155500D02*
G75*
G03*
X11403500Y-10205500I50000J0D01*
G01*
X10681000Y-8321000D02*
X11353500Y-8321000D01*
X15153500Y-10155500D02*
X15153500Y-4540500D01*
X15103500Y-4490500D02*
X11403500Y-4490500D01*
X10681000Y-6035000D02*
X10681000Y-8321000D01*
X15103500Y-10205500D02*
X11403500Y-10205500D01*
X15153500Y-4540500D02*
G75*
G03*
X15103500Y-4490500I-50000J0D01*
G01*
X11403500Y-4490500D02*
G75*
G03*
X11353500Y-4540500I0J-50000D01*
G01*
X11353500Y-8321000D02*
X11353500Y-10155500D01*
X11353500Y-6035000D02*
X11353500Y-4540500D01*
X10681000Y-6035000D02*
X11353500Y-6035000D01*
X15103500Y-10205500D02*
G75*
G03*
X15153500Y-10155500I0J50000D01*
G01*
D11*
D12*
X11681000Y-5348000D02*
X11871000Y-5538000D01*
X11871000Y-5348000D02*
X11681000Y-5538000D01*
D11*
X11761000Y-5538000D02*
X11791000Y-5538000D01*
X11791000Y-5538000D02*
G75*
G03*
X11791000Y-5348000I0J95000D01*
G01*
X11791000Y-5348000D02*
X11761000Y-5348000D01*
X11761000Y-5348000D02*
G75*
G03*
X11761000Y-5538000I0J-95000D01*
G01*
D12*
X11681000Y-7253000D02*
X11871000Y-7443000D01*
X11871000Y-7253000D02*
X11681000Y-7443000D01*
D11*
X11761000Y-7443000D02*
X11791000Y-7443000D01*
X11791000Y-7443000D02*
G75*
G03*
X11791000Y-7253000I0J95000D01*
G01*
X11791000Y-7253000D02*
X11761000Y-7253000D01*
X11761000Y-7253000D02*
G75*
G03*
X11761000Y-7443000I0J-95000D01*
G01*
D12*
X11681000Y-9158000D02*
X11871000Y-9348000D01*
X11871000Y-9158000D02*
X11681000Y-9348000D01*
D11*
X11761000Y-9348000D02*
X11791000Y-9348000D01*
X11791000Y-9348000D02*
G75*
G03*
X11791000Y-9158000I0J95000D01*
G01*
X11791000Y-9158000D02*
X11761000Y-9158000D01*
X11761000Y-9158000D02*
G75*
G03*
X11761000Y-9348000I0J-95000D01*
G01*
D12*
X12741000Y-5348000D02*
X12931000Y-5538000D01*
X12931000Y-5348000D02*
X12741000Y-5538000D01*
D11*
X12821000Y-5538000D02*
X12851000Y-5538000D01*
X12851000Y-5538000D02*
G75*
G03*
X12851000Y-5348000I0J95000D01*
G01*
X12851000Y-5348000D02*
X12821000Y-5348000D01*
X12821000Y-5348000D02*
G75*
G03*
X12821000Y-5538000I0J-95000D01*
G01*
D12*
X12741000Y-7253000D02*
X12931000Y-7443000D01*
X12931000Y-7253000D02*
X12741000Y-7443000D01*
D11*
X12821000Y-7443000D02*
X12851000Y-7443000D01*
X12851000Y-7443000D02*
G75*
G03*
X12851000Y-7253000I0J95000D01*
G01*
X12851000Y-7253000D02*
X12821000Y-7253000D01*
X12821000Y-7253000D02*
G75*
G03*
X12821000Y-7443000I0J-95000D01*
G01*
D12*
X12741000Y-9158000D02*
X12931000Y-9348000D01*
X12931000Y-9158000D02*
X12741000Y-9348000D01*
D11*
X12821000Y-9348000D02*
X12851000Y-9348000D01*
X12851000Y-9348000D02*
G75*
G03*
X12851000Y-9158000I0J95000D01*
G01*
X12851000Y-9158000D02*
X12821000Y-9158000D01*
X12821000Y-9158000D02*
G75*
G03*
X12821000Y-9348000I0J-95000D01*
G01*
D12*
X13586000Y-5348000D02*
X13776000Y-5538000D01*
X13776000Y-5348000D02*
X13586000Y-5538000D01*
D11*
X13666000Y-5538000D02*
X13696000Y-5538000D01*
X13696000Y-5538000D02*
G75*
G03*
X13696000Y-5348000I0J95000D01*
G01*
X13696000Y-5348000D02*
X13666000Y-5348000D01*
X13666000Y-5348000D02*
G75*
G03*
X13666000Y-5538000I0J-95000D01*
G01*
D12*
X13586000Y-7253000D02*
X13776000Y-7443000D01*
X13776000Y-7253000D02*
X13586000Y-7443000D01*
D11*
X13666000Y-7443000D02*
X13696000Y-7443000D01*
X13696000Y-7443000D02*
G75*
G03*
X13696000Y-7253000I0J95000D01*
G01*
X13696000Y-7253000D02*
X13666000Y-7253000D01*
X13666000Y-7253000D02*
G75*
G03*
X13666000Y-7443000I0J-95000D01*
G01*
D12*
X13586000Y-9158000D02*
X13776000Y-9348000D01*
X13776000Y-9158000D02*
X13586000Y-9348000D01*
D11*
X13666000Y-9348000D02*
X13696000Y-9348000D01*
X13696000Y-9348000D02*
G75*
G03*
X13696000Y-9158000I0J95000D01*
G01*
X13696000Y-9158000D02*
X13666000Y-9158000D01*
X13666000Y-9158000D02*
G75*
G03*
X13666000Y-9348000I0J-95000D01*
G01*
D12*
X14646000Y-5348000D02*
X14836000Y-5538000D01*
X14836000Y-5348000D02*
X14646000Y-5538000D01*
D11*
X14726000Y-5538000D02*
X14756000Y-5538000D01*
X14756000Y-5538000D02*
G75*
G03*
X14756000Y-5348000I0J95000D01*
G01*
X14756000Y-5348000D02*
X14726000Y-5348000D01*
X14726000Y-5348000D02*
G75*
G03*
X14726000Y-5538000I0J-95000D01*
G01*
D12*
X14646000Y-7253000D02*
X14836000Y-7443000D01*
X14836000Y-7253000D02*
X14646000Y-7443000D01*
D11*
X14726000Y-7443000D02*
X14756000Y-7443000D01*
X14756000Y-7443000D02*
G75*
G03*
X14756000Y-7253000I0J95000D01*
G01*
X14756000Y-7253000D02*
X14726000Y-7253000D01*
X14726000Y-7253000D02*
G75*
G03*
X14726000Y-7443000I0J-95000D01*
G01*
D12*
X14646000Y-9158000D02*
X14836000Y-9348000D01*
X14836000Y-9158000D02*
X14646000Y-9348000D01*
D11*
X14726000Y-9348000D02*
X14756000Y-9348000D01*
X14756000Y-9348000D02*
G75*
G03*
X14756000Y-9158000I0J95000D01*
G01*
X14756000Y-9158000D02*
X14726000Y-9158000D01*
X14726000Y-9158000D02*
G75*
G03*
X14726000Y-9348000I0J-95000D01*
G01*
D13*
X13433500Y-6395500D02*
G75*
G03*
X13433500Y-6395500I-175000J0D01*
G01*
X13433500Y-8300500D02*
G75*
G03*
X13433500Y-8300500I-175000J0D01*
G01*
D14*
X12306000Y-5188000D02*
X12306000Y-5698000D01*
X12051000Y-5443000D02*
X12561000Y-5443000D01*
X12306000Y-7093000D02*
X12306000Y-7603000D01*
X12051000Y-7348000D02*
X12561000Y-7348000D01*
X12306000Y-8998000D02*
X12306000Y-9508000D01*
X12051000Y-9253000D02*
X12561000Y-9253000D01*
X14211000Y-5188000D02*
X14211000Y-5698000D01*
X13956000Y-5443000D02*
X14466000Y-5443000D01*
X14211000Y-7093000D02*
X14211000Y-7603000D01*
X13956000Y-7348000D02*
X14466000Y-7348000D01*
X14211000Y-8998000D02*
X14211000Y-9508000D01*
X13956000Y-9253000D02*
X14466000Y-9253000D01*
D11*
X10936777Y-10521984D02*
X10936777Y-10321984D01*
X10936777Y-10321984D02*
X10984396Y-10321984D01*
X10984396Y-10321984D02*
X11012967Y-10331508D01*
X11012967Y-10331508D02*
X11032015Y-10350555D01*
X11032015Y-10350555D02*
X11041539Y-10369603D01*
X11041539Y-10369603D02*
X11051063Y-10407698D01*
X11051063Y-10407698D02*
X11051063Y-10436270D01*
X11051063Y-10436270D02*
X11041539Y-10474365D01*
X11041539Y-10474365D02*
X11032015Y-10493412D01*
X11032015Y-10493412D02*
X11012967Y-10512460D01*
X11012967Y-10512460D02*
X10984396Y-10521984D01*
X10984396Y-10521984D02*
X10936777Y-10521984D01*
X11136777Y-10521984D02*
X11136777Y-10388650D01*
X11136777Y-10426746D02*
X11146301Y-10407698D01*
X11146301Y-10407698D02*
X11155824Y-10398174D01*
X11155824Y-10398174D02*
X11174872Y-10388650D01*
X11174872Y-10388650D02*
X11193920Y-10388650D01*
X11260586Y-10521984D02*
X11260586Y-10388650D01*
X11260586Y-10321984D02*
X11251062Y-10331508D01*
X11251062Y-10331508D02*
X11260586Y-10341031D01*
X11260586Y-10341031D02*
X11270110Y-10331508D01*
X11270110Y-10331508D02*
X11260586Y-10321984D01*
X11260586Y-10321984D02*
X11260586Y-10341031D01*
X11384396Y-10521984D02*
X11365348Y-10512460D01*
X11365348Y-10512460D02*
X11355824Y-10493412D01*
X11355824Y-10493412D02*
X11355824Y-10321984D01*
X11489158Y-10521984D02*
X11470110Y-10512460D01*
X11470110Y-10512460D02*
X11460586Y-10493412D01*
X11460586Y-10493412D02*
X11460586Y-10321984D01*
X11717729Y-10521984D02*
X11717729Y-10321984D01*
X11717729Y-10321984D02*
X11784396Y-10464841D01*
X11784396Y-10464841D02*
X11851062Y-10321984D01*
X11851062Y-10321984D02*
X11851062Y-10521984D01*
X12032015Y-10521984D02*
X12032015Y-10417222D01*
X12032015Y-10417222D02*
X12022491Y-10398174D01*
X12022491Y-10398174D02*
X12003443Y-10388650D01*
X12003443Y-10388650D02*
X11965348Y-10388650D01*
X11965348Y-10388650D02*
X11946301Y-10398174D01*
X12032015Y-10512460D02*
X12012967Y-10521984D01*
X12012967Y-10521984D02*
X11965348Y-10521984D01*
X11965348Y-10521984D02*
X11946301Y-10512460D01*
X11946301Y-10512460D02*
X11936777Y-10493412D01*
X11936777Y-10493412D02*
X11936777Y-10474365D01*
X11936777Y-10474365D02*
X11946301Y-10455317D01*
X11946301Y-10455317D02*
X11965348Y-10445793D01*
X11965348Y-10445793D02*
X12012967Y-10445793D01*
X12012967Y-10445793D02*
X12032015Y-10436270D01*
X12127253Y-10388650D02*
X12127253Y-10588650D01*
X12127253Y-10398174D02*
X12146301Y-10388650D01*
X12146301Y-10388650D02*
X12184396Y-10388650D01*
X12184396Y-10388650D02*
X12203443Y-10398174D01*
X12203443Y-10398174D02*
X12212967Y-10407698D01*
X12212967Y-10407698D02*
X12222491Y-10426746D01*
X12222491Y-10426746D02*
X12222491Y-10483889D01*
X12222491Y-10483889D02*
X12212967Y-10502936D01*
X12212967Y-10502936D02*
X12203443Y-10512460D01*
X12203443Y-10512460D02*
X12184396Y-10521984D01*
X12184396Y-10521984D02*
X12146301Y-10521984D01*
X12146301Y-10521984D02*
X12127253Y-10512460D01*
X12308205Y-10502936D02*
X12317729Y-10512460D01*
X12317729Y-10512460D02*
X12308205Y-10521984D01*
X12308205Y-10521984D02*
X12298682Y-10512460D01*
X12298682Y-10512460D02*
X12308205Y-10502936D01*
X12308205Y-10502936D02*
X12308205Y-10521984D01*
X12308205Y-10398174D02*
X12317729Y-10407698D01*
X12317729Y-10407698D02*
X12308205Y-10417222D01*
X12308205Y-10417222D02*
X12298682Y-10407698D01*
X12298682Y-10407698D02*
X12308205Y-10398174D01*
X12308205Y-10398174D02*
X12308205Y-10417222D01*
D12*
X10486000Y-10755500D02*
X10676000Y-10945500D01*
X10676000Y-10755500D02*
X10486000Y-10945500D01*
D11*
X11041539Y-10941984D02*
X10927253Y-10941984D01*
X10984396Y-10941984D02*
X10984396Y-10741984D01*
X10984396Y-10741984D02*
X10965348Y-10770555D01*
X10965348Y-10770555D02*
X10946301Y-10789603D01*
X10946301Y-10789603D02*
X10927253Y-10799127D01*
X11127253Y-10922936D02*
X11136777Y-10932460D01*
X11136777Y-10932460D02*
X11127253Y-10941984D01*
X11127253Y-10941984D02*
X11117729Y-10932460D01*
X11117729Y-10932460D02*
X11127253Y-10922936D01*
X11127253Y-10922936D02*
X11127253Y-10941984D01*
X11232015Y-10941984D02*
X11270110Y-10941984D01*
X11270110Y-10941984D02*
X11289158Y-10932460D01*
X11289158Y-10932460D02*
X11298682Y-10922936D01*
X11298682Y-10922936D02*
X11317729Y-10894365D01*
X11317729Y-10894365D02*
X11327253Y-10856270D01*
X11327253Y-10856270D02*
X11327253Y-10780079D01*
X11327253Y-10780079D02*
X11317729Y-10761031D01*
X11317729Y-10761031D02*
X11308205Y-10751508D01*
X11308205Y-10751508D02*
X11289158Y-10741984D01*
X11289158Y-10741984D02*
X11251062Y-10741984D01*
X11251062Y-10741984D02*
X11232015Y-10751508D01*
X11232015Y-10751508D02*
X11222491Y-10761031D01*
X11222491Y-10761031D02*
X11212967Y-10780079D01*
X11212967Y-10780079D02*
X11212967Y-10827698D01*
X11212967Y-10827698D02*
X11222491Y-10846746D01*
X11222491Y-10846746D02*
X11232015Y-10856270D01*
X11232015Y-10856270D02*
X11251062Y-10865793D01*
X11251062Y-10865793D02*
X11289158Y-10865793D01*
X11289158Y-10865793D02*
X11308205Y-10856270D01*
X11308205Y-10856270D02*
X11317729Y-10846746D01*
X11317729Y-10846746D02*
X11327253Y-10827698D01*
X11451062Y-10741984D02*
X11470110Y-10741984D01*
X11470110Y-10741984D02*
X11489158Y-10751508D01*
X11489158Y-10751508D02*
X11498682Y-10761031D01*
X11498682Y-10761031D02*
X11508205Y-10780079D01*
X11508205Y-10780079D02*
X11517729Y-10818174D01*
X11517729Y-10818174D02*
X11517729Y-10865793D01*
X11517729Y-10865793D02*
X11508205Y-10903889D01*
X11508205Y-10903889D02*
X11498682Y-10922936D01*
X11498682Y-10922936D02*
X11489158Y-10932460D01*
X11489158Y-10932460D02*
X11470110Y-10941984D01*
X11470110Y-10941984D02*
X11451062Y-10941984D01*
X11451062Y-10941984D02*
X11432015Y-10932460D01*
X11432015Y-10932460D02*
X11422491Y-10922936D01*
X11422491Y-10922936D02*
X11412967Y-10903889D01*
X11412967Y-10903889D02*
X11403443Y-10865793D01*
X11403443Y-10865793D02*
X11403443Y-10818174D01*
X11403443Y-10818174D02*
X11412967Y-10780079D01*
X11412967Y-10780079D02*
X11422491Y-10761031D01*
X11422491Y-10761031D02*
X11432015Y-10751508D01*
X11432015Y-10751508D02*
X11451062Y-10741984D01*
X11641539Y-10741984D02*
X11660586Y-10741984D01*
X11660586Y-10741984D02*
X11679634Y-10751508D01*
X11679634Y-10751508D02*
X11689158Y-10761031D01*
X11689158Y-10761031D02*
X11698682Y-10780079D01*
X11698682Y-10780079D02*
X11708205Y-10818174D01*
X11708205Y-10818174D02*
X11708205Y-10865793D01*
X11708205Y-10865793D02*
X11698682Y-10903889D01*
X11698682Y-10903889D02*
X11689158Y-10922936D01*
X11689158Y-10922936D02*
X11679634Y-10932460D01*
X11679634Y-10932460D02*
X11660586Y-10941984D01*
X11660586Y-10941984D02*
X11641539Y-10941984D01*
X11641539Y-10941984D02*
X11622491Y-10932460D01*
X11622491Y-10932460D02*
X11612967Y-10922936D01*
X11612967Y-10922936D02*
X11603443Y-10903889D01*
X11603443Y-10903889D02*
X11593920Y-10865793D01*
X11593920Y-10865793D02*
X11593920Y-10818174D01*
X11593920Y-10818174D02*
X11603443Y-10780079D01*
X11603443Y-10780079D02*
X11612967Y-10761031D01*
X11612967Y-10761031D02*
X11622491Y-10751508D01*
X11622491Y-10751508D02*
X11641539Y-10741984D01*
X11793920Y-10941984D02*
X11793920Y-10808650D01*
X11793920Y-10827698D02*
X11803443Y-10818174D01*
X11803443Y-10818174D02*
X11822491Y-10808650D01*
X11822491Y-10808650D02*
X11851063Y-10808650D01*
X11851063Y-10808650D02*
X11870110Y-10818174D01*
X11870110Y-10818174D02*
X11879634Y-10837222D01*
X11879634Y-10837222D02*
X11879634Y-10941984D01*
X11879634Y-10837222D02*
X11889158Y-10818174D01*
X11889158Y-10818174D02*
X11908205Y-10808650D01*
X11908205Y-10808650D02*
X11936777Y-10808650D01*
X11936777Y-10808650D02*
X11955824Y-10818174D01*
X11955824Y-10818174D02*
X11965348Y-10837222D01*
X11965348Y-10837222D02*
X11965348Y-10941984D01*
X12060586Y-10941984D02*
X12060586Y-10808650D01*
X12060586Y-10827698D02*
X12070110Y-10818174D01*
X12070110Y-10818174D02*
X12089158Y-10808650D01*
X12089158Y-10808650D02*
X12117729Y-10808650D01*
X12117729Y-10808650D02*
X12136777Y-10818174D01*
X12136777Y-10818174D02*
X12146301Y-10837222D01*
X12146301Y-10837222D02*
X12146301Y-10941984D01*
X12146301Y-10837222D02*
X12155824Y-10818174D01*
X12155824Y-10818174D02*
X12174872Y-10808650D01*
X12174872Y-10808650D02*
X12203443Y-10808650D01*
X12203443Y-10808650D02*
X12222491Y-10818174D01*
X12222491Y-10818174D02*
X12232015Y-10837222D01*
X12232015Y-10837222D02*
X12232015Y-10941984D01*
X12622491Y-10732460D02*
X12451063Y-10989603D01*
X12879634Y-10741984D02*
X12898682Y-10741984D01*
X12898682Y-10741984D02*
X12917729Y-10751508D01*
X12917729Y-10751508D02*
X12927253Y-10761031D01*
X12927253Y-10761031D02*
X12936777Y-10780079D01*
X12936777Y-10780079D02*
X12946301Y-10818174D01*
X12946301Y-10818174D02*
X12946301Y-10865793D01*
X12946301Y-10865793D02*
X12936777Y-10903889D01*
X12936777Y-10903889D02*
X12927253Y-10922936D01*
X12927253Y-10922936D02*
X12917729Y-10932460D01*
X12917729Y-10932460D02*
X12898682Y-10941984D01*
X12898682Y-10941984D02*
X12879634Y-10941984D01*
X12879634Y-10941984D02*
X12860586Y-10932460D01*
X12860586Y-10932460D02*
X12851063Y-10922936D01*
X12851063Y-10922936D02*
X12841539Y-10903889D01*
X12841539Y-10903889D02*
X12832015Y-10865793D01*
X12832015Y-10865793D02*
X12832015Y-10818174D01*
X12832015Y-10818174D02*
X12841539Y-10780079D01*
X12841539Y-10780079D02*
X12851063Y-10761031D01*
X12851063Y-10761031D02*
X12860586Y-10751508D01*
X12860586Y-10751508D02*
X12879634Y-10741984D01*
X13032015Y-10922936D02*
X13041539Y-10932460D01*
X13041539Y-10932460D02*
X13032015Y-10941984D01*
X13032015Y-10941984D02*
X13022491Y-10932460D01*
X13022491Y-10932460D02*
X13032015Y-10922936D01*
X13032015Y-10922936D02*
X13032015Y-10941984D01*
X13165348Y-10741984D02*
X13184396Y-10741984D01*
X13184396Y-10741984D02*
X13203444Y-10751508D01*
X13203444Y-10751508D02*
X13212967Y-10761031D01*
X13212967Y-10761031D02*
X13222491Y-10780079D01*
X13222491Y-10780079D02*
X13232015Y-10818174D01*
X13232015Y-10818174D02*
X13232015Y-10865793D01*
X13232015Y-10865793D02*
X13222491Y-10903889D01*
X13222491Y-10903889D02*
X13212967Y-10922936D01*
X13212967Y-10922936D02*
X13203444Y-10932460D01*
X13203444Y-10932460D02*
X13184396Y-10941984D01*
X13184396Y-10941984D02*
X13165348Y-10941984D01*
X13165348Y-10941984D02*
X13146301Y-10932460D01*
X13146301Y-10932460D02*
X13136777Y-10922936D01*
X13136777Y-10922936D02*
X13127253Y-10903889D01*
X13127253Y-10903889D02*
X13117729Y-10865793D01*
X13117729Y-10865793D02*
X13117729Y-10818174D01*
X13117729Y-10818174D02*
X13127253Y-10780079D01*
X13127253Y-10780079D02*
X13136777Y-10761031D01*
X13136777Y-10761031D02*
X13146301Y-10751508D01*
X13146301Y-10751508D02*
X13165348Y-10741984D01*
X13298682Y-10741984D02*
X13432015Y-10741984D01*
X13432015Y-10741984D02*
X13346301Y-10941984D01*
X13593920Y-10808650D02*
X13593920Y-10941984D01*
X13546301Y-10732460D02*
X13498682Y-10875317D01*
X13498682Y-10875317D02*
X13622491Y-10875317D01*
X13727253Y-10827698D02*
X13708206Y-10818174D01*
X13708206Y-10818174D02*
X13698682Y-10808650D01*
X13698682Y-10808650D02*
X13689158Y-10789603D01*
X13689158Y-10789603D02*
X13689158Y-10780079D01*
X13689158Y-10780079D02*
X13698682Y-10761031D01*
X13698682Y-10761031D02*
X13708206Y-10751508D01*
X13708206Y-10751508D02*
X13727253Y-10741984D01*
X13727253Y-10741984D02*
X13765348Y-10741984D01*
X13765348Y-10741984D02*
X13784396Y-10751508D01*
X13784396Y-10751508D02*
X13793920Y-10761031D01*
X13793920Y-10761031D02*
X13803444Y-10780079D01*
X13803444Y-10780079D02*
X13803444Y-10789603D01*
X13803444Y-10789603D02*
X13793920Y-10808650D01*
X13793920Y-10808650D02*
X13784396Y-10818174D01*
X13784396Y-10818174D02*
X13765348Y-10827698D01*
X13765348Y-10827698D02*
X13727253Y-10827698D01*
X13727253Y-10827698D02*
X13708206Y-10837222D01*
X13708206Y-10837222D02*
X13698682Y-10846746D01*
X13698682Y-10846746D02*
X13689158Y-10865793D01*
X13689158Y-10865793D02*
X13689158Y-10903889D01*
X13689158Y-10903889D02*
X13698682Y-10922936D01*
X13698682Y-10922936D02*
X13708206Y-10932460D01*
X13708206Y-10932460D02*
X13727253Y-10941984D01*
X13727253Y-10941984D02*
X13765348Y-10941984D01*
X13765348Y-10941984D02*
X13784396Y-10932460D01*
X13784396Y-10932460D02*
X13793920Y-10922936D01*
X13793920Y-10922936D02*
X13803444Y-10903889D01*
X13803444Y-10903889D02*
X13803444Y-10865793D01*
X13803444Y-10865793D02*
X13793920Y-10846746D01*
X13793920Y-10846746D02*
X13784396Y-10837222D01*
X13784396Y-10837222D02*
X13765348Y-10827698D01*
X13879634Y-10741984D02*
X13879634Y-10780079D01*
X13955825Y-10741984D02*
X13955825Y-10780079D01*
X14251063Y-11018174D02*
X14241539Y-11008650D01*
X14241539Y-11008650D02*
X14222491Y-10980079D01*
X14222491Y-10980079D02*
X14212968Y-10961031D01*
X14212968Y-10961031D02*
X14203444Y-10932460D01*
X14203444Y-10932460D02*
X14193920Y-10884841D01*
X14193920Y-10884841D02*
X14193920Y-10846746D01*
X14193920Y-10846746D02*
X14203444Y-10799127D01*
X14203444Y-10799127D02*
X14212968Y-10770555D01*
X14212968Y-10770555D02*
X14222491Y-10751508D01*
X14222491Y-10751508D02*
X14241539Y-10722936D01*
X14241539Y-10722936D02*
X14251063Y-10713412D01*
X14365348Y-10741984D02*
X14384396Y-10741984D01*
X14384396Y-10741984D02*
X14403444Y-10751508D01*
X14403444Y-10751508D02*
X14412968Y-10761031D01*
X14412968Y-10761031D02*
X14422491Y-10780079D01*
X14422491Y-10780079D02*
X14432015Y-10818174D01*
X14432015Y-10818174D02*
X14432015Y-10865793D01*
X14432015Y-10865793D02*
X14422491Y-10903889D01*
X14422491Y-10903889D02*
X14412968Y-10922936D01*
X14412968Y-10922936D02*
X14403444Y-10932460D01*
X14403444Y-10932460D02*
X14384396Y-10941984D01*
X14384396Y-10941984D02*
X14365348Y-10941984D01*
X14365348Y-10941984D02*
X14346301Y-10932460D01*
X14346301Y-10932460D02*
X14336777Y-10922936D01*
X14336777Y-10922936D02*
X14327253Y-10903889D01*
X14327253Y-10903889D02*
X14317729Y-10865793D01*
X14317729Y-10865793D02*
X14317729Y-10818174D01*
X14317729Y-10818174D02*
X14327253Y-10780079D01*
X14327253Y-10780079D02*
X14336777Y-10761031D01*
X14336777Y-10761031D02*
X14346301Y-10751508D01*
X14346301Y-10751508D02*
X14365348Y-10741984D01*
X14670110Y-10941984D02*
X14670110Y-10741984D01*
X14755825Y-10941984D02*
X14755825Y-10837222D01*
X14755825Y-10837222D02*
X14746301Y-10818174D01*
X14746301Y-10818174D02*
X14727253Y-10808650D01*
X14727253Y-10808650D02*
X14698682Y-10808650D01*
X14698682Y-10808650D02*
X14679634Y-10818174D01*
X14679634Y-10818174D02*
X14670110Y-10827698D01*
X14879634Y-10941984D02*
X14860587Y-10932460D01*
X14860587Y-10932460D02*
X14851063Y-10922936D01*
X14851063Y-10922936D02*
X14841539Y-10903889D01*
X14841539Y-10903889D02*
X14841539Y-10846746D01*
X14841539Y-10846746D02*
X14851063Y-10827698D01*
X14851063Y-10827698D02*
X14860587Y-10818174D01*
X14860587Y-10818174D02*
X14879634Y-10808650D01*
X14879634Y-10808650D02*
X14908206Y-10808650D01*
X14908206Y-10808650D02*
X14927253Y-10818174D01*
X14927253Y-10818174D02*
X14936777Y-10827698D01*
X14936777Y-10827698D02*
X14946301Y-10846746D01*
X14946301Y-10846746D02*
X14946301Y-10903889D01*
X14946301Y-10903889D02*
X14936777Y-10922936D01*
X14936777Y-10922936D02*
X14927253Y-10932460D01*
X14927253Y-10932460D02*
X14908206Y-10941984D01*
X14908206Y-10941984D02*
X14879634Y-10941984D01*
X15060587Y-10941984D02*
X15041539Y-10932460D01*
X15041539Y-10932460D02*
X15032015Y-10913412D01*
X15032015Y-10913412D02*
X15032015Y-10741984D01*
X15212968Y-10932460D02*
X15193920Y-10941984D01*
X15193920Y-10941984D02*
X15155825Y-10941984D01*
X15155825Y-10941984D02*
X15136777Y-10932460D01*
X15136777Y-10932460D02*
X15127253Y-10913412D01*
X15127253Y-10913412D02*
X15127253Y-10837222D01*
X15127253Y-10837222D02*
X15136777Y-10818174D01*
X15136777Y-10818174D02*
X15155825Y-10808650D01*
X15155825Y-10808650D02*
X15193920Y-10808650D01*
X15193920Y-10808650D02*
X15212968Y-10818174D01*
X15212968Y-10818174D02*
X15222491Y-10837222D01*
X15222491Y-10837222D02*
X15222491Y-10856270D01*
X15222491Y-10856270D02*
X15127253Y-10875317D01*
X15298682Y-10932460D02*
X15317730Y-10941984D01*
X15317730Y-10941984D02*
X15355825Y-10941984D01*
X15355825Y-10941984D02*
X15374872Y-10932460D01*
X15374872Y-10932460D02*
X15384396Y-10913412D01*
X15384396Y-10913412D02*
X15384396Y-10903889D01*
X15384396Y-10903889D02*
X15374872Y-10884841D01*
X15374872Y-10884841D02*
X15355825Y-10875317D01*
X15355825Y-10875317D02*
X15327253Y-10875317D01*
X15327253Y-10875317D02*
X15308206Y-10865793D01*
X15308206Y-10865793D02*
X15298682Y-10846746D01*
X15298682Y-10846746D02*
X15298682Y-10837222D01*
X15298682Y-10837222D02*
X15308206Y-10818174D01*
X15308206Y-10818174D02*
X15327253Y-10808650D01*
X15327253Y-10808650D02*
X15355825Y-10808650D01*
X15355825Y-10808650D02*
X15374872Y-10818174D01*
X15622492Y-10865793D02*
X15774873Y-10865793D01*
X15698682Y-10941984D02*
X15698682Y-10789603D01*
X16127253Y-10941984D02*
X16012968Y-10941984D01*
X16070111Y-10941984D02*
X16070111Y-10741984D01*
X16070111Y-10741984D02*
X16051063Y-10770555D01*
X16051063Y-10770555D02*
X16032015Y-10789603D01*
X16032015Y-10789603D02*
X16012968Y-10799127D01*
X16203444Y-10761031D02*
X16212968Y-10751508D01*
X16212968Y-10751508D02*
X16232015Y-10741984D01*
X16232015Y-10741984D02*
X16279634Y-10741984D01*
X16279634Y-10741984D02*
X16298682Y-10751508D01*
X16298682Y-10751508D02*
X16308206Y-10761031D01*
X16308206Y-10761031D02*
X16317730Y-10780079D01*
X16317730Y-10780079D02*
X16317730Y-10799127D01*
X16317730Y-10799127D02*
X16308206Y-10827698D01*
X16308206Y-10827698D02*
X16193920Y-10941984D01*
X16193920Y-10941984D02*
X16317730Y-10941984D01*
X16546301Y-10932460D02*
X16565349Y-10941984D01*
X16565349Y-10941984D02*
X16603444Y-10941984D01*
X16603444Y-10941984D02*
X16622492Y-10932460D01*
X16622492Y-10932460D02*
X16632015Y-10913412D01*
X16632015Y-10913412D02*
X16632015Y-10903889D01*
X16632015Y-10903889D02*
X16622492Y-10884841D01*
X16622492Y-10884841D02*
X16603444Y-10875317D01*
X16603444Y-10875317D02*
X16574873Y-10875317D01*
X16574873Y-10875317D02*
X16555825Y-10865793D01*
X16555825Y-10865793D02*
X16546301Y-10846746D01*
X16546301Y-10846746D02*
X16546301Y-10837222D01*
X16546301Y-10837222D02*
X16555825Y-10818174D01*
X16555825Y-10818174D02*
X16574873Y-10808650D01*
X16574873Y-10808650D02*
X16603444Y-10808650D01*
X16603444Y-10808650D02*
X16622492Y-10818174D01*
X16746301Y-10941984D02*
X16727254Y-10932460D01*
X16727254Y-10932460D02*
X16717730Y-10913412D01*
X16717730Y-10913412D02*
X16717730Y-10741984D01*
X16851063Y-10941984D02*
X16832016Y-10932460D01*
X16832016Y-10932460D02*
X16822492Y-10922936D01*
X16822492Y-10922936D02*
X16812968Y-10903889D01*
X16812968Y-10903889D02*
X16812968Y-10846746D01*
X16812968Y-10846746D02*
X16822492Y-10827698D01*
X16822492Y-10827698D02*
X16832016Y-10818174D01*
X16832016Y-10818174D02*
X16851063Y-10808650D01*
X16851063Y-10808650D02*
X16879635Y-10808650D01*
X16879635Y-10808650D02*
X16898682Y-10818174D01*
X16898682Y-10818174D02*
X16908206Y-10827698D01*
X16908206Y-10827698D02*
X16917730Y-10846746D01*
X16917730Y-10846746D02*
X16917730Y-10903889D01*
X16917730Y-10903889D02*
X16908206Y-10922936D01*
X16908206Y-10922936D02*
X16898682Y-10932460D01*
X16898682Y-10932460D02*
X16879635Y-10941984D01*
X16879635Y-10941984D02*
X16851063Y-10941984D01*
X16974873Y-10808650D02*
X17051063Y-10808650D01*
X17003444Y-10741984D02*
X17003444Y-10913412D01*
X17003444Y-10913412D02*
X17012968Y-10932460D01*
X17012968Y-10932460D02*
X17032016Y-10941984D01*
X17032016Y-10941984D02*
X17051063Y-10941984D01*
X17108206Y-10932460D02*
X17127254Y-10941984D01*
X17127254Y-10941984D02*
X17165349Y-10941984D01*
X17165349Y-10941984D02*
X17184397Y-10932460D01*
X17184397Y-10932460D02*
X17193920Y-10913412D01*
X17193920Y-10913412D02*
X17193920Y-10903889D01*
X17193920Y-10903889D02*
X17184397Y-10884841D01*
X17184397Y-10884841D02*
X17165349Y-10875317D01*
X17165349Y-10875317D02*
X17136777Y-10875317D01*
X17136777Y-10875317D02*
X17117730Y-10865793D01*
X17117730Y-10865793D02*
X17108206Y-10846746D01*
X17108206Y-10846746D02*
X17108206Y-10837222D01*
X17108206Y-10837222D02*
X17117730Y-10818174D01*
X17117730Y-10818174D02*
X17136777Y-10808650D01*
X17136777Y-10808650D02*
X17165349Y-10808650D01*
X17165349Y-10808650D02*
X17184397Y-10818174D01*
X17260587Y-11018174D02*
X17270111Y-11008650D01*
X17270111Y-11008650D02*
X17289158Y-10980079D01*
X17289158Y-10980079D02*
X17298682Y-10961031D01*
X17298682Y-10961031D02*
X17308206Y-10932460D01*
X17308206Y-10932460D02*
X17317730Y-10884841D01*
X17317730Y-10884841D02*
X17317730Y-10846746D01*
X17317730Y-10846746D02*
X17308206Y-10799127D01*
X17308206Y-10799127D02*
X17298682Y-10770555D01*
X17298682Y-10770555D02*
X17289158Y-10751508D01*
X17289158Y-10751508D02*
X17270111Y-10722936D01*
X17270111Y-10722936D02*
X17260587Y-10713412D01*
X17622492Y-11018174D02*
X17612968Y-11008650D01*
X17612968Y-11008650D02*
X17593920Y-10980079D01*
X17593920Y-10980079D02*
X17584397Y-10961031D01*
X17584397Y-10961031D02*
X17574873Y-10932460D01*
X17574873Y-10932460D02*
X17565349Y-10884841D01*
X17565349Y-10884841D02*
X17565349Y-10846746D01*
X17565349Y-10846746D02*
X17574873Y-10799127D01*
X17574873Y-10799127D02*
X17584397Y-10770555D01*
X17584397Y-10770555D02*
X17593920Y-10751508D01*
X17593920Y-10751508D02*
X17612968Y-10722936D01*
X17612968Y-10722936D02*
X17622492Y-10713412D01*
X17698682Y-10808650D02*
X17698682Y-10941984D01*
X17698682Y-10827698D02*
X17708206Y-10818174D01*
X17708206Y-10818174D02*
X17727254Y-10808650D01*
X17727254Y-10808650D02*
X17755825Y-10808650D01*
X17755825Y-10808650D02*
X17774873Y-10818174D01*
X17774873Y-10818174D02*
X17784397Y-10837222D01*
X17784397Y-10837222D02*
X17784397Y-10941984D01*
X17908206Y-10941984D02*
X17889158Y-10932460D01*
X17889158Y-10932460D02*
X17879635Y-10922936D01*
X17879635Y-10922936D02*
X17870111Y-10903889D01*
X17870111Y-10903889D02*
X17870111Y-10846746D01*
X17870111Y-10846746D02*
X17879635Y-10827698D01*
X17879635Y-10827698D02*
X17889158Y-10818174D01*
X17889158Y-10818174D02*
X17908206Y-10808650D01*
X17908206Y-10808650D02*
X17936778Y-10808650D01*
X17936778Y-10808650D02*
X17955825Y-10818174D01*
X17955825Y-10818174D02*
X17965349Y-10827698D01*
X17965349Y-10827698D02*
X17974873Y-10846746D01*
X17974873Y-10846746D02*
X17974873Y-10903889D01*
X17974873Y-10903889D02*
X17965349Y-10922936D01*
X17965349Y-10922936D02*
X17955825Y-10932460D01*
X17955825Y-10932460D02*
X17936778Y-10941984D01*
X17936778Y-10941984D02*
X17908206Y-10941984D01*
X18032016Y-10808650D02*
X18108206Y-10808650D01*
X18060587Y-10741984D02*
X18060587Y-10913412D01*
X18060587Y-10913412D02*
X18070111Y-10932460D01*
X18070111Y-10932460D02*
X18089158Y-10941984D01*
X18089158Y-10941984D02*
X18108206Y-10941984D01*
X18327254Y-10808650D02*
X18327254Y-11008650D01*
X18327254Y-10818174D02*
X18346301Y-10808650D01*
X18346301Y-10808650D02*
X18384397Y-10808650D01*
X18384397Y-10808650D02*
X18403444Y-10818174D01*
X18403444Y-10818174D02*
X18412968Y-10827698D01*
X18412968Y-10827698D02*
X18422492Y-10846746D01*
X18422492Y-10846746D02*
X18422492Y-10903889D01*
X18422492Y-10903889D02*
X18412968Y-10922936D01*
X18412968Y-10922936D02*
X18403444Y-10932460D01*
X18403444Y-10932460D02*
X18384397Y-10941984D01*
X18384397Y-10941984D02*
X18346301Y-10941984D01*
X18346301Y-10941984D02*
X18327254Y-10932460D01*
X18536778Y-10941984D02*
X18517730Y-10932460D01*
X18517730Y-10932460D02*
X18508206Y-10913412D01*
X18508206Y-10913412D02*
X18508206Y-10741984D01*
X18698682Y-10941984D02*
X18698682Y-10837222D01*
X18698682Y-10837222D02*
X18689159Y-10818174D01*
X18689159Y-10818174D02*
X18670111Y-10808650D01*
X18670111Y-10808650D02*
X18632016Y-10808650D01*
X18632016Y-10808650D02*
X18612968Y-10818174D01*
X18698682Y-10932460D02*
X18679635Y-10941984D01*
X18679635Y-10941984D02*
X18632016Y-10941984D01*
X18632016Y-10941984D02*
X18612968Y-10932460D01*
X18612968Y-10932460D02*
X18603444Y-10913412D01*
X18603444Y-10913412D02*
X18603444Y-10894365D01*
X18603444Y-10894365D02*
X18612968Y-10875317D01*
X18612968Y-10875317D02*
X18632016Y-10865793D01*
X18632016Y-10865793D02*
X18679635Y-10865793D01*
X18679635Y-10865793D02*
X18698682Y-10856270D01*
X18765349Y-10808650D02*
X18841539Y-10808650D01*
X18793920Y-10741984D02*
X18793920Y-10913412D01*
X18793920Y-10913412D02*
X18803444Y-10932460D01*
X18803444Y-10932460D02*
X18822492Y-10941984D01*
X18822492Y-10941984D02*
X18841539Y-10941984D01*
X18984397Y-10932460D02*
X18965349Y-10941984D01*
X18965349Y-10941984D02*
X18927254Y-10941984D01*
X18927254Y-10941984D02*
X18908206Y-10932460D01*
X18908206Y-10932460D02*
X18898682Y-10913412D01*
X18898682Y-10913412D02*
X18898682Y-10837222D01*
X18898682Y-10837222D02*
X18908206Y-10818174D01*
X18908206Y-10818174D02*
X18927254Y-10808650D01*
X18927254Y-10808650D02*
X18965349Y-10808650D01*
X18965349Y-10808650D02*
X18984397Y-10818174D01*
X18984397Y-10818174D02*
X18993920Y-10837222D01*
X18993920Y-10837222D02*
X18993920Y-10856270D01*
X18993920Y-10856270D02*
X18898682Y-10875317D01*
X19165349Y-10941984D02*
X19165349Y-10741984D01*
X19165349Y-10932460D02*
X19146301Y-10941984D01*
X19146301Y-10941984D02*
X19108206Y-10941984D01*
X19108206Y-10941984D02*
X19089159Y-10932460D01*
X19089159Y-10932460D02*
X19079635Y-10922936D01*
X19079635Y-10922936D02*
X19070111Y-10903889D01*
X19070111Y-10903889D02*
X19070111Y-10846746D01*
X19070111Y-10846746D02*
X19079635Y-10827698D01*
X19079635Y-10827698D02*
X19089159Y-10818174D01*
X19089159Y-10818174D02*
X19108206Y-10808650D01*
X19108206Y-10808650D02*
X19146301Y-10808650D01*
X19146301Y-10808650D02*
X19165349Y-10818174D01*
X19241540Y-11018174D02*
X19251063Y-11008650D01*
X19251063Y-11008650D02*
X19270111Y-10980079D01*
X19270111Y-10980079D02*
X19279635Y-10961031D01*
X19279635Y-10961031D02*
X19289159Y-10932460D01*
X19289159Y-10932460D02*
X19298682Y-10884841D01*
X19298682Y-10884841D02*
X19298682Y-10846746D01*
X19298682Y-10846746D02*
X19289159Y-10799127D01*
X19289159Y-10799127D02*
X19279635Y-10770555D01*
X19279635Y-10770555D02*
X19270111Y-10751508D01*
X19270111Y-10751508D02*
X19251063Y-10722936D01*
X19251063Y-10722936D02*
X19241540Y-10713412D01*
X10676000Y-11160500D02*
G75*
G03*
X10676000Y-11160500I-100000J0D01*
G01*
X10917729Y-11051984D02*
X11041539Y-11051984D01*
X11041539Y-11051984D02*
X10974872Y-11128174D01*
X10974872Y-11128174D02*
X11003444Y-11128174D01*
X11003444Y-11128174D02*
X11022491Y-11137698D01*
X11022491Y-11137698D02*
X11032015Y-11147222D01*
X11032015Y-11147222D02*
X11041539Y-11166270D01*
X11041539Y-11166270D02*
X11041539Y-11213888D01*
X11041539Y-11213888D02*
X11032015Y-11232936D01*
X11032015Y-11232936D02*
X11022491Y-11242460D01*
X11022491Y-11242460D02*
X11003444Y-11251984D01*
X11003444Y-11251984D02*
X10946301Y-11251984D01*
X10946301Y-11251984D02*
X10927253Y-11242460D01*
X10927253Y-11242460D02*
X10917729Y-11232936D01*
X11127253Y-11232936D02*
X11136777Y-11242460D01*
X11136777Y-11242460D02*
X11127253Y-11251984D01*
X11127253Y-11251984D02*
X11117729Y-11242460D01*
X11117729Y-11242460D02*
X11127253Y-11232936D01*
X11127253Y-11232936D02*
X11127253Y-11251984D01*
X11317729Y-11051984D02*
X11222491Y-11051984D01*
X11222491Y-11051984D02*
X11212967Y-11147222D01*
X11212967Y-11147222D02*
X11222491Y-11137698D01*
X11222491Y-11137698D02*
X11241539Y-11128174D01*
X11241539Y-11128174D02*
X11289158Y-11128174D01*
X11289158Y-11128174D02*
X11308205Y-11137698D01*
X11308205Y-11137698D02*
X11317729Y-11147222D01*
X11317729Y-11147222D02*
X11327253Y-11166270D01*
X11327253Y-11166270D02*
X11327253Y-11213888D01*
X11327253Y-11213888D02*
X11317729Y-11232936D01*
X11317729Y-11232936D02*
X11308205Y-11242460D01*
X11308205Y-11242460D02*
X11289158Y-11251984D01*
X11289158Y-11251984D02*
X11241539Y-11251984D01*
X11241539Y-11251984D02*
X11222491Y-11242460D01*
X11222491Y-11242460D02*
X11212967Y-11232936D01*
X11451062Y-11051984D02*
X11470110Y-11051984D01*
X11470110Y-11051984D02*
X11489158Y-11061508D01*
X11489158Y-11061508D02*
X11498682Y-11071031D01*
X11498682Y-11071031D02*
X11508205Y-11090079D01*
X11508205Y-11090079D02*
X11517729Y-11128174D01*
X11517729Y-11128174D02*
X11517729Y-11175793D01*
X11517729Y-11175793D02*
X11508205Y-11213888D01*
X11508205Y-11213888D02*
X11498682Y-11232936D01*
X11498682Y-11232936D02*
X11489158Y-11242460D01*
X11489158Y-11242460D02*
X11470110Y-11251984D01*
X11470110Y-11251984D02*
X11451062Y-11251984D01*
X11451062Y-11251984D02*
X11432015Y-11242460D01*
X11432015Y-11242460D02*
X11422491Y-11232936D01*
X11422491Y-11232936D02*
X11412967Y-11213888D01*
X11412967Y-11213888D02*
X11403443Y-11175793D01*
X11403443Y-11175793D02*
X11403443Y-11128174D01*
X11403443Y-11128174D02*
X11412967Y-11090079D01*
X11412967Y-11090079D02*
X11422491Y-11071031D01*
X11422491Y-11071031D02*
X11432015Y-11061508D01*
X11432015Y-11061508D02*
X11451062Y-11051984D01*
X11641539Y-11051984D02*
X11660586Y-11051984D01*
X11660586Y-11051984D02*
X11679634Y-11061508D01*
X11679634Y-11061508D02*
X11689158Y-11071031D01*
X11689158Y-11071031D02*
X11698682Y-11090079D01*
X11698682Y-11090079D02*
X11708205Y-11128174D01*
X11708205Y-11128174D02*
X11708205Y-11175793D01*
X11708205Y-11175793D02*
X11698682Y-11213888D01*
X11698682Y-11213888D02*
X11689158Y-11232936D01*
X11689158Y-11232936D02*
X11679634Y-11242460D01*
X11679634Y-11242460D02*
X11660586Y-11251984D01*
X11660586Y-11251984D02*
X11641539Y-11251984D01*
X11641539Y-11251984D02*
X11622491Y-11242460D01*
X11622491Y-11242460D02*
X11612967Y-11232936D01*
X11612967Y-11232936D02*
X11603443Y-11213888D01*
X11603443Y-11213888D02*
X11593920Y-11175793D01*
X11593920Y-11175793D02*
X11593920Y-11128174D01*
X11593920Y-11128174D02*
X11603443Y-11090079D01*
X11603443Y-11090079D02*
X11612967Y-11071031D01*
X11612967Y-11071031D02*
X11622491Y-11061508D01*
X11622491Y-11061508D02*
X11641539Y-11051984D01*
X11793920Y-11251984D02*
X11793920Y-11118650D01*
X11793920Y-11137698D02*
X11803443Y-11128174D01*
X11803443Y-11128174D02*
X11822491Y-11118650D01*
X11822491Y-11118650D02*
X11851063Y-11118650D01*
X11851063Y-11118650D02*
X11870110Y-11128174D01*
X11870110Y-11128174D02*
X11879634Y-11147222D01*
X11879634Y-11147222D02*
X11879634Y-11251984D01*
X11879634Y-11147222D02*
X11889158Y-11128174D01*
X11889158Y-11128174D02*
X11908205Y-11118650D01*
X11908205Y-11118650D02*
X11936777Y-11118650D01*
X11936777Y-11118650D02*
X11955824Y-11128174D01*
X11955824Y-11128174D02*
X11965348Y-11147222D01*
X11965348Y-11147222D02*
X11965348Y-11251984D01*
X12060586Y-11251984D02*
X12060586Y-11118650D01*
X12060586Y-11137698D02*
X12070110Y-11128174D01*
X12070110Y-11128174D02*
X12089158Y-11118650D01*
X12089158Y-11118650D02*
X12117729Y-11118650D01*
X12117729Y-11118650D02*
X12136777Y-11128174D01*
X12136777Y-11128174D02*
X12146301Y-11147222D01*
X12146301Y-11147222D02*
X12146301Y-11251984D01*
X12146301Y-11147222D02*
X12155824Y-11128174D01*
X12155824Y-11128174D02*
X12174872Y-11118650D01*
X12174872Y-11118650D02*
X12203443Y-11118650D01*
X12203443Y-11118650D02*
X12222491Y-11128174D01*
X12222491Y-11128174D02*
X12232015Y-11147222D01*
X12232015Y-11147222D02*
X12232015Y-11251984D01*
X12622491Y-11042460D02*
X12451063Y-11299603D01*
X12879634Y-11051984D02*
X12898682Y-11051984D01*
X12898682Y-11051984D02*
X12917729Y-11061508D01*
X12917729Y-11061508D02*
X12927253Y-11071031D01*
X12927253Y-11071031D02*
X12936777Y-11090079D01*
X12936777Y-11090079D02*
X12946301Y-11128174D01*
X12946301Y-11128174D02*
X12946301Y-11175793D01*
X12946301Y-11175793D02*
X12936777Y-11213888D01*
X12936777Y-11213888D02*
X12927253Y-11232936D01*
X12927253Y-11232936D02*
X12917729Y-11242460D01*
X12917729Y-11242460D02*
X12898682Y-11251984D01*
X12898682Y-11251984D02*
X12879634Y-11251984D01*
X12879634Y-11251984D02*
X12860586Y-11242460D01*
X12860586Y-11242460D02*
X12851063Y-11232936D01*
X12851063Y-11232936D02*
X12841539Y-11213888D01*
X12841539Y-11213888D02*
X12832015Y-11175793D01*
X12832015Y-11175793D02*
X12832015Y-11128174D01*
X12832015Y-11128174D02*
X12841539Y-11090079D01*
X12841539Y-11090079D02*
X12851063Y-11071031D01*
X12851063Y-11071031D02*
X12860586Y-11061508D01*
X12860586Y-11061508D02*
X12879634Y-11051984D01*
X13032015Y-11232936D02*
X13041539Y-11242460D01*
X13041539Y-11242460D02*
X13032015Y-11251984D01*
X13032015Y-11251984D02*
X13022491Y-11242460D01*
X13022491Y-11242460D02*
X13032015Y-11232936D01*
X13032015Y-11232936D02*
X13032015Y-11251984D01*
X13232015Y-11251984D02*
X13117729Y-11251984D01*
X13174872Y-11251984D02*
X13174872Y-11051984D01*
X13174872Y-11051984D02*
X13155825Y-11080555D01*
X13155825Y-11080555D02*
X13136777Y-11099603D01*
X13136777Y-11099603D02*
X13117729Y-11109127D01*
X13298682Y-11051984D02*
X13422491Y-11051984D01*
X13422491Y-11051984D02*
X13355825Y-11128174D01*
X13355825Y-11128174D02*
X13384396Y-11128174D01*
X13384396Y-11128174D02*
X13403444Y-11137698D01*
X13403444Y-11137698D02*
X13412967Y-11147222D01*
X13412967Y-11147222D02*
X13422491Y-11166270D01*
X13422491Y-11166270D02*
X13422491Y-11213888D01*
X13422491Y-11213888D02*
X13412967Y-11232936D01*
X13412967Y-11232936D02*
X13403444Y-11242460D01*
X13403444Y-11242460D02*
X13384396Y-11251984D01*
X13384396Y-11251984D02*
X13327253Y-11251984D01*
X13327253Y-11251984D02*
X13308206Y-11242460D01*
X13308206Y-11242460D02*
X13298682Y-11232936D01*
X13489158Y-11051984D02*
X13622491Y-11051984D01*
X13622491Y-11051984D02*
X13536777Y-11251984D01*
X13727253Y-11137698D02*
X13708206Y-11128174D01*
X13708206Y-11128174D02*
X13698682Y-11118650D01*
X13698682Y-11118650D02*
X13689158Y-11099603D01*
X13689158Y-11099603D02*
X13689158Y-11090079D01*
X13689158Y-11090079D02*
X13698682Y-11071031D01*
X13698682Y-11071031D02*
X13708206Y-11061508D01*
X13708206Y-11061508D02*
X13727253Y-11051984D01*
X13727253Y-11051984D02*
X13765348Y-11051984D01*
X13765348Y-11051984D02*
X13784396Y-11061508D01*
X13784396Y-11061508D02*
X13793920Y-11071031D01*
X13793920Y-11071031D02*
X13803444Y-11090079D01*
X13803444Y-11090079D02*
X13803444Y-11099603D01*
X13803444Y-11099603D02*
X13793920Y-11118650D01*
X13793920Y-11118650D02*
X13784396Y-11128174D01*
X13784396Y-11128174D02*
X13765348Y-11137698D01*
X13765348Y-11137698D02*
X13727253Y-11137698D01*
X13727253Y-11137698D02*
X13708206Y-11147222D01*
X13708206Y-11147222D02*
X13698682Y-11156746D01*
X13698682Y-11156746D02*
X13689158Y-11175793D01*
X13689158Y-11175793D02*
X13689158Y-11213888D01*
X13689158Y-11213888D02*
X13698682Y-11232936D01*
X13698682Y-11232936D02*
X13708206Y-11242460D01*
X13708206Y-11242460D02*
X13727253Y-11251984D01*
X13727253Y-11251984D02*
X13765348Y-11251984D01*
X13765348Y-11251984D02*
X13784396Y-11242460D01*
X13784396Y-11242460D02*
X13793920Y-11232936D01*
X13793920Y-11232936D02*
X13803444Y-11213888D01*
X13803444Y-11213888D02*
X13803444Y-11175793D01*
X13803444Y-11175793D02*
X13793920Y-11156746D01*
X13793920Y-11156746D02*
X13784396Y-11147222D01*
X13784396Y-11147222D02*
X13765348Y-11137698D01*
X13879634Y-11051984D02*
X13879634Y-11090079D01*
X13955825Y-11051984D02*
X13955825Y-11090079D01*
X14251063Y-11328174D02*
X14241539Y-11318650D01*
X14241539Y-11318650D02*
X14222491Y-11290079D01*
X14222491Y-11290079D02*
X14212968Y-11271031D01*
X14212968Y-11271031D02*
X14203444Y-11242460D01*
X14203444Y-11242460D02*
X14193920Y-11194841D01*
X14193920Y-11194841D02*
X14193920Y-11156746D01*
X14193920Y-11156746D02*
X14203444Y-11109127D01*
X14203444Y-11109127D02*
X14212968Y-11080555D01*
X14212968Y-11080555D02*
X14222491Y-11061508D01*
X14222491Y-11061508D02*
X14241539Y-11032936D01*
X14241539Y-11032936D02*
X14251063Y-11023412D01*
X14317729Y-11071031D02*
X14327253Y-11061508D01*
X14327253Y-11061508D02*
X14346301Y-11051984D01*
X14346301Y-11051984D02*
X14393920Y-11051984D01*
X14393920Y-11051984D02*
X14412968Y-11061508D01*
X14412968Y-11061508D02*
X14422491Y-11071031D01*
X14422491Y-11071031D02*
X14432015Y-11090079D01*
X14432015Y-11090079D02*
X14432015Y-11109127D01*
X14432015Y-11109127D02*
X14422491Y-11137698D01*
X14422491Y-11137698D02*
X14308206Y-11251984D01*
X14308206Y-11251984D02*
X14432015Y-11251984D01*
X14670110Y-11251984D02*
X14670110Y-11051984D01*
X14755825Y-11251984D02*
X14755825Y-11147222D01*
X14755825Y-11147222D02*
X14746301Y-11128174D01*
X14746301Y-11128174D02*
X14727253Y-11118650D01*
X14727253Y-11118650D02*
X14698682Y-11118650D01*
X14698682Y-11118650D02*
X14679634Y-11128174D01*
X14679634Y-11128174D02*
X14670110Y-11137698D01*
X14879634Y-11251984D02*
X14860587Y-11242460D01*
X14860587Y-11242460D02*
X14851063Y-11232936D01*
X14851063Y-11232936D02*
X14841539Y-11213888D01*
X14841539Y-11213888D02*
X14841539Y-11156746D01*
X14841539Y-11156746D02*
X14851063Y-11137698D01*
X14851063Y-11137698D02*
X14860587Y-11128174D01*
X14860587Y-11128174D02*
X14879634Y-11118650D01*
X14879634Y-11118650D02*
X14908206Y-11118650D01*
X14908206Y-11118650D02*
X14927253Y-11128174D01*
X14927253Y-11128174D02*
X14936777Y-11137698D01*
X14936777Y-11137698D02*
X14946301Y-11156746D01*
X14946301Y-11156746D02*
X14946301Y-11213888D01*
X14946301Y-11213888D02*
X14936777Y-11232936D01*
X14936777Y-11232936D02*
X14927253Y-11242460D01*
X14927253Y-11242460D02*
X14908206Y-11251984D01*
X14908206Y-11251984D02*
X14879634Y-11251984D01*
X15060587Y-11251984D02*
X15041539Y-11242460D01*
X15041539Y-11242460D02*
X15032015Y-11223412D01*
X15032015Y-11223412D02*
X15032015Y-11051984D01*
X15212968Y-11242460D02*
X15193920Y-11251984D01*
X15193920Y-11251984D02*
X15155825Y-11251984D01*
X15155825Y-11251984D02*
X15136777Y-11242460D01*
X15136777Y-11242460D02*
X15127253Y-11223412D01*
X15127253Y-11223412D02*
X15127253Y-11147222D01*
X15127253Y-11147222D02*
X15136777Y-11128174D01*
X15136777Y-11128174D02*
X15155825Y-11118650D01*
X15155825Y-11118650D02*
X15193920Y-11118650D01*
X15193920Y-11118650D02*
X15212968Y-11128174D01*
X15212968Y-11128174D02*
X15222491Y-11147222D01*
X15222491Y-11147222D02*
X15222491Y-11166270D01*
X15222491Y-11166270D02*
X15127253Y-11185317D01*
X15298682Y-11242460D02*
X15317730Y-11251984D01*
X15317730Y-11251984D02*
X15355825Y-11251984D01*
X15355825Y-11251984D02*
X15374872Y-11242460D01*
X15374872Y-11242460D02*
X15384396Y-11223412D01*
X15384396Y-11223412D02*
X15384396Y-11213888D01*
X15384396Y-11213888D02*
X15374872Y-11194841D01*
X15374872Y-11194841D02*
X15355825Y-11185317D01*
X15355825Y-11185317D02*
X15327253Y-11185317D01*
X15327253Y-11185317D02*
X15308206Y-11175793D01*
X15308206Y-11175793D02*
X15298682Y-11156746D01*
X15298682Y-11156746D02*
X15298682Y-11147222D01*
X15298682Y-11147222D02*
X15308206Y-11128174D01*
X15308206Y-11128174D02*
X15327253Y-11118650D01*
X15327253Y-11118650D02*
X15355825Y-11118650D01*
X15355825Y-11118650D02*
X15374872Y-11128174D01*
X15451063Y-11328174D02*
X15460587Y-11318650D01*
X15460587Y-11318650D02*
X15479634Y-11290079D01*
X15479634Y-11290079D02*
X15489158Y-11271031D01*
X15489158Y-11271031D02*
X15498682Y-11242460D01*
X15498682Y-11242460D02*
X15508206Y-11194841D01*
X15508206Y-11194841D02*
X15508206Y-11156746D01*
X15508206Y-11156746D02*
X15498682Y-11109127D01*
X15498682Y-11109127D02*
X15489158Y-11080555D01*
X15489158Y-11080555D02*
X15479634Y-11061508D01*
X15479634Y-11061508D02*
X15460587Y-11032936D01*
X15460587Y-11032936D02*
X15451063Y-11023412D01*
X15812968Y-11328174D02*
X15803444Y-11318650D01*
X15803444Y-11318650D02*
X15784396Y-11290079D01*
X15784396Y-11290079D02*
X15774872Y-11271031D01*
X15774872Y-11271031D02*
X15765349Y-11242460D01*
X15765349Y-11242460D02*
X15755825Y-11194841D01*
X15755825Y-11194841D02*
X15755825Y-11156746D01*
X15755825Y-11156746D02*
X15765349Y-11109127D01*
X15765349Y-11109127D02*
X15774872Y-11080555D01*
X15774872Y-11080555D02*
X15784396Y-11061508D01*
X15784396Y-11061508D02*
X15803444Y-11032936D01*
X15803444Y-11032936D02*
X15812968Y-11023412D01*
X15889158Y-11118650D02*
X15889158Y-11251984D01*
X15889158Y-11137698D02*
X15898682Y-11128174D01*
X15898682Y-11128174D02*
X15917730Y-11118650D01*
X15917730Y-11118650D02*
X15946301Y-11118650D01*
X15946301Y-11118650D02*
X15965349Y-11128174D01*
X15965349Y-11128174D02*
X15974872Y-11147222D01*
X15974872Y-11147222D02*
X15974872Y-11251984D01*
X16098682Y-11251984D02*
X16079634Y-11242460D01*
X16079634Y-11242460D02*
X16070111Y-11232936D01*
X16070111Y-11232936D02*
X16060587Y-11213888D01*
X16060587Y-11213888D02*
X16060587Y-11156746D01*
X16060587Y-11156746D02*
X16070111Y-11137698D01*
X16070111Y-11137698D02*
X16079634Y-11128174D01*
X16079634Y-11128174D02*
X16098682Y-11118650D01*
X16098682Y-11118650D02*
X16127253Y-11118650D01*
X16127253Y-11118650D02*
X16146301Y-11128174D01*
X16146301Y-11128174D02*
X16155825Y-11137698D01*
X16155825Y-11137698D02*
X16165349Y-11156746D01*
X16165349Y-11156746D02*
X16165349Y-11213888D01*
X16165349Y-11213888D02*
X16155825Y-11232936D01*
X16155825Y-11232936D02*
X16146301Y-11242460D01*
X16146301Y-11242460D02*
X16127253Y-11251984D01*
X16127253Y-11251984D02*
X16098682Y-11251984D01*
X16222492Y-11118650D02*
X16298682Y-11118650D01*
X16251063Y-11051984D02*
X16251063Y-11223412D01*
X16251063Y-11223412D02*
X16260587Y-11242460D01*
X16260587Y-11242460D02*
X16279634Y-11251984D01*
X16279634Y-11251984D02*
X16298682Y-11251984D01*
X16517730Y-11118650D02*
X16517730Y-11318650D01*
X16517730Y-11128174D02*
X16536777Y-11118650D01*
X16536777Y-11118650D02*
X16574873Y-11118650D01*
X16574873Y-11118650D02*
X16593920Y-11128174D01*
X16593920Y-11128174D02*
X16603444Y-11137698D01*
X16603444Y-11137698D02*
X16612968Y-11156746D01*
X16612968Y-11156746D02*
X16612968Y-11213888D01*
X16612968Y-11213888D02*
X16603444Y-11232936D01*
X16603444Y-11232936D02*
X16593920Y-11242460D01*
X16593920Y-11242460D02*
X16574873Y-11251984D01*
X16574873Y-11251984D02*
X16536777Y-11251984D01*
X16536777Y-11251984D02*
X16517730Y-11242460D01*
X16727253Y-11251984D02*
X16708206Y-11242460D01*
X16708206Y-11242460D02*
X16698682Y-11223412D01*
X16698682Y-11223412D02*
X16698682Y-11051984D01*
X16889158Y-11251984D02*
X16889158Y-11147222D01*
X16889158Y-11147222D02*
X16879635Y-11128174D01*
X16879635Y-11128174D02*
X16860587Y-11118650D01*
X16860587Y-11118650D02*
X16822492Y-11118650D01*
X16822492Y-11118650D02*
X16803444Y-11128174D01*
X16889158Y-11242460D02*
X16870111Y-11251984D01*
X16870111Y-11251984D02*
X16822492Y-11251984D01*
X16822492Y-11251984D02*
X16803444Y-11242460D01*
X16803444Y-11242460D02*
X16793920Y-11223412D01*
X16793920Y-11223412D02*
X16793920Y-11204365D01*
X16793920Y-11204365D02*
X16803444Y-11185317D01*
X16803444Y-11185317D02*
X16822492Y-11175793D01*
X16822492Y-11175793D02*
X16870111Y-11175793D01*
X16870111Y-11175793D02*
X16889158Y-11166270D01*
X16955825Y-11118650D02*
X17032015Y-11118650D01*
X16984396Y-11051984D02*
X16984396Y-11223412D01*
X16984396Y-11223412D02*
X16993920Y-11242460D01*
X16993920Y-11242460D02*
X17012968Y-11251984D01*
X17012968Y-11251984D02*
X17032015Y-11251984D01*
X17174873Y-11242460D02*
X17155825Y-11251984D01*
X17155825Y-11251984D02*
X17117730Y-11251984D01*
X17117730Y-11251984D02*
X17098682Y-11242460D01*
X17098682Y-11242460D02*
X17089158Y-11223412D01*
X17089158Y-11223412D02*
X17089158Y-11147222D01*
X17089158Y-11147222D02*
X17098682Y-11128174D01*
X17098682Y-11128174D02*
X17117730Y-11118650D01*
X17117730Y-11118650D02*
X17155825Y-11118650D01*
X17155825Y-11118650D02*
X17174873Y-11128174D01*
X17174873Y-11128174D02*
X17184396Y-11147222D01*
X17184396Y-11147222D02*
X17184396Y-11166270D01*
X17184396Y-11166270D02*
X17089158Y-11185317D01*
X17355825Y-11251984D02*
X17355825Y-11051984D01*
X17355825Y-11242460D02*
X17336777Y-11251984D01*
X17336777Y-11251984D02*
X17298682Y-11251984D01*
X17298682Y-11251984D02*
X17279635Y-11242460D01*
X17279635Y-11242460D02*
X17270111Y-11232936D01*
X17270111Y-11232936D02*
X17260587Y-11213888D01*
X17260587Y-11213888D02*
X17260587Y-11156746D01*
X17260587Y-11156746D02*
X17270111Y-11137698D01*
X17270111Y-11137698D02*
X17279635Y-11128174D01*
X17279635Y-11128174D02*
X17298682Y-11118650D01*
X17298682Y-11118650D02*
X17336777Y-11118650D01*
X17336777Y-11118650D02*
X17355825Y-11128174D01*
X17432016Y-11328174D02*
X17441539Y-11318650D01*
X17441539Y-11318650D02*
X17460587Y-11290079D01*
X17460587Y-11290079D02*
X17470111Y-11271031D01*
X17470111Y-11271031D02*
X17479635Y-11242460D01*
X17479635Y-11242460D02*
X17489158Y-11194841D01*
X17489158Y-11194841D02*
X17489158Y-11156746D01*
X17489158Y-11156746D02*
X17479635Y-11109127D01*
X17479635Y-11109127D02*
X17470111Y-11080555D01*
X17470111Y-11080555D02*
X17460587Y-11061508D01*
X17460587Y-11061508D02*
X17441539Y-11032936D01*
X17441539Y-11032936D02*
X17432016Y-11023412D01*
X10576000Y-11380500D02*
X10576000Y-11580500D01*
X10476000Y-11480500D02*
X10676000Y-11480500D01*
X11032015Y-11371984D02*
X10936777Y-11371984D01*
X10936777Y-11371984D02*
X10927253Y-11467222D01*
X10927253Y-11467222D02*
X10936777Y-11457698D01*
X10936777Y-11457698D02*
X10955824Y-11448174D01*
X10955824Y-11448174D02*
X11003444Y-11448174D01*
X11003444Y-11448174D02*
X11022491Y-11457698D01*
X11022491Y-11457698D02*
X11032015Y-11467222D01*
X11032015Y-11467222D02*
X11041539Y-11486269D01*
X11041539Y-11486269D02*
X11041539Y-11533888D01*
X11041539Y-11533888D02*
X11032015Y-11552936D01*
X11032015Y-11552936D02*
X11022491Y-11562460D01*
X11022491Y-11562460D02*
X11003444Y-11571984D01*
X11003444Y-11571984D02*
X10955824Y-11571984D01*
X10955824Y-11571984D02*
X10936777Y-11562460D01*
X10936777Y-11562460D02*
X10927253Y-11552936D01*
X11127253Y-11552936D02*
X11136777Y-11562460D01*
X11136777Y-11562460D02*
X11127253Y-11571984D01*
X11127253Y-11571984D02*
X11117729Y-11562460D01*
X11117729Y-11562460D02*
X11127253Y-11552936D01*
X11127253Y-11552936D02*
X11127253Y-11571984D01*
X11327253Y-11571984D02*
X11212967Y-11571984D01*
X11270110Y-11571984D02*
X11270110Y-11371984D01*
X11270110Y-11371984D02*
X11251062Y-11400555D01*
X11251062Y-11400555D02*
X11232015Y-11419603D01*
X11232015Y-11419603D02*
X11212967Y-11429127D01*
X11451062Y-11371984D02*
X11470110Y-11371984D01*
X11470110Y-11371984D02*
X11489158Y-11381508D01*
X11489158Y-11381508D02*
X11498682Y-11391031D01*
X11498682Y-11391031D02*
X11508205Y-11410079D01*
X11508205Y-11410079D02*
X11517729Y-11448174D01*
X11517729Y-11448174D02*
X11517729Y-11495793D01*
X11517729Y-11495793D02*
X11508205Y-11533888D01*
X11508205Y-11533888D02*
X11498682Y-11552936D01*
X11498682Y-11552936D02*
X11489158Y-11562460D01*
X11489158Y-11562460D02*
X11470110Y-11571984D01*
X11470110Y-11571984D02*
X11451062Y-11571984D01*
X11451062Y-11571984D02*
X11432015Y-11562460D01*
X11432015Y-11562460D02*
X11422491Y-11552936D01*
X11422491Y-11552936D02*
X11412967Y-11533888D01*
X11412967Y-11533888D02*
X11403443Y-11495793D01*
X11403443Y-11495793D02*
X11403443Y-11448174D01*
X11403443Y-11448174D02*
X11412967Y-11410079D01*
X11412967Y-11410079D02*
X11422491Y-11391031D01*
X11422491Y-11391031D02*
X11432015Y-11381508D01*
X11432015Y-11381508D02*
X11451062Y-11371984D01*
X11641539Y-11371984D02*
X11660586Y-11371984D01*
X11660586Y-11371984D02*
X11679634Y-11381508D01*
X11679634Y-11381508D02*
X11689158Y-11391031D01*
X11689158Y-11391031D02*
X11698682Y-11410079D01*
X11698682Y-11410079D02*
X11708205Y-11448174D01*
X11708205Y-11448174D02*
X11708205Y-11495793D01*
X11708205Y-11495793D02*
X11698682Y-11533888D01*
X11698682Y-11533888D02*
X11689158Y-11552936D01*
X11689158Y-11552936D02*
X11679634Y-11562460D01*
X11679634Y-11562460D02*
X11660586Y-11571984D01*
X11660586Y-11571984D02*
X11641539Y-11571984D01*
X11641539Y-11571984D02*
X11622491Y-11562460D01*
X11622491Y-11562460D02*
X11612967Y-11552936D01*
X11612967Y-11552936D02*
X11603443Y-11533888D01*
X11603443Y-11533888D02*
X11593920Y-11495793D01*
X11593920Y-11495793D02*
X11593920Y-11448174D01*
X11593920Y-11448174D02*
X11603443Y-11410079D01*
X11603443Y-11410079D02*
X11612967Y-11391031D01*
X11612967Y-11391031D02*
X11622491Y-11381508D01*
X11622491Y-11381508D02*
X11641539Y-11371984D01*
X11793920Y-11571984D02*
X11793920Y-11438650D01*
X11793920Y-11457698D02*
X11803443Y-11448174D01*
X11803443Y-11448174D02*
X11822491Y-11438650D01*
X11822491Y-11438650D02*
X11851063Y-11438650D01*
X11851063Y-11438650D02*
X11870110Y-11448174D01*
X11870110Y-11448174D02*
X11879634Y-11467222D01*
X11879634Y-11467222D02*
X11879634Y-11571984D01*
X11879634Y-11467222D02*
X11889158Y-11448174D01*
X11889158Y-11448174D02*
X11908205Y-11438650D01*
X11908205Y-11438650D02*
X11936777Y-11438650D01*
X11936777Y-11438650D02*
X11955824Y-11448174D01*
X11955824Y-11448174D02*
X11965348Y-11467222D01*
X11965348Y-11467222D02*
X11965348Y-11571984D01*
X12060586Y-11571984D02*
X12060586Y-11438650D01*
X12060586Y-11457698D02*
X12070110Y-11448174D01*
X12070110Y-11448174D02*
X12089158Y-11438650D01*
X12089158Y-11438650D02*
X12117729Y-11438650D01*
X12117729Y-11438650D02*
X12136777Y-11448174D01*
X12136777Y-11448174D02*
X12146301Y-11467222D01*
X12146301Y-11467222D02*
X12146301Y-11571984D01*
X12146301Y-11467222D02*
X12155824Y-11448174D01*
X12155824Y-11448174D02*
X12174872Y-11438650D01*
X12174872Y-11438650D02*
X12203443Y-11438650D01*
X12203443Y-11438650D02*
X12222491Y-11448174D01*
X12222491Y-11448174D02*
X12232015Y-11467222D01*
X12232015Y-11467222D02*
X12232015Y-11571984D01*
X12622491Y-11362460D02*
X12451063Y-11619603D01*
X12879634Y-11371984D02*
X12898682Y-11371984D01*
X12898682Y-11371984D02*
X12917729Y-11381508D01*
X12917729Y-11381508D02*
X12927253Y-11391031D01*
X12927253Y-11391031D02*
X12936777Y-11410079D01*
X12936777Y-11410079D02*
X12946301Y-11448174D01*
X12946301Y-11448174D02*
X12946301Y-11495793D01*
X12946301Y-11495793D02*
X12936777Y-11533888D01*
X12936777Y-11533888D02*
X12927253Y-11552936D01*
X12927253Y-11552936D02*
X12917729Y-11562460D01*
X12917729Y-11562460D02*
X12898682Y-11571984D01*
X12898682Y-11571984D02*
X12879634Y-11571984D01*
X12879634Y-11571984D02*
X12860586Y-11562460D01*
X12860586Y-11562460D02*
X12851063Y-11552936D01*
X12851063Y-11552936D02*
X12841539Y-11533888D01*
X12841539Y-11533888D02*
X12832015Y-11495793D01*
X12832015Y-11495793D02*
X12832015Y-11448174D01*
X12832015Y-11448174D02*
X12841539Y-11410079D01*
X12841539Y-11410079D02*
X12851063Y-11391031D01*
X12851063Y-11391031D02*
X12860586Y-11381508D01*
X12860586Y-11381508D02*
X12879634Y-11371984D01*
X13032015Y-11552936D02*
X13041539Y-11562460D01*
X13041539Y-11562460D02*
X13032015Y-11571984D01*
X13032015Y-11571984D02*
X13022491Y-11562460D01*
X13022491Y-11562460D02*
X13032015Y-11552936D01*
X13032015Y-11552936D02*
X13032015Y-11571984D01*
X13117729Y-11391031D02*
X13127253Y-11381508D01*
X13127253Y-11381508D02*
X13146301Y-11371984D01*
X13146301Y-11371984D02*
X13193920Y-11371984D01*
X13193920Y-11371984D02*
X13212967Y-11381508D01*
X13212967Y-11381508D02*
X13222491Y-11391031D01*
X13222491Y-11391031D02*
X13232015Y-11410079D01*
X13232015Y-11410079D02*
X13232015Y-11429127D01*
X13232015Y-11429127D02*
X13222491Y-11457698D01*
X13222491Y-11457698D02*
X13108206Y-11571984D01*
X13108206Y-11571984D02*
X13232015Y-11571984D01*
X13355825Y-11371984D02*
X13374872Y-11371984D01*
X13374872Y-11371984D02*
X13393920Y-11381508D01*
X13393920Y-11381508D02*
X13403444Y-11391031D01*
X13403444Y-11391031D02*
X13412967Y-11410079D01*
X13412967Y-11410079D02*
X13422491Y-11448174D01*
X13422491Y-11448174D02*
X13422491Y-11495793D01*
X13422491Y-11495793D02*
X13412967Y-11533888D01*
X13412967Y-11533888D02*
X13403444Y-11552936D01*
X13403444Y-11552936D02*
X13393920Y-11562460D01*
X13393920Y-11562460D02*
X13374872Y-11571984D01*
X13374872Y-11571984D02*
X13355825Y-11571984D01*
X13355825Y-11571984D02*
X13336777Y-11562460D01*
X13336777Y-11562460D02*
X13327253Y-11552936D01*
X13327253Y-11552936D02*
X13317729Y-11533888D01*
X13317729Y-11533888D02*
X13308206Y-11495793D01*
X13308206Y-11495793D02*
X13308206Y-11448174D01*
X13308206Y-11448174D02*
X13317729Y-11410079D01*
X13317729Y-11410079D02*
X13327253Y-11391031D01*
X13327253Y-11391031D02*
X13336777Y-11381508D01*
X13336777Y-11381508D02*
X13355825Y-11371984D01*
X13546301Y-11371984D02*
X13565348Y-11371984D01*
X13565348Y-11371984D02*
X13584396Y-11381508D01*
X13584396Y-11381508D02*
X13593920Y-11391031D01*
X13593920Y-11391031D02*
X13603444Y-11410079D01*
X13603444Y-11410079D02*
X13612967Y-11448174D01*
X13612967Y-11448174D02*
X13612967Y-11495793D01*
X13612967Y-11495793D02*
X13603444Y-11533888D01*
X13603444Y-11533888D02*
X13593920Y-11552936D01*
X13593920Y-11552936D02*
X13584396Y-11562460D01*
X13584396Y-11562460D02*
X13565348Y-11571984D01*
X13565348Y-11571984D02*
X13546301Y-11571984D01*
X13546301Y-11571984D02*
X13527253Y-11562460D01*
X13527253Y-11562460D02*
X13517729Y-11552936D01*
X13517729Y-11552936D02*
X13508206Y-11533888D01*
X13508206Y-11533888D02*
X13498682Y-11495793D01*
X13498682Y-11495793D02*
X13498682Y-11448174D01*
X13498682Y-11448174D02*
X13508206Y-11410079D01*
X13508206Y-11410079D02*
X13517729Y-11391031D01*
X13517729Y-11391031D02*
X13527253Y-11381508D01*
X13527253Y-11381508D02*
X13546301Y-11371984D01*
X13727253Y-11457698D02*
X13708206Y-11448174D01*
X13708206Y-11448174D02*
X13698682Y-11438650D01*
X13698682Y-11438650D02*
X13689158Y-11419603D01*
X13689158Y-11419603D02*
X13689158Y-11410079D01*
X13689158Y-11410079D02*
X13698682Y-11391031D01*
X13698682Y-11391031D02*
X13708206Y-11381508D01*
X13708206Y-11381508D02*
X13727253Y-11371984D01*
X13727253Y-11371984D02*
X13765348Y-11371984D01*
X13765348Y-11371984D02*
X13784396Y-11381508D01*
X13784396Y-11381508D02*
X13793920Y-11391031D01*
X13793920Y-11391031D02*
X13803444Y-11410079D01*
X13803444Y-11410079D02*
X13803444Y-11419603D01*
X13803444Y-11419603D02*
X13793920Y-11438650D01*
X13793920Y-11438650D02*
X13784396Y-11448174D01*
X13784396Y-11448174D02*
X13765348Y-11457698D01*
X13765348Y-11457698D02*
X13727253Y-11457698D01*
X13727253Y-11457698D02*
X13708206Y-11467222D01*
X13708206Y-11467222D02*
X13698682Y-11476746D01*
X13698682Y-11476746D02*
X13689158Y-11495793D01*
X13689158Y-11495793D02*
X13689158Y-11533888D01*
X13689158Y-11533888D02*
X13698682Y-11552936D01*
X13698682Y-11552936D02*
X13708206Y-11562460D01*
X13708206Y-11562460D02*
X13727253Y-11571984D01*
X13727253Y-11571984D02*
X13765348Y-11571984D01*
X13765348Y-11571984D02*
X13784396Y-11562460D01*
X13784396Y-11562460D02*
X13793920Y-11552936D01*
X13793920Y-11552936D02*
X13803444Y-11533888D01*
X13803444Y-11533888D02*
X13803444Y-11495793D01*
X13803444Y-11495793D02*
X13793920Y-11476746D01*
X13793920Y-11476746D02*
X13784396Y-11467222D01*
X13784396Y-11467222D02*
X13765348Y-11457698D01*
X13879634Y-11371984D02*
X13879634Y-11410079D01*
X13955825Y-11371984D02*
X13955825Y-11410079D01*
X14251063Y-11648174D02*
X14241539Y-11638650D01*
X14241539Y-11638650D02*
X14222491Y-11610079D01*
X14222491Y-11610079D02*
X14212968Y-11591031D01*
X14212968Y-11591031D02*
X14203444Y-11562460D01*
X14203444Y-11562460D02*
X14193920Y-11514841D01*
X14193920Y-11514841D02*
X14193920Y-11476746D01*
X14193920Y-11476746D02*
X14203444Y-11429127D01*
X14203444Y-11429127D02*
X14212968Y-11400555D01*
X14212968Y-11400555D02*
X14222491Y-11381508D01*
X14222491Y-11381508D02*
X14241539Y-11352936D01*
X14241539Y-11352936D02*
X14251063Y-11343412D01*
X14412968Y-11371984D02*
X14374872Y-11371984D01*
X14374872Y-11371984D02*
X14355825Y-11381508D01*
X14355825Y-11381508D02*
X14346301Y-11391031D01*
X14346301Y-11391031D02*
X14327253Y-11419603D01*
X14327253Y-11419603D02*
X14317729Y-11457698D01*
X14317729Y-11457698D02*
X14317729Y-11533888D01*
X14317729Y-11533888D02*
X14327253Y-11552936D01*
X14327253Y-11552936D02*
X14336777Y-11562460D01*
X14336777Y-11562460D02*
X14355825Y-11571984D01*
X14355825Y-11571984D02*
X14393920Y-11571984D01*
X14393920Y-11571984D02*
X14412968Y-11562460D01*
X14412968Y-11562460D02*
X14422491Y-11552936D01*
X14422491Y-11552936D02*
X14432015Y-11533888D01*
X14432015Y-11533888D02*
X14432015Y-11486269D01*
X14432015Y-11486269D02*
X14422491Y-11467222D01*
X14422491Y-11467222D02*
X14412968Y-11457698D01*
X14412968Y-11457698D02*
X14393920Y-11448174D01*
X14393920Y-11448174D02*
X14355825Y-11448174D01*
X14355825Y-11448174D02*
X14336777Y-11457698D01*
X14336777Y-11457698D02*
X14327253Y-11467222D01*
X14327253Y-11467222D02*
X14317729Y-11486269D01*
X14670110Y-11571984D02*
X14670110Y-11371984D01*
X14755825Y-11571984D02*
X14755825Y-11467222D01*
X14755825Y-11467222D02*
X14746301Y-11448174D01*
X14746301Y-11448174D02*
X14727253Y-11438650D01*
X14727253Y-11438650D02*
X14698682Y-11438650D01*
X14698682Y-11438650D02*
X14679634Y-11448174D01*
X14679634Y-11448174D02*
X14670110Y-11457698D01*
X14879634Y-11571984D02*
X14860587Y-11562460D01*
X14860587Y-11562460D02*
X14851063Y-11552936D01*
X14851063Y-11552936D02*
X14841539Y-11533888D01*
X14841539Y-11533888D02*
X14841539Y-11476746D01*
X14841539Y-11476746D02*
X14851063Y-11457698D01*
X14851063Y-11457698D02*
X14860587Y-11448174D01*
X14860587Y-11448174D02*
X14879634Y-11438650D01*
X14879634Y-11438650D02*
X14908206Y-11438650D01*
X14908206Y-11438650D02*
X14927253Y-11448174D01*
X14927253Y-11448174D02*
X14936777Y-11457698D01*
X14936777Y-11457698D02*
X14946301Y-11476746D01*
X14946301Y-11476746D02*
X14946301Y-11533888D01*
X14946301Y-11533888D02*
X14936777Y-11552936D01*
X14936777Y-11552936D02*
X14927253Y-11562460D01*
X14927253Y-11562460D02*
X14908206Y-11571984D01*
X14908206Y-11571984D02*
X14879634Y-11571984D01*
X15060587Y-11571984D02*
X15041539Y-11562460D01*
X15041539Y-11562460D02*
X15032015Y-11543412D01*
X15032015Y-11543412D02*
X15032015Y-11371984D01*
X15212968Y-11562460D02*
X15193920Y-11571984D01*
X15193920Y-11571984D02*
X15155825Y-11571984D01*
X15155825Y-11571984D02*
X15136777Y-11562460D01*
X15136777Y-11562460D02*
X15127253Y-11543412D01*
X15127253Y-11543412D02*
X15127253Y-11467222D01*
X15127253Y-11467222D02*
X15136777Y-11448174D01*
X15136777Y-11448174D02*
X15155825Y-11438650D01*
X15155825Y-11438650D02*
X15193920Y-11438650D01*
X15193920Y-11438650D02*
X15212968Y-11448174D01*
X15212968Y-11448174D02*
X15222491Y-11467222D01*
X15222491Y-11467222D02*
X15222491Y-11486269D01*
X15222491Y-11486269D02*
X15127253Y-11505317D01*
X15298682Y-11562460D02*
X15317730Y-11571984D01*
X15317730Y-11571984D02*
X15355825Y-11571984D01*
X15355825Y-11571984D02*
X15374872Y-11562460D01*
X15374872Y-11562460D02*
X15384396Y-11543412D01*
X15384396Y-11543412D02*
X15384396Y-11533888D01*
X15384396Y-11533888D02*
X15374872Y-11514841D01*
X15374872Y-11514841D02*
X15355825Y-11505317D01*
X15355825Y-11505317D02*
X15327253Y-11505317D01*
X15327253Y-11505317D02*
X15308206Y-11495793D01*
X15308206Y-11495793D02*
X15298682Y-11476746D01*
X15298682Y-11476746D02*
X15298682Y-11467222D01*
X15298682Y-11467222D02*
X15308206Y-11448174D01*
X15308206Y-11448174D02*
X15327253Y-11438650D01*
X15327253Y-11438650D02*
X15355825Y-11438650D01*
X15355825Y-11438650D02*
X15374872Y-11448174D01*
X15451063Y-11648174D02*
X15460587Y-11638650D01*
X15460587Y-11638650D02*
X15479634Y-11610079D01*
X15479634Y-11610079D02*
X15489158Y-11591031D01*
X15489158Y-11591031D02*
X15498682Y-11562460D01*
X15498682Y-11562460D02*
X15508206Y-11514841D01*
X15508206Y-11514841D02*
X15508206Y-11476746D01*
X15508206Y-11476746D02*
X15498682Y-11429127D01*
X15498682Y-11429127D02*
X15489158Y-11400555D01*
X15489158Y-11400555D02*
X15479634Y-11381508D01*
X15479634Y-11381508D02*
X15460587Y-11352936D01*
X15460587Y-11352936D02*
X15451063Y-11343412D01*
X15812968Y-11648174D02*
X15803444Y-11638650D01*
X15803444Y-11638650D02*
X15784396Y-11610079D01*
X15784396Y-11610079D02*
X15774872Y-11591031D01*
X15774872Y-11591031D02*
X15765349Y-11562460D01*
X15765349Y-11562460D02*
X15755825Y-11514841D01*
X15755825Y-11514841D02*
X15755825Y-11476746D01*
X15755825Y-11476746D02*
X15765349Y-11429127D01*
X15765349Y-11429127D02*
X15774872Y-11400555D01*
X15774872Y-11400555D02*
X15784396Y-11381508D01*
X15784396Y-11381508D02*
X15803444Y-11352936D01*
X15803444Y-11352936D02*
X15812968Y-11343412D01*
X15889158Y-11438650D02*
X15889158Y-11571984D01*
X15889158Y-11457698D02*
X15898682Y-11448174D01*
X15898682Y-11448174D02*
X15917730Y-11438650D01*
X15917730Y-11438650D02*
X15946301Y-11438650D01*
X15946301Y-11438650D02*
X15965349Y-11448174D01*
X15965349Y-11448174D02*
X15974872Y-11467222D01*
X15974872Y-11467222D02*
X15974872Y-11571984D01*
X16098682Y-11571984D02*
X16079634Y-11562460D01*
X16079634Y-11562460D02*
X16070111Y-11552936D01*
X16070111Y-11552936D02*
X16060587Y-11533888D01*
X16060587Y-11533888D02*
X16060587Y-11476746D01*
X16060587Y-11476746D02*
X16070111Y-11457698D01*
X16070111Y-11457698D02*
X16079634Y-11448174D01*
X16079634Y-11448174D02*
X16098682Y-11438650D01*
X16098682Y-11438650D02*
X16127253Y-11438650D01*
X16127253Y-11438650D02*
X16146301Y-11448174D01*
X16146301Y-11448174D02*
X16155825Y-11457698D01*
X16155825Y-11457698D02*
X16165349Y-11476746D01*
X16165349Y-11476746D02*
X16165349Y-11533888D01*
X16165349Y-11533888D02*
X16155825Y-11552936D01*
X16155825Y-11552936D02*
X16146301Y-11562460D01*
X16146301Y-11562460D02*
X16127253Y-11571984D01*
X16127253Y-11571984D02*
X16098682Y-11571984D01*
X16222492Y-11438650D02*
X16298682Y-11438650D01*
X16251063Y-11371984D02*
X16251063Y-11543412D01*
X16251063Y-11543412D02*
X16260587Y-11562460D01*
X16260587Y-11562460D02*
X16279634Y-11571984D01*
X16279634Y-11571984D02*
X16298682Y-11571984D01*
X16517730Y-11438650D02*
X16517730Y-11638650D01*
X16517730Y-11448174D02*
X16536777Y-11438650D01*
X16536777Y-11438650D02*
X16574873Y-11438650D01*
X16574873Y-11438650D02*
X16593920Y-11448174D01*
X16593920Y-11448174D02*
X16603444Y-11457698D01*
X16603444Y-11457698D02*
X16612968Y-11476746D01*
X16612968Y-11476746D02*
X16612968Y-11533888D01*
X16612968Y-11533888D02*
X16603444Y-11552936D01*
X16603444Y-11552936D02*
X16593920Y-11562460D01*
X16593920Y-11562460D02*
X16574873Y-11571984D01*
X16574873Y-11571984D02*
X16536777Y-11571984D01*
X16536777Y-11571984D02*
X16517730Y-11562460D01*
X16727253Y-11571984D02*
X16708206Y-11562460D01*
X16708206Y-11562460D02*
X16698682Y-11543412D01*
X16698682Y-11543412D02*
X16698682Y-11371984D01*
X16889158Y-11571984D02*
X16889158Y-11467222D01*
X16889158Y-11467222D02*
X16879635Y-11448174D01*
X16879635Y-11448174D02*
X16860587Y-11438650D01*
X16860587Y-11438650D02*
X16822492Y-11438650D01*
X16822492Y-11438650D02*
X16803444Y-11448174D01*
X16889158Y-11562460D02*
X16870111Y-11571984D01*
X16870111Y-11571984D02*
X16822492Y-11571984D01*
X16822492Y-11571984D02*
X16803444Y-11562460D01*
X16803444Y-11562460D02*
X16793920Y-11543412D01*
X16793920Y-11543412D02*
X16793920Y-11524365D01*
X16793920Y-11524365D02*
X16803444Y-11505317D01*
X16803444Y-11505317D02*
X16822492Y-11495793D01*
X16822492Y-11495793D02*
X16870111Y-11495793D01*
X16870111Y-11495793D02*
X16889158Y-11486269D01*
X16955825Y-11438650D02*
X17032015Y-11438650D01*
X16984396Y-11371984D02*
X16984396Y-11543412D01*
X16984396Y-11543412D02*
X16993920Y-11562460D01*
X16993920Y-11562460D02*
X17012968Y-11571984D01*
X17012968Y-11571984D02*
X17032015Y-11571984D01*
X17174873Y-11562460D02*
X17155825Y-11571984D01*
X17155825Y-11571984D02*
X17117730Y-11571984D01*
X17117730Y-11571984D02*
X17098682Y-11562460D01*
X17098682Y-11562460D02*
X17089158Y-11543412D01*
X17089158Y-11543412D02*
X17089158Y-11467222D01*
X17089158Y-11467222D02*
X17098682Y-11448174D01*
X17098682Y-11448174D02*
X17117730Y-11438650D01*
X17117730Y-11438650D02*
X17155825Y-11438650D01*
X17155825Y-11438650D02*
X17174873Y-11448174D01*
X17174873Y-11448174D02*
X17184396Y-11467222D01*
X17184396Y-11467222D02*
X17184396Y-11486269D01*
X17184396Y-11486269D02*
X17089158Y-11505317D01*
X17355825Y-11571984D02*
X17355825Y-11371984D01*
X17355825Y-11562460D02*
X17336777Y-11571984D01*
X17336777Y-11571984D02*
X17298682Y-11571984D01*
X17298682Y-11571984D02*
X17279635Y-11562460D01*
X17279635Y-11562460D02*
X17270111Y-11552936D01*
X17270111Y-11552936D02*
X17260587Y-11533888D01*
X17260587Y-11533888D02*
X17260587Y-11476746D01*
X17260587Y-11476746D02*
X17270111Y-11457698D01*
X17270111Y-11457698D02*
X17279635Y-11448174D01*
X17279635Y-11448174D02*
X17298682Y-11438650D01*
X17298682Y-11438650D02*
X17336777Y-11438650D01*
X17336777Y-11438650D02*
X17355825Y-11448174D01*
X17432016Y-11648174D02*
X17441539Y-11638650D01*
X17441539Y-11638650D02*
X17460587Y-11610079D01*
X17460587Y-11610079D02*
X17470111Y-11591031D01*
X17470111Y-11591031D02*
X17479635Y-11562460D01*
X17479635Y-11562460D02*
X17489158Y-11514841D01*
X17489158Y-11514841D02*
X17489158Y-11476746D01*
X17489158Y-11476746D02*
X17479635Y-11429127D01*
X17479635Y-11429127D02*
X17470111Y-11400555D01*
X17470111Y-11400555D02*
X17460587Y-11381508D01*
X17460587Y-11381508D02*
X17441539Y-11352936D01*
X17441539Y-11352936D02*
X17432016Y-11343412D01*
M02*
