%TF.GenerationSoftware,KiCad,Pcbnew,7.0.5*%
%TF.CreationDate,2023-08-01T07:37:41+08:00*%
%TF.ProjectId,RM,524d2e6b-6963-4616-945f-706362585858,rev?*%
%TF.SameCoordinates,Original*%
%TF.FileFunction,Drillmap*%
%TF.FilePolarity,Positive*%
%FSLAX45Y45*%
G04 Gerber Fmt 4.5, Leading zero omitted, Abs format (unit mm)*
G04 Created by KiCad (PCBNEW 7.0.5) date 2023-08-01 07:37:41*
%MOMM*%
%LPD*%
G01*
G04 APERTURE LIST*
%ADD10C,0.100000*%
%ADD11C,0.200000*%
%ADD12C,0.040000*%
%ADD13C,0.150000*%
G04 APERTURE END LIST*
D10*
X11353500Y-10155500D02*
G75*
G03*
X11403500Y-10205500I50000J0D01*
G01*
X10681000Y-8321000D02*
X11353500Y-8321000D01*
X15153500Y-10155500D02*
X15153500Y-4540500D01*
X15103500Y-4490500D02*
X11403500Y-4490500D01*
X10681000Y-6035000D02*
X10681000Y-8321000D01*
X15103500Y-10205500D02*
X11403500Y-10205500D01*
X15153500Y-4540500D02*
G75*
G03*
X15103500Y-4490500I-50000J0D01*
G01*
X11403500Y-4490500D02*
G75*
G03*
X11353500Y-4540500I0J-50000D01*
G01*
X11353500Y-8321000D02*
X11353500Y-10155500D01*
X11353500Y-6035000D02*
X11353500Y-4540500D01*
X10681000Y-6035000D02*
X11353500Y-6035000D01*
X15103500Y-10205500D02*
G75*
G03*
X15153500Y-10155500I0J50000D01*
G01*
D11*
D12*
X11466230Y-8039770D02*
X11506230Y-8079770D01*
X11506230Y-8039770D02*
X11466230Y-8079770D01*
X11499000Y-6316000D02*
X11539000Y-6356000D01*
X11539000Y-6316000D02*
X11499000Y-6356000D01*
X13456000Y-8895000D02*
X13496000Y-8935000D01*
X13496000Y-8895000D02*
X13456000Y-8935000D01*
X14482000Y-7185000D02*
X14522000Y-7225000D01*
X14522000Y-7185000D02*
X14482000Y-7225000D01*
D10*
X10858000Y-6162000D02*
G75*
G03*
X10858000Y-6162000I-50000J0D01*
G01*
X10858000Y-6416000D02*
G75*
G03*
X10858000Y-6416000I-50000J0D01*
G01*
X10858000Y-6670000D02*
G75*
G03*
X10858000Y-6670000I-50000J0D01*
G01*
X10858000Y-6924000D02*
G75*
G03*
X10858000Y-6924000I-50000J0D01*
G01*
X10858000Y-7178000D02*
G75*
G03*
X10858000Y-7178000I-50000J0D01*
G01*
X10858000Y-7432000D02*
G75*
G03*
X10858000Y-7432000I-50000J0D01*
G01*
X10858000Y-7686000D02*
G75*
G03*
X10858000Y-7686000I-50000J0D01*
G01*
X10858000Y-7940000D02*
G75*
G03*
X10858000Y-7940000I-50000J0D01*
G01*
X10858000Y-8194000D02*
G75*
G03*
X10858000Y-8194000I-50000J0D01*
G01*
X11112000Y-6162000D02*
G75*
G03*
X11112000Y-6162000I-50000J0D01*
G01*
X11112000Y-6416000D02*
G75*
G03*
X11112000Y-6416000I-50000J0D01*
G01*
X11112000Y-6670000D02*
G75*
G03*
X11112000Y-6670000I-50000J0D01*
G01*
X11112000Y-6924000D02*
G75*
G03*
X11112000Y-6924000I-50000J0D01*
G01*
X11112000Y-7178000D02*
G75*
G03*
X11112000Y-7178000I-50000J0D01*
G01*
X11112000Y-7432000D02*
G75*
G03*
X11112000Y-7432000I-50000J0D01*
G01*
X11112000Y-7686000D02*
G75*
G03*
X11112000Y-7686000I-50000J0D01*
G01*
X11112000Y-7940000D02*
G75*
G03*
X11112000Y-7940000I-50000J0D01*
G01*
X11112000Y-8194000D02*
G75*
G03*
X11112000Y-8194000I-50000J0D01*
G01*
X12928000Y-10071000D02*
G75*
G03*
X12928000Y-10071000I-50000J0D01*
G01*
X13182000Y-10071000D02*
G75*
G03*
X13182000Y-10071000I-50000J0D01*
G01*
X13436000Y-10071000D02*
G75*
G03*
X13436000Y-10071000I-50000J0D01*
G01*
X13690000Y-10071000D02*
G75*
G03*
X13690000Y-10071000I-50000J0D01*
G01*
X15073000Y-6586000D02*
G75*
G03*
X15073000Y-6586000I-50000J0D01*
G01*
X15073000Y-6840000D02*
G75*
G03*
X15073000Y-6840000I-50000J0D01*
G01*
X15073000Y-7094000D02*
G75*
G03*
X15073000Y-7094000I-50000J0D01*
G01*
X15073000Y-7348000D02*
G75*
G03*
X15073000Y-7348000I-50000J0D01*
G01*
X15073000Y-7602000D02*
G75*
G03*
X15073000Y-7602000I-50000J0D01*
G01*
X15073000Y-7856000D02*
G75*
G03*
X15073000Y-7856000I-50000J0D01*
G01*
X15073000Y-8110000D02*
G75*
G03*
X15073000Y-8110000I-50000J0D01*
G01*
D13*
X11836000Y-5793000D02*
X11836000Y-5943000D01*
X11761000Y-5868000D02*
X11911000Y-5868000D01*
D11*
X11926139Y-5867984D02*
X11870654Y-5784789D01*
X11870654Y-5784789D02*
G75*
G03*
X11745861Y-5868016I-62397J-41613D01*
G01*
X11745861Y-5868016D02*
X11801346Y-5951211D01*
X11801346Y-5951211D02*
G75*
G03*
X11926139Y-5867984I62397J41613D01*
G01*
D13*
X11836000Y-7698000D02*
X11836000Y-7848000D01*
X11761000Y-7773000D02*
X11911000Y-7773000D01*
D11*
X11926139Y-7772984D02*
X11870654Y-7689789D01*
X11870654Y-7689789D02*
G75*
G03*
X11745861Y-7773016I-62397J-41613D01*
G01*
X11745861Y-7773016D02*
X11801346Y-7856211D01*
X11801346Y-7856211D02*
G75*
G03*
X11926139Y-7772984I62397J41613D01*
G01*
D13*
X11836000Y-9603000D02*
X11836000Y-9753000D01*
X11761000Y-9678000D02*
X11911000Y-9678000D01*
D11*
X11926139Y-9677984D02*
X11870654Y-9594789D01*
X11870654Y-9594789D02*
G75*
G03*
X11745861Y-9678016I-62397J-41613D01*
G01*
X11745861Y-9678016D02*
X11801346Y-9761211D01*
X11801346Y-9761211D02*
G75*
G03*
X11926139Y-9677984I62397J41613D01*
G01*
D13*
X11925000Y-5114000D02*
X11925000Y-5264000D01*
X11850000Y-5189000D02*
X12000000Y-5189000D01*
X11925000Y-7019000D02*
X11925000Y-7169000D01*
X11850000Y-7094000D02*
X12000000Y-7094000D01*
X11925000Y-8924000D02*
X11925000Y-9074000D01*
X11850000Y-8999000D02*
X12000000Y-8999000D01*
X12306000Y-5958000D02*
X12306000Y-6108000D01*
X12231000Y-6033000D02*
X12381000Y-6033000D01*
X12306000Y-7863000D02*
X12306000Y-8013000D01*
X12231000Y-7938000D02*
X12381000Y-7938000D01*
X12306000Y-9768000D02*
X12306000Y-9918000D01*
X12231000Y-9843000D02*
X12381000Y-9843000D01*
X12560000Y-4858000D02*
X12560000Y-5008000D01*
X12485000Y-4933000D02*
X12635000Y-4933000D01*
X12560000Y-6763000D02*
X12560000Y-6913000D01*
X12485000Y-6838000D02*
X12635000Y-6838000D01*
X12560000Y-8668000D02*
X12560000Y-8818000D01*
X12485000Y-8743000D02*
X12635000Y-8743000D01*
X12566000Y-5958000D02*
X12566000Y-6108000D01*
X12491000Y-6033000D02*
X12641000Y-6033000D01*
X12566000Y-7863000D02*
X12566000Y-8013000D01*
X12491000Y-7938000D02*
X12641000Y-7938000D01*
X12566000Y-9768000D02*
X12566000Y-9918000D01*
X12491000Y-9843000D02*
X12641000Y-9843000D01*
X12806000Y-4858000D02*
X12806000Y-5008000D01*
X12731000Y-4933000D02*
X12881000Y-4933000D01*
D11*
X12881000Y-4933000D02*
X12881000Y-4933000D01*
X12881000Y-4933000D02*
G75*
G03*
X12731000Y-4933000I-75000J0D01*
G01*
X12731000Y-4933000D02*
X12731000Y-4933000D01*
X12731000Y-4933000D02*
G75*
G03*
X12881000Y-4933000I75000J0D01*
G01*
D13*
X12806000Y-6763000D02*
X12806000Y-6913000D01*
X12731000Y-6838000D02*
X12881000Y-6838000D01*
D11*
X12881000Y-6838000D02*
X12881000Y-6838000D01*
X12881000Y-6838000D02*
G75*
G03*
X12731000Y-6838000I-75000J0D01*
G01*
X12731000Y-6838000D02*
X12731000Y-6838000D01*
X12731000Y-6838000D02*
G75*
G03*
X12881000Y-6838000I75000J0D01*
G01*
D13*
X12806000Y-8668000D02*
X12806000Y-8818000D01*
X12731000Y-8743000D02*
X12881000Y-8743000D01*
D11*
X12881000Y-8743000D02*
X12881000Y-8743000D01*
X12881000Y-8743000D02*
G75*
G03*
X12731000Y-8743000I-75000J0D01*
G01*
X12731000Y-8743000D02*
X12731000Y-8743000D01*
X12731000Y-8743000D02*
G75*
G03*
X12881000Y-8743000I75000J0D01*
G01*
D13*
X13741000Y-5793000D02*
X13741000Y-5943000D01*
X13666000Y-5868000D02*
X13816000Y-5868000D01*
D11*
X13831139Y-5867984D02*
X13775654Y-5784789D01*
X13775654Y-5784789D02*
G75*
G03*
X13650861Y-5868016I-62397J-41613D01*
G01*
X13650861Y-5868016D02*
X13706346Y-5951211D01*
X13706346Y-5951211D02*
G75*
G03*
X13831139Y-5867984I62397J41613D01*
G01*
D13*
X13741000Y-7698000D02*
X13741000Y-7848000D01*
X13666000Y-7773000D02*
X13816000Y-7773000D01*
D11*
X13831139Y-7772984D02*
X13775654Y-7689789D01*
X13775654Y-7689789D02*
G75*
G03*
X13650861Y-7773016I-62397J-41613D01*
G01*
X13650861Y-7773016D02*
X13706346Y-7856211D01*
X13706346Y-7856211D02*
G75*
G03*
X13831139Y-7772984I62397J41613D01*
G01*
D13*
X13741000Y-9603000D02*
X13741000Y-9753000D01*
X13666000Y-9678000D02*
X13816000Y-9678000D01*
D11*
X13831139Y-9677984D02*
X13775654Y-9594789D01*
X13775654Y-9594789D02*
G75*
G03*
X13650861Y-9678016I-62397J-41613D01*
G01*
X13650861Y-9678016D02*
X13706346Y-9761211D01*
X13706346Y-9761211D02*
G75*
G03*
X13831139Y-9677984I62397J41613D01*
G01*
D13*
X13830000Y-5114000D02*
X13830000Y-5264000D01*
X13755000Y-5189000D02*
X13905000Y-5189000D01*
X13830000Y-7019000D02*
X13830000Y-7169000D01*
X13755000Y-7094000D02*
X13905000Y-7094000D01*
X13830000Y-8924000D02*
X13830000Y-9074000D01*
X13755000Y-8999000D02*
X13905000Y-8999000D01*
X14211000Y-5958000D02*
X14211000Y-6108000D01*
X14136000Y-6033000D02*
X14286000Y-6033000D01*
X14211000Y-7863000D02*
X14211000Y-8013000D01*
X14136000Y-7938000D02*
X14286000Y-7938000D01*
X14211000Y-9768000D02*
X14211000Y-9918000D01*
X14136000Y-9843000D02*
X14286000Y-9843000D01*
X14465000Y-4858000D02*
X14465000Y-5008000D01*
X14390000Y-4933000D02*
X14540000Y-4933000D01*
X14465000Y-6763000D02*
X14465000Y-6913000D01*
X14390000Y-6838000D02*
X14540000Y-6838000D01*
X14465000Y-8668000D02*
X14465000Y-8818000D01*
X14390000Y-8743000D02*
X14540000Y-8743000D01*
X14471000Y-5958000D02*
X14471000Y-6108000D01*
X14396000Y-6033000D02*
X14546000Y-6033000D01*
X14471000Y-7863000D02*
X14471000Y-8013000D01*
X14396000Y-7938000D02*
X14546000Y-7938000D01*
X14471000Y-9768000D02*
X14471000Y-9918000D01*
X14396000Y-9843000D02*
X14546000Y-9843000D01*
X14711000Y-4858000D02*
X14711000Y-5008000D01*
X14636000Y-4933000D02*
X14786000Y-4933000D01*
D11*
X14786000Y-4933000D02*
X14786000Y-4933000D01*
X14786000Y-4933000D02*
G75*
G03*
X14636000Y-4933000I-75000J0D01*
G01*
X14636000Y-4933000D02*
X14636000Y-4933000D01*
X14636000Y-4933000D02*
G75*
G03*
X14786000Y-4933000I75000J0D01*
G01*
D13*
X14711000Y-6763000D02*
X14711000Y-6913000D01*
X14636000Y-6838000D02*
X14786000Y-6838000D01*
D11*
X14786000Y-6838000D02*
X14786000Y-6838000D01*
X14786000Y-6838000D02*
G75*
G03*
X14636000Y-6838000I-75000J0D01*
G01*
X14636000Y-6838000D02*
X14636000Y-6838000D01*
X14636000Y-6838000D02*
G75*
G03*
X14786000Y-6838000I75000J0D01*
G01*
D13*
X14711000Y-8668000D02*
X14711000Y-8818000D01*
X14636000Y-8743000D02*
X14786000Y-8743000D01*
D11*
X14786000Y-8743000D02*
X14786000Y-8743000D01*
X14786000Y-8743000D02*
G75*
G03*
X14636000Y-8743000I-75000J0D01*
G01*
X14636000Y-8743000D02*
X14636000Y-8743000D01*
X14636000Y-8743000D02*
G75*
G03*
X14786000Y-8743000I75000J0D01*
G01*
X10936777Y-10521984D02*
X10936777Y-10321984D01*
X10936777Y-10321984D02*
X10984396Y-10321984D01*
X10984396Y-10321984D02*
X11012967Y-10331508D01*
X11012967Y-10331508D02*
X11032015Y-10350555D01*
X11032015Y-10350555D02*
X11041539Y-10369603D01*
X11041539Y-10369603D02*
X11051063Y-10407698D01*
X11051063Y-10407698D02*
X11051063Y-10436270D01*
X11051063Y-10436270D02*
X11041539Y-10474365D01*
X11041539Y-10474365D02*
X11032015Y-10493412D01*
X11032015Y-10493412D02*
X11012967Y-10512460D01*
X11012967Y-10512460D02*
X10984396Y-10521984D01*
X10984396Y-10521984D02*
X10936777Y-10521984D01*
X11136777Y-10521984D02*
X11136777Y-10388650D01*
X11136777Y-10426746D02*
X11146301Y-10407698D01*
X11146301Y-10407698D02*
X11155824Y-10398174D01*
X11155824Y-10398174D02*
X11174872Y-10388650D01*
X11174872Y-10388650D02*
X11193920Y-10388650D01*
X11260586Y-10521984D02*
X11260586Y-10388650D01*
X11260586Y-10321984D02*
X11251062Y-10331508D01*
X11251062Y-10331508D02*
X11260586Y-10341031D01*
X11260586Y-10341031D02*
X11270110Y-10331508D01*
X11270110Y-10331508D02*
X11260586Y-10321984D01*
X11260586Y-10321984D02*
X11260586Y-10341031D01*
X11384396Y-10521984D02*
X11365348Y-10512460D01*
X11365348Y-10512460D02*
X11355824Y-10493412D01*
X11355824Y-10493412D02*
X11355824Y-10321984D01*
X11489158Y-10521984D02*
X11470110Y-10512460D01*
X11470110Y-10512460D02*
X11460586Y-10493412D01*
X11460586Y-10493412D02*
X11460586Y-10321984D01*
X11717729Y-10521984D02*
X11717729Y-10321984D01*
X11717729Y-10321984D02*
X11784396Y-10464841D01*
X11784396Y-10464841D02*
X11851062Y-10321984D01*
X11851062Y-10321984D02*
X11851062Y-10521984D01*
X12032015Y-10521984D02*
X12032015Y-10417222D01*
X12032015Y-10417222D02*
X12022491Y-10398174D01*
X12022491Y-10398174D02*
X12003443Y-10388650D01*
X12003443Y-10388650D02*
X11965348Y-10388650D01*
X11965348Y-10388650D02*
X11946301Y-10398174D01*
X12032015Y-10512460D02*
X12012967Y-10521984D01*
X12012967Y-10521984D02*
X11965348Y-10521984D01*
X11965348Y-10521984D02*
X11946301Y-10512460D01*
X11946301Y-10512460D02*
X11936777Y-10493412D01*
X11936777Y-10493412D02*
X11936777Y-10474365D01*
X11936777Y-10474365D02*
X11946301Y-10455317D01*
X11946301Y-10455317D02*
X11965348Y-10445793D01*
X11965348Y-10445793D02*
X12012967Y-10445793D01*
X12012967Y-10445793D02*
X12032015Y-10436270D01*
X12127253Y-10388650D02*
X12127253Y-10588650D01*
X12127253Y-10398174D02*
X12146301Y-10388650D01*
X12146301Y-10388650D02*
X12184396Y-10388650D01*
X12184396Y-10388650D02*
X12203443Y-10398174D01*
X12203443Y-10398174D02*
X12212967Y-10407698D01*
X12212967Y-10407698D02*
X12222491Y-10426746D01*
X12222491Y-10426746D02*
X12222491Y-10483889D01*
X12222491Y-10483889D02*
X12212967Y-10502936D01*
X12212967Y-10502936D02*
X12203443Y-10512460D01*
X12203443Y-10512460D02*
X12184396Y-10521984D01*
X12184396Y-10521984D02*
X12146301Y-10521984D01*
X12146301Y-10521984D02*
X12127253Y-10512460D01*
X12308205Y-10502936D02*
X12317729Y-10512460D01*
X12317729Y-10512460D02*
X12308205Y-10521984D01*
X12308205Y-10521984D02*
X12298682Y-10512460D01*
X12298682Y-10512460D02*
X12308205Y-10502936D01*
X12308205Y-10502936D02*
X12308205Y-10521984D01*
X12308205Y-10398174D02*
X12317729Y-10407698D01*
X12317729Y-10407698D02*
X12308205Y-10417222D01*
X12308205Y-10417222D02*
X12298682Y-10407698D01*
X12298682Y-10407698D02*
X12308205Y-10398174D01*
X12308205Y-10398174D02*
X12308205Y-10417222D01*
D12*
X10636000Y-10830500D02*
X10676000Y-10870500D01*
X10676000Y-10830500D02*
X10636000Y-10870500D01*
D11*
X10974872Y-10741984D02*
X10993920Y-10741984D01*
X10993920Y-10741984D02*
X11012967Y-10751508D01*
X11012967Y-10751508D02*
X11022491Y-10761031D01*
X11022491Y-10761031D02*
X11032015Y-10780079D01*
X11032015Y-10780079D02*
X11041539Y-10818174D01*
X11041539Y-10818174D02*
X11041539Y-10865793D01*
X11041539Y-10865793D02*
X11032015Y-10903889D01*
X11032015Y-10903889D02*
X11022491Y-10922936D01*
X11022491Y-10922936D02*
X11012967Y-10932460D01*
X11012967Y-10932460D02*
X10993920Y-10941984D01*
X10993920Y-10941984D02*
X10974872Y-10941984D01*
X10974872Y-10941984D02*
X10955824Y-10932460D01*
X10955824Y-10932460D02*
X10946301Y-10922936D01*
X10946301Y-10922936D02*
X10936777Y-10903889D01*
X10936777Y-10903889D02*
X10927253Y-10865793D01*
X10927253Y-10865793D02*
X10927253Y-10818174D01*
X10927253Y-10818174D02*
X10936777Y-10780079D01*
X10936777Y-10780079D02*
X10946301Y-10761031D01*
X10946301Y-10761031D02*
X10955824Y-10751508D01*
X10955824Y-10751508D02*
X10974872Y-10741984D01*
X11127253Y-10922936D02*
X11136777Y-10932460D01*
X11136777Y-10932460D02*
X11127253Y-10941984D01*
X11127253Y-10941984D02*
X11117729Y-10932460D01*
X11117729Y-10932460D02*
X11127253Y-10922936D01*
X11127253Y-10922936D02*
X11127253Y-10941984D01*
X11308205Y-10808650D02*
X11308205Y-10941984D01*
X11260586Y-10732460D02*
X11212967Y-10875317D01*
X11212967Y-10875317D02*
X11336777Y-10875317D01*
X11451062Y-10741984D02*
X11470110Y-10741984D01*
X11470110Y-10741984D02*
X11489158Y-10751508D01*
X11489158Y-10751508D02*
X11498682Y-10761031D01*
X11498682Y-10761031D02*
X11508205Y-10780079D01*
X11508205Y-10780079D02*
X11517729Y-10818174D01*
X11517729Y-10818174D02*
X11517729Y-10865793D01*
X11517729Y-10865793D02*
X11508205Y-10903889D01*
X11508205Y-10903889D02*
X11498682Y-10922936D01*
X11498682Y-10922936D02*
X11489158Y-10932460D01*
X11489158Y-10932460D02*
X11470110Y-10941984D01*
X11470110Y-10941984D02*
X11451062Y-10941984D01*
X11451062Y-10941984D02*
X11432015Y-10932460D01*
X11432015Y-10932460D02*
X11422491Y-10922936D01*
X11422491Y-10922936D02*
X11412967Y-10903889D01*
X11412967Y-10903889D02*
X11403443Y-10865793D01*
X11403443Y-10865793D02*
X11403443Y-10818174D01*
X11403443Y-10818174D02*
X11412967Y-10780079D01*
X11412967Y-10780079D02*
X11422491Y-10761031D01*
X11422491Y-10761031D02*
X11432015Y-10751508D01*
X11432015Y-10751508D02*
X11451062Y-10741984D01*
X11641539Y-10741984D02*
X11660586Y-10741984D01*
X11660586Y-10741984D02*
X11679634Y-10751508D01*
X11679634Y-10751508D02*
X11689158Y-10761031D01*
X11689158Y-10761031D02*
X11698682Y-10780079D01*
X11698682Y-10780079D02*
X11708205Y-10818174D01*
X11708205Y-10818174D02*
X11708205Y-10865793D01*
X11708205Y-10865793D02*
X11698682Y-10903889D01*
X11698682Y-10903889D02*
X11689158Y-10922936D01*
X11689158Y-10922936D02*
X11679634Y-10932460D01*
X11679634Y-10932460D02*
X11660586Y-10941984D01*
X11660586Y-10941984D02*
X11641539Y-10941984D01*
X11641539Y-10941984D02*
X11622491Y-10932460D01*
X11622491Y-10932460D02*
X11612967Y-10922936D01*
X11612967Y-10922936D02*
X11603443Y-10903889D01*
X11603443Y-10903889D02*
X11593920Y-10865793D01*
X11593920Y-10865793D02*
X11593920Y-10818174D01*
X11593920Y-10818174D02*
X11603443Y-10780079D01*
X11603443Y-10780079D02*
X11612967Y-10761031D01*
X11612967Y-10761031D02*
X11622491Y-10751508D01*
X11622491Y-10751508D02*
X11641539Y-10741984D01*
X11793920Y-10941984D02*
X11793920Y-10808650D01*
X11793920Y-10827698D02*
X11803443Y-10818174D01*
X11803443Y-10818174D02*
X11822491Y-10808650D01*
X11822491Y-10808650D02*
X11851063Y-10808650D01*
X11851063Y-10808650D02*
X11870110Y-10818174D01*
X11870110Y-10818174D02*
X11879634Y-10837222D01*
X11879634Y-10837222D02*
X11879634Y-10941984D01*
X11879634Y-10837222D02*
X11889158Y-10818174D01*
X11889158Y-10818174D02*
X11908205Y-10808650D01*
X11908205Y-10808650D02*
X11936777Y-10808650D01*
X11936777Y-10808650D02*
X11955824Y-10818174D01*
X11955824Y-10818174D02*
X11965348Y-10837222D01*
X11965348Y-10837222D02*
X11965348Y-10941984D01*
X12060586Y-10941984D02*
X12060586Y-10808650D01*
X12060586Y-10827698D02*
X12070110Y-10818174D01*
X12070110Y-10818174D02*
X12089158Y-10808650D01*
X12089158Y-10808650D02*
X12117729Y-10808650D01*
X12117729Y-10808650D02*
X12136777Y-10818174D01*
X12136777Y-10818174D02*
X12146301Y-10837222D01*
X12146301Y-10837222D02*
X12146301Y-10941984D01*
X12146301Y-10837222D02*
X12155824Y-10818174D01*
X12155824Y-10818174D02*
X12174872Y-10808650D01*
X12174872Y-10808650D02*
X12203443Y-10808650D01*
X12203443Y-10808650D02*
X12222491Y-10818174D01*
X12222491Y-10818174D02*
X12232015Y-10837222D01*
X12232015Y-10837222D02*
X12232015Y-10941984D01*
X12622491Y-10732460D02*
X12451063Y-10989603D01*
X12879634Y-10741984D02*
X12898682Y-10741984D01*
X12898682Y-10741984D02*
X12917729Y-10751508D01*
X12917729Y-10751508D02*
X12927253Y-10761031D01*
X12927253Y-10761031D02*
X12936777Y-10780079D01*
X12936777Y-10780079D02*
X12946301Y-10818174D01*
X12946301Y-10818174D02*
X12946301Y-10865793D01*
X12946301Y-10865793D02*
X12936777Y-10903889D01*
X12936777Y-10903889D02*
X12927253Y-10922936D01*
X12927253Y-10922936D02*
X12917729Y-10932460D01*
X12917729Y-10932460D02*
X12898682Y-10941984D01*
X12898682Y-10941984D02*
X12879634Y-10941984D01*
X12879634Y-10941984D02*
X12860586Y-10932460D01*
X12860586Y-10932460D02*
X12851063Y-10922936D01*
X12851063Y-10922936D02*
X12841539Y-10903889D01*
X12841539Y-10903889D02*
X12832015Y-10865793D01*
X12832015Y-10865793D02*
X12832015Y-10818174D01*
X12832015Y-10818174D02*
X12841539Y-10780079D01*
X12841539Y-10780079D02*
X12851063Y-10761031D01*
X12851063Y-10761031D02*
X12860586Y-10751508D01*
X12860586Y-10751508D02*
X12879634Y-10741984D01*
X13032015Y-10922936D02*
X13041539Y-10932460D01*
X13041539Y-10932460D02*
X13032015Y-10941984D01*
X13032015Y-10941984D02*
X13022491Y-10932460D01*
X13022491Y-10932460D02*
X13032015Y-10922936D01*
X13032015Y-10922936D02*
X13032015Y-10941984D01*
X13165348Y-10741984D02*
X13184396Y-10741984D01*
X13184396Y-10741984D02*
X13203444Y-10751508D01*
X13203444Y-10751508D02*
X13212967Y-10761031D01*
X13212967Y-10761031D02*
X13222491Y-10780079D01*
X13222491Y-10780079D02*
X13232015Y-10818174D01*
X13232015Y-10818174D02*
X13232015Y-10865793D01*
X13232015Y-10865793D02*
X13222491Y-10903889D01*
X13222491Y-10903889D02*
X13212967Y-10922936D01*
X13212967Y-10922936D02*
X13203444Y-10932460D01*
X13203444Y-10932460D02*
X13184396Y-10941984D01*
X13184396Y-10941984D02*
X13165348Y-10941984D01*
X13165348Y-10941984D02*
X13146301Y-10932460D01*
X13146301Y-10932460D02*
X13136777Y-10922936D01*
X13136777Y-10922936D02*
X13127253Y-10903889D01*
X13127253Y-10903889D02*
X13117729Y-10865793D01*
X13117729Y-10865793D02*
X13117729Y-10818174D01*
X13117729Y-10818174D02*
X13127253Y-10780079D01*
X13127253Y-10780079D02*
X13136777Y-10761031D01*
X13136777Y-10761031D02*
X13146301Y-10751508D01*
X13146301Y-10751508D02*
X13165348Y-10741984D01*
X13422491Y-10941984D02*
X13308206Y-10941984D01*
X13365348Y-10941984D02*
X13365348Y-10741984D01*
X13365348Y-10741984D02*
X13346301Y-10770555D01*
X13346301Y-10770555D02*
X13327253Y-10789603D01*
X13327253Y-10789603D02*
X13308206Y-10799127D01*
X13603444Y-10741984D02*
X13508206Y-10741984D01*
X13508206Y-10741984D02*
X13498682Y-10837222D01*
X13498682Y-10837222D02*
X13508206Y-10827698D01*
X13508206Y-10827698D02*
X13527253Y-10818174D01*
X13527253Y-10818174D02*
X13574872Y-10818174D01*
X13574872Y-10818174D02*
X13593920Y-10827698D01*
X13593920Y-10827698D02*
X13603444Y-10837222D01*
X13603444Y-10837222D02*
X13612967Y-10856270D01*
X13612967Y-10856270D02*
X13612967Y-10903889D01*
X13612967Y-10903889D02*
X13603444Y-10922936D01*
X13603444Y-10922936D02*
X13593920Y-10932460D01*
X13593920Y-10932460D02*
X13574872Y-10941984D01*
X13574872Y-10941984D02*
X13527253Y-10941984D01*
X13527253Y-10941984D02*
X13508206Y-10932460D01*
X13508206Y-10932460D02*
X13498682Y-10922936D01*
X13679634Y-10741984D02*
X13812967Y-10741984D01*
X13812967Y-10741984D02*
X13727253Y-10941984D01*
X13879634Y-10741984D02*
X13879634Y-10780079D01*
X13955825Y-10741984D02*
X13955825Y-10780079D01*
X14251063Y-11018174D02*
X14241539Y-11008650D01*
X14241539Y-11008650D02*
X14222491Y-10980079D01*
X14222491Y-10980079D02*
X14212968Y-10961031D01*
X14212968Y-10961031D02*
X14203444Y-10932460D01*
X14203444Y-10932460D02*
X14193920Y-10884841D01*
X14193920Y-10884841D02*
X14193920Y-10846746D01*
X14193920Y-10846746D02*
X14203444Y-10799127D01*
X14203444Y-10799127D02*
X14212968Y-10770555D01*
X14212968Y-10770555D02*
X14222491Y-10751508D01*
X14222491Y-10751508D02*
X14241539Y-10722936D01*
X14241539Y-10722936D02*
X14251063Y-10713412D01*
X14412968Y-10808650D02*
X14412968Y-10941984D01*
X14365348Y-10732460D02*
X14317729Y-10875317D01*
X14317729Y-10875317D02*
X14441539Y-10875317D01*
X14670110Y-10941984D02*
X14670110Y-10741984D01*
X14755825Y-10941984D02*
X14755825Y-10837222D01*
X14755825Y-10837222D02*
X14746301Y-10818174D01*
X14746301Y-10818174D02*
X14727253Y-10808650D01*
X14727253Y-10808650D02*
X14698682Y-10808650D01*
X14698682Y-10808650D02*
X14679634Y-10818174D01*
X14679634Y-10818174D02*
X14670110Y-10827698D01*
X14879634Y-10941984D02*
X14860587Y-10932460D01*
X14860587Y-10932460D02*
X14851063Y-10922936D01*
X14851063Y-10922936D02*
X14841539Y-10903889D01*
X14841539Y-10903889D02*
X14841539Y-10846746D01*
X14841539Y-10846746D02*
X14851063Y-10827698D01*
X14851063Y-10827698D02*
X14860587Y-10818174D01*
X14860587Y-10818174D02*
X14879634Y-10808650D01*
X14879634Y-10808650D02*
X14908206Y-10808650D01*
X14908206Y-10808650D02*
X14927253Y-10818174D01*
X14927253Y-10818174D02*
X14936777Y-10827698D01*
X14936777Y-10827698D02*
X14946301Y-10846746D01*
X14946301Y-10846746D02*
X14946301Y-10903889D01*
X14946301Y-10903889D02*
X14936777Y-10922936D01*
X14936777Y-10922936D02*
X14927253Y-10932460D01*
X14927253Y-10932460D02*
X14908206Y-10941984D01*
X14908206Y-10941984D02*
X14879634Y-10941984D01*
X15060587Y-10941984D02*
X15041539Y-10932460D01*
X15041539Y-10932460D02*
X15032015Y-10913412D01*
X15032015Y-10913412D02*
X15032015Y-10741984D01*
X15212968Y-10932460D02*
X15193920Y-10941984D01*
X15193920Y-10941984D02*
X15155825Y-10941984D01*
X15155825Y-10941984D02*
X15136777Y-10932460D01*
X15136777Y-10932460D02*
X15127253Y-10913412D01*
X15127253Y-10913412D02*
X15127253Y-10837222D01*
X15127253Y-10837222D02*
X15136777Y-10818174D01*
X15136777Y-10818174D02*
X15155825Y-10808650D01*
X15155825Y-10808650D02*
X15193920Y-10808650D01*
X15193920Y-10808650D02*
X15212968Y-10818174D01*
X15212968Y-10818174D02*
X15222491Y-10837222D01*
X15222491Y-10837222D02*
X15222491Y-10856270D01*
X15222491Y-10856270D02*
X15127253Y-10875317D01*
X15298682Y-10932460D02*
X15317730Y-10941984D01*
X15317730Y-10941984D02*
X15355825Y-10941984D01*
X15355825Y-10941984D02*
X15374872Y-10932460D01*
X15374872Y-10932460D02*
X15384396Y-10913412D01*
X15384396Y-10913412D02*
X15384396Y-10903889D01*
X15384396Y-10903889D02*
X15374872Y-10884841D01*
X15374872Y-10884841D02*
X15355825Y-10875317D01*
X15355825Y-10875317D02*
X15327253Y-10875317D01*
X15327253Y-10875317D02*
X15308206Y-10865793D01*
X15308206Y-10865793D02*
X15298682Y-10846746D01*
X15298682Y-10846746D02*
X15298682Y-10837222D01*
X15298682Y-10837222D02*
X15308206Y-10818174D01*
X15308206Y-10818174D02*
X15327253Y-10808650D01*
X15327253Y-10808650D02*
X15355825Y-10808650D01*
X15355825Y-10808650D02*
X15374872Y-10818174D01*
X15451063Y-11018174D02*
X15460587Y-11008650D01*
X15460587Y-11008650D02*
X15479634Y-10980079D01*
X15479634Y-10980079D02*
X15489158Y-10961031D01*
X15489158Y-10961031D02*
X15498682Y-10932460D01*
X15498682Y-10932460D02*
X15508206Y-10884841D01*
X15508206Y-10884841D02*
X15508206Y-10846746D01*
X15508206Y-10846746D02*
X15498682Y-10799127D01*
X15498682Y-10799127D02*
X15489158Y-10770555D01*
X15489158Y-10770555D02*
X15479634Y-10751508D01*
X15479634Y-10751508D02*
X15460587Y-10722936D01*
X15460587Y-10722936D02*
X15451063Y-10713412D01*
D10*
X10676000Y-11114500D02*
G75*
G03*
X10676000Y-11114500I-50000J0D01*
G01*
D11*
X11041539Y-11205984D02*
X10927253Y-11205984D01*
X10984396Y-11205984D02*
X10984396Y-11005984D01*
X10984396Y-11005984D02*
X10965348Y-11034555D01*
X10965348Y-11034555D02*
X10946301Y-11053603D01*
X10946301Y-11053603D02*
X10927253Y-11063127D01*
X11127253Y-11186936D02*
X11136777Y-11196460D01*
X11136777Y-11196460D02*
X11127253Y-11205984D01*
X11127253Y-11205984D02*
X11117729Y-11196460D01*
X11117729Y-11196460D02*
X11127253Y-11186936D01*
X11127253Y-11186936D02*
X11127253Y-11205984D01*
X11260586Y-11005984D02*
X11279634Y-11005984D01*
X11279634Y-11005984D02*
X11298682Y-11015508D01*
X11298682Y-11015508D02*
X11308205Y-11025031D01*
X11308205Y-11025031D02*
X11317729Y-11044079D01*
X11317729Y-11044079D02*
X11327253Y-11082174D01*
X11327253Y-11082174D02*
X11327253Y-11129793D01*
X11327253Y-11129793D02*
X11317729Y-11167889D01*
X11317729Y-11167889D02*
X11308205Y-11186936D01*
X11308205Y-11186936D02*
X11298682Y-11196460D01*
X11298682Y-11196460D02*
X11279634Y-11205984D01*
X11279634Y-11205984D02*
X11260586Y-11205984D01*
X11260586Y-11205984D02*
X11241539Y-11196460D01*
X11241539Y-11196460D02*
X11232015Y-11186936D01*
X11232015Y-11186936D02*
X11222491Y-11167889D01*
X11222491Y-11167889D02*
X11212967Y-11129793D01*
X11212967Y-11129793D02*
X11212967Y-11082174D01*
X11212967Y-11082174D02*
X11222491Y-11044079D01*
X11222491Y-11044079D02*
X11232015Y-11025031D01*
X11232015Y-11025031D02*
X11241539Y-11015508D01*
X11241539Y-11015508D02*
X11260586Y-11005984D01*
X11451062Y-11005984D02*
X11470110Y-11005984D01*
X11470110Y-11005984D02*
X11489158Y-11015508D01*
X11489158Y-11015508D02*
X11498682Y-11025031D01*
X11498682Y-11025031D02*
X11508205Y-11044079D01*
X11508205Y-11044079D02*
X11517729Y-11082174D01*
X11517729Y-11082174D02*
X11517729Y-11129793D01*
X11517729Y-11129793D02*
X11508205Y-11167889D01*
X11508205Y-11167889D02*
X11498682Y-11186936D01*
X11498682Y-11186936D02*
X11489158Y-11196460D01*
X11489158Y-11196460D02*
X11470110Y-11205984D01*
X11470110Y-11205984D02*
X11451062Y-11205984D01*
X11451062Y-11205984D02*
X11432015Y-11196460D01*
X11432015Y-11196460D02*
X11422491Y-11186936D01*
X11422491Y-11186936D02*
X11412967Y-11167889D01*
X11412967Y-11167889D02*
X11403443Y-11129793D01*
X11403443Y-11129793D02*
X11403443Y-11082174D01*
X11403443Y-11082174D02*
X11412967Y-11044079D01*
X11412967Y-11044079D02*
X11422491Y-11025031D01*
X11422491Y-11025031D02*
X11432015Y-11015508D01*
X11432015Y-11015508D02*
X11451062Y-11005984D01*
X11641539Y-11005984D02*
X11660586Y-11005984D01*
X11660586Y-11005984D02*
X11679634Y-11015508D01*
X11679634Y-11015508D02*
X11689158Y-11025031D01*
X11689158Y-11025031D02*
X11698682Y-11044079D01*
X11698682Y-11044079D02*
X11708205Y-11082174D01*
X11708205Y-11082174D02*
X11708205Y-11129793D01*
X11708205Y-11129793D02*
X11698682Y-11167889D01*
X11698682Y-11167889D02*
X11689158Y-11186936D01*
X11689158Y-11186936D02*
X11679634Y-11196460D01*
X11679634Y-11196460D02*
X11660586Y-11205984D01*
X11660586Y-11205984D02*
X11641539Y-11205984D01*
X11641539Y-11205984D02*
X11622491Y-11196460D01*
X11622491Y-11196460D02*
X11612967Y-11186936D01*
X11612967Y-11186936D02*
X11603443Y-11167889D01*
X11603443Y-11167889D02*
X11593920Y-11129793D01*
X11593920Y-11129793D02*
X11593920Y-11082174D01*
X11593920Y-11082174D02*
X11603443Y-11044079D01*
X11603443Y-11044079D02*
X11612967Y-11025031D01*
X11612967Y-11025031D02*
X11622491Y-11015508D01*
X11622491Y-11015508D02*
X11641539Y-11005984D01*
X11793920Y-11205984D02*
X11793920Y-11072650D01*
X11793920Y-11091698D02*
X11803443Y-11082174D01*
X11803443Y-11082174D02*
X11822491Y-11072650D01*
X11822491Y-11072650D02*
X11851063Y-11072650D01*
X11851063Y-11072650D02*
X11870110Y-11082174D01*
X11870110Y-11082174D02*
X11879634Y-11101222D01*
X11879634Y-11101222D02*
X11879634Y-11205984D01*
X11879634Y-11101222D02*
X11889158Y-11082174D01*
X11889158Y-11082174D02*
X11908205Y-11072650D01*
X11908205Y-11072650D02*
X11936777Y-11072650D01*
X11936777Y-11072650D02*
X11955824Y-11082174D01*
X11955824Y-11082174D02*
X11965348Y-11101222D01*
X11965348Y-11101222D02*
X11965348Y-11205984D01*
X12060586Y-11205984D02*
X12060586Y-11072650D01*
X12060586Y-11091698D02*
X12070110Y-11082174D01*
X12070110Y-11082174D02*
X12089158Y-11072650D01*
X12089158Y-11072650D02*
X12117729Y-11072650D01*
X12117729Y-11072650D02*
X12136777Y-11082174D01*
X12136777Y-11082174D02*
X12146301Y-11101222D01*
X12146301Y-11101222D02*
X12146301Y-11205984D01*
X12146301Y-11101222D02*
X12155824Y-11082174D01*
X12155824Y-11082174D02*
X12174872Y-11072650D01*
X12174872Y-11072650D02*
X12203443Y-11072650D01*
X12203443Y-11072650D02*
X12222491Y-11082174D01*
X12222491Y-11082174D02*
X12232015Y-11101222D01*
X12232015Y-11101222D02*
X12232015Y-11205984D01*
X12622491Y-10996460D02*
X12451063Y-11253603D01*
X12879634Y-11005984D02*
X12898682Y-11005984D01*
X12898682Y-11005984D02*
X12917729Y-11015508D01*
X12917729Y-11015508D02*
X12927253Y-11025031D01*
X12927253Y-11025031D02*
X12936777Y-11044079D01*
X12936777Y-11044079D02*
X12946301Y-11082174D01*
X12946301Y-11082174D02*
X12946301Y-11129793D01*
X12946301Y-11129793D02*
X12936777Y-11167889D01*
X12936777Y-11167889D02*
X12927253Y-11186936D01*
X12927253Y-11186936D02*
X12917729Y-11196460D01*
X12917729Y-11196460D02*
X12898682Y-11205984D01*
X12898682Y-11205984D02*
X12879634Y-11205984D01*
X12879634Y-11205984D02*
X12860586Y-11196460D01*
X12860586Y-11196460D02*
X12851063Y-11186936D01*
X12851063Y-11186936D02*
X12841539Y-11167889D01*
X12841539Y-11167889D02*
X12832015Y-11129793D01*
X12832015Y-11129793D02*
X12832015Y-11082174D01*
X12832015Y-11082174D02*
X12841539Y-11044079D01*
X12841539Y-11044079D02*
X12851063Y-11025031D01*
X12851063Y-11025031D02*
X12860586Y-11015508D01*
X12860586Y-11015508D02*
X12879634Y-11005984D01*
X13032015Y-11186936D02*
X13041539Y-11196460D01*
X13041539Y-11196460D02*
X13032015Y-11205984D01*
X13032015Y-11205984D02*
X13022491Y-11196460D01*
X13022491Y-11196460D02*
X13032015Y-11186936D01*
X13032015Y-11186936D02*
X13032015Y-11205984D01*
X13165348Y-11005984D02*
X13184396Y-11005984D01*
X13184396Y-11005984D02*
X13203444Y-11015508D01*
X13203444Y-11015508D02*
X13212967Y-11025031D01*
X13212967Y-11025031D02*
X13222491Y-11044079D01*
X13222491Y-11044079D02*
X13232015Y-11082174D01*
X13232015Y-11082174D02*
X13232015Y-11129793D01*
X13232015Y-11129793D02*
X13222491Y-11167889D01*
X13222491Y-11167889D02*
X13212967Y-11186936D01*
X13212967Y-11186936D02*
X13203444Y-11196460D01*
X13203444Y-11196460D02*
X13184396Y-11205984D01*
X13184396Y-11205984D02*
X13165348Y-11205984D01*
X13165348Y-11205984D02*
X13146301Y-11196460D01*
X13146301Y-11196460D02*
X13136777Y-11186936D01*
X13136777Y-11186936D02*
X13127253Y-11167889D01*
X13127253Y-11167889D02*
X13117729Y-11129793D01*
X13117729Y-11129793D02*
X13117729Y-11082174D01*
X13117729Y-11082174D02*
X13127253Y-11044079D01*
X13127253Y-11044079D02*
X13136777Y-11025031D01*
X13136777Y-11025031D02*
X13146301Y-11015508D01*
X13146301Y-11015508D02*
X13165348Y-11005984D01*
X13298682Y-11005984D02*
X13422491Y-11005984D01*
X13422491Y-11005984D02*
X13355825Y-11082174D01*
X13355825Y-11082174D02*
X13384396Y-11082174D01*
X13384396Y-11082174D02*
X13403444Y-11091698D01*
X13403444Y-11091698D02*
X13412967Y-11101222D01*
X13412967Y-11101222D02*
X13422491Y-11120270D01*
X13422491Y-11120270D02*
X13422491Y-11167889D01*
X13422491Y-11167889D02*
X13412967Y-11186936D01*
X13412967Y-11186936D02*
X13403444Y-11196460D01*
X13403444Y-11196460D02*
X13384396Y-11205984D01*
X13384396Y-11205984D02*
X13327253Y-11205984D01*
X13327253Y-11205984D02*
X13308206Y-11196460D01*
X13308206Y-11196460D02*
X13298682Y-11186936D01*
X13517729Y-11205984D02*
X13555825Y-11205984D01*
X13555825Y-11205984D02*
X13574872Y-11196460D01*
X13574872Y-11196460D02*
X13584396Y-11186936D01*
X13584396Y-11186936D02*
X13603444Y-11158365D01*
X13603444Y-11158365D02*
X13612967Y-11120270D01*
X13612967Y-11120270D02*
X13612967Y-11044079D01*
X13612967Y-11044079D02*
X13603444Y-11025031D01*
X13603444Y-11025031D02*
X13593920Y-11015508D01*
X13593920Y-11015508D02*
X13574872Y-11005984D01*
X13574872Y-11005984D02*
X13536777Y-11005984D01*
X13536777Y-11005984D02*
X13517729Y-11015508D01*
X13517729Y-11015508D02*
X13508206Y-11025031D01*
X13508206Y-11025031D02*
X13498682Y-11044079D01*
X13498682Y-11044079D02*
X13498682Y-11091698D01*
X13498682Y-11091698D02*
X13508206Y-11110746D01*
X13508206Y-11110746D02*
X13517729Y-11120270D01*
X13517729Y-11120270D02*
X13536777Y-11129793D01*
X13536777Y-11129793D02*
X13574872Y-11129793D01*
X13574872Y-11129793D02*
X13593920Y-11120270D01*
X13593920Y-11120270D02*
X13603444Y-11110746D01*
X13603444Y-11110746D02*
X13612967Y-11091698D01*
X13784396Y-11072650D02*
X13784396Y-11205984D01*
X13736777Y-10996460D02*
X13689158Y-11139317D01*
X13689158Y-11139317D02*
X13812967Y-11139317D01*
X13879634Y-11005984D02*
X13879634Y-11044079D01*
X13955825Y-11005984D02*
X13955825Y-11044079D01*
X14251063Y-11282174D02*
X14241539Y-11272650D01*
X14241539Y-11272650D02*
X14222491Y-11244079D01*
X14222491Y-11244079D02*
X14212968Y-11225031D01*
X14212968Y-11225031D02*
X14203444Y-11196460D01*
X14203444Y-11196460D02*
X14193920Y-11148841D01*
X14193920Y-11148841D02*
X14193920Y-11110746D01*
X14193920Y-11110746D02*
X14203444Y-11063127D01*
X14203444Y-11063127D02*
X14212968Y-11034555D01*
X14212968Y-11034555D02*
X14222491Y-11015508D01*
X14222491Y-11015508D02*
X14241539Y-10986936D01*
X14241539Y-10986936D02*
X14251063Y-10977412D01*
X14317729Y-11025031D02*
X14327253Y-11015508D01*
X14327253Y-11015508D02*
X14346301Y-11005984D01*
X14346301Y-11005984D02*
X14393920Y-11005984D01*
X14393920Y-11005984D02*
X14412968Y-11015508D01*
X14412968Y-11015508D02*
X14422491Y-11025031D01*
X14422491Y-11025031D02*
X14432015Y-11044079D01*
X14432015Y-11044079D02*
X14432015Y-11063127D01*
X14432015Y-11063127D02*
X14422491Y-11091698D01*
X14422491Y-11091698D02*
X14308206Y-11205984D01*
X14308206Y-11205984D02*
X14432015Y-11205984D01*
X14527253Y-11205984D02*
X14565348Y-11205984D01*
X14565348Y-11205984D02*
X14584396Y-11196460D01*
X14584396Y-11196460D02*
X14593920Y-11186936D01*
X14593920Y-11186936D02*
X14612968Y-11158365D01*
X14612968Y-11158365D02*
X14622491Y-11120270D01*
X14622491Y-11120270D02*
X14622491Y-11044079D01*
X14622491Y-11044079D02*
X14612968Y-11025031D01*
X14612968Y-11025031D02*
X14603444Y-11015508D01*
X14603444Y-11015508D02*
X14584396Y-11005984D01*
X14584396Y-11005984D02*
X14546301Y-11005984D01*
X14546301Y-11005984D02*
X14527253Y-11015508D01*
X14527253Y-11015508D02*
X14517729Y-11025031D01*
X14517729Y-11025031D02*
X14508206Y-11044079D01*
X14508206Y-11044079D02*
X14508206Y-11091698D01*
X14508206Y-11091698D02*
X14517729Y-11110746D01*
X14517729Y-11110746D02*
X14527253Y-11120270D01*
X14527253Y-11120270D02*
X14546301Y-11129793D01*
X14546301Y-11129793D02*
X14584396Y-11129793D01*
X14584396Y-11129793D02*
X14603444Y-11120270D01*
X14603444Y-11120270D02*
X14612968Y-11110746D01*
X14612968Y-11110746D02*
X14622491Y-11091698D01*
X14860587Y-11205984D02*
X14860587Y-11005984D01*
X14946301Y-11205984D02*
X14946301Y-11101222D01*
X14946301Y-11101222D02*
X14936777Y-11082174D01*
X14936777Y-11082174D02*
X14917730Y-11072650D01*
X14917730Y-11072650D02*
X14889158Y-11072650D01*
X14889158Y-11072650D02*
X14870110Y-11082174D01*
X14870110Y-11082174D02*
X14860587Y-11091698D01*
X15070110Y-11205984D02*
X15051063Y-11196460D01*
X15051063Y-11196460D02*
X15041539Y-11186936D01*
X15041539Y-11186936D02*
X15032015Y-11167889D01*
X15032015Y-11167889D02*
X15032015Y-11110746D01*
X15032015Y-11110746D02*
X15041539Y-11091698D01*
X15041539Y-11091698D02*
X15051063Y-11082174D01*
X15051063Y-11082174D02*
X15070110Y-11072650D01*
X15070110Y-11072650D02*
X15098682Y-11072650D01*
X15098682Y-11072650D02*
X15117730Y-11082174D01*
X15117730Y-11082174D02*
X15127253Y-11091698D01*
X15127253Y-11091698D02*
X15136777Y-11110746D01*
X15136777Y-11110746D02*
X15136777Y-11167889D01*
X15136777Y-11167889D02*
X15127253Y-11186936D01*
X15127253Y-11186936D02*
X15117730Y-11196460D01*
X15117730Y-11196460D02*
X15098682Y-11205984D01*
X15098682Y-11205984D02*
X15070110Y-11205984D01*
X15251063Y-11205984D02*
X15232015Y-11196460D01*
X15232015Y-11196460D02*
X15222491Y-11177412D01*
X15222491Y-11177412D02*
X15222491Y-11005984D01*
X15403444Y-11196460D02*
X15384396Y-11205984D01*
X15384396Y-11205984D02*
X15346301Y-11205984D01*
X15346301Y-11205984D02*
X15327253Y-11196460D01*
X15327253Y-11196460D02*
X15317730Y-11177412D01*
X15317730Y-11177412D02*
X15317730Y-11101222D01*
X15317730Y-11101222D02*
X15327253Y-11082174D01*
X15327253Y-11082174D02*
X15346301Y-11072650D01*
X15346301Y-11072650D02*
X15384396Y-11072650D01*
X15384396Y-11072650D02*
X15403444Y-11082174D01*
X15403444Y-11082174D02*
X15412968Y-11101222D01*
X15412968Y-11101222D02*
X15412968Y-11120270D01*
X15412968Y-11120270D02*
X15317730Y-11139317D01*
X15489158Y-11196460D02*
X15508206Y-11205984D01*
X15508206Y-11205984D02*
X15546301Y-11205984D01*
X15546301Y-11205984D02*
X15565349Y-11196460D01*
X15565349Y-11196460D02*
X15574872Y-11177412D01*
X15574872Y-11177412D02*
X15574872Y-11167889D01*
X15574872Y-11167889D02*
X15565349Y-11148841D01*
X15565349Y-11148841D02*
X15546301Y-11139317D01*
X15546301Y-11139317D02*
X15517730Y-11139317D01*
X15517730Y-11139317D02*
X15498682Y-11129793D01*
X15498682Y-11129793D02*
X15489158Y-11110746D01*
X15489158Y-11110746D02*
X15489158Y-11101222D01*
X15489158Y-11101222D02*
X15498682Y-11082174D01*
X15498682Y-11082174D02*
X15517730Y-11072650D01*
X15517730Y-11072650D02*
X15546301Y-11072650D01*
X15546301Y-11072650D02*
X15565349Y-11082174D01*
X15641539Y-11282174D02*
X15651063Y-11272650D01*
X15651063Y-11272650D02*
X15670111Y-11244079D01*
X15670111Y-11244079D02*
X15679634Y-11225031D01*
X15679634Y-11225031D02*
X15689158Y-11196460D01*
X15689158Y-11196460D02*
X15698682Y-11148841D01*
X15698682Y-11148841D02*
X15698682Y-11110746D01*
X15698682Y-11110746D02*
X15689158Y-11063127D01*
X15689158Y-11063127D02*
X15679634Y-11034555D01*
X15679634Y-11034555D02*
X15670111Y-11015508D01*
X15670111Y-11015508D02*
X15651063Y-10986936D01*
X15651063Y-10986936D02*
X15641539Y-10977412D01*
D13*
X10601000Y-11303500D02*
X10601000Y-11453500D01*
X10526000Y-11378500D02*
X10676000Y-11378500D01*
D11*
X11041539Y-11469984D02*
X10927253Y-11469984D01*
X10984396Y-11469984D02*
X10984396Y-11269984D01*
X10984396Y-11269984D02*
X10965348Y-11298555D01*
X10965348Y-11298555D02*
X10946301Y-11317603D01*
X10946301Y-11317603D02*
X10927253Y-11327127D01*
X11127253Y-11450936D02*
X11136777Y-11460460D01*
X11136777Y-11460460D02*
X11127253Y-11469984D01*
X11127253Y-11469984D02*
X11117729Y-11460460D01*
X11117729Y-11460460D02*
X11127253Y-11450936D01*
X11127253Y-11450936D02*
X11127253Y-11469984D01*
X11317729Y-11269984D02*
X11222491Y-11269984D01*
X11222491Y-11269984D02*
X11212967Y-11365222D01*
X11212967Y-11365222D02*
X11222491Y-11355698D01*
X11222491Y-11355698D02*
X11241539Y-11346174D01*
X11241539Y-11346174D02*
X11289158Y-11346174D01*
X11289158Y-11346174D02*
X11308205Y-11355698D01*
X11308205Y-11355698D02*
X11317729Y-11365222D01*
X11317729Y-11365222D02*
X11327253Y-11384269D01*
X11327253Y-11384269D02*
X11327253Y-11431888D01*
X11327253Y-11431888D02*
X11317729Y-11450936D01*
X11317729Y-11450936D02*
X11308205Y-11460460D01*
X11308205Y-11460460D02*
X11289158Y-11469984D01*
X11289158Y-11469984D02*
X11241539Y-11469984D01*
X11241539Y-11469984D02*
X11222491Y-11460460D01*
X11222491Y-11460460D02*
X11212967Y-11450936D01*
X11451062Y-11269984D02*
X11470110Y-11269984D01*
X11470110Y-11269984D02*
X11489158Y-11279508D01*
X11489158Y-11279508D02*
X11498682Y-11289031D01*
X11498682Y-11289031D02*
X11508205Y-11308079D01*
X11508205Y-11308079D02*
X11517729Y-11346174D01*
X11517729Y-11346174D02*
X11517729Y-11393793D01*
X11517729Y-11393793D02*
X11508205Y-11431888D01*
X11508205Y-11431888D02*
X11498682Y-11450936D01*
X11498682Y-11450936D02*
X11489158Y-11460460D01*
X11489158Y-11460460D02*
X11470110Y-11469984D01*
X11470110Y-11469984D02*
X11451062Y-11469984D01*
X11451062Y-11469984D02*
X11432015Y-11460460D01*
X11432015Y-11460460D02*
X11422491Y-11450936D01*
X11422491Y-11450936D02*
X11412967Y-11431888D01*
X11412967Y-11431888D02*
X11403443Y-11393793D01*
X11403443Y-11393793D02*
X11403443Y-11346174D01*
X11403443Y-11346174D02*
X11412967Y-11308079D01*
X11412967Y-11308079D02*
X11422491Y-11289031D01*
X11422491Y-11289031D02*
X11432015Y-11279508D01*
X11432015Y-11279508D02*
X11451062Y-11269984D01*
X11641539Y-11269984D02*
X11660586Y-11269984D01*
X11660586Y-11269984D02*
X11679634Y-11279508D01*
X11679634Y-11279508D02*
X11689158Y-11289031D01*
X11689158Y-11289031D02*
X11698682Y-11308079D01*
X11698682Y-11308079D02*
X11708205Y-11346174D01*
X11708205Y-11346174D02*
X11708205Y-11393793D01*
X11708205Y-11393793D02*
X11698682Y-11431888D01*
X11698682Y-11431888D02*
X11689158Y-11450936D01*
X11689158Y-11450936D02*
X11679634Y-11460460D01*
X11679634Y-11460460D02*
X11660586Y-11469984D01*
X11660586Y-11469984D02*
X11641539Y-11469984D01*
X11641539Y-11469984D02*
X11622491Y-11460460D01*
X11622491Y-11460460D02*
X11612967Y-11450936D01*
X11612967Y-11450936D02*
X11603443Y-11431888D01*
X11603443Y-11431888D02*
X11593920Y-11393793D01*
X11593920Y-11393793D02*
X11593920Y-11346174D01*
X11593920Y-11346174D02*
X11603443Y-11308079D01*
X11603443Y-11308079D02*
X11612967Y-11289031D01*
X11612967Y-11289031D02*
X11622491Y-11279508D01*
X11622491Y-11279508D02*
X11641539Y-11269984D01*
X11793920Y-11469984D02*
X11793920Y-11336650D01*
X11793920Y-11355698D02*
X11803443Y-11346174D01*
X11803443Y-11346174D02*
X11822491Y-11336650D01*
X11822491Y-11336650D02*
X11851063Y-11336650D01*
X11851063Y-11336650D02*
X11870110Y-11346174D01*
X11870110Y-11346174D02*
X11879634Y-11365222D01*
X11879634Y-11365222D02*
X11879634Y-11469984D01*
X11879634Y-11365222D02*
X11889158Y-11346174D01*
X11889158Y-11346174D02*
X11908205Y-11336650D01*
X11908205Y-11336650D02*
X11936777Y-11336650D01*
X11936777Y-11336650D02*
X11955824Y-11346174D01*
X11955824Y-11346174D02*
X11965348Y-11365222D01*
X11965348Y-11365222D02*
X11965348Y-11469984D01*
X12060586Y-11469984D02*
X12060586Y-11336650D01*
X12060586Y-11355698D02*
X12070110Y-11346174D01*
X12070110Y-11346174D02*
X12089158Y-11336650D01*
X12089158Y-11336650D02*
X12117729Y-11336650D01*
X12117729Y-11336650D02*
X12136777Y-11346174D01*
X12136777Y-11346174D02*
X12146301Y-11365222D01*
X12146301Y-11365222D02*
X12146301Y-11469984D01*
X12146301Y-11365222D02*
X12155824Y-11346174D01*
X12155824Y-11346174D02*
X12174872Y-11336650D01*
X12174872Y-11336650D02*
X12203443Y-11336650D01*
X12203443Y-11336650D02*
X12222491Y-11346174D01*
X12222491Y-11346174D02*
X12232015Y-11365222D01*
X12232015Y-11365222D02*
X12232015Y-11469984D01*
X12622491Y-11260460D02*
X12451063Y-11517603D01*
X12879634Y-11269984D02*
X12898682Y-11269984D01*
X12898682Y-11269984D02*
X12917729Y-11279508D01*
X12917729Y-11279508D02*
X12927253Y-11289031D01*
X12927253Y-11289031D02*
X12936777Y-11308079D01*
X12936777Y-11308079D02*
X12946301Y-11346174D01*
X12946301Y-11346174D02*
X12946301Y-11393793D01*
X12946301Y-11393793D02*
X12936777Y-11431888D01*
X12936777Y-11431888D02*
X12927253Y-11450936D01*
X12927253Y-11450936D02*
X12917729Y-11460460D01*
X12917729Y-11460460D02*
X12898682Y-11469984D01*
X12898682Y-11469984D02*
X12879634Y-11469984D01*
X12879634Y-11469984D02*
X12860586Y-11460460D01*
X12860586Y-11460460D02*
X12851063Y-11450936D01*
X12851063Y-11450936D02*
X12841539Y-11431888D01*
X12841539Y-11431888D02*
X12832015Y-11393793D01*
X12832015Y-11393793D02*
X12832015Y-11346174D01*
X12832015Y-11346174D02*
X12841539Y-11308079D01*
X12841539Y-11308079D02*
X12851063Y-11289031D01*
X12851063Y-11289031D02*
X12860586Y-11279508D01*
X12860586Y-11279508D02*
X12879634Y-11269984D01*
X13032015Y-11450936D02*
X13041539Y-11460460D01*
X13041539Y-11460460D02*
X13032015Y-11469984D01*
X13032015Y-11469984D02*
X13022491Y-11460460D01*
X13022491Y-11460460D02*
X13032015Y-11450936D01*
X13032015Y-11450936D02*
X13032015Y-11469984D01*
X13165348Y-11269984D02*
X13184396Y-11269984D01*
X13184396Y-11269984D02*
X13203444Y-11279508D01*
X13203444Y-11279508D02*
X13212967Y-11289031D01*
X13212967Y-11289031D02*
X13222491Y-11308079D01*
X13222491Y-11308079D02*
X13232015Y-11346174D01*
X13232015Y-11346174D02*
X13232015Y-11393793D01*
X13232015Y-11393793D02*
X13222491Y-11431888D01*
X13222491Y-11431888D02*
X13212967Y-11450936D01*
X13212967Y-11450936D02*
X13203444Y-11460460D01*
X13203444Y-11460460D02*
X13184396Y-11469984D01*
X13184396Y-11469984D02*
X13165348Y-11469984D01*
X13165348Y-11469984D02*
X13146301Y-11460460D01*
X13146301Y-11460460D02*
X13136777Y-11450936D01*
X13136777Y-11450936D02*
X13127253Y-11431888D01*
X13127253Y-11431888D02*
X13117729Y-11393793D01*
X13117729Y-11393793D02*
X13117729Y-11346174D01*
X13117729Y-11346174D02*
X13127253Y-11308079D01*
X13127253Y-11308079D02*
X13136777Y-11289031D01*
X13136777Y-11289031D02*
X13146301Y-11279508D01*
X13146301Y-11279508D02*
X13165348Y-11269984D01*
X13412967Y-11269984D02*
X13317729Y-11269984D01*
X13317729Y-11269984D02*
X13308206Y-11365222D01*
X13308206Y-11365222D02*
X13317729Y-11355698D01*
X13317729Y-11355698D02*
X13336777Y-11346174D01*
X13336777Y-11346174D02*
X13384396Y-11346174D01*
X13384396Y-11346174D02*
X13403444Y-11355698D01*
X13403444Y-11355698D02*
X13412967Y-11365222D01*
X13412967Y-11365222D02*
X13422491Y-11384269D01*
X13422491Y-11384269D02*
X13422491Y-11431888D01*
X13422491Y-11431888D02*
X13412967Y-11450936D01*
X13412967Y-11450936D02*
X13403444Y-11460460D01*
X13403444Y-11460460D02*
X13384396Y-11469984D01*
X13384396Y-11469984D02*
X13336777Y-11469984D01*
X13336777Y-11469984D02*
X13317729Y-11460460D01*
X13317729Y-11460460D02*
X13308206Y-11450936D01*
X13517729Y-11469984D02*
X13555825Y-11469984D01*
X13555825Y-11469984D02*
X13574872Y-11460460D01*
X13574872Y-11460460D02*
X13584396Y-11450936D01*
X13584396Y-11450936D02*
X13603444Y-11422365D01*
X13603444Y-11422365D02*
X13612967Y-11384269D01*
X13612967Y-11384269D02*
X13612967Y-11308079D01*
X13612967Y-11308079D02*
X13603444Y-11289031D01*
X13603444Y-11289031D02*
X13593920Y-11279508D01*
X13593920Y-11279508D02*
X13574872Y-11269984D01*
X13574872Y-11269984D02*
X13536777Y-11269984D01*
X13536777Y-11269984D02*
X13517729Y-11279508D01*
X13517729Y-11279508D02*
X13508206Y-11289031D01*
X13508206Y-11289031D02*
X13498682Y-11308079D01*
X13498682Y-11308079D02*
X13498682Y-11355698D01*
X13498682Y-11355698D02*
X13508206Y-11374746D01*
X13508206Y-11374746D02*
X13517729Y-11384269D01*
X13517729Y-11384269D02*
X13536777Y-11393793D01*
X13536777Y-11393793D02*
X13574872Y-11393793D01*
X13574872Y-11393793D02*
X13593920Y-11384269D01*
X13593920Y-11384269D02*
X13603444Y-11374746D01*
X13603444Y-11374746D02*
X13612967Y-11355698D01*
X13803444Y-11469984D02*
X13689158Y-11469984D01*
X13746301Y-11469984D02*
X13746301Y-11269984D01*
X13746301Y-11269984D02*
X13727253Y-11298555D01*
X13727253Y-11298555D02*
X13708206Y-11317603D01*
X13708206Y-11317603D02*
X13689158Y-11327127D01*
X13879634Y-11269984D02*
X13879634Y-11308079D01*
X13955825Y-11269984D02*
X13955825Y-11308079D01*
X14251063Y-11546174D02*
X14241539Y-11536650D01*
X14241539Y-11536650D02*
X14222491Y-11508079D01*
X14222491Y-11508079D02*
X14212968Y-11489031D01*
X14212968Y-11489031D02*
X14203444Y-11460460D01*
X14203444Y-11460460D02*
X14193920Y-11412841D01*
X14193920Y-11412841D02*
X14193920Y-11374746D01*
X14193920Y-11374746D02*
X14203444Y-11327127D01*
X14203444Y-11327127D02*
X14212968Y-11298555D01*
X14212968Y-11298555D02*
X14222491Y-11279508D01*
X14222491Y-11279508D02*
X14241539Y-11250936D01*
X14241539Y-11250936D02*
X14251063Y-11241412D01*
X14317729Y-11289031D02*
X14327253Y-11279508D01*
X14327253Y-11279508D02*
X14346301Y-11269984D01*
X14346301Y-11269984D02*
X14393920Y-11269984D01*
X14393920Y-11269984D02*
X14412968Y-11279508D01*
X14412968Y-11279508D02*
X14422491Y-11289031D01*
X14422491Y-11289031D02*
X14432015Y-11308079D01*
X14432015Y-11308079D02*
X14432015Y-11327127D01*
X14432015Y-11327127D02*
X14422491Y-11355698D01*
X14422491Y-11355698D02*
X14308206Y-11469984D01*
X14308206Y-11469984D02*
X14432015Y-11469984D01*
X14603444Y-11336650D02*
X14603444Y-11469984D01*
X14555825Y-11260460D02*
X14508206Y-11403317D01*
X14508206Y-11403317D02*
X14632015Y-11403317D01*
X14860587Y-11469984D02*
X14860587Y-11269984D01*
X14946301Y-11469984D02*
X14946301Y-11365222D01*
X14946301Y-11365222D02*
X14936777Y-11346174D01*
X14936777Y-11346174D02*
X14917730Y-11336650D01*
X14917730Y-11336650D02*
X14889158Y-11336650D01*
X14889158Y-11336650D02*
X14870110Y-11346174D01*
X14870110Y-11346174D02*
X14860587Y-11355698D01*
X15070110Y-11469984D02*
X15051063Y-11460460D01*
X15051063Y-11460460D02*
X15041539Y-11450936D01*
X15041539Y-11450936D02*
X15032015Y-11431888D01*
X15032015Y-11431888D02*
X15032015Y-11374746D01*
X15032015Y-11374746D02*
X15041539Y-11355698D01*
X15041539Y-11355698D02*
X15051063Y-11346174D01*
X15051063Y-11346174D02*
X15070110Y-11336650D01*
X15070110Y-11336650D02*
X15098682Y-11336650D01*
X15098682Y-11336650D02*
X15117730Y-11346174D01*
X15117730Y-11346174D02*
X15127253Y-11355698D01*
X15127253Y-11355698D02*
X15136777Y-11374746D01*
X15136777Y-11374746D02*
X15136777Y-11431888D01*
X15136777Y-11431888D02*
X15127253Y-11450936D01*
X15127253Y-11450936D02*
X15117730Y-11460460D01*
X15117730Y-11460460D02*
X15098682Y-11469984D01*
X15098682Y-11469984D02*
X15070110Y-11469984D01*
X15251063Y-11469984D02*
X15232015Y-11460460D01*
X15232015Y-11460460D02*
X15222491Y-11441412D01*
X15222491Y-11441412D02*
X15222491Y-11269984D01*
X15403444Y-11460460D02*
X15384396Y-11469984D01*
X15384396Y-11469984D02*
X15346301Y-11469984D01*
X15346301Y-11469984D02*
X15327253Y-11460460D01*
X15327253Y-11460460D02*
X15317730Y-11441412D01*
X15317730Y-11441412D02*
X15317730Y-11365222D01*
X15317730Y-11365222D02*
X15327253Y-11346174D01*
X15327253Y-11346174D02*
X15346301Y-11336650D01*
X15346301Y-11336650D02*
X15384396Y-11336650D01*
X15384396Y-11336650D02*
X15403444Y-11346174D01*
X15403444Y-11346174D02*
X15412968Y-11365222D01*
X15412968Y-11365222D02*
X15412968Y-11384269D01*
X15412968Y-11384269D02*
X15317730Y-11403317D01*
X15489158Y-11460460D02*
X15508206Y-11469984D01*
X15508206Y-11469984D02*
X15546301Y-11469984D01*
X15546301Y-11469984D02*
X15565349Y-11460460D01*
X15565349Y-11460460D02*
X15574872Y-11441412D01*
X15574872Y-11441412D02*
X15574872Y-11431888D01*
X15574872Y-11431888D02*
X15565349Y-11412841D01*
X15565349Y-11412841D02*
X15546301Y-11403317D01*
X15546301Y-11403317D02*
X15517730Y-11403317D01*
X15517730Y-11403317D02*
X15498682Y-11393793D01*
X15498682Y-11393793D02*
X15489158Y-11374746D01*
X15489158Y-11374746D02*
X15489158Y-11365222D01*
X15489158Y-11365222D02*
X15498682Y-11346174D01*
X15498682Y-11346174D02*
X15517730Y-11336650D01*
X15517730Y-11336650D02*
X15546301Y-11336650D01*
X15546301Y-11336650D02*
X15565349Y-11346174D01*
X15812968Y-11393793D02*
X15965349Y-11393793D01*
X15889158Y-11469984D02*
X15889158Y-11317603D01*
X16317730Y-11469984D02*
X16203444Y-11469984D01*
X16260587Y-11469984D02*
X16260587Y-11269984D01*
X16260587Y-11269984D02*
X16241539Y-11298555D01*
X16241539Y-11298555D02*
X16222492Y-11317603D01*
X16222492Y-11317603D02*
X16203444Y-11327127D01*
X16393920Y-11289031D02*
X16403444Y-11279508D01*
X16403444Y-11279508D02*
X16422492Y-11269984D01*
X16422492Y-11269984D02*
X16470111Y-11269984D01*
X16470111Y-11269984D02*
X16489158Y-11279508D01*
X16489158Y-11279508D02*
X16498682Y-11289031D01*
X16498682Y-11289031D02*
X16508206Y-11308079D01*
X16508206Y-11308079D02*
X16508206Y-11327127D01*
X16508206Y-11327127D02*
X16498682Y-11355698D01*
X16498682Y-11355698D02*
X16384396Y-11469984D01*
X16384396Y-11469984D02*
X16508206Y-11469984D01*
X16736777Y-11460460D02*
X16755825Y-11469984D01*
X16755825Y-11469984D02*
X16793920Y-11469984D01*
X16793920Y-11469984D02*
X16812968Y-11460460D01*
X16812968Y-11460460D02*
X16822492Y-11441412D01*
X16822492Y-11441412D02*
X16822492Y-11431888D01*
X16822492Y-11431888D02*
X16812968Y-11412841D01*
X16812968Y-11412841D02*
X16793920Y-11403317D01*
X16793920Y-11403317D02*
X16765349Y-11403317D01*
X16765349Y-11403317D02*
X16746301Y-11393793D01*
X16746301Y-11393793D02*
X16736777Y-11374746D01*
X16736777Y-11374746D02*
X16736777Y-11365222D01*
X16736777Y-11365222D02*
X16746301Y-11346174D01*
X16746301Y-11346174D02*
X16765349Y-11336650D01*
X16765349Y-11336650D02*
X16793920Y-11336650D01*
X16793920Y-11336650D02*
X16812968Y-11346174D01*
X16936777Y-11469984D02*
X16917730Y-11460460D01*
X16917730Y-11460460D02*
X16908206Y-11441412D01*
X16908206Y-11441412D02*
X16908206Y-11269984D01*
X17041539Y-11469984D02*
X17022492Y-11460460D01*
X17022492Y-11460460D02*
X17012968Y-11450936D01*
X17012968Y-11450936D02*
X17003444Y-11431888D01*
X17003444Y-11431888D02*
X17003444Y-11374746D01*
X17003444Y-11374746D02*
X17012968Y-11355698D01*
X17012968Y-11355698D02*
X17022492Y-11346174D01*
X17022492Y-11346174D02*
X17041539Y-11336650D01*
X17041539Y-11336650D02*
X17070111Y-11336650D01*
X17070111Y-11336650D02*
X17089158Y-11346174D01*
X17089158Y-11346174D02*
X17098682Y-11355698D01*
X17098682Y-11355698D02*
X17108206Y-11374746D01*
X17108206Y-11374746D02*
X17108206Y-11431888D01*
X17108206Y-11431888D02*
X17098682Y-11450936D01*
X17098682Y-11450936D02*
X17089158Y-11460460D01*
X17089158Y-11460460D02*
X17070111Y-11469984D01*
X17070111Y-11469984D02*
X17041539Y-11469984D01*
X17165349Y-11336650D02*
X17241539Y-11336650D01*
X17193920Y-11269984D02*
X17193920Y-11441412D01*
X17193920Y-11441412D02*
X17203444Y-11460460D01*
X17203444Y-11460460D02*
X17222492Y-11469984D01*
X17222492Y-11469984D02*
X17241539Y-11469984D01*
X17298682Y-11460460D02*
X17317730Y-11469984D01*
X17317730Y-11469984D02*
X17355825Y-11469984D01*
X17355825Y-11469984D02*
X17374873Y-11460460D01*
X17374873Y-11460460D02*
X17384397Y-11441412D01*
X17384397Y-11441412D02*
X17384397Y-11431888D01*
X17384397Y-11431888D02*
X17374873Y-11412841D01*
X17374873Y-11412841D02*
X17355825Y-11403317D01*
X17355825Y-11403317D02*
X17327254Y-11403317D01*
X17327254Y-11403317D02*
X17308206Y-11393793D01*
X17308206Y-11393793D02*
X17298682Y-11374746D01*
X17298682Y-11374746D02*
X17298682Y-11365222D01*
X17298682Y-11365222D02*
X17308206Y-11346174D01*
X17308206Y-11346174D02*
X17327254Y-11336650D01*
X17327254Y-11336650D02*
X17355825Y-11336650D01*
X17355825Y-11336650D02*
X17374873Y-11346174D01*
X17451063Y-11546174D02*
X17460587Y-11536650D01*
X17460587Y-11536650D02*
X17479635Y-11508079D01*
X17479635Y-11508079D02*
X17489158Y-11489031D01*
X17489158Y-11489031D02*
X17498682Y-11460460D01*
X17498682Y-11460460D02*
X17508206Y-11412841D01*
X17508206Y-11412841D02*
X17508206Y-11374746D01*
X17508206Y-11374746D02*
X17498682Y-11327127D01*
X17498682Y-11327127D02*
X17489158Y-11298555D01*
X17489158Y-11298555D02*
X17479635Y-11279508D01*
X17479635Y-11279508D02*
X17460587Y-11250936D01*
X17460587Y-11250936D02*
X17451063Y-11241412D01*
M02*
