M48
; DRILL file {KiCad 7.0.5} date Tue Aug  1 07:37:41 2023
; FORMAT={-:-/ absolute / metric / decimal}
; #@! TF.CreationDate,2023-08-01T07:37:41+08:00
; #@! TF.GenerationSoftware,Kicad,Pcbnew,7.0.5
; #@! TF.FileFunction,Plated,1,2,PTH
FMAT,2
METRIC
; #@! TA.AperFunction,Plated,PTH,ViaDrill
T1C0.400
; #@! TA.AperFunction,Plated,PTH,ComponentDrill
T2C1.000
; #@! TA.AperFunction,Plated,PTH,ComponentDrill
T3C1.500
%
G90
G05
T1
X114.862Y-80.598
X115.19Y-63.36
X134.76Y-89.15
X145.02Y-72.05
T2
X108.08Y-61.62
X108.08Y-64.16
X108.08Y-66.7
X108.08Y-69.24
X108.08Y-71.78
X108.08Y-74.32
X108.08Y-76.86
X108.08Y-79.4
X108.08Y-81.94
X110.62Y-61.62
X110.62Y-64.16
X110.62Y-66.7
X110.62Y-69.24
X110.62Y-71.78
X110.62Y-74.32
X110.62Y-76.86
X110.62Y-79.4
X110.62Y-81.94
X128.78Y-100.71
X131.32Y-100.71
X133.86Y-100.71
X136.4Y-100.71
X150.23Y-65.86
X150.23Y-68.4
X150.23Y-70.94
X150.23Y-73.48
X150.23Y-76.02
X150.23Y-78.56
X150.23Y-81.1
T3
X119.25Y-51.89
X119.25Y-70.94
X119.25Y-89.99
X123.06Y-60.33
X123.06Y-79.38
X123.06Y-98.43
X125.6Y-49.33
X125.6Y-68.38
X125.6Y-87.43
X125.66Y-60.33
X125.66Y-79.38
X125.66Y-98.43
X138.3Y-51.89
X138.3Y-70.94
X138.3Y-89.99
X142.11Y-60.33
X142.11Y-79.38
X142.11Y-98.43
X144.65Y-49.33
X144.65Y-68.38
X144.65Y-87.43
X144.71Y-60.33
X144.71Y-79.38
X144.71Y-98.43
T3
X118.637Y-59.096G85X118.083Y-58.264
G05
X118.637Y-78.146G85X118.083Y-77.314
G05
X118.637Y-97.196G85X118.083Y-96.364
G05
X128.06Y-49.33G85X128.06Y-49.33
G05
X128.06Y-68.38G85X128.06Y-68.38
G05
X128.06Y-87.43G85X128.06Y-87.43
G05
X137.687Y-59.096G85X137.133Y-58.264
G05
X137.687Y-78.146G85X137.133Y-77.314
G05
X137.687Y-97.196G85X137.133Y-96.364
G05
X147.11Y-49.33G85X147.11Y-49.33
G05
X147.11Y-68.38G85X147.11Y-68.38
G05
X147.11Y-87.43G85X147.11Y-87.43
G05
T0
M30
