G04 #@! TF.GenerationSoftware,KiCad,Pcbnew,7.0.5*
G04 #@! TF.CreationDate,2023-08-20T01:57:39+08:00*
G04 #@! TF.ProjectId,LA,4c412e6b-6963-4616-945f-706362585858,rev?*
G04 #@! TF.SameCoordinates,Original*
G04 #@! TF.FileFunction,Copper,L1,Top*
G04 #@! TF.FilePolarity,Positive*
%FSLAX46Y46*%
G04 Gerber Fmt 4.6, Leading zero omitted, Abs format (unit mm)*
G04 Created by KiCad (PCBNEW 7.0.5) date 2023-08-20 01:57:39*
%MOMM*%
%LPD*%
G01*
G04 APERTURE LIST*
G04 Aperture macros list*
%AMRoundRect*
0 Rectangle with rounded corners*
0 $1 Rounding radius*
0 $2 $3 $4 $5 $6 $7 $8 $9 X,Y pos of 4 corners*
0 Add a 4 corners polygon primitive as box body*
4,1,4,$2,$3,$4,$5,$6,$7,$8,$9,$2,$3,0*
0 Add four circle primitives for the rounded corners*
1,1,$1+$1,$2,$3*
1,1,$1+$1,$4,$5*
1,1,$1+$1,$6,$7*
1,1,$1+$1,$8,$9*
0 Add four rect primitives between the rounded corners*
20,1,$1+$1,$2,$3,$4,$5,0*
20,1,$1+$1,$4,$5,$6,$7,0*
20,1,$1+$1,$6,$7,$8,$9,0*
20,1,$1+$1,$8,$9,$2,$3,0*%
%AMHorizOval*
0 Thick line with rounded ends*
0 $1 width*
0 $2 $3 position (X,Y) of the first rounded end (center of the circle)*
0 $4 $5 position (X,Y) of the second rounded end (center of the circle)*
0 Add line between two ends*
20,1,$1,$2,$3,$4,$5,0*
0 Add two circle primitives to create the rounded ends*
1,1,$1,$2,$3*
1,1,$1,$4,$5*%
%AMOutline4P*
0 Free polygon, 4 corners , with rotation*
0 The origin of the aperture is its center*
0 number of corners: always 4*
0 $1 to $8 corner X, Y*
0 $9 Rotation angle, in degrees counterclockwise*
0 create outline with 4 corners*
4,1,4,$1,$2,$3,$4,$5,$6,$7,$8,$1,$2,$9*%
G04 Aperture macros list end*
G04 #@! TA.AperFunction,ComponentPad*
%ADD10HorizOval,2.400000X-0.305164X0.457575X0.305164X-0.457575X0*%
G04 #@! TD*
G04 #@! TA.AperFunction,ComponentPad*
%ADD11C,2.400000*%
G04 #@! TD*
G04 #@! TA.AperFunction,SMDPad,CuDef*
%ADD12Outline4P,-1.300000X-1.200000X1.300000X-1.200000X1.300000X1.200000X-1.300000X1.200000X0.000000*%
G04 #@! TD*
G04 #@! TA.AperFunction,SMDPad,CuDef*
%ADD13Outline4P,-1.200000X-1.200000X1.200000X-1.200000X1.200000X1.200000X-1.200000X1.200000X0.000000*%
G04 #@! TD*
G04 #@! TA.AperFunction,ComponentPad*
%ADD14C,1.700000*%
G04 #@! TD*
G04 #@! TA.AperFunction,ComponentPad*
%ADD15O,1.700000X1.700000*%
G04 #@! TD*
G04 #@! TA.AperFunction,ComponentPad*
%ADD16RoundRect,0.425000X-0.425000X-0.425000X0.425000X-0.425000X0.425000X0.425000X-0.425000X0.425000X0*%
G04 #@! TD*
G04 #@! TA.AperFunction,ComponentPad*
%ADD17R,1.600000X1.600000*%
G04 #@! TD*
G04 #@! TA.AperFunction,ComponentPad*
%ADD18O,1.600000X1.600000*%
G04 #@! TD*
G04 #@! TA.AperFunction,ViaPad*
%ADD19C,0.800000*%
G04 #@! TD*
G04 #@! TA.AperFunction,Conductor*
%ADD20C,0.250000*%
G04 #@! TD*
G04 APERTURE END LIST*
D10*
X137410000Y-58680000D03*
D11*
X138300000Y-51890000D03*
X142110000Y-60330000D03*
D12*
X143410000Y-60330000D03*
D11*
X144650000Y-49330000D03*
X144710000Y-60330000D03*
D13*
X145880000Y-49330000D03*
D11*
X147110000Y-49330000D03*
D10*
X118360000Y-58680000D03*
D11*
X119250000Y-51890000D03*
X123060000Y-60330000D03*
D12*
X124360000Y-60330000D03*
D11*
X125600000Y-49330000D03*
X125660000Y-60330000D03*
D13*
X126830000Y-49330000D03*
D11*
X128060000Y-49330000D03*
D14*
X150230000Y-65860000D03*
D15*
X150230000Y-68400000D03*
X150230000Y-70940000D03*
X150230000Y-73480000D03*
D16*
X150230000Y-76020000D03*
X150230000Y-78560000D03*
X150230000Y-81100000D03*
D10*
X118360000Y-96780000D03*
D11*
X119250000Y-89990000D03*
X123060000Y-98430000D03*
D12*
X124360000Y-98430000D03*
D11*
X125600000Y-87430000D03*
X125660000Y-98430000D03*
D13*
X126830000Y-87430000D03*
D11*
X128060000Y-87430000D03*
D10*
X137410000Y-77730000D03*
D11*
X138300000Y-70940000D03*
X142110000Y-79380000D03*
D12*
X143410000Y-79380000D03*
D11*
X144650000Y-68380000D03*
X144710000Y-79380000D03*
D13*
X145880000Y-68380000D03*
D11*
X147110000Y-68380000D03*
D10*
X137410000Y-96780000D03*
D11*
X138300000Y-89990000D03*
X142110000Y-98430000D03*
D12*
X143410000Y-98430000D03*
D11*
X144650000Y-87430000D03*
X144710000Y-98430000D03*
D13*
X145880000Y-87430000D03*
D11*
X147110000Y-87430000D03*
D10*
X118360000Y-77730000D03*
D11*
X119250000Y-70940000D03*
X123060000Y-79380000D03*
D12*
X124360000Y-79380000D03*
D11*
X125600000Y-68380000D03*
X125660000Y-79380000D03*
D13*
X126830000Y-68380000D03*
D11*
X128060000Y-68380000D03*
D14*
X114900000Y-68400000D03*
D15*
X114900000Y-70940000D03*
D16*
X114900000Y-73480000D03*
X114900000Y-76020000D03*
X114900000Y-78560000D03*
D17*
X131315000Y-77280000D03*
D18*
X131315000Y-69680000D03*
D17*
X133855000Y-96330000D03*
D18*
X133855000Y-88730000D03*
D17*
X131315000Y-96330000D03*
D18*
X131315000Y-88730000D03*
D17*
X131315000Y-58230000D03*
D18*
X131315000Y-50630000D03*
D17*
X133855000Y-77280000D03*
D18*
X133855000Y-69680000D03*
D17*
X133855000Y-58230000D03*
D18*
X133855000Y-50630000D03*
D19*
X134980000Y-65860000D03*
X130190000Y-66850000D03*
D20*
X130015000Y-49330000D02*
X131315000Y-50630000D01*
X128060000Y-49330000D02*
X130015000Y-49330000D01*
X135155000Y-49330000D02*
X144650000Y-49330000D01*
X133855000Y-50630000D02*
X135155000Y-49330000D01*
X130015000Y-68380000D02*
X131315000Y-69680000D01*
X128060000Y-68380000D02*
X130015000Y-68380000D01*
X135155000Y-68380000D02*
X144650000Y-68380000D01*
X133855000Y-69680000D02*
X135155000Y-68380000D01*
X128060000Y-87430000D02*
X130015000Y-87430000D01*
X130015000Y-87430000D02*
X131315000Y-88730000D01*
X133855000Y-88730000D02*
X135155000Y-87430000D01*
X135155000Y-87430000D02*
X144650000Y-87430000D01*
X122970000Y-68400000D02*
X126050000Y-71480000D01*
X136973604Y-68830000D02*
X142232971Y-68830000D01*
X144342971Y-70940000D02*
X150230000Y-70940000D01*
X142232971Y-68830000D02*
X144342971Y-70940000D01*
X134323604Y-71480000D02*
X136973604Y-68830000D01*
X114900000Y-68400000D02*
X122970000Y-68400000D01*
X126050000Y-71480000D02*
X134323604Y-71480000D01*
X134510000Y-71930000D02*
X137160000Y-69280000D01*
X116425000Y-69415000D02*
X123348604Y-69415000D01*
X123348604Y-69415000D02*
X125863604Y-71930000D01*
X137160000Y-69280000D02*
X142046575Y-69280000D01*
X148526713Y-71776713D02*
X150230000Y-73480000D01*
X114900000Y-70940000D02*
X116425000Y-69415000D01*
X142046575Y-69280000D02*
X144543288Y-71776713D01*
X125863604Y-71930000D02*
X134510000Y-71930000D01*
X144543288Y-71776713D02*
X148526713Y-71776713D01*
X150230000Y-65860000D02*
X134980000Y-65860000D01*
X148685000Y-66855000D02*
X130195000Y-66855000D01*
X130195000Y-66855000D02*
X130190000Y-66850000D01*
X150230000Y-68400000D02*
X148685000Y-66855000D01*
X130190000Y-57105000D02*
X135835000Y-57105000D01*
X121570000Y-77280000D02*
X128370000Y-77280000D01*
X119610000Y-75320000D02*
X121570000Y-77280000D01*
X116740000Y-75320000D02*
X119610000Y-75320000D01*
X118360000Y-58680000D02*
X128615000Y-58680000D01*
X135835000Y-57105000D02*
X137410000Y-58680000D01*
X140540000Y-77280000D02*
X148970000Y-77280000D01*
X129945000Y-75705000D02*
X138965000Y-75705000D01*
X128615000Y-58680000D02*
X130190000Y-57105000D01*
X148970000Y-77280000D02*
X150230000Y-76020000D01*
X138965000Y-75705000D02*
X140540000Y-77280000D01*
X128370000Y-77280000D02*
X129945000Y-75705000D01*
X114900000Y-73480000D02*
X116740000Y-75320000D01*
X135835000Y-76155000D02*
X137410000Y-77730000D01*
X128615000Y-77730000D02*
X130190000Y-76155000D01*
X137410000Y-77730000D02*
X149400000Y-77730000D01*
X130190000Y-76155000D02*
X135835000Y-76155000D01*
X118360000Y-77730000D02*
X128615000Y-77730000D01*
X149400000Y-77730000D02*
X150230000Y-78560000D01*
X114900000Y-76020000D02*
X116610000Y-77730000D01*
X116610000Y-77730000D02*
X118360000Y-77730000D01*
X137410000Y-96780000D02*
X148100000Y-96780000D01*
X150230000Y-94650000D02*
X150230000Y-81100000D01*
X118360000Y-96780000D02*
X128615000Y-96780000D01*
X135835000Y-95205000D02*
X137410000Y-96780000D01*
X118360000Y-96780000D02*
X114900000Y-93320000D01*
X128615000Y-96780000D02*
X130190000Y-95205000D01*
X114900000Y-93320000D02*
X114900000Y-78560000D01*
X148100000Y-96780000D02*
X150230000Y-94650000D01*
X130190000Y-95205000D02*
X135835000Y-95205000D01*
G04 #@! TA.AperFunction,NonConductor*
G36*
X114122748Y-44905923D02*
G01*
X114122748Y-44905500D01*
X114134901Y-44905500D01*
X150978113Y-44905500D01*
X150978283Y-44905550D01*
X151026559Y-44905550D01*
X151033462Y-44905934D01*
X151079574Y-44911098D01*
X151080911Y-44911264D01*
X151136452Y-44918843D01*
X151160369Y-44924571D01*
X151195450Y-44936763D01*
X151198617Y-44937963D01*
X151253226Y-44960424D01*
X151271632Y-44969862D01*
X151306787Y-44991777D01*
X151311521Y-44995043D01*
X151341091Y-45017537D01*
X151357531Y-45030043D01*
X151359823Y-45031786D01*
X151365912Y-45037077D01*
X151399628Y-45070455D01*
X151404980Y-45076492D01*
X151442202Y-45124416D01*
X151445519Y-45129123D01*
X151467779Y-45164044D01*
X151477413Y-45182377D01*
X151500395Y-45236692D01*
X151501653Y-45239913D01*
X151513964Y-45274224D01*
X151520037Y-45298802D01*
X151531400Y-45379451D01*
X151534042Y-45401066D01*
X151534500Y-45408594D01*
X151534500Y-64975215D01*
X151514815Y-65042254D01*
X151462011Y-65088009D01*
X151392853Y-65097953D01*
X151329297Y-65068928D01*
X151308925Y-65046339D01*
X151297866Y-65030546D01*
X151268495Y-64988599D01*
X151268493Y-64988597D01*
X151268491Y-64988594D01*
X151101402Y-64821506D01*
X151101395Y-64821501D01*
X150907834Y-64685967D01*
X150907830Y-64685965D01*
X150907828Y-64685964D01*
X150693663Y-64586097D01*
X150693659Y-64586096D01*
X150693655Y-64586094D01*
X150465413Y-64524938D01*
X150465403Y-64524936D01*
X150230001Y-64504341D01*
X150229999Y-64504341D01*
X149994596Y-64524936D01*
X149994586Y-64524938D01*
X149766344Y-64586094D01*
X149766335Y-64586098D01*
X149552171Y-64685964D01*
X149552169Y-64685965D01*
X149358597Y-64821505D01*
X149191505Y-64988597D01*
X149056348Y-65181623D01*
X149001771Y-65225248D01*
X148954773Y-65234500D01*
X135683748Y-65234500D01*
X135616709Y-65214815D01*
X135591600Y-65193474D01*
X135585873Y-65187114D01*
X135585869Y-65187110D01*
X135432734Y-65075851D01*
X135432729Y-65075848D01*
X135259807Y-64998857D01*
X135259802Y-64998855D01*
X135114001Y-64967865D01*
X135074646Y-64959500D01*
X134885354Y-64959500D01*
X134852897Y-64966398D01*
X134700197Y-64998855D01*
X134700192Y-64998857D01*
X134527270Y-65075848D01*
X134527263Y-65075852D01*
X134517241Y-65083134D01*
X134451434Y-65106611D01*
X134383380Y-65090783D01*
X134334688Y-65040675D01*
X134320815Y-64972196D01*
X134335526Y-64923388D01*
X134409367Y-64788161D01*
X134509369Y-64520046D01*
X134570196Y-64240428D01*
X134590610Y-63955000D01*
X134570196Y-63669572D01*
X134509369Y-63389954D01*
X134409367Y-63121839D01*
X134272226Y-62870685D01*
X134272224Y-62870682D01*
X134100745Y-62641612D01*
X134100729Y-62641594D01*
X133898405Y-62439270D01*
X133898387Y-62439254D01*
X133669317Y-62267775D01*
X133669309Y-62267770D01*
X133418166Y-62130635D01*
X133418167Y-62130635D01*
X133310915Y-62090632D01*
X133150046Y-62030631D01*
X133150043Y-62030630D01*
X133150037Y-62030628D01*
X132870433Y-61969804D01*
X132656450Y-61954500D01*
X132656448Y-61954500D01*
X132513552Y-61954500D01*
X132513549Y-61954500D01*
X132299566Y-61969804D01*
X132019962Y-62030628D01*
X131751833Y-62130635D01*
X131500690Y-62267770D01*
X131500682Y-62267775D01*
X131271612Y-62439254D01*
X131271594Y-62439270D01*
X131069270Y-62641594D01*
X131069254Y-62641612D01*
X130897775Y-62870682D01*
X130897770Y-62870690D01*
X130760635Y-63121833D01*
X130660628Y-63389962D01*
X130599804Y-63669566D01*
X130579390Y-63954998D01*
X130579390Y-63955001D01*
X130599804Y-64240433D01*
X130660628Y-64520037D01*
X130660630Y-64520043D01*
X130660631Y-64520046D01*
X130722516Y-64685965D01*
X130760635Y-64788166D01*
X130897770Y-65039309D01*
X130897775Y-65039317D01*
X131069254Y-65268387D01*
X131069270Y-65268405D01*
X131271594Y-65470729D01*
X131271612Y-65470745D01*
X131500682Y-65642224D01*
X131500690Y-65642229D01*
X131751833Y-65779364D01*
X131751832Y-65779364D01*
X131751836Y-65779365D01*
X131751839Y-65779367D01*
X132019954Y-65879369D01*
X132019960Y-65879370D01*
X132019962Y-65879371D01*
X132299566Y-65940195D01*
X132299568Y-65940195D01*
X132299572Y-65940196D01*
X132513552Y-65955500D01*
X132656448Y-65955500D01*
X132870428Y-65940196D01*
X133150046Y-65879369D01*
X133418161Y-65779367D01*
X133669315Y-65642226D01*
X133898395Y-65470739D01*
X133920151Y-65448982D01*
X133981474Y-65415495D01*
X134051166Y-65420478D01*
X134107101Y-65462349D01*
X134131519Y-65527812D01*
X134125766Y-65574978D01*
X134094327Y-65671739D01*
X134074540Y-65859999D01*
X134094326Y-66048258D01*
X134100476Y-66067184D01*
X134102470Y-66137025D01*
X134066388Y-66196857D01*
X134003687Y-66227684D01*
X133982544Y-66229500D01*
X130898250Y-66229500D01*
X130831211Y-66209815D01*
X130806103Y-66188475D01*
X130795871Y-66177112D01*
X130795869Y-66177111D01*
X130795867Y-66177108D01*
X130795864Y-66177106D01*
X130642734Y-66065851D01*
X130642729Y-66065848D01*
X130469807Y-65988857D01*
X130469802Y-65988855D01*
X130312869Y-65955499D01*
X130284646Y-65949500D01*
X130095354Y-65949500D01*
X130067131Y-65955499D01*
X129910197Y-65988855D01*
X129910192Y-65988857D01*
X129737270Y-66065848D01*
X129737265Y-66065851D01*
X129584129Y-66177111D01*
X129457466Y-66317785D01*
X129362821Y-66481715D01*
X129362818Y-66481722D01*
X129304327Y-66661740D01*
X129304326Y-66661744D01*
X129284540Y-66850000D01*
X129290130Y-66903191D01*
X129291292Y-66914242D01*
X129278722Y-66982972D01*
X129230990Y-67033995D01*
X129163250Y-67051113D01*
X129098120Y-67029657D01*
X128912634Y-66903195D01*
X128912626Y-66903190D01*
X128683006Y-66792612D01*
X128683008Y-66792612D01*
X128439466Y-66717489D01*
X128439462Y-66717488D01*
X128439458Y-66717487D01*
X128318231Y-66699214D01*
X128187440Y-66679500D01*
X128187435Y-66679500D01*
X127932565Y-66679500D01*
X127932564Y-66679500D01*
X125727441Y-66679500D01*
X125727435Y-66679500D01*
X125472565Y-66679500D01*
X125472559Y-66679500D01*
X125315609Y-66703157D01*
X125220542Y-66717487D01*
X125220538Y-66717488D01*
X125220539Y-66717488D01*
X125220533Y-66717489D01*
X124976992Y-66792612D01*
X124747373Y-66903190D01*
X124747372Y-66903191D01*
X124536782Y-67046768D01*
X124349952Y-67220121D01*
X124349950Y-67220123D01*
X124191041Y-67419388D01*
X124063608Y-67640109D01*
X123970492Y-67877362D01*
X123970490Y-67877369D01*
X123913777Y-68125844D01*
X123910738Y-68166399D01*
X123886099Y-68231780D01*
X123830023Y-68273461D01*
X123760315Y-68278208D01*
X123699404Y-68244813D01*
X123470803Y-68016212D01*
X123460980Y-68003950D01*
X123460759Y-68004134D01*
X123455786Y-67998122D01*
X123406066Y-67951432D01*
X123404666Y-67950075D01*
X123384476Y-67929884D01*
X123378986Y-67925625D01*
X123374561Y-67921847D01*
X123340582Y-67889938D01*
X123340580Y-67889936D01*
X123340577Y-67889935D01*
X123323029Y-67880288D01*
X123306763Y-67869604D01*
X123290933Y-67857325D01*
X123248168Y-67838818D01*
X123242922Y-67836248D01*
X123202093Y-67813803D01*
X123202092Y-67813802D01*
X123182693Y-67808822D01*
X123164281Y-67802518D01*
X123145898Y-67794562D01*
X123145892Y-67794560D01*
X123099874Y-67787272D01*
X123094152Y-67786087D01*
X123049021Y-67774500D01*
X123049019Y-67774500D01*
X123028984Y-67774500D01*
X123009586Y-67772973D01*
X123002162Y-67771797D01*
X122989805Y-67769840D01*
X122989804Y-67769840D01*
X122943416Y-67774225D01*
X122937578Y-67774500D01*
X116175227Y-67774500D01*
X116108188Y-67754815D01*
X116073652Y-67721623D01*
X115938494Y-67528597D01*
X115771402Y-67361506D01*
X115771395Y-67361501D01*
X115577834Y-67225967D01*
X115577830Y-67225965D01*
X115565302Y-67220123D01*
X115363663Y-67126097D01*
X115363659Y-67126096D01*
X115363655Y-67126094D01*
X115135413Y-67064938D01*
X115135403Y-67064936D01*
X114900001Y-67044341D01*
X114899999Y-67044341D01*
X114664596Y-67064936D01*
X114664586Y-67064938D01*
X114436344Y-67126094D01*
X114436335Y-67126098D01*
X114222171Y-67225964D01*
X114222169Y-67225965D01*
X114028597Y-67361505D01*
X113861506Y-67528596D01*
X113861072Y-67529217D01*
X113860808Y-67529427D01*
X113858026Y-67532744D01*
X113857359Y-67532184D01*
X113806493Y-67572840D01*
X113736994Y-67580029D01*
X113674641Y-67548504D01*
X113639230Y-67488273D01*
X113635500Y-67458089D01*
X113635500Y-58310741D01*
X116351620Y-58310741D01*
X116385062Y-58569698D01*
X116457640Y-58820512D01*
X116457642Y-58820517D01*
X116457643Y-58820519D01*
X116567660Y-59057321D01*
X116567663Y-59057326D01*
X116567665Y-59057329D01*
X117286590Y-60135314D01*
X117407338Y-60289364D01*
X117407340Y-60289366D01*
X117407341Y-60289367D01*
X117597903Y-60467875D01*
X117813480Y-60615201D01*
X118049019Y-60727893D01*
X118299002Y-60803309D01*
X118557566Y-60839682D01*
X118818652Y-60836158D01*
X119076141Y-60792822D01*
X119076147Y-60792819D01*
X119076152Y-60792819D01*
X119174044Y-60760378D01*
X119323996Y-60710687D01*
X119556410Y-60591681D01*
X119767933Y-60438591D01*
X119953608Y-60255007D01*
X120109084Y-60045232D01*
X120230715Y-59814181D01*
X120315651Y-59567271D01*
X120344399Y-59407536D01*
X120375647Y-59345043D01*
X120435720Y-59309365D01*
X120466438Y-59305500D01*
X121473153Y-59305500D01*
X121540192Y-59325185D01*
X121585947Y-59377989D01*
X121595891Y-59447147D01*
X121580540Y-59491500D01*
X121523608Y-59590109D01*
X121430492Y-59827362D01*
X121430490Y-59827369D01*
X121373777Y-60075845D01*
X121354732Y-60329995D01*
X121354732Y-60330004D01*
X121373777Y-60584154D01*
X121421403Y-60792819D01*
X121430492Y-60832637D01*
X121523607Y-61069888D01*
X121651041Y-61290612D01*
X121809950Y-61489877D01*
X121996783Y-61663232D01*
X122207366Y-61806805D01*
X122207371Y-61806807D01*
X122207372Y-61806808D01*
X122207373Y-61806809D01*
X122329328Y-61865538D01*
X122436992Y-61917387D01*
X122436993Y-61917387D01*
X122436996Y-61917389D01*
X122680542Y-61992513D01*
X122932565Y-62030500D01*
X123238789Y-62030500D01*
X123238798Y-62030499D01*
X125530361Y-62030499D01*
X125530389Y-62030500D01*
X125532565Y-62030500D01*
X125787435Y-62030500D01*
X126039458Y-61992513D01*
X126283004Y-61917389D01*
X126512634Y-61806805D01*
X126723217Y-61663232D01*
X126910050Y-61489877D01*
X127068959Y-61290612D01*
X127196393Y-61069888D01*
X127289508Y-60832637D01*
X127346222Y-60584157D01*
X127357130Y-60438591D01*
X127365268Y-60330004D01*
X127365268Y-60329995D01*
X127346222Y-60075845D01*
X127289509Y-59827369D01*
X127289508Y-59827363D01*
X127196393Y-59590112D01*
X127139460Y-59491500D01*
X127122987Y-59423599D01*
X127145840Y-59357573D01*
X127200761Y-59314382D01*
X127246847Y-59305500D01*
X128532257Y-59305500D01*
X128547877Y-59307224D01*
X128547904Y-59306939D01*
X128555666Y-59307673D01*
X128555666Y-59307672D01*
X128555667Y-59307673D01*
X128558999Y-59307568D01*
X128623847Y-59305531D01*
X128625794Y-59305500D01*
X128654347Y-59305500D01*
X128654350Y-59305500D01*
X128661228Y-59304630D01*
X128667041Y-59304172D01*
X128713627Y-59302709D01*
X128732869Y-59297117D01*
X128751912Y-59293174D01*
X128771792Y-59290664D01*
X128815122Y-59273507D01*
X128820646Y-59271617D01*
X128824396Y-59270527D01*
X128865390Y-59258618D01*
X128882629Y-59248422D01*
X128900103Y-59239862D01*
X128918727Y-59232488D01*
X128918727Y-59232487D01*
X128918732Y-59232486D01*
X128956449Y-59205082D01*
X128961305Y-59201892D01*
X129001420Y-59178170D01*
X129015589Y-59163999D01*
X129030379Y-59151368D01*
X129046587Y-59139594D01*
X129076299Y-59103676D01*
X129080212Y-59099376D01*
X129802820Y-58376769D01*
X129864142Y-58343285D01*
X129933834Y-58348269D01*
X129989767Y-58390141D01*
X130014184Y-58455605D01*
X130014500Y-58464451D01*
X130014500Y-59077870D01*
X130014501Y-59077876D01*
X130020908Y-59137483D01*
X130071202Y-59272328D01*
X130071206Y-59272335D01*
X130157452Y-59387544D01*
X130157455Y-59387547D01*
X130272664Y-59473793D01*
X130272671Y-59473797D01*
X130407517Y-59524091D01*
X130407516Y-59524091D01*
X130414444Y-59524835D01*
X130467127Y-59530500D01*
X132162872Y-59530499D01*
X132222483Y-59524091D01*
X132357331Y-59473796D01*
X132472546Y-59387546D01*
X132485733Y-59369929D01*
X132541666Y-59328058D01*
X132611358Y-59323074D01*
X132672681Y-59356558D01*
X132684267Y-59369930D01*
X132697454Y-59387546D01*
X132697455Y-59387547D01*
X132812664Y-59473793D01*
X132812671Y-59473797D01*
X132947517Y-59524091D01*
X132947516Y-59524091D01*
X132954444Y-59524835D01*
X133007127Y-59530500D01*
X134702872Y-59530499D01*
X134762483Y-59524091D01*
X134897331Y-59473796D01*
X135012546Y-59387546D01*
X135098796Y-59272331D01*
X135149091Y-59137483D01*
X135155500Y-59077873D01*
X135155499Y-58333260D01*
X135170284Y-58282905D01*
X135159692Y-58265487D01*
X135155499Y-58233515D01*
X135155499Y-57854500D01*
X135175184Y-57787461D01*
X135227988Y-57741706D01*
X135279499Y-57730500D01*
X135317240Y-57730500D01*
X135384279Y-57750185D01*
X135430034Y-57802989D01*
X135439978Y-57872147D01*
X135439279Y-57876463D01*
X135408100Y-58049708D01*
X135403461Y-58236592D01*
X135388591Y-58282946D01*
X135398476Y-58298327D01*
X135402478Y-58317381D01*
X135435062Y-58569698D01*
X135507640Y-58820512D01*
X135507642Y-58820517D01*
X135507643Y-58820519D01*
X135617660Y-59057321D01*
X135617663Y-59057326D01*
X135617665Y-59057329D01*
X136336590Y-60135314D01*
X136457338Y-60289364D01*
X136457340Y-60289366D01*
X136457341Y-60289367D01*
X136647903Y-60467875D01*
X136863480Y-60615201D01*
X137099019Y-60727893D01*
X137349002Y-60803309D01*
X137607566Y-60839682D01*
X137868652Y-60836158D01*
X138126141Y-60792822D01*
X138126147Y-60792819D01*
X138126152Y-60792819D01*
X138224044Y-60760378D01*
X138373996Y-60710687D01*
X138606410Y-60591681D01*
X138817933Y-60438591D01*
X138927757Y-60330004D01*
X140404732Y-60330004D01*
X140423777Y-60584154D01*
X140471403Y-60792819D01*
X140480492Y-60832637D01*
X140573607Y-61069888D01*
X140701041Y-61290612D01*
X140859950Y-61489877D01*
X141046783Y-61663232D01*
X141257366Y-61806805D01*
X141257371Y-61806807D01*
X141257372Y-61806808D01*
X141257373Y-61806809D01*
X141379328Y-61865538D01*
X141486992Y-61917387D01*
X141486993Y-61917387D01*
X141486996Y-61917389D01*
X141730542Y-61992513D01*
X141982565Y-62030500D01*
X142288789Y-62030500D01*
X142288798Y-62030499D01*
X144580361Y-62030499D01*
X144580389Y-62030500D01*
X144582565Y-62030500D01*
X144837435Y-62030500D01*
X145089458Y-61992513D01*
X145333004Y-61917389D01*
X145562634Y-61806805D01*
X145773217Y-61663232D01*
X145960050Y-61489877D01*
X146118959Y-61290612D01*
X146246393Y-61069888D01*
X146339508Y-60832637D01*
X146396222Y-60584157D01*
X146407130Y-60438591D01*
X146415268Y-60330004D01*
X146415268Y-60329995D01*
X146396222Y-60075845D01*
X146339509Y-59827369D01*
X146339508Y-59827363D01*
X146246393Y-59590112D01*
X146118959Y-59369388D01*
X145960050Y-59170123D01*
X145773217Y-58996768D01*
X145562634Y-58853195D01*
X145562630Y-58853193D01*
X145562627Y-58853191D01*
X145562626Y-58853190D01*
X145333006Y-58742612D01*
X145333008Y-58742612D01*
X145089466Y-58667489D01*
X145089462Y-58667488D01*
X145089458Y-58667487D01*
X144968231Y-58649214D01*
X144837440Y-58629500D01*
X144837435Y-58629500D01*
X144582565Y-58629500D01*
X144582564Y-58629500D01*
X142237441Y-58629500D01*
X142237435Y-58629500D01*
X141982565Y-58629500D01*
X141982559Y-58629500D01*
X141825609Y-58653157D01*
X141730542Y-58667487D01*
X141730538Y-58667488D01*
X141730539Y-58667488D01*
X141730533Y-58667489D01*
X141486992Y-58742612D01*
X141257373Y-58853190D01*
X141257372Y-58853191D01*
X141046782Y-58996768D01*
X140859952Y-59170121D01*
X140859950Y-59170123D01*
X140701041Y-59369388D01*
X140573608Y-59590109D01*
X140480492Y-59827362D01*
X140480490Y-59827369D01*
X140423777Y-60075845D01*
X140404732Y-60329995D01*
X140404732Y-60330004D01*
X138927757Y-60330004D01*
X139003608Y-60255007D01*
X139159084Y-60045232D01*
X139280715Y-59814181D01*
X139365651Y-59567271D01*
X139411900Y-59310290D01*
X139418379Y-59049260D01*
X139384938Y-58790301D01*
X139312357Y-58539481D01*
X139202340Y-58302679D01*
X138483412Y-57224689D01*
X138483409Y-57224685D01*
X138362661Y-57070635D01*
X138362659Y-57070633D01*
X138172097Y-56892125D01*
X137956520Y-56744799D01*
X137956517Y-56744798D01*
X137956515Y-56744796D01*
X137956512Y-56744794D01*
X137720982Y-56632108D01*
X137470997Y-56556690D01*
X137248804Y-56525435D01*
X137212434Y-56520319D01*
X137212433Y-56520319D01*
X136951347Y-56523841D01*
X136693858Y-56567178D01*
X136693847Y-56567180D01*
X136446009Y-56649311D01*
X136445995Y-56649317D01*
X136405927Y-56669833D01*
X136337284Y-56682865D01*
X136272491Y-56656717D01*
X136261733Y-56647141D01*
X136249476Y-56634884D01*
X136243986Y-56630625D01*
X136239561Y-56626847D01*
X136205582Y-56594938D01*
X136205580Y-56594936D01*
X136205577Y-56594935D01*
X136188029Y-56585288D01*
X136171763Y-56574604D01*
X136162192Y-56567180D01*
X136155936Y-56562327D01*
X136155935Y-56562326D01*
X136155933Y-56562325D01*
X136113168Y-56543818D01*
X136107922Y-56541248D01*
X136067093Y-56518803D01*
X136067092Y-56518802D01*
X136047693Y-56513822D01*
X136029281Y-56507518D01*
X136010898Y-56499562D01*
X136010892Y-56499560D01*
X135964874Y-56492272D01*
X135959152Y-56491087D01*
X135914021Y-56479500D01*
X135914019Y-56479500D01*
X135893984Y-56479500D01*
X135874586Y-56477973D01*
X135867162Y-56476797D01*
X135854805Y-56474840D01*
X135854804Y-56474840D01*
X135808416Y-56479225D01*
X135802578Y-56479500D01*
X130272737Y-56479500D01*
X130257120Y-56477776D01*
X130257093Y-56478062D01*
X130249331Y-56477327D01*
X130181171Y-56479469D01*
X130179224Y-56479500D01*
X130150650Y-56479500D01*
X130149929Y-56479590D01*
X130143757Y-56480369D01*
X130137945Y-56480826D01*
X130091372Y-56482290D01*
X130091369Y-56482291D01*
X130072126Y-56487881D01*
X130053083Y-56491825D01*
X130033204Y-56494336D01*
X130033203Y-56494337D01*
X129989878Y-56511490D01*
X129984352Y-56513382D01*
X129939608Y-56526383D01*
X129939604Y-56526385D01*
X129922365Y-56536580D01*
X129904898Y-56545137D01*
X129886269Y-56552512D01*
X129886267Y-56552513D01*
X129848564Y-56579906D01*
X129843682Y-56583112D01*
X129803580Y-56606828D01*
X129789408Y-56621000D01*
X129774623Y-56633628D01*
X129758412Y-56645407D01*
X129728709Y-56681310D01*
X129724777Y-56685631D01*
X128392228Y-58018181D01*
X128330905Y-58051666D01*
X128304547Y-58054500D01*
X120053175Y-58054500D01*
X119986136Y-58034815D01*
X119950013Y-57999301D01*
X119808733Y-57787461D01*
X119433412Y-57224689D01*
X119433409Y-57224685D01*
X119312661Y-57070635D01*
X119312659Y-57070633D01*
X119122097Y-56892125D01*
X118906520Y-56744799D01*
X118906517Y-56744798D01*
X118906515Y-56744796D01*
X118906512Y-56744794D01*
X118670982Y-56632108D01*
X118420997Y-56556690D01*
X118198804Y-56525435D01*
X118162434Y-56520319D01*
X118162433Y-56520319D01*
X117901347Y-56523841D01*
X117643858Y-56567178D01*
X117643847Y-56567180D01*
X117396009Y-56649311D01*
X117396002Y-56649314D01*
X117163591Y-56768319D01*
X116952075Y-56921403D01*
X116952067Y-56921409D01*
X116766392Y-57104992D01*
X116610916Y-57314766D01*
X116489287Y-57545814D01*
X116489282Y-57545826D01*
X116404349Y-57792728D01*
X116358100Y-58049709D01*
X116351620Y-58310740D01*
X116351620Y-58310741D01*
X113635500Y-58310741D01*
X113635500Y-54541240D01*
X116409499Y-54541240D01*
X116409500Y-54541243D01*
X116450382Y-54759940D01*
X116530752Y-54967398D01*
X116530754Y-54967404D01*
X116647874Y-55156560D01*
X116647876Y-55156562D01*
X116797761Y-55320979D01*
X116975308Y-55455056D01*
X116975316Y-55455061D01*
X117174461Y-55554224D01*
X117174465Y-55554225D01*
X117174472Y-55554229D01*
X117388464Y-55615115D01*
X117554497Y-55630500D01*
X117554501Y-55630500D01*
X117965499Y-55630500D01*
X117965503Y-55630500D01*
X118131536Y-55615115D01*
X118345528Y-55554229D01*
X118544689Y-55455058D01*
X118722236Y-55320981D01*
X118872124Y-55156562D01*
X118989247Y-54967401D01*
X119069618Y-54759940D01*
X119110500Y-54541243D01*
X119110500Y-54318757D01*
X119069618Y-54100060D01*
X118989247Y-53892599D01*
X118964197Y-53852142D01*
X118910286Y-53765072D01*
X118891731Y-53697712D01*
X118912539Y-53631012D01*
X118966104Y-53586151D01*
X119034194Y-53577180D01*
X119122565Y-53590500D01*
X119377435Y-53590500D01*
X119629458Y-53552513D01*
X119873004Y-53477389D01*
X120102634Y-53366805D01*
X120265351Y-53255866D01*
X120331828Y-53234366D01*
X120399378Y-53252220D01*
X120446553Y-53303760D01*
X120458373Y-53372622D01*
X120452669Y-53398033D01*
X120353785Y-53690521D01*
X120285319Y-54015789D01*
X120285319Y-54015794D01*
X120255805Y-54346853D01*
X120265655Y-54679112D01*
X120314731Y-55007857D01*
X120314732Y-55007862D01*
X120402345Y-55328494D01*
X120402346Y-55328498D01*
X120527264Y-55636511D01*
X120527269Y-55636522D01*
X120687740Y-55927599D01*
X120687740Y-55927600D01*
X120881520Y-56197667D01*
X120881529Y-56197677D01*
X120996737Y-56323612D01*
X121105877Y-56442914D01*
X121357666Y-56659906D01*
X121357671Y-56659909D01*
X121357677Y-56659914D01*
X121518625Y-56768320D01*
X121633353Y-56845595D01*
X121929067Y-56997374D01*
X122240656Y-57113113D01*
X122563747Y-57191187D01*
X122893805Y-57230500D01*
X122893812Y-57230500D01*
X123143025Y-57230500D01*
X123205218Y-57226809D01*
X123391807Y-57215736D01*
X123718956Y-57156939D01*
X124036854Y-57059862D01*
X124341040Y-56925868D01*
X124627243Y-56756837D01*
X124891445Y-56555142D01*
X125129937Y-56323616D01*
X125339373Y-56065506D01*
X125516810Y-55784438D01*
X125659760Y-55484357D01*
X125766215Y-55169475D01*
X125834680Y-54844212D01*
X125861689Y-54541240D01*
X127009499Y-54541240D01*
X127009500Y-54541243D01*
X127050382Y-54759940D01*
X127130752Y-54967398D01*
X127130754Y-54967404D01*
X127247874Y-55156560D01*
X127247876Y-55156562D01*
X127397761Y-55320979D01*
X127575308Y-55455056D01*
X127575316Y-55455061D01*
X127774461Y-55554224D01*
X127774465Y-55554225D01*
X127774472Y-55554229D01*
X127988464Y-55615115D01*
X128154497Y-55630500D01*
X128154501Y-55630500D01*
X128565499Y-55630500D01*
X128565503Y-55630500D01*
X128731536Y-55615115D01*
X128945528Y-55554229D01*
X129144689Y-55455058D01*
X129322236Y-55320981D01*
X129472124Y-55156562D01*
X129589247Y-54967401D01*
X129669618Y-54759940D01*
X129710500Y-54541243D01*
X129710500Y-54318757D01*
X129669618Y-54100060D01*
X129589247Y-53892599D01*
X129564197Y-53852142D01*
X129472125Y-53703439D01*
X129472123Y-53703437D01*
X129322238Y-53539020D01*
X129144691Y-53404943D01*
X129144683Y-53404938D01*
X128945538Y-53305775D01*
X128945523Y-53305769D01*
X128731537Y-53244885D01*
X128731535Y-53244884D01*
X128613653Y-53233961D01*
X128565503Y-53229500D01*
X128154497Y-53229500D01*
X128109601Y-53233660D01*
X127988464Y-53244884D01*
X127988462Y-53244885D01*
X127774476Y-53305769D01*
X127774461Y-53305775D01*
X127575316Y-53404938D01*
X127575308Y-53404943D01*
X127397761Y-53539020D01*
X127247876Y-53703437D01*
X127247874Y-53703439D01*
X127130754Y-53892595D01*
X127130752Y-53892601D01*
X127050382Y-54100061D01*
X127050382Y-54100062D01*
X127009499Y-54318759D01*
X127009499Y-54541240D01*
X125861689Y-54541240D01*
X125864195Y-54513134D01*
X125854345Y-54180890D01*
X125805269Y-53852142D01*
X125717655Y-53531506D01*
X125592733Y-53223483D01*
X125432258Y-52932397D01*
X125238481Y-52662335D01*
X125238479Y-52662332D01*
X125238470Y-52662322D01*
X125033666Y-52438449D01*
X125014123Y-52417086D01*
X125002852Y-52407373D01*
X124762336Y-52200096D01*
X124762334Y-52200094D01*
X124762330Y-52200091D01*
X124762322Y-52200085D01*
X124486653Y-52014409D01*
X124486652Y-52014408D01*
X124486649Y-52014406D01*
X124486647Y-52014405D01*
X124190933Y-51862626D01*
X124190928Y-51862624D01*
X124190926Y-51862623D01*
X123879348Y-51746888D01*
X123556254Y-51668813D01*
X123556249Y-51668812D01*
X123416687Y-51652189D01*
X123226195Y-51629500D01*
X122976977Y-51629500D01*
X122976975Y-51629500D01*
X122728198Y-51644263D01*
X122728191Y-51644264D01*
X122401043Y-51703061D01*
X122083142Y-51800139D01*
X121778960Y-51934131D01*
X121778955Y-51934134D01*
X121492765Y-52103157D01*
X121492748Y-52103169D01*
X121228553Y-52304859D01*
X121228544Y-52304867D01*
X121106329Y-52423513D01*
X121044517Y-52456086D01*
X120974907Y-52450069D01*
X120919600Y-52407373D01*
X120896155Y-52341554D01*
X120899066Y-52306949D01*
X120923454Y-52200096D01*
X120936222Y-52144157D01*
X120955268Y-51890000D01*
X120953216Y-51862623D01*
X120936222Y-51635845D01*
X120934898Y-51630045D01*
X120879508Y-51387363D01*
X120786393Y-51150112D01*
X120658959Y-50929388D01*
X120500050Y-50730123D01*
X120313217Y-50556768D01*
X120102634Y-50413195D01*
X120102630Y-50413193D01*
X120102627Y-50413191D01*
X120102626Y-50413190D01*
X119873006Y-50302612D01*
X119873008Y-50302612D01*
X119629466Y-50227489D01*
X119629462Y-50227488D01*
X119629458Y-50227487D01*
X119508231Y-50209214D01*
X119377440Y-50189500D01*
X119377435Y-50189500D01*
X119122565Y-50189500D01*
X119122559Y-50189500D01*
X118965609Y-50213157D01*
X118870542Y-50227487D01*
X118870538Y-50227488D01*
X118870539Y-50227488D01*
X118870533Y-50227489D01*
X118626992Y-50302612D01*
X118397373Y-50413190D01*
X118397372Y-50413191D01*
X118186782Y-50556768D01*
X117999952Y-50730121D01*
X117999950Y-50730123D01*
X117841041Y-50929388D01*
X117713608Y-51150109D01*
X117620492Y-51387362D01*
X117620490Y-51387369D01*
X117563777Y-51635845D01*
X117544732Y-51889995D01*
X117544732Y-51890004D01*
X117563777Y-52144154D01*
X117608832Y-52341554D01*
X117620492Y-52392637D01*
X117713607Y-52629888D01*
X117841041Y-52850612D01*
X117906265Y-52932400D01*
X117982653Y-53028187D01*
X118009061Y-53092874D01*
X117996306Y-53161569D01*
X117948435Y-53212463D01*
X117885706Y-53229500D01*
X117554497Y-53229500D01*
X117509601Y-53233660D01*
X117388464Y-53244884D01*
X117388462Y-53244885D01*
X117174476Y-53305769D01*
X117174461Y-53305775D01*
X116975316Y-53404938D01*
X116975308Y-53404943D01*
X116797761Y-53539020D01*
X116647876Y-53703437D01*
X116647874Y-53703439D01*
X116530754Y-53892595D01*
X116530752Y-53892601D01*
X116450382Y-54100061D01*
X116450382Y-54100062D01*
X116409499Y-54318759D01*
X116409499Y-54541240D01*
X113635500Y-54541240D01*
X113635500Y-49330004D01*
X123894732Y-49330004D01*
X123913777Y-49584154D01*
X123924230Y-49629953D01*
X123970492Y-49832637D01*
X124063607Y-50069888D01*
X124191041Y-50290612D01*
X124349950Y-50489877D01*
X124536783Y-50663232D01*
X124747366Y-50806805D01*
X124747371Y-50806807D01*
X124747372Y-50806808D01*
X124747373Y-50806809D01*
X124850945Y-50856686D01*
X124976992Y-50917387D01*
X124976993Y-50917387D01*
X124976996Y-50917389D01*
X125220542Y-50992513D01*
X125472565Y-51030500D01*
X125778789Y-51030500D01*
X125778798Y-51030499D01*
X127930361Y-51030499D01*
X127930389Y-51030500D01*
X127932565Y-51030500D01*
X128187435Y-51030500D01*
X128439458Y-50992513D01*
X128683004Y-50917389D01*
X128912634Y-50806805D01*
X129123217Y-50663232D01*
X129310050Y-50489877D01*
X129468959Y-50290612D01*
X129596393Y-50069888D01*
X129604402Y-50049479D01*
X129647216Y-49994268D01*
X129713085Y-49970966D01*
X129781096Y-49986974D01*
X129807511Y-50007101D01*
X130015586Y-50215176D01*
X130049071Y-50276499D01*
X130047681Y-50334948D01*
X130029365Y-50403307D01*
X130029364Y-50403313D01*
X130009532Y-50629999D01*
X130009532Y-50630001D01*
X130029364Y-50856686D01*
X130029366Y-50856697D01*
X130088258Y-51076488D01*
X130088261Y-51076497D01*
X130184431Y-51282732D01*
X130184432Y-51282734D01*
X130314954Y-51469141D01*
X130475858Y-51630045D01*
X130475861Y-51630047D01*
X130662266Y-51760568D01*
X130868504Y-51856739D01*
X130868509Y-51856740D01*
X130868511Y-51856741D01*
X130921415Y-51870916D01*
X131088308Y-51915635D01*
X131250230Y-51929801D01*
X131314998Y-51935468D01*
X131315000Y-51935468D01*
X131315002Y-51935468D01*
X131371672Y-51930509D01*
X131541692Y-51915635D01*
X131761496Y-51856739D01*
X131967734Y-51760568D01*
X132154139Y-51630047D01*
X132315047Y-51469139D01*
X132445568Y-51282734D01*
X132472618Y-51224724D01*
X132518790Y-51172285D01*
X132585983Y-51153133D01*
X132652865Y-51173348D01*
X132697382Y-51224725D01*
X132724429Y-51282728D01*
X132724432Y-51282734D01*
X132854954Y-51469141D01*
X133015858Y-51630045D01*
X133015861Y-51630047D01*
X133202266Y-51760568D01*
X133408504Y-51856739D01*
X133408509Y-51856740D01*
X133408511Y-51856741D01*
X133461415Y-51870916D01*
X133628308Y-51915635D01*
X133790230Y-51929801D01*
X133854998Y-51935468D01*
X133855000Y-51935468D01*
X133855002Y-51935468D01*
X133911673Y-51930509D01*
X134081692Y-51915635D01*
X134301496Y-51856739D01*
X134507734Y-51760568D01*
X134694139Y-51630047D01*
X134855047Y-51469139D01*
X134985568Y-51282734D01*
X135081739Y-51076496D01*
X135140635Y-50856692D01*
X135160468Y-50630000D01*
X135140635Y-50403308D01*
X135122318Y-50334947D01*
X135123981Y-50265101D01*
X135154408Y-50215180D01*
X135377772Y-49991816D01*
X135439094Y-49958334D01*
X135465452Y-49955500D01*
X138070389Y-49955500D01*
X138137428Y-49975185D01*
X138183183Y-50027989D01*
X138193127Y-50097147D01*
X138164102Y-50160703D01*
X138105324Y-50198477D01*
X138088870Y-50202115D01*
X137920542Y-50227487D01*
X137920538Y-50227488D01*
X137920539Y-50227488D01*
X137920533Y-50227489D01*
X137676992Y-50302612D01*
X137447373Y-50413190D01*
X137447372Y-50413191D01*
X137236782Y-50556768D01*
X137049952Y-50730121D01*
X137049950Y-50730123D01*
X136891041Y-50929388D01*
X136763608Y-51150109D01*
X136670492Y-51387362D01*
X136670490Y-51387369D01*
X136613777Y-51635845D01*
X136594732Y-51889995D01*
X136594732Y-51890004D01*
X136613777Y-52144154D01*
X136658832Y-52341554D01*
X136670492Y-52392637D01*
X136763607Y-52629888D01*
X136891041Y-52850612D01*
X136956265Y-52932400D01*
X137032653Y-53028187D01*
X137059061Y-53092874D01*
X137046306Y-53161569D01*
X136998435Y-53212463D01*
X136935706Y-53229500D01*
X136604497Y-53229500D01*
X136559601Y-53233660D01*
X136438464Y-53244884D01*
X136438462Y-53244885D01*
X136224476Y-53305769D01*
X136224461Y-53305775D01*
X136025316Y-53404938D01*
X136025308Y-53404943D01*
X135847761Y-53539020D01*
X135697876Y-53703437D01*
X135697874Y-53703439D01*
X135580754Y-53892595D01*
X135580753Y-53892599D01*
X135500382Y-54100060D01*
X135459500Y-54318757D01*
X135459500Y-54541243D01*
X135500382Y-54759940D01*
X135580752Y-54967398D01*
X135580754Y-54967404D01*
X135697874Y-55156560D01*
X135697876Y-55156562D01*
X135847761Y-55320979D01*
X136025308Y-55455056D01*
X136025316Y-55455061D01*
X136224461Y-55554224D01*
X136224465Y-55554225D01*
X136224472Y-55554229D01*
X136438464Y-55615115D01*
X136604497Y-55630500D01*
X136604501Y-55630500D01*
X137015499Y-55630500D01*
X137015503Y-55630500D01*
X137181536Y-55615115D01*
X137395528Y-55554229D01*
X137594689Y-55455058D01*
X137772236Y-55320981D01*
X137922124Y-55156562D01*
X138039247Y-54967401D01*
X138119618Y-54759940D01*
X138160500Y-54541243D01*
X138160500Y-54318757D01*
X138119618Y-54100060D01*
X138039247Y-53892599D01*
X138014197Y-53852142D01*
X137960286Y-53765072D01*
X137941731Y-53697712D01*
X137962539Y-53631012D01*
X138016104Y-53586151D01*
X138084194Y-53577180D01*
X138172565Y-53590500D01*
X138427435Y-53590500D01*
X138679458Y-53552513D01*
X138923004Y-53477389D01*
X139152634Y-53366805D01*
X139315351Y-53255866D01*
X139381828Y-53234366D01*
X139449378Y-53252220D01*
X139496553Y-53303760D01*
X139508373Y-53372622D01*
X139502669Y-53398033D01*
X139403785Y-53690521D01*
X139335319Y-54015789D01*
X139335319Y-54015794D01*
X139305805Y-54346853D01*
X139315655Y-54679112D01*
X139364731Y-55007857D01*
X139364732Y-55007862D01*
X139452345Y-55328494D01*
X139452346Y-55328498D01*
X139577264Y-55636511D01*
X139577269Y-55636522D01*
X139737740Y-55927599D01*
X139737740Y-55927600D01*
X139931520Y-56197667D01*
X139931529Y-56197677D01*
X140046737Y-56323612D01*
X140155877Y-56442914D01*
X140407666Y-56659906D01*
X140407671Y-56659909D01*
X140407677Y-56659914D01*
X140568625Y-56768320D01*
X140683353Y-56845595D01*
X140979067Y-56997374D01*
X141290656Y-57113113D01*
X141613747Y-57191187D01*
X141943805Y-57230500D01*
X141943812Y-57230500D01*
X142193025Y-57230500D01*
X142255218Y-57226809D01*
X142441807Y-57215736D01*
X142768956Y-57156939D01*
X143086854Y-57059862D01*
X143391040Y-56925868D01*
X143677243Y-56756837D01*
X143941445Y-56555142D01*
X144179937Y-56323616D01*
X144389373Y-56065506D01*
X144566810Y-55784438D01*
X144709760Y-55484357D01*
X144816215Y-55169475D01*
X144884680Y-54844212D01*
X144911689Y-54541243D01*
X146059500Y-54541243D01*
X146100382Y-54759940D01*
X146180752Y-54967398D01*
X146180754Y-54967404D01*
X146297874Y-55156560D01*
X146297876Y-55156562D01*
X146447761Y-55320979D01*
X146625308Y-55455056D01*
X146625316Y-55455061D01*
X146824461Y-55554224D01*
X146824465Y-55554225D01*
X146824472Y-55554229D01*
X147038464Y-55615115D01*
X147204497Y-55630500D01*
X147204501Y-55630500D01*
X147615499Y-55630500D01*
X147615503Y-55630500D01*
X147781536Y-55615115D01*
X147995528Y-55554229D01*
X148194689Y-55455058D01*
X148372236Y-55320981D01*
X148522124Y-55156562D01*
X148639247Y-54967401D01*
X148719618Y-54759940D01*
X148760500Y-54541243D01*
X148760500Y-54318757D01*
X148719618Y-54100060D01*
X148639247Y-53892599D01*
X148614197Y-53852142D01*
X148522125Y-53703439D01*
X148522123Y-53703437D01*
X148372238Y-53539020D01*
X148194691Y-53404943D01*
X148194683Y-53404938D01*
X147995538Y-53305775D01*
X147995523Y-53305769D01*
X147781537Y-53244885D01*
X147781535Y-53244884D01*
X147663653Y-53233961D01*
X147615503Y-53229500D01*
X147204497Y-53229500D01*
X147159601Y-53233660D01*
X147038464Y-53244884D01*
X147038462Y-53244885D01*
X146824476Y-53305769D01*
X146824461Y-53305775D01*
X146625316Y-53404938D01*
X146625308Y-53404943D01*
X146447761Y-53539020D01*
X146297876Y-53703437D01*
X146297874Y-53703439D01*
X146180754Y-53892595D01*
X146180753Y-53892599D01*
X146100382Y-54100060D01*
X146059500Y-54318757D01*
X146059500Y-54541243D01*
X144911689Y-54541243D01*
X144914195Y-54513134D01*
X144904345Y-54180890D01*
X144855269Y-53852142D01*
X144767655Y-53531506D01*
X144642733Y-53223483D01*
X144482258Y-52932397D01*
X144288481Y-52662335D01*
X144288479Y-52662332D01*
X144288470Y-52662322D01*
X144083666Y-52438449D01*
X144064123Y-52417086D01*
X144052852Y-52407373D01*
X143812336Y-52200096D01*
X143812334Y-52200094D01*
X143812330Y-52200091D01*
X143812322Y-52200085D01*
X143536653Y-52014409D01*
X143536652Y-52014408D01*
X143536649Y-52014406D01*
X143536647Y-52014405D01*
X143240933Y-51862626D01*
X143240928Y-51862624D01*
X143240926Y-51862623D01*
X142929348Y-51746888D01*
X142606254Y-51668813D01*
X142606249Y-51668812D01*
X142466687Y-51652189D01*
X142276195Y-51629500D01*
X142026977Y-51629500D01*
X142026975Y-51629500D01*
X141778198Y-51644263D01*
X141778191Y-51644264D01*
X141451043Y-51703061D01*
X141133142Y-51800139D01*
X140828960Y-51934131D01*
X140828955Y-51934134D01*
X140542765Y-52103157D01*
X140542748Y-52103169D01*
X140278553Y-52304859D01*
X140278544Y-52304867D01*
X140156329Y-52423513D01*
X140094517Y-52456086D01*
X140024907Y-52450069D01*
X139969600Y-52407373D01*
X139946155Y-52341554D01*
X139949066Y-52306949D01*
X139973454Y-52200096D01*
X139986222Y-52144157D01*
X140005268Y-51890000D01*
X140003216Y-51862623D01*
X139986222Y-51635845D01*
X139984898Y-51630045D01*
X139929508Y-51387363D01*
X139836393Y-51150112D01*
X139708959Y-50929388D01*
X139550050Y-50730123D01*
X139363217Y-50556768D01*
X139152634Y-50413195D01*
X139152630Y-50413193D01*
X139152627Y-50413191D01*
X139152626Y-50413190D01*
X138923006Y-50302612D01*
X138923008Y-50302612D01*
X138679466Y-50227489D01*
X138679462Y-50227488D01*
X138679458Y-50227487D01*
X138511129Y-50202115D01*
X138447772Y-50172658D01*
X138410399Y-50113624D01*
X138410874Y-50043756D01*
X138449048Y-49985237D01*
X138512800Y-49956645D01*
X138529611Y-49955500D01*
X142984172Y-49955500D01*
X143051211Y-49975185D01*
X143096966Y-50027989D01*
X143099588Y-50034170D01*
X143113607Y-50069888D01*
X143241041Y-50290612D01*
X143399950Y-50489877D01*
X143586783Y-50663232D01*
X143797366Y-50806805D01*
X143797371Y-50806807D01*
X143797372Y-50806808D01*
X143797373Y-50806809D01*
X143900945Y-50856686D01*
X144026992Y-50917387D01*
X144026993Y-50917387D01*
X144026996Y-50917389D01*
X144270542Y-50992513D01*
X144522565Y-51030500D01*
X144828789Y-51030500D01*
X144828798Y-51030499D01*
X146980361Y-51030499D01*
X146980389Y-51030500D01*
X146982565Y-51030500D01*
X147237435Y-51030500D01*
X147489458Y-50992513D01*
X147733004Y-50917389D01*
X147962634Y-50806805D01*
X148173217Y-50663232D01*
X148360050Y-50489877D01*
X148518959Y-50290612D01*
X148646393Y-50069888D01*
X148739508Y-49832637D01*
X148796222Y-49584157D01*
X148812944Y-49361016D01*
X148815268Y-49330004D01*
X148815268Y-49329995D01*
X148796222Y-49075845D01*
X148766634Y-48946212D01*
X148739508Y-48827363D01*
X148646393Y-48590112D01*
X148518959Y-48369388D01*
X148360050Y-48170123D01*
X148173217Y-47996768D01*
X147962634Y-47853195D01*
X147962630Y-47853193D01*
X147962627Y-47853191D01*
X147962626Y-47853190D01*
X147733006Y-47742612D01*
X147733008Y-47742612D01*
X147489466Y-47667489D01*
X147489462Y-47667488D01*
X147489458Y-47667487D01*
X147368231Y-47649214D01*
X147237440Y-47629500D01*
X147237435Y-47629500D01*
X146982565Y-47629500D01*
X146982564Y-47629500D01*
X144777441Y-47629500D01*
X144777435Y-47629500D01*
X144522565Y-47629500D01*
X144522559Y-47629500D01*
X144365609Y-47653157D01*
X144270542Y-47667487D01*
X144270538Y-47667488D01*
X144270539Y-47667488D01*
X144270533Y-47667489D01*
X144026992Y-47742612D01*
X143797373Y-47853190D01*
X143797372Y-47853191D01*
X143586782Y-47996768D01*
X143399952Y-48170121D01*
X143399950Y-48170123D01*
X143241041Y-48369388D01*
X143113609Y-48590107D01*
X143113607Y-48590111D01*
X143113607Y-48590112D01*
X143099599Y-48625803D01*
X143056785Y-48681015D01*
X142990915Y-48704317D01*
X142984172Y-48704500D01*
X135237743Y-48704500D01*
X135222122Y-48702775D01*
X135222095Y-48703061D01*
X135214333Y-48702326D01*
X135146140Y-48704469D01*
X135144193Y-48704500D01*
X135115649Y-48704500D01*
X135108778Y-48705367D01*
X135102959Y-48705825D01*
X135056374Y-48707289D01*
X135056368Y-48707290D01*
X135037126Y-48712880D01*
X135018087Y-48716823D01*
X134998217Y-48719334D01*
X134998203Y-48719337D01*
X134954883Y-48736488D01*
X134949358Y-48738380D01*
X134904613Y-48751380D01*
X134904610Y-48751381D01*
X134887366Y-48761579D01*
X134869905Y-48770133D01*
X134851274Y-48777510D01*
X134851262Y-48777517D01*
X134813570Y-48804902D01*
X134808687Y-48808109D01*
X134768580Y-48831829D01*
X134754414Y-48845995D01*
X134739624Y-48858627D01*
X134723414Y-48870404D01*
X134723411Y-48870407D01*
X134693710Y-48906309D01*
X134689777Y-48910631D01*
X134269821Y-49330586D01*
X134208498Y-49364071D01*
X134150048Y-49362680D01*
X134081697Y-49344366D01*
X134081693Y-49344365D01*
X134081692Y-49344365D01*
X133968345Y-49334448D01*
X133855001Y-49324532D01*
X133854998Y-49324532D01*
X133628313Y-49344364D01*
X133628302Y-49344366D01*
X133408511Y-49403258D01*
X133408502Y-49403261D01*
X133202267Y-49499431D01*
X133202265Y-49499432D01*
X133015858Y-49629954D01*
X132854954Y-49790858D01*
X132724432Y-49977265D01*
X132724431Y-49977267D01*
X132697382Y-50035275D01*
X132651209Y-50087714D01*
X132584016Y-50106866D01*
X132517135Y-50086650D01*
X132472618Y-50035275D01*
X132472116Y-50034199D01*
X132445568Y-49977266D01*
X132315047Y-49790861D01*
X132315045Y-49790858D01*
X132154141Y-49629954D01*
X131967734Y-49499432D01*
X131967732Y-49499431D01*
X131761497Y-49403261D01*
X131761488Y-49403258D01*
X131541697Y-49344366D01*
X131541693Y-49344365D01*
X131541692Y-49344365D01*
X131541691Y-49344364D01*
X131541686Y-49344364D01*
X131315002Y-49324532D01*
X131314999Y-49324532D01*
X131088313Y-49344364D01*
X131088296Y-49344367D01*
X131019949Y-49362680D01*
X130950099Y-49361016D01*
X130900177Y-49330586D01*
X130515803Y-48946212D01*
X130505980Y-48933950D01*
X130505759Y-48934134D01*
X130500786Y-48928122D01*
X130451066Y-48881432D01*
X130449666Y-48880075D01*
X130429476Y-48859884D01*
X130423986Y-48855625D01*
X130419561Y-48851847D01*
X130385582Y-48819938D01*
X130385580Y-48819936D01*
X130385577Y-48819935D01*
X130368029Y-48810288D01*
X130351763Y-48799604D01*
X130335933Y-48787325D01*
X130293168Y-48768818D01*
X130287922Y-48766248D01*
X130247093Y-48743803D01*
X130247092Y-48743802D01*
X130227693Y-48738822D01*
X130209281Y-48732518D01*
X130190898Y-48724562D01*
X130190892Y-48724560D01*
X130144874Y-48717272D01*
X130139152Y-48716087D01*
X130094021Y-48704500D01*
X130094019Y-48704500D01*
X130073984Y-48704500D01*
X130054586Y-48702973D01*
X130047162Y-48701797D01*
X130034805Y-48699840D01*
X130034804Y-48699840D01*
X129988416Y-48704225D01*
X129982578Y-48704500D01*
X129725828Y-48704500D01*
X129658789Y-48684815D01*
X129613034Y-48632011D01*
X129610411Y-48625829D01*
X129596393Y-48590112D01*
X129468959Y-48369388D01*
X129310050Y-48170123D01*
X129123217Y-47996768D01*
X128912634Y-47853195D01*
X128912630Y-47853193D01*
X128912627Y-47853191D01*
X128912626Y-47853190D01*
X128683006Y-47742612D01*
X128683008Y-47742612D01*
X128439466Y-47667489D01*
X128439462Y-47667488D01*
X128439458Y-47667487D01*
X128318231Y-47649214D01*
X128187440Y-47629500D01*
X128187435Y-47629500D01*
X127932565Y-47629500D01*
X127932564Y-47629500D01*
X125727441Y-47629500D01*
X125727435Y-47629500D01*
X125472565Y-47629500D01*
X125472559Y-47629500D01*
X125315609Y-47653157D01*
X125220542Y-47667487D01*
X125220538Y-47667488D01*
X125220539Y-47667488D01*
X125220533Y-47667489D01*
X124976992Y-47742612D01*
X124747373Y-47853190D01*
X124747372Y-47853191D01*
X124536782Y-47996768D01*
X124349952Y-48170121D01*
X124349950Y-48170123D01*
X124191041Y-48369388D01*
X124063608Y-48590109D01*
X123970492Y-48827362D01*
X123970490Y-48827369D01*
X123913777Y-49075845D01*
X123894732Y-49329995D01*
X123894732Y-49330004D01*
X113635500Y-49330004D01*
X113635500Y-45408465D01*
X113635885Y-45401567D01*
X113636499Y-45396070D01*
X113638469Y-45378470D01*
X113648912Y-45298634D01*
X113654728Y-45274046D01*
X113666712Y-45239562D01*
X113667913Y-45236393D01*
X113690367Y-45181798D01*
X113699800Y-45163403D01*
X113721746Y-45128198D01*
X113724976Y-45123516D01*
X113761737Y-45075193D01*
X113767005Y-45069130D01*
X113800420Y-45035379D01*
X113806428Y-45030053D01*
X113854390Y-44992804D01*
X113859035Y-44989531D01*
X113894013Y-44967237D01*
X113912302Y-44957627D01*
X113966722Y-44934606D01*
X113969829Y-44933393D01*
X114004196Y-44921063D01*
X114028732Y-44915001D01*
X114097981Y-44905237D01*
X114122748Y-44905923D01*
G37*
G04 #@! TD.AperFunction*
G04 #@! TA.AperFunction,NonConductor*
G36*
X141803162Y-69925185D02*
G01*
X141823804Y-69941819D01*
X142349803Y-70467819D01*
X142383288Y-70529142D01*
X142378304Y-70598834D01*
X142336432Y-70654767D01*
X142270968Y-70679184D01*
X142262122Y-70679500D01*
X142026975Y-70679500D01*
X141778198Y-70694263D01*
X141778191Y-70694264D01*
X141451043Y-70753061D01*
X141133142Y-70850139D01*
X140828960Y-70984131D01*
X140828955Y-70984134D01*
X140542765Y-71153157D01*
X140542748Y-71153169D01*
X140278553Y-71354859D01*
X140278544Y-71354867D01*
X140156329Y-71473513D01*
X140094517Y-71506086D01*
X140024907Y-71500069D01*
X139969600Y-71457373D01*
X139946155Y-71391554D01*
X139949066Y-71356949D01*
X139965319Y-71285739D01*
X139986222Y-71194157D01*
X140005268Y-70940000D01*
X140004941Y-70935642D01*
X139987627Y-70704592D01*
X139986222Y-70685843D01*
X139929508Y-70437363D01*
X139836393Y-70200112D01*
X139773685Y-70091498D01*
X139757213Y-70023600D01*
X139780066Y-69957573D01*
X139834987Y-69914382D01*
X139881073Y-69905500D01*
X141736123Y-69905500D01*
X141803162Y-69925185D01*
G37*
G04 #@! TD.AperFunction*
G04 #@! TA.AperFunction,NonConductor*
G36*
X136519962Y-70907141D02*
G01*
X136575895Y-70949013D01*
X136600281Y-71014057D01*
X136613777Y-71194154D01*
X136666198Y-71423827D01*
X136670492Y-71442637D01*
X136763607Y-71679888D01*
X136891041Y-71900612D01*
X137032653Y-72078187D01*
X137059061Y-72142874D01*
X137046306Y-72211569D01*
X136998435Y-72262463D01*
X136935706Y-72279500D01*
X136604497Y-72279500D01*
X136559601Y-72283660D01*
X136438464Y-72294884D01*
X136438462Y-72294885D01*
X136224476Y-72355769D01*
X136224461Y-72355775D01*
X136025316Y-72454938D01*
X136025308Y-72454943D01*
X135847761Y-72589020D01*
X135697876Y-72753437D01*
X135697874Y-72753439D01*
X135580754Y-72942595D01*
X135580753Y-72942599D01*
X135500382Y-73150060D01*
X135459500Y-73368757D01*
X135459500Y-73591243D01*
X135500382Y-73809940D01*
X135552184Y-73943655D01*
X135580752Y-74017398D01*
X135580754Y-74017404D01*
X135697874Y-74206560D01*
X135697876Y-74206562D01*
X135847761Y-74370979D01*
X136025308Y-74505056D01*
X136025316Y-74505061D01*
X136224461Y-74604224D01*
X136224465Y-74604225D01*
X136224472Y-74604229D01*
X136438464Y-74665115D01*
X136604497Y-74680500D01*
X136604501Y-74680500D01*
X137015499Y-74680500D01*
X137015503Y-74680500D01*
X137181536Y-74665115D01*
X137395528Y-74604229D01*
X137594689Y-74505058D01*
X137772236Y-74370981D01*
X137922124Y-74206562D01*
X138039247Y-74017401D01*
X138119618Y-73809940D01*
X138160500Y-73591243D01*
X138160500Y-73368757D01*
X138119618Y-73150060D01*
X138039247Y-72942599D01*
X138014197Y-72902142D01*
X137960286Y-72815072D01*
X137941731Y-72747712D01*
X137962539Y-72681012D01*
X138016104Y-72636151D01*
X138084194Y-72627180D01*
X138172565Y-72640500D01*
X138427435Y-72640500D01*
X138679458Y-72602513D01*
X138923004Y-72527389D01*
X139140555Y-72422622D01*
X139152626Y-72416809D01*
X139152626Y-72416808D01*
X139152634Y-72416805D01*
X139315351Y-72305866D01*
X139381828Y-72284366D01*
X139449378Y-72302220D01*
X139496553Y-72353760D01*
X139508373Y-72422622D01*
X139502669Y-72448033D01*
X139403785Y-72740521D01*
X139335319Y-73065789D01*
X139335319Y-73065794D01*
X139305805Y-73396853D01*
X139315655Y-73729112D01*
X139364731Y-74057857D01*
X139364732Y-74057862D01*
X139452345Y-74378494D01*
X139452346Y-74378498D01*
X139577264Y-74686511D01*
X139577269Y-74686522D01*
X139703500Y-74915492D01*
X139735252Y-74973087D01*
X139737740Y-74977599D01*
X139737740Y-74977600D01*
X139931520Y-75247667D01*
X139931529Y-75247677D01*
X140155877Y-75492913D01*
X140155877Y-75492914D01*
X140407666Y-75709906D01*
X140407671Y-75709909D01*
X140407677Y-75709914D01*
X140551584Y-75806842D01*
X140683353Y-75895595D01*
X140979067Y-76047374D01*
X141290656Y-76163113D01*
X141613747Y-76241187D01*
X141943805Y-76280500D01*
X141943812Y-76280500D01*
X142193025Y-76280500D01*
X142255218Y-76276809D01*
X142441807Y-76265736D01*
X142768956Y-76206939D01*
X143086854Y-76109862D01*
X143391040Y-75975868D01*
X143677243Y-75806837D01*
X143941445Y-75605142D01*
X144179937Y-75373616D01*
X144389373Y-75115506D01*
X144566810Y-74834438D01*
X144709760Y-74534357D01*
X144816215Y-74219475D01*
X144884680Y-73894212D01*
X144914195Y-73563134D01*
X144904345Y-73230890D01*
X144855269Y-72902142D01*
X144767655Y-72581506D01*
X144764129Y-72572814D01*
X144757177Y-72503292D01*
X144788914Y-72441047D01*
X144849265Y-72405841D01*
X144879040Y-72402213D01*
X146337227Y-72402213D01*
X146404266Y-72421898D01*
X146450021Y-72474702D01*
X146459965Y-72543860D01*
X146430940Y-72607416D01*
X146428864Y-72609751D01*
X146297876Y-72753437D01*
X146297874Y-72753439D01*
X146180754Y-72942595D01*
X146180753Y-72942599D01*
X146100382Y-73150060D01*
X146059500Y-73368757D01*
X146059500Y-73591243D01*
X146100382Y-73809940D01*
X146152184Y-73943655D01*
X146180752Y-74017398D01*
X146180754Y-74017404D01*
X146297874Y-74206560D01*
X146297876Y-74206562D01*
X146447761Y-74370979D01*
X146625308Y-74505056D01*
X146625316Y-74505061D01*
X146824461Y-74604224D01*
X146824465Y-74604225D01*
X146824472Y-74604229D01*
X147038464Y-74665115D01*
X147204497Y-74680500D01*
X147204501Y-74680500D01*
X147615499Y-74680500D01*
X147615503Y-74680500D01*
X147781536Y-74665115D01*
X147995528Y-74604229D01*
X148194689Y-74505058D01*
X148372236Y-74370981D01*
X148522124Y-74206562D01*
X148639247Y-74017401D01*
X148701086Y-73857774D01*
X148743658Y-73802375D01*
X148809424Y-73778784D01*
X148877505Y-73794495D01*
X148926284Y-73844518D01*
X148936487Y-73870477D01*
X148956094Y-73943655D01*
X148956096Y-73943659D01*
X148956097Y-73943663D01*
X149009347Y-74057857D01*
X149055965Y-74157830D01*
X149055967Y-74157834D01*
X149099129Y-74219475D01*
X149191505Y-74351401D01*
X149358599Y-74518495D01*
X149358601Y-74518496D01*
X149358603Y-74518498D01*
X149408808Y-74553652D01*
X149452433Y-74608229D01*
X149459627Y-74677727D01*
X149428104Y-74740082D01*
X149393980Y-74765712D01*
X149298161Y-74814534D01*
X149146968Y-74936968D01*
X149024534Y-75088161D01*
X148936212Y-75261504D01*
X148885858Y-75449425D01*
X148879500Y-75530216D01*
X148879500Y-76434547D01*
X148859815Y-76501586D01*
X148843181Y-76522228D01*
X148747228Y-76618181D01*
X148685905Y-76651666D01*
X148659547Y-76654500D01*
X140850453Y-76654500D01*
X140783414Y-76634815D01*
X140762772Y-76618181D01*
X139465803Y-75321212D01*
X139455980Y-75308950D01*
X139455759Y-75309134D01*
X139450786Y-75303122D01*
X139401066Y-75256432D01*
X139399666Y-75255075D01*
X139379476Y-75234884D01*
X139373986Y-75230625D01*
X139369561Y-75226847D01*
X139335582Y-75194938D01*
X139335580Y-75194936D01*
X139335577Y-75194935D01*
X139318029Y-75185288D01*
X139301763Y-75174604D01*
X139285933Y-75162325D01*
X139243168Y-75143818D01*
X139237922Y-75141248D01*
X139197093Y-75118803D01*
X139197092Y-75118802D01*
X139177693Y-75113822D01*
X139159281Y-75107518D01*
X139140898Y-75099562D01*
X139140892Y-75099560D01*
X139094874Y-75092272D01*
X139089152Y-75091087D01*
X139044021Y-75079500D01*
X139044019Y-75079500D01*
X139023984Y-75079500D01*
X139004586Y-75077973D01*
X138997162Y-75076797D01*
X138984805Y-75074840D01*
X138984804Y-75074840D01*
X138938416Y-75079225D01*
X138932578Y-75079500D01*
X130027737Y-75079500D01*
X130012120Y-75077776D01*
X130012093Y-75078062D01*
X130004331Y-75077327D01*
X129936171Y-75079469D01*
X129934224Y-75079500D01*
X129905650Y-75079500D01*
X129904929Y-75079590D01*
X129898757Y-75080369D01*
X129892945Y-75080826D01*
X129846372Y-75082290D01*
X129846369Y-75082291D01*
X129827126Y-75087881D01*
X129808083Y-75091825D01*
X129788204Y-75094336D01*
X129788203Y-75094337D01*
X129744878Y-75111490D01*
X129739352Y-75113382D01*
X129694608Y-75126383D01*
X129694604Y-75126385D01*
X129677365Y-75136580D01*
X129659898Y-75145137D01*
X129641269Y-75152512D01*
X129641267Y-75152513D01*
X129603564Y-75179906D01*
X129598682Y-75183112D01*
X129558580Y-75206828D01*
X129544408Y-75221000D01*
X129529623Y-75233628D01*
X129513412Y-75245407D01*
X129483709Y-75281310D01*
X129479776Y-75285631D01*
X128800224Y-75965185D01*
X128147228Y-76618181D01*
X128085905Y-76651666D01*
X128059547Y-76654500D01*
X121880452Y-76654500D01*
X121813413Y-76634815D01*
X121792771Y-76618181D01*
X120964710Y-75790120D01*
X120110803Y-74936212D01*
X120100980Y-74923950D01*
X120100759Y-74924134D01*
X120095786Y-74918122D01*
X120046066Y-74871432D01*
X120044666Y-74870075D01*
X120024476Y-74849884D01*
X120018986Y-74845625D01*
X120014561Y-74841847D01*
X119980582Y-74809938D01*
X119980580Y-74809936D01*
X119980577Y-74809935D01*
X119963029Y-74800288D01*
X119946763Y-74789604D01*
X119930933Y-74777325D01*
X119888168Y-74758818D01*
X119882922Y-74756248D01*
X119842093Y-74733803D01*
X119842092Y-74733802D01*
X119822693Y-74728822D01*
X119804281Y-74722518D01*
X119785898Y-74714562D01*
X119785892Y-74714560D01*
X119739874Y-74707272D01*
X119734152Y-74706087D01*
X119689021Y-74694500D01*
X119689019Y-74694500D01*
X119668984Y-74694500D01*
X119649586Y-74692973D01*
X119642162Y-74691797D01*
X119629805Y-74689840D01*
X119629804Y-74689840D01*
X119583416Y-74694225D01*
X119577578Y-74694500D01*
X118663793Y-74694500D01*
X118596754Y-74674815D01*
X118550999Y-74622011D01*
X118541055Y-74552853D01*
X118570080Y-74489297D01*
X118589066Y-74471546D01*
X118722236Y-74370981D01*
X118872124Y-74206562D01*
X118989247Y-74017401D01*
X119069618Y-73809940D01*
X119110500Y-73591243D01*
X119110500Y-73368757D01*
X119069618Y-73150060D01*
X118989247Y-72942599D01*
X118964197Y-72902142D01*
X118910286Y-72815072D01*
X118891731Y-72747712D01*
X118912539Y-72681012D01*
X118966104Y-72636151D01*
X119034194Y-72627180D01*
X119122565Y-72640500D01*
X119377435Y-72640500D01*
X119629458Y-72602513D01*
X119873004Y-72527389D01*
X120090555Y-72422622D01*
X120102626Y-72416809D01*
X120102626Y-72416808D01*
X120102634Y-72416805D01*
X120265351Y-72305866D01*
X120331828Y-72284366D01*
X120399378Y-72302220D01*
X120446553Y-72353760D01*
X120458373Y-72422622D01*
X120452669Y-72448033D01*
X120353785Y-72740521D01*
X120285319Y-73065789D01*
X120285319Y-73065794D01*
X120255805Y-73396853D01*
X120265655Y-73729112D01*
X120314731Y-74057857D01*
X120314732Y-74057862D01*
X120402345Y-74378494D01*
X120402346Y-74378498D01*
X120527264Y-74686511D01*
X120527269Y-74686522D01*
X120653500Y-74915492D01*
X120685252Y-74973087D01*
X120687740Y-74977599D01*
X120687740Y-74977600D01*
X120881520Y-75247667D01*
X120881529Y-75247677D01*
X121105876Y-75492913D01*
X121105877Y-75492914D01*
X121357666Y-75709906D01*
X121357671Y-75709909D01*
X121357677Y-75709914D01*
X121501584Y-75806842D01*
X121633353Y-75895595D01*
X121929067Y-76047374D01*
X122240656Y-76163113D01*
X122563747Y-76241187D01*
X122893805Y-76280500D01*
X122893812Y-76280500D01*
X123143025Y-76280500D01*
X123205218Y-76276809D01*
X123391807Y-76265736D01*
X123718956Y-76206939D01*
X124036854Y-76109862D01*
X124341040Y-75975868D01*
X124627243Y-75806837D01*
X124891445Y-75605142D01*
X125129937Y-75373616D01*
X125339373Y-75115506D01*
X125516810Y-74834438D01*
X125659760Y-74534357D01*
X125766215Y-74219475D01*
X125834680Y-73894212D01*
X125864195Y-73563134D01*
X125854345Y-73230890D01*
X125805269Y-72902142D01*
X125754017Y-72714577D01*
X125755335Y-72644721D01*
X125794211Y-72586665D01*
X125858303Y-72558844D01*
X125861958Y-72558443D01*
X125890187Y-72555775D01*
X125896026Y-72555500D01*
X127148326Y-72555500D01*
X127215365Y-72575185D01*
X127261120Y-72627989D01*
X127271064Y-72697147D01*
X127249897Y-72747946D01*
X127250894Y-72748563D01*
X127130754Y-72942595D01*
X127130753Y-72942599D01*
X127068665Y-73102868D01*
X127050382Y-73150061D01*
X127050382Y-73150062D01*
X127009499Y-73368759D01*
X127009499Y-73591240D01*
X127009500Y-73591243D01*
X127050382Y-73809940D01*
X127102184Y-73943655D01*
X127130752Y-74017398D01*
X127130754Y-74017404D01*
X127247874Y-74206560D01*
X127247876Y-74206562D01*
X127397761Y-74370979D01*
X127575308Y-74505056D01*
X127575316Y-74505061D01*
X127774461Y-74604224D01*
X127774465Y-74604225D01*
X127774472Y-74604229D01*
X127988464Y-74665115D01*
X128154497Y-74680500D01*
X128154501Y-74680500D01*
X128565499Y-74680500D01*
X128565503Y-74680500D01*
X128731536Y-74665115D01*
X128945528Y-74604229D01*
X129144689Y-74505058D01*
X129322236Y-74370981D01*
X129472124Y-74206562D01*
X129589247Y-74017401D01*
X129669618Y-73809940D01*
X129710500Y-73591243D01*
X129710500Y-73368757D01*
X129669618Y-73150060D01*
X129589247Y-72942599D01*
X129564197Y-72902142D01*
X129469106Y-72748563D01*
X129470300Y-72747823D01*
X129448028Y-72688864D01*
X129462594Y-72620530D01*
X129511792Y-72570918D01*
X129571674Y-72555500D01*
X134427257Y-72555500D01*
X134442877Y-72557224D01*
X134442904Y-72556939D01*
X134450666Y-72557673D01*
X134450666Y-72557672D01*
X134450667Y-72557673D01*
X134453999Y-72557568D01*
X134518847Y-72555531D01*
X134520794Y-72555500D01*
X134549347Y-72555500D01*
X134549350Y-72555500D01*
X134556228Y-72554630D01*
X134562041Y-72554172D01*
X134608627Y-72552709D01*
X134627869Y-72547117D01*
X134646912Y-72543174D01*
X134666792Y-72540664D01*
X134710122Y-72523507D01*
X134715646Y-72521617D01*
X134719396Y-72520527D01*
X134760390Y-72508618D01*
X134777629Y-72498422D01*
X134795103Y-72489862D01*
X134813727Y-72482488D01*
X134813727Y-72482487D01*
X134813732Y-72482486D01*
X134851449Y-72455082D01*
X134856305Y-72451892D01*
X134896420Y-72428170D01*
X134910589Y-72413999D01*
X134925379Y-72401368D01*
X134941587Y-72389594D01*
X134971299Y-72353676D01*
X134975212Y-72349376D01*
X136388948Y-70935640D01*
X136450270Y-70902157D01*
X136519962Y-70907141D01*
G37*
G04 #@! TD.AperFunction*
G04 #@! TA.AperFunction,NonConductor*
G36*
X135384279Y-76800185D02*
G01*
X135430034Y-76852989D01*
X135439978Y-76922147D01*
X135439279Y-76926463D01*
X135408100Y-77099708D01*
X135403461Y-77286592D01*
X135388591Y-77332946D01*
X135398476Y-77348327D01*
X135402478Y-77367381D01*
X135422579Y-77523031D01*
X135435062Y-77619699D01*
X135451680Y-77677129D01*
X135507640Y-77870512D01*
X135507642Y-77870517D01*
X135507643Y-77870519D01*
X135617660Y-78107321D01*
X135617663Y-78107326D01*
X135617665Y-78107329D01*
X136336590Y-79185314D01*
X136457338Y-79339364D01*
X136457340Y-79339366D01*
X136457341Y-79339367D01*
X136647903Y-79517875D01*
X136863480Y-79665201D01*
X137099019Y-79777893D01*
X137349002Y-79853309D01*
X137607566Y-79889682D01*
X137868652Y-79886158D01*
X138126141Y-79842822D01*
X138126147Y-79842819D01*
X138126152Y-79842819D01*
X138224044Y-79810378D01*
X138373996Y-79760687D01*
X138606410Y-79641681D01*
X138817933Y-79488591D01*
X139003608Y-79305007D01*
X139159084Y-79095232D01*
X139280715Y-78864181D01*
X139365651Y-78617271D01*
X139394399Y-78457536D01*
X139425647Y-78395043D01*
X139485720Y-78359365D01*
X139516438Y-78355500D01*
X140523153Y-78355500D01*
X140590192Y-78375185D01*
X140635947Y-78427989D01*
X140645891Y-78497147D01*
X140630540Y-78541500D01*
X140573608Y-78640109D01*
X140480492Y-78877362D01*
X140480490Y-78877369D01*
X140423777Y-79125845D01*
X140404732Y-79379995D01*
X140404732Y-79380004D01*
X140423777Y-79634154D01*
X140478013Y-79871778D01*
X140480492Y-79882637D01*
X140573607Y-80119888D01*
X140701041Y-80340612D01*
X140859950Y-80539877D01*
X141046783Y-80713232D01*
X141257366Y-80856805D01*
X141257371Y-80856807D01*
X141257372Y-80856808D01*
X141257373Y-80856809D01*
X141379328Y-80915538D01*
X141486992Y-80967387D01*
X141486993Y-80967387D01*
X141486996Y-80967389D01*
X141730542Y-81042513D01*
X141982565Y-81080500D01*
X142288789Y-81080500D01*
X142288798Y-81080499D01*
X144580361Y-81080499D01*
X144580389Y-81080500D01*
X144582565Y-81080500D01*
X144837435Y-81080500D01*
X145089458Y-81042513D01*
X145333004Y-80967389D01*
X145562634Y-80856805D01*
X145773217Y-80713232D01*
X145960050Y-80539877D01*
X146118959Y-80340612D01*
X146246393Y-80119888D01*
X146339508Y-79882637D01*
X146396222Y-79634157D01*
X146407130Y-79488591D01*
X146415268Y-79380004D01*
X146415268Y-79379995D01*
X146396577Y-79130578D01*
X146396222Y-79125843D01*
X146339508Y-78877363D01*
X146246393Y-78640112D01*
X146189460Y-78541500D01*
X146172987Y-78473599D01*
X146195840Y-78407573D01*
X146250761Y-78364382D01*
X146296847Y-78355500D01*
X148755500Y-78355500D01*
X148822539Y-78375185D01*
X148868294Y-78427989D01*
X148879500Y-78479500D01*
X148879500Y-79049783D01*
X148885858Y-79130574D01*
X148885858Y-79130577D01*
X148885859Y-79130578D01*
X148936212Y-79318496D01*
X149024535Y-79491840D01*
X149146968Y-79643032D01*
X149256100Y-79731405D01*
X149258852Y-79733634D01*
X149298563Y-79791121D01*
X149300891Y-79860952D01*
X149265095Y-79920956D01*
X149258852Y-79926366D01*
X149146968Y-80016968D01*
X149024534Y-80168161D01*
X148936212Y-80341504D01*
X148885858Y-80529425D01*
X148879500Y-80610216D01*
X148879500Y-81589783D01*
X148885858Y-81670574D01*
X148885858Y-81670577D01*
X148885859Y-81670578D01*
X148936212Y-81858496D01*
X149024535Y-82031840D01*
X149146968Y-82183032D01*
X149256494Y-82271725D01*
X149298162Y-82305467D01*
X149410808Y-82362862D01*
X149471504Y-82393788D01*
X149471506Y-82393788D01*
X149471507Y-82393789D01*
X149471506Y-82393789D01*
X149501308Y-82401773D01*
X149512591Y-82404797D01*
X149572252Y-82441160D01*
X149602783Y-82504007D01*
X149604500Y-82524572D01*
X149604500Y-94339547D01*
X149584815Y-94406586D01*
X149568181Y-94427228D01*
X147877228Y-96118181D01*
X147815905Y-96151666D01*
X147789547Y-96154500D01*
X139103175Y-96154500D01*
X139036136Y-96134815D01*
X139000013Y-96099301D01*
X138858733Y-95887461D01*
X138483412Y-95324689D01*
X138483409Y-95324685D01*
X138362661Y-95170635D01*
X138362659Y-95170633D01*
X138172097Y-94992125D01*
X138164239Y-94986755D01*
X138011091Y-94882093D01*
X137956520Y-94844799D01*
X137956517Y-94844798D01*
X137956515Y-94844796D01*
X137956512Y-94844794D01*
X137720982Y-94732108D01*
X137470997Y-94656690D01*
X137248805Y-94625435D01*
X137212434Y-94620319D01*
X137212433Y-94620319D01*
X136951347Y-94623841D01*
X136693858Y-94667178D01*
X136693847Y-94667180D01*
X136446009Y-94749311D01*
X136445995Y-94749317D01*
X136405927Y-94769833D01*
X136337284Y-94782865D01*
X136272491Y-94756717D01*
X136261733Y-94747141D01*
X136249476Y-94734884D01*
X136243986Y-94730625D01*
X136239561Y-94726847D01*
X136205582Y-94694938D01*
X136205580Y-94694936D01*
X136205577Y-94694935D01*
X136188029Y-94685288D01*
X136171763Y-94674604D01*
X136162192Y-94667180D01*
X136155936Y-94662327D01*
X136155935Y-94662326D01*
X136155933Y-94662325D01*
X136113168Y-94643818D01*
X136107922Y-94641248D01*
X136067093Y-94618803D01*
X136067092Y-94618802D01*
X136047693Y-94613822D01*
X136029281Y-94607518D01*
X136010898Y-94599562D01*
X136010892Y-94599560D01*
X135964874Y-94592272D01*
X135959152Y-94591087D01*
X135914021Y-94579500D01*
X135914019Y-94579500D01*
X135893984Y-94579500D01*
X135874586Y-94577973D01*
X135867162Y-94576797D01*
X135854805Y-94574840D01*
X135854804Y-94574840D01*
X135808416Y-94579225D01*
X135802578Y-94579500D01*
X130272737Y-94579500D01*
X130257120Y-94577776D01*
X130257093Y-94578062D01*
X130249331Y-94577327D01*
X130181171Y-94579469D01*
X130179224Y-94579500D01*
X130150650Y-94579500D01*
X130149929Y-94579590D01*
X130143757Y-94580369D01*
X130137945Y-94580826D01*
X130091372Y-94582290D01*
X130091369Y-94582291D01*
X130072126Y-94587881D01*
X130053083Y-94591825D01*
X130033204Y-94594336D01*
X130033203Y-94594337D01*
X129989878Y-94611490D01*
X129984352Y-94613382D01*
X129939608Y-94626383D01*
X129939604Y-94626385D01*
X129922365Y-94636580D01*
X129904898Y-94645137D01*
X129886269Y-94652512D01*
X129886267Y-94652513D01*
X129848564Y-94679906D01*
X129843682Y-94683112D01*
X129803580Y-94706828D01*
X129789408Y-94721000D01*
X129774623Y-94733628D01*
X129758412Y-94745407D01*
X129728709Y-94781310D01*
X129724777Y-94785631D01*
X128392228Y-96118181D01*
X128330905Y-96151666D01*
X128304547Y-96154500D01*
X120053175Y-96154500D01*
X119986136Y-96134815D01*
X119950013Y-96099301D01*
X119808733Y-95887461D01*
X119433412Y-95324689D01*
X119433409Y-95324685D01*
X119312661Y-95170635D01*
X119312659Y-95170633D01*
X119122097Y-94992125D01*
X119114239Y-94986755D01*
X118961091Y-94882093D01*
X118906520Y-94844799D01*
X118906517Y-94844798D01*
X118906515Y-94844796D01*
X118906512Y-94844794D01*
X118670982Y-94732108D01*
X118420997Y-94656690D01*
X118198805Y-94625435D01*
X118162434Y-94620319D01*
X118162433Y-94620319D01*
X117901347Y-94623841D01*
X117643858Y-94667178D01*
X117643847Y-94667180D01*
X117396009Y-94749311D01*
X117396001Y-94749314D01*
X117355927Y-94769834D01*
X117287284Y-94782866D01*
X117222491Y-94756719D01*
X117211732Y-94747142D01*
X115561818Y-93097228D01*
X115528333Y-93035905D01*
X115525499Y-93009547D01*
X115525499Y-92641240D01*
X116409499Y-92641240D01*
X116409500Y-92641243D01*
X116450382Y-92859940D01*
X116528238Y-93060909D01*
X116530752Y-93067398D01*
X116530754Y-93067404D01*
X116647874Y-93256560D01*
X116647876Y-93256562D01*
X116797761Y-93420979D01*
X116975308Y-93555056D01*
X116975316Y-93555061D01*
X117174461Y-93654224D01*
X117174465Y-93654225D01*
X117174472Y-93654229D01*
X117388464Y-93715115D01*
X117554497Y-93730500D01*
X117554501Y-93730500D01*
X117965499Y-93730500D01*
X117965503Y-93730500D01*
X118131536Y-93715115D01*
X118345528Y-93654229D01*
X118544689Y-93555058D01*
X118722236Y-93420981D01*
X118872124Y-93256562D01*
X118989247Y-93067401D01*
X119069618Y-92859940D01*
X119110500Y-92641243D01*
X119110500Y-92418757D01*
X119069618Y-92200060D01*
X118989247Y-91992599D01*
X118964197Y-91952142D01*
X118910286Y-91865072D01*
X118891731Y-91797712D01*
X118912539Y-91731012D01*
X118966104Y-91686151D01*
X119034194Y-91677180D01*
X119122565Y-91690500D01*
X119377435Y-91690500D01*
X119629458Y-91652513D01*
X119873004Y-91577389D01*
X120102634Y-91466805D01*
X120265351Y-91355866D01*
X120331828Y-91334366D01*
X120399378Y-91352220D01*
X120446553Y-91403760D01*
X120458373Y-91472622D01*
X120452669Y-91498033D01*
X120353785Y-91790521D01*
X120285319Y-92115789D01*
X120285319Y-92115794D01*
X120255805Y-92446853D01*
X120265655Y-92779112D01*
X120314731Y-93107857D01*
X120314732Y-93107862D01*
X120402345Y-93428494D01*
X120402346Y-93428498D01*
X120527264Y-93736511D01*
X120527269Y-93736522D01*
X120687740Y-94027599D01*
X120687740Y-94027600D01*
X120881520Y-94297667D01*
X120881529Y-94297677D01*
X120996737Y-94423612D01*
X121105877Y-94542914D01*
X121357666Y-94759906D01*
X121357671Y-94759909D01*
X121357677Y-94759914D01*
X121501584Y-94856842D01*
X121633353Y-94945595D01*
X121929067Y-95097374D01*
X122240656Y-95213113D01*
X122563747Y-95291187D01*
X122893805Y-95330500D01*
X122893812Y-95330500D01*
X123143025Y-95330500D01*
X123205218Y-95326809D01*
X123391807Y-95315736D01*
X123718956Y-95256939D01*
X124036854Y-95159862D01*
X124341040Y-95025868D01*
X124627243Y-94856837D01*
X124891445Y-94655142D01*
X125129937Y-94423616D01*
X125339373Y-94165506D01*
X125516810Y-93884438D01*
X125659760Y-93584357D01*
X125766215Y-93269475D01*
X125834680Y-92944212D01*
X125861689Y-92641240D01*
X127009499Y-92641240D01*
X127009500Y-92641243D01*
X127050382Y-92859940D01*
X127128238Y-93060909D01*
X127130752Y-93067398D01*
X127130754Y-93067404D01*
X127247874Y-93256560D01*
X127247876Y-93256562D01*
X127397761Y-93420979D01*
X127575308Y-93555056D01*
X127575316Y-93555061D01*
X127774461Y-93654224D01*
X127774465Y-93654225D01*
X127774472Y-93654229D01*
X127988464Y-93715115D01*
X128154497Y-93730500D01*
X128154501Y-93730500D01*
X128565499Y-93730500D01*
X128565503Y-93730500D01*
X128731536Y-93715115D01*
X128945528Y-93654229D01*
X129144689Y-93555058D01*
X129322236Y-93420981D01*
X129472124Y-93256562D01*
X129589247Y-93067401D01*
X129669618Y-92859940D01*
X129710500Y-92641243D01*
X129710500Y-92418757D01*
X129669618Y-92200060D01*
X129589247Y-91992599D01*
X129564197Y-91952142D01*
X129472125Y-91803439D01*
X129472123Y-91803437D01*
X129322238Y-91639020D01*
X129144691Y-91504943D01*
X129144683Y-91504938D01*
X128945538Y-91405775D01*
X128945523Y-91405769D01*
X128731537Y-91344885D01*
X128731535Y-91344884D01*
X128613653Y-91333961D01*
X128565503Y-91329500D01*
X128154497Y-91329500D01*
X128109601Y-91333660D01*
X127988464Y-91344884D01*
X127988462Y-91344885D01*
X127774476Y-91405769D01*
X127774461Y-91405775D01*
X127575316Y-91504938D01*
X127575308Y-91504943D01*
X127397761Y-91639020D01*
X127247876Y-91803437D01*
X127247874Y-91803439D01*
X127130754Y-91992595D01*
X127130752Y-91992601D01*
X127050382Y-92200061D01*
X127050382Y-92200062D01*
X127009499Y-92418759D01*
X127009499Y-92641240D01*
X125861689Y-92641240D01*
X125864195Y-92613134D01*
X125854345Y-92280890D01*
X125805269Y-91952142D01*
X125717655Y-91631506D01*
X125592733Y-91323483D01*
X125432258Y-91032397D01*
X125238481Y-90762335D01*
X125238479Y-90762332D01*
X125238470Y-90762322D01*
X125033666Y-90538449D01*
X125014123Y-90517086D01*
X125002852Y-90507373D01*
X124762336Y-90300096D01*
X124762334Y-90300094D01*
X124762330Y-90300091D01*
X124762322Y-90300085D01*
X124486653Y-90114409D01*
X124486652Y-90114408D01*
X124486649Y-90114406D01*
X124486647Y-90114405D01*
X124190933Y-89962626D01*
X124190928Y-89962624D01*
X124190926Y-89962623D01*
X123879348Y-89846888D01*
X123556254Y-89768813D01*
X123556249Y-89768812D01*
X123416687Y-89752189D01*
X123226195Y-89729500D01*
X122976977Y-89729500D01*
X122976975Y-89729500D01*
X122728198Y-89744263D01*
X122728191Y-89744264D01*
X122401043Y-89803061D01*
X122083142Y-89900139D01*
X121778960Y-90034131D01*
X121778955Y-90034134D01*
X121492765Y-90203157D01*
X121492748Y-90203169D01*
X121228553Y-90404859D01*
X121228544Y-90404867D01*
X121106329Y-90523513D01*
X121044517Y-90556086D01*
X120974907Y-90550069D01*
X120919600Y-90507373D01*
X120896155Y-90441554D01*
X120899066Y-90406949D01*
X120923454Y-90300096D01*
X120936222Y-90244157D01*
X120955268Y-89990000D01*
X120953216Y-89962623D01*
X120936222Y-89735845D01*
X120934898Y-89730045D01*
X120879508Y-89487363D01*
X120786393Y-89250112D01*
X120658959Y-89029388D01*
X120500050Y-88830123D01*
X120313217Y-88656768D01*
X120102634Y-88513195D01*
X120102630Y-88513193D01*
X120102627Y-88513191D01*
X120102626Y-88513190D01*
X119873006Y-88402612D01*
X119873008Y-88402612D01*
X119629466Y-88327489D01*
X119629462Y-88327488D01*
X119629458Y-88327487D01*
X119508231Y-88309214D01*
X119377440Y-88289500D01*
X119377435Y-88289500D01*
X119122565Y-88289500D01*
X119122559Y-88289500D01*
X118965609Y-88313157D01*
X118870542Y-88327487D01*
X118870538Y-88327488D01*
X118870539Y-88327488D01*
X118870533Y-88327489D01*
X118626992Y-88402612D01*
X118397373Y-88513190D01*
X118397372Y-88513191D01*
X118186782Y-88656768D01*
X117999952Y-88830121D01*
X117999950Y-88830123D01*
X117841041Y-89029388D01*
X117713608Y-89250109D01*
X117620492Y-89487362D01*
X117620490Y-89487369D01*
X117563777Y-89735845D01*
X117544732Y-89989995D01*
X117544732Y-89990004D01*
X117563777Y-90244154D01*
X117608832Y-90441554D01*
X117620492Y-90492637D01*
X117713607Y-90729888D01*
X117841041Y-90950612D01*
X117906265Y-91032400D01*
X117982653Y-91128187D01*
X118009061Y-91192874D01*
X117996306Y-91261569D01*
X117948435Y-91312463D01*
X117885706Y-91329500D01*
X117554497Y-91329500D01*
X117509601Y-91333660D01*
X117388464Y-91344884D01*
X117388462Y-91344885D01*
X117174476Y-91405769D01*
X117174461Y-91405775D01*
X116975316Y-91504938D01*
X116975308Y-91504943D01*
X116797761Y-91639020D01*
X116647876Y-91803437D01*
X116647874Y-91803439D01*
X116530754Y-91992595D01*
X116530752Y-91992601D01*
X116450382Y-92200061D01*
X116450382Y-92200062D01*
X116409499Y-92418759D01*
X116409499Y-92641240D01*
X115525499Y-92641240D01*
X115525499Y-87430004D01*
X123894732Y-87430004D01*
X123913777Y-87684154D01*
X123924230Y-87729953D01*
X123970492Y-87932637D01*
X124063607Y-88169888D01*
X124191041Y-88390612D01*
X124349950Y-88589877D01*
X124536783Y-88763232D01*
X124747366Y-88906805D01*
X124747371Y-88906807D01*
X124747372Y-88906808D01*
X124747373Y-88906809D01*
X124850945Y-88956686D01*
X124976992Y-89017387D01*
X124976993Y-89017387D01*
X124976996Y-89017389D01*
X125220542Y-89092513D01*
X125472565Y-89130500D01*
X125778789Y-89130500D01*
X125778798Y-89130499D01*
X127930361Y-89130499D01*
X127930389Y-89130500D01*
X127932565Y-89130500D01*
X128187435Y-89130500D01*
X128439458Y-89092513D01*
X128683004Y-89017389D01*
X128912634Y-88906805D01*
X129123217Y-88763232D01*
X129310050Y-88589877D01*
X129468959Y-88390612D01*
X129596393Y-88169888D01*
X129604402Y-88149479D01*
X129647216Y-88094268D01*
X129713085Y-88070966D01*
X129781096Y-88086974D01*
X129807511Y-88107101D01*
X130015586Y-88315176D01*
X130049071Y-88376499D01*
X130047681Y-88434948D01*
X130029365Y-88503307D01*
X130029364Y-88503313D01*
X130009532Y-88729999D01*
X130009532Y-88730001D01*
X130029364Y-88956686D01*
X130029366Y-88956697D01*
X130088258Y-89176488D01*
X130088261Y-89176497D01*
X130184431Y-89382732D01*
X130184432Y-89382734D01*
X130314954Y-89569141D01*
X130475858Y-89730045D01*
X130475861Y-89730047D01*
X130662266Y-89860568D01*
X130868504Y-89956739D01*
X130868509Y-89956740D01*
X130868511Y-89956741D01*
X130921415Y-89970916D01*
X131088308Y-90015635D01*
X131250230Y-90029801D01*
X131314998Y-90035468D01*
X131315000Y-90035468D01*
X131315002Y-90035468D01*
X131371673Y-90030509D01*
X131541692Y-90015635D01*
X131761496Y-89956739D01*
X131967734Y-89860568D01*
X132154139Y-89730047D01*
X132315047Y-89569139D01*
X132445568Y-89382734D01*
X132472618Y-89324724D01*
X132518790Y-89272285D01*
X132585983Y-89253133D01*
X132652865Y-89273348D01*
X132697382Y-89324725D01*
X132724429Y-89382728D01*
X132724432Y-89382734D01*
X132854954Y-89569141D01*
X133015858Y-89730045D01*
X133015861Y-89730047D01*
X133202266Y-89860568D01*
X133408504Y-89956739D01*
X133408509Y-89956740D01*
X133408511Y-89956741D01*
X133461415Y-89970916D01*
X133628308Y-90015635D01*
X133790230Y-90029801D01*
X133854998Y-90035468D01*
X133855000Y-90035468D01*
X133855002Y-90035468D01*
X133911673Y-90030509D01*
X134081692Y-90015635D01*
X134301496Y-89956739D01*
X134507734Y-89860568D01*
X134694139Y-89730047D01*
X134855047Y-89569139D01*
X134985568Y-89382734D01*
X135081739Y-89176496D01*
X135140635Y-88956692D01*
X135160468Y-88730000D01*
X135140635Y-88503308D01*
X135122318Y-88434947D01*
X135123981Y-88365101D01*
X135154408Y-88315180D01*
X135377772Y-88091816D01*
X135439094Y-88058334D01*
X135465452Y-88055500D01*
X138070389Y-88055500D01*
X138137428Y-88075185D01*
X138183183Y-88127989D01*
X138193127Y-88197147D01*
X138164102Y-88260703D01*
X138105324Y-88298477D01*
X138088870Y-88302115D01*
X137920542Y-88327487D01*
X137920538Y-88327488D01*
X137920539Y-88327488D01*
X137920533Y-88327489D01*
X137676992Y-88402612D01*
X137447373Y-88513190D01*
X137447372Y-88513191D01*
X137236782Y-88656768D01*
X137049952Y-88830121D01*
X137049950Y-88830123D01*
X136891041Y-89029388D01*
X136763608Y-89250109D01*
X136670492Y-89487362D01*
X136670490Y-89487369D01*
X136613777Y-89735845D01*
X136594732Y-89989995D01*
X136594732Y-89990004D01*
X136613777Y-90244154D01*
X136658832Y-90441554D01*
X136670492Y-90492637D01*
X136763607Y-90729888D01*
X136891041Y-90950612D01*
X136956265Y-91032400D01*
X137032653Y-91128187D01*
X137059061Y-91192874D01*
X137046306Y-91261569D01*
X136998435Y-91312463D01*
X136935706Y-91329500D01*
X136604497Y-91329500D01*
X136559601Y-91333660D01*
X136438464Y-91344884D01*
X136438462Y-91344885D01*
X136224476Y-91405769D01*
X136224461Y-91405775D01*
X136025316Y-91504938D01*
X136025308Y-91504943D01*
X135847761Y-91639020D01*
X135697876Y-91803437D01*
X135697874Y-91803439D01*
X135580754Y-91992595D01*
X135580753Y-91992599D01*
X135500382Y-92200060D01*
X135459500Y-92418757D01*
X135459500Y-92641243D01*
X135500382Y-92859940D01*
X135578238Y-93060909D01*
X135580752Y-93067398D01*
X135580754Y-93067404D01*
X135697874Y-93256560D01*
X135697876Y-93256562D01*
X135847761Y-93420979D01*
X136025308Y-93555056D01*
X136025316Y-93555061D01*
X136224461Y-93654224D01*
X136224465Y-93654225D01*
X136224472Y-93654229D01*
X136438464Y-93715115D01*
X136604497Y-93730500D01*
X136604501Y-93730500D01*
X137015499Y-93730500D01*
X137015503Y-93730500D01*
X137181536Y-93715115D01*
X137395528Y-93654229D01*
X137594689Y-93555058D01*
X137772236Y-93420981D01*
X137922124Y-93256562D01*
X138039247Y-93067401D01*
X138119618Y-92859940D01*
X138160500Y-92641243D01*
X138160500Y-92418757D01*
X138119618Y-92200060D01*
X138039247Y-91992599D01*
X138014197Y-91952142D01*
X137960286Y-91865072D01*
X137941731Y-91797712D01*
X137962539Y-91731012D01*
X138016104Y-91686151D01*
X138084194Y-91677180D01*
X138172565Y-91690500D01*
X138427435Y-91690500D01*
X138679458Y-91652513D01*
X138923004Y-91577389D01*
X139152634Y-91466805D01*
X139315351Y-91355866D01*
X139381828Y-91334366D01*
X139449378Y-91352220D01*
X139496553Y-91403760D01*
X139508373Y-91472622D01*
X139502669Y-91498033D01*
X139403785Y-91790521D01*
X139335319Y-92115789D01*
X139335319Y-92115794D01*
X139305805Y-92446853D01*
X139315655Y-92779112D01*
X139364731Y-93107857D01*
X139364732Y-93107862D01*
X139452345Y-93428494D01*
X139452346Y-93428498D01*
X139577264Y-93736511D01*
X139577269Y-93736522D01*
X139737740Y-94027599D01*
X139737740Y-94027600D01*
X139931520Y-94297667D01*
X139931529Y-94297677D01*
X140046737Y-94423612D01*
X140155877Y-94542914D01*
X140407666Y-94759906D01*
X140407671Y-94759909D01*
X140407677Y-94759914D01*
X140551584Y-94856842D01*
X140683353Y-94945595D01*
X140979067Y-95097374D01*
X141290656Y-95213113D01*
X141613747Y-95291187D01*
X141943805Y-95330500D01*
X141943812Y-95330500D01*
X142193025Y-95330500D01*
X142255218Y-95326809D01*
X142441807Y-95315736D01*
X142768956Y-95256939D01*
X143086854Y-95159862D01*
X143391040Y-95025868D01*
X143677243Y-94856837D01*
X143941445Y-94655142D01*
X144179937Y-94423616D01*
X144389373Y-94165506D01*
X144566810Y-93884438D01*
X144709760Y-93584357D01*
X144816215Y-93269475D01*
X144884680Y-92944212D01*
X144911689Y-92641243D01*
X146059500Y-92641243D01*
X146100382Y-92859940D01*
X146178238Y-93060909D01*
X146180752Y-93067398D01*
X146180754Y-93067404D01*
X146297874Y-93256560D01*
X146297876Y-93256562D01*
X146447761Y-93420979D01*
X146625308Y-93555056D01*
X146625316Y-93555061D01*
X146824461Y-93654224D01*
X146824465Y-93654225D01*
X146824472Y-93654229D01*
X147038464Y-93715115D01*
X147204497Y-93730500D01*
X147204501Y-93730500D01*
X147615499Y-93730500D01*
X147615503Y-93730500D01*
X147781536Y-93715115D01*
X147995528Y-93654229D01*
X148194689Y-93555058D01*
X148372236Y-93420981D01*
X148522124Y-93256562D01*
X148639247Y-93067401D01*
X148719618Y-92859940D01*
X148760500Y-92641243D01*
X148760500Y-92418757D01*
X148719618Y-92200060D01*
X148639247Y-91992599D01*
X148614197Y-91952142D01*
X148522125Y-91803439D01*
X148522123Y-91803437D01*
X148372238Y-91639020D01*
X148194691Y-91504943D01*
X148194683Y-91504938D01*
X147995538Y-91405775D01*
X147995523Y-91405769D01*
X147781537Y-91344885D01*
X147781535Y-91344884D01*
X147663653Y-91333961D01*
X147615503Y-91329500D01*
X147204497Y-91329500D01*
X147159601Y-91333660D01*
X147038464Y-91344884D01*
X147038462Y-91344885D01*
X146824476Y-91405769D01*
X146824461Y-91405775D01*
X146625316Y-91504938D01*
X146625308Y-91504943D01*
X146447761Y-91639020D01*
X146297876Y-91803437D01*
X146297874Y-91803439D01*
X146180754Y-91992595D01*
X146180753Y-91992599D01*
X146100382Y-92200060D01*
X146059500Y-92418757D01*
X146059500Y-92641243D01*
X144911689Y-92641243D01*
X144914195Y-92613134D01*
X144904345Y-92280890D01*
X144855269Y-91952142D01*
X144767655Y-91631506D01*
X144642733Y-91323483D01*
X144482258Y-91032397D01*
X144288481Y-90762335D01*
X144288479Y-90762332D01*
X144288470Y-90762322D01*
X144083666Y-90538449D01*
X144064123Y-90517086D01*
X144052852Y-90507373D01*
X143812336Y-90300096D01*
X143812334Y-90300094D01*
X143812330Y-90300091D01*
X143812322Y-90300085D01*
X143536653Y-90114409D01*
X143536652Y-90114408D01*
X143536649Y-90114406D01*
X143536647Y-90114405D01*
X143240933Y-89962626D01*
X143240928Y-89962624D01*
X143240926Y-89962623D01*
X142929348Y-89846888D01*
X142606254Y-89768813D01*
X142606249Y-89768812D01*
X142466687Y-89752189D01*
X142276195Y-89729500D01*
X142026977Y-89729500D01*
X142026975Y-89729500D01*
X141778198Y-89744263D01*
X141778191Y-89744264D01*
X141451043Y-89803061D01*
X141133142Y-89900139D01*
X140828960Y-90034131D01*
X140828955Y-90034134D01*
X140542765Y-90203157D01*
X140542748Y-90203169D01*
X140278553Y-90404859D01*
X140278544Y-90404867D01*
X140156329Y-90523513D01*
X140094517Y-90556086D01*
X140024907Y-90550069D01*
X139969600Y-90507373D01*
X139946155Y-90441554D01*
X139949066Y-90406949D01*
X139973454Y-90300096D01*
X139986222Y-90244157D01*
X140005268Y-89990000D01*
X140003216Y-89962623D01*
X139986222Y-89735845D01*
X139984898Y-89730045D01*
X139929508Y-89487363D01*
X139836393Y-89250112D01*
X139708959Y-89029388D01*
X139550050Y-88830123D01*
X139363217Y-88656768D01*
X139152634Y-88513195D01*
X139152630Y-88513193D01*
X139152627Y-88513191D01*
X139152626Y-88513190D01*
X138923006Y-88402612D01*
X138923008Y-88402612D01*
X138679466Y-88327489D01*
X138679462Y-88327488D01*
X138679458Y-88327487D01*
X138511129Y-88302115D01*
X138447772Y-88272658D01*
X138410399Y-88213624D01*
X138410874Y-88143756D01*
X138449048Y-88085237D01*
X138512800Y-88056645D01*
X138529611Y-88055500D01*
X142984172Y-88055500D01*
X143051211Y-88075185D01*
X143096966Y-88127989D01*
X143099588Y-88134170D01*
X143113607Y-88169888D01*
X143241041Y-88390612D01*
X143399950Y-88589877D01*
X143586783Y-88763232D01*
X143797366Y-88906805D01*
X143797371Y-88906807D01*
X143797372Y-88906808D01*
X143797373Y-88906809D01*
X143900945Y-88956686D01*
X144026992Y-89017387D01*
X144026993Y-89017387D01*
X144026996Y-89017389D01*
X144270542Y-89092513D01*
X144522565Y-89130500D01*
X144828789Y-89130500D01*
X144828798Y-89130499D01*
X146980361Y-89130499D01*
X146980389Y-89130500D01*
X146982565Y-89130500D01*
X147237435Y-89130500D01*
X147489458Y-89092513D01*
X147733004Y-89017389D01*
X147962634Y-88906805D01*
X148173217Y-88763232D01*
X148360050Y-88589877D01*
X148518959Y-88390612D01*
X148646393Y-88169888D01*
X148739508Y-87932637D01*
X148796222Y-87684157D01*
X148812944Y-87461016D01*
X148815268Y-87430004D01*
X148815268Y-87429995D01*
X148796222Y-87175845D01*
X148766634Y-87046212D01*
X148739508Y-86927363D01*
X148646393Y-86690112D01*
X148518959Y-86469388D01*
X148360050Y-86270123D01*
X148173217Y-86096768D01*
X147962634Y-85953195D01*
X147962630Y-85953193D01*
X147962627Y-85953191D01*
X147962626Y-85953190D01*
X147733006Y-85842612D01*
X147733008Y-85842612D01*
X147489466Y-85767489D01*
X147489462Y-85767488D01*
X147489458Y-85767487D01*
X147368231Y-85749214D01*
X147237440Y-85729500D01*
X147237435Y-85729500D01*
X146982565Y-85729500D01*
X146982564Y-85729500D01*
X144777441Y-85729500D01*
X144777435Y-85729500D01*
X144522565Y-85729500D01*
X144522559Y-85729500D01*
X144365609Y-85753157D01*
X144270542Y-85767487D01*
X144270538Y-85767488D01*
X144270539Y-85767488D01*
X144270533Y-85767489D01*
X144026992Y-85842612D01*
X143797373Y-85953190D01*
X143797372Y-85953191D01*
X143586782Y-86096768D01*
X143399952Y-86270121D01*
X143399950Y-86270123D01*
X143241041Y-86469388D01*
X143113609Y-86690107D01*
X143113607Y-86690111D01*
X143113607Y-86690112D01*
X143099599Y-86725803D01*
X143056785Y-86781015D01*
X142990915Y-86804317D01*
X142984172Y-86804500D01*
X135237743Y-86804500D01*
X135222122Y-86802775D01*
X135222095Y-86803061D01*
X135214333Y-86802326D01*
X135146140Y-86804469D01*
X135144193Y-86804500D01*
X135115649Y-86804500D01*
X135108778Y-86805367D01*
X135102959Y-86805825D01*
X135056374Y-86807289D01*
X135056368Y-86807290D01*
X135037126Y-86812880D01*
X135018087Y-86816823D01*
X134998217Y-86819334D01*
X134998203Y-86819337D01*
X134954883Y-86836488D01*
X134949358Y-86838380D01*
X134904613Y-86851380D01*
X134904610Y-86851381D01*
X134887366Y-86861579D01*
X134869905Y-86870133D01*
X134851274Y-86877510D01*
X134851262Y-86877517D01*
X134813570Y-86904902D01*
X134808687Y-86908109D01*
X134768580Y-86931829D01*
X134754414Y-86945995D01*
X134739624Y-86958627D01*
X134723414Y-86970404D01*
X134723411Y-86970407D01*
X134693710Y-87006309D01*
X134689777Y-87010631D01*
X134269821Y-87430586D01*
X134208498Y-87464071D01*
X134150048Y-87462680D01*
X134081697Y-87444366D01*
X134081693Y-87444365D01*
X134081692Y-87444365D01*
X133968345Y-87434448D01*
X133855001Y-87424532D01*
X133854998Y-87424532D01*
X133628313Y-87444364D01*
X133628302Y-87444366D01*
X133408511Y-87503258D01*
X133408502Y-87503261D01*
X133202267Y-87599431D01*
X133202265Y-87599432D01*
X133015858Y-87729954D01*
X132854954Y-87890858D01*
X132724432Y-88077265D01*
X132724431Y-88077267D01*
X132697382Y-88135275D01*
X132651209Y-88187714D01*
X132584016Y-88206866D01*
X132517135Y-88186650D01*
X132472618Y-88135275D01*
X132472116Y-88134199D01*
X132445568Y-88077266D01*
X132315047Y-87890861D01*
X132315045Y-87890858D01*
X132154141Y-87729954D01*
X131967734Y-87599432D01*
X131967732Y-87599431D01*
X131761497Y-87503261D01*
X131761488Y-87503258D01*
X131541697Y-87444366D01*
X131541693Y-87444365D01*
X131541692Y-87444365D01*
X131541691Y-87444364D01*
X131541686Y-87444364D01*
X131315002Y-87424532D01*
X131314999Y-87424532D01*
X131088313Y-87444364D01*
X131088296Y-87444367D01*
X131019949Y-87462680D01*
X130950099Y-87461016D01*
X130900177Y-87430586D01*
X130515803Y-87046212D01*
X130505980Y-87033950D01*
X130505759Y-87034134D01*
X130500786Y-87028122D01*
X130451066Y-86981432D01*
X130449666Y-86980075D01*
X130429476Y-86959884D01*
X130423986Y-86955625D01*
X130419561Y-86951847D01*
X130385582Y-86919938D01*
X130385580Y-86919936D01*
X130385577Y-86919935D01*
X130368029Y-86910288D01*
X130351763Y-86899604D01*
X130335933Y-86887325D01*
X130293168Y-86868818D01*
X130287922Y-86866248D01*
X130247093Y-86843803D01*
X130247092Y-86843802D01*
X130227693Y-86838822D01*
X130209281Y-86832518D01*
X130190898Y-86824562D01*
X130190892Y-86824560D01*
X130144874Y-86817272D01*
X130139152Y-86816087D01*
X130094021Y-86804500D01*
X130094019Y-86804500D01*
X130073984Y-86804500D01*
X130054586Y-86802973D01*
X130047162Y-86801797D01*
X130034805Y-86799840D01*
X130034804Y-86799840D01*
X129988416Y-86804225D01*
X129982578Y-86804500D01*
X129725828Y-86804500D01*
X129658789Y-86784815D01*
X129613034Y-86732011D01*
X129610411Y-86725829D01*
X129596393Y-86690112D01*
X129468959Y-86469388D01*
X129310050Y-86270123D01*
X129123217Y-86096768D01*
X128912634Y-85953195D01*
X128912630Y-85953193D01*
X128912627Y-85953191D01*
X128912626Y-85953190D01*
X128683006Y-85842612D01*
X128683008Y-85842612D01*
X128439466Y-85767489D01*
X128439462Y-85767488D01*
X128439458Y-85767487D01*
X128318231Y-85749214D01*
X128187440Y-85729500D01*
X128187435Y-85729500D01*
X127932565Y-85729500D01*
X127932564Y-85729500D01*
X125727441Y-85729500D01*
X125727435Y-85729500D01*
X125472565Y-85729500D01*
X125472559Y-85729500D01*
X125315609Y-85753157D01*
X125220542Y-85767487D01*
X125220538Y-85767488D01*
X125220539Y-85767488D01*
X125220533Y-85767489D01*
X124976992Y-85842612D01*
X124747373Y-85953190D01*
X124747372Y-85953191D01*
X124536782Y-86096768D01*
X124349952Y-86270121D01*
X124349950Y-86270123D01*
X124191041Y-86469388D01*
X124063608Y-86690109D01*
X123970492Y-86927362D01*
X123970490Y-86927369D01*
X123913777Y-87175845D01*
X123894732Y-87429995D01*
X123894732Y-87430004D01*
X115525499Y-87430004D01*
X115525499Y-86690107D01*
X115525499Y-83005001D01*
X130579390Y-83005001D01*
X130599804Y-83290433D01*
X130660628Y-83570037D01*
X130760635Y-83838166D01*
X130897770Y-84089309D01*
X130897775Y-84089317D01*
X131069254Y-84318387D01*
X131069270Y-84318405D01*
X131271594Y-84520729D01*
X131271612Y-84520745D01*
X131500682Y-84692224D01*
X131500690Y-84692229D01*
X131751833Y-84829364D01*
X131751832Y-84829364D01*
X131751836Y-84829365D01*
X131751839Y-84829367D01*
X132019954Y-84929369D01*
X132019960Y-84929370D01*
X132019962Y-84929371D01*
X132299566Y-84990195D01*
X132299568Y-84990195D01*
X132299572Y-84990196D01*
X132513552Y-85005500D01*
X132656448Y-85005500D01*
X132870428Y-84990196D01*
X133150046Y-84929369D01*
X133418161Y-84829367D01*
X133669315Y-84692226D01*
X133898395Y-84520739D01*
X134100739Y-84318395D01*
X134272226Y-84089315D01*
X134409367Y-83838161D01*
X134509369Y-83570046D01*
X134570196Y-83290428D01*
X134590610Y-83005000D01*
X134570196Y-82719572D01*
X134527776Y-82524572D01*
X134509371Y-82439962D01*
X134509370Y-82439960D01*
X134509369Y-82439954D01*
X134409367Y-82171839D01*
X134391779Y-82139630D01*
X134272229Y-81920690D01*
X134272224Y-81920682D01*
X134100745Y-81691612D01*
X134100729Y-81691594D01*
X133898405Y-81489270D01*
X133898387Y-81489254D01*
X133669317Y-81317775D01*
X133669309Y-81317770D01*
X133418166Y-81180635D01*
X133418167Y-81180635D01*
X133310915Y-81140632D01*
X133150046Y-81080631D01*
X133150043Y-81080630D01*
X133150037Y-81080628D01*
X132870433Y-81019804D01*
X132656450Y-81004500D01*
X132656448Y-81004500D01*
X132513552Y-81004500D01*
X132513549Y-81004500D01*
X132299566Y-81019804D01*
X132019962Y-81080628D01*
X131751833Y-81180635D01*
X131500690Y-81317770D01*
X131500682Y-81317775D01*
X131271612Y-81489254D01*
X131271594Y-81489270D01*
X131069270Y-81691594D01*
X131069254Y-81691612D01*
X130897775Y-81920682D01*
X130897770Y-81920690D01*
X130760635Y-82171833D01*
X130660628Y-82439962D01*
X130599804Y-82719566D01*
X130579390Y-83004998D01*
X130579390Y-83005001D01*
X115525499Y-83005001D01*
X115525499Y-79984568D01*
X115545184Y-79917533D01*
X115597988Y-79871778D01*
X115617392Y-79864801D01*
X115658496Y-79853788D01*
X115746883Y-79808752D01*
X115831837Y-79765467D01*
X115831838Y-79765465D01*
X115831840Y-79765465D01*
X115983032Y-79643032D01*
X116105465Y-79491840D01*
X116193788Y-79318496D01*
X116244141Y-79130578D01*
X116250500Y-79049778D01*
X116250500Y-78444755D01*
X116270185Y-78377717D01*
X116322989Y-78331962D01*
X116392147Y-78322018D01*
X116423744Y-78330953D01*
X116434104Y-78335437D01*
X116477960Y-78342383D01*
X116480119Y-78342725D01*
X116485839Y-78343909D01*
X116530981Y-78355500D01*
X116551016Y-78355500D01*
X116570414Y-78357026D01*
X116590194Y-78360159D01*
X116590195Y-78360160D01*
X116590195Y-78360159D01*
X116590196Y-78360160D01*
X116636583Y-78355775D01*
X116642422Y-78355500D01*
X116666825Y-78355500D01*
X116733864Y-78375185D01*
X116769987Y-78410699D01*
X117286590Y-79185314D01*
X117407338Y-79339364D01*
X117407340Y-79339366D01*
X117407341Y-79339367D01*
X117597903Y-79517875D01*
X117813480Y-79665201D01*
X118049019Y-79777893D01*
X118299002Y-79853309D01*
X118557566Y-79889682D01*
X118818652Y-79886158D01*
X119076141Y-79842822D01*
X119076147Y-79842819D01*
X119076152Y-79842819D01*
X119174044Y-79810378D01*
X119323996Y-79760687D01*
X119556410Y-79641681D01*
X119767933Y-79488591D01*
X119953608Y-79305007D01*
X120109084Y-79095232D01*
X120230715Y-78864181D01*
X120315651Y-78617271D01*
X120344399Y-78457536D01*
X120375647Y-78395043D01*
X120435720Y-78359365D01*
X120466438Y-78355500D01*
X121473153Y-78355500D01*
X121540192Y-78375185D01*
X121585947Y-78427989D01*
X121595891Y-78497147D01*
X121580540Y-78541500D01*
X121523608Y-78640109D01*
X121430492Y-78877362D01*
X121430490Y-78877369D01*
X121373777Y-79125845D01*
X121354732Y-79379995D01*
X121354732Y-79380004D01*
X121373777Y-79634154D01*
X121428013Y-79871778D01*
X121430492Y-79882637D01*
X121523607Y-80119888D01*
X121651041Y-80340612D01*
X121809950Y-80539877D01*
X121996783Y-80713232D01*
X122207366Y-80856805D01*
X122207371Y-80856807D01*
X122207372Y-80856808D01*
X122207373Y-80856809D01*
X122329328Y-80915538D01*
X122436992Y-80967387D01*
X122436993Y-80967387D01*
X122436996Y-80967389D01*
X122680542Y-81042513D01*
X122932565Y-81080500D01*
X123238789Y-81080500D01*
X123238798Y-81080499D01*
X125530361Y-81080499D01*
X125530389Y-81080500D01*
X125532565Y-81080500D01*
X125787435Y-81080500D01*
X126039458Y-81042513D01*
X126283004Y-80967389D01*
X126512634Y-80856805D01*
X126723217Y-80713232D01*
X126910050Y-80539877D01*
X127068959Y-80340612D01*
X127196393Y-80119888D01*
X127289508Y-79882637D01*
X127346222Y-79634157D01*
X127357130Y-79488591D01*
X127365268Y-79380004D01*
X127365268Y-79379995D01*
X127346577Y-79130578D01*
X127346222Y-79125843D01*
X127289508Y-78877363D01*
X127196393Y-78640112D01*
X127139460Y-78541500D01*
X127122987Y-78473599D01*
X127145840Y-78407573D01*
X127200761Y-78364382D01*
X127246847Y-78355500D01*
X128532257Y-78355500D01*
X128547877Y-78357224D01*
X128547904Y-78356939D01*
X128555666Y-78357673D01*
X128555666Y-78357672D01*
X128555667Y-78357673D01*
X128558999Y-78357568D01*
X128623847Y-78355531D01*
X128625794Y-78355500D01*
X128654347Y-78355500D01*
X128654350Y-78355500D01*
X128661228Y-78354630D01*
X128667041Y-78354172D01*
X128713627Y-78352709D01*
X128732869Y-78347117D01*
X128751912Y-78343174D01*
X128771792Y-78340664D01*
X128815122Y-78323507D01*
X128820646Y-78321617D01*
X128824396Y-78320527D01*
X128865390Y-78308618D01*
X128882629Y-78298422D01*
X128900103Y-78289862D01*
X128918727Y-78282488D01*
X128918727Y-78282487D01*
X128918732Y-78282486D01*
X128956449Y-78255082D01*
X128961305Y-78251892D01*
X129001420Y-78228170D01*
X129015589Y-78213999D01*
X129030379Y-78201368D01*
X129046587Y-78189594D01*
X129076299Y-78153676D01*
X129080212Y-78149376D01*
X129802820Y-77426769D01*
X129864142Y-77393285D01*
X129933834Y-77398269D01*
X129989767Y-77440141D01*
X130014184Y-77505605D01*
X130014500Y-77514451D01*
X130014500Y-78127870D01*
X130014501Y-78127876D01*
X130020908Y-78187483D01*
X130071202Y-78322328D01*
X130071206Y-78322335D01*
X130157452Y-78437544D01*
X130157455Y-78437547D01*
X130272664Y-78523793D01*
X130272671Y-78523797D01*
X130407517Y-78574091D01*
X130407516Y-78574091D01*
X130414444Y-78574835D01*
X130467127Y-78580500D01*
X132162872Y-78580499D01*
X132222483Y-78574091D01*
X132357331Y-78523796D01*
X132472546Y-78437546D01*
X132485733Y-78419929D01*
X132541666Y-78378058D01*
X132611358Y-78373074D01*
X132672681Y-78406558D01*
X132684267Y-78419930D01*
X132697454Y-78437546D01*
X132697455Y-78437547D01*
X132812664Y-78523793D01*
X132812671Y-78523797D01*
X132947517Y-78574091D01*
X132947516Y-78574091D01*
X132954444Y-78574835D01*
X133007127Y-78580500D01*
X134702872Y-78580499D01*
X134762483Y-78574091D01*
X134897331Y-78523796D01*
X135012546Y-78437546D01*
X135098796Y-78322331D01*
X135149091Y-78187483D01*
X135155500Y-78127873D01*
X135155499Y-77383260D01*
X135170284Y-77332905D01*
X135159692Y-77315487D01*
X135155499Y-77283515D01*
X135155499Y-76904500D01*
X135175184Y-76837461D01*
X135227988Y-76791706D01*
X135279499Y-76780500D01*
X135317240Y-76780500D01*
X135384279Y-76800185D01*
G37*
G04 #@! TD.AperFunction*
G04 #@! TA.AperFunction,NonConductor*
G36*
X113837534Y-79659686D02*
G01*
X113873751Y-79689014D01*
X113968162Y-79765467D01*
X114080808Y-79822862D01*
X114141504Y-79853788D01*
X114141506Y-79853788D01*
X114141507Y-79853789D01*
X114141506Y-79853789D01*
X114171308Y-79861773D01*
X114182591Y-79864797D01*
X114242252Y-79901160D01*
X114272783Y-79964007D01*
X114274500Y-79984572D01*
X114274500Y-93237255D01*
X114272775Y-93252872D01*
X114273061Y-93252899D01*
X114272326Y-93260666D01*
X114274469Y-93328846D01*
X114274500Y-93330793D01*
X114274500Y-93359343D01*
X114274501Y-93359360D01*
X114275368Y-93366231D01*
X114275826Y-93372050D01*
X114277290Y-93418624D01*
X114277291Y-93418627D01*
X114282880Y-93437867D01*
X114286824Y-93456911D01*
X114289336Y-93476791D01*
X114306490Y-93520119D01*
X114308382Y-93525647D01*
X114316926Y-93555056D01*
X114321382Y-93570390D01*
X114329643Y-93584360D01*
X114331580Y-93587634D01*
X114340138Y-93605103D01*
X114347514Y-93623732D01*
X114374898Y-93661423D01*
X114378106Y-93666307D01*
X114401827Y-93706416D01*
X114401833Y-93706424D01*
X114415990Y-93720580D01*
X114428628Y-93735376D01*
X114440405Y-93751586D01*
X114440406Y-93751587D01*
X114476309Y-93781288D01*
X114480620Y-93785210D01*
X115440816Y-94745406D01*
X116396618Y-95701208D01*
X116430103Y-95762531D01*
X116426194Y-95829223D01*
X116404349Y-95892730D01*
X116358100Y-96149709D01*
X116351620Y-96410740D01*
X116351620Y-96410741D01*
X116385062Y-96669698D01*
X116457640Y-96920512D01*
X116457642Y-96920517D01*
X116457643Y-96920519D01*
X116567660Y-97157321D01*
X116567663Y-97157326D01*
X116567665Y-97157329D01*
X117286590Y-98235314D01*
X117407338Y-98389364D01*
X117407340Y-98389366D01*
X117407341Y-98389367D01*
X117597903Y-98567875D01*
X117813480Y-98715201D01*
X118049019Y-98827893D01*
X118299002Y-98903309D01*
X118557566Y-98939682D01*
X118818652Y-98936158D01*
X119076141Y-98892822D01*
X119076147Y-98892819D01*
X119076152Y-98892819D01*
X119174044Y-98860378D01*
X119323996Y-98810687D01*
X119556410Y-98691681D01*
X119767933Y-98538591D01*
X119953608Y-98355007D01*
X120109084Y-98145232D01*
X120230715Y-97914181D01*
X120315651Y-97667271D01*
X120344399Y-97507536D01*
X120375647Y-97445043D01*
X120435720Y-97409365D01*
X120466438Y-97405500D01*
X121473153Y-97405500D01*
X121540192Y-97425185D01*
X121585947Y-97477989D01*
X121595891Y-97547147D01*
X121580540Y-97591500D01*
X121523608Y-97690109D01*
X121430492Y-97927362D01*
X121430490Y-97927369D01*
X121373777Y-98175845D01*
X121354732Y-98429995D01*
X121354732Y-98430004D01*
X121373777Y-98684154D01*
X121421403Y-98892819D01*
X121430492Y-98932637D01*
X121523607Y-99169888D01*
X121651041Y-99390612D01*
X121809950Y-99589877D01*
X121996783Y-99763232D01*
X122207366Y-99906805D01*
X122207371Y-99906807D01*
X122207372Y-99906808D01*
X122207373Y-99906809D01*
X122329328Y-99965538D01*
X122436992Y-100017387D01*
X122436993Y-100017387D01*
X122436996Y-100017389D01*
X122680542Y-100092513D01*
X122932565Y-100130500D01*
X123238789Y-100130500D01*
X123238798Y-100130499D01*
X125530361Y-100130499D01*
X125530389Y-100130500D01*
X125532565Y-100130500D01*
X125787435Y-100130500D01*
X126039458Y-100092513D01*
X126283004Y-100017389D01*
X126512634Y-99906805D01*
X126723217Y-99763232D01*
X126910050Y-99589877D01*
X127068959Y-99390612D01*
X127196393Y-99169888D01*
X127289508Y-98932637D01*
X127346222Y-98684157D01*
X127357130Y-98538591D01*
X127365268Y-98430004D01*
X127365268Y-98429995D01*
X127346222Y-98175845D01*
X127289509Y-97927369D01*
X127289508Y-97927363D01*
X127196393Y-97690112D01*
X127139460Y-97591500D01*
X127122987Y-97523599D01*
X127145840Y-97457573D01*
X127200761Y-97414382D01*
X127246847Y-97405500D01*
X128532257Y-97405500D01*
X128547877Y-97407224D01*
X128547904Y-97406939D01*
X128555666Y-97407673D01*
X128555666Y-97407672D01*
X128555667Y-97407673D01*
X128558999Y-97407568D01*
X128623847Y-97405531D01*
X128625794Y-97405500D01*
X128654347Y-97405500D01*
X128654350Y-97405500D01*
X128661228Y-97404630D01*
X128667041Y-97404172D01*
X128713627Y-97402709D01*
X128732869Y-97397117D01*
X128751912Y-97393174D01*
X128771792Y-97390664D01*
X128815122Y-97373507D01*
X128820646Y-97371617D01*
X128824396Y-97370527D01*
X128865390Y-97358618D01*
X128882629Y-97348422D01*
X128900103Y-97339862D01*
X128918727Y-97332488D01*
X128918727Y-97332487D01*
X128918732Y-97332486D01*
X128956449Y-97305082D01*
X128961305Y-97301892D01*
X129001420Y-97278170D01*
X129015589Y-97263999D01*
X129030379Y-97251368D01*
X129046587Y-97239594D01*
X129076299Y-97203676D01*
X129080212Y-97199376D01*
X129802820Y-96476769D01*
X129864142Y-96443285D01*
X129933834Y-96448269D01*
X129989767Y-96490141D01*
X130014184Y-96555605D01*
X130014500Y-96564451D01*
X130014500Y-97177870D01*
X130014501Y-97177876D01*
X130020908Y-97237483D01*
X130071202Y-97372328D01*
X130071206Y-97372335D01*
X130157452Y-97487544D01*
X130157455Y-97487547D01*
X130272664Y-97573793D01*
X130272671Y-97573797D01*
X130407517Y-97624091D01*
X130407516Y-97624091D01*
X130414444Y-97624835D01*
X130467127Y-97630500D01*
X132162872Y-97630499D01*
X132222483Y-97624091D01*
X132357331Y-97573796D01*
X132472546Y-97487546D01*
X132485733Y-97469929D01*
X132541666Y-97428058D01*
X132611358Y-97423074D01*
X132672681Y-97456558D01*
X132684267Y-97469930D01*
X132697454Y-97487546D01*
X132697455Y-97487547D01*
X132812664Y-97573793D01*
X132812671Y-97573797D01*
X132947517Y-97624091D01*
X132947516Y-97624091D01*
X132954444Y-97624835D01*
X133007127Y-97630500D01*
X134702872Y-97630499D01*
X134762483Y-97624091D01*
X134897331Y-97573796D01*
X135012546Y-97487546D01*
X135098796Y-97372331D01*
X135149091Y-97237483D01*
X135155500Y-97177873D01*
X135155499Y-96433260D01*
X135170284Y-96382905D01*
X135159692Y-96365487D01*
X135155499Y-96333515D01*
X135155499Y-95954500D01*
X135175184Y-95887461D01*
X135227988Y-95841706D01*
X135279499Y-95830500D01*
X135317240Y-95830500D01*
X135384279Y-95850185D01*
X135430034Y-95902989D01*
X135439978Y-95972147D01*
X135439279Y-95976463D01*
X135408100Y-96149708D01*
X135403461Y-96336592D01*
X135388591Y-96382946D01*
X135398476Y-96398327D01*
X135402478Y-96417381D01*
X135435062Y-96669698D01*
X135507640Y-96920512D01*
X135507642Y-96920517D01*
X135507643Y-96920519D01*
X135617660Y-97157321D01*
X135617663Y-97157326D01*
X135617665Y-97157329D01*
X136336590Y-98235314D01*
X136457338Y-98389364D01*
X136457340Y-98389366D01*
X136457341Y-98389367D01*
X136647903Y-98567875D01*
X136863480Y-98715201D01*
X137099019Y-98827893D01*
X137349002Y-98903309D01*
X137607566Y-98939682D01*
X137868652Y-98936158D01*
X138126141Y-98892822D01*
X138126147Y-98892819D01*
X138126152Y-98892819D01*
X138224044Y-98860378D01*
X138373996Y-98810687D01*
X138606410Y-98691681D01*
X138817933Y-98538591D01*
X139003608Y-98355007D01*
X139159084Y-98145232D01*
X139280715Y-97914181D01*
X139365651Y-97667271D01*
X139394399Y-97507536D01*
X139425647Y-97445043D01*
X139485720Y-97409365D01*
X139516438Y-97405500D01*
X140523153Y-97405500D01*
X140590192Y-97425185D01*
X140635947Y-97477989D01*
X140645891Y-97547147D01*
X140630540Y-97591500D01*
X140573608Y-97690109D01*
X140480492Y-97927362D01*
X140480490Y-97927369D01*
X140423777Y-98175845D01*
X140404732Y-98429995D01*
X140404732Y-98430004D01*
X140423777Y-98684154D01*
X140471403Y-98892819D01*
X140480492Y-98932637D01*
X140573607Y-99169888D01*
X140701041Y-99390612D01*
X140859950Y-99589877D01*
X141046783Y-99763232D01*
X141257366Y-99906805D01*
X141257371Y-99906807D01*
X141257372Y-99906808D01*
X141257373Y-99906809D01*
X141379328Y-99965538D01*
X141486992Y-100017387D01*
X141486993Y-100017387D01*
X141486996Y-100017389D01*
X141730542Y-100092513D01*
X141982565Y-100130500D01*
X142288789Y-100130500D01*
X142288798Y-100130499D01*
X144580361Y-100130499D01*
X144580389Y-100130500D01*
X144582565Y-100130500D01*
X144837435Y-100130500D01*
X145089458Y-100092513D01*
X145333004Y-100017389D01*
X145562634Y-99906805D01*
X145773217Y-99763232D01*
X145960050Y-99589877D01*
X146118959Y-99390612D01*
X146246393Y-99169888D01*
X146339508Y-98932637D01*
X146396222Y-98684157D01*
X146407130Y-98538591D01*
X146415268Y-98430004D01*
X146415268Y-98429995D01*
X146396222Y-98175845D01*
X146339509Y-97927369D01*
X146339508Y-97927363D01*
X146246393Y-97690112D01*
X146189460Y-97591500D01*
X146172987Y-97523599D01*
X146195840Y-97457573D01*
X146250761Y-97414382D01*
X146296847Y-97405500D01*
X148017257Y-97405500D01*
X148032877Y-97407224D01*
X148032904Y-97406939D01*
X148040666Y-97407673D01*
X148040666Y-97407672D01*
X148040667Y-97407673D01*
X148043999Y-97407568D01*
X148108847Y-97405531D01*
X148110794Y-97405500D01*
X148139347Y-97405500D01*
X148139350Y-97405500D01*
X148146228Y-97404630D01*
X148152041Y-97404172D01*
X148198627Y-97402709D01*
X148217869Y-97397117D01*
X148236912Y-97393174D01*
X148256792Y-97390664D01*
X148300122Y-97373507D01*
X148305646Y-97371617D01*
X148309396Y-97370527D01*
X148350390Y-97358618D01*
X148367629Y-97348422D01*
X148385103Y-97339862D01*
X148403727Y-97332488D01*
X148403727Y-97332487D01*
X148403732Y-97332486D01*
X148441449Y-97305082D01*
X148446305Y-97301892D01*
X148486420Y-97278170D01*
X148500589Y-97263999D01*
X148515379Y-97251368D01*
X148531587Y-97239594D01*
X148561299Y-97203676D01*
X148565212Y-97199376D01*
X150613788Y-95150801D01*
X150626042Y-95140986D01*
X150625859Y-95140764D01*
X150631868Y-95135791D01*
X150631877Y-95135786D01*
X150678607Y-95086022D01*
X150679846Y-95084743D01*
X150700120Y-95064471D01*
X150704379Y-95058978D01*
X150708152Y-95054561D01*
X150740062Y-95020582D01*
X150749715Y-95003020D01*
X150760389Y-94986770D01*
X150772673Y-94970936D01*
X150791180Y-94928167D01*
X150793749Y-94922924D01*
X150816196Y-94882093D01*
X150816197Y-94882092D01*
X150821177Y-94862691D01*
X150827478Y-94844288D01*
X150835438Y-94825896D01*
X150842730Y-94779849D01*
X150843911Y-94774152D01*
X150847569Y-94759906D01*
X150855500Y-94729019D01*
X150855500Y-94708982D01*
X150857027Y-94689582D01*
X150860160Y-94669804D01*
X150855775Y-94623415D01*
X150855500Y-94617577D01*
X150855500Y-82524572D01*
X150875185Y-82457533D01*
X150927989Y-82411778D01*
X150947407Y-82404797D01*
X150966821Y-82399595D01*
X150988493Y-82393789D01*
X150988493Y-82393788D01*
X150988496Y-82393788D01*
X151080118Y-82347104D01*
X151161837Y-82305467D01*
X151161838Y-82305465D01*
X151161840Y-82305465D01*
X151313032Y-82183032D01*
X151314134Y-82181670D01*
X151314971Y-82181092D01*
X151317627Y-82178437D01*
X151318112Y-82178922D01*
X151371617Y-82141960D01*
X151441448Y-82139630D01*
X151501453Y-82175424D01*
X151532581Y-82237976D01*
X151534500Y-82259706D01*
X151534500Y-101498113D01*
X151534450Y-101498283D01*
X151534450Y-101546558D01*
X151534064Y-101553464D01*
X151528907Y-101599507D01*
X151528724Y-101600987D01*
X151521158Y-101656438D01*
X151515423Y-101680384D01*
X151503242Y-101715431D01*
X151502018Y-101718661D01*
X151479581Y-101773212D01*
X151470130Y-101791643D01*
X151448226Y-101826780D01*
X151444955Y-101831521D01*
X151408212Y-101879823D01*
X151402921Y-101885912D01*
X151369543Y-101919628D01*
X151363506Y-101924980D01*
X151315582Y-101962202D01*
X151310875Y-101965519D01*
X151275954Y-101987779D01*
X151257621Y-101997413D01*
X151203306Y-102020395D01*
X151200085Y-102021653D01*
X151165774Y-102033964D01*
X151141196Y-102040037D01*
X151060511Y-102051405D01*
X151047007Y-102053055D01*
X151038929Y-102054042D01*
X151031410Y-102054500D01*
X114138460Y-102054500D01*
X114131565Y-102054115D01*
X114112486Y-102051979D01*
X114108507Y-102051534D01*
X114028652Y-102041089D01*
X114004029Y-102035265D01*
X113969585Y-102023294D01*
X113966353Y-102022069D01*
X113911812Y-101999637D01*
X113893385Y-101990188D01*
X113858228Y-101968272D01*
X113853494Y-101965006D01*
X113805204Y-101928270D01*
X113799116Y-101922980D01*
X113765395Y-101889595D01*
X113760043Y-101883558D01*
X113750464Y-101871225D01*
X113722819Y-101835629D01*
X113719517Y-101830943D01*
X113697243Y-101795996D01*
X113687622Y-101777687D01*
X113664616Y-101723301D01*
X113663384Y-101720145D01*
X113651065Y-101685807D01*
X113645000Y-101661262D01*
X113635237Y-101592017D01*
X113635924Y-101567252D01*
X113635500Y-101567252D01*
X113635500Y-79756053D01*
X113655185Y-79689014D01*
X113707989Y-79643259D01*
X113777147Y-79633315D01*
X113837534Y-79659686D01*
G37*
G04 #@! TD.AperFunction*
M02*
