G04 #@! TF.GenerationSoftware,KiCad,Pcbnew,7.0.5*
G04 #@! TF.CreationDate,2023-08-16T13:58:06+08:00*
G04 #@! TF.ProjectId,LA,4c412e6b-6963-4616-945f-706362585858,rev?*
G04 #@! TF.SameCoordinates,Original*
G04 #@! TF.FileFunction,Copper,L1,Top*
G04 #@! TF.FilePolarity,Positive*
%FSLAX46Y46*%
G04 Gerber Fmt 4.6, Leading zero omitted, Abs format (unit mm)*
G04 Created by KiCad (PCBNEW 7.0.5) date 2023-08-16 13:58:06*
%MOMM*%
%LPD*%
G01*
G04 APERTURE LIST*
G04 Aperture macros list*
%AMRoundRect*
0 Rectangle with rounded corners*
0 $1 Rounding radius*
0 $2 $3 $4 $5 $6 $7 $8 $9 X,Y pos of 4 corners*
0 Add a 4 corners polygon primitive as box body*
4,1,4,$2,$3,$4,$5,$6,$7,$8,$9,$2,$3,0*
0 Add four circle primitives for the rounded corners*
1,1,$1+$1,$2,$3*
1,1,$1+$1,$4,$5*
1,1,$1+$1,$6,$7*
1,1,$1+$1,$8,$9*
0 Add four rect primitives between the rounded corners*
20,1,$1+$1,$2,$3,$4,$5,0*
20,1,$1+$1,$4,$5,$6,$7,0*
20,1,$1+$1,$6,$7,$8,$9,0*
20,1,$1+$1,$8,$9,$2,$3,0*%
%AMHorizOval*
0 Thick line with rounded ends*
0 $1 width*
0 $2 $3 position (X,Y) of the first rounded end (center of the circle)*
0 $4 $5 position (X,Y) of the second rounded end (center of the circle)*
0 Add line between two ends*
20,1,$1,$2,$3,$4,$5,0*
0 Add two circle primitives to create the rounded ends*
1,1,$1,$2,$3*
1,1,$1,$4,$5*%
%AMOutline4P*
0 Free polygon, 4 corners , with rotation*
0 The origin of the aperture is its center*
0 number of corners: always 4*
0 $1 to $8 corner X, Y*
0 $9 Rotation angle, in degrees counterclockwise*
0 create outline with 4 corners*
4,1,4,$1,$2,$3,$4,$5,$6,$7,$8,$1,$2,$9*%
G04 Aperture macros list end*
G04 #@! TA.AperFunction,ComponentPad*
%ADD10HorizOval,2.400000X-0.305164X0.457575X0.305164X-0.457575X0*%
G04 #@! TD*
G04 #@! TA.AperFunction,ComponentPad*
%ADD11C,2.400000*%
G04 #@! TD*
G04 #@! TA.AperFunction,SMDPad,CuDef*
%ADD12Outline4P,-1.300000X-1.200000X1.300000X-1.200000X1.300000X1.200000X-1.300000X1.200000X0.000000*%
G04 #@! TD*
G04 #@! TA.AperFunction,SMDPad,CuDef*
%ADD13Outline4P,-1.200000X-1.200000X1.200000X-1.200000X1.200000X1.200000X-1.200000X1.200000X0.000000*%
G04 #@! TD*
G04 #@! TA.AperFunction,ComponentPad*
%ADD14C,1.700000*%
G04 #@! TD*
G04 #@! TA.AperFunction,ComponentPad*
%ADD15O,1.700000X1.700000*%
G04 #@! TD*
G04 #@! TA.AperFunction,ComponentPad*
%ADD16RoundRect,0.425000X-0.425000X-0.425000X0.425000X-0.425000X0.425000X0.425000X-0.425000X0.425000X0*%
G04 #@! TD*
G04 #@! TA.AperFunction,ComponentPad*
%ADD17R,1.600000X1.600000*%
G04 #@! TD*
G04 #@! TA.AperFunction,ComponentPad*
%ADD18O,1.600000X1.600000*%
G04 #@! TD*
G04 #@! TA.AperFunction,ViaPad*
%ADD19C,0.800000*%
G04 #@! TD*
G04 #@! TA.AperFunction,Conductor*
%ADD20C,0.250000*%
G04 #@! TD*
G04 APERTURE END LIST*
D10*
X137410000Y-58680000D03*
D11*
X138300000Y-51890000D03*
X142110000Y-60330000D03*
D12*
X143410000Y-60330000D03*
D11*
X144650000Y-49330000D03*
X144710000Y-60330000D03*
D13*
X145880000Y-49330000D03*
D11*
X147110000Y-49330000D03*
D10*
X118360000Y-58680000D03*
D11*
X119250000Y-51890000D03*
X123060000Y-60330000D03*
D12*
X124360000Y-60330000D03*
D11*
X125600000Y-49330000D03*
X125660000Y-60330000D03*
D13*
X126830000Y-49330000D03*
D11*
X128060000Y-49330000D03*
D14*
X150230000Y-65860000D03*
D15*
X150230000Y-68400000D03*
X150230000Y-70940000D03*
X150230000Y-73480000D03*
D16*
X150230000Y-76020000D03*
X150230000Y-78560000D03*
X150230000Y-81100000D03*
D10*
X118360000Y-96780000D03*
D11*
X119250000Y-89990000D03*
X123060000Y-98430000D03*
D12*
X124360000Y-98430000D03*
D11*
X125600000Y-87430000D03*
X125660000Y-98430000D03*
D13*
X126830000Y-87430000D03*
D11*
X128060000Y-87430000D03*
D10*
X137410000Y-77730000D03*
D11*
X138300000Y-70940000D03*
X142110000Y-79380000D03*
D12*
X143410000Y-79380000D03*
D11*
X144650000Y-68380000D03*
X144710000Y-79380000D03*
D13*
X145880000Y-68380000D03*
D11*
X147110000Y-68380000D03*
D10*
X137410000Y-96780000D03*
D11*
X138300000Y-89990000D03*
X142110000Y-98430000D03*
D12*
X143410000Y-98430000D03*
D11*
X144650000Y-87430000D03*
X144710000Y-98430000D03*
D13*
X145880000Y-87430000D03*
D11*
X147110000Y-87430000D03*
D10*
X118360000Y-77730000D03*
D11*
X119250000Y-70940000D03*
X123060000Y-79380000D03*
D12*
X124360000Y-79380000D03*
D11*
X125600000Y-68380000D03*
X125660000Y-79380000D03*
D13*
X126830000Y-68380000D03*
D11*
X128060000Y-68380000D03*
D14*
X114900000Y-68400000D03*
D15*
X114900000Y-70940000D03*
D16*
X114900000Y-73480000D03*
X114900000Y-76020000D03*
X114900000Y-78560000D03*
D17*
X131315000Y-77280000D03*
D18*
X131315000Y-69680000D03*
D17*
X133855000Y-96330000D03*
D18*
X133855000Y-88730000D03*
D17*
X131315000Y-96330000D03*
D18*
X131315000Y-88730000D03*
D17*
X131315000Y-58230000D03*
D18*
X131315000Y-50630000D03*
D17*
X133855000Y-77280000D03*
D18*
X133855000Y-69680000D03*
D17*
X133855000Y-58230000D03*
D18*
X133855000Y-50630000D03*
D19*
X134980000Y-65860000D03*
X130190000Y-66850000D03*
D20*
X130015000Y-49330000D02*
X131315000Y-50630000D01*
X128060000Y-49330000D02*
X130015000Y-49330000D01*
X135155000Y-49330000D02*
X144650000Y-49330000D01*
X133855000Y-50630000D02*
X135155000Y-49330000D01*
X130015000Y-68380000D02*
X131315000Y-69680000D01*
X128060000Y-68380000D02*
X130015000Y-68380000D01*
X135155000Y-68380000D02*
X144650000Y-68380000D01*
X133855000Y-69680000D02*
X135155000Y-68380000D01*
X128060000Y-87430000D02*
X130015000Y-87430000D01*
X130015000Y-87430000D02*
X131315000Y-88730000D01*
X133855000Y-88730000D02*
X135155000Y-87430000D01*
X135155000Y-87430000D02*
X144650000Y-87430000D01*
X122970000Y-68400000D02*
X126050000Y-71480000D01*
X136973604Y-68830000D02*
X142232971Y-68830000D01*
X144342971Y-70940000D02*
X150230000Y-70940000D01*
X142232971Y-68830000D02*
X144342971Y-70940000D01*
X134323604Y-71480000D02*
X136973604Y-68830000D01*
X114900000Y-68400000D02*
X122970000Y-68400000D01*
X126050000Y-71480000D02*
X134323604Y-71480000D01*
X134510000Y-71930000D02*
X137160000Y-69280000D01*
X116425000Y-69415000D02*
X123348604Y-69415000D01*
X123348604Y-69415000D02*
X125863604Y-71930000D01*
X137160000Y-69280000D02*
X142046575Y-69280000D01*
X148526713Y-71776713D02*
X150230000Y-73480000D01*
X114900000Y-70940000D02*
X116425000Y-69415000D01*
X142046575Y-69280000D02*
X144543288Y-71776713D01*
X125863604Y-71930000D02*
X134510000Y-71930000D01*
X144543288Y-71776713D02*
X148526713Y-71776713D01*
X150230000Y-65860000D02*
X134980000Y-65860000D01*
X148685000Y-66855000D02*
X130195000Y-66855000D01*
X130195000Y-66855000D02*
X130190000Y-66850000D01*
X150230000Y-68400000D02*
X148685000Y-66855000D01*
X130190000Y-57105000D02*
X135835000Y-57105000D01*
X121570000Y-77280000D02*
X128370000Y-77280000D01*
X119610000Y-75320000D02*
X121570000Y-77280000D01*
X116740000Y-75320000D02*
X119610000Y-75320000D01*
X118360000Y-58680000D02*
X128615000Y-58680000D01*
X135835000Y-57105000D02*
X137410000Y-58680000D01*
X140540000Y-77280000D02*
X148970000Y-77280000D01*
X129945000Y-75705000D02*
X138965000Y-75705000D01*
X128615000Y-58680000D02*
X130190000Y-57105000D01*
X148970000Y-77280000D02*
X150230000Y-76020000D01*
X138965000Y-75705000D02*
X140540000Y-77280000D01*
X128370000Y-77280000D02*
X129945000Y-75705000D01*
X114900000Y-73480000D02*
X116740000Y-75320000D01*
X135835000Y-76155000D02*
X137410000Y-77730000D01*
X128615000Y-77730000D02*
X130190000Y-76155000D01*
X137410000Y-77730000D02*
X149400000Y-77730000D01*
X130190000Y-76155000D02*
X135835000Y-76155000D01*
X118360000Y-77730000D02*
X128615000Y-77730000D01*
X149400000Y-77730000D02*
X150230000Y-78560000D01*
X114900000Y-76020000D02*
X116610000Y-77730000D01*
X116610000Y-77730000D02*
X118360000Y-77730000D01*
X137410000Y-96780000D02*
X148100000Y-96780000D01*
X150230000Y-94650000D02*
X150230000Y-81100000D01*
X118360000Y-96780000D02*
X128615000Y-96780000D01*
X135835000Y-95205000D02*
X137410000Y-96780000D01*
X118360000Y-96780000D02*
X114900000Y-93320000D01*
X128615000Y-96780000D02*
X130190000Y-95205000D01*
X114900000Y-93320000D02*
X114900000Y-78560000D01*
X148100000Y-96780000D02*
X150230000Y-94650000D01*
X130190000Y-95205000D02*
X135835000Y-95205000D01*
G04 #@! TA.AperFunction,NonConductor*
G36*
X150998960Y-44905550D02*
G01*
X151027955Y-44905550D01*
X151032075Y-44905780D01*
X151039650Y-44906627D01*
X151056309Y-44908493D01*
X151141576Y-44919666D01*
X151156246Y-44923138D01*
X151195673Y-44936840D01*
X151197586Y-44937566D01*
X151222604Y-44947855D01*
X151257219Y-44962093D01*
X151268203Y-44967725D01*
X151307556Y-44992256D01*
X151310376Y-44994202D01*
X151331825Y-45010518D01*
X151361261Y-45032910D01*
X151364881Y-45036056D01*
X151399444Y-45070273D01*
X151400655Y-45071472D01*
X151403837Y-45075060D01*
X151443057Y-45125556D01*
X151445031Y-45128357D01*
X151469954Y-45167456D01*
X151475704Y-45178397D01*
X151500817Y-45237752D01*
X151501567Y-45239673D01*
X151515662Y-45278952D01*
X151519284Y-45293607D01*
X151531435Y-45379733D01*
X151534227Y-45402576D01*
X151534500Y-45407068D01*
X151534500Y-101518822D01*
X151534450Y-101518959D01*
X151534450Y-101547960D01*
X151534220Y-101552074D01*
X151533451Y-101558944D01*
X151531513Y-101576247D01*
X151520332Y-101661574D01*
X151516858Y-101676252D01*
X151503163Y-101715658D01*
X151502432Y-101717586D01*
X151477908Y-101777214D01*
X151472268Y-101788213D01*
X151447748Y-101827547D01*
X151445796Y-101830376D01*
X151407093Y-101881255D01*
X151403935Y-101884889D01*
X151368526Y-101920655D01*
X151364925Y-101923849D01*
X151314451Y-101963051D01*
X151311641Y-101965031D01*
X151272542Y-101989954D01*
X151261601Y-101995704D01*
X151202246Y-102020817D01*
X151200325Y-102021567D01*
X151161046Y-102035662D01*
X151146390Y-102039284D01*
X151060283Y-102051432D01*
X151037422Y-102054226D01*
X151032929Y-102054500D01*
X114137063Y-102054500D01*
X114132948Y-102054270D01*
X114122743Y-102053127D01*
X114108493Y-102051532D01*
X114023567Y-102040424D01*
X114008873Y-102036948D01*
X114002381Y-102034692D01*
X113968938Y-102023069D01*
X113967011Y-102022339D01*
X113907935Y-101998042D01*
X113896937Y-101992402D01*
X113871100Y-101976297D01*
X113857241Y-101967657D01*
X113854423Y-101965713D01*
X113840929Y-101955448D01*
X113803907Y-101927283D01*
X113800273Y-101924126D01*
X113799993Y-101923849D01*
X113793373Y-101917295D01*
X113764236Y-101888446D01*
X113761043Y-101884845D01*
X113739586Y-101857218D01*
X113722109Y-101834714D01*
X113720142Y-101831923D01*
X113694993Y-101792464D01*
X113689249Y-101781533D01*
X113664362Y-101722701D01*
X113663621Y-101720806D01*
X113649333Y-101680980D01*
X113645714Y-101666335D01*
X113634055Y-101583641D01*
X113634739Y-101558944D01*
X113635500Y-101555099D01*
X113635500Y-79039601D01*
X113799500Y-79039601D01*
X113805684Y-79107651D01*
X113805686Y-79107661D01*
X113854486Y-79264267D01*
X113854488Y-79264270D01*
X113939352Y-79404653D01*
X114055347Y-79520648D01*
X114119865Y-79559650D01*
X114195732Y-79605513D01*
X114244999Y-79620865D01*
X114352343Y-79654315D01*
X114420406Y-79660500D01*
X114450500Y-79660500D01*
X114498066Y-79677813D01*
X114523376Y-79721650D01*
X114524500Y-79734500D01*
X114524500Y-93273381D01*
X114522925Y-93288566D01*
X114519633Y-93304264D01*
X114519633Y-93304270D01*
X114524214Y-93341032D01*
X114524499Y-93345606D01*
X114524499Y-93351111D01*
X114528215Y-93373380D01*
X114528435Y-93374891D01*
X114535134Y-93428627D01*
X114536884Y-93434504D01*
X114536615Y-93434584D01*
X114537679Y-93437904D01*
X114537945Y-93437813D01*
X114539935Y-93443610D01*
X114565696Y-93491215D01*
X114566396Y-93492574D01*
X114590175Y-93541214D01*
X114593738Y-93546204D01*
X114593510Y-93546366D01*
X114595595Y-93549162D01*
X114595817Y-93548990D01*
X114599579Y-93553823D01*
X114599581Y-93553826D01*
X114639400Y-93590482D01*
X114640504Y-93591541D01*
X116706525Y-95657563D01*
X116727917Y-95703439D01*
X116719612Y-95744488D01*
X116716483Y-95750404D01*
X116686607Y-95840188D01*
X116640584Y-95978496D01*
X116603264Y-96215960D01*
X116603263Y-96215964D01*
X116605538Y-96456338D01*
X116647344Y-96693052D01*
X116647345Y-96693054D01*
X116727545Y-96919664D01*
X116727546Y-96919665D01*
X116814791Y-97077300D01*
X116814807Y-97077326D01*
X117491699Y-98092286D01*
X117491700Y-98092287D01*
X117603711Y-98233423D01*
X117603713Y-98233425D01*
X117782101Y-98394553D01*
X117984577Y-98524120D01*
X117984585Y-98524123D01*
X117984588Y-98524125D01*
X118205617Y-98618594D01*
X118439184Y-98675396D01*
X118439187Y-98675396D01*
X118439194Y-98675398D01*
X118643765Y-98690401D01*
X118678932Y-98692981D01*
X118678932Y-98692980D01*
X118678934Y-98692981D01*
X118823428Y-98679630D01*
X118918291Y-98670866D01*
X118918293Y-98670865D01*
X118918298Y-98670865D01*
X119150757Y-98609652D01*
X119369971Y-98511013D01*
X119569959Y-98377637D01*
X119745267Y-98213164D01*
X119891112Y-98022080D01*
X120003517Y-97809596D01*
X120079415Y-97581508D01*
X120116736Y-97344039D01*
X120115658Y-97230200D01*
X120132521Y-97182472D01*
X120176117Y-97156749D01*
X120189656Y-97155500D01*
X122120364Y-97155500D01*
X122167930Y-97172813D01*
X122193240Y-97216650D01*
X122184450Y-97266500D01*
X122165817Y-97287894D01*
X122136645Y-97310600D01*
X122074234Y-97359176D01*
X121911427Y-97536033D01*
X121779951Y-97737271D01*
X121683392Y-97957402D01*
X121624378Y-98190442D01*
X121624378Y-98190443D01*
X121604529Y-98429996D01*
X121604529Y-98430003D01*
X121624378Y-98669556D01*
X121624378Y-98669557D01*
X121683392Y-98902597D01*
X121779950Y-99122727D01*
X121779951Y-99122728D01*
X121911429Y-99323969D01*
X122074236Y-99500825D01*
X122263933Y-99648472D01*
X122475344Y-99762882D01*
X122702703Y-99840934D01*
X122939808Y-99880500D01*
X125780192Y-99880500D01*
X126017297Y-99840934D01*
X126244656Y-99762882D01*
X126456067Y-99648472D01*
X126645764Y-99500825D01*
X126808571Y-99323969D01*
X126940049Y-99122728D01*
X127036610Y-98902591D01*
X127095620Y-98669563D01*
X127095620Y-98669559D01*
X127095621Y-98669557D01*
X127095621Y-98669556D01*
X127115471Y-98430003D01*
X127115471Y-98429996D01*
X127095621Y-98190443D01*
X127095621Y-98190442D01*
X127070765Y-98092287D01*
X127036610Y-97957409D01*
X126940049Y-97737272D01*
X126808571Y-97536031D01*
X126645764Y-97359175D01*
X126554183Y-97287894D01*
X126527281Y-97245019D01*
X126534234Y-97194879D01*
X126571789Y-97160939D01*
X126599636Y-97155500D01*
X128568383Y-97155500D01*
X128583567Y-97157074D01*
X128599268Y-97160367D01*
X128636036Y-97155783D01*
X128640615Y-97155500D01*
X128646111Y-97155500D01*
X128646114Y-97155500D01*
X128668387Y-97151782D01*
X128669887Y-97151564D01*
X128675604Y-97150851D01*
X128723626Y-97144866D01*
X128723629Y-97144864D01*
X128729507Y-97143115D01*
X128729587Y-97143386D01*
X128732904Y-97142323D01*
X128732812Y-97142055D01*
X128738606Y-97140065D01*
X128738610Y-97140065D01*
X128786235Y-97114290D01*
X128787535Y-97113622D01*
X128836211Y-97089826D01*
X128836213Y-97089823D01*
X128841204Y-97086261D01*
X128841369Y-97086493D01*
X128844158Y-97084414D01*
X128843983Y-97084189D01*
X128848821Y-97080422D01*
X128848821Y-97080421D01*
X128848826Y-97080419D01*
X128885535Y-97040541D01*
X128886517Y-97039518D01*
X130138174Y-95787861D01*
X130184051Y-95766470D01*
X130232945Y-95779571D01*
X130261979Y-95821035D01*
X130264500Y-95840188D01*
X130264499Y-97154672D01*
X130265632Y-97160366D01*
X130279034Y-97227740D01*
X130334399Y-97310601D01*
X130417260Y-97365966D01*
X130490326Y-97380500D01*
X130490328Y-97380500D01*
X132139672Y-97380500D01*
X132139674Y-97380500D01*
X132212740Y-97365966D01*
X132295601Y-97310601D01*
X132350966Y-97227740D01*
X132365500Y-97154674D01*
X132365500Y-95654500D01*
X132382813Y-95606934D01*
X132426650Y-95581624D01*
X132439500Y-95580500D01*
X132730500Y-95580500D01*
X132778066Y-95597813D01*
X132803376Y-95641650D01*
X132804500Y-95654500D01*
X132804500Y-97154674D01*
X132819034Y-97227740D01*
X132874399Y-97310601D01*
X132957260Y-97365966D01*
X133030326Y-97380500D01*
X133030328Y-97380500D01*
X134679672Y-97380500D01*
X134679674Y-97380500D01*
X134752740Y-97365966D01*
X134835601Y-97310601D01*
X134890966Y-97227740D01*
X134905500Y-97154674D01*
X134905500Y-95654500D01*
X134922813Y-95606934D01*
X134966650Y-95581624D01*
X134979500Y-95580500D01*
X135648811Y-95580500D01*
X135696377Y-95597813D01*
X135701137Y-95602174D01*
X135756525Y-95657562D01*
X135777917Y-95703438D01*
X135769612Y-95744488D01*
X135766484Y-95750400D01*
X135690584Y-95978494D01*
X135653264Y-96215960D01*
X135653263Y-96215964D01*
X135655538Y-96456338D01*
X135697344Y-96693052D01*
X135697345Y-96693054D01*
X135777545Y-96919664D01*
X135777546Y-96919665D01*
X135864791Y-97077300D01*
X135864807Y-97077326D01*
X136541699Y-98092286D01*
X136541700Y-98092287D01*
X136653711Y-98233423D01*
X136653713Y-98233425D01*
X136832101Y-98394553D01*
X137034577Y-98524120D01*
X137034585Y-98524123D01*
X137034588Y-98524125D01*
X137255617Y-98618594D01*
X137489184Y-98675396D01*
X137489187Y-98675396D01*
X137489194Y-98675398D01*
X137693765Y-98690401D01*
X137728932Y-98692981D01*
X137728932Y-98692980D01*
X137728934Y-98692981D01*
X137873428Y-98679630D01*
X137968291Y-98670866D01*
X137968293Y-98670865D01*
X137968298Y-98670865D01*
X138200757Y-98609652D01*
X138419971Y-98511013D01*
X138619959Y-98377637D01*
X138795267Y-98213164D01*
X138941112Y-98022080D01*
X139053517Y-97809596D01*
X139129415Y-97581508D01*
X139166736Y-97344039D01*
X139165658Y-97230200D01*
X139182521Y-97182472D01*
X139226117Y-97156749D01*
X139239656Y-97155500D01*
X141170364Y-97155500D01*
X141217930Y-97172813D01*
X141243240Y-97216650D01*
X141234450Y-97266500D01*
X141215817Y-97287894D01*
X141186645Y-97310600D01*
X141124234Y-97359176D01*
X140961427Y-97536033D01*
X140829951Y-97737271D01*
X140733392Y-97957402D01*
X140674378Y-98190442D01*
X140674378Y-98190443D01*
X140654529Y-98429996D01*
X140654529Y-98430003D01*
X140674378Y-98669556D01*
X140674378Y-98669557D01*
X140733392Y-98902597D01*
X140829950Y-99122727D01*
X140829951Y-99122728D01*
X140961429Y-99323969D01*
X141124236Y-99500825D01*
X141313933Y-99648472D01*
X141525344Y-99762882D01*
X141752703Y-99840934D01*
X141989808Y-99880500D01*
X144830192Y-99880500D01*
X145067297Y-99840934D01*
X145294656Y-99762882D01*
X145506067Y-99648472D01*
X145695764Y-99500825D01*
X145858571Y-99323969D01*
X145990049Y-99122728D01*
X146086610Y-98902591D01*
X146145620Y-98669563D01*
X146145620Y-98669559D01*
X146145621Y-98669557D01*
X146145621Y-98669556D01*
X146165471Y-98430003D01*
X146165471Y-98429996D01*
X146145621Y-98190443D01*
X146145621Y-98190442D01*
X146120765Y-98092287D01*
X146086610Y-97957409D01*
X145990049Y-97737272D01*
X145858571Y-97536031D01*
X145695764Y-97359175D01*
X145604183Y-97287894D01*
X145577281Y-97245019D01*
X145584234Y-97194879D01*
X145621789Y-97160939D01*
X145649636Y-97155500D01*
X148053383Y-97155500D01*
X148068567Y-97157074D01*
X148084268Y-97160367D01*
X148121036Y-97155783D01*
X148125615Y-97155500D01*
X148131111Y-97155500D01*
X148131114Y-97155500D01*
X148153387Y-97151782D01*
X148154887Y-97151564D01*
X148160604Y-97150851D01*
X148208626Y-97144866D01*
X148208629Y-97144864D01*
X148214507Y-97143115D01*
X148214587Y-97143386D01*
X148217904Y-97142323D01*
X148217812Y-97142055D01*
X148223606Y-97140065D01*
X148223610Y-97140065D01*
X148271235Y-97114290D01*
X148272535Y-97113622D01*
X148321211Y-97089826D01*
X148321213Y-97089823D01*
X148326204Y-97086261D01*
X148326369Y-97086493D01*
X148329158Y-97084414D01*
X148328983Y-97084189D01*
X148333824Y-97080420D01*
X148333823Y-97080420D01*
X148333826Y-97080419D01*
X148370512Y-97040565D01*
X148371517Y-97039518D01*
X150462561Y-94948475D01*
X150474401Y-94938861D01*
X150487836Y-94930084D01*
X150510598Y-94900837D01*
X150513620Y-94897417D01*
X150517520Y-94893518D01*
X150530660Y-94875111D01*
X150531564Y-94873900D01*
X150564809Y-94831189D01*
X150564810Y-94831184D01*
X150567729Y-94825792D01*
X150567979Y-94825927D01*
X150569571Y-94822835D01*
X150569316Y-94822710D01*
X150572010Y-94817199D01*
X150572010Y-94817198D01*
X150587469Y-94765271D01*
X150587897Y-94763932D01*
X150605500Y-94712660D01*
X150605500Y-94712656D01*
X150606510Y-94706610D01*
X150606786Y-94706656D01*
X150607289Y-94703206D01*
X150607009Y-94703172D01*
X150607765Y-94697095D01*
X150607768Y-94697088D01*
X150606462Y-94665511D01*
X150605532Y-94643002D01*
X150605500Y-94641474D01*
X150605500Y-82274500D01*
X150622813Y-82226934D01*
X150666650Y-82201624D01*
X150679500Y-82200500D01*
X150709592Y-82200500D01*
X150709594Y-82200500D01*
X150777657Y-82194315D01*
X150934270Y-82145512D01*
X151074653Y-82060648D01*
X151190648Y-81944653D01*
X151275512Y-81804270D01*
X151324315Y-81647657D01*
X151330500Y-81579594D01*
X151330500Y-80620406D01*
X151324315Y-80552343D01*
X151297971Y-80467803D01*
X151275513Y-80395732D01*
X151201905Y-80273969D01*
X151190648Y-80255347D01*
X151074653Y-80139352D01*
X150934270Y-80054488D01*
X150934267Y-80054486D01*
X150777661Y-80005686D01*
X150777658Y-80005685D01*
X150777657Y-80005685D01*
X150777655Y-80005684D01*
X150777651Y-80005684D01*
X150709601Y-79999500D01*
X150709594Y-79999500D01*
X149750406Y-79999500D01*
X149750398Y-79999500D01*
X149682348Y-80005684D01*
X149682338Y-80005686D01*
X149525732Y-80054486D01*
X149385346Y-80139352D01*
X149269352Y-80255346D01*
X149184486Y-80395732D01*
X149135686Y-80552338D01*
X149135684Y-80552348D01*
X149129500Y-80620398D01*
X149129500Y-81579601D01*
X149135684Y-81647651D01*
X149135686Y-81647661D01*
X149184486Y-81804267D01*
X149269351Y-81944652D01*
X149269352Y-81944653D01*
X149385347Y-82060648D01*
X149525730Y-82145512D01*
X149525732Y-82145513D01*
X149597803Y-82167971D01*
X149682343Y-82194315D01*
X149750406Y-82200500D01*
X149780500Y-82200500D01*
X149828066Y-82217813D01*
X149853376Y-82261650D01*
X149854500Y-82274500D01*
X149854500Y-94463809D01*
X149837187Y-94511375D01*
X149832826Y-94516135D01*
X147966136Y-96382826D01*
X147920260Y-96404218D01*
X147913810Y-96404500D01*
X138942653Y-96404500D01*
X138895087Y-96387187D01*
X138881088Y-96371558D01*
X138777317Y-96215960D01*
X138435509Y-95703439D01*
X138278300Y-95467713D01*
X138278299Y-95467712D01*
X138166288Y-95326576D01*
X138166284Y-95326572D01*
X137987899Y-95165447D01*
X137924701Y-95125006D01*
X137785423Y-95035880D01*
X137785417Y-95035877D01*
X137785411Y-95035874D01*
X137564382Y-94941405D01*
X137330815Y-94884603D01*
X137330807Y-94884602D01*
X137091067Y-94867018D01*
X137091060Y-94867019D01*
X136851708Y-94889133D01*
X136619239Y-94950349D01*
X136400031Y-95048986D01*
X136400026Y-95048989D01*
X136336523Y-95091340D01*
X136287344Y-95103328D01*
X136243139Y-95082101D01*
X136133479Y-94972441D01*
X136123853Y-94960586D01*
X136115086Y-94947166D01*
X136115083Y-94947163D01*
X136085853Y-94924412D01*
X136082415Y-94921377D01*
X136078518Y-94917480D01*
X136069004Y-94910687D01*
X136060123Y-94904346D01*
X136058897Y-94903432D01*
X136034705Y-94884603D01*
X136016189Y-94870191D01*
X136016186Y-94870190D01*
X136016185Y-94870189D01*
X136010795Y-94867272D01*
X136010928Y-94867024D01*
X136007829Y-94865429D01*
X136007706Y-94865682D01*
X136002201Y-94862990D01*
X135950347Y-94847552D01*
X135948892Y-94847086D01*
X135897661Y-94829499D01*
X135891615Y-94828491D01*
X135891661Y-94828214D01*
X135888206Y-94827710D01*
X135888172Y-94827991D01*
X135882089Y-94827232D01*
X135882088Y-94827232D01*
X135882086Y-94827232D01*
X135828003Y-94829468D01*
X135826475Y-94829500D01*
X130236617Y-94829500D01*
X130221432Y-94827925D01*
X130205731Y-94824633D01*
X130168965Y-94829216D01*
X130164386Y-94829500D01*
X130158879Y-94829500D01*
X130136613Y-94833216D01*
X130135102Y-94833436D01*
X130081374Y-94840134D01*
X130075498Y-94841884D01*
X130075417Y-94841615D01*
X130072102Y-94842677D01*
X130072193Y-94842942D01*
X130066392Y-94844933D01*
X130018789Y-94870694D01*
X130017431Y-94871393D01*
X129968787Y-94895174D01*
X129963797Y-94898737D01*
X129963636Y-94898511D01*
X129960837Y-94900598D01*
X129961008Y-94900818D01*
X129956175Y-94904578D01*
X129919515Y-94944400D01*
X129918457Y-94945503D01*
X128481136Y-96382826D01*
X128435260Y-96404218D01*
X128428810Y-96404500D01*
X119892653Y-96404500D01*
X119845087Y-96387187D01*
X119831088Y-96371558D01*
X119727317Y-96215960D01*
X119385509Y-95703439D01*
X119228300Y-95467713D01*
X119228299Y-95467712D01*
X119116288Y-95326576D01*
X119116284Y-95326572D01*
X118937899Y-95165447D01*
X118874701Y-95125006D01*
X118735423Y-95035880D01*
X118735417Y-95035877D01*
X118735411Y-95035874D01*
X118514382Y-94941405D01*
X118280815Y-94884603D01*
X118280807Y-94884602D01*
X118041067Y-94867018D01*
X118041060Y-94867019D01*
X117801708Y-94889133D01*
X117569239Y-94950349D01*
X117350031Y-95048986D01*
X117350020Y-95048992D01*
X117286521Y-95091340D01*
X117237342Y-95103328D01*
X117193138Y-95082101D01*
X116276538Y-94165501D01*
X115297172Y-93186134D01*
X115275781Y-93140260D01*
X115275500Y-93133832D01*
X115275500Y-92641246D01*
X116409500Y-92641246D01*
X116450382Y-92859942D01*
X116507031Y-93006168D01*
X116530753Y-93067401D01*
X116647876Y-93256562D01*
X116797764Y-93420981D01*
X116817348Y-93435770D01*
X116975306Y-93555055D01*
X116975309Y-93555057D01*
X116975310Y-93555057D01*
X116975311Y-93555058D01*
X117174472Y-93654229D01*
X117388464Y-93715115D01*
X117554497Y-93730500D01*
X117554499Y-93730500D01*
X117965501Y-93730500D01*
X117965503Y-93730500D01*
X118131536Y-93715115D01*
X118345528Y-93654229D01*
X118544689Y-93555058D01*
X118722236Y-93420981D01*
X118872124Y-93256562D01*
X118989247Y-93067401D01*
X119069618Y-92859940D01*
X119110500Y-92641243D01*
X119110500Y-92446882D01*
X120255804Y-92446882D01*
X120265654Y-92779099D01*
X120265656Y-92779121D01*
X120314730Y-93107856D01*
X120314731Y-93107858D01*
X120323585Y-93140260D01*
X120402344Y-93428494D01*
X120527266Y-93736516D01*
X120527267Y-93736517D01*
X120687742Y-94027603D01*
X120881519Y-94297665D01*
X121105877Y-94542914D01*
X121357666Y-94759906D01*
X121556036Y-94893518D01*
X121633351Y-94945594D01*
X121633353Y-94945595D01*
X121929067Y-95097374D01*
X122240656Y-95213113D01*
X122563747Y-95291187D01*
X122893805Y-95330500D01*
X122893809Y-95330500D01*
X123143023Y-95330500D01*
X123391807Y-95315736D01*
X123718956Y-95256939D01*
X124036854Y-95159862D01*
X124341040Y-95025868D01*
X124627243Y-94856837D01*
X124891445Y-94655142D01*
X125129937Y-94423616D01*
X125339373Y-94165506D01*
X125516810Y-93884438D01*
X125659760Y-93584357D01*
X125766215Y-93269475D01*
X125834680Y-92944212D01*
X125861689Y-92641246D01*
X127009500Y-92641246D01*
X127050382Y-92859942D01*
X127107031Y-93006168D01*
X127130753Y-93067401D01*
X127247876Y-93256562D01*
X127397764Y-93420981D01*
X127417348Y-93435770D01*
X127575306Y-93555055D01*
X127575309Y-93555057D01*
X127575310Y-93555057D01*
X127575311Y-93555058D01*
X127774472Y-93654229D01*
X127988464Y-93715115D01*
X128154497Y-93730500D01*
X128154499Y-93730500D01*
X128565501Y-93730500D01*
X128565503Y-93730500D01*
X128731536Y-93715115D01*
X128945528Y-93654229D01*
X129144689Y-93555058D01*
X129322236Y-93420981D01*
X129472124Y-93256562D01*
X129589247Y-93067401D01*
X129669618Y-92859940D01*
X129710499Y-92641246D01*
X135459500Y-92641246D01*
X135500382Y-92859942D01*
X135557031Y-93006168D01*
X135580753Y-93067401D01*
X135697876Y-93256562D01*
X135847764Y-93420981D01*
X135867348Y-93435770D01*
X136025306Y-93555055D01*
X136025309Y-93555057D01*
X136025310Y-93555057D01*
X136025311Y-93555058D01*
X136224472Y-93654229D01*
X136438464Y-93715115D01*
X136604497Y-93730500D01*
X136604499Y-93730500D01*
X137015501Y-93730500D01*
X137015503Y-93730500D01*
X137181536Y-93715115D01*
X137395528Y-93654229D01*
X137594689Y-93555058D01*
X137772236Y-93420981D01*
X137922124Y-93256562D01*
X138039247Y-93067401D01*
X138119618Y-92859940D01*
X138160500Y-92641243D01*
X138160500Y-92446882D01*
X139305804Y-92446882D01*
X139315654Y-92779099D01*
X139315656Y-92779121D01*
X139364730Y-93107856D01*
X139364731Y-93107858D01*
X139373585Y-93140260D01*
X139452344Y-93428494D01*
X139577266Y-93736516D01*
X139577267Y-93736517D01*
X139737742Y-94027603D01*
X139931519Y-94297665D01*
X140155877Y-94542914D01*
X140407666Y-94759906D01*
X140606036Y-94893518D01*
X140683351Y-94945594D01*
X140683353Y-94945595D01*
X140979067Y-95097374D01*
X141290656Y-95213113D01*
X141613747Y-95291187D01*
X141943805Y-95330500D01*
X141943809Y-95330500D01*
X142193023Y-95330500D01*
X142441807Y-95315736D01*
X142768956Y-95256939D01*
X143086854Y-95159862D01*
X143391040Y-95025868D01*
X143677243Y-94856837D01*
X143941445Y-94655142D01*
X144179937Y-94423616D01*
X144389373Y-94165506D01*
X144566810Y-93884438D01*
X144709760Y-93584357D01*
X144816215Y-93269475D01*
X144884680Y-92944212D01*
X144911689Y-92641246D01*
X146059500Y-92641246D01*
X146100382Y-92859942D01*
X146157031Y-93006168D01*
X146180753Y-93067401D01*
X146297876Y-93256562D01*
X146447764Y-93420981D01*
X146467348Y-93435770D01*
X146625306Y-93555055D01*
X146625309Y-93555057D01*
X146625310Y-93555057D01*
X146625311Y-93555058D01*
X146824472Y-93654229D01*
X147038464Y-93715115D01*
X147204497Y-93730500D01*
X147204499Y-93730500D01*
X147615501Y-93730500D01*
X147615503Y-93730500D01*
X147781536Y-93715115D01*
X147995528Y-93654229D01*
X148194689Y-93555058D01*
X148372236Y-93420981D01*
X148522124Y-93256562D01*
X148639247Y-93067401D01*
X148719618Y-92859940D01*
X148760500Y-92641243D01*
X148760500Y-92418757D01*
X148719618Y-92200060D01*
X148639247Y-91992599D01*
X148522124Y-91803438D01*
X148372236Y-91639019D01*
X148362286Y-91631505D01*
X148194693Y-91504944D01*
X148194690Y-91504942D01*
X148065271Y-91440499D01*
X147995528Y-91405771D01*
X147995524Y-91405770D01*
X147995522Y-91405769D01*
X147781537Y-91344885D01*
X147781524Y-91344883D01*
X147615509Y-91329500D01*
X147615503Y-91329500D01*
X147204497Y-91329500D01*
X147204490Y-91329500D01*
X147038475Y-91344883D01*
X147038462Y-91344885D01*
X146824477Y-91405769D01*
X146824472Y-91405771D01*
X146625309Y-91504942D01*
X146625306Y-91504944D01*
X146447767Y-91639016D01*
X146297874Y-91803440D01*
X146180756Y-91992594D01*
X146180751Y-91992604D01*
X146100382Y-92200057D01*
X146059500Y-92418753D01*
X146059500Y-92641246D01*
X144911689Y-92641246D01*
X144914195Y-92613134D01*
X144914195Y-92613120D01*
X144914195Y-92613117D01*
X144904345Y-92280900D01*
X144904345Y-92280890D01*
X144855269Y-91952142D01*
X144767655Y-91631506D01*
X144716326Y-91504944D01*
X144642733Y-91323483D01*
X144579329Y-91208475D01*
X144482258Y-91032397D01*
X144288481Y-90762335D01*
X144064123Y-90517086D01*
X143812334Y-90300094D01*
X143668407Y-90203152D01*
X143536648Y-90114405D01*
X143380253Y-90034134D01*
X143240933Y-89962626D01*
X142929344Y-89846887D01*
X142606253Y-89768813D01*
X142276195Y-89729500D01*
X142026977Y-89729500D01*
X141778201Y-89744263D01*
X141778184Y-89744265D01*
X141451049Y-89803059D01*
X141133147Y-89900137D01*
X140828954Y-90034134D01*
X140542773Y-90203152D01*
X140542752Y-90203166D01*
X140278557Y-90404855D01*
X140278547Y-90404864D01*
X140040068Y-90636378D01*
X140040063Y-90636383D01*
X140040063Y-90636384D01*
X139839168Y-90883969D01*
X139830625Y-90894497D01*
X139830623Y-90894498D01*
X139653189Y-91175562D01*
X139653188Y-91175564D01*
X139510239Y-91475644D01*
X139403787Y-91790515D01*
X139403784Y-91790525D01*
X139335321Y-92115778D01*
X139335320Y-92115787D01*
X139335320Y-92115788D01*
X139320602Y-92280890D01*
X139305804Y-92446879D01*
X139305804Y-92446882D01*
X138160500Y-92446882D01*
X138160500Y-92418757D01*
X138119618Y-92200060D01*
X138039247Y-91992599D01*
X137922124Y-91803438D01*
X137772236Y-91639019D01*
X137762286Y-91631505D01*
X137594693Y-91504944D01*
X137594690Y-91504942D01*
X137465271Y-91440499D01*
X137395528Y-91405771D01*
X137395524Y-91405770D01*
X137395522Y-91405769D01*
X137181537Y-91344885D01*
X137181524Y-91344883D01*
X137015509Y-91329500D01*
X137015503Y-91329500D01*
X136604497Y-91329500D01*
X136604490Y-91329500D01*
X136438475Y-91344883D01*
X136438462Y-91344885D01*
X136224477Y-91405769D01*
X136224472Y-91405771D01*
X136025309Y-91504942D01*
X136025306Y-91504944D01*
X135847767Y-91639016D01*
X135697874Y-91803440D01*
X135580756Y-91992594D01*
X135580751Y-91992604D01*
X135500382Y-92200057D01*
X135459500Y-92418753D01*
X135459500Y-92641246D01*
X129710499Y-92641246D01*
X129710500Y-92641243D01*
X129710500Y-92418757D01*
X129669618Y-92200060D01*
X129589247Y-91992599D01*
X129472124Y-91803438D01*
X129322236Y-91639019D01*
X129312286Y-91631505D01*
X129144693Y-91504944D01*
X129144690Y-91504942D01*
X129015271Y-91440499D01*
X128945528Y-91405771D01*
X128945524Y-91405770D01*
X128945522Y-91405769D01*
X128731537Y-91344885D01*
X128731524Y-91344883D01*
X128565509Y-91329500D01*
X128565503Y-91329500D01*
X128154497Y-91329500D01*
X128154490Y-91329500D01*
X127988475Y-91344883D01*
X127988462Y-91344885D01*
X127774477Y-91405769D01*
X127774472Y-91405771D01*
X127575309Y-91504942D01*
X127575306Y-91504944D01*
X127397767Y-91639016D01*
X127247874Y-91803440D01*
X127130756Y-91992594D01*
X127130751Y-91992604D01*
X127050382Y-92200057D01*
X127009500Y-92418753D01*
X127009500Y-92641246D01*
X125861689Y-92641246D01*
X125864195Y-92613134D01*
X125864195Y-92613120D01*
X125864195Y-92613117D01*
X125854345Y-92280900D01*
X125854345Y-92280890D01*
X125805269Y-91952142D01*
X125717655Y-91631506D01*
X125666326Y-91504944D01*
X125592733Y-91323483D01*
X125529329Y-91208475D01*
X125432258Y-91032397D01*
X125238481Y-90762335D01*
X125014123Y-90517086D01*
X124762334Y-90300094D01*
X124618407Y-90203152D01*
X124486648Y-90114405D01*
X124330253Y-90034134D01*
X124244272Y-89990003D01*
X136844529Y-89990003D01*
X136864378Y-90229556D01*
X136864378Y-90229557D01*
X136882242Y-90300099D01*
X136908769Y-90404855D01*
X136923392Y-90462597D01*
X136999620Y-90636378D01*
X137019951Y-90682728D01*
X137151429Y-90883969D01*
X137314236Y-91060825D01*
X137503933Y-91208472D01*
X137715344Y-91322882D01*
X137942703Y-91400934D01*
X138179808Y-91440500D01*
X138420192Y-91440500D01*
X138657297Y-91400934D01*
X138884656Y-91322882D01*
X139096067Y-91208472D01*
X139285764Y-91060825D01*
X139448571Y-90883969D01*
X139580049Y-90682728D01*
X139676610Y-90462591D01*
X139735620Y-90229563D01*
X139735620Y-90229559D01*
X139735621Y-90229557D01*
X139735621Y-90229556D01*
X139755471Y-89990003D01*
X139755471Y-89989996D01*
X139735621Y-89750443D01*
X139735621Y-89750442D01*
X139734057Y-89744264D01*
X139676610Y-89517409D01*
X139580049Y-89297272D01*
X139448571Y-89096031D01*
X139285764Y-88919175D01*
X139096067Y-88771528D01*
X139007715Y-88723714D01*
X138884655Y-88657117D01*
X138657295Y-88579065D01*
X138420194Y-88539500D01*
X138420192Y-88539500D01*
X138179808Y-88539500D01*
X138179805Y-88539500D01*
X137942704Y-88579065D01*
X137715344Y-88657117D01*
X137503940Y-88771524D01*
X137503928Y-88771531D01*
X137314234Y-88919176D01*
X137151427Y-89096033D01*
X137019951Y-89297271D01*
X136923392Y-89517402D01*
X136864378Y-89750442D01*
X136864378Y-89750443D01*
X136844529Y-89989996D01*
X136844529Y-89990003D01*
X124244272Y-89990003D01*
X124190933Y-89962626D01*
X123879344Y-89846887D01*
X123556253Y-89768813D01*
X123226195Y-89729500D01*
X122976977Y-89729500D01*
X122728201Y-89744263D01*
X122728184Y-89744265D01*
X122401049Y-89803059D01*
X122083147Y-89900137D01*
X121778954Y-90034134D01*
X121492773Y-90203152D01*
X121492752Y-90203166D01*
X121228557Y-90404855D01*
X121228547Y-90404864D01*
X120990068Y-90636378D01*
X120990063Y-90636383D01*
X120990063Y-90636384D01*
X120789168Y-90883969D01*
X120780625Y-90894497D01*
X120780623Y-90894498D01*
X120603189Y-91175562D01*
X120603188Y-91175564D01*
X120460239Y-91475644D01*
X120353787Y-91790515D01*
X120353784Y-91790525D01*
X120285321Y-92115778D01*
X120285320Y-92115787D01*
X120285320Y-92115788D01*
X120270602Y-92280890D01*
X120255804Y-92446879D01*
X120255804Y-92446882D01*
X119110500Y-92446882D01*
X119110500Y-92418757D01*
X119069618Y-92200060D01*
X118989247Y-91992599D01*
X118872124Y-91803438D01*
X118722236Y-91639019D01*
X118712286Y-91631505D01*
X118544693Y-91504944D01*
X118544690Y-91504942D01*
X118415271Y-91440499D01*
X118345528Y-91405771D01*
X118345524Y-91405770D01*
X118345522Y-91405769D01*
X118131537Y-91344885D01*
X118131524Y-91344883D01*
X117965509Y-91329500D01*
X117965503Y-91329500D01*
X117554497Y-91329500D01*
X117554490Y-91329500D01*
X117388475Y-91344883D01*
X117388462Y-91344885D01*
X117174477Y-91405769D01*
X117174472Y-91405771D01*
X116975309Y-91504942D01*
X116975306Y-91504944D01*
X116797767Y-91639016D01*
X116647874Y-91803440D01*
X116530756Y-91992594D01*
X116530751Y-91992604D01*
X116450382Y-92200057D01*
X116409500Y-92418753D01*
X116409500Y-92641246D01*
X115275500Y-92641246D01*
X115275500Y-89990003D01*
X117794529Y-89990003D01*
X117814378Y-90229556D01*
X117814378Y-90229557D01*
X117832242Y-90300099D01*
X117858769Y-90404855D01*
X117873392Y-90462597D01*
X117949620Y-90636378D01*
X117969951Y-90682728D01*
X118101429Y-90883969D01*
X118264236Y-91060825D01*
X118453933Y-91208472D01*
X118665344Y-91322882D01*
X118892703Y-91400934D01*
X119129808Y-91440500D01*
X119370192Y-91440500D01*
X119607297Y-91400934D01*
X119834656Y-91322882D01*
X120046067Y-91208472D01*
X120235764Y-91060825D01*
X120398571Y-90883969D01*
X120530049Y-90682728D01*
X120626610Y-90462591D01*
X120685620Y-90229563D01*
X120685620Y-90229559D01*
X120685621Y-90229557D01*
X120685621Y-90229556D01*
X120705471Y-89990003D01*
X120705471Y-89989996D01*
X120685621Y-89750443D01*
X120685621Y-89750442D01*
X120684057Y-89744264D01*
X120626610Y-89517409D01*
X120530049Y-89297272D01*
X120398571Y-89096031D01*
X120235764Y-88919175D01*
X120046067Y-88771528D01*
X119957715Y-88723714D01*
X119834655Y-88657117D01*
X119607295Y-88579065D01*
X119370194Y-88539500D01*
X119370192Y-88539500D01*
X119129808Y-88539500D01*
X119129805Y-88539500D01*
X118892704Y-88579065D01*
X118665344Y-88657117D01*
X118453940Y-88771524D01*
X118453928Y-88771531D01*
X118264234Y-88919176D01*
X118101427Y-89096033D01*
X117969951Y-89297271D01*
X117873392Y-89517402D01*
X117814378Y-89750442D01*
X117814378Y-89750443D01*
X117794529Y-89989996D01*
X117794529Y-89990003D01*
X115275500Y-89990003D01*
X115275500Y-87430003D01*
X124144529Y-87430003D01*
X124164378Y-87669556D01*
X124164378Y-87669557D01*
X124185957Y-87754769D01*
X124212942Y-87861334D01*
X124223392Y-87902597D01*
X124258919Y-87983589D01*
X124319951Y-88122728D01*
X124451429Y-88323969D01*
X124614236Y-88500825D01*
X124803933Y-88648472D01*
X125015344Y-88762882D01*
X125242703Y-88840934D01*
X125479808Y-88880500D01*
X128180192Y-88880500D01*
X128417297Y-88840934D01*
X128644656Y-88762882D01*
X128856067Y-88648472D01*
X129045764Y-88500825D01*
X129208571Y-88323969D01*
X129340049Y-88122728D01*
X129436610Y-87902591D01*
X129447057Y-87861333D01*
X129475517Y-87819473D01*
X129518793Y-87805500D01*
X129828811Y-87805500D01*
X129876377Y-87822813D01*
X129881137Y-87827174D01*
X130317771Y-88263808D01*
X130339163Y-88309684D01*
X130336259Y-88337615D01*
X130279700Y-88524064D01*
X130266595Y-88657117D01*
X130259417Y-88730000D01*
X130279700Y-88935934D01*
X130339768Y-89133954D01*
X130437315Y-89316450D01*
X130568590Y-89476410D01*
X130728550Y-89607685D01*
X130911046Y-89705232D01*
X131109066Y-89765300D01*
X131315000Y-89785583D01*
X131520934Y-89765300D01*
X131718954Y-89705232D01*
X131901450Y-89607685D01*
X132061410Y-89476410D01*
X132192685Y-89316450D01*
X132290232Y-89133954D01*
X132350300Y-88935934D01*
X132370583Y-88730000D01*
X132799417Y-88730000D01*
X132819700Y-88935934D01*
X132879768Y-89133954D01*
X132977315Y-89316450D01*
X133108590Y-89476410D01*
X133268550Y-89607685D01*
X133451046Y-89705232D01*
X133649066Y-89765300D01*
X133855000Y-89785583D01*
X134060934Y-89765300D01*
X134258954Y-89705232D01*
X134441450Y-89607685D01*
X134601410Y-89476410D01*
X134732685Y-89316450D01*
X134830232Y-89133954D01*
X134890300Y-88935934D01*
X134910583Y-88730000D01*
X134890300Y-88524066D01*
X134833740Y-88337611D01*
X134836500Y-88287070D01*
X134852225Y-88263810D01*
X135288862Y-87827174D01*
X135334740Y-87805782D01*
X135341189Y-87805500D01*
X143191207Y-87805500D01*
X143238773Y-87822813D01*
X143262943Y-87861334D01*
X143273391Y-87902594D01*
X143273393Y-87902599D01*
X143369949Y-88122726D01*
X143485653Y-88299822D01*
X143501429Y-88323969D01*
X143664236Y-88500825D01*
X143853933Y-88648472D01*
X144065344Y-88762882D01*
X144292703Y-88840934D01*
X144529808Y-88880500D01*
X147230192Y-88880500D01*
X147467297Y-88840934D01*
X147694656Y-88762882D01*
X147906067Y-88648472D01*
X148095764Y-88500825D01*
X148258571Y-88323969D01*
X148390049Y-88122728D01*
X148486610Y-87902591D01*
X148545620Y-87669563D01*
X148545620Y-87669559D01*
X148545621Y-87669557D01*
X148545621Y-87669556D01*
X148565471Y-87430003D01*
X148565471Y-87429996D01*
X148545621Y-87190443D01*
X148545621Y-87190442D01*
X148545620Y-87190437D01*
X148486610Y-86957409D01*
X148390049Y-86737272D01*
X148258571Y-86536031D01*
X148095764Y-86359175D01*
X147906067Y-86211528D01*
X147817715Y-86163714D01*
X147694655Y-86097117D01*
X147467295Y-86019065D01*
X147230194Y-85979500D01*
X147230192Y-85979500D01*
X147104674Y-85979500D01*
X144770192Y-85979500D01*
X144529808Y-85979500D01*
X144529805Y-85979500D01*
X144292704Y-86019065D01*
X144065344Y-86097117D01*
X143853940Y-86211524D01*
X143853928Y-86211531D01*
X143664234Y-86359176D01*
X143501427Y-86536033D01*
X143369949Y-86737273D01*
X143273393Y-86957400D01*
X143273391Y-86957405D01*
X143262943Y-86998666D01*
X143234483Y-87040527D01*
X143191207Y-87054500D01*
X135201618Y-87054500D01*
X135186433Y-87052925D01*
X135170732Y-87049633D01*
X135133963Y-87054216D01*
X135129385Y-87054500D01*
X135123877Y-87054500D01*
X135101623Y-87058214D01*
X135100112Y-87058434D01*
X135046376Y-87065133D01*
X135040499Y-87066883D01*
X135040419Y-87066616D01*
X135037096Y-87067681D01*
X135037187Y-87067945D01*
X135031385Y-87069936D01*
X134983797Y-87095690D01*
X134982439Y-87096390D01*
X134933788Y-87120174D01*
X134928798Y-87123737D01*
X134928637Y-87123511D01*
X134925837Y-87125599D01*
X134926008Y-87125818D01*
X134921175Y-87129578D01*
X134884504Y-87169412D01*
X134883446Y-87170515D01*
X134321190Y-87732770D01*
X134275313Y-87754162D01*
X134247383Y-87751258D01*
X134060935Y-87694700D01*
X133855000Y-87674417D01*
X133649064Y-87694700D01*
X133451043Y-87754769D01*
X133268549Y-87852315D01*
X133108590Y-87983589D01*
X133108589Y-87983590D01*
X132977315Y-88143549D01*
X132879769Y-88326043D01*
X132819700Y-88524064D01*
X132806595Y-88657117D01*
X132799417Y-88730000D01*
X132370583Y-88730000D01*
X132350300Y-88524066D01*
X132290232Y-88326046D01*
X132192685Y-88143550D01*
X132061410Y-87983590D01*
X131901450Y-87852315D01*
X131846256Y-87822813D01*
X131718956Y-87754769D01*
X131718955Y-87754768D01*
X131718954Y-87754768D01*
X131607158Y-87720855D01*
X131520935Y-87694700D01*
X131315000Y-87674417D01*
X131109064Y-87694700D01*
X130922615Y-87751258D01*
X130872071Y-87748498D01*
X130848808Y-87732770D01*
X130313479Y-87197441D01*
X130303853Y-87185586D01*
X130295086Y-87172166D01*
X130295083Y-87172163D01*
X130265853Y-87149412D01*
X130262415Y-87146377D01*
X130258518Y-87142480D01*
X130249004Y-87135687D01*
X130240123Y-87129346D01*
X130238897Y-87128432D01*
X130224864Y-87117510D01*
X130196189Y-87095191D01*
X130196186Y-87095190D01*
X130196185Y-87095189D01*
X130190795Y-87092272D01*
X130190928Y-87092024D01*
X130187829Y-87090429D01*
X130187706Y-87090682D01*
X130182201Y-87087990D01*
X130130347Y-87072552D01*
X130128892Y-87072086D01*
X130077661Y-87054499D01*
X130071615Y-87053491D01*
X130071661Y-87053214D01*
X130068206Y-87052710D01*
X130068172Y-87052991D01*
X130062089Y-87052232D01*
X130062088Y-87052232D01*
X130062086Y-87052232D01*
X130008003Y-87054468D01*
X130006475Y-87054500D01*
X129518793Y-87054500D01*
X129471227Y-87037187D01*
X129447057Y-86998666D01*
X129436610Y-86957409D01*
X129428386Y-86938660D01*
X129340050Y-86737273D01*
X129208572Y-86536033D01*
X129208571Y-86536031D01*
X129045764Y-86359175D01*
X128856067Y-86211528D01*
X128767715Y-86163714D01*
X128644655Y-86097117D01*
X128417295Y-86019065D01*
X128180194Y-85979500D01*
X128180192Y-85979500D01*
X128054674Y-85979500D01*
X125720192Y-85979500D01*
X125479808Y-85979500D01*
X125479805Y-85979500D01*
X125242704Y-86019065D01*
X125015344Y-86097117D01*
X124803940Y-86211524D01*
X124803928Y-86211531D01*
X124614234Y-86359176D01*
X124451427Y-86536033D01*
X124319951Y-86737271D01*
X124223392Y-86957402D01*
X124164378Y-87190442D01*
X124164378Y-87190443D01*
X124144529Y-87429996D01*
X124144529Y-87430003D01*
X115275500Y-87430003D01*
X115275500Y-83005006D01*
X130579390Y-83005006D01*
X130599803Y-83290425D01*
X130660630Y-83570042D01*
X130660635Y-83570060D01*
X130760630Y-83838156D01*
X130897772Y-84089313D01*
X130983517Y-84203855D01*
X131069261Y-84318395D01*
X131271605Y-84520739D01*
X131443415Y-84649354D01*
X131500686Y-84692227D01*
X131751843Y-84829369D01*
X132019939Y-84929364D01*
X132019945Y-84929365D01*
X132019954Y-84929369D01*
X132299572Y-84990196D01*
X132513539Y-85005499D01*
X132513544Y-85005500D01*
X132513552Y-85005500D01*
X132656456Y-85005500D01*
X132656459Y-85005499D01*
X132870428Y-84990196D01*
X133150046Y-84929369D01*
X133150057Y-84929364D01*
X133150060Y-84929364D01*
X133418156Y-84829369D01*
X133418156Y-84829368D01*
X133418161Y-84829367D01*
X133669315Y-84692226D01*
X133898395Y-84520739D01*
X134100739Y-84318395D01*
X134272226Y-84089315D01*
X134409367Y-83838161D01*
X134509369Y-83570046D01*
X134570196Y-83290428D01*
X134590610Y-83005000D01*
X134590610Y-83004993D01*
X134570196Y-82719574D01*
X134570196Y-82719572D01*
X134509369Y-82439954D01*
X134509365Y-82439945D01*
X134509364Y-82439939D01*
X134409369Y-82171843D01*
X134272227Y-81920686D01*
X134185079Y-81804270D01*
X134100739Y-81691605D01*
X133898395Y-81489261D01*
X133783855Y-81403517D01*
X133669313Y-81317772D01*
X133418156Y-81180630D01*
X133150060Y-81080635D01*
X133150042Y-81080630D01*
X132870425Y-81019803D01*
X132656460Y-81004500D01*
X132656448Y-81004500D01*
X132513552Y-81004500D01*
X132513539Y-81004500D01*
X132299574Y-81019803D01*
X132019957Y-81080630D01*
X132019939Y-81080635D01*
X131751843Y-81180630D01*
X131500686Y-81317772D01*
X131271602Y-81489263D01*
X131069263Y-81691602D01*
X130897772Y-81920686D01*
X130760630Y-82171843D01*
X130660635Y-82439939D01*
X130660630Y-82439957D01*
X130599803Y-82719574D01*
X130579390Y-83004993D01*
X130579390Y-83005006D01*
X115275500Y-83005006D01*
X115275500Y-79734500D01*
X115292813Y-79686934D01*
X115336650Y-79661624D01*
X115349500Y-79660500D01*
X115379592Y-79660500D01*
X115379594Y-79660500D01*
X115447657Y-79654315D01*
X115604270Y-79605512D01*
X115744653Y-79520648D01*
X115860648Y-79404653D01*
X115945512Y-79264270D01*
X115994315Y-79107657D01*
X116000500Y-79039594D01*
X116000500Y-78080406D01*
X115994315Y-78012343D01*
X115967971Y-77927803D01*
X115945513Y-77855732D01*
X115864623Y-77721923D01*
X115854831Y-77672260D01*
X115879253Y-77627922D01*
X115926461Y-77609655D01*
X115974366Y-77626006D01*
X115980277Y-77631314D01*
X116311518Y-77962555D01*
X116321142Y-77974406D01*
X116329915Y-77987834D01*
X116329918Y-77987838D01*
X116359154Y-78010594D01*
X116362591Y-78013628D01*
X116366484Y-78017521D01*
X116384858Y-78030639D01*
X116386085Y-78031554D01*
X116389760Y-78034414D01*
X116428811Y-78064809D01*
X116428812Y-78064809D01*
X116428813Y-78064810D01*
X116434206Y-78067729D01*
X116434071Y-78067978D01*
X116437163Y-78069569D01*
X116437288Y-78069315D01*
X116442798Y-78072008D01*
X116442801Y-78072010D01*
X116494710Y-78087463D01*
X116496083Y-78087903D01*
X116547340Y-78105500D01*
X116547341Y-78105500D01*
X116553391Y-78106510D01*
X116553344Y-78106786D01*
X116556793Y-78107289D01*
X116556828Y-78107009D01*
X116562905Y-78107766D01*
X116562912Y-78107768D01*
X116595911Y-78106403D01*
X116616997Y-78105532D01*
X116618525Y-78105500D01*
X116827347Y-78105500D01*
X116874913Y-78122813D01*
X116888910Y-78138440D01*
X117007305Y-78315966D01*
X117491699Y-79042286D01*
X117491700Y-79042287D01*
X117603711Y-79183423D01*
X117603713Y-79183425D01*
X117782101Y-79344553D01*
X117984577Y-79474120D01*
X117984585Y-79474123D01*
X117984588Y-79474125D01*
X118205617Y-79568594D01*
X118439184Y-79625396D01*
X118439187Y-79625396D01*
X118439194Y-79625398D01*
X118643765Y-79640401D01*
X118678932Y-79642981D01*
X118678932Y-79642980D01*
X118678934Y-79642981D01*
X118823428Y-79629630D01*
X118918291Y-79620866D01*
X118918293Y-79620865D01*
X118918298Y-79620865D01*
X119150757Y-79559652D01*
X119369971Y-79461013D01*
X119569959Y-79327637D01*
X119745267Y-79163164D01*
X119891112Y-78972080D01*
X120003517Y-78759596D01*
X120079415Y-78531508D01*
X120116736Y-78294039D01*
X120115658Y-78180200D01*
X120132521Y-78132472D01*
X120176117Y-78106749D01*
X120189656Y-78105500D01*
X122120364Y-78105500D01*
X122167930Y-78122813D01*
X122193240Y-78166650D01*
X122184450Y-78216500D01*
X122165817Y-78237894D01*
X122136645Y-78260600D01*
X122074234Y-78309176D01*
X121911427Y-78486033D01*
X121779951Y-78687271D01*
X121683392Y-78907402D01*
X121624378Y-79140442D01*
X121624378Y-79140443D01*
X121604529Y-79379996D01*
X121604529Y-79380003D01*
X121624378Y-79619556D01*
X121624378Y-79619557D01*
X121683392Y-79852597D01*
X121771949Y-80054486D01*
X121779951Y-80072728D01*
X121911429Y-80273969D01*
X122074236Y-80450825D01*
X122263933Y-80598472D01*
X122475344Y-80712882D01*
X122702703Y-80790934D01*
X122939808Y-80830500D01*
X125780192Y-80830500D01*
X126017297Y-80790934D01*
X126244656Y-80712882D01*
X126456067Y-80598472D01*
X126645764Y-80450825D01*
X126808571Y-80273969D01*
X126940049Y-80072728D01*
X127036610Y-79852591D01*
X127095620Y-79619563D01*
X127095620Y-79619559D01*
X127095621Y-79619557D01*
X127095621Y-79619556D01*
X127115471Y-79380003D01*
X127115471Y-79379996D01*
X127095621Y-79140443D01*
X127095621Y-79140442D01*
X127087319Y-79107657D01*
X127036610Y-78907409D01*
X126940049Y-78687272D01*
X126808571Y-78486031D01*
X126645764Y-78309175D01*
X126554183Y-78237894D01*
X126527281Y-78195019D01*
X126534234Y-78144879D01*
X126571789Y-78110939D01*
X126599636Y-78105500D01*
X128568383Y-78105500D01*
X128583567Y-78107074D01*
X128599268Y-78110367D01*
X128636036Y-78105783D01*
X128640615Y-78105500D01*
X128646111Y-78105500D01*
X128646114Y-78105500D01*
X128668387Y-78101782D01*
X128669887Y-78101564D01*
X128675604Y-78100851D01*
X128723626Y-78094866D01*
X128723629Y-78094864D01*
X128729507Y-78093115D01*
X128729587Y-78093386D01*
X128732904Y-78092323D01*
X128732812Y-78092055D01*
X128738606Y-78090065D01*
X128738610Y-78090065D01*
X128786235Y-78064290D01*
X128787535Y-78063622D01*
X128836211Y-78039826D01*
X128836213Y-78039823D01*
X128841204Y-78036261D01*
X128841369Y-78036493D01*
X128844158Y-78034414D01*
X128843983Y-78034189D01*
X128848821Y-78030422D01*
X128848821Y-78030421D01*
X128848826Y-78030419D01*
X128885535Y-77990541D01*
X128886517Y-77989518D01*
X130138175Y-76737861D01*
X130184051Y-76716470D01*
X130232945Y-76729571D01*
X130261979Y-76771035D01*
X130264500Y-76790188D01*
X130264499Y-78104672D01*
X130265020Y-78107289D01*
X130279034Y-78177740D01*
X130334399Y-78260601D01*
X130417260Y-78315966D01*
X130490326Y-78330500D01*
X130490328Y-78330500D01*
X132139672Y-78330500D01*
X132139674Y-78330500D01*
X132212740Y-78315966D01*
X132295601Y-78260601D01*
X132350966Y-78177740D01*
X132365500Y-78104674D01*
X132365500Y-76604500D01*
X132382813Y-76556934D01*
X132426650Y-76531624D01*
X132439500Y-76530500D01*
X132730500Y-76530500D01*
X132778066Y-76547813D01*
X132803376Y-76591650D01*
X132804500Y-76604500D01*
X132804500Y-78104674D01*
X132819034Y-78177740D01*
X132874399Y-78260601D01*
X132957260Y-78315966D01*
X133030326Y-78330500D01*
X133030328Y-78330500D01*
X134679672Y-78330500D01*
X134679674Y-78330500D01*
X134752740Y-78315966D01*
X134835601Y-78260601D01*
X134890966Y-78177740D01*
X134905500Y-78104674D01*
X134905500Y-76604499D01*
X134922813Y-76556934D01*
X134966650Y-76531624D01*
X134979500Y-76530500D01*
X135648811Y-76530500D01*
X135696377Y-76547813D01*
X135701137Y-76552174D01*
X135756525Y-76607562D01*
X135777917Y-76653438D01*
X135769612Y-76694488D01*
X135766484Y-76700400D01*
X135690584Y-76928494D01*
X135653264Y-77165960D01*
X135653263Y-77165964D01*
X135655538Y-77406338D01*
X135697344Y-77643052D01*
X135772614Y-77855732D01*
X135777545Y-77869664D01*
X135777546Y-77869665D01*
X135864791Y-78027300D01*
X135864807Y-78027326D01*
X136541699Y-79042286D01*
X136541700Y-79042287D01*
X136653711Y-79183423D01*
X136653713Y-79183425D01*
X136832101Y-79344553D01*
X137034577Y-79474120D01*
X137034585Y-79474123D01*
X137034588Y-79474125D01*
X137255617Y-79568594D01*
X137489184Y-79625396D01*
X137489187Y-79625396D01*
X137489194Y-79625398D01*
X137693766Y-79640401D01*
X137728932Y-79642981D01*
X137728932Y-79642980D01*
X137728934Y-79642981D01*
X137873428Y-79629630D01*
X137968291Y-79620866D01*
X137968293Y-79620865D01*
X137968298Y-79620865D01*
X138200757Y-79559652D01*
X138419971Y-79461013D01*
X138619959Y-79327637D01*
X138795267Y-79163164D01*
X138941112Y-78972080D01*
X139053517Y-78759596D01*
X139129415Y-78531508D01*
X139166736Y-78294039D01*
X139165658Y-78180200D01*
X139182521Y-78132472D01*
X139226117Y-78106749D01*
X139239656Y-78105500D01*
X141170364Y-78105500D01*
X141217930Y-78122813D01*
X141243240Y-78166650D01*
X141234450Y-78216500D01*
X141215817Y-78237894D01*
X141186645Y-78260600D01*
X141124234Y-78309176D01*
X140961427Y-78486033D01*
X140829951Y-78687271D01*
X140733392Y-78907402D01*
X140674378Y-79140442D01*
X140674378Y-79140443D01*
X140654529Y-79379996D01*
X140654529Y-79380003D01*
X140674378Y-79619556D01*
X140674378Y-79619557D01*
X140733392Y-79852597D01*
X140821949Y-80054486D01*
X140829951Y-80072728D01*
X140961429Y-80273969D01*
X141124236Y-80450825D01*
X141313933Y-80598472D01*
X141525344Y-80712882D01*
X141752703Y-80790934D01*
X141989808Y-80830500D01*
X144830192Y-80830500D01*
X145067297Y-80790934D01*
X145294656Y-80712882D01*
X145506067Y-80598472D01*
X145695764Y-80450825D01*
X145858571Y-80273969D01*
X145990049Y-80072728D01*
X146086610Y-79852591D01*
X146145620Y-79619563D01*
X146145620Y-79619559D01*
X146145621Y-79619557D01*
X146145621Y-79619556D01*
X146165471Y-79380003D01*
X146165471Y-79379996D01*
X146145621Y-79140443D01*
X146145621Y-79140442D01*
X146137319Y-79107657D01*
X146086610Y-78907409D01*
X145990049Y-78687272D01*
X145858571Y-78486031D01*
X145695764Y-78309175D01*
X145604183Y-78237894D01*
X145577281Y-78195019D01*
X145584234Y-78144879D01*
X145621789Y-78110939D01*
X145649636Y-78105500D01*
X149055500Y-78105500D01*
X149103066Y-78122813D01*
X149128376Y-78166650D01*
X149129500Y-78179500D01*
X149129500Y-79039601D01*
X149135684Y-79107651D01*
X149135686Y-79107661D01*
X149184486Y-79264267D01*
X149184488Y-79264270D01*
X149269352Y-79404653D01*
X149385347Y-79520648D01*
X149449865Y-79559650D01*
X149525732Y-79605513D01*
X149574999Y-79620865D01*
X149682343Y-79654315D01*
X149750406Y-79660500D01*
X149750408Y-79660500D01*
X150709592Y-79660500D01*
X150709594Y-79660500D01*
X150777657Y-79654315D01*
X150934270Y-79605512D01*
X151074653Y-79520648D01*
X151190648Y-79404653D01*
X151275512Y-79264270D01*
X151324315Y-79107657D01*
X151330500Y-79039594D01*
X151330500Y-78080406D01*
X151324315Y-78012343D01*
X151297971Y-77927803D01*
X151275513Y-77855732D01*
X151190647Y-77715346D01*
X151074653Y-77599352D01*
X150934267Y-77514486D01*
X150777661Y-77465686D01*
X150777658Y-77465685D01*
X150777657Y-77465685D01*
X150777655Y-77465684D01*
X150777651Y-77465684D01*
X150709601Y-77459500D01*
X150709594Y-77459500D01*
X149750406Y-77459500D01*
X149750396Y-77459500D01*
X149702538Y-77463849D01*
X149653600Y-77450912D01*
X149645865Y-77444443D01*
X149645853Y-77444458D01*
X149643522Y-77442484D01*
X149643518Y-77442480D01*
X149637735Y-77438351D01*
X149625123Y-77429346D01*
X149623897Y-77428432D01*
X149595505Y-77406334D01*
X149581189Y-77395191D01*
X149581186Y-77395190D01*
X149581185Y-77395189D01*
X149575795Y-77392272D01*
X149575928Y-77392024D01*
X149572829Y-77390429D01*
X149572706Y-77390682D01*
X149567197Y-77387988D01*
X149552023Y-77383471D01*
X149511375Y-77353306D01*
X149499626Y-77304069D01*
X149520812Y-77260223D01*
X149643516Y-77137519D01*
X149689391Y-77116128D01*
X149702536Y-77116149D01*
X149750406Y-77120500D01*
X149750408Y-77120500D01*
X150709592Y-77120500D01*
X150709594Y-77120500D01*
X150777657Y-77114315D01*
X150934270Y-77065512D01*
X151074653Y-76980648D01*
X151190648Y-76864653D01*
X151275512Y-76724270D01*
X151324315Y-76567657D01*
X151330500Y-76499594D01*
X151330500Y-75540406D01*
X151324315Y-75472343D01*
X151293550Y-75373616D01*
X151275513Y-75315732D01*
X151275512Y-75315730D01*
X151190648Y-75175347D01*
X151074653Y-75059352D01*
X151039331Y-75037999D01*
X150934267Y-74974486D01*
X150777661Y-74925686D01*
X150777658Y-74925685D01*
X150777657Y-74925685D01*
X150777655Y-74925684D01*
X150777651Y-74925684D01*
X150709601Y-74919500D01*
X150709594Y-74919500D01*
X149750406Y-74919500D01*
X149750398Y-74919500D01*
X149682348Y-74925684D01*
X149682338Y-74925686D01*
X149525732Y-74974486D01*
X149385346Y-75059352D01*
X149269352Y-75175346D01*
X149184486Y-75315732D01*
X149135686Y-75472338D01*
X149135684Y-75472348D01*
X149129500Y-75540398D01*
X149129500Y-76499603D01*
X149133849Y-76547460D01*
X149120912Y-76596397D01*
X149112479Y-76606482D01*
X148836136Y-76882826D01*
X148790260Y-76904218D01*
X148783810Y-76904500D01*
X140726190Y-76904500D01*
X140678624Y-76887187D01*
X140673864Y-76882826D01*
X139263479Y-75472441D01*
X139253853Y-75460586D01*
X139245086Y-75447166D01*
X139245083Y-75447163D01*
X139215853Y-75424412D01*
X139212415Y-75421377D01*
X139208518Y-75417480D01*
X139199004Y-75410687D01*
X139190123Y-75404346D01*
X139188897Y-75403432D01*
X139174864Y-75392510D01*
X139146189Y-75370191D01*
X139146186Y-75370190D01*
X139146185Y-75370189D01*
X139140795Y-75367272D01*
X139140928Y-75367024D01*
X139137829Y-75365429D01*
X139137706Y-75365682D01*
X139132201Y-75362990D01*
X139080347Y-75347552D01*
X139078892Y-75347086D01*
X139027661Y-75329499D01*
X139021615Y-75328491D01*
X139021661Y-75328214D01*
X139018206Y-75327710D01*
X139018172Y-75327991D01*
X139012089Y-75327232D01*
X139012088Y-75327232D01*
X139012086Y-75327232D01*
X138958003Y-75329468D01*
X138956475Y-75329500D01*
X129991617Y-75329500D01*
X129976432Y-75327925D01*
X129960731Y-75324633D01*
X129923965Y-75329216D01*
X129919386Y-75329500D01*
X129913879Y-75329500D01*
X129891613Y-75333216D01*
X129890102Y-75333436D01*
X129836374Y-75340134D01*
X129830498Y-75341884D01*
X129830417Y-75341615D01*
X129827102Y-75342677D01*
X129827193Y-75342942D01*
X129821392Y-75344933D01*
X129773789Y-75370694D01*
X129772431Y-75371393D01*
X129723787Y-75395174D01*
X129718797Y-75398737D01*
X129718636Y-75398511D01*
X129715837Y-75400598D01*
X129716008Y-75400818D01*
X129711175Y-75404578D01*
X129674515Y-75444400D01*
X129673457Y-75445503D01*
X128236136Y-76882826D01*
X128190260Y-76904218D01*
X128183810Y-76904500D01*
X121756189Y-76904500D01*
X121708623Y-76887187D01*
X121703863Y-76882826D01*
X120806917Y-75985880D01*
X119908479Y-75087441D01*
X119898853Y-75075586D01*
X119890086Y-75062166D01*
X119890083Y-75062163D01*
X119860853Y-75039412D01*
X119857415Y-75036377D01*
X119855530Y-75034492D01*
X119853518Y-75032480D01*
X119844004Y-75025687D01*
X119835123Y-75019346D01*
X119833897Y-75018432D01*
X119819864Y-75007510D01*
X119791189Y-74985191D01*
X119791186Y-74985190D01*
X119791185Y-74985189D01*
X119785795Y-74982272D01*
X119785928Y-74982024D01*
X119782829Y-74980429D01*
X119782706Y-74980682D01*
X119777201Y-74977990D01*
X119725347Y-74962552D01*
X119723892Y-74962086D01*
X119672661Y-74944499D01*
X119666615Y-74943491D01*
X119666661Y-74943214D01*
X119663206Y-74942710D01*
X119663172Y-74942991D01*
X119657089Y-74942232D01*
X119657088Y-74942232D01*
X119657086Y-74942232D01*
X119603003Y-74944468D01*
X119601475Y-74944500D01*
X116926189Y-74944500D01*
X116878623Y-74927187D01*
X116873863Y-74922826D01*
X116017520Y-74066483D01*
X115996128Y-74020607D01*
X115996150Y-74007459D01*
X116000499Y-73959601D01*
X116000500Y-73959594D01*
X116000500Y-73591246D01*
X116409500Y-73591246D01*
X116450382Y-73809942D01*
X116507031Y-73956168D01*
X116530753Y-74017401D01*
X116647876Y-74206562D01*
X116797764Y-74370981D01*
X116797767Y-74370983D01*
X116975306Y-74505055D01*
X116975309Y-74505057D01*
X116975310Y-74505057D01*
X116975311Y-74505058D01*
X117174472Y-74604229D01*
X117388464Y-74665115D01*
X117554497Y-74680500D01*
X117554499Y-74680500D01*
X117965501Y-74680500D01*
X117965503Y-74680500D01*
X118131536Y-74665115D01*
X118345528Y-74604229D01*
X118544689Y-74505058D01*
X118722236Y-74370981D01*
X118872124Y-74206562D01*
X118989247Y-74017401D01*
X119069618Y-73809940D01*
X119110500Y-73591243D01*
X119110500Y-73368757D01*
X119069618Y-73150060D01*
X118989247Y-72942599D01*
X118872124Y-72753438D01*
X118722236Y-72589019D01*
X118629982Y-72519352D01*
X118544693Y-72454944D01*
X118544690Y-72454942D01*
X118405601Y-72385684D01*
X118345528Y-72355771D01*
X118345524Y-72355770D01*
X118345522Y-72355769D01*
X118131537Y-72294885D01*
X118131524Y-72294883D01*
X117965509Y-72279500D01*
X117965503Y-72279500D01*
X117554497Y-72279500D01*
X117554490Y-72279500D01*
X117388475Y-72294883D01*
X117388462Y-72294885D01*
X117174477Y-72355769D01*
X117174472Y-72355771D01*
X116975309Y-72454942D01*
X116975306Y-72454944D01*
X116797767Y-72589016D01*
X116797764Y-72589018D01*
X116797764Y-72589019D01*
X116707831Y-72687670D01*
X116647874Y-72753440D01*
X116530756Y-72942594D01*
X116530751Y-72942604D01*
X116450382Y-73150057D01*
X116409500Y-73368753D01*
X116409500Y-73591246D01*
X116000500Y-73591246D01*
X116000500Y-73000406D01*
X115994315Y-72932343D01*
X115945512Y-72775730D01*
X115860648Y-72635347D01*
X115744653Y-72519352D01*
X115624920Y-72446971D01*
X115604267Y-72434486D01*
X115447661Y-72385686D01*
X115447658Y-72385685D01*
X115447657Y-72385685D01*
X115447655Y-72385684D01*
X115447651Y-72385684D01*
X115379601Y-72379500D01*
X115379594Y-72379500D01*
X114420406Y-72379500D01*
X114420398Y-72379500D01*
X114352348Y-72385684D01*
X114352338Y-72385686D01*
X114195732Y-72434486D01*
X114055346Y-72519352D01*
X113939352Y-72635346D01*
X113854486Y-72775732D01*
X113805686Y-72932338D01*
X113805684Y-72932348D01*
X113799500Y-73000398D01*
X113799500Y-73959601D01*
X113805684Y-74027651D01*
X113805686Y-74027661D01*
X113854486Y-74184267D01*
X113939352Y-74324653D01*
X114055347Y-74440648D01*
X114161895Y-74505058D01*
X114195732Y-74525513D01*
X114267803Y-74547971D01*
X114352343Y-74574315D01*
X114420406Y-74580500D01*
X114420408Y-74580500D01*
X115379592Y-74580500D01*
X115379594Y-74580500D01*
X115427460Y-74576150D01*
X115476397Y-74589086D01*
X115486483Y-74597520D01*
X115828684Y-74939721D01*
X115850076Y-74985597D01*
X115836975Y-75034492D01*
X115795511Y-75063526D01*
X115745084Y-75059114D01*
X115738075Y-75055375D01*
X115604267Y-74974486D01*
X115447661Y-74925686D01*
X115447658Y-74925685D01*
X115447657Y-74925685D01*
X115447655Y-74925684D01*
X115447651Y-74925684D01*
X115379601Y-74919500D01*
X115379594Y-74919500D01*
X114420406Y-74919500D01*
X114420398Y-74919500D01*
X114352348Y-74925684D01*
X114352338Y-74925686D01*
X114195732Y-74974486D01*
X114055346Y-75059352D01*
X113939352Y-75175346D01*
X113854486Y-75315732D01*
X113805686Y-75472338D01*
X113805684Y-75472348D01*
X113799500Y-75540398D01*
X113799500Y-76499601D01*
X113805684Y-76567651D01*
X113805686Y-76567661D01*
X113854486Y-76724267D01*
X113939352Y-76864652D01*
X113939352Y-76864653D01*
X114055347Y-76980648D01*
X114195730Y-77065512D01*
X114195732Y-77065513D01*
X114260874Y-77085812D01*
X114352343Y-77114315D01*
X114420406Y-77120500D01*
X114420408Y-77120500D01*
X115379592Y-77120500D01*
X115379594Y-77120500D01*
X115427460Y-77116150D01*
X115476397Y-77129086D01*
X115486483Y-77137520D01*
X115828685Y-77479722D01*
X115850077Y-77525598D01*
X115836976Y-77574493D01*
X115795512Y-77603527D01*
X115745085Y-77599115D01*
X115738076Y-77595376D01*
X115604267Y-77514486D01*
X115447661Y-77465686D01*
X115447658Y-77465685D01*
X115447657Y-77465685D01*
X115447655Y-77465684D01*
X115447651Y-77465684D01*
X115379601Y-77459500D01*
X115379594Y-77459500D01*
X114420406Y-77459500D01*
X114420398Y-77459500D01*
X114352348Y-77465684D01*
X114352338Y-77465686D01*
X114195732Y-77514486D01*
X114055346Y-77599352D01*
X113939352Y-77715346D01*
X113854486Y-77855732D01*
X113805686Y-78012338D01*
X113805684Y-78012348D01*
X113799500Y-78080398D01*
X113799500Y-79039601D01*
X113635500Y-79039601D01*
X113635500Y-70940003D01*
X113794785Y-70940003D01*
X113813601Y-71143076D01*
X113813602Y-71143082D01*
X113862660Y-71315500D01*
X113869418Y-71339250D01*
X113960327Y-71521821D01*
X113960328Y-71521822D01*
X113960329Y-71521825D01*
X114083234Y-71684578D01*
X114083235Y-71684579D01*
X114220637Y-71809836D01*
X114233959Y-71821981D01*
X114407363Y-71929348D01*
X114597544Y-72003024D01*
X114798024Y-72040500D01*
X114798026Y-72040500D01*
X115001974Y-72040500D01*
X115001976Y-72040500D01*
X115202456Y-72003024D01*
X115392637Y-71929348D01*
X115566041Y-71821981D01*
X115716764Y-71684579D01*
X115839673Y-71521821D01*
X115930582Y-71339250D01*
X115986397Y-71143083D01*
X115989973Y-71104500D01*
X116005215Y-70940003D01*
X116005215Y-70939996D01*
X115986398Y-70736923D01*
X115986397Y-70736917D01*
X115959866Y-70643672D01*
X115930582Y-70540750D01*
X115920974Y-70521456D01*
X115915269Y-70471160D01*
X115934888Y-70436147D01*
X116558862Y-69812174D01*
X116604740Y-69790782D01*
X116611189Y-69790500D01*
X118167958Y-69790500D01*
X118215524Y-69807813D01*
X118240834Y-69851650D01*
X118232044Y-69901500D01*
X118222402Y-69914619D01*
X118101427Y-70046033D01*
X117969951Y-70247271D01*
X117873392Y-70467402D01*
X117814378Y-70700442D01*
X117814378Y-70700443D01*
X117794529Y-70939996D01*
X117794529Y-70940003D01*
X117814378Y-71179556D01*
X117814378Y-71179557D01*
X117814380Y-71179563D01*
X117869934Y-71398945D01*
X117873392Y-71412597D01*
X117928719Y-71538729D01*
X117969951Y-71632728D01*
X118101429Y-71833969D01*
X118264236Y-72010825D01*
X118453933Y-72158472D01*
X118665344Y-72272882D01*
X118892703Y-72350934D01*
X119129808Y-72390500D01*
X119370192Y-72390500D01*
X119607297Y-72350934D01*
X119834656Y-72272882D01*
X120046067Y-72158472D01*
X120235764Y-72010825D01*
X120398571Y-71833969D01*
X120530049Y-71632728D01*
X120626610Y-71412591D01*
X120685620Y-71179563D01*
X120685620Y-71179559D01*
X120685621Y-71179557D01*
X120685621Y-71179556D01*
X120705471Y-70940003D01*
X120705471Y-70939996D01*
X120685621Y-70700443D01*
X120685621Y-70700442D01*
X120684057Y-70694264D01*
X120626610Y-70467409D01*
X120530049Y-70247272D01*
X120398571Y-70046031D01*
X120277597Y-69914618D01*
X120258120Y-69867897D01*
X120273231Y-69819587D01*
X120315860Y-69792291D01*
X120332042Y-69790500D01*
X123162415Y-69790500D01*
X123209981Y-69807813D01*
X123214741Y-69812174D01*
X124148864Y-70746297D01*
X124170256Y-70792173D01*
X124157155Y-70841068D01*
X124115691Y-70870102D01*
X124070771Y-70867992D01*
X123879349Y-70796889D01*
X123879350Y-70796889D01*
X123879344Y-70796887D01*
X123556253Y-70718813D01*
X123226195Y-70679500D01*
X122976977Y-70679500D01*
X122728201Y-70694263D01*
X122728184Y-70694265D01*
X122401049Y-70753059D01*
X122083147Y-70850137D01*
X121778954Y-70984134D01*
X121492773Y-71153152D01*
X121492752Y-71153166D01*
X121228557Y-71354855D01*
X121228547Y-71354864D01*
X120990068Y-71586378D01*
X120990063Y-71586383D01*
X120990063Y-71586384D01*
X120789168Y-71833969D01*
X120780625Y-71844497D01*
X120780623Y-71844498D01*
X120603189Y-72125562D01*
X120603188Y-72125564D01*
X120460239Y-72425644D01*
X120353787Y-72740515D01*
X120353784Y-72740525D01*
X120285321Y-73065778D01*
X120285320Y-73065787D01*
X120285320Y-73065788D01*
X120270602Y-73230890D01*
X120255804Y-73396879D01*
X120255804Y-73396882D01*
X120265654Y-73729099D01*
X120265656Y-73729121D01*
X120314730Y-74057856D01*
X120314731Y-74057857D01*
X120402344Y-74378494D01*
X120527266Y-74686516D01*
X120527267Y-74686517D01*
X120679444Y-74962552D01*
X120687739Y-74977597D01*
X120687742Y-74977603D01*
X120769333Y-75091315D01*
X120881519Y-75247665D01*
X121105877Y-75492914D01*
X121357666Y-75709906D01*
X121552388Y-75841061D01*
X121633351Y-75895594D01*
X121633353Y-75895595D01*
X121929067Y-76047374D01*
X122240656Y-76163113D01*
X122563747Y-76241187D01*
X122893805Y-76280500D01*
X122893809Y-76280500D01*
X123143023Y-76280500D01*
X123391807Y-76265736D01*
X123718956Y-76206939D01*
X124036854Y-76109862D01*
X124341040Y-75975868D01*
X124627243Y-75806837D01*
X124891445Y-75605142D01*
X125129937Y-75373616D01*
X125339373Y-75115506D01*
X125516810Y-74834438D01*
X125659760Y-74534357D01*
X125766215Y-74219475D01*
X125834680Y-73894212D01*
X125864195Y-73563134D01*
X125864195Y-73563120D01*
X125864195Y-73563117D01*
X125855710Y-73276923D01*
X125854345Y-73230890D01*
X125805269Y-72902142D01*
X125717655Y-72581506D01*
X125680809Y-72490655D01*
X125635675Y-72379366D01*
X125633842Y-72328781D01*
X125664953Y-72288851D01*
X125714452Y-72278262D01*
X125725360Y-72280630D01*
X125740470Y-72285128D01*
X125748291Y-72287457D01*
X125749688Y-72287904D01*
X125800944Y-72305500D01*
X125800945Y-72305500D01*
X125806995Y-72306510D01*
X125806948Y-72306786D01*
X125810397Y-72307289D01*
X125810432Y-72307009D01*
X125816509Y-72307766D01*
X125816516Y-72307768D01*
X125849515Y-72306403D01*
X125870601Y-72305532D01*
X125872129Y-72305500D01*
X127560803Y-72305500D01*
X127608369Y-72322813D01*
X127633679Y-72366650D01*
X127624889Y-72416500D01*
X127593787Y-72445742D01*
X127575313Y-72454940D01*
X127575306Y-72454944D01*
X127397767Y-72589016D01*
X127397764Y-72589018D01*
X127397764Y-72589019D01*
X127307831Y-72687670D01*
X127247874Y-72753440D01*
X127130756Y-72942594D01*
X127130751Y-72942604D01*
X127050382Y-73150057D01*
X127009500Y-73368753D01*
X127009500Y-73591246D01*
X127050382Y-73809942D01*
X127107031Y-73956168D01*
X127130753Y-74017401D01*
X127247876Y-74206562D01*
X127397764Y-74370981D01*
X127397767Y-74370983D01*
X127575306Y-74505055D01*
X127575309Y-74505057D01*
X127575310Y-74505057D01*
X127575311Y-74505058D01*
X127774472Y-74604229D01*
X127988464Y-74665115D01*
X128154497Y-74680500D01*
X128154499Y-74680500D01*
X128565501Y-74680500D01*
X128565503Y-74680500D01*
X128731536Y-74665115D01*
X128945528Y-74604229D01*
X129144689Y-74505058D01*
X129322236Y-74370981D01*
X129472124Y-74206562D01*
X129589247Y-74017401D01*
X129669618Y-73809940D01*
X129710499Y-73591246D01*
X135459500Y-73591246D01*
X135500382Y-73809942D01*
X135557031Y-73956168D01*
X135580753Y-74017401D01*
X135697876Y-74206562D01*
X135847764Y-74370981D01*
X135847767Y-74370983D01*
X136025306Y-74505055D01*
X136025309Y-74505057D01*
X136025310Y-74505057D01*
X136025311Y-74505058D01*
X136224472Y-74604229D01*
X136438464Y-74665115D01*
X136604497Y-74680500D01*
X136604499Y-74680500D01*
X137015501Y-74680500D01*
X137015503Y-74680500D01*
X137181536Y-74665115D01*
X137395528Y-74604229D01*
X137594689Y-74505058D01*
X137772236Y-74370981D01*
X137922124Y-74206562D01*
X138039247Y-74017401D01*
X138119618Y-73809940D01*
X138160500Y-73591243D01*
X138160500Y-73368757D01*
X138119618Y-73150060D01*
X138039247Y-72942599D01*
X137922124Y-72753438D01*
X137772236Y-72589019D01*
X137679982Y-72519352D01*
X137594693Y-72454944D01*
X137594690Y-72454942D01*
X137455601Y-72385684D01*
X137395528Y-72355771D01*
X137395524Y-72355770D01*
X137395522Y-72355769D01*
X137181537Y-72294885D01*
X137181524Y-72294883D01*
X137015509Y-72279500D01*
X137015503Y-72279500D01*
X136604497Y-72279500D01*
X136604490Y-72279500D01*
X136438475Y-72294883D01*
X136438462Y-72294885D01*
X136224477Y-72355769D01*
X136224472Y-72355771D01*
X136025309Y-72454942D01*
X136025306Y-72454944D01*
X135847767Y-72589016D01*
X135847764Y-72589018D01*
X135847764Y-72589019D01*
X135757831Y-72687670D01*
X135697874Y-72753440D01*
X135580756Y-72942594D01*
X135580751Y-72942604D01*
X135500382Y-73150057D01*
X135459500Y-73368753D01*
X135459500Y-73591246D01*
X129710499Y-73591246D01*
X129710500Y-73591243D01*
X129710500Y-73368757D01*
X129669618Y-73150060D01*
X129589247Y-72942599D01*
X129472124Y-72753438D01*
X129322236Y-72589019D01*
X129229982Y-72519352D01*
X129144693Y-72454944D01*
X129144686Y-72454940D01*
X129126213Y-72445742D01*
X129091350Y-72409043D01*
X129088233Y-72358520D01*
X129118322Y-72317814D01*
X129159197Y-72305500D01*
X134463383Y-72305500D01*
X134478567Y-72307074D01*
X134494268Y-72310367D01*
X134531036Y-72305783D01*
X134535615Y-72305500D01*
X134541111Y-72305500D01*
X134541114Y-72305500D01*
X134563387Y-72301782D01*
X134564887Y-72301564D01*
X134570604Y-72300851D01*
X134618626Y-72294866D01*
X134618629Y-72294864D01*
X134624507Y-72293115D01*
X134624587Y-72293386D01*
X134627904Y-72292323D01*
X134627812Y-72292055D01*
X134633606Y-72290065D01*
X134633610Y-72290065D01*
X134681235Y-72264290D01*
X134682535Y-72263622D01*
X134731211Y-72239826D01*
X134731213Y-72239823D01*
X134736204Y-72236261D01*
X134736368Y-72236491D01*
X134739160Y-72234410D01*
X134738986Y-72234186D01*
X134743822Y-72230420D01*
X134743826Y-72230419D01*
X134780513Y-72190566D01*
X134781517Y-72189519D01*
X137293863Y-69677174D01*
X137339741Y-69655782D01*
X137346190Y-69655500D01*
X137373212Y-69655500D01*
X137420778Y-69672813D01*
X137446088Y-69716650D01*
X137437298Y-69766500D01*
X137418665Y-69787894D01*
X137413017Y-69792291D01*
X137314234Y-69869176D01*
X137151427Y-70046033D01*
X137019951Y-70247271D01*
X136923392Y-70467402D01*
X136864378Y-70700442D01*
X136864378Y-70700443D01*
X136844529Y-70939996D01*
X136844529Y-70940003D01*
X136864378Y-71179556D01*
X136864378Y-71179557D01*
X136864380Y-71179563D01*
X136919934Y-71398945D01*
X136923392Y-71412597D01*
X136978719Y-71538729D01*
X137019951Y-71632728D01*
X137151429Y-71833969D01*
X137314236Y-72010825D01*
X137503933Y-72158472D01*
X137715344Y-72272882D01*
X137942703Y-72350934D01*
X138179808Y-72390500D01*
X138420192Y-72390500D01*
X138657297Y-72350934D01*
X138884656Y-72272882D01*
X139096067Y-72158472D01*
X139285764Y-72010825D01*
X139448571Y-71833969D01*
X139580049Y-71632728D01*
X139676610Y-71412591D01*
X139735620Y-71179563D01*
X139735620Y-71179559D01*
X139735621Y-71179557D01*
X139735621Y-71179556D01*
X139755471Y-70940003D01*
X139755471Y-70939996D01*
X139735621Y-70700443D01*
X139735621Y-70700442D01*
X139734057Y-70694264D01*
X139676610Y-70467409D01*
X139580049Y-70247272D01*
X139448571Y-70046031D01*
X139285764Y-69869175D01*
X139181335Y-69787894D01*
X139154433Y-69745019D01*
X139161386Y-69694879D01*
X139198941Y-69660939D01*
X139226788Y-69655500D01*
X141860386Y-69655500D01*
X141907952Y-69672813D01*
X141912712Y-69677174D01*
X142879210Y-70643672D01*
X142900602Y-70689548D01*
X142887501Y-70738443D01*
X142846037Y-70767477D01*
X142809503Y-70767927D01*
X142606253Y-70718813D01*
X142276195Y-70679500D01*
X142026977Y-70679500D01*
X141778201Y-70694263D01*
X141778184Y-70694265D01*
X141451049Y-70753059D01*
X141133147Y-70850137D01*
X140828954Y-70984134D01*
X140542773Y-71153152D01*
X140542752Y-71153166D01*
X140278557Y-71354855D01*
X140278547Y-71354864D01*
X140040068Y-71586378D01*
X140040063Y-71586383D01*
X140040063Y-71586384D01*
X139839168Y-71833969D01*
X139830625Y-71844497D01*
X139830623Y-71844498D01*
X139653189Y-72125562D01*
X139653188Y-72125564D01*
X139510239Y-72425644D01*
X139403787Y-72740515D01*
X139403784Y-72740525D01*
X139335321Y-73065778D01*
X139335320Y-73065787D01*
X139335320Y-73065788D01*
X139320602Y-73230890D01*
X139305804Y-73396879D01*
X139305804Y-73396882D01*
X139315654Y-73729099D01*
X139315656Y-73729121D01*
X139364730Y-74057856D01*
X139364731Y-74057857D01*
X139452344Y-74378494D01*
X139577266Y-74686516D01*
X139577267Y-74686517D01*
X139729444Y-74962552D01*
X139737739Y-74977597D01*
X139737742Y-74977603D01*
X139819333Y-75091315D01*
X139931519Y-75247665D01*
X140155877Y-75492914D01*
X140407666Y-75709906D01*
X140602388Y-75841061D01*
X140683351Y-75895594D01*
X140683353Y-75895595D01*
X140979067Y-76047374D01*
X141290656Y-76163113D01*
X141613747Y-76241187D01*
X141943805Y-76280500D01*
X141943809Y-76280500D01*
X142193023Y-76280500D01*
X142441807Y-76265736D01*
X142768956Y-76206939D01*
X143086854Y-76109862D01*
X143391040Y-75975868D01*
X143677243Y-75806837D01*
X143941445Y-75605142D01*
X144179937Y-75373616D01*
X144389373Y-75115506D01*
X144566810Y-74834438D01*
X144709760Y-74534357D01*
X144816215Y-74219475D01*
X144884680Y-73894212D01*
X144914195Y-73563134D01*
X144914195Y-73563120D01*
X144914195Y-73563117D01*
X144905710Y-73276923D01*
X144904345Y-73230890D01*
X144855269Y-72902142D01*
X144767655Y-72581506D01*
X144730809Y-72490655D01*
X144657691Y-72310366D01*
X144642733Y-72273483D01*
X144636369Y-72261939D01*
X144628567Y-72211925D01*
X144654738Y-72168596D01*
X144701174Y-72152213D01*
X147009417Y-72152213D01*
X147056983Y-72169526D01*
X147082293Y-72213363D01*
X147073503Y-72263213D01*
X147034726Y-72295750D01*
X147029676Y-72297385D01*
X146957877Y-72317814D01*
X146824477Y-72355769D01*
X146824472Y-72355771D01*
X146625309Y-72454942D01*
X146625306Y-72454944D01*
X146447767Y-72589016D01*
X146447764Y-72589018D01*
X146447764Y-72589019D01*
X146357831Y-72687670D01*
X146297874Y-72753440D01*
X146180756Y-72942594D01*
X146180751Y-72942604D01*
X146100382Y-73150057D01*
X146059500Y-73368753D01*
X146059500Y-73591246D01*
X146100382Y-73809942D01*
X146157031Y-73956168D01*
X146180753Y-74017401D01*
X146297876Y-74206562D01*
X146447764Y-74370981D01*
X146447767Y-74370983D01*
X146625306Y-74505055D01*
X146625309Y-74505057D01*
X146625310Y-74505057D01*
X146625311Y-74505058D01*
X146824472Y-74604229D01*
X147038464Y-74665115D01*
X147204497Y-74680500D01*
X147204499Y-74680500D01*
X147615501Y-74680500D01*
X147615503Y-74680500D01*
X147781536Y-74665115D01*
X147995528Y-74604229D01*
X148194689Y-74505058D01*
X148372236Y-74370981D01*
X148522124Y-74206562D01*
X148639247Y-74017401D01*
X148719618Y-73809940D01*
X148760500Y-73591243D01*
X148760500Y-73368757D01*
X148719618Y-73150060D01*
X148639247Y-72942599D01*
X148522124Y-72753438D01*
X148372236Y-72589019D01*
X148279982Y-72519352D01*
X148194693Y-72454944D01*
X148194690Y-72454942D01*
X148055601Y-72385684D01*
X147995528Y-72355771D01*
X147995524Y-72355770D01*
X147995522Y-72355769D01*
X147862123Y-72317814D01*
X147790331Y-72297387D01*
X147749319Y-72267719D01*
X147736973Y-72218629D01*
X147759069Y-72173088D01*
X147805269Y-72152404D01*
X147810583Y-72152213D01*
X148340524Y-72152213D01*
X148388090Y-72169526D01*
X148392850Y-72173887D01*
X149195108Y-72976145D01*
X149216500Y-73022021D01*
X149209026Y-73061451D01*
X149199417Y-73080750D01*
X149199416Y-73080752D01*
X149143602Y-73276917D01*
X149143601Y-73276923D01*
X149124784Y-73479996D01*
X149124784Y-73480003D01*
X149143601Y-73683076D01*
X149143602Y-73683082D01*
X149199416Y-73879244D01*
X149199418Y-73879250D01*
X149290327Y-74061821D01*
X149290328Y-74061822D01*
X149290329Y-74061825D01*
X149413234Y-74224578D01*
X149413235Y-74224579D01*
X149523012Y-74324653D01*
X149563959Y-74361981D01*
X149737363Y-74469348D01*
X149927544Y-74543024D01*
X150128024Y-74580500D01*
X150128026Y-74580500D01*
X150331974Y-74580500D01*
X150331976Y-74580500D01*
X150532456Y-74543024D01*
X150722637Y-74469348D01*
X150896041Y-74361981D01*
X151046764Y-74224579D01*
X151050619Y-74219475D01*
X151169670Y-74061825D01*
X151169670Y-74061824D01*
X151169673Y-74061821D01*
X151260582Y-73879250D01*
X151316397Y-73683083D01*
X151327514Y-73563117D01*
X151335215Y-73480003D01*
X151335215Y-73479996D01*
X151316398Y-73276923D01*
X151316397Y-73276917D01*
X151303298Y-73230878D01*
X151260582Y-73080750D01*
X151169673Y-72898179D01*
X151169670Y-72898175D01*
X151169670Y-72898174D01*
X151046765Y-72735421D01*
X151046764Y-72735420D01*
X150896041Y-72598019D01*
X150881501Y-72589016D01*
X150722637Y-72490652D01*
X150554831Y-72425644D01*
X150532459Y-72416977D01*
X150532458Y-72416976D01*
X150532456Y-72416976D01*
X150444407Y-72400516D01*
X150331979Y-72379500D01*
X150331976Y-72379500D01*
X150128024Y-72379500D01*
X150128020Y-72379500D01*
X149978115Y-72407522D01*
X149927544Y-72416976D01*
X149927542Y-72416976D01*
X149927540Y-72416977D01*
X149807065Y-72463648D01*
X149756457Y-72464687D01*
X149728008Y-72446971D01*
X149284061Y-72003024D01*
X148825192Y-71544154D01*
X148815566Y-71532299D01*
X148806799Y-71518879D01*
X148806796Y-71518876D01*
X148777566Y-71496125D01*
X148774128Y-71493090D01*
X148770231Y-71489193D01*
X148760717Y-71482400D01*
X148751836Y-71476059D01*
X148750610Y-71475145D01*
X148732769Y-71461259D01*
X148715600Y-71447895D01*
X148688698Y-71405019D01*
X148695650Y-71354880D01*
X148733205Y-71320940D01*
X148761052Y-71315500D01*
X149141773Y-71315500D01*
X149189339Y-71332813D01*
X149208014Y-71356514D01*
X149290327Y-71521821D01*
X149290328Y-71521822D01*
X149290329Y-71521825D01*
X149413234Y-71684578D01*
X149413235Y-71684579D01*
X149550636Y-71809836D01*
X149563959Y-71821981D01*
X149737363Y-71929348D01*
X149927544Y-72003024D01*
X150128024Y-72040500D01*
X150128026Y-72040500D01*
X150331974Y-72040500D01*
X150331976Y-72040500D01*
X150532456Y-72003024D01*
X150722637Y-71929348D01*
X150896041Y-71821981D01*
X151046764Y-71684579D01*
X151169673Y-71521821D01*
X151260582Y-71339250D01*
X151316397Y-71143083D01*
X151319973Y-71104500D01*
X151335215Y-70940003D01*
X151335215Y-70939996D01*
X151316398Y-70736923D01*
X151316397Y-70736917D01*
X151289866Y-70643672D01*
X151260582Y-70540750D01*
X151169673Y-70358179D01*
X151169670Y-70358175D01*
X151169670Y-70358174D01*
X151046765Y-70195421D01*
X151046764Y-70195420D01*
X150896041Y-70058019D01*
X150876680Y-70046031D01*
X150722637Y-69950652D01*
X150555582Y-69885935D01*
X150532459Y-69876977D01*
X150532458Y-69876976D01*
X150532456Y-69876976D01*
X150444407Y-69860516D01*
X150331979Y-69839500D01*
X150331976Y-69839500D01*
X150128024Y-69839500D01*
X150128020Y-69839500D01*
X149978115Y-69867522D01*
X149927544Y-69876976D01*
X149927542Y-69876976D01*
X149927540Y-69876977D01*
X149762105Y-69941067D01*
X149737363Y-69950652D01*
X149737358Y-69950654D01*
X149737358Y-69950655D01*
X149563958Y-70058019D01*
X149563957Y-70058019D01*
X149413235Y-70195420D01*
X149413234Y-70195421D01*
X149290329Y-70358174D01*
X149290328Y-70358177D01*
X149290327Y-70358178D01*
X149290327Y-70358179D01*
X149234070Y-70471160D01*
X149208015Y-70523485D01*
X149171315Y-70558347D01*
X149141773Y-70564500D01*
X144529160Y-70564500D01*
X144481594Y-70547187D01*
X144476834Y-70542826D01*
X142815835Y-68881826D01*
X142794443Y-68835950D01*
X142807544Y-68787055D01*
X142849008Y-68758021D01*
X142868161Y-68755500D01*
X143191207Y-68755500D01*
X143238773Y-68772813D01*
X143262943Y-68811334D01*
X143273391Y-68852594D01*
X143273393Y-68852599D01*
X143369949Y-69072726D01*
X143485653Y-69249822D01*
X143501429Y-69273969D01*
X143664236Y-69450825D01*
X143853933Y-69598472D01*
X144065344Y-69712882D01*
X144292703Y-69790934D01*
X144529808Y-69830500D01*
X147230192Y-69830500D01*
X147467297Y-69790934D01*
X147694656Y-69712882D01*
X147906067Y-69598472D01*
X148095764Y-69450825D01*
X148258571Y-69273969D01*
X148390049Y-69072728D01*
X148486610Y-68852591D01*
X148545620Y-68619563D01*
X148545620Y-68619559D01*
X148545621Y-68619557D01*
X148545621Y-68619556D01*
X148565471Y-68380003D01*
X148565471Y-68379996D01*
X148545621Y-68140443D01*
X148545621Y-68140442D01*
X148545620Y-68140437D01*
X148486610Y-67907409D01*
X148390049Y-67687272D01*
X148258571Y-67486031D01*
X148137597Y-67354618D01*
X148118120Y-67307897D01*
X148133231Y-67259587D01*
X148175860Y-67232291D01*
X148192042Y-67230500D01*
X148498811Y-67230500D01*
X148546377Y-67247813D01*
X148551137Y-67252174D01*
X149195108Y-67896145D01*
X149216500Y-67942021D01*
X149209026Y-67981451D01*
X149199417Y-68000750D01*
X149199416Y-68000752D01*
X149143602Y-68196917D01*
X149143601Y-68196923D01*
X149124784Y-68399996D01*
X149124784Y-68400003D01*
X149143601Y-68603076D01*
X149143602Y-68603082D01*
X149194411Y-68781653D01*
X149199418Y-68799250D01*
X149290327Y-68981821D01*
X149290328Y-68981822D01*
X149290329Y-68981825D01*
X149413234Y-69144578D01*
X149413235Y-69144579D01*
X149514694Y-69237070D01*
X149563959Y-69281981D01*
X149737363Y-69389348D01*
X149927544Y-69463024D01*
X150128024Y-69500500D01*
X150128026Y-69500500D01*
X150331974Y-69500500D01*
X150331976Y-69500500D01*
X150532456Y-69463024D01*
X150722637Y-69389348D01*
X150896041Y-69281981D01*
X151046764Y-69144579D01*
X151069418Y-69114581D01*
X151169670Y-68981825D01*
X151169670Y-68981824D01*
X151169673Y-68981821D01*
X151260582Y-68799250D01*
X151316397Y-68603083D01*
X151335215Y-68400000D01*
X151333362Y-68380000D01*
X151316398Y-68196923D01*
X151316397Y-68196917D01*
X151300776Y-68142016D01*
X151260582Y-68000750D01*
X151169673Y-67818179D01*
X151169670Y-67818175D01*
X151169670Y-67818174D01*
X151046765Y-67655421D01*
X151046764Y-67655420D01*
X150896041Y-67518019D01*
X150867745Y-67500499D01*
X150722637Y-67410652D01*
X150532456Y-67336976D01*
X150444407Y-67320516D01*
X150331979Y-67299500D01*
X150331976Y-67299500D01*
X150128024Y-67299500D01*
X150128020Y-67299500D01*
X149978115Y-67327522D01*
X149927544Y-67336976D01*
X149927542Y-67336976D01*
X149927540Y-67336977D01*
X149807065Y-67383648D01*
X149756457Y-67384687D01*
X149728008Y-67366971D01*
X149367859Y-67006822D01*
X148983479Y-66622441D01*
X148973853Y-66610586D01*
X148965086Y-66597166D01*
X148965083Y-66597163D01*
X148935853Y-66574412D01*
X148932415Y-66571377D01*
X148928518Y-66567480D01*
X148919004Y-66560687D01*
X148910123Y-66554346D01*
X148908897Y-66553432D01*
X148894864Y-66542510D01*
X148866189Y-66520191D01*
X148866186Y-66520190D01*
X148866185Y-66520189D01*
X148860795Y-66517272D01*
X148860928Y-66517024D01*
X148857829Y-66515429D01*
X148857706Y-66515682D01*
X148852201Y-66512990D01*
X148800347Y-66497552D01*
X148798892Y-66497086D01*
X148747661Y-66479499D01*
X148741615Y-66478491D01*
X148741661Y-66478214D01*
X148738206Y-66477710D01*
X148738172Y-66477991D01*
X148732089Y-66477232D01*
X148732088Y-66477232D01*
X148732086Y-66477232D01*
X148678003Y-66479468D01*
X148676475Y-66479500D01*
X135456816Y-66479500D01*
X135409250Y-66462187D01*
X135383940Y-66418350D01*
X135392730Y-66368500D01*
X135407745Y-66350110D01*
X135452211Y-66310717D01*
X135470483Y-66294530D01*
X135489166Y-66267461D01*
X135530434Y-66238152D01*
X135550066Y-66235500D01*
X149141773Y-66235500D01*
X149189339Y-66252813D01*
X149208014Y-66276514D01*
X149290327Y-66441821D01*
X149290328Y-66441822D01*
X149290329Y-66441825D01*
X149413234Y-66604578D01*
X149413235Y-66604579D01*
X149510423Y-66693177D01*
X149563959Y-66741981D01*
X149737363Y-66849348D01*
X149927544Y-66923024D01*
X150128024Y-66960500D01*
X150128026Y-66960500D01*
X150331974Y-66960500D01*
X150331976Y-66960500D01*
X150532456Y-66923024D01*
X150722637Y-66849348D01*
X150896041Y-66741981D01*
X151046764Y-66604579D01*
X151052365Y-66597163D01*
X151169670Y-66441825D01*
X151169670Y-66441824D01*
X151169673Y-66441821D01*
X151260582Y-66259250D01*
X151316397Y-66063083D01*
X151333421Y-65879369D01*
X151335215Y-65860003D01*
X151335215Y-65859996D01*
X151316398Y-65656923D01*
X151316397Y-65656917D01*
X151287534Y-65555477D01*
X151260582Y-65460750D01*
X151169673Y-65278179D01*
X151169670Y-65278175D01*
X151169670Y-65278174D01*
X151046765Y-65115421D01*
X151046764Y-65115420D01*
X150896041Y-64978019D01*
X150896041Y-64978018D01*
X150722637Y-64870652D01*
X150532456Y-64796976D01*
X150444407Y-64780516D01*
X150331979Y-64759500D01*
X150331976Y-64759500D01*
X150128024Y-64759500D01*
X150128020Y-64759500D01*
X149978115Y-64787522D01*
X149927544Y-64796976D01*
X149927542Y-64796976D01*
X149927540Y-64796977D01*
X149737368Y-64870650D01*
X149737363Y-64870652D01*
X149737358Y-64870654D01*
X149737358Y-64870655D01*
X149563958Y-64978019D01*
X149563957Y-64978019D01*
X149413235Y-65115420D01*
X149413234Y-65115421D01*
X149290329Y-65278174D01*
X149290328Y-65278177D01*
X149208015Y-65443485D01*
X149171315Y-65478347D01*
X149141773Y-65484500D01*
X135550066Y-65484500D01*
X135502500Y-65467187D01*
X135489168Y-65452540D01*
X135470483Y-65425470D01*
X135352240Y-65320717D01*
X135271188Y-65278177D01*
X135212366Y-65247304D01*
X135058987Y-65209500D01*
X135058985Y-65209500D01*
X134901015Y-65209500D01*
X134901012Y-65209500D01*
X134747633Y-65247304D01*
X134607761Y-65320716D01*
X134489516Y-65425470D01*
X134399779Y-65555478D01*
X134399778Y-65555478D01*
X134343764Y-65703177D01*
X134343761Y-65703191D01*
X134324722Y-65859996D01*
X134324722Y-65860003D01*
X134343761Y-66016808D01*
X134343764Y-66016822D01*
X134399778Y-66164521D01*
X134450602Y-66238152D01*
X134489517Y-66294530D01*
X134507787Y-66310716D01*
X134552255Y-66350110D01*
X134576378Y-66394611D01*
X134566254Y-66444207D01*
X134526618Y-66475692D01*
X134503184Y-66479500D01*
X130763518Y-66479500D01*
X130715952Y-66462187D01*
X130702617Y-66447537D01*
X130700318Y-66444207D01*
X130680483Y-66415470D01*
X130562240Y-66310717D01*
X130550139Y-66304366D01*
X130422366Y-66237304D01*
X130268987Y-66199500D01*
X130268985Y-66199500D01*
X130111015Y-66199500D01*
X130111012Y-66199500D01*
X129957633Y-66237304D01*
X129817761Y-66310716D01*
X129699516Y-66415470D01*
X129609779Y-66545478D01*
X129609778Y-66545478D01*
X129553764Y-66693177D01*
X129553761Y-66693191D01*
X129534722Y-66849996D01*
X129534722Y-66850003D01*
X129553761Y-67006808D01*
X129553764Y-67006822D01*
X129609778Y-67154521D01*
X129699516Y-67284529D01*
X129699517Y-67284530D01*
X129817760Y-67389283D01*
X129957635Y-67462696D01*
X130111015Y-67500500D01*
X130111019Y-67500500D01*
X130268981Y-67500500D01*
X130268985Y-67500500D01*
X130422365Y-67462696D01*
X130562240Y-67389283D01*
X130680483Y-67284530D01*
X130680486Y-67284526D01*
X130695716Y-67262463D01*
X130736985Y-67233151D01*
X130756616Y-67230500D01*
X143567958Y-67230500D01*
X143615524Y-67247813D01*
X143640834Y-67291650D01*
X143632044Y-67341500D01*
X143622402Y-67354619D01*
X143501427Y-67486033D01*
X143369949Y-67687273D01*
X143273393Y-67907400D01*
X143273391Y-67907405D01*
X143273389Y-67907409D01*
X143273390Y-67907409D01*
X143264626Y-67942021D01*
X143262943Y-67948666D01*
X143234483Y-67990527D01*
X143191207Y-68004500D01*
X135201618Y-68004500D01*
X135186433Y-68002925D01*
X135170732Y-67999633D01*
X135133963Y-68004216D01*
X135129385Y-68004500D01*
X135123877Y-68004500D01*
X135101623Y-68008214D01*
X135100112Y-68008434D01*
X135046376Y-68015133D01*
X135040499Y-68016883D01*
X135040419Y-68016616D01*
X135037096Y-68017681D01*
X135037187Y-68017945D01*
X135031385Y-68019936D01*
X134983797Y-68045690D01*
X134982439Y-68046390D01*
X134933788Y-68070174D01*
X134928798Y-68073737D01*
X134928637Y-68073511D01*
X134925837Y-68075599D01*
X134926008Y-68075818D01*
X134921175Y-68079578D01*
X134884504Y-68119412D01*
X134883446Y-68120515D01*
X134321190Y-68682770D01*
X134275313Y-68704162D01*
X134247383Y-68701258D01*
X134060935Y-68644700D01*
X133855000Y-68624417D01*
X133649064Y-68644700D01*
X133451043Y-68704769D01*
X133268549Y-68802315D01*
X133108590Y-68933589D01*
X133108589Y-68933590D01*
X132977315Y-69093549D01*
X132879769Y-69276043D01*
X132819700Y-69474064D01*
X132799417Y-69680000D01*
X132819700Y-69885935D01*
X132836424Y-69941067D01*
X132868264Y-70046031D01*
X132879769Y-70083956D01*
X132977315Y-70266450D01*
X133052594Y-70358179D01*
X133108590Y-70426410D01*
X133268550Y-70557685D01*
X133451046Y-70655232D01*
X133649066Y-70715300D01*
X133855000Y-70735583D01*
X134060934Y-70715300D01*
X134258954Y-70655232D01*
X134441450Y-70557685D01*
X134601410Y-70426410D01*
X134732685Y-70266450D01*
X134830232Y-70083954D01*
X134890300Y-69885934D01*
X134910583Y-69680000D01*
X134890300Y-69474066D01*
X134833740Y-69287611D01*
X134836500Y-69237070D01*
X134852225Y-69213810D01*
X135288862Y-68777174D01*
X135334740Y-68755782D01*
X135341189Y-68755500D01*
X136338415Y-68755500D01*
X136385981Y-68772813D01*
X136411291Y-68816650D01*
X136402501Y-68866500D01*
X136390741Y-68881825D01*
X135226535Y-70046031D01*
X134189740Y-71082826D01*
X134143864Y-71104218D01*
X134137414Y-71104500D01*
X126236189Y-71104500D01*
X126188623Y-71087187D01*
X126183863Y-71082826D01*
X124934576Y-69833538D01*
X124913184Y-69787661D01*
X124926285Y-69738767D01*
X124967749Y-69709733D01*
X125012030Y-69713104D01*
X125012448Y-69711888D01*
X125040529Y-69721528D01*
X125242703Y-69790934D01*
X125479808Y-69830500D01*
X128180192Y-69830500D01*
X128417297Y-69790934D01*
X128644656Y-69712882D01*
X128856067Y-69598472D01*
X129045764Y-69450825D01*
X129208571Y-69273969D01*
X129340049Y-69072728D01*
X129349193Y-69051883D01*
X129389913Y-68959050D01*
X129436610Y-68852591D01*
X129447057Y-68811333D01*
X129475517Y-68769473D01*
X129518793Y-68755500D01*
X129828811Y-68755500D01*
X129876377Y-68772813D01*
X129881137Y-68777174D01*
X130317771Y-69213808D01*
X130339163Y-69259684D01*
X130336259Y-69287615D01*
X130279700Y-69474064D01*
X130259417Y-69680000D01*
X130279700Y-69885935D01*
X130296424Y-69941067D01*
X130328264Y-70046031D01*
X130339769Y-70083956D01*
X130437315Y-70266450D01*
X130512594Y-70358179D01*
X130568590Y-70426410D01*
X130728550Y-70557685D01*
X130911046Y-70655232D01*
X131109066Y-70715300D01*
X131315000Y-70735583D01*
X131520934Y-70715300D01*
X131718954Y-70655232D01*
X131901450Y-70557685D01*
X132061410Y-70426410D01*
X132192685Y-70266450D01*
X132290232Y-70083954D01*
X132350300Y-69885934D01*
X132370583Y-69680000D01*
X132350300Y-69474066D01*
X132290232Y-69276046D01*
X132192685Y-69093550D01*
X132061410Y-68933590D01*
X131901450Y-68802315D01*
X131846256Y-68772813D01*
X131718956Y-68704769D01*
X131718955Y-68704768D01*
X131718954Y-68704768D01*
X131607158Y-68670855D01*
X131520935Y-68644700D01*
X131315000Y-68624417D01*
X131109064Y-68644700D01*
X130922615Y-68701258D01*
X130872071Y-68698498D01*
X130848808Y-68682770D01*
X130313479Y-68147441D01*
X130303853Y-68135586D01*
X130295086Y-68122166D01*
X130295083Y-68122163D01*
X130265853Y-68099412D01*
X130262415Y-68096377D01*
X130258518Y-68092480D01*
X130249004Y-68085687D01*
X130240123Y-68079346D01*
X130238897Y-68078432D01*
X130224864Y-68067510D01*
X130196189Y-68045191D01*
X130196186Y-68045190D01*
X130196185Y-68045189D01*
X130190795Y-68042272D01*
X130190928Y-68042024D01*
X130187829Y-68040429D01*
X130187706Y-68040682D01*
X130182201Y-68037990D01*
X130130347Y-68022552D01*
X130128892Y-68022086D01*
X130077661Y-68004499D01*
X130071615Y-68003491D01*
X130071661Y-68003214D01*
X130068206Y-68002710D01*
X130068172Y-68002991D01*
X130062089Y-68002232D01*
X130062088Y-68002232D01*
X130062086Y-68002232D01*
X130008003Y-68004468D01*
X130006475Y-68004500D01*
X129518793Y-68004500D01*
X129471227Y-67987187D01*
X129447057Y-67948666D01*
X129436610Y-67907409D01*
X129397468Y-67818174D01*
X129340050Y-67687273D01*
X129208572Y-67486033D01*
X129208571Y-67486031D01*
X129045764Y-67309175D01*
X128856067Y-67161528D01*
X128767715Y-67113714D01*
X128644655Y-67047117D01*
X128417295Y-66969065D01*
X128180194Y-66929500D01*
X128180192Y-66929500D01*
X128054674Y-66929500D01*
X125720192Y-66929500D01*
X125479808Y-66929500D01*
X125479805Y-66929500D01*
X125242704Y-66969065D01*
X125015344Y-67047117D01*
X124803940Y-67161524D01*
X124803928Y-67161531D01*
X124614234Y-67309176D01*
X124451427Y-67486033D01*
X124319951Y-67687271D01*
X124223392Y-67907402D01*
X124223390Y-67907407D01*
X124223390Y-67907409D01*
X124214625Y-67942021D01*
X124164378Y-68140442D01*
X124164378Y-68140443D01*
X124144529Y-68379996D01*
X124144529Y-68380003D01*
X124164378Y-68619556D01*
X124164378Y-68619557D01*
X124185957Y-68704769D01*
X124214254Y-68816515D01*
X124223392Y-68852597D01*
X124276224Y-68973041D01*
X124279477Y-69023556D01*
X124249499Y-69064343D01*
X124200317Y-69076318D01*
X124156131Y-69055093D01*
X123268479Y-68167441D01*
X123258853Y-68155586D01*
X123250086Y-68142166D01*
X123250083Y-68142163D01*
X123220853Y-68119412D01*
X123217415Y-68116377D01*
X123213518Y-68112480D01*
X123204004Y-68105687D01*
X123195123Y-68099346D01*
X123193897Y-68098432D01*
X123179864Y-68087510D01*
X123151189Y-68065191D01*
X123151186Y-68065190D01*
X123151185Y-68065189D01*
X123145795Y-68062272D01*
X123145928Y-68062024D01*
X123142829Y-68060429D01*
X123142706Y-68060682D01*
X123137201Y-68057990D01*
X123085347Y-68042552D01*
X123083892Y-68042086D01*
X123032661Y-68024499D01*
X123026615Y-68023491D01*
X123026661Y-68023214D01*
X123023206Y-68022710D01*
X123023172Y-68022991D01*
X123017089Y-68022232D01*
X123017088Y-68022232D01*
X123017086Y-68022232D01*
X122963003Y-68024468D01*
X122961475Y-68024500D01*
X115988227Y-68024500D01*
X115940661Y-68007187D01*
X115921985Y-67983485D01*
X115904647Y-67948666D01*
X115839673Y-67818179D01*
X115839670Y-67818175D01*
X115839670Y-67818174D01*
X115716765Y-67655421D01*
X115716764Y-67655420D01*
X115566041Y-67518019D01*
X115537745Y-67500499D01*
X115392637Y-67410652D01*
X115202456Y-67336976D01*
X115114407Y-67320516D01*
X115001979Y-67299500D01*
X115001976Y-67299500D01*
X114798024Y-67299500D01*
X114798020Y-67299500D01*
X114648115Y-67327522D01*
X114597544Y-67336976D01*
X114597542Y-67336976D01*
X114597540Y-67336977D01*
X114462523Y-67389283D01*
X114407363Y-67410652D01*
X114407358Y-67410654D01*
X114407358Y-67410655D01*
X114233958Y-67518019D01*
X114233957Y-67518019D01*
X114083235Y-67655420D01*
X114083234Y-67655421D01*
X113960329Y-67818174D01*
X113960328Y-67818177D01*
X113869418Y-68000750D01*
X113869416Y-68000755D01*
X113813602Y-68196917D01*
X113813601Y-68196923D01*
X113794785Y-68399996D01*
X113794785Y-68400003D01*
X113813601Y-68603076D01*
X113813602Y-68603082D01*
X113864411Y-68781653D01*
X113869418Y-68799250D01*
X113960327Y-68981821D01*
X113960328Y-68981822D01*
X113960329Y-68981825D01*
X114083234Y-69144578D01*
X114083235Y-69144579D01*
X114184694Y-69237070D01*
X114233959Y-69281981D01*
X114407363Y-69389348D01*
X114597544Y-69463024D01*
X114798024Y-69500500D01*
X114798026Y-69500500D01*
X115001974Y-69500500D01*
X115001976Y-69500500D01*
X115202456Y-69463024D01*
X115392637Y-69389348D01*
X115566041Y-69281981D01*
X115716764Y-69144579D01*
X115739418Y-69114581D01*
X115839670Y-68981825D01*
X115839670Y-68981824D01*
X115839673Y-68981821D01*
X115921985Y-68816514D01*
X115958685Y-68781653D01*
X115988227Y-68775500D01*
X122783811Y-68775500D01*
X122831377Y-68792813D01*
X122836137Y-68797174D01*
X122952137Y-68913174D01*
X122973529Y-68959050D01*
X122960428Y-69007945D01*
X122918964Y-69036979D01*
X122899811Y-69039500D01*
X116471618Y-69039500D01*
X116456433Y-69037925D01*
X116440732Y-69034633D01*
X116403963Y-69039216D01*
X116399385Y-69039500D01*
X116393877Y-69039500D01*
X116371621Y-69043214D01*
X116370110Y-69043434D01*
X116316373Y-69050133D01*
X116310497Y-69051883D01*
X116310418Y-69051618D01*
X116307097Y-69052681D01*
X116307188Y-69052944D01*
X116301389Y-69054935D01*
X116253782Y-69080697D01*
X116252424Y-69081396D01*
X116203785Y-69105175D01*
X116198797Y-69108737D01*
X116198635Y-69108510D01*
X116195836Y-69110597D01*
X116196008Y-69110818D01*
X116191175Y-69114578D01*
X116154504Y-69154412D01*
X116153446Y-69155515D01*
X115401990Y-69906971D01*
X115356114Y-69928363D01*
X115322932Y-69923648D01*
X115202459Y-69876977D01*
X115202458Y-69876976D01*
X115202456Y-69876976D01*
X115114407Y-69860516D01*
X115001979Y-69839500D01*
X115001976Y-69839500D01*
X114798024Y-69839500D01*
X114798020Y-69839500D01*
X114648115Y-69867522D01*
X114597544Y-69876976D01*
X114597542Y-69876976D01*
X114597540Y-69876977D01*
X114432105Y-69941067D01*
X114407363Y-69950652D01*
X114407358Y-69950654D01*
X114407358Y-69950655D01*
X114233958Y-70058019D01*
X114233957Y-70058019D01*
X114083235Y-70195420D01*
X114083234Y-70195421D01*
X113960329Y-70358174D01*
X113960328Y-70358177D01*
X113869418Y-70540750D01*
X113869416Y-70540755D01*
X113813602Y-70736917D01*
X113813601Y-70736923D01*
X113794785Y-70939996D01*
X113794785Y-70940003D01*
X113635500Y-70940003D01*
X113635500Y-63955006D01*
X130579390Y-63955006D01*
X130599803Y-64240425D01*
X130660630Y-64520042D01*
X130660635Y-64520060D01*
X130760630Y-64788156D01*
X130897772Y-65039313D01*
X130954745Y-65115420D01*
X131069261Y-65268395D01*
X131271605Y-65470739D01*
X131289988Y-65484500D01*
X131500686Y-65642227D01*
X131751843Y-65779369D01*
X132019939Y-65879364D01*
X132019945Y-65879365D01*
X132019954Y-65879369D01*
X132299572Y-65940196D01*
X132513539Y-65955499D01*
X132513544Y-65955500D01*
X132513552Y-65955500D01*
X132656456Y-65955500D01*
X132656459Y-65955499D01*
X132870428Y-65940196D01*
X133150046Y-65879369D01*
X133150057Y-65879364D01*
X133150060Y-65879364D01*
X133418156Y-65779369D01*
X133418156Y-65779368D01*
X133418161Y-65779367D01*
X133669315Y-65642226D01*
X133898395Y-65470739D01*
X134100739Y-65268395D01*
X134272226Y-65039315D01*
X134409367Y-64788161D01*
X134509369Y-64520046D01*
X134570196Y-64240428D01*
X134590610Y-63955000D01*
X134590610Y-63954993D01*
X134570196Y-63669574D01*
X134570196Y-63669572D01*
X134509369Y-63389954D01*
X134509365Y-63389945D01*
X134509364Y-63389939D01*
X134409369Y-63121843D01*
X134272227Y-62870686D01*
X134229354Y-62813415D01*
X134100739Y-62641605D01*
X133898395Y-62439261D01*
X133783855Y-62353517D01*
X133669313Y-62267772D01*
X133418156Y-62130630D01*
X133150060Y-62030635D01*
X133150042Y-62030630D01*
X132870425Y-61969803D01*
X132656460Y-61954500D01*
X132656448Y-61954500D01*
X132513552Y-61954500D01*
X132513539Y-61954500D01*
X132299574Y-61969803D01*
X132019957Y-62030630D01*
X132019939Y-62030635D01*
X131751843Y-62130630D01*
X131500686Y-62267772D01*
X131271602Y-62439263D01*
X131069263Y-62641602D01*
X130897772Y-62870686D01*
X130760630Y-63121843D01*
X130660635Y-63389939D01*
X130660630Y-63389957D01*
X130599803Y-63669574D01*
X130579390Y-63954993D01*
X130579390Y-63955006D01*
X113635500Y-63955006D01*
X113635500Y-58115964D01*
X116603263Y-58115964D01*
X116605538Y-58356338D01*
X116647344Y-58593052D01*
X116647345Y-58593054D01*
X116727545Y-58819664D01*
X116727546Y-58819665D01*
X116814791Y-58977300D01*
X116814807Y-58977326D01*
X117491699Y-59992286D01*
X117491700Y-59992287D01*
X117603711Y-60133423D01*
X117603713Y-60133425D01*
X117782101Y-60294553D01*
X117984577Y-60424120D01*
X117984585Y-60424123D01*
X117984588Y-60424125D01*
X118205617Y-60518594D01*
X118439184Y-60575396D01*
X118439187Y-60575396D01*
X118439194Y-60575398D01*
X118643765Y-60590401D01*
X118678932Y-60592981D01*
X118678932Y-60592980D01*
X118678934Y-60592981D01*
X118823428Y-60579630D01*
X118918291Y-60570866D01*
X118918293Y-60570865D01*
X118918298Y-60570865D01*
X119150757Y-60509652D01*
X119369971Y-60411013D01*
X119569959Y-60277637D01*
X119745267Y-60113164D01*
X119891112Y-59922080D01*
X120003517Y-59709596D01*
X120079415Y-59481508D01*
X120116736Y-59244039D01*
X120115658Y-59130200D01*
X120132521Y-59082472D01*
X120176117Y-59056749D01*
X120189656Y-59055500D01*
X122120364Y-59055500D01*
X122167930Y-59072813D01*
X122193240Y-59116650D01*
X122184450Y-59166500D01*
X122165817Y-59187894D01*
X122136645Y-59210600D01*
X122074234Y-59259176D01*
X121911427Y-59436033D01*
X121779951Y-59637271D01*
X121683392Y-59857402D01*
X121624378Y-60090442D01*
X121624378Y-60090443D01*
X121604529Y-60329996D01*
X121604529Y-60330003D01*
X121624378Y-60569556D01*
X121624378Y-60569557D01*
X121683392Y-60802597D01*
X121779951Y-61022728D01*
X121911429Y-61223969D01*
X122074236Y-61400825D01*
X122263933Y-61548472D01*
X122475344Y-61662882D01*
X122702703Y-61740934D01*
X122939808Y-61780500D01*
X125780192Y-61780500D01*
X126017297Y-61740934D01*
X126244656Y-61662882D01*
X126456067Y-61548472D01*
X126645764Y-61400825D01*
X126808571Y-61223969D01*
X126940049Y-61022728D01*
X127036610Y-60802591D01*
X127095620Y-60569563D01*
X127095620Y-60569559D01*
X127095621Y-60569557D01*
X127095621Y-60569556D01*
X127115471Y-60330003D01*
X127115471Y-60329996D01*
X127095621Y-60090443D01*
X127095621Y-60090442D01*
X127070765Y-59992287D01*
X127036610Y-59857409D01*
X126940049Y-59637272D01*
X126808571Y-59436031D01*
X126645764Y-59259175D01*
X126554183Y-59187894D01*
X126527281Y-59145019D01*
X126534234Y-59094879D01*
X126571789Y-59060939D01*
X126599636Y-59055500D01*
X128568383Y-59055500D01*
X128583567Y-59057074D01*
X128599268Y-59060367D01*
X128636036Y-59055783D01*
X128640615Y-59055500D01*
X128646111Y-59055500D01*
X128646114Y-59055500D01*
X128668387Y-59051782D01*
X128669887Y-59051564D01*
X128675604Y-59050851D01*
X128723626Y-59044866D01*
X128723629Y-59044864D01*
X128729507Y-59043115D01*
X128729587Y-59043386D01*
X128732904Y-59042323D01*
X128732812Y-59042055D01*
X128738606Y-59040065D01*
X128738610Y-59040065D01*
X128786235Y-59014290D01*
X128787535Y-59013622D01*
X128836211Y-58989826D01*
X128836213Y-58989823D01*
X128841204Y-58986261D01*
X128841369Y-58986493D01*
X128844158Y-58984414D01*
X128843983Y-58984189D01*
X128848821Y-58980422D01*
X128848821Y-58980421D01*
X128848826Y-58980419D01*
X128885535Y-58940541D01*
X128886517Y-58939518D01*
X130138175Y-57687861D01*
X130184051Y-57666470D01*
X130232945Y-57679571D01*
X130261979Y-57721035D01*
X130264500Y-57740188D01*
X130264499Y-59054672D01*
X130265632Y-59060366D01*
X130279034Y-59127740D01*
X130334399Y-59210601D01*
X130417260Y-59265966D01*
X130490326Y-59280500D01*
X130490328Y-59280500D01*
X132139672Y-59280500D01*
X132139674Y-59280500D01*
X132212740Y-59265966D01*
X132295601Y-59210601D01*
X132350966Y-59127740D01*
X132365500Y-59054674D01*
X132365500Y-57554500D01*
X132382813Y-57506934D01*
X132426650Y-57481624D01*
X132439500Y-57480500D01*
X132730500Y-57480500D01*
X132778066Y-57497813D01*
X132803376Y-57541650D01*
X132804500Y-57554500D01*
X132804500Y-59054674D01*
X132819034Y-59127740D01*
X132874399Y-59210601D01*
X132957260Y-59265966D01*
X133030326Y-59280500D01*
X133030328Y-59280500D01*
X134679672Y-59280500D01*
X134679674Y-59280500D01*
X134752740Y-59265966D01*
X134835601Y-59210601D01*
X134890966Y-59127740D01*
X134905500Y-59054674D01*
X134905500Y-57554499D01*
X134922813Y-57506934D01*
X134966650Y-57481624D01*
X134979500Y-57480500D01*
X135648811Y-57480500D01*
X135696377Y-57497813D01*
X135701137Y-57502174D01*
X135756525Y-57557562D01*
X135777917Y-57603438D01*
X135769612Y-57644488D01*
X135766484Y-57650400D01*
X135690584Y-57878494D01*
X135653264Y-58115960D01*
X135653263Y-58115964D01*
X135655538Y-58356338D01*
X135697344Y-58593052D01*
X135697345Y-58593054D01*
X135777545Y-58819664D01*
X135777546Y-58819665D01*
X135864791Y-58977300D01*
X135864807Y-58977326D01*
X136541699Y-59992286D01*
X136541700Y-59992287D01*
X136653711Y-60133423D01*
X136653713Y-60133425D01*
X136832101Y-60294553D01*
X137034577Y-60424120D01*
X137034585Y-60424123D01*
X137034588Y-60424125D01*
X137255617Y-60518594D01*
X137489184Y-60575396D01*
X137489187Y-60575396D01*
X137489194Y-60575398D01*
X137693766Y-60590401D01*
X137728932Y-60592981D01*
X137728932Y-60592980D01*
X137728934Y-60592981D01*
X137873428Y-60579630D01*
X137968291Y-60570866D01*
X137968293Y-60570865D01*
X137968298Y-60570865D01*
X138200757Y-60509652D01*
X138419971Y-60411013D01*
X138541440Y-60330003D01*
X140654529Y-60330003D01*
X140674378Y-60569556D01*
X140674378Y-60569557D01*
X140733392Y-60802597D01*
X140829950Y-61022728D01*
X140829951Y-61022728D01*
X140961429Y-61223969D01*
X141124236Y-61400825D01*
X141313933Y-61548472D01*
X141525344Y-61662882D01*
X141752703Y-61740934D01*
X141989808Y-61780500D01*
X144830192Y-61780500D01*
X145067297Y-61740934D01*
X145294656Y-61662882D01*
X145506067Y-61548472D01*
X145695764Y-61400825D01*
X145858571Y-61223969D01*
X145990049Y-61022728D01*
X146086610Y-60802591D01*
X146145620Y-60569563D01*
X146145620Y-60569559D01*
X146145621Y-60569557D01*
X146145621Y-60569556D01*
X146165471Y-60330003D01*
X146165471Y-60329996D01*
X146145621Y-60090443D01*
X146145621Y-60090442D01*
X146120765Y-59992287D01*
X146086610Y-59857409D01*
X145990049Y-59637272D01*
X145858571Y-59436031D01*
X145695764Y-59259175D01*
X145506067Y-59111528D01*
X145403061Y-59055784D01*
X145294655Y-58997117D01*
X145067295Y-58919065D01*
X144830194Y-58879500D01*
X144830192Y-58879500D01*
X144734674Y-58879500D01*
X142230192Y-58879500D01*
X141989808Y-58879500D01*
X141989805Y-58879500D01*
X141752704Y-58919065D01*
X141525344Y-58997117D01*
X141313940Y-59111524D01*
X141313928Y-59111531D01*
X141124234Y-59259176D01*
X140961427Y-59436033D01*
X140829951Y-59637271D01*
X140733392Y-59857402D01*
X140674378Y-60090442D01*
X140674378Y-60090443D01*
X140654529Y-60329996D01*
X140654529Y-60330003D01*
X138541440Y-60330003D01*
X138619959Y-60277637D01*
X138795267Y-60113164D01*
X138941112Y-59922080D01*
X139053517Y-59709596D01*
X139129415Y-59481508D01*
X139166736Y-59244039D01*
X139164462Y-59003666D01*
X139122655Y-58766946D01*
X139042455Y-58540336D01*
X138955199Y-58382683D01*
X138486283Y-57679571D01*
X138278300Y-57367713D01*
X138278299Y-57367712D01*
X138166288Y-57226576D01*
X138166284Y-57226572D01*
X137987899Y-57065447D01*
X137924701Y-57025006D01*
X137785423Y-56935880D01*
X137785417Y-56935877D01*
X137785411Y-56935874D01*
X137564382Y-56841405D01*
X137330815Y-56784603D01*
X137330807Y-56784602D01*
X137091067Y-56767018D01*
X137091060Y-56767019D01*
X136851708Y-56789133D01*
X136619239Y-56850349D01*
X136400031Y-56948986D01*
X136400026Y-56948989D01*
X136336523Y-56991340D01*
X136287344Y-57003328D01*
X136243139Y-56982101D01*
X136133479Y-56872441D01*
X136123853Y-56860586D01*
X136115086Y-56847166D01*
X136115083Y-56847163D01*
X136085853Y-56824412D01*
X136082415Y-56821377D01*
X136078518Y-56817480D01*
X136069004Y-56810687D01*
X136060123Y-56804346D01*
X136058897Y-56803432D01*
X136034705Y-56784603D01*
X136016189Y-56770191D01*
X136016186Y-56770190D01*
X136016185Y-56770189D01*
X136010795Y-56767272D01*
X136010928Y-56767024D01*
X136007829Y-56765429D01*
X136007706Y-56765682D01*
X136002201Y-56762990D01*
X135950347Y-56747552D01*
X135948892Y-56747086D01*
X135897661Y-56729499D01*
X135891615Y-56728491D01*
X135891661Y-56728214D01*
X135888206Y-56727710D01*
X135888172Y-56727991D01*
X135882089Y-56727232D01*
X135882088Y-56727232D01*
X135882086Y-56727232D01*
X135828003Y-56729468D01*
X135826475Y-56729500D01*
X130236617Y-56729500D01*
X130221432Y-56727925D01*
X130205731Y-56724633D01*
X130168965Y-56729216D01*
X130164386Y-56729500D01*
X130158879Y-56729500D01*
X130136613Y-56733216D01*
X130135102Y-56733436D01*
X130081374Y-56740134D01*
X130075498Y-56741884D01*
X130075417Y-56741615D01*
X130072102Y-56742677D01*
X130072193Y-56742942D01*
X130066392Y-56744933D01*
X130018789Y-56770694D01*
X130017431Y-56771393D01*
X129968787Y-56795174D01*
X129963797Y-56798737D01*
X129963636Y-56798511D01*
X129960837Y-56800598D01*
X129961008Y-56800818D01*
X129956175Y-56804578D01*
X129919515Y-56844400D01*
X129918457Y-56845503D01*
X128481136Y-58282826D01*
X128435260Y-58304218D01*
X128428810Y-58304500D01*
X119892653Y-58304500D01*
X119845087Y-58287187D01*
X119831088Y-58271558D01*
X119727317Y-58115960D01*
X119412885Y-57644488D01*
X119228300Y-57367713D01*
X119228299Y-57367712D01*
X119116288Y-57226576D01*
X119116284Y-57226572D01*
X118937899Y-57065447D01*
X118874701Y-57025006D01*
X118735423Y-56935880D01*
X118735417Y-56935877D01*
X118735411Y-56935874D01*
X118514382Y-56841405D01*
X118280815Y-56784603D01*
X118280807Y-56784602D01*
X118041067Y-56767018D01*
X118041060Y-56767019D01*
X117801708Y-56789133D01*
X117569239Y-56850349D01*
X117350032Y-56948986D01*
X117350030Y-56948987D01*
X117150486Y-57082066D01*
X117150038Y-57082365D01*
X117150036Y-57082367D01*
X116974734Y-57246834D01*
X116974731Y-57246837D01*
X116828891Y-57437915D01*
X116828885Y-57437924D01*
X116716484Y-57650399D01*
X116640584Y-57878494D01*
X116603264Y-58115960D01*
X116603263Y-58115964D01*
X113635500Y-58115964D01*
X113635500Y-54541246D01*
X116409500Y-54541246D01*
X116450382Y-54759942D01*
X116507031Y-54906168D01*
X116530753Y-54967401D01*
X116647876Y-55156562D01*
X116797764Y-55320981D01*
X116797767Y-55320983D01*
X116975306Y-55455055D01*
X116975309Y-55455057D01*
X116975310Y-55455057D01*
X116975311Y-55455058D01*
X117174472Y-55554229D01*
X117388464Y-55615115D01*
X117554497Y-55630500D01*
X117554499Y-55630500D01*
X117965501Y-55630500D01*
X117965503Y-55630500D01*
X118131536Y-55615115D01*
X118345528Y-55554229D01*
X118544689Y-55455058D01*
X118722236Y-55320981D01*
X118872124Y-55156562D01*
X118989247Y-54967401D01*
X119069618Y-54759940D01*
X119110500Y-54541243D01*
X119110500Y-54346882D01*
X120255804Y-54346882D01*
X120265654Y-54679099D01*
X120265656Y-54679121D01*
X120314730Y-55007856D01*
X120314731Y-55007857D01*
X120402344Y-55328494D01*
X120527266Y-55636516D01*
X120527267Y-55636517D01*
X120687742Y-55927603D01*
X120881519Y-56197665D01*
X121105877Y-56442914D01*
X121357666Y-56659906D01*
X121558494Y-56795174D01*
X121633351Y-56845594D01*
X121633353Y-56845595D01*
X121929067Y-56997374D01*
X122240656Y-57113113D01*
X122563747Y-57191187D01*
X122893805Y-57230500D01*
X122893809Y-57230500D01*
X123143023Y-57230500D01*
X123391807Y-57215736D01*
X123718956Y-57156939D01*
X124036854Y-57059862D01*
X124341040Y-56925868D01*
X124627243Y-56756837D01*
X124891445Y-56555142D01*
X125129937Y-56323616D01*
X125339373Y-56065506D01*
X125516810Y-55784438D01*
X125659760Y-55484357D01*
X125766215Y-55169475D01*
X125834680Y-54844212D01*
X125861689Y-54541246D01*
X127009500Y-54541246D01*
X127050382Y-54759942D01*
X127107031Y-54906168D01*
X127130753Y-54967401D01*
X127247876Y-55156562D01*
X127397764Y-55320981D01*
X127397767Y-55320983D01*
X127575306Y-55455055D01*
X127575309Y-55455057D01*
X127575310Y-55455057D01*
X127575311Y-55455058D01*
X127774472Y-55554229D01*
X127988464Y-55615115D01*
X128154497Y-55630500D01*
X128154499Y-55630500D01*
X128565501Y-55630500D01*
X128565503Y-55630500D01*
X128731536Y-55615115D01*
X128945528Y-55554229D01*
X129144689Y-55455058D01*
X129322236Y-55320981D01*
X129472124Y-55156562D01*
X129589247Y-54967401D01*
X129669618Y-54759940D01*
X129710499Y-54541246D01*
X135459500Y-54541246D01*
X135500382Y-54759942D01*
X135557031Y-54906168D01*
X135580753Y-54967401D01*
X135697876Y-55156562D01*
X135847764Y-55320981D01*
X135847767Y-55320983D01*
X136025306Y-55455055D01*
X136025309Y-55455057D01*
X136025310Y-55455057D01*
X136025311Y-55455058D01*
X136224472Y-55554229D01*
X136438464Y-55615115D01*
X136604497Y-55630500D01*
X136604499Y-55630500D01*
X137015501Y-55630500D01*
X137015503Y-55630500D01*
X137181536Y-55615115D01*
X137395528Y-55554229D01*
X137594689Y-55455058D01*
X137772236Y-55320981D01*
X137922124Y-55156562D01*
X138039247Y-54967401D01*
X138119618Y-54759940D01*
X138160500Y-54541243D01*
X138160500Y-54346882D01*
X139305804Y-54346882D01*
X139315654Y-54679099D01*
X139315656Y-54679121D01*
X139364730Y-55007856D01*
X139364731Y-55007857D01*
X139452344Y-55328494D01*
X139577266Y-55636516D01*
X139577267Y-55636517D01*
X139737742Y-55927603D01*
X139931519Y-56197665D01*
X140155877Y-56442914D01*
X140407666Y-56659906D01*
X140608494Y-56795174D01*
X140683351Y-56845594D01*
X140683353Y-56845595D01*
X140979067Y-56997374D01*
X141290656Y-57113113D01*
X141613747Y-57191187D01*
X141943805Y-57230500D01*
X141943809Y-57230500D01*
X142193023Y-57230500D01*
X142441807Y-57215736D01*
X142768956Y-57156939D01*
X143086854Y-57059862D01*
X143391040Y-56925868D01*
X143677243Y-56756837D01*
X143941445Y-56555142D01*
X144179937Y-56323616D01*
X144389373Y-56065506D01*
X144566810Y-55784438D01*
X144709760Y-55484357D01*
X144816215Y-55169475D01*
X144884680Y-54844212D01*
X144911689Y-54541246D01*
X146059500Y-54541246D01*
X146100382Y-54759942D01*
X146157031Y-54906168D01*
X146180753Y-54967401D01*
X146297876Y-55156562D01*
X146447764Y-55320981D01*
X146447767Y-55320983D01*
X146625306Y-55455055D01*
X146625309Y-55455057D01*
X146625310Y-55455057D01*
X146625311Y-55455058D01*
X146824472Y-55554229D01*
X147038464Y-55615115D01*
X147204497Y-55630500D01*
X147204499Y-55630500D01*
X147615501Y-55630500D01*
X147615503Y-55630500D01*
X147781536Y-55615115D01*
X147995528Y-55554229D01*
X148194689Y-55455058D01*
X148372236Y-55320981D01*
X148522124Y-55156562D01*
X148639247Y-54967401D01*
X148719618Y-54759940D01*
X148760500Y-54541243D01*
X148760500Y-54318757D01*
X148719618Y-54100060D01*
X148639247Y-53892599D01*
X148522124Y-53703438D01*
X148372236Y-53539019D01*
X148362286Y-53531505D01*
X148194693Y-53404944D01*
X148194690Y-53404942D01*
X148065271Y-53340499D01*
X147995528Y-53305771D01*
X147995524Y-53305770D01*
X147995522Y-53305769D01*
X147781537Y-53244885D01*
X147781524Y-53244883D01*
X147615509Y-53229500D01*
X147615503Y-53229500D01*
X147204497Y-53229500D01*
X147204490Y-53229500D01*
X147038475Y-53244883D01*
X147038462Y-53244885D01*
X146824477Y-53305769D01*
X146824472Y-53305771D01*
X146625309Y-53404942D01*
X146625306Y-53404944D01*
X146447767Y-53539016D01*
X146297874Y-53703440D01*
X146180756Y-53892594D01*
X146180751Y-53892604D01*
X146100382Y-54100057D01*
X146059500Y-54318753D01*
X146059500Y-54541246D01*
X144911689Y-54541246D01*
X144914195Y-54513134D01*
X144914195Y-54513120D01*
X144914195Y-54513117D01*
X144904345Y-54180900D01*
X144904345Y-54180890D01*
X144855269Y-53852142D01*
X144767655Y-53531506D01*
X144716326Y-53404944D01*
X144642733Y-53223483D01*
X144579329Y-53108475D01*
X144482258Y-52932397D01*
X144288481Y-52662335D01*
X144064123Y-52417086D01*
X143812334Y-52200094D01*
X143668407Y-52103152D01*
X143536648Y-52014405D01*
X143380253Y-51934134D01*
X143240933Y-51862626D01*
X142929344Y-51746887D01*
X142606253Y-51668813D01*
X142276195Y-51629500D01*
X142026977Y-51629500D01*
X141778201Y-51644263D01*
X141778184Y-51644265D01*
X141451049Y-51703059D01*
X141133147Y-51800137D01*
X140828954Y-51934134D01*
X140542773Y-52103152D01*
X140542752Y-52103166D01*
X140278557Y-52304855D01*
X140278547Y-52304864D01*
X140040068Y-52536378D01*
X140040063Y-52536383D01*
X140040063Y-52536384D01*
X139839168Y-52783969D01*
X139830625Y-52794497D01*
X139830623Y-52794498D01*
X139653189Y-53075562D01*
X139653188Y-53075564D01*
X139510239Y-53375644D01*
X139403787Y-53690515D01*
X139403784Y-53690525D01*
X139335321Y-54015778D01*
X139335320Y-54015787D01*
X139335320Y-54015788D01*
X139320602Y-54180890D01*
X139305804Y-54346879D01*
X139305804Y-54346882D01*
X138160500Y-54346882D01*
X138160500Y-54318757D01*
X138119618Y-54100060D01*
X138039247Y-53892599D01*
X137922124Y-53703438D01*
X137772236Y-53539019D01*
X137762286Y-53531505D01*
X137594693Y-53404944D01*
X137594690Y-53404942D01*
X137465271Y-53340499D01*
X137395528Y-53305771D01*
X137395524Y-53305770D01*
X137395522Y-53305769D01*
X137181537Y-53244885D01*
X137181524Y-53244883D01*
X137015509Y-53229500D01*
X137015503Y-53229500D01*
X136604497Y-53229500D01*
X136604490Y-53229500D01*
X136438475Y-53244883D01*
X136438462Y-53244885D01*
X136224477Y-53305769D01*
X136224472Y-53305771D01*
X136025309Y-53404942D01*
X136025306Y-53404944D01*
X135847767Y-53539016D01*
X135697874Y-53703440D01*
X135580756Y-53892594D01*
X135580751Y-53892604D01*
X135500382Y-54100057D01*
X135459500Y-54318753D01*
X135459500Y-54541246D01*
X129710499Y-54541246D01*
X129710500Y-54541243D01*
X129710500Y-54318757D01*
X129669618Y-54100060D01*
X129589247Y-53892599D01*
X129472124Y-53703438D01*
X129322236Y-53539019D01*
X129312286Y-53531505D01*
X129144693Y-53404944D01*
X129144690Y-53404942D01*
X129015271Y-53340499D01*
X128945528Y-53305771D01*
X128945524Y-53305770D01*
X128945522Y-53305769D01*
X128731537Y-53244885D01*
X128731524Y-53244883D01*
X128565509Y-53229500D01*
X128565503Y-53229500D01*
X128154497Y-53229500D01*
X128154490Y-53229500D01*
X127988475Y-53244883D01*
X127988462Y-53244885D01*
X127774477Y-53305769D01*
X127774472Y-53305771D01*
X127575309Y-53404942D01*
X127575306Y-53404944D01*
X127397767Y-53539016D01*
X127247874Y-53703440D01*
X127130756Y-53892594D01*
X127130751Y-53892604D01*
X127050382Y-54100057D01*
X127009500Y-54318753D01*
X127009500Y-54541246D01*
X125861689Y-54541246D01*
X125864195Y-54513134D01*
X125864195Y-54513120D01*
X125864195Y-54513117D01*
X125854345Y-54180900D01*
X125854345Y-54180890D01*
X125805269Y-53852142D01*
X125717655Y-53531506D01*
X125666326Y-53404944D01*
X125592733Y-53223483D01*
X125529329Y-53108475D01*
X125432258Y-52932397D01*
X125238481Y-52662335D01*
X125014123Y-52417086D01*
X124762334Y-52200094D01*
X124618407Y-52103152D01*
X124486648Y-52014405D01*
X124330253Y-51934134D01*
X124244272Y-51890003D01*
X136844529Y-51890003D01*
X136864378Y-52129556D01*
X136864378Y-52129557D01*
X136882242Y-52200099D01*
X136908769Y-52304855D01*
X136923392Y-52362597D01*
X136999620Y-52536378D01*
X137019951Y-52582728D01*
X137151429Y-52783969D01*
X137314236Y-52960825D01*
X137503933Y-53108472D01*
X137715344Y-53222882D01*
X137942703Y-53300934D01*
X138179808Y-53340500D01*
X138420192Y-53340500D01*
X138657297Y-53300934D01*
X138884656Y-53222882D01*
X139096067Y-53108472D01*
X139285764Y-52960825D01*
X139448571Y-52783969D01*
X139580049Y-52582728D01*
X139676610Y-52362591D01*
X139735620Y-52129563D01*
X139735620Y-52129559D01*
X139735621Y-52129557D01*
X139735621Y-52129556D01*
X139755471Y-51890003D01*
X139755471Y-51889996D01*
X139735621Y-51650443D01*
X139735621Y-51650442D01*
X139734057Y-51644264D01*
X139676610Y-51417409D01*
X139580049Y-51197272D01*
X139448571Y-50996031D01*
X139285764Y-50819175D01*
X139096067Y-50671528D01*
X139007715Y-50623714D01*
X138884655Y-50557117D01*
X138657295Y-50479065D01*
X138420194Y-50439500D01*
X138420192Y-50439500D01*
X138179808Y-50439500D01*
X138179805Y-50439500D01*
X137942704Y-50479065D01*
X137715344Y-50557117D01*
X137503940Y-50671524D01*
X137503928Y-50671531D01*
X137314234Y-50819176D01*
X137151427Y-50996033D01*
X137019951Y-51197271D01*
X136923392Y-51417402D01*
X136864378Y-51650442D01*
X136864378Y-51650443D01*
X136844529Y-51889996D01*
X136844529Y-51890003D01*
X124244272Y-51890003D01*
X124190933Y-51862626D01*
X123879344Y-51746887D01*
X123556253Y-51668813D01*
X123226195Y-51629500D01*
X122976977Y-51629500D01*
X122728201Y-51644263D01*
X122728184Y-51644265D01*
X122401049Y-51703059D01*
X122083147Y-51800137D01*
X121778954Y-51934134D01*
X121492773Y-52103152D01*
X121492752Y-52103166D01*
X121228557Y-52304855D01*
X121228547Y-52304864D01*
X120990068Y-52536378D01*
X120990063Y-52536383D01*
X120990063Y-52536384D01*
X120789168Y-52783969D01*
X120780625Y-52794497D01*
X120780623Y-52794498D01*
X120603189Y-53075562D01*
X120603188Y-53075564D01*
X120460239Y-53375644D01*
X120353787Y-53690515D01*
X120353784Y-53690525D01*
X120285321Y-54015778D01*
X120285320Y-54015787D01*
X120285320Y-54015788D01*
X120270602Y-54180890D01*
X120255804Y-54346879D01*
X120255804Y-54346882D01*
X119110500Y-54346882D01*
X119110500Y-54318757D01*
X119069618Y-54100060D01*
X118989247Y-53892599D01*
X118872124Y-53703438D01*
X118722236Y-53539019D01*
X118712286Y-53531505D01*
X118544693Y-53404944D01*
X118544690Y-53404942D01*
X118415271Y-53340499D01*
X118345528Y-53305771D01*
X118345524Y-53305770D01*
X118345522Y-53305769D01*
X118131537Y-53244885D01*
X118131524Y-53244883D01*
X117965509Y-53229500D01*
X117965503Y-53229500D01*
X117554497Y-53229500D01*
X117554490Y-53229500D01*
X117388475Y-53244883D01*
X117388462Y-53244885D01*
X117174477Y-53305769D01*
X117174472Y-53305771D01*
X116975309Y-53404942D01*
X116975306Y-53404944D01*
X116797767Y-53539016D01*
X116647874Y-53703440D01*
X116530756Y-53892594D01*
X116530751Y-53892604D01*
X116450382Y-54100057D01*
X116409500Y-54318753D01*
X116409500Y-54541246D01*
X113635500Y-54541246D01*
X113635500Y-51890003D01*
X117794529Y-51890003D01*
X117814378Y-52129556D01*
X117814378Y-52129557D01*
X117832242Y-52200099D01*
X117858769Y-52304855D01*
X117873392Y-52362597D01*
X117949620Y-52536378D01*
X117969951Y-52582728D01*
X118101429Y-52783969D01*
X118264236Y-52960825D01*
X118453933Y-53108472D01*
X118665344Y-53222882D01*
X118892703Y-53300934D01*
X119129808Y-53340500D01*
X119370192Y-53340500D01*
X119607297Y-53300934D01*
X119834656Y-53222882D01*
X120046067Y-53108472D01*
X120235764Y-52960825D01*
X120398571Y-52783969D01*
X120530049Y-52582728D01*
X120626610Y-52362591D01*
X120685620Y-52129563D01*
X120685620Y-52129559D01*
X120685621Y-52129557D01*
X120685621Y-52129556D01*
X120705471Y-51890003D01*
X120705471Y-51889996D01*
X120685621Y-51650443D01*
X120685621Y-51650442D01*
X120684057Y-51644264D01*
X120626610Y-51417409D01*
X120530049Y-51197272D01*
X120398571Y-50996031D01*
X120235764Y-50819175D01*
X120046067Y-50671528D01*
X119957715Y-50623714D01*
X119834655Y-50557117D01*
X119607295Y-50479065D01*
X119370194Y-50439500D01*
X119370192Y-50439500D01*
X119129808Y-50439500D01*
X119129805Y-50439500D01*
X118892704Y-50479065D01*
X118665344Y-50557117D01*
X118453940Y-50671524D01*
X118453928Y-50671531D01*
X118264234Y-50819176D01*
X118101427Y-50996033D01*
X117969951Y-51197271D01*
X117873392Y-51417402D01*
X117814378Y-51650442D01*
X117814378Y-51650443D01*
X117794529Y-51889996D01*
X117794529Y-51890003D01*
X113635500Y-51890003D01*
X113635500Y-49330003D01*
X124144529Y-49330003D01*
X124164378Y-49569556D01*
X124164378Y-49569557D01*
X124185957Y-49654769D01*
X124212942Y-49761334D01*
X124223392Y-49802597D01*
X124258919Y-49883589D01*
X124319951Y-50022728D01*
X124451429Y-50223969D01*
X124614236Y-50400825D01*
X124803933Y-50548472D01*
X125015344Y-50662882D01*
X125242703Y-50740934D01*
X125479808Y-50780500D01*
X128180192Y-50780500D01*
X128417297Y-50740934D01*
X128644656Y-50662882D01*
X128856067Y-50548472D01*
X129045764Y-50400825D01*
X129208571Y-50223969D01*
X129340049Y-50022728D01*
X129436610Y-49802591D01*
X129447057Y-49761333D01*
X129475517Y-49719473D01*
X129518793Y-49705500D01*
X129828811Y-49705500D01*
X129876377Y-49722813D01*
X129881137Y-49727174D01*
X130317771Y-50163808D01*
X130339163Y-50209684D01*
X130336259Y-50237615D01*
X130279700Y-50424064D01*
X130259417Y-50630000D01*
X130263507Y-50671531D01*
X130279700Y-50835934D01*
X130339768Y-51033954D01*
X130437315Y-51216450D01*
X130568590Y-51376410D01*
X130728550Y-51507685D01*
X130911046Y-51605232D01*
X131109066Y-51665300D01*
X131315000Y-51685583D01*
X131520934Y-51665300D01*
X131718954Y-51605232D01*
X131901450Y-51507685D01*
X132061410Y-51376410D01*
X132192685Y-51216450D01*
X132290232Y-51033954D01*
X132350300Y-50835934D01*
X132370583Y-50630000D01*
X132799417Y-50630000D01*
X132803507Y-50671531D01*
X132819700Y-50835934D01*
X132879768Y-51033954D01*
X132977315Y-51216450D01*
X133108590Y-51376410D01*
X133268550Y-51507685D01*
X133451046Y-51605232D01*
X133649066Y-51665300D01*
X133855000Y-51685583D01*
X134060934Y-51665300D01*
X134258954Y-51605232D01*
X134441450Y-51507685D01*
X134601410Y-51376410D01*
X134732685Y-51216450D01*
X134830232Y-51033954D01*
X134890300Y-50835934D01*
X134910583Y-50630000D01*
X134890300Y-50424066D01*
X134833740Y-50237611D01*
X134836500Y-50187070D01*
X134852225Y-50163810D01*
X135288862Y-49727174D01*
X135334740Y-49705782D01*
X135341189Y-49705500D01*
X143191207Y-49705500D01*
X143238773Y-49722813D01*
X143262943Y-49761334D01*
X143273391Y-49802594D01*
X143273393Y-49802599D01*
X143369949Y-50022726D01*
X143485653Y-50199822D01*
X143501429Y-50223969D01*
X143664236Y-50400825D01*
X143853933Y-50548472D01*
X144065344Y-50662882D01*
X144292703Y-50740934D01*
X144529808Y-50780500D01*
X147230192Y-50780500D01*
X147467297Y-50740934D01*
X147694656Y-50662882D01*
X147906067Y-50548472D01*
X148095764Y-50400825D01*
X148258571Y-50223969D01*
X148390049Y-50022728D01*
X148486610Y-49802591D01*
X148545620Y-49569563D01*
X148545620Y-49569559D01*
X148545621Y-49569557D01*
X148545621Y-49569556D01*
X148565471Y-49330003D01*
X148565471Y-49329996D01*
X148545621Y-49090443D01*
X148545621Y-49090442D01*
X148545620Y-49090437D01*
X148486610Y-48857409D01*
X148390049Y-48637272D01*
X148258571Y-48436031D01*
X148095764Y-48259175D01*
X147906067Y-48111528D01*
X147817715Y-48063714D01*
X147694655Y-47997117D01*
X147467295Y-47919065D01*
X147230194Y-47879500D01*
X147230192Y-47879500D01*
X147104674Y-47879500D01*
X144770192Y-47879500D01*
X144529808Y-47879500D01*
X144529805Y-47879500D01*
X144292704Y-47919065D01*
X144065344Y-47997117D01*
X143853940Y-48111524D01*
X143853928Y-48111531D01*
X143664234Y-48259176D01*
X143501427Y-48436033D01*
X143369949Y-48637273D01*
X143273393Y-48857400D01*
X143273391Y-48857405D01*
X143262943Y-48898666D01*
X143234483Y-48940527D01*
X143191207Y-48954500D01*
X135201618Y-48954500D01*
X135186433Y-48952925D01*
X135170732Y-48949633D01*
X135133963Y-48954216D01*
X135129385Y-48954500D01*
X135123877Y-48954500D01*
X135101623Y-48958214D01*
X135100112Y-48958434D01*
X135046376Y-48965133D01*
X135040499Y-48966883D01*
X135040419Y-48966616D01*
X135037096Y-48967681D01*
X135037187Y-48967945D01*
X135031385Y-48969936D01*
X134983797Y-48995690D01*
X134982439Y-48996390D01*
X134933788Y-49020174D01*
X134928798Y-49023737D01*
X134928637Y-49023511D01*
X134925837Y-49025599D01*
X134926008Y-49025818D01*
X134921175Y-49029578D01*
X134884504Y-49069412D01*
X134883446Y-49070515D01*
X134321190Y-49632770D01*
X134275313Y-49654162D01*
X134247383Y-49651258D01*
X134060935Y-49594700D01*
X133957966Y-49584558D01*
X133855000Y-49574417D01*
X133854999Y-49574417D01*
X133649064Y-49594700D01*
X133451043Y-49654769D01*
X133268549Y-49752315D01*
X133108590Y-49883589D01*
X133108589Y-49883590D01*
X132977315Y-50043549D01*
X132879769Y-50226043D01*
X132819700Y-50424064D01*
X132799417Y-50630000D01*
X132370583Y-50630000D01*
X132350300Y-50424066D01*
X132290232Y-50226046D01*
X132192685Y-50043550D01*
X132061410Y-49883590D01*
X131901450Y-49752315D01*
X131846256Y-49722813D01*
X131718956Y-49654769D01*
X131718955Y-49654768D01*
X131718954Y-49654768D01*
X131607158Y-49620855D01*
X131520935Y-49594700D01*
X131315000Y-49574417D01*
X131109064Y-49594700D01*
X130922615Y-49651258D01*
X130872071Y-49648498D01*
X130848808Y-49632770D01*
X130313479Y-49097441D01*
X130303853Y-49085586D01*
X130295086Y-49072166D01*
X130295083Y-49072163D01*
X130265853Y-49049412D01*
X130262415Y-49046377D01*
X130258518Y-49042480D01*
X130249004Y-49035687D01*
X130240123Y-49029346D01*
X130238897Y-49028432D01*
X130224864Y-49017510D01*
X130196189Y-48995191D01*
X130196186Y-48995190D01*
X130196185Y-48995189D01*
X130190795Y-48992272D01*
X130190928Y-48992024D01*
X130187829Y-48990429D01*
X130187706Y-48990682D01*
X130182201Y-48987990D01*
X130130347Y-48972552D01*
X130128892Y-48972086D01*
X130077661Y-48954499D01*
X130071615Y-48953491D01*
X130071661Y-48953214D01*
X130068206Y-48952710D01*
X130068172Y-48952991D01*
X130062089Y-48952232D01*
X130062088Y-48952232D01*
X130062086Y-48952232D01*
X130008003Y-48954468D01*
X130006475Y-48954500D01*
X129518793Y-48954500D01*
X129471227Y-48937187D01*
X129447057Y-48898666D01*
X129436610Y-48857409D01*
X129428386Y-48838660D01*
X129340050Y-48637273D01*
X129208572Y-48436033D01*
X129208571Y-48436031D01*
X129045764Y-48259175D01*
X128856067Y-48111528D01*
X128767715Y-48063714D01*
X128644655Y-47997117D01*
X128417295Y-47919065D01*
X128180194Y-47879500D01*
X128180192Y-47879500D01*
X128054674Y-47879500D01*
X125720192Y-47879500D01*
X125479808Y-47879500D01*
X125479805Y-47879500D01*
X125242704Y-47919065D01*
X125015344Y-47997117D01*
X124803940Y-48111524D01*
X124803928Y-48111531D01*
X124614234Y-48259176D01*
X124451427Y-48436033D01*
X124319951Y-48637271D01*
X124223392Y-48857402D01*
X124164378Y-49090442D01*
X124164378Y-49090443D01*
X124144529Y-49329996D01*
X124144529Y-49330003D01*
X113635500Y-49330003D01*
X113635500Y-45407069D01*
X113635730Y-45402950D01*
X113636898Y-45392509D01*
X113638471Y-45378455D01*
X113649577Y-45293551D01*
X113653045Y-45278891D01*
X113666935Y-45238920D01*
X113667659Y-45237011D01*
X113691960Y-45177926D01*
X113697590Y-45166948D01*
X113722360Y-45127211D01*
X113724265Y-45124451D01*
X113762721Y-45073899D01*
X113765855Y-45070292D01*
X113801557Y-45034231D01*
X113805145Y-45031049D01*
X113855304Y-44992093D01*
X113858054Y-44990155D01*
X113897544Y-44964987D01*
X113908453Y-44959254D01*
X113967307Y-44934358D01*
X113969170Y-44933629D01*
X114006053Y-44920397D01*
X114023464Y-44916442D01*
X114128248Y-44905692D01*
X114132020Y-44905500D01*
X114134901Y-44905500D01*
X150998823Y-44905500D01*
X150998960Y-44905550D01*
G37*
G04 #@! TD.AperFunction*
G04 #@! TA.AperFunction,NonConductor*
G36*
X115974367Y-75086007D02*
G01*
X115980272Y-75091310D01*
X116213595Y-75324633D01*
X116441518Y-75552556D01*
X116451141Y-75564406D01*
X116459916Y-75577836D01*
X116489152Y-75600591D01*
X116492585Y-75603623D01*
X116496481Y-75607519D01*
X116514873Y-75620650D01*
X116516088Y-75621555D01*
X116558811Y-75654809D01*
X116558813Y-75654809D01*
X116558816Y-75654812D01*
X116564206Y-75657729D01*
X116564071Y-75657978D01*
X116567163Y-75659569D01*
X116567288Y-75659315D01*
X116572798Y-75662008D01*
X116572801Y-75662010D01*
X116624710Y-75677463D01*
X116626083Y-75677903D01*
X116677340Y-75695500D01*
X116677341Y-75695500D01*
X116683391Y-75696510D01*
X116683344Y-75696786D01*
X116686793Y-75697289D01*
X116686828Y-75697009D01*
X116692905Y-75697766D01*
X116692912Y-75697768D01*
X116725911Y-75696403D01*
X116746997Y-75695532D01*
X116748525Y-75695500D01*
X117775546Y-75695500D01*
X117823112Y-75712813D01*
X117848422Y-75756650D01*
X117839632Y-75806500D01*
X117800855Y-75839037D01*
X117794400Y-75841057D01*
X117603201Y-75891406D01*
X117569239Y-75900349D01*
X117350032Y-75998986D01*
X117350030Y-75998987D01*
X117150486Y-76132066D01*
X117150038Y-76132365D01*
X117150036Y-76132367D01*
X116974734Y-76296834D01*
X116974731Y-76296837D01*
X116828891Y-76487915D01*
X116828885Y-76487924D01*
X116716484Y-76700399D01*
X116640584Y-76928494D01*
X116622278Y-77044975D01*
X116597790Y-77089277D01*
X116550555Y-77107473D01*
X116502674Y-77091050D01*
X116496849Y-77085812D01*
X116017520Y-76606483D01*
X115996128Y-76560607D01*
X115996150Y-76547459D01*
X115997589Y-76531624D01*
X116000500Y-76499594D01*
X116000500Y-75540406D01*
X115994315Y-75472343D01*
X115963550Y-75373616D01*
X115945513Y-75315732D01*
X115904365Y-75247665D01*
X115864624Y-75181924D01*
X115854832Y-75132261D01*
X115879254Y-75087923D01*
X115926462Y-75069656D01*
X115974367Y-75086007D01*
G37*
G04 #@! TD.AperFunction*
G04 #@! TA.AperFunction,NonConductor*
G36*
X138826377Y-76097813D02*
G01*
X138831137Y-76102174D01*
X139957137Y-77228174D01*
X139978529Y-77274050D01*
X139965428Y-77322945D01*
X139923964Y-77351979D01*
X139904811Y-77354500D01*
X138942653Y-77354500D01*
X138895087Y-77337187D01*
X138881088Y-77321558D01*
X138869424Y-77304069D01*
X138486283Y-76729571D01*
X138278300Y-76417713D01*
X138278299Y-76417712D01*
X138166288Y-76276576D01*
X138166284Y-76276572D01*
X138091933Y-76209415D01*
X138068239Y-76164684D01*
X138078841Y-76115188D01*
X138118778Y-76084086D01*
X138141535Y-76080500D01*
X138778811Y-76080500D01*
X138826377Y-76097813D01*
G37*
G04 #@! TD.AperFunction*
G04 #@! TA.AperFunction,NonConductor*
G36*
X119471377Y-75712813D02*
G01*
X119476137Y-75717174D01*
X120987137Y-77228174D01*
X121008529Y-77274050D01*
X120995428Y-77322945D01*
X120953964Y-77351979D01*
X120934811Y-77354500D01*
X119892653Y-77354500D01*
X119845087Y-77337187D01*
X119831088Y-77321558D01*
X119819424Y-77304069D01*
X119436283Y-76729571D01*
X119228300Y-76417713D01*
X119228299Y-76417712D01*
X119116288Y-76276576D01*
X119116284Y-76276572D01*
X118937899Y-76115447D01*
X118910342Y-76097813D01*
X118735423Y-75985880D01*
X118735417Y-75985877D01*
X118735411Y-75985874D01*
X118514382Y-75891405D01*
X118308778Y-75841404D01*
X118266650Y-75813342D01*
X118252417Y-75764765D01*
X118272737Y-75718404D01*
X118318104Y-75695951D01*
X118326265Y-75695500D01*
X119423811Y-75695500D01*
X119471377Y-75712813D01*
G37*
G04 #@! TD.AperFunction*
M02*
