G04 #@! TF.GenerationSoftware,KiCad,Pcbnew,7.0.5*
G04 #@! TF.CreationDate,2023-08-16T13:58:06+08:00*
G04 #@! TF.ProjectId,LA,4c412e6b-6963-4616-945f-706362585858,rev?*
G04 #@! TF.SameCoordinates,Original*
G04 #@! TF.FileFunction,Legend,Top*
G04 #@! TF.FilePolarity,Positive*
%FSLAX46Y46*%
G04 Gerber Fmt 4.6, Leading zero omitted, Abs format (unit mm)*
G04 Created by KiCad (PCBNEW 7.0.5) date 2023-08-16 13:58:06*
%MOMM*%
%LPD*%
G01*
G04 APERTURE LIST*
G04 Aperture macros list*
%AMRoundRect*
0 Rectangle with rounded corners*
0 $1 Rounding radius*
0 $2 $3 $4 $5 $6 $7 $8 $9 X,Y pos of 4 corners*
0 Add a 4 corners polygon primitive as box body*
4,1,4,$2,$3,$4,$5,$6,$7,$8,$9,$2,$3,0*
0 Add four circle primitives for the rounded corners*
1,1,$1+$1,$2,$3*
1,1,$1+$1,$4,$5*
1,1,$1+$1,$6,$7*
1,1,$1+$1,$8,$9*
0 Add four rect primitives between the rounded corners*
20,1,$1+$1,$2,$3,$4,$5,0*
20,1,$1+$1,$4,$5,$6,$7,0*
20,1,$1+$1,$6,$7,$8,$9,0*
20,1,$1+$1,$8,$9,$2,$3,0*%
%AMHorizOval*
0 Thick line with rounded ends*
0 $1 width*
0 $2 $3 position (X,Y) of the first rounded end (center of the circle)*
0 $4 $5 position (X,Y) of the second rounded end (center of the circle)*
0 Add line between two ends*
20,1,$1,$2,$3,$4,$5,0*
0 Add two circle primitives to create the rounded ends*
1,1,$1,$2,$3*
1,1,$1,$4,$5*%
%AMOutline4P*
0 Free polygon, 4 corners , with rotation*
0 The origin of the aperture is its center*
0 number of corners: always 4*
0 $1 to $8 corner X, Y*
0 $9 Rotation angle, in degrees counterclockwise*
0 create outline with 4 corners*
4,1,4,$1,$2,$3,$4,$5,$6,$7,$8,$1,$2,$9*%
G04 Aperture macros list end*
%ADD10C,0.150000*%
%ADD11O,2.200000X1.900000*%
%ADD12C,5.100000*%
%ADD13HorizOval,2.400000X-0.305164X0.457575X0.305164X-0.457575X0*%
%ADD14C,2.400000*%
%ADD15Outline4P,-1.300000X-1.200000X1.300000X-1.200000X1.300000X1.200000X-1.300000X1.200000X0.000000*%
%ADD16Outline4P,-1.200000X-1.200000X1.200000X-1.200000X1.200000X1.200000X-1.200000X1.200000X0.000000*%
%ADD17C,3.500000*%
%ADD18C,1.700000*%
%ADD19O,1.700000X1.700000*%
%ADD20RoundRect,0.425000X-0.425000X-0.425000X0.425000X-0.425000X0.425000X0.425000X-0.425000X0.425000X0*%
%ADD21R,1.600000X1.600000*%
%ADD22O,1.600000X1.600000*%
G04 APERTURE END LIST*
D10*
X114880952Y-46484819D02*
X114404762Y-46484819D01*
X114404762Y-46484819D02*
X114404762Y-45484819D01*
X115166667Y-46199104D02*
X115642857Y-46199104D01*
X115071429Y-46484819D02*
X115404762Y-45484819D01*
X115404762Y-45484819D02*
X115738095Y-46484819D01*
%LPC*%
D11*
X136810000Y-54430000D03*
D12*
X142110000Y-54430000D03*
D11*
X147410000Y-54430000D03*
D13*
X137410000Y-58680000D03*
D14*
X138300000Y-51890000D03*
X142110000Y-60330000D03*
D15*
X143410000Y-60330000D03*
D14*
X144650000Y-49330000D03*
X144710000Y-60330000D03*
D16*
X145880000Y-49330000D03*
D14*
X147110000Y-49330000D03*
D11*
X117760000Y-54430000D03*
D12*
X123060000Y-54430000D03*
D11*
X128360000Y-54430000D03*
D13*
X118360000Y-58680000D03*
D14*
X119250000Y-51890000D03*
X123060000Y-60330000D03*
D15*
X124360000Y-60330000D03*
D14*
X125600000Y-49330000D03*
X125660000Y-60330000D03*
D16*
X126830000Y-49330000D03*
D14*
X128060000Y-49330000D03*
D17*
X132585000Y-83005000D03*
X132585000Y-63955000D03*
D18*
X150230000Y-65860000D03*
D19*
X150230000Y-68400000D03*
X150230000Y-70940000D03*
X150230000Y-73480000D03*
D20*
X150230000Y-76020000D03*
X150230000Y-78560000D03*
X150230000Y-81100000D03*
D11*
X117760000Y-92530000D03*
D12*
X123060000Y-92530000D03*
D11*
X128360000Y-92530000D03*
D13*
X118360000Y-96780000D03*
D14*
X119250000Y-89990000D03*
X123060000Y-98430000D03*
D15*
X124360000Y-98430000D03*
D14*
X125600000Y-87430000D03*
X125660000Y-98430000D03*
D16*
X126830000Y-87430000D03*
D14*
X128060000Y-87430000D03*
D11*
X136810000Y-73480000D03*
D12*
X142110000Y-73480000D03*
D11*
X147410000Y-73480000D03*
D13*
X137410000Y-77730000D03*
D14*
X138300000Y-70940000D03*
X142110000Y-79380000D03*
D15*
X143410000Y-79380000D03*
D14*
X144650000Y-68380000D03*
X144710000Y-79380000D03*
D16*
X145880000Y-68380000D03*
D14*
X147110000Y-68380000D03*
D11*
X136810000Y-92530000D03*
D12*
X142110000Y-92530000D03*
D11*
X147410000Y-92530000D03*
D13*
X137410000Y-96780000D03*
D14*
X138300000Y-89990000D03*
X142110000Y-98430000D03*
D15*
X143410000Y-98430000D03*
D14*
X144650000Y-87430000D03*
X144710000Y-98430000D03*
D16*
X145880000Y-87430000D03*
D14*
X147110000Y-87430000D03*
D11*
X117760000Y-73480000D03*
D12*
X123060000Y-73480000D03*
D11*
X128360000Y-73480000D03*
D13*
X118360000Y-77730000D03*
D14*
X119250000Y-70940000D03*
X123060000Y-79380000D03*
D15*
X124360000Y-79380000D03*
D14*
X125600000Y-68380000D03*
X125660000Y-79380000D03*
D16*
X126830000Y-68380000D03*
D14*
X128060000Y-68380000D03*
D18*
X114900000Y-68400000D03*
D19*
X114900000Y-70940000D03*
D20*
X114900000Y-73480000D03*
X114900000Y-76020000D03*
X114900000Y-78560000D03*
D21*
X131315000Y-77280000D03*
D22*
X131315000Y-69680000D03*
D21*
X133855000Y-96330000D03*
D22*
X133855000Y-88730000D03*
D21*
X131315000Y-96330000D03*
D22*
X131315000Y-88730000D03*
D21*
X131315000Y-58230000D03*
D22*
X131315000Y-50630000D03*
D21*
X133855000Y-77280000D03*
D22*
X133855000Y-69680000D03*
D21*
X133855000Y-58230000D03*
D22*
X133855000Y-50630000D03*
%LPD*%
M02*
