M48
; DRILL file {KiCad 7.0.5} date Thu Aug 10 21:35:11 2023
; FORMAT={-:-/ absolute / metric / decimal}
; #@! TF.CreationDate,2023-08-10T21:35:11+08:00
; #@! TF.GenerationSoftware,Kicad,Pcbnew,7.0.5
; #@! TF.FileFunction,NonPlated,1,2,NPTH
FMAT,2
METRIC
; #@! TA.AperFunction,NonPlated,NPTH,ComponentDrill
T1C1.900
; #@! TA.AperFunction,NonPlated,NPTH,ComponentDrill
T2C3.500
; #@! TA.AperFunction,NonPlated,NPTH,ComponentDrill
T3C5.100
%
G90
G05
T2
X132.585Y-63.955
X132.585Y-83.005
T3
X123.06Y-54.43
X123.06Y-73.48
X123.06Y-92.53
X142.11Y-54.43
X142.11Y-73.48
X142.11Y-92.53
T1
X117.61Y-54.43G85X117.91Y-54.43
G05
X117.61Y-73.48G85X117.91Y-73.48
G05
X117.61Y-92.53G85X117.91Y-92.53
G05
X128.21Y-54.43G85X128.51Y-54.43
G05
X128.21Y-73.48G85X128.51Y-73.48
G05
X128.21Y-92.53G85X128.51Y-92.53
G05
X136.66Y-54.43G85X136.96Y-54.43
G05
X136.66Y-73.48G85X136.96Y-73.48
G05
X136.66Y-92.53G85X136.96Y-92.53
G05
X147.26Y-54.43G85X147.56Y-54.43
G05
X147.26Y-73.48G85X147.56Y-73.48
G05
X147.26Y-92.53G85X147.56Y-92.53
G05
T0
M30
