M48
; DRILL file {KiCad 7.0.5} date Mon Jul 24 08:23:27 2023
; FORMAT={-:-/ absolute / metric / decimal}
; #@! TF.CreationDate,2023-07-24T08:23:27+08:00
; #@! TF.GenerationSoftware,Kicad,Pcbnew,7.0.5
; #@! TF.FileFunction,Plated,1,2,PTH
FMAT,2
METRIC
; #@! TA.AperFunction,Plated,PTH,ViaDrill
T1C0.400
; #@! TA.AperFunction,Plated,PTH,ComponentDrill
T2C1.000
; #@! TA.AperFunction,Plated,PTH,ComponentDrill
T3C1.500
%
G90
G05
T1
X118.906Y-68.742
X130.56Y-76.68
X141.88Y-68.89
T2
X114.9Y-68.4
X114.9Y-70.94
X114.9Y-73.48
X114.9Y-76.02
X114.9Y-78.56
X150.23Y-65.86
X150.23Y-68.4
X150.23Y-70.94
X150.23Y-73.48
X150.23Y-76.02
X150.23Y-78.56
X150.23Y-81.1
T3
X119.25Y-51.89
X119.25Y-70.94
X119.25Y-89.99
X123.06Y-60.33
X123.06Y-79.38
X123.06Y-98.43
X125.6Y-49.33
X125.6Y-68.38
X125.6Y-87.43
X125.66Y-60.33
X125.66Y-79.38
X125.66Y-98.43
X138.3Y-51.89
X138.3Y-70.94
X138.3Y-89.99
X142.11Y-60.33
X142.11Y-79.38
X142.11Y-98.43
X144.65Y-49.33
X144.65Y-68.38
X144.65Y-87.43
X144.71Y-60.33
X144.71Y-79.38
X144.71Y-98.43
T3
X118.637Y-59.096G85X118.083Y-58.264
G05
X118.637Y-78.146G85X118.083Y-77.314
G05
X118.637Y-97.196G85X118.083Y-96.364
G05
X128.06Y-49.33G85X128.06Y-49.33
G05
X128.06Y-68.38G85X128.06Y-68.38
G05
X128.06Y-87.43G85X128.06Y-87.43
G05
X137.687Y-59.096G85X137.133Y-58.264
G05
X137.687Y-78.146G85X137.133Y-77.314
G05
X137.687Y-97.196G85X137.133Y-96.364
G05
X147.11Y-49.33G85X147.11Y-49.33
G05
X147.11Y-68.38G85X147.11Y-68.38
G05
X147.11Y-87.43G85X147.11Y-87.43
G05
T0
M30
