G04 #@! TF.GenerationSoftware,KiCad,Pcbnew,7.0.5*
G04 #@! TF.CreationDate,2023-08-03T23:11:40+08:00*
G04 #@! TF.ProjectId,RT,52542e6b-6963-4616-945f-706362585858,rev?*
G04 #@! TF.SameCoordinates,Original*
G04 #@! TF.FileFunction,Copper,L2,Bot*
G04 #@! TF.FilePolarity,Positive*
%FSLAX46Y46*%
G04 Gerber Fmt 4.6, Leading zero omitted, Abs format (unit mm)*
G04 Created by KiCad (PCBNEW 7.0.5) date 2023-08-03 23:11:40*
%MOMM*%
%LPD*%
G01*
G04 APERTURE LIST*
G04 Aperture macros list*
%AMRoundRect*
0 Rectangle with rounded corners*
0 $1 Rounding radius*
0 $2 $3 $4 $5 $6 $7 $8 $9 X,Y pos of 4 corners*
0 Add a 4 corners polygon primitive as box body*
4,1,4,$2,$3,$4,$5,$6,$7,$8,$9,$2,$3,0*
0 Add four circle primitives for the rounded corners*
1,1,$1+$1,$2,$3*
1,1,$1+$1,$4,$5*
1,1,$1+$1,$6,$7*
1,1,$1+$1,$8,$9*
0 Add four rect primitives between the rounded corners*
20,1,$1+$1,$2,$3,$4,$5,0*
20,1,$1+$1,$4,$5,$6,$7,0*
20,1,$1+$1,$6,$7,$8,$9,0*
20,1,$1+$1,$8,$9,$2,$3,0*%
%AMHorizOval*
0 Thick line with rounded ends*
0 $1 width*
0 $2 $3 position (X,Y) of the first rounded end (center of the circle)*
0 $4 $5 position (X,Y) of the second rounded end (center of the circle)*
0 Add line between two ends*
20,1,$1,$2,$3,$4,$5,0*
0 Add two circle primitives to create the rounded ends*
1,1,$1,$2,$3*
1,1,$1,$4,$5*%
%AMOutline4P*
0 Free polygon, 4 corners , with rotation*
0 The origin of the aperture is its center*
0 number of corners: always 4*
0 $1 to $8 corner X, Y*
0 $9 Rotation angle, in degrees counterclockwise*
0 create outline with 4 corners*
4,1,4,$1,$2,$3,$4,$5,$6,$7,$8,$1,$2,$9*%
G04 Aperture macros list end*
G04 #@! TA.AperFunction,ComponentPad*
%ADD10RoundRect,0.425000X0.425000X-0.425000X0.425000X0.425000X-0.425000X0.425000X-0.425000X-0.425000X0*%
G04 #@! TD*
G04 #@! TA.AperFunction,ComponentPad*
%ADD11O,1.700000X1.700000*%
G04 #@! TD*
G04 #@! TA.AperFunction,ComponentPad*
%ADD12HorizOval,2.400000X-0.469952X0.285736X0.469952X-0.285736X0*%
G04 #@! TD*
G04 #@! TA.AperFunction,ComponentPad*
%ADD13C,2.400000*%
G04 #@! TD*
G04 #@! TA.AperFunction,SMDPad,CuDef*
%ADD14Outline4P,-1.150000X-1.200000X1.150000X-1.200000X1.150000X1.200000X-1.150000X1.200000X25.000000*%
G04 #@! TD*
G04 #@! TA.AperFunction,SMDPad,CuDef*
%ADD15Outline4P,-1.200000X-1.200000X1.200000X-1.200000X1.200000X1.200000X-1.200000X1.200000X25.000000*%
G04 #@! TD*
G04 #@! TA.AperFunction,ComponentPad*
%ADD16HorizOval,2.400000X-0.305164X0.457575X0.305164X-0.457575X0*%
G04 #@! TD*
G04 #@! TA.AperFunction,SMDPad,CuDef*
%ADD17Outline4P,-1.150000X-1.200000X1.150000X-1.200000X1.150000X1.200000X-1.150000X1.200000X0.000000*%
G04 #@! TD*
G04 #@! TA.AperFunction,SMDPad,CuDef*
%ADD18Outline4P,-1.200000X-1.200000X1.200000X-1.200000X1.200000X1.200000X-1.200000X1.200000X0.000000*%
G04 #@! TD*
G04 #@! TA.AperFunction,SMDPad,CuDef*
%ADD19RoundRect,0.225000X-0.375000X0.225000X-0.375000X-0.225000X0.375000X-0.225000X0.375000X0.225000X0*%
G04 #@! TD*
G04 #@! TA.AperFunction,SMDPad,CuDef*
%ADD20RoundRect,0.225000X-0.225000X-0.375000X0.225000X-0.375000X0.225000X0.375000X-0.225000X0.375000X0*%
G04 #@! TD*
G04 #@! TA.AperFunction,Conductor*
%ADD21C,0.250000*%
G04 #@! TD*
G04 APERTURE END LIST*
D10*
X128740000Y-90650000D03*
D11*
X131280000Y-90650000D03*
X133820000Y-90650000D03*
X136360000Y-90650000D03*
D12*
X117393433Y-112206006D03*
D13*
X115330469Y-105676046D03*
X122350400Y-111715108D03*
D14*
X123528600Y-111165704D03*
D13*
X120003621Y-100672272D03*
X124706800Y-110616300D03*
D15*
X121118379Y-100152451D03*
D13*
X122233138Y-99632631D03*
D16*
X137340000Y-105700000D03*
D13*
X138230000Y-98910000D03*
X142040000Y-107350000D03*
D17*
X143340000Y-107350000D03*
D13*
X144580000Y-96350000D03*
X144640000Y-107350000D03*
D18*
X145810000Y-96350000D03*
D13*
X147040000Y-96350000D03*
D16*
X156390000Y-105700000D03*
D13*
X157280000Y-98910000D03*
X161090000Y-107350000D03*
D17*
X162390000Y-107350000D03*
D13*
X163630000Y-96350000D03*
X163690000Y-107350000D03*
D18*
X164860000Y-96350000D03*
D13*
X166090000Y-96350000D03*
D19*
X133510000Y-94960000D03*
X133510000Y-98260000D03*
D20*
X138390000Y-94950000D03*
X141690000Y-94950000D03*
X157440000Y-94950000D03*
X160740000Y-94950000D03*
D21*
X120003621Y-102093621D02*
X124706800Y-106796800D01*
X124706800Y-106796800D02*
X124706800Y-110616300D01*
X120003621Y-100672272D02*
X120003621Y-102093621D01*
X128980000Y-98260000D02*
X133510000Y-98260000D01*
X122233138Y-99632631D02*
X127607369Y-99632631D01*
X127607369Y-99632631D02*
X128980000Y-98260000D01*
X145780000Y-106210000D02*
X144640000Y-107350000D01*
X144580000Y-96350000D02*
X145780000Y-97550000D01*
X143180000Y-94950000D02*
X144580000Y-96350000D01*
X141690000Y-94950000D02*
X143180000Y-94950000D01*
X145780000Y-97550000D02*
X145780000Y-106210000D01*
X160740000Y-94950000D02*
X162230000Y-94950000D01*
X162230000Y-94950000D02*
X163630000Y-96350000D01*
X164830000Y-97550000D02*
X164830000Y-106210000D01*
X164830000Y-106210000D02*
X163690000Y-107350000D01*
X163630000Y-96350000D02*
X164830000Y-97550000D01*
X157440000Y-94950000D02*
X156020000Y-93530000D01*
X156020000Y-93530000D02*
X137630000Y-93530000D01*
X136360000Y-92260000D02*
X136360000Y-90650000D01*
X137630000Y-93530000D02*
X136360000Y-92260000D01*
X133820000Y-92460000D02*
X136310000Y-94950000D01*
X136310000Y-94950000D02*
X138390000Y-94950000D01*
X133820000Y-90650000D02*
X133820000Y-92460000D01*
X131280000Y-92730000D02*
X133510000Y-94960000D01*
X131280000Y-90650000D02*
X131280000Y-92560000D01*
X131280000Y-92560000D02*
X131280000Y-92730000D01*
M02*
