G04 #@! TF.GenerationSoftware,KiCad,Pcbnew,7.0.5*
G04 #@! TF.CreationDate,2023-08-10T21:37:20+08:00*
G04 #@! TF.ProjectId,RT,52542e6b-6963-4616-945f-706362585858,rev?*
G04 #@! TF.SameCoordinates,Original*
G04 #@! TF.FileFunction,Soldermask,Bot*
G04 #@! TF.FilePolarity,Negative*
%FSLAX46Y46*%
G04 Gerber Fmt 4.6, Leading zero omitted, Abs format (unit mm)*
G04 Created by KiCad (PCBNEW 7.0.5) date 2023-08-10 21:37:20*
%MOMM*%
%LPD*%
G01*
G04 APERTURE LIST*
G04 Aperture macros list*
%AMRoundRect*
0 Rectangle with rounded corners*
0 $1 Rounding radius*
0 $2 $3 $4 $5 $6 $7 $8 $9 X,Y pos of 4 corners*
0 Add a 4 corners polygon primitive as box body*
4,1,4,$2,$3,$4,$5,$6,$7,$8,$9,$2,$3,0*
0 Add four circle primitives for the rounded corners*
1,1,$1+$1,$2,$3*
1,1,$1+$1,$4,$5*
1,1,$1+$1,$6,$7*
1,1,$1+$1,$8,$9*
0 Add four rect primitives between the rounded corners*
20,1,$1+$1,$2,$3,$4,$5,0*
20,1,$1+$1,$4,$5,$6,$7,0*
20,1,$1+$1,$6,$7,$8,$9,0*
20,1,$1+$1,$8,$9,$2,$3,0*%
%AMHorizOval*
0 Thick line with rounded ends*
0 $1 width*
0 $2 $3 position (X,Y) of the first rounded end (center of the circle)*
0 $4 $5 position (X,Y) of the second rounded end (center of the circle)*
0 Add line between two ends*
20,1,$1,$2,$3,$4,$5,0*
0 Add two circle primitives to create the rounded ends*
1,1,$1,$2,$3*
1,1,$1,$4,$5*%
%AMOutline4P*
0 Free polygon, 4 corners , with rotation*
0 The origin of the aperture is its center*
0 number of corners: always 4*
0 $1 to $8 corner X, Y*
0 $9 Rotation angle, in degrees counterclockwise*
0 create outline with 4 corners*
4,1,4,$1,$2,$3,$4,$5,$6,$7,$8,$1,$2,$9*%
G04 Aperture macros list end*
%ADD10RoundRect,0.425000X0.425000X-0.425000X0.425000X0.425000X-0.425000X0.425000X-0.425000X-0.425000X0*%
%ADD11O,1.700000X1.700000*%
%ADD12C,3.500000*%
%ADD13HorizOval,1.900000X0.135946X0.063393X-0.135946X-0.063393X0*%
%ADD14C,5.100000*%
%ADD15HorizOval,2.400000X-0.469952X0.285736X0.469952X-0.285736X0*%
%ADD16C,2.400000*%
%ADD17Outline4P,-1.150000X-1.200000X1.150000X-1.200000X1.150000X1.200000X-1.150000X1.200000X25.000000*%
%ADD18Outline4P,-1.200000X-1.200000X1.200000X-1.200000X1.200000X1.200000X-1.200000X1.200000X25.000000*%
%ADD19O,2.200000X1.900000*%
%ADD20HorizOval,2.400000X-0.305164X0.457575X0.305164X-0.457575X0*%
%ADD21Outline4P,-1.150000X-1.200000X1.150000X-1.200000X1.150000X1.200000X-1.150000X1.200000X0.000000*%
%ADD22Outline4P,-1.200000X-1.200000X1.200000X-1.200000X1.200000X1.200000X-1.200000X1.200000X0.000000*%
%ADD23R,1.600000X1.600000*%
%ADD24RoundRect,0.225000X-0.375000X0.225000X-0.375000X-0.225000X0.375000X-0.225000X0.375000X0.225000X0*%
%ADD25O,1.600000X1.600000*%
G04 APERTURE END LIST*
D10*
X128740000Y-90650000D03*
D11*
X131280000Y-90650000D03*
X133820000Y-90650000D03*
X136360000Y-90650000D03*
D12*
X174115000Y-101450000D03*
D13*
X115053521Y-108607769D03*
D14*
X119856952Y-106367892D03*
D13*
X124660383Y-104128015D03*
D15*
X117393433Y-112206006D03*
D16*
X115330469Y-105676046D03*
X122350400Y-111715108D03*
D17*
X123528600Y-111165704D03*
D16*
X120003621Y-100672272D03*
X124706800Y-110616300D03*
D18*
X121118379Y-100152451D03*
D16*
X122233138Y-99632631D03*
D12*
X130410000Y-101450000D03*
D19*
X136740000Y-101450000D03*
D14*
X142040000Y-101450000D03*
D19*
X147340000Y-101450000D03*
D20*
X137340000Y-105700000D03*
D16*
X138230000Y-98910000D03*
X142040000Y-107350000D03*
D21*
X143340000Y-107350000D03*
D16*
X144580000Y-96350000D03*
X144640000Y-107350000D03*
D22*
X145810000Y-96350000D03*
D16*
X147040000Y-96350000D03*
D19*
X155790000Y-101450000D03*
D14*
X161090000Y-101450000D03*
D19*
X166390000Y-101450000D03*
D20*
X156390000Y-105700000D03*
D16*
X157280000Y-98910000D03*
X161090000Y-107350000D03*
D21*
X162390000Y-107350000D03*
D16*
X163630000Y-96350000D03*
X163690000Y-107350000D03*
D22*
X164860000Y-96350000D03*
D16*
X166090000Y-96350000D03*
D23*
X133785000Y-97650000D03*
D24*
X133785000Y-99800000D03*
X133785000Y-103100000D03*
D25*
X133785000Y-105250000D03*
D23*
X150295000Y-97650000D03*
D24*
X150295000Y-99800000D03*
X150295000Y-103100000D03*
D25*
X150295000Y-105250000D03*
D23*
X152835000Y-97650000D03*
D24*
X152835000Y-99800000D03*
X152835000Y-103100000D03*
D25*
X152835000Y-105250000D03*
M02*
