G04 #@! TF.GenerationSoftware,KiCad,Pcbnew,7.0.5*
G04 #@! TF.CreationDate,2023-08-20T02:01:28+08:00*
G04 #@! TF.ProjectId,RT,52542e6b-6963-4616-945f-706362585858,rev?*
G04 #@! TF.SameCoordinates,Original*
G04 #@! TF.FileFunction,Copper,L2,Bot*
G04 #@! TF.FilePolarity,Positive*
%FSLAX46Y46*%
G04 Gerber Fmt 4.6, Leading zero omitted, Abs format (unit mm)*
G04 Created by KiCad (PCBNEW 7.0.5) date 2023-08-20 02:01:28*
%MOMM*%
%LPD*%
G01*
G04 APERTURE LIST*
G04 Aperture macros list*
%AMRoundRect*
0 Rectangle with rounded corners*
0 $1 Rounding radius*
0 $2 $3 $4 $5 $6 $7 $8 $9 X,Y pos of 4 corners*
0 Add a 4 corners polygon primitive as box body*
4,1,4,$2,$3,$4,$5,$6,$7,$8,$9,$2,$3,0*
0 Add four circle primitives for the rounded corners*
1,1,$1+$1,$2,$3*
1,1,$1+$1,$4,$5*
1,1,$1+$1,$6,$7*
1,1,$1+$1,$8,$9*
0 Add four rect primitives between the rounded corners*
20,1,$1+$1,$2,$3,$4,$5,0*
20,1,$1+$1,$4,$5,$6,$7,0*
20,1,$1+$1,$6,$7,$8,$9,0*
20,1,$1+$1,$8,$9,$2,$3,0*%
%AMHorizOval*
0 Thick line with rounded ends*
0 $1 width*
0 $2 $3 position (X,Y) of the first rounded end (center of the circle)*
0 $4 $5 position (X,Y) of the second rounded end (center of the circle)*
0 Add line between two ends*
20,1,$1,$2,$3,$4,$5,0*
0 Add two circle primitives to create the rounded ends*
1,1,$1,$2,$3*
1,1,$1,$4,$5*%
%AMOutline4P*
0 Free polygon, 4 corners , with rotation*
0 The origin of the aperture is its center*
0 number of corners: always 4*
0 $1 to $8 corner X, Y*
0 $9 Rotation angle, in degrees counterclockwise*
0 create outline with 4 corners*
4,1,4,$1,$2,$3,$4,$5,$6,$7,$8,$1,$2,$9*%
G04 Aperture macros list end*
G04 #@! TA.AperFunction,ComponentPad*
%ADD10RoundRect,0.425000X0.425000X-0.425000X0.425000X0.425000X-0.425000X0.425000X-0.425000X-0.425000X0*%
G04 #@! TD*
G04 #@! TA.AperFunction,ComponentPad*
%ADD11O,1.700000X1.700000*%
G04 #@! TD*
G04 #@! TA.AperFunction,ComponentPad*
%ADD12HorizOval,2.400000X-0.469952X0.285736X0.469952X-0.285736X0*%
G04 #@! TD*
G04 #@! TA.AperFunction,ComponentPad*
%ADD13C,2.400000*%
G04 #@! TD*
G04 #@! TA.AperFunction,SMDPad,CuDef*
%ADD14Outline4P,-1.150000X-1.200000X1.150000X-1.200000X1.150000X1.200000X-1.150000X1.200000X25.000000*%
G04 #@! TD*
G04 #@! TA.AperFunction,SMDPad,CuDef*
%ADD15Outline4P,-1.200000X-1.200000X1.200000X-1.200000X1.200000X1.200000X-1.200000X1.200000X25.000000*%
G04 #@! TD*
G04 #@! TA.AperFunction,ComponentPad*
%ADD16HorizOval,2.400000X-0.305164X0.457575X0.305164X-0.457575X0*%
G04 #@! TD*
G04 #@! TA.AperFunction,SMDPad,CuDef*
%ADD17Outline4P,-1.150000X-1.200000X1.150000X-1.200000X1.150000X1.200000X-1.150000X1.200000X0.000000*%
G04 #@! TD*
G04 #@! TA.AperFunction,SMDPad,CuDef*
%ADD18Outline4P,-1.200000X-1.200000X1.200000X-1.200000X1.200000X1.200000X-1.200000X1.200000X0.000000*%
G04 #@! TD*
G04 #@! TA.AperFunction,ComponentPad*
%ADD19R,1.600000X1.600000*%
G04 #@! TD*
G04 #@! TA.AperFunction,SMDPad,CuDef*
%ADD20RoundRect,0.225000X-0.375000X0.225000X-0.375000X-0.225000X0.375000X-0.225000X0.375000X0.225000X0*%
G04 #@! TD*
G04 #@! TA.AperFunction,ComponentPad*
%ADD21O,1.600000X1.600000*%
G04 #@! TD*
G04 #@! TA.AperFunction,Conductor*
%ADD22C,0.250000*%
G04 #@! TD*
G04 APERTURE END LIST*
D10*
X128740000Y-90650000D03*
D11*
X131280000Y-90650000D03*
X133820000Y-90650000D03*
X136360000Y-90650000D03*
D12*
X117393433Y-112206006D03*
D13*
X115330469Y-105676046D03*
X122350400Y-111715108D03*
D14*
X123528600Y-111165704D03*
D13*
X120003621Y-100672272D03*
X124706800Y-110616300D03*
D15*
X121118379Y-100152451D03*
D13*
X122233138Y-99632631D03*
D16*
X137340000Y-105700000D03*
D13*
X138230000Y-98910000D03*
X142040000Y-107350000D03*
D17*
X143340000Y-107350000D03*
D13*
X144580000Y-96350000D03*
X144640000Y-107350000D03*
D18*
X145810000Y-96350000D03*
D13*
X147040000Y-96350000D03*
D16*
X156390000Y-105700000D03*
D13*
X157280000Y-98910000D03*
X161090000Y-107350000D03*
D17*
X162390000Y-107350000D03*
D13*
X163630000Y-96350000D03*
X163690000Y-107350000D03*
D18*
X164860000Y-96350000D03*
D13*
X166090000Y-96350000D03*
D19*
X133785000Y-97650000D03*
D20*
X133785000Y-99800000D03*
X133785000Y-103100000D03*
D21*
X133785000Y-105250000D03*
D19*
X150295000Y-97650000D03*
D20*
X150295000Y-99800000D03*
X150295000Y-103100000D03*
D21*
X150295000Y-105250000D03*
D19*
X152835000Y-97650000D03*
D20*
X152835000Y-99800000D03*
X152835000Y-103100000D03*
D21*
X152835000Y-105250000D03*
D22*
X120003621Y-102369328D02*
X124706800Y-107072507D01*
X130073100Y-105250000D02*
X124706800Y-110616300D01*
X124706800Y-107072507D02*
X124706800Y-110616300D01*
X120003621Y-100672272D02*
X120003621Y-102369328D01*
X133785000Y-105250000D02*
X130073100Y-105250000D01*
X133785000Y-103100000D02*
X133785000Y-105250000D01*
X145780000Y-97550000D02*
X145780000Y-106210000D01*
X144580000Y-96350000D02*
X145780000Y-97550000D01*
X150295000Y-105250000D02*
X150295000Y-103100000D01*
X145780000Y-106210000D02*
X144640000Y-107350000D01*
X164890000Y-106150000D02*
X164890000Y-97610000D01*
X164890000Y-97610000D02*
X163630000Y-96350000D01*
X163690000Y-107350000D02*
X164890000Y-106150000D01*
X152835000Y-105250000D02*
X152835000Y-103100000D01*
X117393433Y-108722050D02*
X117393433Y-112206006D01*
X157280000Y-104810000D02*
X157280000Y-98910000D01*
X115330469Y-106659086D02*
X117393433Y-108722050D01*
X115330469Y-105676046D02*
X115330469Y-106659086D01*
X156390000Y-105700000D02*
X157280000Y-104810000D01*
X138230000Y-104810000D02*
X138230000Y-98910000D01*
X137340000Y-105700000D02*
X138230000Y-104810000D01*
X133785000Y-97650000D02*
X133785000Y-93155000D01*
X133785000Y-97650000D02*
X133785000Y-99800000D01*
X133785000Y-93155000D02*
X131280000Y-90650000D01*
X150295000Y-97650000D02*
X150295000Y-96345000D01*
X148260000Y-94310000D02*
X135620000Y-94310000D01*
X150295000Y-96345000D02*
X148260000Y-94310000D01*
X150295000Y-99800000D02*
X150295000Y-97650000D01*
X133820000Y-92510000D02*
X133820000Y-90650000D01*
X135620000Y-94310000D02*
X133820000Y-92510000D01*
X150350000Y-93840000D02*
X137915000Y-93840000D01*
X152835000Y-97650000D02*
X152835000Y-96325000D01*
X137915000Y-93840000D02*
X136360000Y-92285000D01*
X136360000Y-92285000D02*
X136360000Y-90650000D01*
X152835000Y-96325000D02*
X150350000Y-93840000D01*
X152835000Y-97650000D02*
X152835000Y-99800000D01*
G04 #@! TA.AperFunction,NonConductor*
G36*
X130176216Y-91440965D02*
G01*
X130206346Y-91471189D01*
X130241505Y-91521401D01*
X130408599Y-91688495D01*
X130490208Y-91745638D01*
X130602165Y-91824032D01*
X130602167Y-91824033D01*
X130602170Y-91824035D01*
X130816337Y-91923903D01*
X130816343Y-91923904D01*
X130816344Y-91923905D01*
X130869038Y-91938024D01*
X131044592Y-91985063D01*
X131221034Y-92000500D01*
X131279999Y-92005659D01*
X131280000Y-92005659D01*
X131280001Y-92005659D01*
X131338966Y-92000500D01*
X131515408Y-91985063D01*
X131615873Y-91958143D01*
X131685722Y-91959806D01*
X131735646Y-91990236D01*
X133123181Y-93377772D01*
X133156665Y-93439093D01*
X133159499Y-93465451D01*
X133159499Y-96225500D01*
X133139814Y-96292539D01*
X133087010Y-96338294D01*
X133035500Y-96349500D01*
X132937130Y-96349500D01*
X132937123Y-96349501D01*
X132877516Y-96355908D01*
X132742671Y-96406202D01*
X132742664Y-96406206D01*
X132627455Y-96492452D01*
X132627452Y-96492455D01*
X132541206Y-96607664D01*
X132541202Y-96607671D01*
X132490908Y-96742517D01*
X132484501Y-96802116D01*
X132484501Y-96802123D01*
X132484500Y-96802135D01*
X132484500Y-98497870D01*
X132484501Y-98497876D01*
X132490908Y-98557483D01*
X132541202Y-98692328D01*
X132541206Y-98692335D01*
X132627452Y-98807544D01*
X132627455Y-98807547D01*
X132742664Y-98893793D01*
X132742673Y-98893798D01*
X132796792Y-98913983D01*
X132852726Y-98955854D01*
X132877144Y-99021318D01*
X132862293Y-99089591D01*
X132841146Y-99117841D01*
X132837034Y-99121952D01*
X132837029Y-99121959D01*
X132748001Y-99266294D01*
X132747996Y-99266305D01*
X132694651Y-99427290D01*
X132684500Y-99526647D01*
X132684500Y-100073337D01*
X132684501Y-100073355D01*
X132694650Y-100172707D01*
X132694651Y-100172710D01*
X132747996Y-100333694D01*
X132748001Y-100333705D01*
X132837029Y-100478040D01*
X132837032Y-100478044D01*
X132956955Y-100597967D01*
X132956959Y-100597970D01*
X133101294Y-100686998D01*
X133101297Y-100686999D01*
X133101303Y-100687003D01*
X133262292Y-100740349D01*
X133361655Y-100750500D01*
X134208344Y-100750499D01*
X134208352Y-100750498D01*
X134208355Y-100750498D01*
X134262760Y-100744940D01*
X134307708Y-100740349D01*
X134468697Y-100687003D01*
X134613044Y-100597968D01*
X134732968Y-100478044D01*
X134822003Y-100333697D01*
X134875349Y-100172708D01*
X134885500Y-100073345D01*
X134885499Y-99526656D01*
X134885394Y-99525631D01*
X134875349Y-99427292D01*
X134875348Y-99427289D01*
X134870493Y-99412637D01*
X134822003Y-99266303D01*
X134821999Y-99266297D01*
X134821998Y-99266294D01*
X134732970Y-99121959D01*
X134732967Y-99121955D01*
X134728858Y-99117846D01*
X134695373Y-99056523D01*
X134700357Y-98986831D01*
X134742229Y-98930898D01*
X134773207Y-98913983D01*
X134827326Y-98893798D01*
X134827326Y-98893797D01*
X134827331Y-98893796D01*
X134942546Y-98807546D01*
X135028796Y-98692331D01*
X135079091Y-98557483D01*
X135085500Y-98497873D01*
X135085499Y-96802128D01*
X135079091Y-96742517D01*
X135028796Y-96607669D01*
X135028795Y-96607668D01*
X135028793Y-96607664D01*
X134942547Y-96492455D01*
X134942544Y-96492452D01*
X134827335Y-96406206D01*
X134827328Y-96406202D01*
X134692482Y-96355908D01*
X134692483Y-96355908D01*
X134632883Y-96349501D01*
X134632881Y-96349500D01*
X134632873Y-96349500D01*
X134632865Y-96349500D01*
X134534500Y-96349500D01*
X134467461Y-96329815D01*
X134421706Y-96277011D01*
X134410500Y-96225500D01*
X134410500Y-94284452D01*
X134430185Y-94217413D01*
X134482989Y-94171658D01*
X134552147Y-94161714D01*
X134615703Y-94190739D01*
X134622181Y-94196771D01*
X135119197Y-94693788D01*
X135129022Y-94706051D01*
X135129243Y-94705869D01*
X135134211Y-94711874D01*
X135183932Y-94758566D01*
X135185332Y-94759923D01*
X135205523Y-94780115D01*
X135205527Y-94780118D01*
X135205529Y-94780120D01*
X135211011Y-94784373D01*
X135215443Y-94788157D01*
X135249418Y-94820062D01*
X135266976Y-94829714D01*
X135283235Y-94840395D01*
X135299064Y-94852673D01*
X135341838Y-94871182D01*
X135347056Y-94873738D01*
X135387908Y-94896197D01*
X135407316Y-94901180D01*
X135425717Y-94907480D01*
X135444104Y-94915437D01*
X135487488Y-94922308D01*
X135490119Y-94922725D01*
X135495839Y-94923909D01*
X135540981Y-94935500D01*
X135561016Y-94935500D01*
X135580414Y-94937026D01*
X135600194Y-94940159D01*
X135600195Y-94940160D01*
X135600195Y-94940159D01*
X135600196Y-94940160D01*
X135646583Y-94935775D01*
X135652422Y-94935500D01*
X143288422Y-94935500D01*
X143355461Y-94955185D01*
X143401216Y-95007989D01*
X143411160Y-95077147D01*
X143382135Y-95140703D01*
X143372767Y-95150394D01*
X143359136Y-95163041D01*
X143329951Y-95190121D01*
X143329950Y-95190123D01*
X143171041Y-95389388D01*
X143043608Y-95610109D01*
X142950492Y-95847362D01*
X142950490Y-95847369D01*
X142893777Y-96095845D01*
X142874732Y-96349995D01*
X142874732Y-96350004D01*
X142893777Y-96604154D01*
X142938963Y-96802129D01*
X142950492Y-96852637D01*
X143043607Y-97089888D01*
X143171041Y-97310612D01*
X143329950Y-97509877D01*
X143516783Y-97683232D01*
X143727366Y-97826805D01*
X143727371Y-97826807D01*
X143727372Y-97826808D01*
X143727373Y-97826809D01*
X143849328Y-97885538D01*
X143956992Y-97937387D01*
X143956993Y-97937387D01*
X143956996Y-97937389D01*
X144200542Y-98012513D01*
X144452565Y-98050500D01*
X144758789Y-98050500D01*
X144758798Y-98050499D01*
X145030500Y-98050499D01*
X145097539Y-98070184D01*
X145143294Y-98122988D01*
X145154500Y-98174499D01*
X145154500Y-105563751D01*
X145134815Y-105630790D01*
X145082011Y-105676545D01*
X145012853Y-105686489D01*
X145012140Y-105686384D01*
X144924680Y-105673201D01*
X144767440Y-105649500D01*
X144767435Y-105649500D01*
X144512565Y-105649500D01*
X144512564Y-105649500D01*
X142167441Y-105649500D01*
X142167435Y-105649500D01*
X141912565Y-105649500D01*
X141912559Y-105649500D01*
X141755609Y-105673157D01*
X141660542Y-105687487D01*
X141660538Y-105687488D01*
X141660539Y-105687488D01*
X141660533Y-105687489D01*
X141416992Y-105762612D01*
X141187373Y-105873190D01*
X141187372Y-105873191D01*
X141187366Y-105873194D01*
X141187366Y-105873195D01*
X141162639Y-105890053D01*
X140976782Y-106016768D01*
X140789952Y-106190121D01*
X140789950Y-106190123D01*
X140631041Y-106389388D01*
X140503608Y-106610109D01*
X140410492Y-106847362D01*
X140410490Y-106847369D01*
X140353777Y-107095845D01*
X140334732Y-107349995D01*
X140334732Y-107350004D01*
X140353777Y-107604154D01*
X140406769Y-107836329D01*
X140410492Y-107852637D01*
X140503607Y-108089888D01*
X140631041Y-108310612D01*
X140789950Y-108509877D01*
X140976783Y-108683232D01*
X141187366Y-108826805D01*
X141187371Y-108826807D01*
X141187372Y-108826808D01*
X141187373Y-108826809D01*
X141300225Y-108881155D01*
X141416992Y-108937387D01*
X141416993Y-108937387D01*
X141416996Y-108937389D01*
X141660542Y-109012513D01*
X141912565Y-109050500D01*
X142218789Y-109050500D01*
X142218798Y-109050499D01*
X144510361Y-109050499D01*
X144510389Y-109050500D01*
X144512565Y-109050500D01*
X144767435Y-109050500D01*
X145019458Y-109012513D01*
X145263004Y-108937389D01*
X145492634Y-108826805D01*
X145703217Y-108683232D01*
X145890050Y-108509877D01*
X146048959Y-108310612D01*
X146176393Y-108089888D01*
X146269508Y-107852637D01*
X146326222Y-107604157D01*
X146337130Y-107458591D01*
X146345268Y-107350004D01*
X146345268Y-107349995D01*
X146329501Y-107139602D01*
X146326222Y-107095843D01*
X146269508Y-106847363D01*
X146230656Y-106748371D01*
X146224487Y-106678774D01*
X146248102Y-106627071D01*
X146250113Y-106624477D01*
X146250120Y-106624471D01*
X146254388Y-106618968D01*
X146258155Y-106614557D01*
X146290062Y-106580582D01*
X146299713Y-106563024D01*
X146310396Y-106546761D01*
X146322673Y-106530936D01*
X146341185Y-106488153D01*
X146343738Y-106482941D01*
X146366197Y-106442092D01*
X146371180Y-106422680D01*
X146377481Y-106404280D01*
X146385437Y-106385896D01*
X146392729Y-106339852D01*
X146393906Y-106334171D01*
X146405500Y-106289019D01*
X146405500Y-106268982D01*
X146407027Y-106249582D01*
X146410160Y-106229804D01*
X146405775Y-106183415D01*
X146405500Y-106177577D01*
X146405500Y-105250001D01*
X148989532Y-105250001D01*
X149009364Y-105476686D01*
X149009366Y-105476697D01*
X149068258Y-105696488D01*
X149068261Y-105696497D01*
X149164431Y-105902732D01*
X149164432Y-105902734D01*
X149294954Y-106089141D01*
X149455858Y-106250045D01*
X149455861Y-106250047D01*
X149642266Y-106380568D01*
X149848504Y-106476739D01*
X149848509Y-106476740D01*
X149848511Y-106476741D01*
X149901415Y-106490916D01*
X150068308Y-106535635D01*
X150230230Y-106549801D01*
X150294998Y-106555468D01*
X150295000Y-106555468D01*
X150295002Y-106555468D01*
X150351673Y-106550509D01*
X150521692Y-106535635D01*
X150741496Y-106476739D01*
X150947734Y-106380568D01*
X151134139Y-106250047D01*
X151295047Y-106089139D01*
X151425568Y-105902734D01*
X151452618Y-105844724D01*
X151498790Y-105792285D01*
X151565983Y-105773133D01*
X151632865Y-105793348D01*
X151677382Y-105844725D01*
X151704429Y-105902728D01*
X151704432Y-105902734D01*
X151834954Y-106089141D01*
X151995858Y-106250045D01*
X151995861Y-106250047D01*
X152182266Y-106380568D01*
X152388504Y-106476739D01*
X152388509Y-106476740D01*
X152388511Y-106476741D01*
X152441415Y-106490916D01*
X152608308Y-106535635D01*
X152770230Y-106549801D01*
X152834998Y-106555468D01*
X152835000Y-106555468D01*
X152835002Y-106555468D01*
X152891672Y-106550509D01*
X153061692Y-106535635D01*
X153281496Y-106476739D01*
X153487734Y-106380568D01*
X153674139Y-106250047D01*
X153835047Y-106089139D01*
X153965568Y-105902734D01*
X154061739Y-105696496D01*
X154120635Y-105476692D01*
X154134083Y-105322969D01*
X154153177Y-105274156D01*
X154360683Y-105274156D01*
X154379180Y-105309346D01*
X154381444Y-105327350D01*
X154381619Y-105330730D01*
X154415062Y-105589698D01*
X154487640Y-105840512D01*
X154487642Y-105840517D01*
X154487643Y-105840519D01*
X154597660Y-106077321D01*
X154597663Y-106077326D01*
X154597665Y-106077329D01*
X155316590Y-107155314D01*
X155437338Y-107309364D01*
X155437340Y-107309366D01*
X155437341Y-107309367D01*
X155627903Y-107487875D01*
X155843480Y-107635201D01*
X156079019Y-107747893D01*
X156329002Y-107823309D01*
X156587566Y-107859682D01*
X156848652Y-107856158D01*
X157106141Y-107812822D01*
X157106147Y-107812819D01*
X157106152Y-107812819D01*
X157204044Y-107780378D01*
X157353996Y-107730687D01*
X157586410Y-107611681D01*
X157797933Y-107458591D01*
X157907757Y-107350004D01*
X159384732Y-107350004D01*
X159403777Y-107604154D01*
X159456769Y-107836329D01*
X159460492Y-107852637D01*
X159553607Y-108089888D01*
X159681041Y-108310612D01*
X159839950Y-108509877D01*
X160026783Y-108683232D01*
X160237366Y-108826805D01*
X160237371Y-108826807D01*
X160237372Y-108826808D01*
X160237373Y-108826809D01*
X160350225Y-108881155D01*
X160466992Y-108937387D01*
X160466993Y-108937387D01*
X160466996Y-108937389D01*
X160710542Y-109012513D01*
X160962565Y-109050500D01*
X161268789Y-109050500D01*
X161268798Y-109050499D01*
X163560361Y-109050499D01*
X163560389Y-109050500D01*
X163562565Y-109050500D01*
X163817435Y-109050500D01*
X164069458Y-109012513D01*
X164313004Y-108937389D01*
X164542634Y-108826805D01*
X164753217Y-108683232D01*
X164940050Y-108509877D01*
X165098959Y-108310612D01*
X165226393Y-108089888D01*
X165319508Y-107852637D01*
X165376222Y-107604157D01*
X165387130Y-107458591D01*
X165395268Y-107350004D01*
X165395268Y-107349995D01*
X165379501Y-107139602D01*
X165376222Y-107095843D01*
X165319508Y-106847363D01*
X165281454Y-106750406D01*
X165275286Y-106680811D01*
X165306488Y-106620226D01*
X165338605Y-106586024D01*
X165339877Y-106584712D01*
X165360120Y-106564471D01*
X165364379Y-106558978D01*
X165368152Y-106554561D01*
X165400062Y-106520582D01*
X165409713Y-106503024D01*
X165420396Y-106486761D01*
X165432673Y-106470936D01*
X165451185Y-106428153D01*
X165453738Y-106422941D01*
X165476197Y-106382092D01*
X165481180Y-106362680D01*
X165487481Y-106344280D01*
X165495437Y-106325896D01*
X165502729Y-106279852D01*
X165503906Y-106274171D01*
X165515500Y-106229019D01*
X165515500Y-106208982D01*
X165517027Y-106189582D01*
X165518004Y-106183415D01*
X165520160Y-106169804D01*
X165515775Y-106123415D01*
X165515500Y-106117577D01*
X165515500Y-102630605D01*
X165535185Y-102563566D01*
X165587989Y-102517811D01*
X165657147Y-102507867D01*
X165694772Y-102519605D01*
X165804461Y-102574224D01*
X165804465Y-102574225D01*
X165804472Y-102574229D01*
X166018464Y-102635115D01*
X166184497Y-102650500D01*
X166184501Y-102650500D01*
X166595499Y-102650500D01*
X166595503Y-102650500D01*
X166761536Y-102635115D01*
X166975528Y-102574229D01*
X167174689Y-102475058D01*
X167352236Y-102340981D01*
X167502124Y-102176562D01*
X167619247Y-101987401D01*
X167699618Y-101779940D01*
X167740500Y-101561243D01*
X167740500Y-101450001D01*
X172109390Y-101450001D01*
X172129804Y-101735433D01*
X172190628Y-102015037D01*
X172190630Y-102015043D01*
X172190631Y-102015046D01*
X172268554Y-102223965D01*
X172290635Y-102283166D01*
X172427770Y-102534309D01*
X172427775Y-102534317D01*
X172599254Y-102763387D01*
X172599270Y-102763405D01*
X172801594Y-102965729D01*
X172801612Y-102965745D01*
X173030682Y-103137224D01*
X173030690Y-103137229D01*
X173281833Y-103274364D01*
X173281832Y-103274364D01*
X173281836Y-103274365D01*
X173281839Y-103274367D01*
X173549954Y-103374369D01*
X173549960Y-103374370D01*
X173549962Y-103374371D01*
X173829566Y-103435195D01*
X173829568Y-103435195D01*
X173829572Y-103435196D01*
X174043552Y-103450500D01*
X174186448Y-103450500D01*
X174400428Y-103435196D01*
X174680046Y-103374369D01*
X174948161Y-103274367D01*
X175199315Y-103137226D01*
X175428395Y-102965739D01*
X175630739Y-102763395D01*
X175802226Y-102534315D01*
X175939367Y-102283161D01*
X176039369Y-102015046D01*
X176074178Y-101855030D01*
X176100195Y-101735433D01*
X176100195Y-101735432D01*
X176100196Y-101735428D01*
X176120610Y-101450000D01*
X176100196Y-101164572D01*
X176090513Y-101120062D01*
X176039371Y-100884962D01*
X176039370Y-100884960D01*
X176039369Y-100884954D01*
X175939367Y-100616839D01*
X175907795Y-100559020D01*
X175802229Y-100365690D01*
X175802224Y-100365682D01*
X175630745Y-100136612D01*
X175630729Y-100136594D01*
X175428405Y-99934270D01*
X175428387Y-99934254D01*
X175199317Y-99762775D01*
X175199309Y-99762770D01*
X174948166Y-99625635D01*
X174948167Y-99625635D01*
X174840914Y-99585632D01*
X174680046Y-99525631D01*
X174680043Y-99525630D01*
X174680037Y-99525628D01*
X174400433Y-99464804D01*
X174186450Y-99449500D01*
X174186448Y-99449500D01*
X174043552Y-99449500D01*
X174043549Y-99449500D01*
X173829566Y-99464804D01*
X173549962Y-99525628D01*
X173281833Y-99625635D01*
X173030690Y-99762770D01*
X173030682Y-99762775D01*
X172801612Y-99934254D01*
X172801594Y-99934270D01*
X172599270Y-100136594D01*
X172599254Y-100136612D01*
X172427775Y-100365682D01*
X172427770Y-100365690D01*
X172290635Y-100616833D01*
X172190628Y-100884962D01*
X172129804Y-101164566D01*
X172109390Y-101449998D01*
X172109390Y-101450001D01*
X167740500Y-101450001D01*
X167740500Y-101338757D01*
X167699618Y-101120060D01*
X167619247Y-100912599D01*
X167594197Y-100872142D01*
X167502125Y-100723439D01*
X167502123Y-100723437D01*
X167352238Y-100559020D01*
X167174691Y-100424943D01*
X167174683Y-100424938D01*
X166975538Y-100325775D01*
X166975523Y-100325769D01*
X166761537Y-100264885D01*
X166761535Y-100264884D01*
X166643653Y-100253961D01*
X166595503Y-100249500D01*
X166184497Y-100249500D01*
X166139601Y-100253660D01*
X166018464Y-100264884D01*
X166018462Y-100264885D01*
X165804476Y-100325769D01*
X165804461Y-100325775D01*
X165694772Y-100380395D01*
X165625987Y-100392656D01*
X165561492Y-100365783D01*
X165521764Y-100308307D01*
X165515500Y-100269395D01*
X165515500Y-98174499D01*
X165535185Y-98107460D01*
X165587989Y-98061705D01*
X165639500Y-98050499D01*
X165960361Y-98050499D01*
X165960389Y-98050500D01*
X165962565Y-98050500D01*
X166217435Y-98050500D01*
X166469458Y-98012513D01*
X166713004Y-97937389D01*
X166942634Y-97826805D01*
X167153217Y-97683232D01*
X167340050Y-97509877D01*
X167498959Y-97310612D01*
X167626393Y-97089888D01*
X167719508Y-96852637D01*
X167776222Y-96604157D01*
X167791056Y-96406204D01*
X167795268Y-96350004D01*
X167795268Y-96349995D01*
X167778398Y-96124881D01*
X167776222Y-96095843D01*
X167719508Y-95847363D01*
X167626393Y-95610112D01*
X167498959Y-95389388D01*
X167340050Y-95190123D01*
X167153217Y-95016768D01*
X166942634Y-94873195D01*
X166942630Y-94873193D01*
X166942627Y-94873191D01*
X166942626Y-94873190D01*
X166713006Y-94762612D01*
X166713008Y-94762612D01*
X166469466Y-94687489D01*
X166469462Y-94687488D01*
X166469458Y-94687487D01*
X166348231Y-94669214D01*
X166217440Y-94649500D01*
X166217435Y-94649500D01*
X165962565Y-94649500D01*
X165962564Y-94649500D01*
X163757441Y-94649500D01*
X163757435Y-94649500D01*
X163502565Y-94649500D01*
X163502559Y-94649500D01*
X163345609Y-94673157D01*
X163250542Y-94687487D01*
X163250538Y-94687488D01*
X163250539Y-94687488D01*
X163250533Y-94687489D01*
X163006992Y-94762612D01*
X162777373Y-94873190D01*
X162777372Y-94873191D01*
X162566782Y-95016768D01*
X162379952Y-95190121D01*
X162379950Y-95190123D01*
X162221041Y-95389388D01*
X162093608Y-95610109D01*
X162000492Y-95847362D01*
X162000490Y-95847369D01*
X161943777Y-96095845D01*
X161924732Y-96349995D01*
X161924732Y-96350004D01*
X161943777Y-96604154D01*
X161988963Y-96802129D01*
X162000492Y-96852637D01*
X162093607Y-97089888D01*
X162221041Y-97310612D01*
X162379950Y-97509877D01*
X162566783Y-97683232D01*
X162777366Y-97826805D01*
X162777371Y-97826807D01*
X162777372Y-97826808D01*
X162777373Y-97826809D01*
X162899328Y-97885538D01*
X163006992Y-97937387D01*
X163006993Y-97937387D01*
X163006996Y-97937389D01*
X163250542Y-98012513D01*
X163502565Y-98050500D01*
X163808789Y-98050500D01*
X163808798Y-98050499D01*
X164140500Y-98050499D01*
X164207539Y-98070184D01*
X164253294Y-98122988D01*
X164264500Y-98174499D01*
X164264500Y-105579635D01*
X164244815Y-105646674D01*
X164192011Y-105692429D01*
X164122853Y-105702373D01*
X164103951Y-105698126D01*
X164069470Y-105687490D01*
X164069463Y-105687488D01*
X164069458Y-105687487D01*
X163948231Y-105669214D01*
X163817440Y-105649500D01*
X163817435Y-105649500D01*
X163562565Y-105649500D01*
X163562564Y-105649500D01*
X161217441Y-105649500D01*
X161217435Y-105649500D01*
X160962565Y-105649500D01*
X160962559Y-105649500D01*
X160805609Y-105673157D01*
X160710542Y-105687487D01*
X160710538Y-105687488D01*
X160710539Y-105687488D01*
X160710533Y-105687489D01*
X160466992Y-105762612D01*
X160237373Y-105873190D01*
X160237372Y-105873191D01*
X160237366Y-105873194D01*
X160237366Y-105873195D01*
X160212639Y-105890053D01*
X160026782Y-106016768D01*
X159839952Y-106190121D01*
X159839950Y-106190123D01*
X159681041Y-106389388D01*
X159553608Y-106610109D01*
X159460492Y-106847362D01*
X159460490Y-106847369D01*
X159403777Y-107095845D01*
X159384732Y-107349995D01*
X159384732Y-107350004D01*
X157907757Y-107350004D01*
X157983608Y-107275007D01*
X158139084Y-107065232D01*
X158260715Y-106834181D01*
X158345651Y-106587271D01*
X158391900Y-106330290D01*
X158398379Y-106069260D01*
X158364938Y-105810301D01*
X158292357Y-105559481D01*
X158182340Y-105322679D01*
X158104122Y-105205396D01*
X157926338Y-104938819D01*
X157905518Y-104872123D01*
X157905500Y-104870018D01*
X157905500Y-104868983D01*
X157907027Y-104849582D01*
X157910160Y-104829804D01*
X157905775Y-104783415D01*
X157905500Y-104777577D01*
X157905500Y-100574100D01*
X157925185Y-100507061D01*
X157975695Y-100462381D01*
X158132634Y-100386805D01*
X158295351Y-100275866D01*
X158361828Y-100254366D01*
X158429378Y-100272220D01*
X158476553Y-100323760D01*
X158488373Y-100392622D01*
X158482669Y-100418033D01*
X158383785Y-100710521D01*
X158315319Y-101035789D01*
X158315319Y-101035794D01*
X158285805Y-101366853D01*
X158285805Y-101366862D01*
X158285805Y-101366866D01*
X158293387Y-101622593D01*
X158295655Y-101699112D01*
X158307721Y-101779937D01*
X158342818Y-102015046D01*
X158344731Y-102027857D01*
X158344732Y-102027862D01*
X158432345Y-102348494D01*
X158432346Y-102348498D01*
X158557264Y-102656511D01*
X158557269Y-102656522D01*
X158670363Y-102861662D01*
X158717742Y-102947603D01*
X158754995Y-102999521D01*
X158911520Y-103217667D01*
X158911529Y-103217677D01*
X159124520Y-103450500D01*
X159135877Y-103462914D01*
X159387666Y-103679906D01*
X159387671Y-103679909D01*
X159387677Y-103679914D01*
X159548625Y-103788320D01*
X159663353Y-103865595D01*
X159959067Y-104017374D01*
X160270656Y-104133113D01*
X160593747Y-104211187D01*
X160923805Y-104250500D01*
X160923812Y-104250500D01*
X161173025Y-104250500D01*
X161235218Y-104246809D01*
X161421807Y-104235736D01*
X161748956Y-104176939D01*
X162066854Y-104079862D01*
X162371040Y-103945868D01*
X162657243Y-103776837D01*
X162921445Y-103575142D01*
X163159937Y-103343616D01*
X163369373Y-103085506D01*
X163546810Y-102804438D01*
X163689760Y-102504357D01*
X163796215Y-102189475D01*
X163864680Y-101864212D01*
X163894195Y-101533134D01*
X163884345Y-101200890D01*
X163835269Y-100872142D01*
X163747655Y-100551506D01*
X163622733Y-100243483D01*
X163583715Y-100172709D01*
X163563070Y-100135261D01*
X163462258Y-99952397D01*
X163268481Y-99682335D01*
X163268479Y-99682332D01*
X163268470Y-99682322D01*
X163055480Y-99449500D01*
X163044123Y-99437086D01*
X163032852Y-99427373D01*
X162845953Y-99266303D01*
X162792334Y-99220094D01*
X162792330Y-99220091D01*
X162792322Y-99220085D01*
X162516653Y-99034409D01*
X162516652Y-99034408D01*
X162516649Y-99034406D01*
X162516647Y-99034405D01*
X162220933Y-98882626D01*
X162220928Y-98882624D01*
X162220926Y-98882623D01*
X161909348Y-98766888D01*
X161586254Y-98688813D01*
X161586249Y-98688812D01*
X161446687Y-98672189D01*
X161256195Y-98649500D01*
X161006977Y-98649500D01*
X161006975Y-98649500D01*
X160758198Y-98664263D01*
X160758191Y-98664264D01*
X160431043Y-98723061D01*
X160113142Y-98820139D01*
X159808960Y-98954131D01*
X159808955Y-98954134D01*
X159522765Y-99123157D01*
X159522748Y-99123169D01*
X159258553Y-99324859D01*
X159258544Y-99324867D01*
X159136329Y-99443513D01*
X159074517Y-99476086D01*
X159004907Y-99470069D01*
X158949600Y-99427373D01*
X158926155Y-99361554D01*
X158929066Y-99326949D01*
X158953454Y-99220096D01*
X158966222Y-99164157D01*
X158978371Y-99002032D01*
X158985268Y-98910004D01*
X158985268Y-98909995D01*
X158966222Y-98655845D01*
X158943771Y-98557482D01*
X158909508Y-98407363D01*
X158816393Y-98170112D01*
X158688959Y-97949388D01*
X158530050Y-97750123D01*
X158343217Y-97576768D01*
X158132634Y-97433195D01*
X158132630Y-97433193D01*
X158132627Y-97433191D01*
X158132626Y-97433190D01*
X157903006Y-97322612D01*
X157903008Y-97322612D01*
X157659466Y-97247489D01*
X157659462Y-97247488D01*
X157659458Y-97247487D01*
X157538231Y-97229214D01*
X157407440Y-97209500D01*
X157407435Y-97209500D01*
X157152565Y-97209500D01*
X157152559Y-97209500D01*
X156995609Y-97233157D01*
X156900542Y-97247487D01*
X156900538Y-97247488D01*
X156900539Y-97247488D01*
X156900533Y-97247489D01*
X156656992Y-97322612D01*
X156427373Y-97433190D01*
X156427372Y-97433191D01*
X156216782Y-97576768D01*
X156029952Y-97750121D01*
X156029950Y-97750123D01*
X155871041Y-97949388D01*
X155743608Y-98170109D01*
X155650492Y-98407362D01*
X155650490Y-98407369D01*
X155593777Y-98655845D01*
X155574732Y-98909995D01*
X155574732Y-98910004D01*
X155593777Y-99164154D01*
X155642694Y-99378474D01*
X155650492Y-99412637D01*
X155743607Y-99649888D01*
X155871041Y-99870612D01*
X155936265Y-99952400D01*
X156012653Y-100048187D01*
X156039061Y-100112874D01*
X156026306Y-100181569D01*
X155978435Y-100232463D01*
X155915706Y-100249500D01*
X155584497Y-100249500D01*
X155539601Y-100253660D01*
X155418464Y-100264884D01*
X155418462Y-100264885D01*
X155204476Y-100325769D01*
X155204461Y-100325775D01*
X155005316Y-100424938D01*
X155005308Y-100424943D01*
X154827761Y-100559020D01*
X154677876Y-100723437D01*
X154677874Y-100723439D01*
X154560754Y-100912595D01*
X154560753Y-100912599D01*
X154480382Y-101120060D01*
X154439500Y-101338757D01*
X154439500Y-101561243D01*
X154480382Y-101779940D01*
X154553346Y-101968282D01*
X154560752Y-101987398D01*
X154560754Y-101987404D01*
X154677874Y-102176560D01*
X154677876Y-102176562D01*
X154827761Y-102340979D01*
X155005308Y-102475056D01*
X155005316Y-102475061D01*
X155204461Y-102574224D01*
X155204465Y-102574225D01*
X155204472Y-102574229D01*
X155418464Y-102635115D01*
X155584497Y-102650500D01*
X155584501Y-102650500D01*
X155995499Y-102650500D01*
X155995503Y-102650500D01*
X156161536Y-102635115D01*
X156375528Y-102574229D01*
X156475227Y-102524584D01*
X156544013Y-102512323D01*
X156608508Y-102539196D01*
X156648236Y-102596671D01*
X156654500Y-102635584D01*
X156654500Y-103471155D01*
X156634815Y-103538194D01*
X156582011Y-103583949D01*
X156512853Y-103593893D01*
X156494687Y-103589871D01*
X156450995Y-103576690D01*
X156243043Y-103547438D01*
X156192434Y-103540319D01*
X156192433Y-103540319D01*
X155931347Y-103543841D01*
X155673858Y-103587178D01*
X155673847Y-103587180D01*
X155426009Y-103669311D01*
X155426002Y-103669314D01*
X155193591Y-103788319D01*
X154982075Y-103941403D01*
X154982067Y-103941409D01*
X154796392Y-104124992D01*
X154640916Y-104334766D01*
X154519287Y-104565814D01*
X154519282Y-104565826D01*
X154434349Y-104812728D01*
X154388100Y-105069709D01*
X154384732Y-105205396D01*
X154363390Y-105271926D01*
X154360683Y-105274156D01*
X154153177Y-105274156D01*
X154157886Y-105262118D01*
X154140963Y-105234291D01*
X154137242Y-105213126D01*
X154129898Y-105129185D01*
X154120635Y-105023308D01*
X154075916Y-104856415D01*
X154061741Y-104803511D01*
X154061738Y-104803502D01*
X154049649Y-104777577D01*
X153965568Y-104597266D01*
X153835047Y-104410861D01*
X153835045Y-104410858D01*
X153674141Y-104249954D01*
X153556120Y-104167316D01*
X153512495Y-104112740D01*
X153505301Y-104043241D01*
X153536823Y-103980886D01*
X153562140Y-103960206D01*
X153663044Y-103897968D01*
X153782968Y-103778044D01*
X153872003Y-103633697D01*
X153925349Y-103472708D01*
X153935500Y-103373345D01*
X153935499Y-102826656D01*
X153933229Y-102804438D01*
X153925349Y-102727292D01*
X153925348Y-102727289D01*
X153901898Y-102656522D01*
X153872003Y-102566303D01*
X153871999Y-102566297D01*
X153871998Y-102566294D01*
X153782970Y-102421959D01*
X153782967Y-102421955D01*
X153663044Y-102302032D01*
X153663040Y-102302029D01*
X153518705Y-102213001D01*
X153518699Y-102212998D01*
X153518697Y-102212997D01*
X153445035Y-102188588D01*
X153357709Y-102159651D01*
X153258346Y-102149500D01*
X152411662Y-102149500D01*
X152411644Y-102149501D01*
X152312292Y-102159650D01*
X152312289Y-102159651D01*
X152151305Y-102212996D01*
X152151294Y-102213001D01*
X152006959Y-102302029D01*
X152006955Y-102302032D01*
X151887032Y-102421955D01*
X151887029Y-102421959D01*
X151798001Y-102566294D01*
X151797996Y-102566305D01*
X151744651Y-102727290D01*
X151734500Y-102826647D01*
X151734500Y-103373337D01*
X151734501Y-103373355D01*
X151744650Y-103472707D01*
X151744651Y-103472710D01*
X151797996Y-103633694D01*
X151798001Y-103633705D01*
X151887029Y-103778040D01*
X151887032Y-103778044D01*
X152006955Y-103897967D01*
X152006959Y-103897970D01*
X152107853Y-103960203D01*
X152154578Y-104012151D01*
X152165799Y-104081113D01*
X152137956Y-104145195D01*
X152113879Y-104167316D01*
X151995859Y-104249953D01*
X151834954Y-104410858D01*
X151704432Y-104597265D01*
X151704431Y-104597267D01*
X151677382Y-104655275D01*
X151631209Y-104707714D01*
X151564016Y-104726866D01*
X151497135Y-104706650D01*
X151452618Y-104655275D01*
X151447431Y-104644151D01*
X151425568Y-104597266D01*
X151295047Y-104410861D01*
X151295045Y-104410858D01*
X151134141Y-104249954D01*
X151016120Y-104167316D01*
X150972495Y-104112740D01*
X150965301Y-104043241D01*
X150996823Y-103980886D01*
X151022140Y-103960206D01*
X151123044Y-103897968D01*
X151242968Y-103778044D01*
X151332003Y-103633697D01*
X151385349Y-103472708D01*
X151395500Y-103373345D01*
X151395499Y-102826656D01*
X151393229Y-102804438D01*
X151385349Y-102727292D01*
X151385348Y-102727289D01*
X151361898Y-102656522D01*
X151332003Y-102566303D01*
X151331999Y-102566297D01*
X151331998Y-102566294D01*
X151242970Y-102421959D01*
X151242967Y-102421955D01*
X151123044Y-102302032D01*
X151123040Y-102302029D01*
X150978705Y-102213001D01*
X150978699Y-102212998D01*
X150978697Y-102212997D01*
X150905035Y-102188588D01*
X150817709Y-102159651D01*
X150718346Y-102149500D01*
X149871662Y-102149500D01*
X149871644Y-102149501D01*
X149772292Y-102159650D01*
X149772289Y-102159651D01*
X149611305Y-102212996D01*
X149611294Y-102213001D01*
X149466959Y-102302029D01*
X149466955Y-102302032D01*
X149347032Y-102421955D01*
X149347029Y-102421959D01*
X149258001Y-102566294D01*
X149257996Y-102566305D01*
X149204651Y-102727290D01*
X149194500Y-102826647D01*
X149194500Y-103373337D01*
X149194501Y-103373355D01*
X149204650Y-103472707D01*
X149204651Y-103472710D01*
X149257996Y-103633694D01*
X149258001Y-103633705D01*
X149347029Y-103778040D01*
X149347032Y-103778044D01*
X149466955Y-103897967D01*
X149466959Y-103897970D01*
X149567853Y-103960203D01*
X149614578Y-104012151D01*
X149625799Y-104081113D01*
X149597956Y-104145195D01*
X149573879Y-104167316D01*
X149455859Y-104249953D01*
X149294954Y-104410858D01*
X149164432Y-104597265D01*
X149164431Y-104597267D01*
X149068261Y-104803502D01*
X149068258Y-104803511D01*
X149009366Y-105023302D01*
X149009364Y-105023313D01*
X148989532Y-105249998D01*
X148989532Y-105250001D01*
X146405500Y-105250001D01*
X146405500Y-102600728D01*
X146425185Y-102533689D01*
X146477989Y-102487934D01*
X146547147Y-102477990D01*
X146584772Y-102489728D01*
X146754461Y-102574224D01*
X146754465Y-102574225D01*
X146754472Y-102574229D01*
X146968464Y-102635115D01*
X147134497Y-102650500D01*
X147134501Y-102650500D01*
X147545499Y-102650500D01*
X147545503Y-102650500D01*
X147711536Y-102635115D01*
X147925528Y-102574229D01*
X148124689Y-102475058D01*
X148302236Y-102340981D01*
X148452124Y-102176562D01*
X148569247Y-101987401D01*
X148649618Y-101779940D01*
X148690500Y-101561243D01*
X148690500Y-101338757D01*
X148649618Y-101120060D01*
X148569247Y-100912599D01*
X148544197Y-100872142D01*
X148452125Y-100723439D01*
X148452123Y-100723437D01*
X148302238Y-100559020D01*
X148124691Y-100424943D01*
X148124683Y-100424938D01*
X147925538Y-100325775D01*
X147925523Y-100325769D01*
X147711537Y-100264885D01*
X147711535Y-100264884D01*
X147593653Y-100253961D01*
X147545503Y-100249500D01*
X147134497Y-100249500D01*
X147089601Y-100253660D01*
X146968464Y-100264884D01*
X146968462Y-100264885D01*
X146754476Y-100325769D01*
X146754461Y-100325775D01*
X146584772Y-100410272D01*
X146515987Y-100422533D01*
X146451492Y-100395660D01*
X146411764Y-100338185D01*
X146405500Y-100299272D01*
X146405500Y-98174499D01*
X146425185Y-98107460D01*
X146477989Y-98061705D01*
X146529500Y-98050499D01*
X146910361Y-98050499D01*
X146910389Y-98050500D01*
X146912565Y-98050500D01*
X147167435Y-98050500D01*
X147419458Y-98012513D01*
X147663004Y-97937389D01*
X147892634Y-97826805D01*
X148103217Y-97683232D01*
X148290050Y-97509877D01*
X148448959Y-97310612D01*
X148576393Y-97089888D01*
X148669508Y-96852637D01*
X148726222Y-96604157D01*
X148741056Y-96406204D01*
X148745268Y-96350004D01*
X148745268Y-96349995D01*
X148728398Y-96124881D01*
X148726222Y-96095843D01*
X148693339Y-95951773D01*
X148697612Y-95882036D01*
X148738910Y-95825678D01*
X148804122Y-95800595D01*
X148872543Y-95814749D01*
X148901911Y-95836501D01*
X149277156Y-96211746D01*
X149310641Y-96273069D01*
X149305657Y-96342761D01*
X149263785Y-96398694D01*
X149256098Y-96403636D01*
X149137455Y-96492452D01*
X149137452Y-96492455D01*
X149051206Y-96607664D01*
X149051202Y-96607671D01*
X149000908Y-96742517D01*
X148994501Y-96802116D01*
X148994501Y-96802123D01*
X148994500Y-96802135D01*
X148994500Y-98497870D01*
X148994501Y-98497876D01*
X149000908Y-98557483D01*
X149051202Y-98692328D01*
X149051206Y-98692335D01*
X149137452Y-98807544D01*
X149137455Y-98807547D01*
X149252664Y-98893793D01*
X149252673Y-98893798D01*
X149306792Y-98913983D01*
X149362726Y-98955854D01*
X149387144Y-99021318D01*
X149372293Y-99089591D01*
X149351146Y-99117841D01*
X149347034Y-99121952D01*
X149347029Y-99121959D01*
X149258001Y-99266294D01*
X149257996Y-99266305D01*
X149204651Y-99427290D01*
X149194500Y-99526647D01*
X149194500Y-100073337D01*
X149194501Y-100073355D01*
X149204650Y-100172707D01*
X149204651Y-100172710D01*
X149257996Y-100333694D01*
X149258001Y-100333705D01*
X149347029Y-100478040D01*
X149347032Y-100478044D01*
X149466955Y-100597967D01*
X149466959Y-100597970D01*
X149611294Y-100686998D01*
X149611297Y-100686999D01*
X149611303Y-100687003D01*
X149772292Y-100740349D01*
X149871655Y-100750500D01*
X150718344Y-100750499D01*
X150718352Y-100750498D01*
X150718355Y-100750498D01*
X150772760Y-100744940D01*
X150817708Y-100740349D01*
X150978697Y-100687003D01*
X151123044Y-100597968D01*
X151242968Y-100478044D01*
X151332003Y-100333697D01*
X151385349Y-100172708D01*
X151395500Y-100073345D01*
X151395499Y-99526656D01*
X151395394Y-99525631D01*
X151385349Y-99427292D01*
X151385348Y-99427289D01*
X151380493Y-99412637D01*
X151332003Y-99266303D01*
X151331999Y-99266297D01*
X151331998Y-99266294D01*
X151242970Y-99121959D01*
X151242967Y-99121955D01*
X151238858Y-99117846D01*
X151205373Y-99056523D01*
X151210357Y-98986831D01*
X151252229Y-98930898D01*
X151283207Y-98913983D01*
X151337326Y-98893798D01*
X151337326Y-98893797D01*
X151337331Y-98893796D01*
X151452546Y-98807546D01*
X151465733Y-98789929D01*
X151521666Y-98748058D01*
X151591358Y-98743074D01*
X151652681Y-98776558D01*
X151664267Y-98789930D01*
X151677454Y-98807546D01*
X151677455Y-98807547D01*
X151792664Y-98893793D01*
X151792673Y-98893798D01*
X151846792Y-98913983D01*
X151902726Y-98955854D01*
X151927144Y-99021318D01*
X151912293Y-99089591D01*
X151891146Y-99117841D01*
X151887034Y-99121952D01*
X151887029Y-99121959D01*
X151798001Y-99266294D01*
X151797996Y-99266305D01*
X151744651Y-99427290D01*
X151734500Y-99526647D01*
X151734500Y-100073337D01*
X151734501Y-100073355D01*
X151744650Y-100172707D01*
X151744651Y-100172710D01*
X151797996Y-100333694D01*
X151798001Y-100333705D01*
X151887029Y-100478040D01*
X151887032Y-100478044D01*
X152006955Y-100597967D01*
X152006959Y-100597970D01*
X152151294Y-100686998D01*
X152151297Y-100686999D01*
X152151303Y-100687003D01*
X152312292Y-100740349D01*
X152411655Y-100750500D01*
X153258344Y-100750499D01*
X153258352Y-100750498D01*
X153258355Y-100750498D01*
X153312760Y-100744940D01*
X153357708Y-100740349D01*
X153518697Y-100687003D01*
X153663044Y-100597968D01*
X153782968Y-100478044D01*
X153872003Y-100333697D01*
X153925349Y-100172708D01*
X153935500Y-100073345D01*
X153935499Y-99526656D01*
X153935394Y-99525631D01*
X153925349Y-99427292D01*
X153925348Y-99427289D01*
X153920493Y-99412637D01*
X153872003Y-99266303D01*
X153871999Y-99266297D01*
X153871998Y-99266294D01*
X153782970Y-99121959D01*
X153782967Y-99121955D01*
X153778858Y-99117846D01*
X153745373Y-99056523D01*
X153750357Y-98986831D01*
X153792229Y-98930898D01*
X153823207Y-98913983D01*
X153877326Y-98893798D01*
X153877326Y-98893797D01*
X153877331Y-98893796D01*
X153992546Y-98807546D01*
X154078796Y-98692331D01*
X154129091Y-98557483D01*
X154135500Y-98497873D01*
X154135499Y-96802128D01*
X154129091Y-96742517D01*
X154078796Y-96607669D01*
X154078795Y-96607668D01*
X154078793Y-96607664D01*
X153992547Y-96492455D01*
X153992544Y-96492452D01*
X153877335Y-96406206D01*
X153877328Y-96406202D01*
X153742482Y-96355908D01*
X153742483Y-96355908D01*
X153682883Y-96349501D01*
X153682881Y-96349500D01*
X153682873Y-96349500D01*
X153682865Y-96349500D01*
X153581744Y-96349500D01*
X153514705Y-96329815D01*
X153468950Y-96277011D01*
X153457805Y-96229395D01*
X153457710Y-96226372D01*
X153452120Y-96207134D01*
X153448173Y-96188078D01*
X153445664Y-96168208D01*
X153428506Y-96124874D01*
X153426616Y-96119350D01*
X153419787Y-96095845D01*
X153413618Y-96074610D01*
X153403422Y-96057370D01*
X153394861Y-96039894D01*
X153387487Y-96021270D01*
X153387486Y-96021268D01*
X153360079Y-95983545D01*
X153356888Y-95978686D01*
X153333172Y-95938583D01*
X153333165Y-95938574D01*
X153319006Y-95924415D01*
X153306368Y-95909619D01*
X153294594Y-95893413D01*
X153280841Y-95882036D01*
X153258688Y-95863709D01*
X153254376Y-95859786D01*
X150850803Y-93456212D01*
X150840980Y-93443950D01*
X150840759Y-93444134D01*
X150835786Y-93438122D01*
X150786066Y-93391432D01*
X150784666Y-93390075D01*
X150764476Y-93369884D01*
X150758986Y-93365625D01*
X150754561Y-93361847D01*
X150720582Y-93329938D01*
X150720580Y-93329936D01*
X150720577Y-93329935D01*
X150703029Y-93320288D01*
X150686763Y-93309604D01*
X150670933Y-93297325D01*
X150628168Y-93278818D01*
X150622922Y-93276248D01*
X150582093Y-93253803D01*
X150582092Y-93253802D01*
X150562693Y-93248822D01*
X150544281Y-93242518D01*
X150525898Y-93234562D01*
X150525892Y-93234560D01*
X150479874Y-93227272D01*
X150474152Y-93226087D01*
X150429021Y-93214500D01*
X150429019Y-93214500D01*
X150408984Y-93214500D01*
X150389586Y-93212973D01*
X150382162Y-93211797D01*
X150369805Y-93209840D01*
X150369804Y-93209840D01*
X150323416Y-93214225D01*
X150317578Y-93214500D01*
X138225452Y-93214500D01*
X138158413Y-93194815D01*
X138137771Y-93178181D01*
X137021819Y-92062228D01*
X136988334Y-92000905D01*
X136985500Y-91974547D01*
X136985500Y-91925226D01*
X137005185Y-91858187D01*
X137038374Y-91823654D01*
X137231401Y-91688495D01*
X137398495Y-91521401D01*
X137403924Y-91513646D01*
X137458499Y-91470022D01*
X137527997Y-91462827D01*
X137590353Y-91494347D01*
X137625768Y-91554576D01*
X137629500Y-91584769D01*
X137629500Y-91900467D01*
X137629416Y-91900889D01*
X137629459Y-91925001D01*
X137629544Y-91925206D01*
X137629616Y-91925382D01*
X137629618Y-91925384D01*
X137629808Y-91925462D01*
X137630000Y-91925541D01*
X137630002Y-91925539D01*
X137654616Y-91925524D01*
X137654616Y-91925528D01*
X137654760Y-91925500D01*
X177111519Y-91925500D01*
X177118456Y-91925889D01*
X177141354Y-91928469D01*
X177220831Y-91938932D01*
X177245597Y-91944829D01*
X177279735Y-91956775D01*
X177282984Y-91958015D01*
X177337195Y-91980469D01*
X177355695Y-91990027D01*
X177390520Y-92011909D01*
X177395267Y-92015212D01*
X177443200Y-92051993D01*
X177449295Y-92057337D01*
X177482660Y-92090702D01*
X177488005Y-92096798D01*
X177524786Y-92144731D01*
X177528097Y-92149490D01*
X177549967Y-92184296D01*
X177559536Y-92202818D01*
X177581983Y-92257014D01*
X177583223Y-92260263D01*
X177595169Y-92294401D01*
X177601066Y-92319169D01*
X177611528Y-92398632D01*
X177614110Y-92421537D01*
X177614500Y-92428486D01*
X177614500Y-110471513D01*
X177614110Y-110478463D01*
X177611528Y-110501366D01*
X177601066Y-110580829D01*
X177595169Y-110605597D01*
X177583223Y-110639735D01*
X177581983Y-110642984D01*
X177559536Y-110697180D01*
X177549967Y-110715702D01*
X177528097Y-110750508D01*
X177524786Y-110755267D01*
X177488005Y-110803200D01*
X177482653Y-110809304D01*
X177449304Y-110842653D01*
X177443200Y-110848005D01*
X177395267Y-110884786D01*
X177390508Y-110888097D01*
X177355702Y-110909967D01*
X177337180Y-110919536D01*
X177282984Y-110941983D01*
X177279735Y-110943223D01*
X177245597Y-110955169D01*
X177220829Y-110961066D01*
X177141367Y-110971528D01*
X177123828Y-110973505D01*
X177118458Y-110974110D01*
X177111514Y-110974500D01*
X132514901Y-110974500D01*
X132514617Y-110974617D01*
X132514616Y-110974617D01*
X132499169Y-110980981D01*
X132495328Y-110983642D01*
X115705915Y-118812674D01*
X115699446Y-118815259D01*
X115677493Y-118822632D01*
X115601227Y-118846678D01*
X115576278Y-118851802D01*
X115539907Y-118855439D01*
X115536442Y-118855687D01*
X115478312Y-118858225D01*
X115457479Y-118857380D01*
X115416237Y-118852209D01*
X115410526Y-118851221D01*
X115352101Y-118838268D01*
X115344305Y-118835995D01*
X115299475Y-118819676D01*
X115292045Y-118816407D01*
X115239087Y-118788839D01*
X115234075Y-118785924D01*
X115198991Y-118763264D01*
X115182493Y-118750523D01*
X115139925Y-118711516D01*
X115137446Y-118709113D01*
X115111562Y-118682576D01*
X115095750Y-118662622D01*
X115053858Y-118596865D01*
X115040630Y-118575221D01*
X115037347Y-118569105D01*
X109025218Y-105676050D01*
X113625201Y-105676050D01*
X113644246Y-105930200D01*
X113700708Y-106177577D01*
X113700961Y-106178683D01*
X113783657Y-106389388D01*
X113794077Y-106415936D01*
X113799592Y-106425488D01*
X113921510Y-106636658D01*
X114080419Y-106835923D01*
X114267252Y-107009278D01*
X114477835Y-107152851D01*
X114477840Y-107152853D01*
X114477841Y-107152854D01*
X114477842Y-107152855D01*
X114600965Y-107212147D01*
X114662781Y-107241916D01*
X114714641Y-107288738D01*
X114732954Y-107356165D01*
X114711906Y-107422789D01*
X114661385Y-107466018D01*
X114359917Y-107606596D01*
X114359914Y-107606598D01*
X114215942Y-107690710D01*
X114215940Y-107690711D01*
X114047729Y-107836329D01*
X113909140Y-108010379D01*
X113804893Y-108206926D01*
X113804892Y-108206930D01*
X113738537Y-108419282D01*
X113738536Y-108419284D01*
X113738536Y-108419287D01*
X113726683Y-108519215D01*
X113712329Y-108640223D01*
X113727165Y-108862212D01*
X113782540Y-109077697D01*
X113876566Y-109279337D01*
X114006043Y-109460266D01*
X114006045Y-109460268D01*
X114166557Y-109614320D01*
X114166567Y-109614328D01*
X114336569Y-109725723D01*
X114352655Y-109736263D01*
X114557986Y-109821932D01*
X114703036Y-109852918D01*
X114775560Y-109868412D01*
X114785915Y-109868677D01*
X114997975Y-109874121D01*
X115217649Y-109838865D01*
X115374628Y-109782640D01*
X115747125Y-109608941D01*
X115891100Y-109524828D01*
X116059311Y-109379210D01*
X116197900Y-109205161D01*
X116302149Y-109008611D01*
X116358461Y-108828395D01*
X116397242Y-108770284D01*
X116461289Y-108742360D01*
X116530265Y-108753495D01*
X116564496Y-108777703D01*
X116731613Y-108944820D01*
X116765098Y-109006143D01*
X116767932Y-109032501D01*
X116767932Y-110117212D01*
X116748247Y-110184251D01*
X116695443Y-110230006D01*
X116661646Y-110239940D01*
X116629672Y-110244554D01*
X116551368Y-110255855D01*
X116301659Y-110332164D01*
X116066521Y-110445698D01*
X116066519Y-110445699D01*
X115851469Y-110593795D01*
X115851467Y-110593797D01*
X115661550Y-110772979D01*
X115501205Y-110979060D01*
X115374200Y-111207198D01*
X115283508Y-111452046D01*
X115231252Y-111707882D01*
X115218664Y-111968686D01*
X115246033Y-112228358D01*
X115312720Y-112480800D01*
X115312725Y-112480814D01*
X115417166Y-112720119D01*
X115556917Y-112940686D01*
X115728695Y-113137327D01*
X115728701Y-113137333D01*
X115824355Y-113217826D01*
X115928483Y-113305450D01*
X117035632Y-113978609D01*
X117035639Y-113978613D01*
X117125949Y-114024449D01*
X117210179Y-114067199D01*
X117458327Y-114148447D01*
X117715968Y-114190863D01*
X117977065Y-114193453D01*
X118235499Y-114156156D01*
X118235502Y-114156154D01*
X118235507Y-114156154D01*
X118317066Y-114131230D01*
X118485209Y-114079848D01*
X118720345Y-113966314D01*
X118935394Y-113818219D01*
X119125316Y-113639032D01*
X119285660Y-113432953D01*
X119412666Y-113204813D01*
X119503359Y-112959960D01*
X119555613Y-112704132D01*
X119568202Y-112443325D01*
X119540832Y-112183653D01*
X119474143Y-111931203D01*
X119369699Y-111691892D01*
X119229950Y-111471328D01*
X119229949Y-111471327D01*
X119229948Y-111471325D01*
X119058170Y-111274684D01*
X119058164Y-111274678D01*
X118858387Y-111106565D01*
X118858385Y-111106564D01*
X118858383Y-111106562D01*
X118470060Y-110870457D01*
X118078512Y-110632390D01*
X118031456Y-110580742D01*
X118018933Y-110526437D01*
X118018933Y-109736259D01*
X118018933Y-108804782D01*
X118020658Y-108789172D01*
X118020372Y-108789145D01*
X118021106Y-108781383D01*
X118019930Y-108743956D01*
X118037500Y-108676332D01*
X118088841Y-108628941D01*
X118157653Y-108616830D01*
X118213140Y-108637215D01*
X118430305Y-108783487D01*
X118726019Y-108935266D01*
X119037608Y-109051005D01*
X119360699Y-109129079D01*
X119690757Y-109168392D01*
X119690764Y-109168392D01*
X119939977Y-109168392D01*
X120002170Y-109164701D01*
X120188759Y-109153628D01*
X120515908Y-109094831D01*
X120833806Y-108997754D01*
X121137992Y-108863760D01*
X121424195Y-108694729D01*
X121688397Y-108493034D01*
X121926889Y-108261508D01*
X122136325Y-108003398D01*
X122313762Y-107722330D01*
X122456712Y-107422249D01*
X122563167Y-107107367D01*
X122631632Y-106782104D01*
X122661147Y-106451026D01*
X122653918Y-106207192D01*
X122671607Y-106139603D01*
X122723032Y-106092304D01*
X122791865Y-106080315D01*
X122856253Y-106107444D01*
X122865544Y-106115841D01*
X124044981Y-107295278D01*
X124078466Y-107356601D01*
X124081300Y-107382959D01*
X124081299Y-108952198D01*
X124061614Y-109019238D01*
X124011101Y-109063918D01*
X123907983Y-109113577D01*
X123901127Y-109116388D01*
X123895588Y-109118280D01*
X121741437Y-110122777D01*
X121733507Y-110125833D01*
X121727403Y-110127716D01*
X121727390Y-110127721D01*
X121497770Y-110238300D01*
X121287182Y-110381876D01*
X121100352Y-110555229D01*
X121100350Y-110555231D01*
X120941441Y-110754496D01*
X120814008Y-110975217D01*
X120720892Y-111212470D01*
X120720890Y-111212477D01*
X120664177Y-111460953D01*
X120645132Y-111715103D01*
X120645132Y-111715112D01*
X120664177Y-111969262D01*
X120718811Y-112208630D01*
X120720892Y-112217745D01*
X120814007Y-112454996D01*
X120941441Y-112675720D01*
X121100350Y-112874985D01*
X121287183Y-113048340D01*
X121497766Y-113191913D01*
X121497771Y-113191915D01*
X121497772Y-113191916D01*
X121497773Y-113191917D01*
X121619728Y-113250646D01*
X121727392Y-113302495D01*
X121727393Y-113302495D01*
X121727396Y-113302497D01*
X121970942Y-113377621D01*
X122222965Y-113415608D01*
X122477835Y-113415608D01*
X122729858Y-113377621D01*
X122973404Y-113302497D01*
X123149227Y-113217823D01*
X123156089Y-113215012D01*
X123161621Y-113213123D01*
X125315764Y-112208628D01*
X125323699Y-112205571D01*
X125329804Y-112203689D01*
X125559434Y-112093105D01*
X125770017Y-111949532D01*
X125956850Y-111776177D01*
X126115759Y-111576912D01*
X126243193Y-111356188D01*
X126336308Y-111118937D01*
X126393022Y-110870457D01*
X126406416Y-110691725D01*
X126412068Y-110616304D01*
X126412068Y-110616295D01*
X126393022Y-110362145D01*
X126386179Y-110332165D01*
X126336308Y-110113663D01*
X126297680Y-110015243D01*
X126291512Y-109945648D01*
X126323949Y-109883764D01*
X126325365Y-109882324D01*
X130295871Y-105911819D01*
X130357195Y-105878334D01*
X130383553Y-105875500D01*
X132570812Y-105875500D01*
X132637851Y-105895185D01*
X132672387Y-105928377D01*
X132784954Y-106089141D01*
X132945858Y-106250045D01*
X132945861Y-106250047D01*
X133132266Y-106380568D01*
X133338504Y-106476739D01*
X133338509Y-106476740D01*
X133338511Y-106476741D01*
X133391415Y-106490916D01*
X133558308Y-106535635D01*
X133720230Y-106549801D01*
X133784998Y-106555468D01*
X133785000Y-106555468D01*
X133785002Y-106555468D01*
X133841673Y-106550509D01*
X134011692Y-106535635D01*
X134231496Y-106476739D01*
X134437734Y-106380568D01*
X134624139Y-106250047D01*
X134785047Y-106089139D01*
X134915568Y-105902734D01*
X135011739Y-105696496D01*
X135070635Y-105476692D01*
X135084083Y-105322969D01*
X135103177Y-105274156D01*
X135310683Y-105274156D01*
X135329180Y-105309346D01*
X135331444Y-105327350D01*
X135331619Y-105330730D01*
X135365062Y-105589698D01*
X135437640Y-105840512D01*
X135437642Y-105840517D01*
X135437643Y-105840519D01*
X135547660Y-106077321D01*
X135547663Y-106077326D01*
X135547665Y-106077329D01*
X136266590Y-107155314D01*
X136387338Y-107309364D01*
X136387340Y-107309366D01*
X136387341Y-107309367D01*
X136577903Y-107487875D01*
X136793480Y-107635201D01*
X137029019Y-107747893D01*
X137279002Y-107823309D01*
X137537566Y-107859682D01*
X137798652Y-107856158D01*
X138056141Y-107812822D01*
X138056147Y-107812819D01*
X138056152Y-107812819D01*
X138154044Y-107780378D01*
X138303996Y-107730687D01*
X138536410Y-107611681D01*
X138747933Y-107458591D01*
X138933608Y-107275007D01*
X139089084Y-107065232D01*
X139210715Y-106834181D01*
X139295651Y-106587271D01*
X139341900Y-106330290D01*
X139348379Y-106069260D01*
X139314938Y-105810301D01*
X139242357Y-105559481D01*
X139132340Y-105322679D01*
X139054122Y-105205396D01*
X138876338Y-104938819D01*
X138855518Y-104872123D01*
X138855500Y-104870018D01*
X138855500Y-104868983D01*
X138857027Y-104849582D01*
X138860160Y-104829804D01*
X138855775Y-104783415D01*
X138855500Y-104777577D01*
X138855500Y-100574100D01*
X138875185Y-100507061D01*
X138925695Y-100462381D01*
X139082634Y-100386805D01*
X139245351Y-100275866D01*
X139311828Y-100254366D01*
X139379378Y-100272220D01*
X139426553Y-100323760D01*
X139438373Y-100392622D01*
X139432669Y-100418033D01*
X139333785Y-100710521D01*
X139265319Y-101035789D01*
X139265319Y-101035794D01*
X139235805Y-101366853D01*
X139235805Y-101366862D01*
X139235805Y-101366866D01*
X139243387Y-101622593D01*
X139245655Y-101699112D01*
X139257721Y-101779937D01*
X139292818Y-102015046D01*
X139294731Y-102027857D01*
X139294732Y-102027862D01*
X139382345Y-102348494D01*
X139382346Y-102348498D01*
X139507264Y-102656511D01*
X139507269Y-102656522D01*
X139620363Y-102861662D01*
X139667742Y-102947603D01*
X139704995Y-102999521D01*
X139861520Y-103217667D01*
X139861529Y-103217677D01*
X140074520Y-103450500D01*
X140085877Y-103462914D01*
X140337666Y-103679906D01*
X140337671Y-103679909D01*
X140337677Y-103679914D01*
X140498625Y-103788320D01*
X140613353Y-103865595D01*
X140909067Y-104017374D01*
X141220656Y-104133113D01*
X141543747Y-104211187D01*
X141873805Y-104250500D01*
X141873812Y-104250500D01*
X142123025Y-104250500D01*
X142185218Y-104246809D01*
X142371807Y-104235736D01*
X142698956Y-104176939D01*
X143016854Y-104079862D01*
X143321040Y-103945868D01*
X143607243Y-103776837D01*
X143871445Y-103575142D01*
X144109937Y-103343616D01*
X144319373Y-103085506D01*
X144496810Y-102804438D01*
X144639760Y-102504357D01*
X144746215Y-102189475D01*
X144814680Y-101864212D01*
X144844195Y-101533134D01*
X144834345Y-101200890D01*
X144785269Y-100872142D01*
X144697655Y-100551506D01*
X144572733Y-100243483D01*
X144533715Y-100172709D01*
X144513070Y-100135261D01*
X144412258Y-99952397D01*
X144218481Y-99682335D01*
X144218479Y-99682332D01*
X144218470Y-99682322D01*
X144005480Y-99449500D01*
X143994123Y-99437086D01*
X143982852Y-99427373D01*
X143795953Y-99266303D01*
X143742334Y-99220094D01*
X143742330Y-99220091D01*
X143742322Y-99220085D01*
X143466653Y-99034409D01*
X143466652Y-99034408D01*
X143466649Y-99034406D01*
X143466647Y-99034405D01*
X143170933Y-98882626D01*
X143170928Y-98882624D01*
X143170926Y-98882623D01*
X142859348Y-98766888D01*
X142536254Y-98688813D01*
X142536249Y-98688812D01*
X142396687Y-98672189D01*
X142206195Y-98649500D01*
X141956977Y-98649500D01*
X141956975Y-98649500D01*
X141708198Y-98664263D01*
X141708191Y-98664264D01*
X141381043Y-98723061D01*
X141063142Y-98820139D01*
X140758960Y-98954131D01*
X140758955Y-98954134D01*
X140472765Y-99123157D01*
X140472748Y-99123169D01*
X140208553Y-99324859D01*
X140208544Y-99324867D01*
X140086329Y-99443513D01*
X140024517Y-99476086D01*
X139954907Y-99470069D01*
X139899600Y-99427373D01*
X139876155Y-99361554D01*
X139879066Y-99326949D01*
X139903454Y-99220096D01*
X139916222Y-99164157D01*
X139928371Y-99002032D01*
X139935268Y-98910004D01*
X139935268Y-98909995D01*
X139916222Y-98655845D01*
X139893771Y-98557482D01*
X139859508Y-98407363D01*
X139766393Y-98170112D01*
X139638959Y-97949388D01*
X139480050Y-97750123D01*
X139293217Y-97576768D01*
X139082634Y-97433195D01*
X139082630Y-97433193D01*
X139082627Y-97433191D01*
X139082626Y-97433190D01*
X138853006Y-97322612D01*
X138853008Y-97322612D01*
X138609466Y-97247489D01*
X138609462Y-97247488D01*
X138609458Y-97247487D01*
X138488231Y-97229214D01*
X138357440Y-97209500D01*
X138357435Y-97209500D01*
X138102565Y-97209500D01*
X138102559Y-97209500D01*
X137945609Y-97233157D01*
X137850542Y-97247487D01*
X137850538Y-97247488D01*
X137850539Y-97247488D01*
X137850533Y-97247489D01*
X137606992Y-97322612D01*
X137377373Y-97433190D01*
X137377372Y-97433191D01*
X137166782Y-97576768D01*
X136979952Y-97750121D01*
X136979950Y-97750123D01*
X136821041Y-97949388D01*
X136693608Y-98170109D01*
X136600492Y-98407362D01*
X136600490Y-98407369D01*
X136543777Y-98655845D01*
X136524732Y-98909995D01*
X136524732Y-98910004D01*
X136543777Y-99164154D01*
X136592694Y-99378474D01*
X136600492Y-99412637D01*
X136693607Y-99649888D01*
X136821041Y-99870612D01*
X136886265Y-99952400D01*
X136962653Y-100048187D01*
X136989061Y-100112874D01*
X136976306Y-100181569D01*
X136928435Y-100232463D01*
X136865706Y-100249500D01*
X136534497Y-100249500D01*
X136489601Y-100253660D01*
X136368464Y-100264884D01*
X136368462Y-100264885D01*
X136154476Y-100325769D01*
X136154461Y-100325775D01*
X135955316Y-100424938D01*
X135955308Y-100424943D01*
X135777761Y-100559020D01*
X135627876Y-100723437D01*
X135627874Y-100723439D01*
X135510754Y-100912595D01*
X135510753Y-100912599D01*
X135430382Y-101120060D01*
X135389500Y-101338757D01*
X135389500Y-101561243D01*
X135430382Y-101779940D01*
X135503346Y-101968282D01*
X135510752Y-101987398D01*
X135510754Y-101987404D01*
X135627874Y-102176560D01*
X135627876Y-102176562D01*
X135777761Y-102340979D01*
X135955308Y-102475056D01*
X135955316Y-102475061D01*
X136154461Y-102574224D01*
X136154465Y-102574225D01*
X136154472Y-102574229D01*
X136368464Y-102635115D01*
X136534497Y-102650500D01*
X136534501Y-102650500D01*
X136945499Y-102650500D01*
X136945503Y-102650500D01*
X137111536Y-102635115D01*
X137325528Y-102574229D01*
X137425227Y-102524584D01*
X137494013Y-102512323D01*
X137558508Y-102539196D01*
X137598236Y-102596671D01*
X137604500Y-102635584D01*
X137604500Y-103471155D01*
X137584815Y-103538194D01*
X137532011Y-103583949D01*
X137462853Y-103593893D01*
X137444687Y-103589871D01*
X137400995Y-103576690D01*
X137193043Y-103547438D01*
X137142434Y-103540319D01*
X137142433Y-103540319D01*
X136881347Y-103543841D01*
X136623858Y-103587178D01*
X136623847Y-103587180D01*
X136376009Y-103669311D01*
X136376002Y-103669314D01*
X136143591Y-103788319D01*
X135932075Y-103941403D01*
X135932067Y-103941409D01*
X135746392Y-104124992D01*
X135590916Y-104334766D01*
X135469287Y-104565814D01*
X135469282Y-104565826D01*
X135384349Y-104812728D01*
X135338100Y-105069709D01*
X135334732Y-105205396D01*
X135313390Y-105271926D01*
X135310683Y-105274156D01*
X135103177Y-105274156D01*
X135107886Y-105262118D01*
X135090963Y-105234291D01*
X135087242Y-105213126D01*
X135079898Y-105129185D01*
X135070635Y-105023308D01*
X135025916Y-104856415D01*
X135011741Y-104803511D01*
X135011738Y-104803502D01*
X134999649Y-104777577D01*
X134915568Y-104597266D01*
X134785047Y-104410861D01*
X134785045Y-104410858D01*
X134624141Y-104249954D01*
X134506120Y-104167316D01*
X134462495Y-104112740D01*
X134455301Y-104043241D01*
X134486823Y-103980886D01*
X134512140Y-103960206D01*
X134613044Y-103897968D01*
X134732968Y-103778044D01*
X134822003Y-103633697D01*
X134875349Y-103472708D01*
X134885500Y-103373345D01*
X134885499Y-102826656D01*
X134883229Y-102804438D01*
X134875349Y-102727292D01*
X134875348Y-102727289D01*
X134851898Y-102656522D01*
X134822003Y-102566303D01*
X134821999Y-102566297D01*
X134821998Y-102566294D01*
X134732970Y-102421959D01*
X134732967Y-102421955D01*
X134613044Y-102302032D01*
X134613040Y-102302029D01*
X134468705Y-102213001D01*
X134468699Y-102212998D01*
X134468697Y-102212997D01*
X134395035Y-102188588D01*
X134307709Y-102159651D01*
X134208346Y-102149500D01*
X133361662Y-102149500D01*
X133361644Y-102149501D01*
X133262292Y-102159650D01*
X133262289Y-102159651D01*
X133101305Y-102212996D01*
X133101294Y-102213001D01*
X132956959Y-102302029D01*
X132956955Y-102302032D01*
X132837032Y-102421955D01*
X132837029Y-102421959D01*
X132748001Y-102566294D01*
X132747996Y-102566305D01*
X132694651Y-102727290D01*
X132684500Y-102826647D01*
X132684500Y-103373337D01*
X132684501Y-103373355D01*
X132694650Y-103472707D01*
X132694651Y-103472710D01*
X132747996Y-103633694D01*
X132748001Y-103633705D01*
X132837029Y-103778040D01*
X132837032Y-103778044D01*
X132956955Y-103897967D01*
X132956959Y-103897970D01*
X133057853Y-103960203D01*
X133104578Y-104012151D01*
X133115799Y-104081113D01*
X133087956Y-104145195D01*
X133063879Y-104167316D01*
X132945859Y-104249953D01*
X132784954Y-104410858D01*
X132672387Y-104571623D01*
X132617811Y-104615248D01*
X132570812Y-104624500D01*
X130155837Y-104624500D01*
X130140220Y-104622776D01*
X130140193Y-104623062D01*
X130132431Y-104622327D01*
X130064271Y-104624469D01*
X130062324Y-104624500D01*
X130033750Y-104624500D01*
X130033029Y-104624590D01*
X130026857Y-104625369D01*
X130021045Y-104625826D01*
X129974473Y-104627290D01*
X129974472Y-104627290D01*
X129955229Y-104632881D01*
X129936179Y-104636825D01*
X129916311Y-104639334D01*
X129916309Y-104639335D01*
X129872984Y-104656488D01*
X129867457Y-104658380D01*
X129822710Y-104671381D01*
X129822709Y-104671382D01*
X129805467Y-104681579D01*
X129787999Y-104690137D01*
X129769369Y-104697513D01*
X129769367Y-104697514D01*
X129731676Y-104724898D01*
X129726794Y-104728105D01*
X129686679Y-104751830D01*
X129672508Y-104766000D01*
X129657723Y-104778628D01*
X129641512Y-104790407D01*
X129611809Y-104826310D01*
X129607877Y-104830631D01*
X125543981Y-108894526D01*
X125482658Y-108928011D01*
X125412966Y-108923027D01*
X125357033Y-108881155D01*
X125332616Y-108815691D01*
X125332300Y-108806845D01*
X125332300Y-107155249D01*
X125334024Y-107139629D01*
X125333739Y-107139602D01*
X125334473Y-107131840D01*
X125332331Y-107063646D01*
X125332300Y-107061699D01*
X125332300Y-107033163D01*
X125332300Y-107033157D01*
X125331431Y-107026286D01*
X125330973Y-107020459D01*
X125330622Y-107009277D01*
X125329510Y-106973880D01*
X125323919Y-106954637D01*
X125319973Y-106935585D01*
X125317464Y-106915715D01*
X125300304Y-106872374D01*
X125298424Y-106866886D01*
X125285418Y-106822117D01*
X125275222Y-106804877D01*
X125266661Y-106787401D01*
X125259287Y-106768777D01*
X125259286Y-106768775D01*
X125231879Y-106731052D01*
X125228688Y-106726193D01*
X125204972Y-106686090D01*
X125204965Y-106686081D01*
X125190806Y-106671922D01*
X125178168Y-106657126D01*
X125166394Y-106640920D01*
X125161238Y-106636655D01*
X125130488Y-106611216D01*
X125126176Y-106607293D01*
X124359395Y-105840512D01*
X124075098Y-105556214D01*
X124041613Y-105494891D01*
X124046597Y-105425199D01*
X124088469Y-105369266D01*
X124153933Y-105344849D01*
X124188676Y-105347268D01*
X124353451Y-105382468D01*
X124382423Y-105388658D01*
X124387723Y-105388794D01*
X124604837Y-105394367D01*
X124824511Y-105359111D01*
X124981490Y-105302886D01*
X125353987Y-105129187D01*
X125497962Y-105045074D01*
X125666173Y-104899456D01*
X125804762Y-104725407D01*
X125909011Y-104528857D01*
X125975368Y-104316497D01*
X126001575Y-104095561D01*
X125986738Y-103873571D01*
X125931364Y-103658087D01*
X125837337Y-103456446D01*
X125707860Y-103275517D01*
X125706659Y-103274364D01*
X125547346Y-103121463D01*
X125547336Y-103121455D01*
X125361254Y-102999524D01*
X125361252Y-102999523D01*
X125361249Y-102999521D01*
X125155918Y-102913852D01*
X125144347Y-102911380D01*
X124938343Y-102867371D01*
X124715925Y-102861662D01*
X124496257Y-102896917D01*
X124339275Y-102953143D01*
X123966779Y-103126843D01*
X123966776Y-103126844D01*
X123822804Y-103210956D01*
X123822802Y-103210957D01*
X123654591Y-103356575D01*
X123516002Y-103530625D01*
X123411755Y-103727172D01*
X123411754Y-103727176D01*
X123345399Y-103939528D01*
X123345398Y-103939530D01*
X123345398Y-103939533D01*
X123328604Y-104081113D01*
X123319191Y-104160469D01*
X123334027Y-104382459D01*
X123370813Y-104525608D01*
X123368433Y-104595437D01*
X123328678Y-104652895D01*
X123264171Y-104679738D01*
X123195391Y-104667444D01*
X123163034Y-104644151D01*
X122901342Y-104382459D01*
X120854356Y-102335472D01*
X120820871Y-102274149D01*
X120825855Y-102204457D01*
X120867727Y-102148524D01*
X120889621Y-102135415D01*
X122359495Y-101450001D01*
X128404390Y-101450001D01*
X128424804Y-101735433D01*
X128485628Y-102015037D01*
X128485630Y-102015043D01*
X128485631Y-102015046D01*
X128563554Y-102223965D01*
X128585635Y-102283166D01*
X128722770Y-102534309D01*
X128722775Y-102534317D01*
X128894254Y-102763387D01*
X128894270Y-102763405D01*
X129096594Y-102965729D01*
X129096612Y-102965745D01*
X129325682Y-103137224D01*
X129325690Y-103137229D01*
X129576833Y-103274364D01*
X129576832Y-103274364D01*
X129576836Y-103274365D01*
X129576839Y-103274367D01*
X129844954Y-103374369D01*
X129844960Y-103374370D01*
X129844962Y-103374371D01*
X130124566Y-103435195D01*
X130124568Y-103435195D01*
X130124572Y-103435196D01*
X130338552Y-103450500D01*
X130481448Y-103450500D01*
X130695428Y-103435196D01*
X130975046Y-103374369D01*
X131243161Y-103274367D01*
X131494315Y-103137226D01*
X131723395Y-102965739D01*
X131925739Y-102763395D01*
X132097226Y-102534315D01*
X132234367Y-102283161D01*
X132334369Y-102015046D01*
X132369178Y-101855030D01*
X132395195Y-101735433D01*
X132395195Y-101735432D01*
X132395196Y-101735428D01*
X132415610Y-101450000D01*
X132395196Y-101164572D01*
X132385513Y-101120062D01*
X132334371Y-100884962D01*
X132334370Y-100884960D01*
X132334369Y-100884954D01*
X132234367Y-100616839D01*
X132202795Y-100559020D01*
X132097229Y-100365690D01*
X132097224Y-100365682D01*
X131925745Y-100136612D01*
X131925729Y-100136594D01*
X131723405Y-99934270D01*
X131723387Y-99934254D01*
X131494317Y-99762775D01*
X131494309Y-99762770D01*
X131243166Y-99625635D01*
X131243167Y-99625635D01*
X131135915Y-99585632D01*
X130975046Y-99525631D01*
X130975043Y-99525630D01*
X130975037Y-99525628D01*
X130695433Y-99464804D01*
X130481450Y-99449500D01*
X130481448Y-99449500D01*
X130338552Y-99449500D01*
X130338549Y-99449500D01*
X130124566Y-99464804D01*
X129844962Y-99525628D01*
X129576833Y-99625635D01*
X129325690Y-99762770D01*
X129325682Y-99762775D01*
X129096612Y-99934254D01*
X129096594Y-99934270D01*
X128894270Y-100136594D01*
X128894254Y-100136612D01*
X128722775Y-100365682D01*
X128722770Y-100365690D01*
X128585635Y-100616833D01*
X128485628Y-100884962D01*
X128424804Y-101164566D01*
X128404390Y-101449998D01*
X128404390Y-101450001D01*
X122359495Y-101450001D01*
X122842095Y-101224961D01*
X122850024Y-101221906D01*
X122856142Y-101220020D01*
X122961477Y-101169293D01*
X122967997Y-101166253D01*
X122968020Y-101166238D01*
X122968779Y-101165835D01*
X122971026Y-101164693D01*
X123085772Y-101109436D01*
X123296355Y-100965863D01*
X123483188Y-100792508D01*
X123642097Y-100593243D01*
X123769531Y-100372519D01*
X123862646Y-100135268D01*
X123919360Y-99886788D01*
X123938406Y-99632631D01*
X123930464Y-99526656D01*
X123919360Y-99378476D01*
X123907599Y-99326949D01*
X123862646Y-99129994D01*
X123769531Y-98892743D01*
X123642097Y-98672019D01*
X123483188Y-98472754D01*
X123296355Y-98299399D01*
X123085772Y-98155826D01*
X123085768Y-98155824D01*
X123085765Y-98155822D01*
X123085764Y-98155821D01*
X122856144Y-98045243D01*
X122856146Y-98045243D01*
X122612604Y-97970120D01*
X122612600Y-97970119D01*
X122612596Y-97970118D01*
X122475064Y-97949388D01*
X122360578Y-97932131D01*
X122360573Y-97932131D01*
X122105703Y-97932131D01*
X122105697Y-97932131D01*
X121948747Y-97955788D01*
X121853680Y-97970118D01*
X121853676Y-97970119D01*
X121853677Y-97970119D01*
X121853671Y-97970120D01*
X121610133Y-98045242D01*
X121504951Y-98095894D01*
X119394658Y-99079941D01*
X119386730Y-99082996D01*
X119380615Y-99084883D01*
X119275394Y-99135555D01*
X119268756Y-99138651D01*
X119267912Y-99139101D01*
X119265658Y-99140244D01*
X119150991Y-99195464D01*
X118940403Y-99339040D01*
X118753573Y-99512393D01*
X118753571Y-99512395D01*
X118594662Y-99711660D01*
X118467229Y-99932381D01*
X118374113Y-100169634D01*
X118374111Y-100169641D01*
X118317398Y-100418117D01*
X118298353Y-100672267D01*
X118298353Y-100672276D01*
X118317398Y-100926426D01*
X118372137Y-101166255D01*
X118374113Y-101174909D01*
X118467228Y-101412160D01*
X118594662Y-101632884D01*
X118753571Y-101832149D01*
X118940404Y-102005504D01*
X119150987Y-102149077D01*
X119150992Y-102149079D01*
X119150993Y-102149080D01*
X119150994Y-102149081D01*
X119306494Y-102223965D01*
X119358354Y-102270787D01*
X119376632Y-102331788D01*
X119378090Y-102378172D01*
X119378121Y-102380120D01*
X119378121Y-102408671D01*
X119378122Y-102408688D01*
X119378989Y-102415559D01*
X119379447Y-102421378D01*
X119380911Y-102467952D01*
X119380912Y-102467955D01*
X119386501Y-102487195D01*
X119390445Y-102506239D01*
X119392957Y-102526120D01*
X119398134Y-102539196D01*
X119410111Y-102569447D01*
X119412003Y-102574975D01*
X119419485Y-102600728D01*
X119425003Y-102619718D01*
X119434108Y-102635115D01*
X119435201Y-102636962D01*
X119443757Y-102654428D01*
X119444585Y-102656517D01*
X119451135Y-102673060D01*
X119478519Y-102710751D01*
X119481727Y-102715635D01*
X119505448Y-102755744D01*
X119505454Y-102755752D01*
X119519611Y-102769908D01*
X119532248Y-102784703D01*
X119544027Y-102800915D01*
X119575128Y-102826644D01*
X119579930Y-102830616D01*
X119584241Y-102834538D01*
X119871158Y-103121455D01*
X120105414Y-103355711D01*
X120138899Y-103417034D01*
X120133915Y-103486726D01*
X120092043Y-103542659D01*
X120026579Y-103567076D01*
X120017733Y-103567392D01*
X119773927Y-103567392D01*
X119525150Y-103582155D01*
X119525143Y-103582156D01*
X119197995Y-103640953D01*
X118880094Y-103738031D01*
X118575912Y-103872023D01*
X118575907Y-103872026D01*
X118289717Y-104041049D01*
X118289700Y-104041061D01*
X118025505Y-104242751D01*
X118025496Y-104242759D01*
X117787012Y-104474278D01*
X117787011Y-104474279D01*
X117577576Y-104732389D01*
X117400141Y-105013456D01*
X117400138Y-105013461D01*
X117257193Y-105313531D01*
X117257189Y-105313542D01*
X117239498Y-105365870D01*
X117199379Y-105423074D01*
X117134702Y-105449507D01*
X117066002Y-105436777D01*
X117015091Y-105388925D01*
X117001139Y-105353749D01*
X116959978Y-105173415D01*
X116959977Y-105173409D01*
X116866862Y-104936158D01*
X116739428Y-104715434D01*
X116580519Y-104516169D01*
X116393686Y-104342814D01*
X116183103Y-104199241D01*
X116183099Y-104199239D01*
X116183096Y-104199237D01*
X116183095Y-104199236D01*
X115953475Y-104088658D01*
X115953477Y-104088658D01*
X115709935Y-104013535D01*
X115709931Y-104013534D01*
X115709927Y-104013533D01*
X115588700Y-103995260D01*
X115457909Y-103975546D01*
X115457904Y-103975546D01*
X115203034Y-103975546D01*
X115203028Y-103975546D01*
X115046078Y-103999203D01*
X114951011Y-104013533D01*
X114951007Y-104013534D01*
X114951008Y-104013534D01*
X114951002Y-104013535D01*
X114707461Y-104088658D01*
X114477842Y-104199236D01*
X114477841Y-104199237D01*
X114267251Y-104342814D01*
X114080421Y-104516167D01*
X114080419Y-104516169D01*
X113921510Y-104715434D01*
X113794077Y-104936155D01*
X113700961Y-105173408D01*
X113700959Y-105173415D01*
X113644246Y-105421891D01*
X113625201Y-105676041D01*
X113625201Y-105676050D01*
X109025218Y-105676050D01*
X107412162Y-102216840D01*
X107409586Y-102210396D01*
X107402245Y-102188546D01*
X107398467Y-102176562D01*
X107378139Y-102112090D01*
X107373021Y-102087167D01*
X107369414Y-102051119D01*
X107369170Y-102047714D01*
X107366611Y-101989100D01*
X107367455Y-101968292D01*
X107372578Y-101927417D01*
X107373560Y-101921743D01*
X107386625Y-101862810D01*
X107388887Y-101855050D01*
X107405061Y-101810611D01*
X107408312Y-101803222D01*
X107436186Y-101749676D01*
X107439073Y-101744713D01*
X107461447Y-101710070D01*
X107474167Y-101693599D01*
X107513771Y-101650379D01*
X107516133Y-101647943D01*
X107542129Y-101622587D01*
X107562065Y-101606789D01*
X107629359Y-101563917D01*
X107649381Y-101551681D01*
X107655506Y-101548395D01*
X124464396Y-93710282D01*
X124464395Y-93710282D01*
X127468949Y-92311040D01*
X127470332Y-92310434D01*
X127470468Y-92310297D01*
X127470532Y-92310124D01*
X127470500Y-92308638D01*
X127470500Y-91842004D01*
X127490185Y-91774965D01*
X127542989Y-91729210D01*
X127612147Y-91719266D01*
X127672534Y-91745637D01*
X127808160Y-91855465D01*
X127981504Y-91943788D01*
X128169422Y-91994141D01*
X128250222Y-92000500D01*
X128250230Y-92000500D01*
X129229770Y-92000500D01*
X129229778Y-92000500D01*
X129310578Y-91994141D01*
X129498496Y-91943788D01*
X129671840Y-91855465D01*
X129823032Y-91733032D01*
X129945465Y-91581840D01*
X129994288Y-91486018D01*
X130042260Y-91435224D01*
X130110081Y-91418428D01*
X130176216Y-91440965D01*
G37*
G04 #@! TD.AperFunction*
M02*
