G04 #@! TF.GenerationSoftware,KiCad,Pcbnew,7.0.5*
G04 #@! TF.CreationDate,2023-08-03T23:11:40+08:00*
G04 #@! TF.ProjectId,RT,52542e6b-6963-4616-945f-706362585858,rev?*
G04 #@! TF.SameCoordinates,Original*
G04 #@! TF.FileFunction,Legend,Top*
G04 #@! TF.FilePolarity,Positive*
%FSLAX46Y46*%
G04 Gerber Fmt 4.6, Leading zero omitted, Abs format (unit mm)*
G04 Created by KiCad (PCBNEW 7.0.5) date 2023-08-03 23:11:40*
%MOMM*%
%LPD*%
G01*
G04 APERTURE LIST*
G04 Aperture macros list*
%AMRoundRect*
0 Rectangle with rounded corners*
0 $1 Rounding radius*
0 $2 $3 $4 $5 $6 $7 $8 $9 X,Y pos of 4 corners*
0 Add a 4 corners polygon primitive as box body*
4,1,4,$2,$3,$4,$5,$6,$7,$8,$9,$2,$3,0*
0 Add four circle primitives for the rounded corners*
1,1,$1+$1,$2,$3*
1,1,$1+$1,$4,$5*
1,1,$1+$1,$6,$7*
1,1,$1+$1,$8,$9*
0 Add four rect primitives between the rounded corners*
20,1,$1+$1,$2,$3,$4,$5,0*
20,1,$1+$1,$4,$5,$6,$7,0*
20,1,$1+$1,$6,$7,$8,$9,0*
20,1,$1+$1,$8,$9,$2,$3,0*%
%AMHorizOval*
0 Thick line with rounded ends*
0 $1 width*
0 $2 $3 position (X,Y) of the first rounded end (center of the circle)*
0 $4 $5 position (X,Y) of the second rounded end (center of the circle)*
0 Add line between two ends*
20,1,$1,$2,$3,$4,$5,0*
0 Add two circle primitives to create the rounded ends*
1,1,$1,$2,$3*
1,1,$1,$4,$5*%
%AMOutline4P*
0 Free polygon, 4 corners , with rotation*
0 The origin of the aperture is its center*
0 number of corners: always 4*
0 $1 to $8 corner X, Y*
0 $9 Rotation angle, in degrees counterclockwise*
0 create outline with 4 corners*
4,1,4,$1,$2,$3,$4,$5,$6,$7,$8,$1,$2,$9*%
G04 Aperture macros list end*
%ADD10C,0.150000*%
%ADD11RoundRect,0.425000X0.425000X-0.425000X0.425000X0.425000X-0.425000X0.425000X-0.425000X-0.425000X0*%
%ADD12O,1.700000X1.700000*%
%ADD13C,3.500000*%
%ADD14HorizOval,1.900000X0.135946X0.063393X-0.135946X-0.063393X0*%
%ADD15C,5.100000*%
%ADD16HorizOval,2.400000X-0.469952X0.285736X0.469952X-0.285736X0*%
%ADD17C,2.400000*%
%ADD18Outline4P,-1.300000X-1.200000X1.300000X-1.200000X1.300000X1.200000X-1.300000X1.200000X25.000000*%
%ADD19Outline4P,-1.200000X-1.200000X1.200000X-1.200000X1.200000X1.200000X-1.200000X1.200000X25.000000*%
%ADD20O,2.200000X1.900000*%
%ADD21HorizOval,2.400000X-0.305164X0.457575X0.305164X-0.457575X0*%
%ADD22Outline4P,-1.300000X-1.200000X1.300000X-1.200000X1.300000X1.200000X-1.300000X1.200000X0.000000*%
%ADD23Outline4P,-1.200000X-1.200000X1.200000X-1.200000X1.200000X1.200000X-1.200000X1.200000X0.000000*%
G04 APERTURE END LIST*
D10*
X126587478Y-94692392D02*
X126084129Y-94401690D01*
X126069588Y-94933889D02*
X125646970Y-94027581D01*
X125646970Y-94027581D02*
X125992230Y-93866583D01*
X125992230Y-93866583D02*
X126098670Y-93869491D01*
X126098670Y-93869491D02*
X126161952Y-93892524D01*
X126161952Y-93892524D02*
X126245359Y-93958715D01*
X126245359Y-93958715D02*
X126305733Y-94088187D01*
X126305733Y-94088187D02*
X126302825Y-94194627D01*
X126302825Y-94194627D02*
X126279792Y-94257909D01*
X126279792Y-94257909D02*
X126213602Y-94341316D01*
X126213602Y-94341316D02*
X125868341Y-94502313D01*
X126423805Y-93665337D02*
X126941695Y-93423840D01*
X127105369Y-94450896D02*
X126682750Y-93544588D01*
X176018571Y-110344819D02*
X175685238Y-109868628D01*
X175447143Y-110344819D02*
X175447143Y-109344819D01*
X175447143Y-109344819D02*
X175828095Y-109344819D01*
X175828095Y-109344819D02*
X175923333Y-109392438D01*
X175923333Y-109392438D02*
X175970952Y-109440057D01*
X175970952Y-109440057D02*
X176018571Y-109535295D01*
X176018571Y-109535295D02*
X176018571Y-109678152D01*
X176018571Y-109678152D02*
X175970952Y-109773390D01*
X175970952Y-109773390D02*
X175923333Y-109821009D01*
X175923333Y-109821009D02*
X175828095Y-109868628D01*
X175828095Y-109868628D02*
X175447143Y-109868628D01*
X176304286Y-109344819D02*
X176875714Y-109344819D01*
X176590000Y-110344819D02*
X176590000Y-109344819D01*
%LPC*%
D11*
X128740000Y-90650000D03*
D12*
X131280000Y-90650000D03*
X133820000Y-90650000D03*
X136360000Y-90650000D03*
D13*
X174115000Y-101450000D03*
D14*
X115053521Y-108607769D03*
D15*
X119856952Y-106367892D03*
D14*
X124660383Y-104128015D03*
D16*
X117393433Y-112206006D03*
D17*
X115330469Y-105676046D03*
X122350400Y-111715108D03*
D18*
X123528600Y-111165704D03*
D17*
X120003621Y-100672272D03*
X124706800Y-110616300D03*
D19*
X121118379Y-100152451D03*
D17*
X122233138Y-99632631D03*
D13*
X130410000Y-101450000D03*
D20*
X136740000Y-101450000D03*
D15*
X142040000Y-101450000D03*
D20*
X147340000Y-101450000D03*
D21*
X137340000Y-105700000D03*
D17*
X138230000Y-98910000D03*
X142040000Y-107350000D03*
D22*
X143340000Y-107350000D03*
D17*
X144580000Y-96350000D03*
X144640000Y-107350000D03*
D23*
X145810000Y-96350000D03*
D17*
X147040000Y-96350000D03*
D20*
X155790000Y-101450000D03*
D15*
X161090000Y-101450000D03*
D20*
X166390000Y-101450000D03*
D21*
X156390000Y-105700000D03*
D17*
X157280000Y-98910000D03*
X161090000Y-107350000D03*
D22*
X162390000Y-107350000D03*
D17*
X163630000Y-96350000D03*
X163690000Y-107350000D03*
D23*
X164860000Y-96350000D03*
D17*
X166090000Y-96350000D03*
%LPD*%
M02*
