G04 #@! TF.GenerationSoftware,KiCad,Pcbnew,7.0.5*
G04 #@! TF.CreationDate,2023-08-20T02:01:28+08:00*
G04 #@! TF.ProjectId,RT,52542e6b-6963-4616-945f-706362585858,rev?*
G04 #@! TF.SameCoordinates,Original*
G04 #@! TF.FileFunction,Copper,L1,Top*
G04 #@! TF.FilePolarity,Positive*
%FSLAX46Y46*%
G04 Gerber Fmt 4.6, Leading zero omitted, Abs format (unit mm)*
G04 Created by KiCad (PCBNEW 7.0.5) date 2023-08-20 02:01:28*
%MOMM*%
%LPD*%
G01*
G04 APERTURE LIST*
G04 Aperture macros list*
%AMRoundRect*
0 Rectangle with rounded corners*
0 $1 Rounding radius*
0 $2 $3 $4 $5 $6 $7 $8 $9 X,Y pos of 4 corners*
0 Add a 4 corners polygon primitive as box body*
4,1,4,$2,$3,$4,$5,$6,$7,$8,$9,$2,$3,0*
0 Add four circle primitives for the rounded corners*
1,1,$1+$1,$2,$3*
1,1,$1+$1,$4,$5*
1,1,$1+$1,$6,$7*
1,1,$1+$1,$8,$9*
0 Add four rect primitives between the rounded corners*
20,1,$1+$1,$2,$3,$4,$5,0*
20,1,$1+$1,$4,$5,$6,$7,0*
20,1,$1+$1,$6,$7,$8,$9,0*
20,1,$1+$1,$8,$9,$2,$3,0*%
%AMHorizOval*
0 Thick line with rounded ends*
0 $1 width*
0 $2 $3 position (X,Y) of the first rounded end (center of the circle)*
0 $4 $5 position (X,Y) of the second rounded end (center of the circle)*
0 Add line between two ends*
20,1,$1,$2,$3,$4,$5,0*
0 Add two circle primitives to create the rounded ends*
1,1,$1,$2,$3*
1,1,$1,$4,$5*%
%AMOutline4P*
0 Free polygon, 4 corners , with rotation*
0 The origin of the aperture is its center*
0 number of corners: always 4*
0 $1 to $8 corner X, Y*
0 $9 Rotation angle, in degrees counterclockwise*
0 create outline with 4 corners*
4,1,4,$1,$2,$3,$4,$5,$6,$7,$8,$1,$2,$9*%
G04 Aperture macros list end*
G04 #@! TA.AperFunction,ComponentPad*
%ADD10RoundRect,0.425000X0.425000X-0.425000X0.425000X0.425000X-0.425000X0.425000X-0.425000X-0.425000X0*%
G04 #@! TD*
G04 #@! TA.AperFunction,ComponentPad*
%ADD11O,1.700000X1.700000*%
G04 #@! TD*
G04 #@! TA.AperFunction,ComponentPad*
%ADD12HorizOval,2.400000X-0.469952X0.285736X0.469952X-0.285736X0*%
G04 #@! TD*
G04 #@! TA.AperFunction,ComponentPad*
%ADD13C,2.400000*%
G04 #@! TD*
G04 #@! TA.AperFunction,SMDPad,CuDef*
%ADD14Outline4P,-1.300000X-1.200000X1.300000X-1.200000X1.300000X1.200000X-1.300000X1.200000X25.000000*%
G04 #@! TD*
G04 #@! TA.AperFunction,SMDPad,CuDef*
%ADD15Outline4P,-1.200000X-1.200000X1.200000X-1.200000X1.200000X1.200000X-1.200000X1.200000X25.000000*%
G04 #@! TD*
G04 #@! TA.AperFunction,ComponentPad*
%ADD16HorizOval,2.400000X-0.305164X0.457575X0.305164X-0.457575X0*%
G04 #@! TD*
G04 #@! TA.AperFunction,SMDPad,CuDef*
%ADD17Outline4P,-1.300000X-1.200000X1.300000X-1.200000X1.300000X1.200000X-1.300000X1.200000X0.000000*%
G04 #@! TD*
G04 #@! TA.AperFunction,SMDPad,CuDef*
%ADD18Outline4P,-1.200000X-1.200000X1.200000X-1.200000X1.200000X1.200000X-1.200000X1.200000X0.000000*%
G04 #@! TD*
G04 #@! TA.AperFunction,ComponentPad*
%ADD19R,1.600000X1.600000*%
G04 #@! TD*
G04 #@! TA.AperFunction,ComponentPad*
%ADD20O,1.600000X1.600000*%
G04 #@! TD*
G04 #@! TA.AperFunction,Conductor*
%ADD21C,0.250000*%
G04 #@! TD*
G04 APERTURE END LIST*
D10*
X128740000Y-90650000D03*
D11*
X131280000Y-90650000D03*
X133820000Y-90650000D03*
X136360000Y-90650000D03*
D12*
X117393433Y-112206006D03*
D13*
X115330469Y-105676046D03*
X122350400Y-111715108D03*
D14*
X123528600Y-111165704D03*
D13*
X120003621Y-100672272D03*
X124706800Y-110616300D03*
D15*
X121118379Y-100152451D03*
D13*
X122233138Y-99632631D03*
D16*
X137340000Y-105700000D03*
D13*
X138230000Y-98910000D03*
X142040000Y-107350000D03*
D17*
X143340000Y-107350000D03*
D13*
X144580000Y-96350000D03*
X144640000Y-107350000D03*
D18*
X145810000Y-96350000D03*
D13*
X147040000Y-96350000D03*
D16*
X156390000Y-105700000D03*
D13*
X157280000Y-98910000D03*
X161090000Y-107350000D03*
D17*
X162390000Y-107350000D03*
D13*
X163630000Y-96350000D03*
X163690000Y-107350000D03*
D18*
X164860000Y-96350000D03*
D13*
X166090000Y-96350000D03*
D19*
X133785000Y-97650000D03*
D20*
X133785000Y-105250000D03*
D19*
X150295000Y-97650000D03*
D20*
X150295000Y-105250000D03*
D19*
X152835000Y-97650000D03*
D20*
X152835000Y-105250000D03*
D21*
X144640000Y-107350000D02*
X148195000Y-107350000D01*
X148195000Y-107350000D02*
X150295000Y-105250000D01*
X161090000Y-107350000D02*
X160750362Y-107689638D01*
X160750362Y-107689638D02*
X155274638Y-107689638D01*
X155274638Y-107689638D02*
X152835000Y-105250000D01*
X135280000Y-95960000D02*
X130420000Y-95960000D01*
X138230000Y-98910000D02*
X135280000Y-95960000D01*
X128740000Y-94280000D02*
X128740000Y-90650000D01*
X149829009Y-104125000D02*
X154815000Y-104125000D01*
X130420000Y-95960000D02*
X128740000Y-94280000D01*
X154815000Y-104125000D02*
X156390000Y-105700000D01*
X124540000Y-106440000D02*
X118773994Y-112206006D01*
X137340000Y-105700000D02*
X148254009Y-105700000D01*
X137340000Y-105700000D02*
X136600000Y-106440000D01*
X148254009Y-105700000D02*
X149829009Y-104125000D01*
X118773994Y-112206006D02*
X117393433Y-112206006D01*
X136600000Y-106440000D02*
X124540000Y-106440000D01*
G04 #@! TA.AperFunction,NonConductor*
G36*
X135174855Y-91316546D02*
G01*
X135191575Y-91335842D01*
X135302561Y-91494347D01*
X135321505Y-91521401D01*
X135488599Y-91688495D01*
X135570208Y-91745638D01*
X135682165Y-91824032D01*
X135682167Y-91824033D01*
X135682170Y-91824035D01*
X135896337Y-91923903D01*
X135896343Y-91923904D01*
X135896344Y-91923905D01*
X135949038Y-91938024D01*
X136124592Y-91985063D01*
X136312918Y-92001539D01*
X136359999Y-92005659D01*
X136360000Y-92005659D01*
X136360001Y-92005659D01*
X136399234Y-92002226D01*
X136595408Y-91985063D01*
X136823663Y-91923903D01*
X137037830Y-91824035D01*
X137231401Y-91688495D01*
X137398495Y-91521401D01*
X137403924Y-91513646D01*
X137458499Y-91470022D01*
X137527997Y-91462827D01*
X137590353Y-91494347D01*
X137625768Y-91554576D01*
X137629500Y-91584769D01*
X137629500Y-91900467D01*
X137629416Y-91900889D01*
X137629459Y-91925001D01*
X137629544Y-91925206D01*
X137629616Y-91925382D01*
X137629618Y-91925384D01*
X137629808Y-91925462D01*
X137630000Y-91925541D01*
X137630002Y-91925539D01*
X137654616Y-91925524D01*
X137654616Y-91925528D01*
X137654760Y-91925500D01*
X177111519Y-91925500D01*
X177118456Y-91925889D01*
X177141354Y-91928469D01*
X177220831Y-91938932D01*
X177245597Y-91944829D01*
X177279735Y-91956775D01*
X177282984Y-91958015D01*
X177337195Y-91980469D01*
X177355695Y-91990027D01*
X177390520Y-92011909D01*
X177395267Y-92015212D01*
X177443200Y-92051993D01*
X177449295Y-92057337D01*
X177482660Y-92090702D01*
X177488005Y-92096798D01*
X177524786Y-92144731D01*
X177528097Y-92149490D01*
X177549967Y-92184296D01*
X177559536Y-92202818D01*
X177581983Y-92257014D01*
X177583223Y-92260263D01*
X177595169Y-92294401D01*
X177601066Y-92319169D01*
X177611528Y-92398632D01*
X177614110Y-92421537D01*
X177614500Y-92428486D01*
X177614500Y-110471513D01*
X177614110Y-110478463D01*
X177611528Y-110501366D01*
X177601066Y-110580829D01*
X177595169Y-110605597D01*
X177583223Y-110639735D01*
X177581983Y-110642984D01*
X177559536Y-110697180D01*
X177549967Y-110715702D01*
X177528097Y-110750508D01*
X177524786Y-110755267D01*
X177488005Y-110803200D01*
X177482653Y-110809304D01*
X177449304Y-110842653D01*
X177443200Y-110848005D01*
X177395267Y-110884786D01*
X177390508Y-110888097D01*
X177355702Y-110909967D01*
X177337180Y-110919536D01*
X177282984Y-110941983D01*
X177279735Y-110943223D01*
X177245597Y-110955169D01*
X177220829Y-110961066D01*
X177141367Y-110971528D01*
X177123828Y-110973505D01*
X177118458Y-110974110D01*
X177111514Y-110974500D01*
X132514901Y-110974500D01*
X132514617Y-110974617D01*
X132514616Y-110974617D01*
X132499169Y-110980981D01*
X132495328Y-110983642D01*
X115705915Y-118812674D01*
X115699446Y-118815259D01*
X115677493Y-118822632D01*
X115601227Y-118846678D01*
X115576278Y-118851802D01*
X115539907Y-118855439D01*
X115536442Y-118855687D01*
X115478312Y-118858225D01*
X115457479Y-118857380D01*
X115416237Y-118852209D01*
X115410526Y-118851221D01*
X115352101Y-118838268D01*
X115344305Y-118835995D01*
X115299475Y-118819676D01*
X115292045Y-118816407D01*
X115239087Y-118788839D01*
X115234075Y-118785924D01*
X115198991Y-118763264D01*
X115182493Y-118750523D01*
X115139925Y-118711516D01*
X115137446Y-118709113D01*
X115111562Y-118682576D01*
X115095750Y-118662622D01*
X115053858Y-118596865D01*
X115040630Y-118575221D01*
X115037347Y-118569105D01*
X109025218Y-105676050D01*
X113625201Y-105676050D01*
X113644246Y-105930200D01*
X113680523Y-106089141D01*
X113700961Y-106178683D01*
X113794076Y-106415934D01*
X113921510Y-106636658D01*
X114080419Y-106835923D01*
X114267252Y-107009278D01*
X114477835Y-107152851D01*
X114477840Y-107152853D01*
X114477841Y-107152854D01*
X114477842Y-107152855D01*
X114600965Y-107212147D01*
X114662781Y-107241916D01*
X114714641Y-107288738D01*
X114732954Y-107356165D01*
X114711906Y-107422789D01*
X114661385Y-107466018D01*
X114359917Y-107606596D01*
X114359914Y-107606598D01*
X114215942Y-107690710D01*
X114215940Y-107690711D01*
X114047729Y-107836329D01*
X113909140Y-108010379D01*
X113804893Y-108206926D01*
X113804892Y-108206930D01*
X113738537Y-108419282D01*
X113738536Y-108419284D01*
X113738536Y-108419287D01*
X113712329Y-108640222D01*
X113712329Y-108640223D01*
X113727165Y-108862212D01*
X113782540Y-109077697D01*
X113876566Y-109279337D01*
X114006043Y-109460266D01*
X114006045Y-109460268D01*
X114166557Y-109614320D01*
X114166567Y-109614328D01*
X114336569Y-109725723D01*
X114352655Y-109736263D01*
X114557986Y-109821932D01*
X114703036Y-109852918D01*
X114775560Y-109868412D01*
X114785915Y-109868677D01*
X114997975Y-109874121D01*
X115217649Y-109838865D01*
X115374628Y-109782640D01*
X115747125Y-109608941D01*
X115891100Y-109524828D01*
X116059311Y-109379210D01*
X116197900Y-109205161D01*
X116302149Y-109008611D01*
X116368506Y-108796251D01*
X116394713Y-108575315D01*
X116379876Y-108353325D01*
X116324502Y-108137841D01*
X116230475Y-107936200D01*
X116100998Y-107755271D01*
X116075379Y-107730683D01*
X115940484Y-107601217D01*
X115940474Y-107601209D01*
X115814662Y-107518771D01*
X115769377Y-107465564D01*
X115760046Y-107396320D01*
X115789633Y-107333024D01*
X115846071Y-107296563D01*
X115953473Y-107263435D01*
X116134927Y-107176051D01*
X116183095Y-107152855D01*
X116183095Y-107152854D01*
X116183103Y-107152851D01*
X116393686Y-107009278D01*
X116580519Y-106835923D01*
X116739428Y-106636658D01*
X116828986Y-106481536D01*
X116879553Y-106433320D01*
X116948160Y-106420096D01*
X117013025Y-106446064D01*
X117053554Y-106502978D01*
X117060319Y-106539859D01*
X117062607Y-106617002D01*
X117096995Y-106847362D01*
X117111683Y-106945749D01*
X117111684Y-106945754D01*
X117199297Y-107266386D01*
X117199298Y-107266390D01*
X117324216Y-107574403D01*
X117324221Y-107574414D01*
X117450452Y-107803384D01*
X117484694Y-107865495D01*
X117529986Y-107928617D01*
X117678472Y-108135559D01*
X117678481Y-108135569D01*
X117847017Y-108319797D01*
X117902829Y-108380806D01*
X118154618Y-108597798D01*
X118154623Y-108597801D01*
X118154629Y-108597806D01*
X118217605Y-108640223D01*
X118430305Y-108783487D01*
X118726019Y-108935266D01*
X119037608Y-109051005D01*
X119360699Y-109129079D01*
X119690757Y-109168392D01*
X119690764Y-109168392D01*
X119939977Y-109168392D01*
X120002170Y-109164701D01*
X120188759Y-109153628D01*
X120515908Y-109094831D01*
X120738328Y-109026909D01*
X120808191Y-109026157D01*
X120867373Y-109063296D01*
X120897082Y-109126535D01*
X120887884Y-109195797D01*
X120862222Y-109233185D01*
X119008390Y-111087017D01*
X118947067Y-111120502D01*
X118877375Y-111115518D01*
X118856294Y-111105292D01*
X117863013Y-110501366D01*
X117751226Y-110433398D01*
X117576697Y-110344818D01*
X117576696Y-110344817D01*
X117576687Y-110344813D01*
X117576679Y-110344810D01*
X117576676Y-110344809D01*
X117328539Y-110263565D01*
X117328537Y-110263564D01*
X117070896Y-110221148D01*
X116809805Y-110218559D01*
X116809804Y-110218559D01*
X116809801Y-110218559D01*
X116680583Y-110237207D01*
X116551363Y-110255856D01*
X116551358Y-110255857D01*
X116301659Y-110332164D01*
X116066521Y-110445698D01*
X116066519Y-110445699D01*
X115851469Y-110593795D01*
X115851467Y-110593797D01*
X115661550Y-110772979D01*
X115501205Y-110979060D01*
X115374200Y-111207198D01*
X115283508Y-111452046D01*
X115231252Y-111707882D01*
X115218664Y-111968686D01*
X115246033Y-112228358D01*
X115312720Y-112480800D01*
X115312725Y-112480814D01*
X115417166Y-112720119D01*
X115556917Y-112940686D01*
X115728695Y-113137327D01*
X115728701Y-113137333D01*
X115793565Y-113191916D01*
X115928483Y-113305450D01*
X117035632Y-113978609D01*
X117035639Y-113978613D01*
X117125949Y-114024449D01*
X117210179Y-114067199D01*
X117458327Y-114148447D01*
X117715968Y-114190863D01*
X117977065Y-114193453D01*
X118235499Y-114156156D01*
X118235502Y-114156154D01*
X118235507Y-114156154D01*
X118317066Y-114131230D01*
X118485209Y-114079848D01*
X118720345Y-113966314D01*
X118935394Y-113818219D01*
X119125316Y-113639032D01*
X119285660Y-113432953D01*
X119412666Y-113204813D01*
X119503359Y-112959960D01*
X119555613Y-112704132D01*
X119568202Y-112443325D01*
X119560392Y-112369235D01*
X119572940Y-112300507D01*
X119596025Y-112268563D01*
X120448977Y-111415611D01*
X120510298Y-111382128D01*
X120579990Y-111387112D01*
X120635923Y-111428984D01*
X120660340Y-111494448D01*
X120660309Y-111512560D01*
X120645132Y-111715103D01*
X120645132Y-111715112D01*
X120664177Y-111969262D01*
X120717683Y-112203689D01*
X120720892Y-112217745D01*
X120814007Y-112454996D01*
X120941441Y-112675720D01*
X121100350Y-112874985D01*
X121287183Y-113048340D01*
X121497766Y-113191913D01*
X121497771Y-113191915D01*
X121497772Y-113191916D01*
X121497773Y-113191917D01*
X121619728Y-113250646D01*
X121727392Y-113302495D01*
X121727393Y-113302495D01*
X121727396Y-113302497D01*
X121970942Y-113377621D01*
X122222965Y-113415608D01*
X122477835Y-113415608D01*
X122729858Y-113377621D01*
X122973404Y-113302497D01*
X123078641Y-113251817D01*
X125315773Y-112208623D01*
X125323687Y-112205575D01*
X125329804Y-112203689D01*
X125435078Y-112152991D01*
X125468849Y-112137244D01*
X125470536Y-112136224D01*
X125475698Y-112133429D01*
X125559434Y-112093105D01*
X125770017Y-111949532D01*
X125956850Y-111776177D01*
X126115759Y-111576912D01*
X126243193Y-111356188D01*
X126336308Y-111118937D01*
X126393022Y-110870457D01*
X126406416Y-110691725D01*
X126412068Y-110616304D01*
X126412068Y-110616295D01*
X126393022Y-110362145D01*
X126389067Y-110344818D01*
X126336308Y-110113663D01*
X126243193Y-109876412D01*
X126115759Y-109655688D01*
X125956850Y-109456423D01*
X125770017Y-109283068D01*
X125559434Y-109139495D01*
X125559430Y-109139493D01*
X125559427Y-109139491D01*
X125559426Y-109139490D01*
X125329806Y-109028912D01*
X125329808Y-109028912D01*
X125086266Y-108953789D01*
X125086262Y-108953788D01*
X125086258Y-108953787D01*
X124963381Y-108935266D01*
X124834240Y-108915800D01*
X124834235Y-108915800D01*
X124579365Y-108915800D01*
X124579359Y-108915800D01*
X124422409Y-108939457D01*
X124327342Y-108953787D01*
X124327338Y-108953788D01*
X124327339Y-108953788D01*
X124327333Y-108953789D01*
X124083795Y-109028910D01*
X123978519Y-109079608D01*
X122379490Y-109825248D01*
X122310412Y-109835740D01*
X122246628Y-109807220D01*
X122208389Y-109748744D01*
X122207834Y-109678876D01*
X122239402Y-109625187D01*
X124762771Y-107101819D01*
X124824095Y-107068334D01*
X124850453Y-107065500D01*
X136140343Y-107065500D01*
X136207382Y-107085185D01*
X136243506Y-107120700D01*
X136266592Y-107155317D01*
X136387338Y-107309364D01*
X136387340Y-107309366D01*
X136387341Y-107309367D01*
X136577903Y-107487875D01*
X136793480Y-107635201D01*
X137029019Y-107747893D01*
X137279002Y-107823309D01*
X137537566Y-107859682D01*
X137798652Y-107856158D01*
X138056141Y-107812822D01*
X138056147Y-107812819D01*
X138056152Y-107812819D01*
X138154044Y-107780378D01*
X138303996Y-107730687D01*
X138536410Y-107611681D01*
X138747933Y-107458591D01*
X138933608Y-107275007D01*
X139089084Y-107065232D01*
X139210715Y-106834181D01*
X139295651Y-106587271D01*
X139324399Y-106427536D01*
X139355647Y-106365043D01*
X139415720Y-106329365D01*
X139446438Y-106325500D01*
X140453153Y-106325500D01*
X140520192Y-106345185D01*
X140565947Y-106397989D01*
X140575891Y-106467147D01*
X140560540Y-106511500D01*
X140503608Y-106610109D01*
X140410492Y-106847362D01*
X140410490Y-106847369D01*
X140353777Y-107095845D01*
X140334732Y-107349995D01*
X140334732Y-107350004D01*
X140353777Y-107604154D01*
X140406769Y-107836329D01*
X140410492Y-107852637D01*
X140459565Y-107977673D01*
X140503608Y-108089890D01*
X140504546Y-108091515D01*
X140631041Y-108310612D01*
X140789950Y-108509877D01*
X140976783Y-108683232D01*
X141187366Y-108826805D01*
X141187371Y-108826807D01*
X141187372Y-108826808D01*
X141187373Y-108826809D01*
X141309328Y-108885538D01*
X141416992Y-108937387D01*
X141416993Y-108937387D01*
X141416996Y-108937389D01*
X141660542Y-109012513D01*
X141912565Y-109050500D01*
X142218789Y-109050500D01*
X142218798Y-109050499D01*
X144510361Y-109050499D01*
X144510389Y-109050500D01*
X144512565Y-109050500D01*
X144767435Y-109050500D01*
X145019458Y-109012513D01*
X145263004Y-108937389D01*
X145492634Y-108826805D01*
X145703217Y-108683232D01*
X145890050Y-108509877D01*
X146048959Y-108310612D01*
X146176393Y-108089888D01*
X146190400Y-108054196D01*
X146233215Y-107998985D01*
X146299085Y-107975683D01*
X146305828Y-107975500D01*
X148112257Y-107975500D01*
X148127877Y-107977224D01*
X148127904Y-107976939D01*
X148135666Y-107977673D01*
X148135666Y-107977672D01*
X148135667Y-107977673D01*
X148138999Y-107977568D01*
X148203847Y-107975531D01*
X148205794Y-107975500D01*
X148234347Y-107975500D01*
X148234350Y-107975500D01*
X148241228Y-107974630D01*
X148247041Y-107974172D01*
X148293627Y-107972709D01*
X148312869Y-107967117D01*
X148331912Y-107963174D01*
X148351792Y-107960664D01*
X148395122Y-107943507D01*
X148400646Y-107941617D01*
X148404396Y-107940527D01*
X148445390Y-107928618D01*
X148462629Y-107918422D01*
X148480103Y-107909862D01*
X148498727Y-107902488D01*
X148498727Y-107902487D01*
X148498732Y-107902486D01*
X148536449Y-107875082D01*
X148541305Y-107871892D01*
X148581420Y-107848170D01*
X148595589Y-107833999D01*
X148610379Y-107821368D01*
X148626587Y-107809594D01*
X148656299Y-107773676D01*
X148660212Y-107769376D01*
X149880179Y-106549410D01*
X149941500Y-106515927D01*
X149999947Y-106517317D01*
X150068308Y-106535635D01*
X150225780Y-106549412D01*
X150294998Y-106555468D01*
X150295000Y-106555468D01*
X150295002Y-106555468D01*
X150351673Y-106550509D01*
X150521692Y-106535635D01*
X150741496Y-106476739D01*
X150947734Y-106380568D01*
X151134139Y-106250047D01*
X151295047Y-106089139D01*
X151425568Y-105902734D01*
X151452618Y-105844724D01*
X151498790Y-105792285D01*
X151565983Y-105773133D01*
X151632865Y-105793348D01*
X151677382Y-105844725D01*
X151704429Y-105902728D01*
X151704432Y-105902734D01*
X151834954Y-106089141D01*
X151995858Y-106250045D01*
X151995861Y-106250047D01*
X152182266Y-106380568D01*
X152388504Y-106476739D01*
X152388509Y-106476740D01*
X152388511Y-106476741D01*
X152441415Y-106490916D01*
X152608308Y-106535635D01*
X152765780Y-106549412D01*
X152834998Y-106555468D01*
X152835000Y-106555468D01*
X152835002Y-106555468D01*
X152891672Y-106550509D01*
X153061692Y-106535635D01*
X153130048Y-106517319D01*
X153199897Y-106518982D01*
X153249822Y-106549413D01*
X154773835Y-108073426D01*
X154783660Y-108085689D01*
X154783881Y-108085507D01*
X154788849Y-108091512D01*
X154838570Y-108138204D01*
X154839970Y-108139561D01*
X154860161Y-108159753D01*
X154860165Y-108159756D01*
X154860167Y-108159758D01*
X154865649Y-108164011D01*
X154870081Y-108167795D01*
X154904056Y-108199700D01*
X154921614Y-108209352D01*
X154937873Y-108220033D01*
X154953702Y-108232311D01*
X154996476Y-108250820D01*
X155001694Y-108253376D01*
X155042546Y-108275835D01*
X155061954Y-108280818D01*
X155080355Y-108287118D01*
X155098742Y-108295075D01*
X155142126Y-108301946D01*
X155144757Y-108302363D01*
X155150477Y-108303547D01*
X155195619Y-108315138D01*
X155215654Y-108315138D01*
X155235052Y-108316664D01*
X155254832Y-108319797D01*
X155254833Y-108319798D01*
X155254833Y-108319797D01*
X155254834Y-108319798D01*
X155301221Y-108315413D01*
X155307060Y-108315138D01*
X159624935Y-108315138D01*
X159691974Y-108334823D01*
X159721881Y-108361824D01*
X159839950Y-108509877D01*
X160026783Y-108683232D01*
X160237366Y-108826805D01*
X160237371Y-108826807D01*
X160237372Y-108826808D01*
X160237373Y-108826809D01*
X160359328Y-108885538D01*
X160466992Y-108937387D01*
X160466993Y-108937387D01*
X160466996Y-108937389D01*
X160710542Y-109012513D01*
X160962565Y-109050500D01*
X161268789Y-109050500D01*
X161268798Y-109050499D01*
X163560361Y-109050499D01*
X163560389Y-109050500D01*
X163562565Y-109050500D01*
X163817435Y-109050500D01*
X164069458Y-109012513D01*
X164313004Y-108937389D01*
X164542634Y-108826805D01*
X164753217Y-108683232D01*
X164940050Y-108509877D01*
X165098959Y-108310612D01*
X165226393Y-108089888D01*
X165319508Y-107852637D01*
X165376222Y-107604157D01*
X165387130Y-107458591D01*
X165395268Y-107350004D01*
X165395268Y-107349995D01*
X165378085Y-107120700D01*
X165376222Y-107095843D01*
X165319508Y-106847363D01*
X165226393Y-106610112D01*
X165098959Y-106389388D01*
X164940050Y-106190123D01*
X164753217Y-106016768D01*
X164542634Y-105873195D01*
X164542630Y-105873193D01*
X164542627Y-105873191D01*
X164542626Y-105873190D01*
X164313006Y-105762612D01*
X164313008Y-105762612D01*
X164069466Y-105687489D01*
X164069462Y-105687488D01*
X164069458Y-105687487D01*
X163948231Y-105669214D01*
X163817440Y-105649500D01*
X163817435Y-105649500D01*
X163562565Y-105649500D01*
X163562564Y-105649500D01*
X161217441Y-105649500D01*
X161217435Y-105649500D01*
X160962565Y-105649500D01*
X160962559Y-105649500D01*
X160807631Y-105672853D01*
X160710542Y-105687487D01*
X160710538Y-105687488D01*
X160710539Y-105687488D01*
X160710533Y-105687489D01*
X160466992Y-105762612D01*
X160237373Y-105873190D01*
X160237372Y-105873191D01*
X160026782Y-106016768D01*
X159839952Y-106190121D01*
X159839950Y-106190123D01*
X159681041Y-106389388D01*
X159553608Y-106610109D01*
X159460492Y-106847362D01*
X159460490Y-106847369D01*
X159433018Y-106967731D01*
X159398909Y-107028709D01*
X159337247Y-107061567D01*
X159312127Y-107064138D01*
X158345069Y-107064138D01*
X158278030Y-107044453D01*
X158232275Y-106991649D01*
X158222331Y-106922491D01*
X158235344Y-106882376D01*
X158237200Y-106878850D01*
X158260715Y-106834181D01*
X158345651Y-106587271D01*
X158391900Y-106330290D01*
X158398379Y-106069260D01*
X158364938Y-105810301D01*
X158301101Y-105589699D01*
X158292359Y-105559487D01*
X158292357Y-105559482D01*
X158292357Y-105559481D01*
X158182340Y-105322679D01*
X157463412Y-104244689D01*
X157461892Y-104242750D01*
X157342661Y-104090635D01*
X157342659Y-104090633D01*
X157152097Y-103912125D01*
X156936520Y-103764799D01*
X156936517Y-103764798D01*
X156936515Y-103764796D01*
X156936512Y-103764794D01*
X156700982Y-103652108D01*
X156450997Y-103576690D01*
X156228804Y-103545435D01*
X156192434Y-103540319D01*
X156192433Y-103540319D01*
X155931347Y-103543841D01*
X155673858Y-103587178D01*
X155673847Y-103587180D01*
X155426009Y-103669311D01*
X155425995Y-103669317D01*
X155385927Y-103689833D01*
X155317284Y-103702865D01*
X155252491Y-103676717D01*
X155241733Y-103667141D01*
X155229476Y-103654884D01*
X155223986Y-103650625D01*
X155219561Y-103646847D01*
X155185582Y-103614938D01*
X155185580Y-103614936D01*
X155185577Y-103614935D01*
X155168029Y-103605288D01*
X155151763Y-103594604D01*
X155142192Y-103587180D01*
X155135936Y-103582327D01*
X155135935Y-103582326D01*
X155135933Y-103582325D01*
X155093168Y-103563818D01*
X155087922Y-103561248D01*
X155047093Y-103538803D01*
X155047092Y-103538802D01*
X155027693Y-103533822D01*
X155009281Y-103527518D01*
X154990898Y-103519562D01*
X154990892Y-103519560D01*
X154944874Y-103512272D01*
X154939152Y-103511087D01*
X154894021Y-103499500D01*
X154894019Y-103499500D01*
X154873984Y-103499500D01*
X154854586Y-103497973D01*
X154847162Y-103496797D01*
X154834805Y-103494840D01*
X154834804Y-103494840D01*
X154788416Y-103499225D01*
X154782578Y-103499500D01*
X149911746Y-103499500D01*
X149896129Y-103497776D01*
X149896102Y-103498062D01*
X149888340Y-103497327D01*
X149820180Y-103499469D01*
X149818233Y-103499500D01*
X149789659Y-103499500D01*
X149788938Y-103499590D01*
X149782766Y-103500369D01*
X149776954Y-103500826D01*
X149730381Y-103502290D01*
X149730378Y-103502291D01*
X149711135Y-103507881D01*
X149692092Y-103511825D01*
X149672213Y-103514336D01*
X149672212Y-103514337D01*
X149628887Y-103531490D01*
X149623361Y-103533382D01*
X149578617Y-103546383D01*
X149578613Y-103546385D01*
X149561374Y-103556580D01*
X149543907Y-103565137D01*
X149525278Y-103572512D01*
X149525276Y-103572513D01*
X149487573Y-103599906D01*
X149482691Y-103603112D01*
X149442589Y-103626828D01*
X149428417Y-103641000D01*
X149413632Y-103653628D01*
X149397421Y-103665407D01*
X149367718Y-103701310D01*
X149363785Y-103705631D01*
X148686959Y-104382459D01*
X148031237Y-105038181D01*
X147969914Y-105071666D01*
X147943556Y-105074500D01*
X139033175Y-105074500D01*
X138966136Y-105054815D01*
X138930013Y-105019301D01*
X138786099Y-104803511D01*
X138413412Y-104244689D01*
X138411892Y-104242750D01*
X138292661Y-104090635D01*
X138292659Y-104090633D01*
X138102097Y-103912125D01*
X137886520Y-103764799D01*
X137886517Y-103764798D01*
X137886515Y-103764796D01*
X137886512Y-103764794D01*
X137650982Y-103652108D01*
X137400997Y-103576690D01*
X137178804Y-103545435D01*
X137142434Y-103540319D01*
X137142433Y-103540319D01*
X136881347Y-103543841D01*
X136623858Y-103587178D01*
X136623847Y-103587180D01*
X136376009Y-103669311D01*
X136376002Y-103669314D01*
X136143591Y-103788319D01*
X135932075Y-103941403D01*
X135932067Y-103941409D01*
X135746392Y-104124992D01*
X135590916Y-104334766D01*
X135469287Y-104565814D01*
X135469282Y-104565826D01*
X135384349Y-104812728D01*
X135338100Y-105069709D01*
X135334732Y-105205396D01*
X135313390Y-105271926D01*
X135310683Y-105274156D01*
X135329180Y-105309346D01*
X135331444Y-105327350D01*
X135331619Y-105330730D01*
X135365061Y-105589696D01*
X135365063Y-105589704D01*
X135384257Y-105656032D01*
X135383983Y-105725901D01*
X135345979Y-105784531D01*
X135282310Y-105813306D01*
X135265144Y-105814500D01*
X135141720Y-105814500D01*
X135074681Y-105794815D01*
X135028926Y-105742011D01*
X135018982Y-105672853D01*
X135021945Y-105658407D01*
X135048450Y-105559487D01*
X135070635Y-105476692D01*
X135084083Y-105322969D01*
X135107886Y-105262118D01*
X135090963Y-105234291D01*
X135087242Y-105213126D01*
X135082714Y-105161369D01*
X135070635Y-105023308D01*
X135011739Y-104803504D01*
X134915568Y-104597266D01*
X134785047Y-104410861D01*
X134785045Y-104410858D01*
X134624141Y-104249954D01*
X134437734Y-104119432D01*
X134437732Y-104119431D01*
X134231497Y-104023261D01*
X134231488Y-104023258D01*
X134011697Y-103964366D01*
X134011693Y-103964365D01*
X134011692Y-103964365D01*
X134011691Y-103964364D01*
X134011686Y-103964364D01*
X133785002Y-103944532D01*
X133784998Y-103944532D01*
X133558313Y-103964364D01*
X133558302Y-103964366D01*
X133338511Y-104023258D01*
X133338502Y-104023261D01*
X133132267Y-104119431D01*
X133132265Y-104119432D01*
X132945858Y-104249954D01*
X132784954Y-104410858D01*
X132654432Y-104597265D01*
X132654431Y-104597267D01*
X132558261Y-104803502D01*
X132558258Y-104803511D01*
X132499366Y-105023302D01*
X132499364Y-105023313D01*
X132479532Y-105249998D01*
X132479532Y-105250001D01*
X132499364Y-105476686D01*
X132499366Y-105476697D01*
X132548055Y-105658407D01*
X132546392Y-105728257D01*
X132507229Y-105786119D01*
X132443001Y-105813623D01*
X132428280Y-105814500D01*
X124622743Y-105814500D01*
X124607122Y-105812775D01*
X124607096Y-105813061D01*
X124599333Y-105812326D01*
X124531153Y-105814469D01*
X124529206Y-105814500D01*
X124500649Y-105814500D01*
X124493766Y-105815369D01*
X124487949Y-105815826D01*
X124441373Y-105817290D01*
X124422129Y-105822881D01*
X124403079Y-105826825D01*
X124383211Y-105829334D01*
X124339884Y-105846488D01*
X124334358Y-105848379D01*
X124289614Y-105861379D01*
X124289610Y-105861381D01*
X124272366Y-105871579D01*
X124254905Y-105880133D01*
X124236274Y-105887510D01*
X124236262Y-105887517D01*
X124198570Y-105914902D01*
X124193687Y-105918109D01*
X124153580Y-105941829D01*
X124139414Y-105955995D01*
X124124624Y-105968627D01*
X124108414Y-105980404D01*
X124108411Y-105980407D01*
X124078710Y-106016309D01*
X124074777Y-106020631D01*
X122721158Y-107374250D01*
X122659835Y-107407735D01*
X122590143Y-107402751D01*
X122534210Y-107360879D01*
X122509793Y-107295415D01*
X122516009Y-107246855D01*
X122563167Y-107107367D01*
X122583814Y-107009277D01*
X122631632Y-106782104D01*
X122661147Y-106451026D01*
X122651297Y-106118782D01*
X122602221Y-105790034D01*
X122514607Y-105469398D01*
X122389685Y-105161375D01*
X122374907Y-105134570D01*
X122330939Y-105054815D01*
X122229210Y-104870289D01*
X122035433Y-104600227D01*
X122035431Y-104600224D01*
X122035422Y-104600214D01*
X121811074Y-104354977D01*
X121672710Y-104235735D01*
X121585374Y-104160469D01*
X123319191Y-104160469D01*
X123334027Y-104382458D01*
X123389402Y-104597943D01*
X123483428Y-104799583D01*
X123612905Y-104980512D01*
X123612907Y-104980514D01*
X123773419Y-105134566D01*
X123773429Y-105134574D01*
X123925610Y-105234291D01*
X123959517Y-105256509D01*
X124164848Y-105342178D01*
X124309898Y-105373164D01*
X124382422Y-105388658D01*
X124392777Y-105388923D01*
X124604837Y-105394367D01*
X124824511Y-105359111D01*
X124981490Y-105302886D01*
X125353987Y-105129187D01*
X125497962Y-105045074D01*
X125666173Y-104899456D01*
X125804762Y-104725407D01*
X125909011Y-104528857D01*
X125975368Y-104316497D01*
X126001575Y-104095561D01*
X125986738Y-103873571D01*
X125931364Y-103658087D01*
X125837337Y-103456446D01*
X125707860Y-103275517D01*
X125706659Y-103274364D01*
X125547346Y-103121463D01*
X125547336Y-103121455D01*
X125361254Y-102999524D01*
X125361252Y-102999523D01*
X125361249Y-102999521D01*
X125155918Y-102913852D01*
X125144347Y-102911380D01*
X124938343Y-102867371D01*
X124715925Y-102861662D01*
X124496257Y-102896917D01*
X124339275Y-102953143D01*
X123966779Y-103126843D01*
X123966776Y-103126844D01*
X123822804Y-103210956D01*
X123822802Y-103210957D01*
X123654591Y-103356575D01*
X123516002Y-103530625D01*
X123411755Y-103727172D01*
X123411754Y-103727176D01*
X123345399Y-103939528D01*
X123345398Y-103939530D01*
X123345398Y-103939533D01*
X123327709Y-104088657D01*
X123319191Y-104160469D01*
X121585374Y-104160469D01*
X121559286Y-104137986D01*
X121559282Y-104137983D01*
X121559274Y-104137977D01*
X121283605Y-103952301D01*
X121283604Y-103952300D01*
X121283601Y-103952298D01*
X121283599Y-103952297D01*
X120987885Y-103800518D01*
X120987880Y-103800516D01*
X120987878Y-103800515D01*
X120676300Y-103684780D01*
X120353206Y-103606705D01*
X120353201Y-103606704D01*
X120213639Y-103590081D01*
X120023147Y-103567392D01*
X119773929Y-103567392D01*
X119773927Y-103567392D01*
X119525150Y-103582155D01*
X119525143Y-103582156D01*
X119197995Y-103640953D01*
X118880094Y-103738031D01*
X118575912Y-103872023D01*
X118575907Y-103872026D01*
X118289717Y-104041049D01*
X118289700Y-104041061D01*
X118025505Y-104242751D01*
X118025496Y-104242759D01*
X117787012Y-104474278D01*
X117787011Y-104474279D01*
X117577576Y-104732389D01*
X117400141Y-105013456D01*
X117400138Y-105013461D01*
X117257193Y-105313531D01*
X117257189Y-105313542D01*
X117239498Y-105365870D01*
X117199379Y-105423074D01*
X117134702Y-105449507D01*
X117066002Y-105436777D01*
X117015091Y-105388925D01*
X117001139Y-105353749D01*
X116959978Y-105173415D01*
X116959977Y-105173409D01*
X116866862Y-104936158D01*
X116739428Y-104715434D01*
X116580519Y-104516169D01*
X116393686Y-104342814D01*
X116183103Y-104199241D01*
X116183099Y-104199239D01*
X116183096Y-104199237D01*
X116183095Y-104199236D01*
X115953475Y-104088658D01*
X115953477Y-104088658D01*
X115709935Y-104013535D01*
X115709931Y-104013534D01*
X115709927Y-104013533D01*
X115588700Y-103995260D01*
X115457909Y-103975546D01*
X115457904Y-103975546D01*
X115203034Y-103975546D01*
X115203028Y-103975546D01*
X115046078Y-103999203D01*
X114951011Y-104013533D01*
X114951007Y-104013534D01*
X114951008Y-104013534D01*
X114951002Y-104013535D01*
X114707461Y-104088658D01*
X114477842Y-104199236D01*
X114477841Y-104199237D01*
X114267251Y-104342814D01*
X114080421Y-104516167D01*
X114080419Y-104516169D01*
X113921510Y-104715434D01*
X113794077Y-104936155D01*
X113700961Y-105173408D01*
X113700959Y-105173415D01*
X113644246Y-105421891D01*
X113625201Y-105676041D01*
X113625201Y-105676050D01*
X109025218Y-105676050D01*
X107412162Y-102216840D01*
X107409586Y-102210396D01*
X107402245Y-102188546D01*
X107398467Y-102176562D01*
X107378139Y-102112090D01*
X107373021Y-102087167D01*
X107369414Y-102051119D01*
X107369170Y-102047714D01*
X107366611Y-101989100D01*
X107367455Y-101968292D01*
X107372578Y-101927417D01*
X107373560Y-101921743D01*
X107386625Y-101862810D01*
X107388887Y-101855050D01*
X107405061Y-101810611D01*
X107408312Y-101803222D01*
X107436186Y-101749676D01*
X107439073Y-101744713D01*
X107461447Y-101710070D01*
X107474167Y-101693599D01*
X107513771Y-101650379D01*
X107516133Y-101647943D01*
X107542129Y-101622587D01*
X107562065Y-101606789D01*
X107629359Y-101563917D01*
X107649381Y-101551681D01*
X107655506Y-101548395D01*
X109534350Y-100672276D01*
X118298353Y-100672276D01*
X118317398Y-100926426D01*
X118372137Y-101166255D01*
X118374113Y-101174909D01*
X118467228Y-101412160D01*
X118594662Y-101632884D01*
X118753571Y-101832149D01*
X118940404Y-102005504D01*
X119150987Y-102149077D01*
X119150992Y-102149079D01*
X119150993Y-102149080D01*
X119150994Y-102149081D01*
X119233032Y-102188588D01*
X119380613Y-102259659D01*
X119380614Y-102259659D01*
X119380617Y-102259661D01*
X119624163Y-102334785D01*
X119876186Y-102372772D01*
X120131056Y-102372772D01*
X120383079Y-102334785D01*
X120626625Y-102259661D01*
X120731928Y-102208949D01*
X122359496Y-101450001D01*
X128404390Y-101450001D01*
X128424804Y-101735433D01*
X128485628Y-102015037D01*
X128485630Y-102015043D01*
X128485631Y-102015046D01*
X128576867Y-102259658D01*
X128585635Y-102283166D01*
X128722770Y-102534309D01*
X128722775Y-102534317D01*
X128894254Y-102763387D01*
X128894270Y-102763405D01*
X129096594Y-102965729D01*
X129096612Y-102965745D01*
X129325682Y-103137224D01*
X129325690Y-103137229D01*
X129576833Y-103274364D01*
X129576832Y-103274364D01*
X129576836Y-103274365D01*
X129576839Y-103274367D01*
X129844954Y-103374369D01*
X129844960Y-103374370D01*
X129844962Y-103374371D01*
X130124566Y-103435195D01*
X130124568Y-103435195D01*
X130124572Y-103435196D01*
X130338552Y-103450500D01*
X130481448Y-103450500D01*
X130695428Y-103435196D01*
X130975046Y-103374369D01*
X131243161Y-103274367D01*
X131494315Y-103137226D01*
X131723395Y-102965739D01*
X131925739Y-102763395D01*
X132097226Y-102534315D01*
X132234367Y-102283161D01*
X132334369Y-102015046D01*
X132369178Y-101855030D01*
X132395195Y-101735433D01*
X132395195Y-101735432D01*
X132395196Y-101735428D01*
X132415610Y-101450000D01*
X132395196Y-101164572D01*
X132385513Y-101120062D01*
X132334371Y-100884962D01*
X132334370Y-100884960D01*
X132334369Y-100884954D01*
X132234367Y-100616839D01*
X132223632Y-100597180D01*
X132097229Y-100365690D01*
X132097224Y-100365682D01*
X131925745Y-100136612D01*
X131925729Y-100136594D01*
X131723405Y-99934270D01*
X131723387Y-99934254D01*
X131494317Y-99762775D01*
X131494309Y-99762770D01*
X131243166Y-99625635D01*
X131243167Y-99625635D01*
X131135915Y-99585632D01*
X130975046Y-99525631D01*
X130975043Y-99525630D01*
X130975037Y-99525628D01*
X130695433Y-99464804D01*
X130481450Y-99449500D01*
X130481448Y-99449500D01*
X130338552Y-99449500D01*
X130338549Y-99449500D01*
X130124566Y-99464804D01*
X129844962Y-99525628D01*
X129576833Y-99625635D01*
X129325690Y-99762770D01*
X129325682Y-99762775D01*
X129096612Y-99934254D01*
X129096594Y-99934270D01*
X128894270Y-100136594D01*
X128894254Y-100136612D01*
X128722775Y-100365682D01*
X128722770Y-100365690D01*
X128585635Y-100616833D01*
X128485628Y-100884962D01*
X128424804Y-101164566D01*
X128404390Y-101449998D01*
X128404390Y-101450001D01*
X122359496Y-101450001D01*
X122842095Y-101224961D01*
X122850024Y-101221906D01*
X122856142Y-101220020D01*
X122961477Y-101169293D01*
X122967997Y-101166253D01*
X122968020Y-101166238D01*
X122968779Y-101165835D01*
X122971026Y-101164693D01*
X123085772Y-101109436D01*
X123296355Y-100965863D01*
X123483188Y-100792508D01*
X123642097Y-100593243D01*
X123769531Y-100372519D01*
X123862646Y-100135268D01*
X123919360Y-99886788D01*
X123938406Y-99632631D01*
X123930387Y-99525628D01*
X123919360Y-99378476D01*
X123907599Y-99326949D01*
X123862646Y-99129994D01*
X123769531Y-98892743D01*
X123642097Y-98672019D01*
X123483188Y-98472754D01*
X123296355Y-98299399D01*
X123085772Y-98155826D01*
X123085768Y-98155824D01*
X123085765Y-98155822D01*
X123085764Y-98155821D01*
X122856144Y-98045243D01*
X122856146Y-98045243D01*
X122612604Y-97970120D01*
X122612600Y-97970119D01*
X122612596Y-97970118D01*
X122475064Y-97949388D01*
X122360578Y-97932131D01*
X122360573Y-97932131D01*
X122105703Y-97932131D01*
X122105697Y-97932131D01*
X121948747Y-97955788D01*
X121853680Y-97970118D01*
X121853676Y-97970119D01*
X121853677Y-97970119D01*
X121853671Y-97970120D01*
X121610133Y-98045242D01*
X121504951Y-98095894D01*
X119394658Y-99079941D01*
X119386730Y-99082996D01*
X119380615Y-99084883D01*
X119275394Y-99135555D01*
X119268756Y-99138651D01*
X119267912Y-99139101D01*
X119265658Y-99140244D01*
X119150991Y-99195464D01*
X118940403Y-99339040D01*
X118753573Y-99512393D01*
X118753571Y-99512395D01*
X118594662Y-99711660D01*
X118467229Y-99932381D01*
X118374113Y-100169634D01*
X118374111Y-100169641D01*
X118317398Y-100418117D01*
X118298353Y-100672267D01*
X118298353Y-100672276D01*
X109534350Y-100672276D01*
X124464396Y-93710282D01*
X124464395Y-93710282D01*
X127468949Y-92311040D01*
X127470332Y-92310434D01*
X127470468Y-92310297D01*
X127470532Y-92310124D01*
X127470500Y-92308638D01*
X127470500Y-91842004D01*
X127490185Y-91774965D01*
X127542989Y-91729210D01*
X127612147Y-91719266D01*
X127672534Y-91745637D01*
X127708751Y-91774965D01*
X127808162Y-91855467D01*
X127920808Y-91912862D01*
X127981504Y-91943788D01*
X127981506Y-91943788D01*
X127981507Y-91943789D01*
X127981506Y-91943789D01*
X128011308Y-91951773D01*
X128022591Y-91954797D01*
X128082252Y-91991160D01*
X128112783Y-92054007D01*
X128114500Y-92074572D01*
X128114500Y-94197255D01*
X128112775Y-94212872D01*
X128113061Y-94212899D01*
X128112326Y-94220666D01*
X128114469Y-94288846D01*
X128114500Y-94290793D01*
X128114500Y-94319343D01*
X128114501Y-94319360D01*
X128115368Y-94326231D01*
X128115826Y-94332050D01*
X128117290Y-94378624D01*
X128117291Y-94378627D01*
X128122880Y-94397867D01*
X128126824Y-94416911D01*
X128129336Y-94436791D01*
X128146490Y-94480119D01*
X128148382Y-94485647D01*
X128161381Y-94530388D01*
X128171580Y-94547634D01*
X128180138Y-94565103D01*
X128187514Y-94583732D01*
X128214898Y-94621423D01*
X128218106Y-94626307D01*
X128241827Y-94666416D01*
X128241833Y-94666424D01*
X128255990Y-94680580D01*
X128268628Y-94695376D01*
X128280405Y-94711586D01*
X128280406Y-94711587D01*
X128316309Y-94741288D01*
X128320620Y-94745210D01*
X129133532Y-95558122D01*
X129919194Y-96343784D01*
X129929019Y-96356048D01*
X129929240Y-96355866D01*
X129934210Y-96361874D01*
X129983949Y-96408582D01*
X129985316Y-96409906D01*
X130005528Y-96430118D01*
X130005529Y-96430119D01*
X130011004Y-96434366D01*
X130015446Y-96438160D01*
X130049415Y-96470060D01*
X130049417Y-96470061D01*
X130049418Y-96470062D01*
X130066976Y-96479714D01*
X130083235Y-96490395D01*
X130085890Y-96492454D01*
X130099064Y-96502673D01*
X130141823Y-96521176D01*
X130147073Y-96523748D01*
X130187904Y-96546195D01*
X130187908Y-96546197D01*
X130187912Y-96546198D01*
X130207311Y-96551179D01*
X130225722Y-96557483D01*
X130244097Y-96565435D01*
X130244100Y-96565435D01*
X130244105Y-96565438D01*
X130290149Y-96572729D01*
X130295832Y-96573906D01*
X130340981Y-96585500D01*
X130361016Y-96585500D01*
X130380413Y-96587026D01*
X130400196Y-96590160D01*
X130446583Y-96585775D01*
X130452422Y-96585500D01*
X132371296Y-96585500D01*
X132438335Y-96605185D01*
X132484090Y-96657989D01*
X132494034Y-96727147D01*
X132491973Y-96738014D01*
X132490908Y-96742518D01*
X132484501Y-96802116D01*
X132484501Y-96802123D01*
X132484500Y-96802135D01*
X132484500Y-98497870D01*
X132484501Y-98497876D01*
X132490908Y-98557483D01*
X132541202Y-98692328D01*
X132541206Y-98692335D01*
X132627452Y-98807544D01*
X132627455Y-98807547D01*
X132742664Y-98893793D01*
X132742671Y-98893797D01*
X132877517Y-98944091D01*
X132877516Y-98944091D01*
X132884444Y-98944835D01*
X132937127Y-98950500D01*
X134632872Y-98950499D01*
X134692483Y-98944091D01*
X134827331Y-98893796D01*
X134942546Y-98807546D01*
X135028796Y-98692331D01*
X135079091Y-98557483D01*
X135085500Y-98497873D01*
X135085499Y-96949450D01*
X135105184Y-96882412D01*
X135157987Y-96836657D01*
X135227146Y-96826713D01*
X135290702Y-96855738D01*
X135297177Y-96861767D01*
X136012177Y-97576768D01*
X136611371Y-98175962D01*
X136644856Y-98237285D01*
X136639872Y-98306977D01*
X136639118Y-98308945D01*
X136600493Y-98407362D01*
X136600489Y-98407374D01*
X136543777Y-98655845D01*
X136524732Y-98909995D01*
X136524732Y-98910004D01*
X136543777Y-99164154D01*
X136592694Y-99378474D01*
X136600492Y-99412637D01*
X136693607Y-99649888D01*
X136821041Y-99870612D01*
X136886265Y-99952400D01*
X136962653Y-100048187D01*
X136989061Y-100112874D01*
X136976306Y-100181569D01*
X136928435Y-100232463D01*
X136865706Y-100249500D01*
X136534497Y-100249500D01*
X136489601Y-100253660D01*
X136368464Y-100264884D01*
X136368462Y-100264885D01*
X136154476Y-100325769D01*
X136154461Y-100325775D01*
X135955316Y-100424938D01*
X135955308Y-100424943D01*
X135777761Y-100559020D01*
X135627876Y-100723437D01*
X135627874Y-100723439D01*
X135510754Y-100912595D01*
X135510753Y-100912599D01*
X135430382Y-101120060D01*
X135389500Y-101338757D01*
X135389500Y-101561243D01*
X135430382Y-101779940D01*
X135503346Y-101968282D01*
X135510752Y-101987398D01*
X135510754Y-101987404D01*
X135627874Y-102176560D01*
X135627876Y-102176562D01*
X135777761Y-102340979D01*
X135955308Y-102475056D01*
X135955316Y-102475061D01*
X136154461Y-102574224D01*
X136154465Y-102574225D01*
X136154472Y-102574229D01*
X136368464Y-102635115D01*
X136534497Y-102650500D01*
X136534501Y-102650500D01*
X136945499Y-102650500D01*
X136945503Y-102650500D01*
X137111536Y-102635115D01*
X137325528Y-102574229D01*
X137524689Y-102475058D01*
X137702236Y-102340981D01*
X137707885Y-102334785D01*
X137776371Y-102259659D01*
X137852124Y-102176562D01*
X137969247Y-101987401D01*
X138049618Y-101779940D01*
X138090500Y-101561243D01*
X138090500Y-101338757D01*
X138049618Y-101120060D01*
X137969247Y-100912599D01*
X137944197Y-100872142D01*
X137890286Y-100785072D01*
X137871731Y-100717712D01*
X137892539Y-100651012D01*
X137946104Y-100606151D01*
X138014194Y-100597180D01*
X138102565Y-100610500D01*
X138357435Y-100610500D01*
X138609458Y-100572513D01*
X138853004Y-100497389D01*
X139082634Y-100386805D01*
X139245351Y-100275866D01*
X139311828Y-100254366D01*
X139379378Y-100272220D01*
X139426553Y-100323760D01*
X139438373Y-100392622D01*
X139432669Y-100418033D01*
X139333785Y-100710521D01*
X139265319Y-101035789D01*
X139265319Y-101035794D01*
X139235805Y-101366853D01*
X139235805Y-101366862D01*
X139235805Y-101366866D01*
X139243387Y-101622593D01*
X139245655Y-101699112D01*
X139257721Y-101779937D01*
X139292818Y-102015046D01*
X139294731Y-102027857D01*
X139294732Y-102027862D01*
X139382345Y-102348494D01*
X139382346Y-102348498D01*
X139507264Y-102656511D01*
X139507269Y-102656522D01*
X139566194Y-102763405D01*
X139667742Y-102947603D01*
X139704995Y-102999521D01*
X139861520Y-103217667D01*
X139861529Y-103217677D01*
X140074520Y-103450500D01*
X140085877Y-103462914D01*
X140337666Y-103679906D01*
X140337671Y-103679909D01*
X140337677Y-103679914D01*
X140498625Y-103788320D01*
X140613353Y-103865595D01*
X140909067Y-104017374D01*
X141220656Y-104133113D01*
X141543747Y-104211187D01*
X141873805Y-104250500D01*
X141873812Y-104250500D01*
X142123025Y-104250500D01*
X142185218Y-104246809D01*
X142371807Y-104235736D01*
X142698956Y-104176939D01*
X143016854Y-104079862D01*
X143321040Y-103945868D01*
X143607243Y-103776837D01*
X143871445Y-103575142D01*
X144109937Y-103343616D01*
X144319373Y-103085506D01*
X144496810Y-102804438D01*
X144639760Y-102504357D01*
X144746215Y-102189475D01*
X144814680Y-101864212D01*
X144841689Y-101561243D01*
X145989500Y-101561243D01*
X146030382Y-101779940D01*
X146103346Y-101968282D01*
X146110752Y-101987398D01*
X146110754Y-101987404D01*
X146227874Y-102176560D01*
X146227876Y-102176562D01*
X146377761Y-102340979D01*
X146555308Y-102475056D01*
X146555316Y-102475061D01*
X146754461Y-102574224D01*
X146754465Y-102574225D01*
X146754472Y-102574229D01*
X146968464Y-102635115D01*
X147134497Y-102650500D01*
X147134501Y-102650500D01*
X147545499Y-102650500D01*
X147545503Y-102650500D01*
X147711536Y-102635115D01*
X147925528Y-102574229D01*
X148124689Y-102475058D01*
X148302236Y-102340981D01*
X148307885Y-102334785D01*
X148376371Y-102259659D01*
X148452124Y-102176562D01*
X148569247Y-101987401D01*
X148649618Y-101779940D01*
X148690500Y-101561243D01*
X154439500Y-101561243D01*
X154480382Y-101779940D01*
X154553346Y-101968282D01*
X154560752Y-101987398D01*
X154560754Y-101987404D01*
X154677874Y-102176560D01*
X154677876Y-102176562D01*
X154827761Y-102340979D01*
X155005308Y-102475056D01*
X155005316Y-102475061D01*
X155204461Y-102574224D01*
X155204465Y-102574225D01*
X155204472Y-102574229D01*
X155418464Y-102635115D01*
X155584497Y-102650500D01*
X155584501Y-102650500D01*
X155995499Y-102650500D01*
X155995503Y-102650500D01*
X156161536Y-102635115D01*
X156375528Y-102574229D01*
X156574689Y-102475058D01*
X156752236Y-102340981D01*
X156757885Y-102334785D01*
X156826371Y-102259659D01*
X156902124Y-102176562D01*
X157019247Y-101987401D01*
X157099618Y-101779940D01*
X157140500Y-101561243D01*
X157140500Y-101338757D01*
X157099618Y-101120060D01*
X157019247Y-100912599D01*
X156994197Y-100872142D01*
X156940286Y-100785072D01*
X156921731Y-100717712D01*
X156942539Y-100651012D01*
X156996104Y-100606151D01*
X157064194Y-100597180D01*
X157152565Y-100610500D01*
X157407435Y-100610500D01*
X157659458Y-100572513D01*
X157903004Y-100497389D01*
X158132634Y-100386805D01*
X158295351Y-100275866D01*
X158361828Y-100254366D01*
X158429378Y-100272220D01*
X158476553Y-100323760D01*
X158488373Y-100392622D01*
X158482669Y-100418033D01*
X158383785Y-100710521D01*
X158315319Y-101035789D01*
X158315319Y-101035794D01*
X158285805Y-101366853D01*
X158285805Y-101366862D01*
X158285805Y-101366866D01*
X158293387Y-101622593D01*
X158295655Y-101699112D01*
X158307721Y-101779937D01*
X158342818Y-102015046D01*
X158344731Y-102027857D01*
X158344732Y-102027862D01*
X158432345Y-102348494D01*
X158432346Y-102348498D01*
X158557264Y-102656511D01*
X158557269Y-102656522D01*
X158616194Y-102763405D01*
X158717742Y-102947603D01*
X158754995Y-102999521D01*
X158911520Y-103217667D01*
X158911529Y-103217677D01*
X159124520Y-103450500D01*
X159135877Y-103462914D01*
X159387666Y-103679906D01*
X159387671Y-103679909D01*
X159387677Y-103679914D01*
X159548625Y-103788320D01*
X159663353Y-103865595D01*
X159959067Y-104017374D01*
X160270656Y-104133113D01*
X160593747Y-104211187D01*
X160923805Y-104250500D01*
X160923812Y-104250500D01*
X161173025Y-104250500D01*
X161235218Y-104246809D01*
X161421807Y-104235736D01*
X161748956Y-104176939D01*
X162066854Y-104079862D01*
X162371040Y-103945868D01*
X162657243Y-103776837D01*
X162921445Y-103575142D01*
X163159937Y-103343616D01*
X163369373Y-103085506D01*
X163546810Y-102804438D01*
X163689760Y-102504357D01*
X163796215Y-102189475D01*
X163864680Y-101864212D01*
X163891689Y-101561243D01*
X165039500Y-101561243D01*
X165080382Y-101779940D01*
X165153346Y-101968282D01*
X165160752Y-101987398D01*
X165160754Y-101987404D01*
X165277874Y-102176560D01*
X165277876Y-102176562D01*
X165427761Y-102340979D01*
X165605308Y-102475056D01*
X165605316Y-102475061D01*
X165804461Y-102574224D01*
X165804465Y-102574225D01*
X165804472Y-102574229D01*
X166018464Y-102635115D01*
X166184497Y-102650500D01*
X166184501Y-102650500D01*
X166595499Y-102650500D01*
X166595503Y-102650500D01*
X166761536Y-102635115D01*
X166975528Y-102574229D01*
X167174689Y-102475058D01*
X167352236Y-102340981D01*
X167357885Y-102334785D01*
X167426371Y-102259659D01*
X167502124Y-102176562D01*
X167619247Y-101987401D01*
X167699618Y-101779940D01*
X167740500Y-101561243D01*
X167740500Y-101450001D01*
X172109390Y-101450001D01*
X172129804Y-101735433D01*
X172190628Y-102015037D01*
X172190630Y-102015043D01*
X172190631Y-102015046D01*
X172281867Y-102259658D01*
X172290635Y-102283166D01*
X172427770Y-102534309D01*
X172427775Y-102534317D01*
X172599254Y-102763387D01*
X172599270Y-102763405D01*
X172801594Y-102965729D01*
X172801612Y-102965745D01*
X173030682Y-103137224D01*
X173030690Y-103137229D01*
X173281833Y-103274364D01*
X173281832Y-103274364D01*
X173281836Y-103274365D01*
X173281839Y-103274367D01*
X173549954Y-103374369D01*
X173549960Y-103374370D01*
X173549962Y-103374371D01*
X173829566Y-103435195D01*
X173829568Y-103435195D01*
X173829572Y-103435196D01*
X174043552Y-103450500D01*
X174186448Y-103450500D01*
X174400428Y-103435196D01*
X174680046Y-103374369D01*
X174948161Y-103274367D01*
X175199315Y-103137226D01*
X175428395Y-102965739D01*
X175630739Y-102763395D01*
X175802226Y-102534315D01*
X175939367Y-102283161D01*
X176039369Y-102015046D01*
X176074178Y-101855030D01*
X176100195Y-101735433D01*
X176100195Y-101735432D01*
X176100196Y-101735428D01*
X176120610Y-101450000D01*
X176100196Y-101164572D01*
X176090513Y-101120062D01*
X176039371Y-100884962D01*
X176039370Y-100884960D01*
X176039369Y-100884954D01*
X175939367Y-100616839D01*
X175928632Y-100597180D01*
X175802229Y-100365690D01*
X175802224Y-100365682D01*
X175630745Y-100136612D01*
X175630729Y-100136594D01*
X175428405Y-99934270D01*
X175428387Y-99934254D01*
X175199317Y-99762775D01*
X175199309Y-99762770D01*
X174948166Y-99625635D01*
X174948167Y-99625635D01*
X174840914Y-99585632D01*
X174680046Y-99525631D01*
X174680043Y-99525630D01*
X174680037Y-99525628D01*
X174400433Y-99464804D01*
X174186450Y-99449500D01*
X174186448Y-99449500D01*
X174043552Y-99449500D01*
X174043549Y-99449500D01*
X173829566Y-99464804D01*
X173549962Y-99525628D01*
X173281833Y-99625635D01*
X173030690Y-99762770D01*
X173030682Y-99762775D01*
X172801612Y-99934254D01*
X172801594Y-99934270D01*
X172599270Y-100136594D01*
X172599254Y-100136612D01*
X172427775Y-100365682D01*
X172427770Y-100365690D01*
X172290635Y-100616833D01*
X172190628Y-100884962D01*
X172129804Y-101164566D01*
X172109390Y-101449998D01*
X172109390Y-101450001D01*
X167740500Y-101450001D01*
X167740500Y-101338757D01*
X167699618Y-101120060D01*
X167619247Y-100912599D01*
X167594197Y-100872142D01*
X167502125Y-100723439D01*
X167502123Y-100723437D01*
X167352238Y-100559020D01*
X167174691Y-100424943D01*
X167174683Y-100424938D01*
X166975538Y-100325775D01*
X166975523Y-100325769D01*
X166761537Y-100264885D01*
X166761535Y-100264884D01*
X166643653Y-100253961D01*
X166595503Y-100249500D01*
X166184497Y-100249500D01*
X166139601Y-100253660D01*
X166018464Y-100264884D01*
X166018462Y-100264885D01*
X165804476Y-100325769D01*
X165804461Y-100325775D01*
X165605316Y-100424938D01*
X165605308Y-100424943D01*
X165427761Y-100559020D01*
X165277876Y-100723437D01*
X165277874Y-100723439D01*
X165160754Y-100912595D01*
X165160753Y-100912599D01*
X165080382Y-101120060D01*
X165039500Y-101338757D01*
X165039500Y-101561243D01*
X163891689Y-101561243D01*
X163894195Y-101533134D01*
X163884345Y-101200890D01*
X163835269Y-100872142D01*
X163747655Y-100551506D01*
X163622733Y-100243483D01*
X163462258Y-99952397D01*
X163268481Y-99682335D01*
X163268479Y-99682332D01*
X163268470Y-99682322D01*
X163055480Y-99449500D01*
X163044123Y-99437086D01*
X163032852Y-99427373D01*
X162792336Y-99220096D01*
X162792334Y-99220094D01*
X162792330Y-99220091D01*
X162792322Y-99220085D01*
X162516653Y-99034409D01*
X162516652Y-99034408D01*
X162516649Y-99034406D01*
X162516647Y-99034405D01*
X162220933Y-98882626D01*
X162220928Y-98882624D01*
X162220926Y-98882623D01*
X161909348Y-98766888D01*
X161586254Y-98688813D01*
X161586249Y-98688812D01*
X161446687Y-98672189D01*
X161256195Y-98649500D01*
X161006977Y-98649500D01*
X161006975Y-98649500D01*
X160758198Y-98664263D01*
X160758191Y-98664264D01*
X160431043Y-98723061D01*
X160113142Y-98820139D01*
X159808960Y-98954131D01*
X159808955Y-98954134D01*
X159522765Y-99123157D01*
X159522748Y-99123169D01*
X159258553Y-99324859D01*
X159258544Y-99324867D01*
X159136329Y-99443513D01*
X159074517Y-99476086D01*
X159004907Y-99470069D01*
X158949600Y-99427373D01*
X158926155Y-99361554D01*
X158929066Y-99326949D01*
X158953454Y-99220096D01*
X158966222Y-99164157D01*
X158982233Y-98950498D01*
X158985268Y-98910004D01*
X158985268Y-98909995D01*
X158966222Y-98655845D01*
X158943771Y-98557482D01*
X158909508Y-98407363D01*
X158816393Y-98170112D01*
X158688959Y-97949388D01*
X158530050Y-97750123D01*
X158343217Y-97576768D01*
X158132634Y-97433195D01*
X158132630Y-97433193D01*
X158132627Y-97433191D01*
X158132626Y-97433190D01*
X157903006Y-97322612D01*
X157903008Y-97322612D01*
X157659466Y-97247489D01*
X157659462Y-97247488D01*
X157659458Y-97247487D01*
X157538231Y-97229214D01*
X157407440Y-97209500D01*
X157407435Y-97209500D01*
X157152565Y-97209500D01*
X157152559Y-97209500D01*
X156995609Y-97233157D01*
X156900542Y-97247487D01*
X156900538Y-97247488D01*
X156900539Y-97247488D01*
X156900533Y-97247489D01*
X156656992Y-97322612D01*
X156427373Y-97433190D01*
X156427372Y-97433191D01*
X156216782Y-97576768D01*
X156029952Y-97750121D01*
X156029950Y-97750123D01*
X155871041Y-97949388D01*
X155743608Y-98170109D01*
X155650492Y-98407362D01*
X155650490Y-98407369D01*
X155593777Y-98655845D01*
X155574732Y-98909995D01*
X155574732Y-98910004D01*
X155593777Y-99164154D01*
X155642694Y-99378474D01*
X155650492Y-99412637D01*
X155743607Y-99649888D01*
X155871041Y-99870612D01*
X155936265Y-99952400D01*
X156012653Y-100048187D01*
X156039061Y-100112874D01*
X156026306Y-100181569D01*
X155978435Y-100232463D01*
X155915706Y-100249500D01*
X155584497Y-100249500D01*
X155539601Y-100253660D01*
X155418464Y-100264884D01*
X155418462Y-100264885D01*
X155204476Y-100325769D01*
X155204461Y-100325775D01*
X155005316Y-100424938D01*
X155005308Y-100424943D01*
X154827761Y-100559020D01*
X154677876Y-100723437D01*
X154677874Y-100723439D01*
X154560754Y-100912595D01*
X154560753Y-100912599D01*
X154480382Y-101120060D01*
X154439500Y-101338757D01*
X154439500Y-101561243D01*
X148690500Y-101561243D01*
X148690500Y-101338757D01*
X148649618Y-101120060D01*
X148569247Y-100912599D01*
X148544197Y-100872142D01*
X148452125Y-100723439D01*
X148452123Y-100723437D01*
X148302238Y-100559020D01*
X148124691Y-100424943D01*
X148124683Y-100424938D01*
X147925538Y-100325775D01*
X147925523Y-100325769D01*
X147711537Y-100264885D01*
X147711535Y-100264884D01*
X147593653Y-100253961D01*
X147545503Y-100249500D01*
X147134497Y-100249500D01*
X147089601Y-100253660D01*
X146968464Y-100264884D01*
X146968462Y-100264885D01*
X146754476Y-100325769D01*
X146754461Y-100325775D01*
X146555316Y-100424938D01*
X146555308Y-100424943D01*
X146377761Y-100559020D01*
X146227876Y-100723437D01*
X146227874Y-100723439D01*
X146110754Y-100912595D01*
X146110753Y-100912599D01*
X146030382Y-101120060D01*
X145989500Y-101338757D01*
X145989500Y-101561243D01*
X144841689Y-101561243D01*
X144844195Y-101533134D01*
X144834345Y-101200890D01*
X144785269Y-100872142D01*
X144697655Y-100551506D01*
X144572733Y-100243483D01*
X144412258Y-99952397D01*
X144218481Y-99682335D01*
X144218479Y-99682332D01*
X144218470Y-99682322D01*
X144005480Y-99449500D01*
X143994123Y-99437086D01*
X143982852Y-99427373D01*
X143742336Y-99220096D01*
X143742334Y-99220094D01*
X143742330Y-99220091D01*
X143742322Y-99220085D01*
X143466653Y-99034409D01*
X143466652Y-99034408D01*
X143466649Y-99034406D01*
X143466647Y-99034405D01*
X143170933Y-98882626D01*
X143170928Y-98882624D01*
X143170926Y-98882623D01*
X142859348Y-98766888D01*
X142536254Y-98688813D01*
X142536249Y-98688812D01*
X142396687Y-98672189D01*
X142206195Y-98649500D01*
X141956977Y-98649500D01*
X141956975Y-98649500D01*
X141708198Y-98664263D01*
X141708191Y-98664264D01*
X141381043Y-98723061D01*
X141063142Y-98820139D01*
X140758960Y-98954131D01*
X140758955Y-98954134D01*
X140472765Y-99123157D01*
X140472748Y-99123169D01*
X140208553Y-99324859D01*
X140208544Y-99324867D01*
X140086329Y-99443513D01*
X140024517Y-99476086D01*
X139954907Y-99470069D01*
X139899600Y-99427373D01*
X139876155Y-99361554D01*
X139879066Y-99326949D01*
X139903454Y-99220096D01*
X139916222Y-99164157D01*
X139932233Y-98950498D01*
X139935268Y-98910004D01*
X139935268Y-98909995D01*
X139916222Y-98655845D01*
X139893771Y-98557482D01*
X139880165Y-98497870D01*
X148994500Y-98497870D01*
X148994501Y-98497876D01*
X149000908Y-98557483D01*
X149051202Y-98692328D01*
X149051206Y-98692335D01*
X149137452Y-98807544D01*
X149137455Y-98807547D01*
X149252664Y-98893793D01*
X149252671Y-98893797D01*
X149387517Y-98944091D01*
X149387516Y-98944091D01*
X149394444Y-98944835D01*
X149447127Y-98950500D01*
X151142872Y-98950499D01*
X151202483Y-98944091D01*
X151337331Y-98893796D01*
X151452546Y-98807546D01*
X151465733Y-98789929D01*
X151521666Y-98748058D01*
X151591358Y-98743074D01*
X151652681Y-98776558D01*
X151664267Y-98789930D01*
X151677454Y-98807546D01*
X151677455Y-98807547D01*
X151792664Y-98893793D01*
X151792671Y-98893797D01*
X151927517Y-98944091D01*
X151927516Y-98944091D01*
X151934444Y-98944835D01*
X151987127Y-98950500D01*
X153682872Y-98950499D01*
X153742483Y-98944091D01*
X153877331Y-98893796D01*
X153992546Y-98807546D01*
X154078796Y-98692331D01*
X154129091Y-98557483D01*
X154135500Y-98497873D01*
X154135499Y-96802128D01*
X154129091Y-96742517D01*
X154127411Y-96738014D01*
X154078797Y-96607671D01*
X154078793Y-96607664D01*
X153992547Y-96492455D01*
X153992544Y-96492452D01*
X153877335Y-96406206D01*
X153877328Y-96406202D01*
X153742482Y-96355908D01*
X153742483Y-96355908D01*
X153687562Y-96350004D01*
X161924732Y-96350004D01*
X161943777Y-96604154D01*
X161996844Y-96836657D01*
X162000492Y-96852637D01*
X162093607Y-97089888D01*
X162221041Y-97310612D01*
X162379950Y-97509877D01*
X162566783Y-97683232D01*
X162777366Y-97826805D01*
X162777371Y-97826807D01*
X162777372Y-97826808D01*
X162777373Y-97826809D01*
X162899328Y-97885538D01*
X163006992Y-97937387D01*
X163006993Y-97937387D01*
X163006996Y-97937389D01*
X163250542Y-98012513D01*
X163502565Y-98050500D01*
X163808789Y-98050500D01*
X163808798Y-98050499D01*
X165960361Y-98050499D01*
X165960389Y-98050500D01*
X165962565Y-98050500D01*
X166217435Y-98050500D01*
X166469458Y-98012513D01*
X166713004Y-97937389D01*
X166942634Y-97826805D01*
X167153217Y-97683232D01*
X167340050Y-97509877D01*
X167498959Y-97310612D01*
X167626393Y-97089888D01*
X167719508Y-96852637D01*
X167776222Y-96604157D01*
X167786271Y-96470060D01*
X167795268Y-96350004D01*
X167795268Y-96349995D01*
X167776222Y-96095845D01*
X167719509Y-95847369D01*
X167719508Y-95847363D01*
X167626393Y-95610112D01*
X167498959Y-95389388D01*
X167340050Y-95190123D01*
X167153217Y-95016768D01*
X166942634Y-94873195D01*
X166942630Y-94873193D01*
X166942627Y-94873191D01*
X166942626Y-94873190D01*
X166713006Y-94762612D01*
X166713008Y-94762612D01*
X166469466Y-94687489D01*
X166469462Y-94687488D01*
X166469458Y-94687487D01*
X166348231Y-94669214D01*
X166217440Y-94649500D01*
X166217435Y-94649500D01*
X165962565Y-94649500D01*
X165962564Y-94649500D01*
X163757441Y-94649500D01*
X163757435Y-94649500D01*
X163502565Y-94649500D01*
X163502559Y-94649500D01*
X163345609Y-94673157D01*
X163250542Y-94687487D01*
X163250538Y-94687488D01*
X163250539Y-94687488D01*
X163250533Y-94687489D01*
X163006992Y-94762612D01*
X162777373Y-94873190D01*
X162777372Y-94873191D01*
X162566782Y-95016768D01*
X162379952Y-95190121D01*
X162379950Y-95190123D01*
X162221041Y-95389388D01*
X162093608Y-95610109D01*
X162000492Y-95847362D01*
X162000490Y-95847369D01*
X161943777Y-96095845D01*
X161924732Y-96349995D01*
X161924732Y-96350004D01*
X153687562Y-96350004D01*
X153682883Y-96349501D01*
X153682881Y-96349500D01*
X153682873Y-96349500D01*
X153682864Y-96349500D01*
X151987129Y-96349500D01*
X151987123Y-96349501D01*
X151927516Y-96355908D01*
X151792671Y-96406202D01*
X151792664Y-96406206D01*
X151677455Y-96492452D01*
X151664263Y-96510074D01*
X151608328Y-96551943D01*
X151538636Y-96556924D01*
X151477314Y-96523437D01*
X151465736Y-96510074D01*
X151452546Y-96492454D01*
X151452544Y-96492453D01*
X151452544Y-96492452D01*
X151337335Y-96406206D01*
X151337328Y-96406202D01*
X151202482Y-96355908D01*
X151202483Y-96355908D01*
X151142883Y-96349501D01*
X151142881Y-96349500D01*
X151142873Y-96349500D01*
X151142864Y-96349500D01*
X149447129Y-96349500D01*
X149447123Y-96349501D01*
X149387516Y-96355908D01*
X149252671Y-96406202D01*
X149252664Y-96406206D01*
X149137455Y-96492452D01*
X149137452Y-96492455D01*
X149051206Y-96607664D01*
X149051202Y-96607671D01*
X149000908Y-96742517D01*
X148994501Y-96802116D01*
X148994501Y-96802123D01*
X148994500Y-96802135D01*
X148994500Y-98497870D01*
X139880165Y-98497870D01*
X139859508Y-98407363D01*
X139766393Y-98170112D01*
X139638959Y-97949388D01*
X139480050Y-97750123D01*
X139293217Y-97576768D01*
X139082634Y-97433195D01*
X139082630Y-97433193D01*
X139082627Y-97433191D01*
X139082626Y-97433190D01*
X138853006Y-97322612D01*
X138853008Y-97322612D01*
X138609466Y-97247489D01*
X138609462Y-97247488D01*
X138609458Y-97247487D01*
X138488231Y-97229214D01*
X138357440Y-97209500D01*
X138357435Y-97209500D01*
X138102565Y-97209500D01*
X138102559Y-97209500D01*
X137945609Y-97233157D01*
X137850542Y-97247487D01*
X137850538Y-97247488D01*
X137850539Y-97247488D01*
X137850529Y-97247490D01*
X137617409Y-97319398D01*
X137547546Y-97320348D01*
X137493179Y-97288588D01*
X136554595Y-96350004D01*
X142874732Y-96350004D01*
X142893777Y-96604154D01*
X142946844Y-96836657D01*
X142950492Y-96852637D01*
X143043607Y-97089888D01*
X143171041Y-97310612D01*
X143329950Y-97509877D01*
X143516783Y-97683232D01*
X143727366Y-97826805D01*
X143727371Y-97826807D01*
X143727372Y-97826808D01*
X143727373Y-97826809D01*
X143849328Y-97885538D01*
X143956992Y-97937387D01*
X143956993Y-97937387D01*
X143956996Y-97937389D01*
X144200542Y-98012513D01*
X144452565Y-98050500D01*
X144758789Y-98050500D01*
X144758798Y-98050499D01*
X146910361Y-98050499D01*
X146910389Y-98050500D01*
X146912565Y-98050500D01*
X147167435Y-98050500D01*
X147419458Y-98012513D01*
X147663004Y-97937389D01*
X147892634Y-97826805D01*
X148103217Y-97683232D01*
X148290050Y-97509877D01*
X148448959Y-97310612D01*
X148576393Y-97089888D01*
X148669508Y-96852637D01*
X148726222Y-96604157D01*
X148736271Y-96470060D01*
X148745268Y-96350004D01*
X148745268Y-96349995D01*
X148726222Y-96095845D01*
X148669509Y-95847369D01*
X148669508Y-95847363D01*
X148576393Y-95610112D01*
X148448959Y-95389388D01*
X148290050Y-95190123D01*
X148103217Y-95016768D01*
X147892634Y-94873195D01*
X147892630Y-94873193D01*
X147892627Y-94873191D01*
X147892626Y-94873190D01*
X147663006Y-94762612D01*
X147663008Y-94762612D01*
X147419466Y-94687489D01*
X147419462Y-94687488D01*
X147419458Y-94687487D01*
X147298231Y-94669214D01*
X147167440Y-94649500D01*
X147167435Y-94649500D01*
X146912565Y-94649500D01*
X146912564Y-94649500D01*
X144707441Y-94649500D01*
X144707435Y-94649500D01*
X144452565Y-94649500D01*
X144452559Y-94649500D01*
X144295609Y-94673157D01*
X144200542Y-94687487D01*
X144200538Y-94687488D01*
X144200539Y-94687488D01*
X144200533Y-94687489D01*
X143956992Y-94762612D01*
X143727373Y-94873190D01*
X143727372Y-94873191D01*
X143516782Y-95016768D01*
X143329952Y-95190121D01*
X143329950Y-95190123D01*
X143171041Y-95389388D01*
X143043608Y-95610109D01*
X142950492Y-95847362D01*
X142950490Y-95847369D01*
X142893777Y-96095845D01*
X142874732Y-96349995D01*
X142874732Y-96350004D01*
X136554595Y-96350004D01*
X135780803Y-95576212D01*
X135770980Y-95563950D01*
X135770759Y-95564134D01*
X135765786Y-95558122D01*
X135716066Y-95511432D01*
X135714666Y-95510075D01*
X135694476Y-95489884D01*
X135688986Y-95485625D01*
X135684561Y-95481847D01*
X135650582Y-95449938D01*
X135650580Y-95449936D01*
X135650577Y-95449935D01*
X135633029Y-95440288D01*
X135616763Y-95429604D01*
X135600933Y-95417325D01*
X135558168Y-95398818D01*
X135552922Y-95396248D01*
X135512093Y-95373803D01*
X135512092Y-95373802D01*
X135492693Y-95368822D01*
X135474281Y-95362518D01*
X135455898Y-95354562D01*
X135455892Y-95354560D01*
X135409874Y-95347272D01*
X135404152Y-95346087D01*
X135359021Y-95334500D01*
X135359019Y-95334500D01*
X135338984Y-95334500D01*
X135319586Y-95332973D01*
X135312162Y-95331797D01*
X135299805Y-95329840D01*
X135299804Y-95329840D01*
X135253416Y-95334225D01*
X135247578Y-95334500D01*
X130730452Y-95334500D01*
X130663413Y-95314815D01*
X130642771Y-95298181D01*
X130025170Y-94680580D01*
X129401816Y-94057225D01*
X129368333Y-93995905D01*
X129365500Y-93969556D01*
X129365499Y-92074572D01*
X129385185Y-92007532D01*
X129437989Y-91961778D01*
X129457407Y-91954797D01*
X129476821Y-91949595D01*
X129498493Y-91943789D01*
X129498493Y-91943788D01*
X129498496Y-91943788D01*
X129590118Y-91897104D01*
X129671837Y-91855467D01*
X129671838Y-91855465D01*
X129671840Y-91855465D01*
X129823032Y-91733032D01*
X129945465Y-91581840D01*
X129994288Y-91486018D01*
X130042260Y-91435224D01*
X130110081Y-91418428D01*
X130176216Y-91440965D01*
X130206346Y-91471189D01*
X130241505Y-91521401D01*
X130408599Y-91688495D01*
X130490208Y-91745638D01*
X130602165Y-91824032D01*
X130602167Y-91824033D01*
X130602170Y-91824035D01*
X130816337Y-91923903D01*
X130816343Y-91923904D01*
X130816344Y-91923905D01*
X130869038Y-91938024D01*
X131044592Y-91985063D01*
X131232918Y-92001539D01*
X131279999Y-92005659D01*
X131280000Y-92005659D01*
X131280001Y-92005659D01*
X131319234Y-92002226D01*
X131515408Y-91985063D01*
X131743663Y-91923903D01*
X131957830Y-91824035D01*
X132151401Y-91688495D01*
X132318495Y-91521401D01*
X132448426Y-91335840D01*
X132503001Y-91292217D01*
X132572499Y-91285023D01*
X132634854Y-91316546D01*
X132651574Y-91335841D01*
X132781505Y-91521401D01*
X132948599Y-91688495D01*
X133030208Y-91745638D01*
X133142165Y-91824032D01*
X133142167Y-91824033D01*
X133142170Y-91824035D01*
X133356337Y-91923903D01*
X133356343Y-91923904D01*
X133356344Y-91923905D01*
X133409038Y-91938024D01*
X133584592Y-91985063D01*
X133772918Y-92001539D01*
X133819999Y-92005659D01*
X133820000Y-92005659D01*
X133820001Y-92005659D01*
X133859234Y-92002226D01*
X134055408Y-91985063D01*
X134283663Y-91923903D01*
X134497830Y-91824035D01*
X134691401Y-91688495D01*
X134858495Y-91521401D01*
X134988426Y-91335841D01*
X135043002Y-91292217D01*
X135112500Y-91285023D01*
X135174855Y-91316546D01*
G37*
G04 #@! TD.AperFunction*
G04 #@! TA.AperFunction,NonConductor*
G36*
X146112608Y-106483256D02*
G01*
X146102987Y-106443599D01*
X146105787Y-106435509D01*
X146112608Y-106483256D01*
G37*
G04 #@! TD.AperFunction*
M02*
