%TF.GenerationSoftware,KiCad,Pcbnew,7.0.5*%
%TF.CreationDate,2023-08-10T21:37:19+08:00*%
%TF.ProjectId,RT,52542e6b-6963-4616-945f-706362585858,rev?*%
%TF.SameCoordinates,Original*%
%TF.FileFunction,Drillmap*%
%TF.FilePolarity,Positive*%
%FSLAX45Y45*%
G04 Gerber Fmt 4.5, Leading zero omitted, Abs format (unit mm)*
G04 Created by KiCad (PCBNEW 7.0.5) date 2023-08-10 21:37:19*
%MOMM*%
%LPD*%
G01*
G04 APERTURE LIST*
%ADD10C,0.100000*%
%ADD11C,0.200000*%
%ADD12C,0.190000*%
%ADD13C,0.350000*%
%ADD14C,0.510000*%
G04 APERTURE END LIST*
D10*
X13251500Y-11097500D02*
X17711500Y-11097500D01*
X17761500Y-9242500D02*
X17761500Y-11047500D01*
X13763000Y-9192500D02*
X13763000Y-8938000D01*
X13763000Y-9192500D02*
X17711500Y-9192500D01*
X17761500Y-9242500D02*
G75*
G03*
X17711500Y-9192500I-50000J0D01*
G01*
X12446409Y-9370987D02*
X12747000Y-9231000D01*
X12747000Y-8938000D02*
X12747000Y-9231000D01*
X13763000Y-8938000D02*
X12747000Y-8938000D01*
X17711500Y-11097500D02*
G75*
G03*
X17761500Y-11047500I0J50000D01*
G01*
D11*
D12*
X11410352Y-10765777D02*
X11600352Y-10955777D01*
X11600352Y-10765777D02*
X11410352Y-10955777D01*
D11*
X11531906Y-10953215D02*
X11559095Y-10940537D01*
X11559095Y-10940537D02*
G75*
G03*
X11478798Y-10768338I-40149J86099D01*
G01*
X11478798Y-10768338D02*
X11451609Y-10781017D01*
X11451609Y-10781017D02*
G75*
G03*
X11531906Y-10953215I40149J-86099D01*
G01*
D12*
X12371038Y-10317802D02*
X12561038Y-10507802D01*
X12561038Y-10317802D02*
X12371038Y-10507802D01*
D11*
X12492592Y-10505240D02*
X12519782Y-10492562D01*
X12519782Y-10492561D02*
G75*
G03*
X12439484Y-10320363I-40149J86099D01*
G01*
X12439484Y-10320363D02*
X12412295Y-10333042D01*
X12412295Y-10333042D02*
G75*
G03*
X12492592Y-10505240I40149J-86099D01*
G01*
D12*
X13579000Y-10050000D02*
X13769000Y-10240000D01*
X13769000Y-10050000D02*
X13579000Y-10240000D01*
D11*
X13659000Y-10240000D02*
X13689000Y-10240000D01*
X13689000Y-10240000D02*
G75*
G03*
X13689000Y-10050000I0J95000D01*
G01*
X13689000Y-10050000D02*
X13659000Y-10050000D01*
X13659000Y-10050000D02*
G75*
G03*
X13659000Y-10240000I0J-95000D01*
G01*
D12*
X14639000Y-10050000D02*
X14829000Y-10240000D01*
X14829000Y-10050000D02*
X14639000Y-10240000D01*
D11*
X14719000Y-10240000D02*
X14749000Y-10240000D01*
X14749000Y-10240000D02*
G75*
G03*
X14749000Y-10050000I0J95000D01*
G01*
X14749000Y-10050000D02*
X14719000Y-10050000D01*
X14719000Y-10050000D02*
G75*
G03*
X14719000Y-10240000I0J-95000D01*
G01*
D12*
X15484000Y-10050000D02*
X15674000Y-10240000D01*
X15674000Y-10050000D02*
X15484000Y-10240000D01*
D11*
X15564000Y-10240000D02*
X15594000Y-10240000D01*
X15594000Y-10240000D02*
G75*
G03*
X15594000Y-10050000I0J95000D01*
G01*
X15594000Y-10050000D02*
X15564000Y-10050000D01*
X15564000Y-10050000D02*
G75*
G03*
X15564000Y-10240000I0J-95000D01*
G01*
D12*
X16544000Y-10050000D02*
X16734000Y-10240000D01*
X16734000Y-10050000D02*
X16544000Y-10240000D01*
D11*
X16624000Y-10240000D02*
X16654000Y-10240000D01*
X16654000Y-10240000D02*
G75*
G03*
X16654000Y-10050000I0J95000D01*
G01*
X16654000Y-10050000D02*
X16624000Y-10050000D01*
X16624000Y-10050000D02*
G75*
G03*
X16624000Y-10240000I0J-95000D01*
G01*
D13*
X13216000Y-10145000D02*
G75*
G03*
X13216000Y-10145000I-175000J0D01*
G01*
X17586500Y-10145000D02*
G75*
G03*
X17586500Y-10145000I-175000J0D01*
G01*
D14*
X11985695Y-10381789D02*
X11985695Y-10891789D01*
X11730695Y-10636789D02*
X12240695Y-10636789D01*
X14204000Y-9890000D02*
X14204000Y-10400000D01*
X13949000Y-10145000D02*
X14459000Y-10145000D01*
X16109000Y-9890000D02*
X16109000Y-10400000D01*
X15854000Y-10145000D02*
X16364000Y-10145000D01*
D11*
X10991116Y-12203629D02*
X10991116Y-12003629D01*
X10991116Y-12003629D02*
X11038735Y-12003629D01*
X11038735Y-12003629D02*
X11067307Y-12013152D01*
X11067307Y-12013152D02*
X11086354Y-12032200D01*
X11086354Y-12032200D02*
X11095878Y-12051248D01*
X11095878Y-12051248D02*
X11105402Y-12089343D01*
X11105402Y-12089343D02*
X11105402Y-12117914D01*
X11105402Y-12117914D02*
X11095878Y-12156010D01*
X11095878Y-12156010D02*
X11086354Y-12175057D01*
X11086354Y-12175057D02*
X11067307Y-12194105D01*
X11067307Y-12194105D02*
X11038735Y-12203629D01*
X11038735Y-12203629D02*
X10991116Y-12203629D01*
X11191116Y-12203629D02*
X11191116Y-12070295D01*
X11191116Y-12108391D02*
X11200640Y-12089343D01*
X11200640Y-12089343D02*
X11210164Y-12079819D01*
X11210164Y-12079819D02*
X11229211Y-12070295D01*
X11229211Y-12070295D02*
X11248259Y-12070295D01*
X11314926Y-12203629D02*
X11314926Y-12070295D01*
X11314926Y-12003629D02*
X11305402Y-12013152D01*
X11305402Y-12013152D02*
X11314926Y-12022676D01*
X11314926Y-12022676D02*
X11324450Y-12013152D01*
X11324450Y-12013152D02*
X11314926Y-12003629D01*
X11314926Y-12003629D02*
X11314926Y-12022676D01*
X11438735Y-12203629D02*
X11419688Y-12194105D01*
X11419688Y-12194105D02*
X11410164Y-12175057D01*
X11410164Y-12175057D02*
X11410164Y-12003629D01*
X11543497Y-12203629D02*
X11524450Y-12194105D01*
X11524450Y-12194105D02*
X11514926Y-12175057D01*
X11514926Y-12175057D02*
X11514926Y-12003629D01*
X11772069Y-12203629D02*
X11772069Y-12003629D01*
X11772069Y-12003629D02*
X11838735Y-12146486D01*
X11838735Y-12146486D02*
X11905402Y-12003629D01*
X11905402Y-12003629D02*
X11905402Y-12203629D01*
X12086354Y-12203629D02*
X12086354Y-12098867D01*
X12086354Y-12098867D02*
X12076831Y-12079819D01*
X12076831Y-12079819D02*
X12057783Y-12070295D01*
X12057783Y-12070295D02*
X12019688Y-12070295D01*
X12019688Y-12070295D02*
X12000640Y-12079819D01*
X12086354Y-12194105D02*
X12067307Y-12203629D01*
X12067307Y-12203629D02*
X12019688Y-12203629D01*
X12019688Y-12203629D02*
X12000640Y-12194105D01*
X12000640Y-12194105D02*
X11991116Y-12175057D01*
X11991116Y-12175057D02*
X11991116Y-12156010D01*
X11991116Y-12156010D02*
X12000640Y-12136962D01*
X12000640Y-12136962D02*
X12019688Y-12127438D01*
X12019688Y-12127438D02*
X12067307Y-12127438D01*
X12067307Y-12127438D02*
X12086354Y-12117914D01*
X12181592Y-12070295D02*
X12181592Y-12270295D01*
X12181592Y-12079819D02*
X12200640Y-12070295D01*
X12200640Y-12070295D02*
X12238735Y-12070295D01*
X12238735Y-12070295D02*
X12257783Y-12079819D01*
X12257783Y-12079819D02*
X12267307Y-12089343D01*
X12267307Y-12089343D02*
X12276831Y-12108391D01*
X12276831Y-12108391D02*
X12276831Y-12165533D01*
X12276831Y-12165533D02*
X12267307Y-12184581D01*
X12267307Y-12184581D02*
X12257783Y-12194105D01*
X12257783Y-12194105D02*
X12238735Y-12203629D01*
X12238735Y-12203629D02*
X12200640Y-12203629D01*
X12200640Y-12203629D02*
X12181592Y-12194105D01*
X12362545Y-12184581D02*
X12372069Y-12194105D01*
X12372069Y-12194105D02*
X12362545Y-12203629D01*
X12362545Y-12203629D02*
X12353021Y-12194105D01*
X12353021Y-12194105D02*
X12362545Y-12184581D01*
X12362545Y-12184581D02*
X12362545Y-12203629D01*
X12362545Y-12079819D02*
X12372069Y-12089343D01*
X12372069Y-12089343D02*
X12362545Y-12098867D01*
X12362545Y-12098867D02*
X12353021Y-12089343D01*
X12353021Y-12089343D02*
X12362545Y-12079819D01*
X12362545Y-12079819D02*
X12362545Y-12098867D01*
D12*
X10540340Y-12437145D02*
X10730340Y-12627145D01*
X10730340Y-12437145D02*
X10540340Y-12627145D01*
D11*
X11095878Y-12623629D02*
X10981593Y-12623629D01*
X11038735Y-12623629D02*
X11038735Y-12423629D01*
X11038735Y-12423629D02*
X11019688Y-12452200D01*
X11019688Y-12452200D02*
X11000640Y-12471248D01*
X11000640Y-12471248D02*
X10981593Y-12480771D01*
X11181593Y-12604581D02*
X11191116Y-12614105D01*
X11191116Y-12614105D02*
X11181593Y-12623629D01*
X11181593Y-12623629D02*
X11172069Y-12614105D01*
X11172069Y-12614105D02*
X11181593Y-12604581D01*
X11181593Y-12604581D02*
X11181593Y-12623629D01*
X11286354Y-12623629D02*
X11324450Y-12623629D01*
X11324450Y-12623629D02*
X11343497Y-12614105D01*
X11343497Y-12614105D02*
X11353021Y-12604581D01*
X11353021Y-12604581D02*
X11372069Y-12576010D01*
X11372069Y-12576010D02*
X11381592Y-12537914D01*
X11381592Y-12537914D02*
X11381592Y-12461724D01*
X11381592Y-12461724D02*
X11372069Y-12442676D01*
X11372069Y-12442676D02*
X11362545Y-12433152D01*
X11362545Y-12433152D02*
X11343497Y-12423629D01*
X11343497Y-12423629D02*
X11305402Y-12423629D01*
X11305402Y-12423629D02*
X11286354Y-12433152D01*
X11286354Y-12433152D02*
X11276831Y-12442676D01*
X11276831Y-12442676D02*
X11267307Y-12461724D01*
X11267307Y-12461724D02*
X11267307Y-12509343D01*
X11267307Y-12509343D02*
X11276831Y-12528391D01*
X11276831Y-12528391D02*
X11286354Y-12537914D01*
X11286354Y-12537914D02*
X11305402Y-12547438D01*
X11305402Y-12547438D02*
X11343497Y-12547438D01*
X11343497Y-12547438D02*
X11362545Y-12537914D01*
X11362545Y-12537914D02*
X11372069Y-12528391D01*
X11372069Y-12528391D02*
X11381592Y-12509343D01*
X11505402Y-12423629D02*
X11524450Y-12423629D01*
X11524450Y-12423629D02*
X11543497Y-12433152D01*
X11543497Y-12433152D02*
X11553021Y-12442676D01*
X11553021Y-12442676D02*
X11562545Y-12461724D01*
X11562545Y-12461724D02*
X11572069Y-12499819D01*
X11572069Y-12499819D02*
X11572069Y-12547438D01*
X11572069Y-12547438D02*
X11562545Y-12585533D01*
X11562545Y-12585533D02*
X11553021Y-12604581D01*
X11553021Y-12604581D02*
X11543497Y-12614105D01*
X11543497Y-12614105D02*
X11524450Y-12623629D01*
X11524450Y-12623629D02*
X11505402Y-12623629D01*
X11505402Y-12623629D02*
X11486354Y-12614105D01*
X11486354Y-12614105D02*
X11476831Y-12604581D01*
X11476831Y-12604581D02*
X11467307Y-12585533D01*
X11467307Y-12585533D02*
X11457783Y-12547438D01*
X11457783Y-12547438D02*
X11457783Y-12499819D01*
X11457783Y-12499819D02*
X11467307Y-12461724D01*
X11467307Y-12461724D02*
X11476831Y-12442676D01*
X11476831Y-12442676D02*
X11486354Y-12433152D01*
X11486354Y-12433152D02*
X11505402Y-12423629D01*
X11695878Y-12423629D02*
X11714926Y-12423629D01*
X11714926Y-12423629D02*
X11733973Y-12433152D01*
X11733973Y-12433152D02*
X11743497Y-12442676D01*
X11743497Y-12442676D02*
X11753021Y-12461724D01*
X11753021Y-12461724D02*
X11762545Y-12499819D01*
X11762545Y-12499819D02*
X11762545Y-12547438D01*
X11762545Y-12547438D02*
X11753021Y-12585533D01*
X11753021Y-12585533D02*
X11743497Y-12604581D01*
X11743497Y-12604581D02*
X11733973Y-12614105D01*
X11733973Y-12614105D02*
X11714926Y-12623629D01*
X11714926Y-12623629D02*
X11695878Y-12623629D01*
X11695878Y-12623629D02*
X11676831Y-12614105D01*
X11676831Y-12614105D02*
X11667307Y-12604581D01*
X11667307Y-12604581D02*
X11657783Y-12585533D01*
X11657783Y-12585533D02*
X11648259Y-12547438D01*
X11648259Y-12547438D02*
X11648259Y-12499819D01*
X11648259Y-12499819D02*
X11657783Y-12461724D01*
X11657783Y-12461724D02*
X11667307Y-12442676D01*
X11667307Y-12442676D02*
X11676831Y-12433152D01*
X11676831Y-12433152D02*
X11695878Y-12423629D01*
X11848259Y-12623629D02*
X11848259Y-12490295D01*
X11848259Y-12509343D02*
X11857783Y-12499819D01*
X11857783Y-12499819D02*
X11876831Y-12490295D01*
X11876831Y-12490295D02*
X11905402Y-12490295D01*
X11905402Y-12490295D02*
X11924450Y-12499819D01*
X11924450Y-12499819D02*
X11933973Y-12518867D01*
X11933973Y-12518867D02*
X11933973Y-12623629D01*
X11933973Y-12518867D02*
X11943497Y-12499819D01*
X11943497Y-12499819D02*
X11962545Y-12490295D01*
X11962545Y-12490295D02*
X11991116Y-12490295D01*
X11991116Y-12490295D02*
X12010164Y-12499819D01*
X12010164Y-12499819D02*
X12019688Y-12518867D01*
X12019688Y-12518867D02*
X12019688Y-12623629D01*
X12114926Y-12623629D02*
X12114926Y-12490295D01*
X12114926Y-12509343D02*
X12124450Y-12499819D01*
X12124450Y-12499819D02*
X12143497Y-12490295D01*
X12143497Y-12490295D02*
X12172069Y-12490295D01*
X12172069Y-12490295D02*
X12191116Y-12499819D01*
X12191116Y-12499819D02*
X12200640Y-12518867D01*
X12200640Y-12518867D02*
X12200640Y-12623629D01*
X12200640Y-12518867D02*
X12210164Y-12499819D01*
X12210164Y-12499819D02*
X12229212Y-12490295D01*
X12229212Y-12490295D02*
X12257783Y-12490295D01*
X12257783Y-12490295D02*
X12276831Y-12499819D01*
X12276831Y-12499819D02*
X12286354Y-12518867D01*
X12286354Y-12518867D02*
X12286354Y-12623629D01*
X12676831Y-12414105D02*
X12505402Y-12671248D01*
X12933974Y-12423629D02*
X12953021Y-12423629D01*
X12953021Y-12423629D02*
X12972069Y-12433152D01*
X12972069Y-12433152D02*
X12981593Y-12442676D01*
X12981593Y-12442676D02*
X12991116Y-12461724D01*
X12991116Y-12461724D02*
X13000640Y-12499819D01*
X13000640Y-12499819D02*
X13000640Y-12547438D01*
X13000640Y-12547438D02*
X12991116Y-12585533D01*
X12991116Y-12585533D02*
X12981593Y-12604581D01*
X12981593Y-12604581D02*
X12972069Y-12614105D01*
X12972069Y-12614105D02*
X12953021Y-12623629D01*
X12953021Y-12623629D02*
X12933974Y-12623629D01*
X12933974Y-12623629D02*
X12914926Y-12614105D01*
X12914926Y-12614105D02*
X12905402Y-12604581D01*
X12905402Y-12604581D02*
X12895878Y-12585533D01*
X12895878Y-12585533D02*
X12886355Y-12547438D01*
X12886355Y-12547438D02*
X12886355Y-12499819D01*
X12886355Y-12499819D02*
X12895878Y-12461724D01*
X12895878Y-12461724D02*
X12905402Y-12442676D01*
X12905402Y-12442676D02*
X12914926Y-12433152D01*
X12914926Y-12433152D02*
X12933974Y-12423629D01*
X13086355Y-12604581D02*
X13095878Y-12614105D01*
X13095878Y-12614105D02*
X13086355Y-12623629D01*
X13086355Y-12623629D02*
X13076831Y-12614105D01*
X13076831Y-12614105D02*
X13086355Y-12604581D01*
X13086355Y-12604581D02*
X13086355Y-12623629D01*
X13219688Y-12423629D02*
X13238736Y-12423629D01*
X13238736Y-12423629D02*
X13257783Y-12433152D01*
X13257783Y-12433152D02*
X13267307Y-12442676D01*
X13267307Y-12442676D02*
X13276831Y-12461724D01*
X13276831Y-12461724D02*
X13286355Y-12499819D01*
X13286355Y-12499819D02*
X13286355Y-12547438D01*
X13286355Y-12547438D02*
X13276831Y-12585533D01*
X13276831Y-12585533D02*
X13267307Y-12604581D01*
X13267307Y-12604581D02*
X13257783Y-12614105D01*
X13257783Y-12614105D02*
X13238736Y-12623629D01*
X13238736Y-12623629D02*
X13219688Y-12623629D01*
X13219688Y-12623629D02*
X13200640Y-12614105D01*
X13200640Y-12614105D02*
X13191116Y-12604581D01*
X13191116Y-12604581D02*
X13181593Y-12585533D01*
X13181593Y-12585533D02*
X13172069Y-12547438D01*
X13172069Y-12547438D02*
X13172069Y-12499819D01*
X13172069Y-12499819D02*
X13181593Y-12461724D01*
X13181593Y-12461724D02*
X13191116Y-12442676D01*
X13191116Y-12442676D02*
X13200640Y-12433152D01*
X13200640Y-12433152D02*
X13219688Y-12423629D01*
X13353021Y-12423629D02*
X13486355Y-12423629D01*
X13486355Y-12423629D02*
X13400640Y-12623629D01*
X13648259Y-12490295D02*
X13648259Y-12623629D01*
X13600640Y-12414105D02*
X13553021Y-12556962D01*
X13553021Y-12556962D02*
X13676831Y-12556962D01*
X13781593Y-12509343D02*
X13762545Y-12499819D01*
X13762545Y-12499819D02*
X13753021Y-12490295D01*
X13753021Y-12490295D02*
X13743497Y-12471248D01*
X13743497Y-12471248D02*
X13743497Y-12461724D01*
X13743497Y-12461724D02*
X13753021Y-12442676D01*
X13753021Y-12442676D02*
X13762545Y-12433152D01*
X13762545Y-12433152D02*
X13781593Y-12423629D01*
X13781593Y-12423629D02*
X13819688Y-12423629D01*
X13819688Y-12423629D02*
X13838736Y-12433152D01*
X13838736Y-12433152D02*
X13848259Y-12442676D01*
X13848259Y-12442676D02*
X13857783Y-12461724D01*
X13857783Y-12461724D02*
X13857783Y-12471248D01*
X13857783Y-12471248D02*
X13848259Y-12490295D01*
X13848259Y-12490295D02*
X13838736Y-12499819D01*
X13838736Y-12499819D02*
X13819688Y-12509343D01*
X13819688Y-12509343D02*
X13781593Y-12509343D01*
X13781593Y-12509343D02*
X13762545Y-12518867D01*
X13762545Y-12518867D02*
X13753021Y-12528391D01*
X13753021Y-12528391D02*
X13743497Y-12547438D01*
X13743497Y-12547438D02*
X13743497Y-12585533D01*
X13743497Y-12585533D02*
X13753021Y-12604581D01*
X13753021Y-12604581D02*
X13762545Y-12614105D01*
X13762545Y-12614105D02*
X13781593Y-12623629D01*
X13781593Y-12623629D02*
X13819688Y-12623629D01*
X13819688Y-12623629D02*
X13838736Y-12614105D01*
X13838736Y-12614105D02*
X13848259Y-12604581D01*
X13848259Y-12604581D02*
X13857783Y-12585533D01*
X13857783Y-12585533D02*
X13857783Y-12547438D01*
X13857783Y-12547438D02*
X13848259Y-12528391D01*
X13848259Y-12528391D02*
X13838736Y-12518867D01*
X13838736Y-12518867D02*
X13819688Y-12509343D01*
X13933974Y-12423629D02*
X13933974Y-12461724D01*
X14010164Y-12423629D02*
X14010164Y-12461724D01*
X14305402Y-12699819D02*
X14295878Y-12690295D01*
X14295878Y-12690295D02*
X14276831Y-12661724D01*
X14276831Y-12661724D02*
X14267307Y-12642676D01*
X14267307Y-12642676D02*
X14257783Y-12614105D01*
X14257783Y-12614105D02*
X14248259Y-12566486D01*
X14248259Y-12566486D02*
X14248259Y-12528391D01*
X14248259Y-12528391D02*
X14257783Y-12480771D01*
X14257783Y-12480771D02*
X14267307Y-12452200D01*
X14267307Y-12452200D02*
X14276831Y-12433152D01*
X14276831Y-12433152D02*
X14295878Y-12404581D01*
X14295878Y-12404581D02*
X14305402Y-12395057D01*
X14419688Y-12423629D02*
X14438736Y-12423629D01*
X14438736Y-12423629D02*
X14457783Y-12433152D01*
X14457783Y-12433152D02*
X14467307Y-12442676D01*
X14467307Y-12442676D02*
X14476831Y-12461724D01*
X14476831Y-12461724D02*
X14486355Y-12499819D01*
X14486355Y-12499819D02*
X14486355Y-12547438D01*
X14486355Y-12547438D02*
X14476831Y-12585533D01*
X14476831Y-12585533D02*
X14467307Y-12604581D01*
X14467307Y-12604581D02*
X14457783Y-12614105D01*
X14457783Y-12614105D02*
X14438736Y-12623629D01*
X14438736Y-12623629D02*
X14419688Y-12623629D01*
X14419688Y-12623629D02*
X14400640Y-12614105D01*
X14400640Y-12614105D02*
X14391117Y-12604581D01*
X14391117Y-12604581D02*
X14381593Y-12585533D01*
X14381593Y-12585533D02*
X14372069Y-12547438D01*
X14372069Y-12547438D02*
X14372069Y-12499819D01*
X14372069Y-12499819D02*
X14381593Y-12461724D01*
X14381593Y-12461724D02*
X14391117Y-12442676D01*
X14391117Y-12442676D02*
X14400640Y-12433152D01*
X14400640Y-12433152D02*
X14419688Y-12423629D01*
X14724450Y-12623629D02*
X14724450Y-12423629D01*
X14810164Y-12623629D02*
X14810164Y-12518867D01*
X14810164Y-12518867D02*
X14800640Y-12499819D01*
X14800640Y-12499819D02*
X14781593Y-12490295D01*
X14781593Y-12490295D02*
X14753021Y-12490295D01*
X14753021Y-12490295D02*
X14733974Y-12499819D01*
X14733974Y-12499819D02*
X14724450Y-12509343D01*
X14933974Y-12623629D02*
X14914926Y-12614105D01*
X14914926Y-12614105D02*
X14905402Y-12604581D01*
X14905402Y-12604581D02*
X14895879Y-12585533D01*
X14895879Y-12585533D02*
X14895879Y-12528391D01*
X14895879Y-12528391D02*
X14905402Y-12509343D01*
X14905402Y-12509343D02*
X14914926Y-12499819D01*
X14914926Y-12499819D02*
X14933974Y-12490295D01*
X14933974Y-12490295D02*
X14962545Y-12490295D01*
X14962545Y-12490295D02*
X14981593Y-12499819D01*
X14981593Y-12499819D02*
X14991117Y-12509343D01*
X14991117Y-12509343D02*
X15000640Y-12528391D01*
X15000640Y-12528391D02*
X15000640Y-12585533D01*
X15000640Y-12585533D02*
X14991117Y-12604581D01*
X14991117Y-12604581D02*
X14981593Y-12614105D01*
X14981593Y-12614105D02*
X14962545Y-12623629D01*
X14962545Y-12623629D02*
X14933974Y-12623629D01*
X15114926Y-12623629D02*
X15095879Y-12614105D01*
X15095879Y-12614105D02*
X15086355Y-12595057D01*
X15086355Y-12595057D02*
X15086355Y-12423629D01*
X15267307Y-12614105D02*
X15248260Y-12623629D01*
X15248260Y-12623629D02*
X15210164Y-12623629D01*
X15210164Y-12623629D02*
X15191117Y-12614105D01*
X15191117Y-12614105D02*
X15181593Y-12595057D01*
X15181593Y-12595057D02*
X15181593Y-12518867D01*
X15181593Y-12518867D02*
X15191117Y-12499819D01*
X15191117Y-12499819D02*
X15210164Y-12490295D01*
X15210164Y-12490295D02*
X15248260Y-12490295D01*
X15248260Y-12490295D02*
X15267307Y-12499819D01*
X15267307Y-12499819D02*
X15276831Y-12518867D01*
X15276831Y-12518867D02*
X15276831Y-12537914D01*
X15276831Y-12537914D02*
X15181593Y-12556962D01*
X15353021Y-12614105D02*
X15372069Y-12623629D01*
X15372069Y-12623629D02*
X15410164Y-12623629D01*
X15410164Y-12623629D02*
X15429212Y-12614105D01*
X15429212Y-12614105D02*
X15438736Y-12595057D01*
X15438736Y-12595057D02*
X15438736Y-12585533D01*
X15438736Y-12585533D02*
X15429212Y-12566486D01*
X15429212Y-12566486D02*
X15410164Y-12556962D01*
X15410164Y-12556962D02*
X15381593Y-12556962D01*
X15381593Y-12556962D02*
X15362545Y-12547438D01*
X15362545Y-12547438D02*
X15353021Y-12528391D01*
X15353021Y-12528391D02*
X15353021Y-12518867D01*
X15353021Y-12518867D02*
X15362545Y-12499819D01*
X15362545Y-12499819D02*
X15381593Y-12490295D01*
X15381593Y-12490295D02*
X15410164Y-12490295D01*
X15410164Y-12490295D02*
X15429212Y-12499819D01*
X15676831Y-12547438D02*
X15829212Y-12547438D01*
X15753022Y-12623629D02*
X15753022Y-12471248D01*
X16162545Y-12423629D02*
X16124450Y-12423629D01*
X16124450Y-12423629D02*
X16105402Y-12433152D01*
X16105402Y-12433152D02*
X16095879Y-12442676D01*
X16095879Y-12442676D02*
X16076831Y-12471248D01*
X16076831Y-12471248D02*
X16067307Y-12509343D01*
X16067307Y-12509343D02*
X16067307Y-12585533D01*
X16067307Y-12585533D02*
X16076831Y-12604581D01*
X16076831Y-12604581D02*
X16086355Y-12614105D01*
X16086355Y-12614105D02*
X16105402Y-12623629D01*
X16105402Y-12623629D02*
X16143498Y-12623629D01*
X16143498Y-12623629D02*
X16162545Y-12614105D01*
X16162545Y-12614105D02*
X16172069Y-12604581D01*
X16172069Y-12604581D02*
X16181593Y-12585533D01*
X16181593Y-12585533D02*
X16181593Y-12537914D01*
X16181593Y-12537914D02*
X16172069Y-12518867D01*
X16172069Y-12518867D02*
X16162545Y-12509343D01*
X16162545Y-12509343D02*
X16143498Y-12499819D01*
X16143498Y-12499819D02*
X16105402Y-12499819D01*
X16105402Y-12499819D02*
X16086355Y-12509343D01*
X16086355Y-12509343D02*
X16076831Y-12518867D01*
X16076831Y-12518867D02*
X16067307Y-12537914D01*
X16410164Y-12614105D02*
X16429212Y-12623629D01*
X16429212Y-12623629D02*
X16467307Y-12623629D01*
X16467307Y-12623629D02*
X16486355Y-12614105D01*
X16486355Y-12614105D02*
X16495879Y-12595057D01*
X16495879Y-12595057D02*
X16495879Y-12585533D01*
X16495879Y-12585533D02*
X16486355Y-12566486D01*
X16486355Y-12566486D02*
X16467307Y-12556962D01*
X16467307Y-12556962D02*
X16438736Y-12556962D01*
X16438736Y-12556962D02*
X16419688Y-12547438D01*
X16419688Y-12547438D02*
X16410164Y-12528391D01*
X16410164Y-12528391D02*
X16410164Y-12518867D01*
X16410164Y-12518867D02*
X16419688Y-12499819D01*
X16419688Y-12499819D02*
X16438736Y-12490295D01*
X16438736Y-12490295D02*
X16467307Y-12490295D01*
X16467307Y-12490295D02*
X16486355Y-12499819D01*
X16610164Y-12623629D02*
X16591117Y-12614105D01*
X16591117Y-12614105D02*
X16581593Y-12595057D01*
X16581593Y-12595057D02*
X16581593Y-12423629D01*
X16714926Y-12623629D02*
X16695879Y-12614105D01*
X16695879Y-12614105D02*
X16686355Y-12604581D01*
X16686355Y-12604581D02*
X16676831Y-12585533D01*
X16676831Y-12585533D02*
X16676831Y-12528391D01*
X16676831Y-12528391D02*
X16686355Y-12509343D01*
X16686355Y-12509343D02*
X16695879Y-12499819D01*
X16695879Y-12499819D02*
X16714926Y-12490295D01*
X16714926Y-12490295D02*
X16743498Y-12490295D01*
X16743498Y-12490295D02*
X16762545Y-12499819D01*
X16762545Y-12499819D02*
X16772069Y-12509343D01*
X16772069Y-12509343D02*
X16781593Y-12528391D01*
X16781593Y-12528391D02*
X16781593Y-12585533D01*
X16781593Y-12585533D02*
X16772069Y-12604581D01*
X16772069Y-12604581D02*
X16762545Y-12614105D01*
X16762545Y-12614105D02*
X16743498Y-12623629D01*
X16743498Y-12623629D02*
X16714926Y-12623629D01*
X16838736Y-12490295D02*
X16914926Y-12490295D01*
X16867307Y-12423629D02*
X16867307Y-12595057D01*
X16867307Y-12595057D02*
X16876831Y-12614105D01*
X16876831Y-12614105D02*
X16895879Y-12623629D01*
X16895879Y-12623629D02*
X16914926Y-12623629D01*
X16972069Y-12614105D02*
X16991117Y-12623629D01*
X16991117Y-12623629D02*
X17029212Y-12623629D01*
X17029212Y-12623629D02*
X17048260Y-12614105D01*
X17048260Y-12614105D02*
X17057784Y-12595057D01*
X17057784Y-12595057D02*
X17057784Y-12585533D01*
X17057784Y-12585533D02*
X17048260Y-12566486D01*
X17048260Y-12566486D02*
X17029212Y-12556962D01*
X17029212Y-12556962D02*
X17000641Y-12556962D01*
X17000641Y-12556962D02*
X16981593Y-12547438D01*
X16981593Y-12547438D02*
X16972069Y-12528391D01*
X16972069Y-12528391D02*
X16972069Y-12518867D01*
X16972069Y-12518867D02*
X16981593Y-12499819D01*
X16981593Y-12499819D02*
X17000641Y-12490295D01*
X17000641Y-12490295D02*
X17029212Y-12490295D01*
X17029212Y-12490295D02*
X17048260Y-12499819D01*
X17124450Y-12699819D02*
X17133974Y-12690295D01*
X17133974Y-12690295D02*
X17153022Y-12661724D01*
X17153022Y-12661724D02*
X17162546Y-12642676D01*
X17162546Y-12642676D02*
X17172069Y-12614105D01*
X17172069Y-12614105D02*
X17181593Y-12566486D01*
X17181593Y-12566486D02*
X17181593Y-12528391D01*
X17181593Y-12528391D02*
X17172069Y-12480771D01*
X17172069Y-12480771D02*
X17162546Y-12452200D01*
X17162546Y-12452200D02*
X17153022Y-12433152D01*
X17153022Y-12433152D02*
X17133974Y-12404581D01*
X17133974Y-12404581D02*
X17124450Y-12395057D01*
X17486355Y-12699819D02*
X17476831Y-12690295D01*
X17476831Y-12690295D02*
X17457784Y-12661724D01*
X17457784Y-12661724D02*
X17448260Y-12642676D01*
X17448260Y-12642676D02*
X17438736Y-12614105D01*
X17438736Y-12614105D02*
X17429212Y-12566486D01*
X17429212Y-12566486D02*
X17429212Y-12528391D01*
X17429212Y-12528391D02*
X17438736Y-12480771D01*
X17438736Y-12480771D02*
X17448260Y-12452200D01*
X17448260Y-12452200D02*
X17457784Y-12433152D01*
X17457784Y-12433152D02*
X17476831Y-12404581D01*
X17476831Y-12404581D02*
X17486355Y-12395057D01*
X17562546Y-12490295D02*
X17562546Y-12623629D01*
X17562546Y-12509343D02*
X17572069Y-12499819D01*
X17572069Y-12499819D02*
X17591117Y-12490295D01*
X17591117Y-12490295D02*
X17619688Y-12490295D01*
X17619688Y-12490295D02*
X17638736Y-12499819D01*
X17638736Y-12499819D02*
X17648260Y-12518867D01*
X17648260Y-12518867D02*
X17648260Y-12623629D01*
X17772069Y-12623629D02*
X17753022Y-12614105D01*
X17753022Y-12614105D02*
X17743498Y-12604581D01*
X17743498Y-12604581D02*
X17733974Y-12585533D01*
X17733974Y-12585533D02*
X17733974Y-12528391D01*
X17733974Y-12528391D02*
X17743498Y-12509343D01*
X17743498Y-12509343D02*
X17753022Y-12499819D01*
X17753022Y-12499819D02*
X17772069Y-12490295D01*
X17772069Y-12490295D02*
X17800641Y-12490295D01*
X17800641Y-12490295D02*
X17819688Y-12499819D01*
X17819688Y-12499819D02*
X17829212Y-12509343D01*
X17829212Y-12509343D02*
X17838736Y-12528391D01*
X17838736Y-12528391D02*
X17838736Y-12585533D01*
X17838736Y-12585533D02*
X17829212Y-12604581D01*
X17829212Y-12604581D02*
X17819688Y-12614105D01*
X17819688Y-12614105D02*
X17800641Y-12623629D01*
X17800641Y-12623629D02*
X17772069Y-12623629D01*
X17895879Y-12490295D02*
X17972069Y-12490295D01*
X17924450Y-12423629D02*
X17924450Y-12595057D01*
X17924450Y-12595057D02*
X17933974Y-12614105D01*
X17933974Y-12614105D02*
X17953022Y-12623629D01*
X17953022Y-12623629D02*
X17972069Y-12623629D01*
X18191117Y-12490295D02*
X18191117Y-12690295D01*
X18191117Y-12499819D02*
X18210165Y-12490295D01*
X18210165Y-12490295D02*
X18248260Y-12490295D01*
X18248260Y-12490295D02*
X18267308Y-12499819D01*
X18267308Y-12499819D02*
X18276831Y-12509343D01*
X18276831Y-12509343D02*
X18286355Y-12528391D01*
X18286355Y-12528391D02*
X18286355Y-12585533D01*
X18286355Y-12585533D02*
X18276831Y-12604581D01*
X18276831Y-12604581D02*
X18267308Y-12614105D01*
X18267308Y-12614105D02*
X18248260Y-12623629D01*
X18248260Y-12623629D02*
X18210165Y-12623629D01*
X18210165Y-12623629D02*
X18191117Y-12614105D01*
X18400641Y-12623629D02*
X18381593Y-12614105D01*
X18381593Y-12614105D02*
X18372069Y-12595057D01*
X18372069Y-12595057D02*
X18372069Y-12423629D01*
X18562546Y-12623629D02*
X18562546Y-12518867D01*
X18562546Y-12518867D02*
X18553022Y-12499819D01*
X18553022Y-12499819D02*
X18533974Y-12490295D01*
X18533974Y-12490295D02*
X18495879Y-12490295D01*
X18495879Y-12490295D02*
X18476831Y-12499819D01*
X18562546Y-12614105D02*
X18543498Y-12623629D01*
X18543498Y-12623629D02*
X18495879Y-12623629D01*
X18495879Y-12623629D02*
X18476831Y-12614105D01*
X18476831Y-12614105D02*
X18467308Y-12595057D01*
X18467308Y-12595057D02*
X18467308Y-12576010D01*
X18467308Y-12576010D02*
X18476831Y-12556962D01*
X18476831Y-12556962D02*
X18495879Y-12547438D01*
X18495879Y-12547438D02*
X18543498Y-12547438D01*
X18543498Y-12547438D02*
X18562546Y-12537914D01*
X18629212Y-12490295D02*
X18705403Y-12490295D01*
X18657784Y-12423629D02*
X18657784Y-12595057D01*
X18657784Y-12595057D02*
X18667308Y-12614105D01*
X18667308Y-12614105D02*
X18686355Y-12623629D01*
X18686355Y-12623629D02*
X18705403Y-12623629D01*
X18848260Y-12614105D02*
X18829212Y-12623629D01*
X18829212Y-12623629D02*
X18791117Y-12623629D01*
X18791117Y-12623629D02*
X18772069Y-12614105D01*
X18772069Y-12614105D02*
X18762546Y-12595057D01*
X18762546Y-12595057D02*
X18762546Y-12518867D01*
X18762546Y-12518867D02*
X18772069Y-12499819D01*
X18772069Y-12499819D02*
X18791117Y-12490295D01*
X18791117Y-12490295D02*
X18829212Y-12490295D01*
X18829212Y-12490295D02*
X18848260Y-12499819D01*
X18848260Y-12499819D02*
X18857784Y-12518867D01*
X18857784Y-12518867D02*
X18857784Y-12537914D01*
X18857784Y-12537914D02*
X18762546Y-12556962D01*
X19029212Y-12623629D02*
X19029212Y-12423629D01*
X19029212Y-12614105D02*
X19010165Y-12623629D01*
X19010165Y-12623629D02*
X18972069Y-12623629D01*
X18972069Y-12623629D02*
X18953022Y-12614105D01*
X18953022Y-12614105D02*
X18943498Y-12604581D01*
X18943498Y-12604581D02*
X18933974Y-12585533D01*
X18933974Y-12585533D02*
X18933974Y-12528391D01*
X18933974Y-12528391D02*
X18943498Y-12509343D01*
X18943498Y-12509343D02*
X18953022Y-12499819D01*
X18953022Y-12499819D02*
X18972069Y-12490295D01*
X18972069Y-12490295D02*
X19010165Y-12490295D01*
X19010165Y-12490295D02*
X19029212Y-12499819D01*
X19105403Y-12699819D02*
X19114927Y-12690295D01*
X19114927Y-12690295D02*
X19133974Y-12661724D01*
X19133974Y-12661724D02*
X19143498Y-12642676D01*
X19143498Y-12642676D02*
X19153022Y-12614105D01*
X19153022Y-12614105D02*
X19162546Y-12566486D01*
X19162546Y-12566486D02*
X19162546Y-12528391D01*
X19162546Y-12528391D02*
X19153022Y-12480771D01*
X19153022Y-12480771D02*
X19143498Y-12452200D01*
X19143498Y-12452200D02*
X19133974Y-12433152D01*
X19133974Y-12433152D02*
X19114927Y-12404581D01*
X19114927Y-12404581D02*
X19105403Y-12395057D01*
X10730340Y-12842145D02*
G75*
G03*
X10730340Y-12842145I-100000J0D01*
G01*
X10972069Y-12733629D02*
X11095878Y-12733629D01*
X11095878Y-12733629D02*
X11029212Y-12809819D01*
X11029212Y-12809819D02*
X11057783Y-12809819D01*
X11057783Y-12809819D02*
X11076831Y-12819343D01*
X11076831Y-12819343D02*
X11086354Y-12828867D01*
X11086354Y-12828867D02*
X11095878Y-12847914D01*
X11095878Y-12847914D02*
X11095878Y-12895533D01*
X11095878Y-12895533D02*
X11086354Y-12914581D01*
X11086354Y-12914581D02*
X11076831Y-12924105D01*
X11076831Y-12924105D02*
X11057783Y-12933629D01*
X11057783Y-12933629D02*
X11000640Y-12933629D01*
X11000640Y-12933629D02*
X10981593Y-12924105D01*
X10981593Y-12924105D02*
X10972069Y-12914581D01*
X11181593Y-12914581D02*
X11191116Y-12924105D01*
X11191116Y-12924105D02*
X11181593Y-12933629D01*
X11181593Y-12933629D02*
X11172069Y-12924105D01*
X11172069Y-12924105D02*
X11181593Y-12914581D01*
X11181593Y-12914581D02*
X11181593Y-12933629D01*
X11372069Y-12733629D02*
X11276831Y-12733629D01*
X11276831Y-12733629D02*
X11267307Y-12828867D01*
X11267307Y-12828867D02*
X11276831Y-12819343D01*
X11276831Y-12819343D02*
X11295878Y-12809819D01*
X11295878Y-12809819D02*
X11343497Y-12809819D01*
X11343497Y-12809819D02*
X11362545Y-12819343D01*
X11362545Y-12819343D02*
X11372069Y-12828867D01*
X11372069Y-12828867D02*
X11381592Y-12847914D01*
X11381592Y-12847914D02*
X11381592Y-12895533D01*
X11381592Y-12895533D02*
X11372069Y-12914581D01*
X11372069Y-12914581D02*
X11362545Y-12924105D01*
X11362545Y-12924105D02*
X11343497Y-12933629D01*
X11343497Y-12933629D02*
X11295878Y-12933629D01*
X11295878Y-12933629D02*
X11276831Y-12924105D01*
X11276831Y-12924105D02*
X11267307Y-12914581D01*
X11505402Y-12733629D02*
X11524450Y-12733629D01*
X11524450Y-12733629D02*
X11543497Y-12743152D01*
X11543497Y-12743152D02*
X11553021Y-12752676D01*
X11553021Y-12752676D02*
X11562545Y-12771724D01*
X11562545Y-12771724D02*
X11572069Y-12809819D01*
X11572069Y-12809819D02*
X11572069Y-12857438D01*
X11572069Y-12857438D02*
X11562545Y-12895533D01*
X11562545Y-12895533D02*
X11553021Y-12914581D01*
X11553021Y-12914581D02*
X11543497Y-12924105D01*
X11543497Y-12924105D02*
X11524450Y-12933629D01*
X11524450Y-12933629D02*
X11505402Y-12933629D01*
X11505402Y-12933629D02*
X11486354Y-12924105D01*
X11486354Y-12924105D02*
X11476831Y-12914581D01*
X11476831Y-12914581D02*
X11467307Y-12895533D01*
X11467307Y-12895533D02*
X11457783Y-12857438D01*
X11457783Y-12857438D02*
X11457783Y-12809819D01*
X11457783Y-12809819D02*
X11467307Y-12771724D01*
X11467307Y-12771724D02*
X11476831Y-12752676D01*
X11476831Y-12752676D02*
X11486354Y-12743152D01*
X11486354Y-12743152D02*
X11505402Y-12733629D01*
X11695878Y-12733629D02*
X11714926Y-12733629D01*
X11714926Y-12733629D02*
X11733973Y-12743152D01*
X11733973Y-12743152D02*
X11743497Y-12752676D01*
X11743497Y-12752676D02*
X11753021Y-12771724D01*
X11753021Y-12771724D02*
X11762545Y-12809819D01*
X11762545Y-12809819D02*
X11762545Y-12857438D01*
X11762545Y-12857438D02*
X11753021Y-12895533D01*
X11753021Y-12895533D02*
X11743497Y-12914581D01*
X11743497Y-12914581D02*
X11733973Y-12924105D01*
X11733973Y-12924105D02*
X11714926Y-12933629D01*
X11714926Y-12933629D02*
X11695878Y-12933629D01*
X11695878Y-12933629D02*
X11676831Y-12924105D01*
X11676831Y-12924105D02*
X11667307Y-12914581D01*
X11667307Y-12914581D02*
X11657783Y-12895533D01*
X11657783Y-12895533D02*
X11648259Y-12857438D01*
X11648259Y-12857438D02*
X11648259Y-12809819D01*
X11648259Y-12809819D02*
X11657783Y-12771724D01*
X11657783Y-12771724D02*
X11667307Y-12752676D01*
X11667307Y-12752676D02*
X11676831Y-12743152D01*
X11676831Y-12743152D02*
X11695878Y-12733629D01*
X11848259Y-12933629D02*
X11848259Y-12800295D01*
X11848259Y-12819343D02*
X11857783Y-12809819D01*
X11857783Y-12809819D02*
X11876831Y-12800295D01*
X11876831Y-12800295D02*
X11905402Y-12800295D01*
X11905402Y-12800295D02*
X11924450Y-12809819D01*
X11924450Y-12809819D02*
X11933973Y-12828867D01*
X11933973Y-12828867D02*
X11933973Y-12933629D01*
X11933973Y-12828867D02*
X11943497Y-12809819D01*
X11943497Y-12809819D02*
X11962545Y-12800295D01*
X11962545Y-12800295D02*
X11991116Y-12800295D01*
X11991116Y-12800295D02*
X12010164Y-12809819D01*
X12010164Y-12809819D02*
X12019688Y-12828867D01*
X12019688Y-12828867D02*
X12019688Y-12933629D01*
X12114926Y-12933629D02*
X12114926Y-12800295D01*
X12114926Y-12819343D02*
X12124450Y-12809819D01*
X12124450Y-12809819D02*
X12143497Y-12800295D01*
X12143497Y-12800295D02*
X12172069Y-12800295D01*
X12172069Y-12800295D02*
X12191116Y-12809819D01*
X12191116Y-12809819D02*
X12200640Y-12828867D01*
X12200640Y-12828867D02*
X12200640Y-12933629D01*
X12200640Y-12828867D02*
X12210164Y-12809819D01*
X12210164Y-12809819D02*
X12229212Y-12800295D01*
X12229212Y-12800295D02*
X12257783Y-12800295D01*
X12257783Y-12800295D02*
X12276831Y-12809819D01*
X12276831Y-12809819D02*
X12286354Y-12828867D01*
X12286354Y-12828867D02*
X12286354Y-12933629D01*
X12676831Y-12724105D02*
X12505402Y-12981248D01*
X12933974Y-12733629D02*
X12953021Y-12733629D01*
X12953021Y-12733629D02*
X12972069Y-12743152D01*
X12972069Y-12743152D02*
X12981593Y-12752676D01*
X12981593Y-12752676D02*
X12991116Y-12771724D01*
X12991116Y-12771724D02*
X13000640Y-12809819D01*
X13000640Y-12809819D02*
X13000640Y-12857438D01*
X13000640Y-12857438D02*
X12991116Y-12895533D01*
X12991116Y-12895533D02*
X12981593Y-12914581D01*
X12981593Y-12914581D02*
X12972069Y-12924105D01*
X12972069Y-12924105D02*
X12953021Y-12933629D01*
X12953021Y-12933629D02*
X12933974Y-12933629D01*
X12933974Y-12933629D02*
X12914926Y-12924105D01*
X12914926Y-12924105D02*
X12905402Y-12914581D01*
X12905402Y-12914581D02*
X12895878Y-12895533D01*
X12895878Y-12895533D02*
X12886355Y-12857438D01*
X12886355Y-12857438D02*
X12886355Y-12809819D01*
X12886355Y-12809819D02*
X12895878Y-12771724D01*
X12895878Y-12771724D02*
X12905402Y-12752676D01*
X12905402Y-12752676D02*
X12914926Y-12743152D01*
X12914926Y-12743152D02*
X12933974Y-12733629D01*
X13086355Y-12914581D02*
X13095878Y-12924105D01*
X13095878Y-12924105D02*
X13086355Y-12933629D01*
X13086355Y-12933629D02*
X13076831Y-12924105D01*
X13076831Y-12924105D02*
X13086355Y-12914581D01*
X13086355Y-12914581D02*
X13086355Y-12933629D01*
X13286355Y-12933629D02*
X13172069Y-12933629D01*
X13229212Y-12933629D02*
X13229212Y-12733629D01*
X13229212Y-12733629D02*
X13210164Y-12762200D01*
X13210164Y-12762200D02*
X13191116Y-12781248D01*
X13191116Y-12781248D02*
X13172069Y-12790771D01*
X13353021Y-12733629D02*
X13476831Y-12733629D01*
X13476831Y-12733629D02*
X13410164Y-12809819D01*
X13410164Y-12809819D02*
X13438736Y-12809819D01*
X13438736Y-12809819D02*
X13457783Y-12819343D01*
X13457783Y-12819343D02*
X13467307Y-12828867D01*
X13467307Y-12828867D02*
X13476831Y-12847914D01*
X13476831Y-12847914D02*
X13476831Y-12895533D01*
X13476831Y-12895533D02*
X13467307Y-12914581D01*
X13467307Y-12914581D02*
X13457783Y-12924105D01*
X13457783Y-12924105D02*
X13438736Y-12933629D01*
X13438736Y-12933629D02*
X13381593Y-12933629D01*
X13381593Y-12933629D02*
X13362545Y-12924105D01*
X13362545Y-12924105D02*
X13353021Y-12914581D01*
X13543497Y-12733629D02*
X13676831Y-12733629D01*
X13676831Y-12733629D02*
X13591116Y-12933629D01*
X13781593Y-12819343D02*
X13762545Y-12809819D01*
X13762545Y-12809819D02*
X13753021Y-12800295D01*
X13753021Y-12800295D02*
X13743497Y-12781248D01*
X13743497Y-12781248D02*
X13743497Y-12771724D01*
X13743497Y-12771724D02*
X13753021Y-12752676D01*
X13753021Y-12752676D02*
X13762545Y-12743152D01*
X13762545Y-12743152D02*
X13781593Y-12733629D01*
X13781593Y-12733629D02*
X13819688Y-12733629D01*
X13819688Y-12733629D02*
X13838736Y-12743152D01*
X13838736Y-12743152D02*
X13848259Y-12752676D01*
X13848259Y-12752676D02*
X13857783Y-12771724D01*
X13857783Y-12771724D02*
X13857783Y-12781248D01*
X13857783Y-12781248D02*
X13848259Y-12800295D01*
X13848259Y-12800295D02*
X13838736Y-12809819D01*
X13838736Y-12809819D02*
X13819688Y-12819343D01*
X13819688Y-12819343D02*
X13781593Y-12819343D01*
X13781593Y-12819343D02*
X13762545Y-12828867D01*
X13762545Y-12828867D02*
X13753021Y-12838391D01*
X13753021Y-12838391D02*
X13743497Y-12857438D01*
X13743497Y-12857438D02*
X13743497Y-12895533D01*
X13743497Y-12895533D02*
X13753021Y-12914581D01*
X13753021Y-12914581D02*
X13762545Y-12924105D01*
X13762545Y-12924105D02*
X13781593Y-12933629D01*
X13781593Y-12933629D02*
X13819688Y-12933629D01*
X13819688Y-12933629D02*
X13838736Y-12924105D01*
X13838736Y-12924105D02*
X13848259Y-12914581D01*
X13848259Y-12914581D02*
X13857783Y-12895533D01*
X13857783Y-12895533D02*
X13857783Y-12857438D01*
X13857783Y-12857438D02*
X13848259Y-12838391D01*
X13848259Y-12838391D02*
X13838736Y-12828867D01*
X13838736Y-12828867D02*
X13819688Y-12819343D01*
X13933974Y-12733629D02*
X13933974Y-12771724D01*
X14010164Y-12733629D02*
X14010164Y-12771724D01*
X14305402Y-13009819D02*
X14295878Y-13000295D01*
X14295878Y-13000295D02*
X14276831Y-12971724D01*
X14276831Y-12971724D02*
X14267307Y-12952676D01*
X14267307Y-12952676D02*
X14257783Y-12924105D01*
X14257783Y-12924105D02*
X14248259Y-12876486D01*
X14248259Y-12876486D02*
X14248259Y-12838391D01*
X14248259Y-12838391D02*
X14257783Y-12790771D01*
X14257783Y-12790771D02*
X14267307Y-12762200D01*
X14267307Y-12762200D02*
X14276831Y-12743152D01*
X14276831Y-12743152D02*
X14295878Y-12714581D01*
X14295878Y-12714581D02*
X14305402Y-12705057D01*
X14372069Y-12752676D02*
X14381593Y-12743152D01*
X14381593Y-12743152D02*
X14400640Y-12733629D01*
X14400640Y-12733629D02*
X14448259Y-12733629D01*
X14448259Y-12733629D02*
X14467307Y-12743152D01*
X14467307Y-12743152D02*
X14476831Y-12752676D01*
X14476831Y-12752676D02*
X14486355Y-12771724D01*
X14486355Y-12771724D02*
X14486355Y-12790771D01*
X14486355Y-12790771D02*
X14476831Y-12819343D01*
X14476831Y-12819343D02*
X14362545Y-12933629D01*
X14362545Y-12933629D02*
X14486355Y-12933629D01*
X14724450Y-12933629D02*
X14724450Y-12733629D01*
X14810164Y-12933629D02*
X14810164Y-12828867D01*
X14810164Y-12828867D02*
X14800640Y-12809819D01*
X14800640Y-12809819D02*
X14781593Y-12800295D01*
X14781593Y-12800295D02*
X14753021Y-12800295D01*
X14753021Y-12800295D02*
X14733974Y-12809819D01*
X14733974Y-12809819D02*
X14724450Y-12819343D01*
X14933974Y-12933629D02*
X14914926Y-12924105D01*
X14914926Y-12924105D02*
X14905402Y-12914581D01*
X14905402Y-12914581D02*
X14895879Y-12895533D01*
X14895879Y-12895533D02*
X14895879Y-12838391D01*
X14895879Y-12838391D02*
X14905402Y-12819343D01*
X14905402Y-12819343D02*
X14914926Y-12809819D01*
X14914926Y-12809819D02*
X14933974Y-12800295D01*
X14933974Y-12800295D02*
X14962545Y-12800295D01*
X14962545Y-12800295D02*
X14981593Y-12809819D01*
X14981593Y-12809819D02*
X14991117Y-12819343D01*
X14991117Y-12819343D02*
X15000640Y-12838391D01*
X15000640Y-12838391D02*
X15000640Y-12895533D01*
X15000640Y-12895533D02*
X14991117Y-12914581D01*
X14991117Y-12914581D02*
X14981593Y-12924105D01*
X14981593Y-12924105D02*
X14962545Y-12933629D01*
X14962545Y-12933629D02*
X14933974Y-12933629D01*
X15114926Y-12933629D02*
X15095879Y-12924105D01*
X15095879Y-12924105D02*
X15086355Y-12905057D01*
X15086355Y-12905057D02*
X15086355Y-12733629D01*
X15267307Y-12924105D02*
X15248260Y-12933629D01*
X15248260Y-12933629D02*
X15210164Y-12933629D01*
X15210164Y-12933629D02*
X15191117Y-12924105D01*
X15191117Y-12924105D02*
X15181593Y-12905057D01*
X15181593Y-12905057D02*
X15181593Y-12828867D01*
X15181593Y-12828867D02*
X15191117Y-12809819D01*
X15191117Y-12809819D02*
X15210164Y-12800295D01*
X15210164Y-12800295D02*
X15248260Y-12800295D01*
X15248260Y-12800295D02*
X15267307Y-12809819D01*
X15267307Y-12809819D02*
X15276831Y-12828867D01*
X15276831Y-12828867D02*
X15276831Y-12847914D01*
X15276831Y-12847914D02*
X15181593Y-12866962D01*
X15353021Y-12924105D02*
X15372069Y-12933629D01*
X15372069Y-12933629D02*
X15410164Y-12933629D01*
X15410164Y-12933629D02*
X15429212Y-12924105D01*
X15429212Y-12924105D02*
X15438736Y-12905057D01*
X15438736Y-12905057D02*
X15438736Y-12895533D01*
X15438736Y-12895533D02*
X15429212Y-12876486D01*
X15429212Y-12876486D02*
X15410164Y-12866962D01*
X15410164Y-12866962D02*
X15381593Y-12866962D01*
X15381593Y-12866962D02*
X15362545Y-12857438D01*
X15362545Y-12857438D02*
X15353021Y-12838391D01*
X15353021Y-12838391D02*
X15353021Y-12828867D01*
X15353021Y-12828867D02*
X15362545Y-12809819D01*
X15362545Y-12809819D02*
X15381593Y-12800295D01*
X15381593Y-12800295D02*
X15410164Y-12800295D01*
X15410164Y-12800295D02*
X15429212Y-12809819D01*
X15505402Y-13009819D02*
X15514926Y-13000295D01*
X15514926Y-13000295D02*
X15533974Y-12971724D01*
X15533974Y-12971724D02*
X15543498Y-12952676D01*
X15543498Y-12952676D02*
X15553021Y-12924105D01*
X15553021Y-12924105D02*
X15562545Y-12876486D01*
X15562545Y-12876486D02*
X15562545Y-12838391D01*
X15562545Y-12838391D02*
X15553021Y-12790771D01*
X15553021Y-12790771D02*
X15543498Y-12762200D01*
X15543498Y-12762200D02*
X15533974Y-12743152D01*
X15533974Y-12743152D02*
X15514926Y-12714581D01*
X15514926Y-12714581D02*
X15505402Y-12705057D01*
X15867307Y-13009819D02*
X15857783Y-13000295D01*
X15857783Y-13000295D02*
X15838736Y-12971724D01*
X15838736Y-12971724D02*
X15829212Y-12952676D01*
X15829212Y-12952676D02*
X15819688Y-12924105D01*
X15819688Y-12924105D02*
X15810164Y-12876486D01*
X15810164Y-12876486D02*
X15810164Y-12838391D01*
X15810164Y-12838391D02*
X15819688Y-12790771D01*
X15819688Y-12790771D02*
X15829212Y-12762200D01*
X15829212Y-12762200D02*
X15838736Y-12743152D01*
X15838736Y-12743152D02*
X15857783Y-12714581D01*
X15857783Y-12714581D02*
X15867307Y-12705057D01*
X15943498Y-12800295D02*
X15943498Y-12933629D01*
X15943498Y-12819343D02*
X15953021Y-12809819D01*
X15953021Y-12809819D02*
X15972069Y-12800295D01*
X15972069Y-12800295D02*
X16000641Y-12800295D01*
X16000641Y-12800295D02*
X16019688Y-12809819D01*
X16019688Y-12809819D02*
X16029212Y-12828867D01*
X16029212Y-12828867D02*
X16029212Y-12933629D01*
X16153021Y-12933629D02*
X16133974Y-12924105D01*
X16133974Y-12924105D02*
X16124450Y-12914581D01*
X16124450Y-12914581D02*
X16114926Y-12895533D01*
X16114926Y-12895533D02*
X16114926Y-12838391D01*
X16114926Y-12838391D02*
X16124450Y-12819343D01*
X16124450Y-12819343D02*
X16133974Y-12809819D01*
X16133974Y-12809819D02*
X16153021Y-12800295D01*
X16153021Y-12800295D02*
X16181593Y-12800295D01*
X16181593Y-12800295D02*
X16200641Y-12809819D01*
X16200641Y-12809819D02*
X16210164Y-12819343D01*
X16210164Y-12819343D02*
X16219688Y-12838391D01*
X16219688Y-12838391D02*
X16219688Y-12895533D01*
X16219688Y-12895533D02*
X16210164Y-12914581D01*
X16210164Y-12914581D02*
X16200641Y-12924105D01*
X16200641Y-12924105D02*
X16181593Y-12933629D01*
X16181593Y-12933629D02*
X16153021Y-12933629D01*
X16276831Y-12800295D02*
X16353021Y-12800295D01*
X16305402Y-12733629D02*
X16305402Y-12905057D01*
X16305402Y-12905057D02*
X16314926Y-12924105D01*
X16314926Y-12924105D02*
X16333974Y-12933629D01*
X16333974Y-12933629D02*
X16353021Y-12933629D01*
X16572069Y-12800295D02*
X16572069Y-13000295D01*
X16572069Y-12809819D02*
X16591117Y-12800295D01*
X16591117Y-12800295D02*
X16629212Y-12800295D01*
X16629212Y-12800295D02*
X16648260Y-12809819D01*
X16648260Y-12809819D02*
X16657783Y-12819343D01*
X16657783Y-12819343D02*
X16667307Y-12838391D01*
X16667307Y-12838391D02*
X16667307Y-12895533D01*
X16667307Y-12895533D02*
X16657783Y-12914581D01*
X16657783Y-12914581D02*
X16648260Y-12924105D01*
X16648260Y-12924105D02*
X16629212Y-12933629D01*
X16629212Y-12933629D02*
X16591117Y-12933629D01*
X16591117Y-12933629D02*
X16572069Y-12924105D01*
X16781593Y-12933629D02*
X16762545Y-12924105D01*
X16762545Y-12924105D02*
X16753022Y-12905057D01*
X16753022Y-12905057D02*
X16753022Y-12733629D01*
X16943498Y-12933629D02*
X16943498Y-12828867D01*
X16943498Y-12828867D02*
X16933974Y-12809819D01*
X16933974Y-12809819D02*
X16914926Y-12800295D01*
X16914926Y-12800295D02*
X16876831Y-12800295D01*
X16876831Y-12800295D02*
X16857784Y-12809819D01*
X16943498Y-12924105D02*
X16924450Y-12933629D01*
X16924450Y-12933629D02*
X16876831Y-12933629D01*
X16876831Y-12933629D02*
X16857784Y-12924105D01*
X16857784Y-12924105D02*
X16848260Y-12905057D01*
X16848260Y-12905057D02*
X16848260Y-12886010D01*
X16848260Y-12886010D02*
X16857784Y-12866962D01*
X16857784Y-12866962D02*
X16876831Y-12857438D01*
X16876831Y-12857438D02*
X16924450Y-12857438D01*
X16924450Y-12857438D02*
X16943498Y-12847914D01*
X17010165Y-12800295D02*
X17086355Y-12800295D01*
X17038736Y-12733629D02*
X17038736Y-12905057D01*
X17038736Y-12905057D02*
X17048260Y-12924105D01*
X17048260Y-12924105D02*
X17067307Y-12933629D01*
X17067307Y-12933629D02*
X17086355Y-12933629D01*
X17229212Y-12924105D02*
X17210165Y-12933629D01*
X17210165Y-12933629D02*
X17172069Y-12933629D01*
X17172069Y-12933629D02*
X17153022Y-12924105D01*
X17153022Y-12924105D02*
X17143498Y-12905057D01*
X17143498Y-12905057D02*
X17143498Y-12828867D01*
X17143498Y-12828867D02*
X17153022Y-12809819D01*
X17153022Y-12809819D02*
X17172069Y-12800295D01*
X17172069Y-12800295D02*
X17210165Y-12800295D01*
X17210165Y-12800295D02*
X17229212Y-12809819D01*
X17229212Y-12809819D02*
X17238736Y-12828867D01*
X17238736Y-12828867D02*
X17238736Y-12847914D01*
X17238736Y-12847914D02*
X17143498Y-12866962D01*
X17410165Y-12933629D02*
X17410165Y-12733629D01*
X17410165Y-12924105D02*
X17391117Y-12933629D01*
X17391117Y-12933629D02*
X17353022Y-12933629D01*
X17353022Y-12933629D02*
X17333974Y-12924105D01*
X17333974Y-12924105D02*
X17324450Y-12914581D01*
X17324450Y-12914581D02*
X17314926Y-12895533D01*
X17314926Y-12895533D02*
X17314926Y-12838391D01*
X17314926Y-12838391D02*
X17324450Y-12819343D01*
X17324450Y-12819343D02*
X17333974Y-12809819D01*
X17333974Y-12809819D02*
X17353022Y-12800295D01*
X17353022Y-12800295D02*
X17391117Y-12800295D01*
X17391117Y-12800295D02*
X17410165Y-12809819D01*
X17486355Y-13009819D02*
X17495879Y-13000295D01*
X17495879Y-13000295D02*
X17514926Y-12971724D01*
X17514926Y-12971724D02*
X17524450Y-12952676D01*
X17524450Y-12952676D02*
X17533974Y-12924105D01*
X17533974Y-12924105D02*
X17543498Y-12876486D01*
X17543498Y-12876486D02*
X17543498Y-12838391D01*
X17543498Y-12838391D02*
X17533974Y-12790771D01*
X17533974Y-12790771D02*
X17524450Y-12762200D01*
X17524450Y-12762200D02*
X17514926Y-12743152D01*
X17514926Y-12743152D02*
X17495879Y-12714581D01*
X17495879Y-12714581D02*
X17486355Y-12705057D01*
X10630340Y-13062145D02*
X10630340Y-13262145D01*
X10530340Y-13162145D02*
X10730340Y-13162145D01*
X11086354Y-13053629D02*
X10991116Y-13053629D01*
X10991116Y-13053629D02*
X10981593Y-13148867D01*
X10981593Y-13148867D02*
X10991116Y-13139343D01*
X10991116Y-13139343D02*
X11010164Y-13129819D01*
X11010164Y-13129819D02*
X11057783Y-13129819D01*
X11057783Y-13129819D02*
X11076831Y-13139343D01*
X11076831Y-13139343D02*
X11086354Y-13148867D01*
X11086354Y-13148867D02*
X11095878Y-13167914D01*
X11095878Y-13167914D02*
X11095878Y-13215533D01*
X11095878Y-13215533D02*
X11086354Y-13234581D01*
X11086354Y-13234581D02*
X11076831Y-13244105D01*
X11076831Y-13244105D02*
X11057783Y-13253629D01*
X11057783Y-13253629D02*
X11010164Y-13253629D01*
X11010164Y-13253629D02*
X10991116Y-13244105D01*
X10991116Y-13244105D02*
X10981593Y-13234581D01*
X11181593Y-13234581D02*
X11191116Y-13244105D01*
X11191116Y-13244105D02*
X11181593Y-13253629D01*
X11181593Y-13253629D02*
X11172069Y-13244105D01*
X11172069Y-13244105D02*
X11181593Y-13234581D01*
X11181593Y-13234581D02*
X11181593Y-13253629D01*
X11381592Y-13253629D02*
X11267307Y-13253629D01*
X11324450Y-13253629D02*
X11324450Y-13053629D01*
X11324450Y-13053629D02*
X11305402Y-13082200D01*
X11305402Y-13082200D02*
X11286354Y-13101248D01*
X11286354Y-13101248D02*
X11267307Y-13110771D01*
X11505402Y-13053629D02*
X11524450Y-13053629D01*
X11524450Y-13053629D02*
X11543497Y-13063152D01*
X11543497Y-13063152D02*
X11553021Y-13072676D01*
X11553021Y-13072676D02*
X11562545Y-13091724D01*
X11562545Y-13091724D02*
X11572069Y-13129819D01*
X11572069Y-13129819D02*
X11572069Y-13177438D01*
X11572069Y-13177438D02*
X11562545Y-13215533D01*
X11562545Y-13215533D02*
X11553021Y-13234581D01*
X11553021Y-13234581D02*
X11543497Y-13244105D01*
X11543497Y-13244105D02*
X11524450Y-13253629D01*
X11524450Y-13253629D02*
X11505402Y-13253629D01*
X11505402Y-13253629D02*
X11486354Y-13244105D01*
X11486354Y-13244105D02*
X11476831Y-13234581D01*
X11476831Y-13234581D02*
X11467307Y-13215533D01*
X11467307Y-13215533D02*
X11457783Y-13177438D01*
X11457783Y-13177438D02*
X11457783Y-13129819D01*
X11457783Y-13129819D02*
X11467307Y-13091724D01*
X11467307Y-13091724D02*
X11476831Y-13072676D01*
X11476831Y-13072676D02*
X11486354Y-13063152D01*
X11486354Y-13063152D02*
X11505402Y-13053629D01*
X11695878Y-13053629D02*
X11714926Y-13053629D01*
X11714926Y-13053629D02*
X11733973Y-13063152D01*
X11733973Y-13063152D02*
X11743497Y-13072676D01*
X11743497Y-13072676D02*
X11753021Y-13091724D01*
X11753021Y-13091724D02*
X11762545Y-13129819D01*
X11762545Y-13129819D02*
X11762545Y-13177438D01*
X11762545Y-13177438D02*
X11753021Y-13215533D01*
X11753021Y-13215533D02*
X11743497Y-13234581D01*
X11743497Y-13234581D02*
X11733973Y-13244105D01*
X11733973Y-13244105D02*
X11714926Y-13253629D01*
X11714926Y-13253629D02*
X11695878Y-13253629D01*
X11695878Y-13253629D02*
X11676831Y-13244105D01*
X11676831Y-13244105D02*
X11667307Y-13234581D01*
X11667307Y-13234581D02*
X11657783Y-13215533D01*
X11657783Y-13215533D02*
X11648259Y-13177438D01*
X11648259Y-13177438D02*
X11648259Y-13129819D01*
X11648259Y-13129819D02*
X11657783Y-13091724D01*
X11657783Y-13091724D02*
X11667307Y-13072676D01*
X11667307Y-13072676D02*
X11676831Y-13063152D01*
X11676831Y-13063152D02*
X11695878Y-13053629D01*
X11848259Y-13253629D02*
X11848259Y-13120295D01*
X11848259Y-13139343D02*
X11857783Y-13129819D01*
X11857783Y-13129819D02*
X11876831Y-13120295D01*
X11876831Y-13120295D02*
X11905402Y-13120295D01*
X11905402Y-13120295D02*
X11924450Y-13129819D01*
X11924450Y-13129819D02*
X11933973Y-13148867D01*
X11933973Y-13148867D02*
X11933973Y-13253629D01*
X11933973Y-13148867D02*
X11943497Y-13129819D01*
X11943497Y-13129819D02*
X11962545Y-13120295D01*
X11962545Y-13120295D02*
X11991116Y-13120295D01*
X11991116Y-13120295D02*
X12010164Y-13129819D01*
X12010164Y-13129819D02*
X12019688Y-13148867D01*
X12019688Y-13148867D02*
X12019688Y-13253629D01*
X12114926Y-13253629D02*
X12114926Y-13120295D01*
X12114926Y-13139343D02*
X12124450Y-13129819D01*
X12124450Y-13129819D02*
X12143497Y-13120295D01*
X12143497Y-13120295D02*
X12172069Y-13120295D01*
X12172069Y-13120295D02*
X12191116Y-13129819D01*
X12191116Y-13129819D02*
X12200640Y-13148867D01*
X12200640Y-13148867D02*
X12200640Y-13253629D01*
X12200640Y-13148867D02*
X12210164Y-13129819D01*
X12210164Y-13129819D02*
X12229212Y-13120295D01*
X12229212Y-13120295D02*
X12257783Y-13120295D01*
X12257783Y-13120295D02*
X12276831Y-13129819D01*
X12276831Y-13129819D02*
X12286354Y-13148867D01*
X12286354Y-13148867D02*
X12286354Y-13253629D01*
X12676831Y-13044105D02*
X12505402Y-13301248D01*
X12933974Y-13053629D02*
X12953021Y-13053629D01*
X12953021Y-13053629D02*
X12972069Y-13063152D01*
X12972069Y-13063152D02*
X12981593Y-13072676D01*
X12981593Y-13072676D02*
X12991116Y-13091724D01*
X12991116Y-13091724D02*
X13000640Y-13129819D01*
X13000640Y-13129819D02*
X13000640Y-13177438D01*
X13000640Y-13177438D02*
X12991116Y-13215533D01*
X12991116Y-13215533D02*
X12981593Y-13234581D01*
X12981593Y-13234581D02*
X12972069Y-13244105D01*
X12972069Y-13244105D02*
X12953021Y-13253629D01*
X12953021Y-13253629D02*
X12933974Y-13253629D01*
X12933974Y-13253629D02*
X12914926Y-13244105D01*
X12914926Y-13244105D02*
X12905402Y-13234581D01*
X12905402Y-13234581D02*
X12895878Y-13215533D01*
X12895878Y-13215533D02*
X12886355Y-13177438D01*
X12886355Y-13177438D02*
X12886355Y-13129819D01*
X12886355Y-13129819D02*
X12895878Y-13091724D01*
X12895878Y-13091724D02*
X12905402Y-13072676D01*
X12905402Y-13072676D02*
X12914926Y-13063152D01*
X12914926Y-13063152D02*
X12933974Y-13053629D01*
X13086355Y-13234581D02*
X13095878Y-13244105D01*
X13095878Y-13244105D02*
X13086355Y-13253629D01*
X13086355Y-13253629D02*
X13076831Y-13244105D01*
X13076831Y-13244105D02*
X13086355Y-13234581D01*
X13086355Y-13234581D02*
X13086355Y-13253629D01*
X13172069Y-13072676D02*
X13181593Y-13063152D01*
X13181593Y-13063152D02*
X13200640Y-13053629D01*
X13200640Y-13053629D02*
X13248259Y-13053629D01*
X13248259Y-13053629D02*
X13267307Y-13063152D01*
X13267307Y-13063152D02*
X13276831Y-13072676D01*
X13276831Y-13072676D02*
X13286355Y-13091724D01*
X13286355Y-13091724D02*
X13286355Y-13110771D01*
X13286355Y-13110771D02*
X13276831Y-13139343D01*
X13276831Y-13139343D02*
X13162545Y-13253629D01*
X13162545Y-13253629D02*
X13286355Y-13253629D01*
X13410164Y-13053629D02*
X13429212Y-13053629D01*
X13429212Y-13053629D02*
X13448259Y-13063152D01*
X13448259Y-13063152D02*
X13457783Y-13072676D01*
X13457783Y-13072676D02*
X13467307Y-13091724D01*
X13467307Y-13091724D02*
X13476831Y-13129819D01*
X13476831Y-13129819D02*
X13476831Y-13177438D01*
X13476831Y-13177438D02*
X13467307Y-13215533D01*
X13467307Y-13215533D02*
X13457783Y-13234581D01*
X13457783Y-13234581D02*
X13448259Y-13244105D01*
X13448259Y-13244105D02*
X13429212Y-13253629D01*
X13429212Y-13253629D02*
X13410164Y-13253629D01*
X13410164Y-13253629D02*
X13391116Y-13244105D01*
X13391116Y-13244105D02*
X13381593Y-13234581D01*
X13381593Y-13234581D02*
X13372069Y-13215533D01*
X13372069Y-13215533D02*
X13362545Y-13177438D01*
X13362545Y-13177438D02*
X13362545Y-13129819D01*
X13362545Y-13129819D02*
X13372069Y-13091724D01*
X13372069Y-13091724D02*
X13381593Y-13072676D01*
X13381593Y-13072676D02*
X13391116Y-13063152D01*
X13391116Y-13063152D02*
X13410164Y-13053629D01*
X13600640Y-13053629D02*
X13619688Y-13053629D01*
X13619688Y-13053629D02*
X13638736Y-13063152D01*
X13638736Y-13063152D02*
X13648259Y-13072676D01*
X13648259Y-13072676D02*
X13657783Y-13091724D01*
X13657783Y-13091724D02*
X13667307Y-13129819D01*
X13667307Y-13129819D02*
X13667307Y-13177438D01*
X13667307Y-13177438D02*
X13657783Y-13215533D01*
X13657783Y-13215533D02*
X13648259Y-13234581D01*
X13648259Y-13234581D02*
X13638736Y-13244105D01*
X13638736Y-13244105D02*
X13619688Y-13253629D01*
X13619688Y-13253629D02*
X13600640Y-13253629D01*
X13600640Y-13253629D02*
X13581593Y-13244105D01*
X13581593Y-13244105D02*
X13572069Y-13234581D01*
X13572069Y-13234581D02*
X13562545Y-13215533D01*
X13562545Y-13215533D02*
X13553021Y-13177438D01*
X13553021Y-13177438D02*
X13553021Y-13129819D01*
X13553021Y-13129819D02*
X13562545Y-13091724D01*
X13562545Y-13091724D02*
X13572069Y-13072676D01*
X13572069Y-13072676D02*
X13581593Y-13063152D01*
X13581593Y-13063152D02*
X13600640Y-13053629D01*
X13781593Y-13139343D02*
X13762545Y-13129819D01*
X13762545Y-13129819D02*
X13753021Y-13120295D01*
X13753021Y-13120295D02*
X13743497Y-13101248D01*
X13743497Y-13101248D02*
X13743497Y-13091724D01*
X13743497Y-13091724D02*
X13753021Y-13072676D01*
X13753021Y-13072676D02*
X13762545Y-13063152D01*
X13762545Y-13063152D02*
X13781593Y-13053629D01*
X13781593Y-13053629D02*
X13819688Y-13053629D01*
X13819688Y-13053629D02*
X13838736Y-13063152D01*
X13838736Y-13063152D02*
X13848259Y-13072676D01*
X13848259Y-13072676D02*
X13857783Y-13091724D01*
X13857783Y-13091724D02*
X13857783Y-13101248D01*
X13857783Y-13101248D02*
X13848259Y-13120295D01*
X13848259Y-13120295D02*
X13838736Y-13129819D01*
X13838736Y-13129819D02*
X13819688Y-13139343D01*
X13819688Y-13139343D02*
X13781593Y-13139343D01*
X13781593Y-13139343D02*
X13762545Y-13148867D01*
X13762545Y-13148867D02*
X13753021Y-13158391D01*
X13753021Y-13158391D02*
X13743497Y-13177438D01*
X13743497Y-13177438D02*
X13743497Y-13215533D01*
X13743497Y-13215533D02*
X13753021Y-13234581D01*
X13753021Y-13234581D02*
X13762545Y-13244105D01*
X13762545Y-13244105D02*
X13781593Y-13253629D01*
X13781593Y-13253629D02*
X13819688Y-13253629D01*
X13819688Y-13253629D02*
X13838736Y-13244105D01*
X13838736Y-13244105D02*
X13848259Y-13234581D01*
X13848259Y-13234581D02*
X13857783Y-13215533D01*
X13857783Y-13215533D02*
X13857783Y-13177438D01*
X13857783Y-13177438D02*
X13848259Y-13158391D01*
X13848259Y-13158391D02*
X13838736Y-13148867D01*
X13838736Y-13148867D02*
X13819688Y-13139343D01*
X13933974Y-13053629D02*
X13933974Y-13091724D01*
X14010164Y-13053629D02*
X14010164Y-13091724D01*
X14305402Y-13329819D02*
X14295878Y-13320295D01*
X14295878Y-13320295D02*
X14276831Y-13291724D01*
X14276831Y-13291724D02*
X14267307Y-13272676D01*
X14267307Y-13272676D02*
X14257783Y-13244105D01*
X14257783Y-13244105D02*
X14248259Y-13196486D01*
X14248259Y-13196486D02*
X14248259Y-13158391D01*
X14248259Y-13158391D02*
X14257783Y-13110771D01*
X14257783Y-13110771D02*
X14267307Y-13082200D01*
X14267307Y-13082200D02*
X14276831Y-13063152D01*
X14276831Y-13063152D02*
X14295878Y-13034581D01*
X14295878Y-13034581D02*
X14305402Y-13025057D01*
X14362545Y-13053629D02*
X14486355Y-13053629D01*
X14486355Y-13053629D02*
X14419688Y-13129819D01*
X14419688Y-13129819D02*
X14448259Y-13129819D01*
X14448259Y-13129819D02*
X14467307Y-13139343D01*
X14467307Y-13139343D02*
X14476831Y-13148867D01*
X14476831Y-13148867D02*
X14486355Y-13167914D01*
X14486355Y-13167914D02*
X14486355Y-13215533D01*
X14486355Y-13215533D02*
X14476831Y-13234581D01*
X14476831Y-13234581D02*
X14467307Y-13244105D01*
X14467307Y-13244105D02*
X14448259Y-13253629D01*
X14448259Y-13253629D02*
X14391117Y-13253629D01*
X14391117Y-13253629D02*
X14372069Y-13244105D01*
X14372069Y-13244105D02*
X14362545Y-13234581D01*
X14724450Y-13253629D02*
X14724450Y-13053629D01*
X14810164Y-13253629D02*
X14810164Y-13148867D01*
X14810164Y-13148867D02*
X14800640Y-13129819D01*
X14800640Y-13129819D02*
X14781593Y-13120295D01*
X14781593Y-13120295D02*
X14753021Y-13120295D01*
X14753021Y-13120295D02*
X14733974Y-13129819D01*
X14733974Y-13129819D02*
X14724450Y-13139343D01*
X14933974Y-13253629D02*
X14914926Y-13244105D01*
X14914926Y-13244105D02*
X14905402Y-13234581D01*
X14905402Y-13234581D02*
X14895879Y-13215533D01*
X14895879Y-13215533D02*
X14895879Y-13158391D01*
X14895879Y-13158391D02*
X14905402Y-13139343D01*
X14905402Y-13139343D02*
X14914926Y-13129819D01*
X14914926Y-13129819D02*
X14933974Y-13120295D01*
X14933974Y-13120295D02*
X14962545Y-13120295D01*
X14962545Y-13120295D02*
X14981593Y-13129819D01*
X14981593Y-13129819D02*
X14991117Y-13139343D01*
X14991117Y-13139343D02*
X15000640Y-13158391D01*
X15000640Y-13158391D02*
X15000640Y-13215533D01*
X15000640Y-13215533D02*
X14991117Y-13234581D01*
X14991117Y-13234581D02*
X14981593Y-13244105D01*
X14981593Y-13244105D02*
X14962545Y-13253629D01*
X14962545Y-13253629D02*
X14933974Y-13253629D01*
X15114926Y-13253629D02*
X15095879Y-13244105D01*
X15095879Y-13244105D02*
X15086355Y-13225057D01*
X15086355Y-13225057D02*
X15086355Y-13053629D01*
X15267307Y-13244105D02*
X15248260Y-13253629D01*
X15248260Y-13253629D02*
X15210164Y-13253629D01*
X15210164Y-13253629D02*
X15191117Y-13244105D01*
X15191117Y-13244105D02*
X15181593Y-13225057D01*
X15181593Y-13225057D02*
X15181593Y-13148867D01*
X15181593Y-13148867D02*
X15191117Y-13129819D01*
X15191117Y-13129819D02*
X15210164Y-13120295D01*
X15210164Y-13120295D02*
X15248260Y-13120295D01*
X15248260Y-13120295D02*
X15267307Y-13129819D01*
X15267307Y-13129819D02*
X15276831Y-13148867D01*
X15276831Y-13148867D02*
X15276831Y-13167914D01*
X15276831Y-13167914D02*
X15181593Y-13186962D01*
X15353021Y-13244105D02*
X15372069Y-13253629D01*
X15372069Y-13253629D02*
X15410164Y-13253629D01*
X15410164Y-13253629D02*
X15429212Y-13244105D01*
X15429212Y-13244105D02*
X15438736Y-13225057D01*
X15438736Y-13225057D02*
X15438736Y-13215533D01*
X15438736Y-13215533D02*
X15429212Y-13196486D01*
X15429212Y-13196486D02*
X15410164Y-13186962D01*
X15410164Y-13186962D02*
X15381593Y-13186962D01*
X15381593Y-13186962D02*
X15362545Y-13177438D01*
X15362545Y-13177438D02*
X15353021Y-13158391D01*
X15353021Y-13158391D02*
X15353021Y-13148867D01*
X15353021Y-13148867D02*
X15362545Y-13129819D01*
X15362545Y-13129819D02*
X15381593Y-13120295D01*
X15381593Y-13120295D02*
X15410164Y-13120295D01*
X15410164Y-13120295D02*
X15429212Y-13129819D01*
X15505402Y-13329819D02*
X15514926Y-13320295D01*
X15514926Y-13320295D02*
X15533974Y-13291724D01*
X15533974Y-13291724D02*
X15543498Y-13272676D01*
X15543498Y-13272676D02*
X15553021Y-13244105D01*
X15553021Y-13244105D02*
X15562545Y-13196486D01*
X15562545Y-13196486D02*
X15562545Y-13158391D01*
X15562545Y-13158391D02*
X15553021Y-13110771D01*
X15553021Y-13110771D02*
X15543498Y-13082200D01*
X15543498Y-13082200D02*
X15533974Y-13063152D01*
X15533974Y-13063152D02*
X15514926Y-13034581D01*
X15514926Y-13034581D02*
X15505402Y-13025057D01*
X15867307Y-13329819D02*
X15857783Y-13320295D01*
X15857783Y-13320295D02*
X15838736Y-13291724D01*
X15838736Y-13291724D02*
X15829212Y-13272676D01*
X15829212Y-13272676D02*
X15819688Y-13244105D01*
X15819688Y-13244105D02*
X15810164Y-13196486D01*
X15810164Y-13196486D02*
X15810164Y-13158391D01*
X15810164Y-13158391D02*
X15819688Y-13110771D01*
X15819688Y-13110771D02*
X15829212Y-13082200D01*
X15829212Y-13082200D02*
X15838736Y-13063152D01*
X15838736Y-13063152D02*
X15857783Y-13034581D01*
X15857783Y-13034581D02*
X15867307Y-13025057D01*
X15943498Y-13120295D02*
X15943498Y-13253629D01*
X15943498Y-13139343D02*
X15953021Y-13129819D01*
X15953021Y-13129819D02*
X15972069Y-13120295D01*
X15972069Y-13120295D02*
X16000641Y-13120295D01*
X16000641Y-13120295D02*
X16019688Y-13129819D01*
X16019688Y-13129819D02*
X16029212Y-13148867D01*
X16029212Y-13148867D02*
X16029212Y-13253629D01*
X16153021Y-13253629D02*
X16133974Y-13244105D01*
X16133974Y-13244105D02*
X16124450Y-13234581D01*
X16124450Y-13234581D02*
X16114926Y-13215533D01*
X16114926Y-13215533D02*
X16114926Y-13158391D01*
X16114926Y-13158391D02*
X16124450Y-13139343D01*
X16124450Y-13139343D02*
X16133974Y-13129819D01*
X16133974Y-13129819D02*
X16153021Y-13120295D01*
X16153021Y-13120295D02*
X16181593Y-13120295D01*
X16181593Y-13120295D02*
X16200641Y-13129819D01*
X16200641Y-13129819D02*
X16210164Y-13139343D01*
X16210164Y-13139343D02*
X16219688Y-13158391D01*
X16219688Y-13158391D02*
X16219688Y-13215533D01*
X16219688Y-13215533D02*
X16210164Y-13234581D01*
X16210164Y-13234581D02*
X16200641Y-13244105D01*
X16200641Y-13244105D02*
X16181593Y-13253629D01*
X16181593Y-13253629D02*
X16153021Y-13253629D01*
X16276831Y-13120295D02*
X16353021Y-13120295D01*
X16305402Y-13053629D02*
X16305402Y-13225057D01*
X16305402Y-13225057D02*
X16314926Y-13244105D01*
X16314926Y-13244105D02*
X16333974Y-13253629D01*
X16333974Y-13253629D02*
X16353021Y-13253629D01*
X16572069Y-13120295D02*
X16572069Y-13320295D01*
X16572069Y-13129819D02*
X16591117Y-13120295D01*
X16591117Y-13120295D02*
X16629212Y-13120295D01*
X16629212Y-13120295D02*
X16648260Y-13129819D01*
X16648260Y-13129819D02*
X16657783Y-13139343D01*
X16657783Y-13139343D02*
X16667307Y-13158391D01*
X16667307Y-13158391D02*
X16667307Y-13215533D01*
X16667307Y-13215533D02*
X16657783Y-13234581D01*
X16657783Y-13234581D02*
X16648260Y-13244105D01*
X16648260Y-13244105D02*
X16629212Y-13253629D01*
X16629212Y-13253629D02*
X16591117Y-13253629D01*
X16591117Y-13253629D02*
X16572069Y-13244105D01*
X16781593Y-13253629D02*
X16762545Y-13244105D01*
X16762545Y-13244105D02*
X16753022Y-13225057D01*
X16753022Y-13225057D02*
X16753022Y-13053629D01*
X16943498Y-13253629D02*
X16943498Y-13148867D01*
X16943498Y-13148867D02*
X16933974Y-13129819D01*
X16933974Y-13129819D02*
X16914926Y-13120295D01*
X16914926Y-13120295D02*
X16876831Y-13120295D01*
X16876831Y-13120295D02*
X16857784Y-13129819D01*
X16943498Y-13244105D02*
X16924450Y-13253629D01*
X16924450Y-13253629D02*
X16876831Y-13253629D01*
X16876831Y-13253629D02*
X16857784Y-13244105D01*
X16857784Y-13244105D02*
X16848260Y-13225057D01*
X16848260Y-13225057D02*
X16848260Y-13206010D01*
X16848260Y-13206010D02*
X16857784Y-13186962D01*
X16857784Y-13186962D02*
X16876831Y-13177438D01*
X16876831Y-13177438D02*
X16924450Y-13177438D01*
X16924450Y-13177438D02*
X16943498Y-13167914D01*
X17010165Y-13120295D02*
X17086355Y-13120295D01*
X17038736Y-13053629D02*
X17038736Y-13225057D01*
X17038736Y-13225057D02*
X17048260Y-13244105D01*
X17048260Y-13244105D02*
X17067307Y-13253629D01*
X17067307Y-13253629D02*
X17086355Y-13253629D01*
X17229212Y-13244105D02*
X17210165Y-13253629D01*
X17210165Y-13253629D02*
X17172069Y-13253629D01*
X17172069Y-13253629D02*
X17153022Y-13244105D01*
X17153022Y-13244105D02*
X17143498Y-13225057D01*
X17143498Y-13225057D02*
X17143498Y-13148867D01*
X17143498Y-13148867D02*
X17153022Y-13129819D01*
X17153022Y-13129819D02*
X17172069Y-13120295D01*
X17172069Y-13120295D02*
X17210165Y-13120295D01*
X17210165Y-13120295D02*
X17229212Y-13129819D01*
X17229212Y-13129819D02*
X17238736Y-13148867D01*
X17238736Y-13148867D02*
X17238736Y-13167914D01*
X17238736Y-13167914D02*
X17143498Y-13186962D01*
X17410165Y-13253629D02*
X17410165Y-13053629D01*
X17410165Y-13244105D02*
X17391117Y-13253629D01*
X17391117Y-13253629D02*
X17353022Y-13253629D01*
X17353022Y-13253629D02*
X17333974Y-13244105D01*
X17333974Y-13244105D02*
X17324450Y-13234581D01*
X17324450Y-13234581D02*
X17314926Y-13215533D01*
X17314926Y-13215533D02*
X17314926Y-13158391D01*
X17314926Y-13158391D02*
X17324450Y-13139343D01*
X17324450Y-13139343D02*
X17333974Y-13129819D01*
X17333974Y-13129819D02*
X17353022Y-13120295D01*
X17353022Y-13120295D02*
X17391117Y-13120295D01*
X17391117Y-13120295D02*
X17410165Y-13129819D01*
X17486355Y-13329819D02*
X17495879Y-13320295D01*
X17495879Y-13320295D02*
X17514926Y-13291724D01*
X17514926Y-13291724D02*
X17524450Y-13272676D01*
X17524450Y-13272676D02*
X17533974Y-13244105D01*
X17533974Y-13244105D02*
X17543498Y-13196486D01*
X17543498Y-13196486D02*
X17543498Y-13158391D01*
X17543498Y-13158391D02*
X17533974Y-13110771D01*
X17533974Y-13110771D02*
X17524450Y-13082200D01*
X17524450Y-13082200D02*
X17514926Y-13063152D01*
X17514926Y-13063152D02*
X17495879Y-13034581D01*
X17495879Y-13034581D02*
X17486355Y-13025057D01*
M02*
