%TF.GenerationSoftware,KiCad,Pcbnew,7.0.5*%
%TF.CreationDate,2023-08-03T23:11:39+08:00*%
%TF.ProjectId,RT,52542e6b-6963-4616-945f-706362585858,rev?*%
%TF.SameCoordinates,Original*%
%TF.FileFunction,Drillmap*%
%TF.FilePolarity,Positive*%
%FSLAX45Y45*%
G04 Gerber Fmt 4.5, Leading zero omitted, Abs format (unit mm)*
G04 Created by KiCad (PCBNEW 7.0.5) date 2023-08-03 23:11:39*
%MOMM*%
%LPD*%
G01*
G04 APERTURE LIST*
%ADD10C,0.100000*%
%ADD11C,0.200000*%
%ADD12C,0.150000*%
G04 APERTURE END LIST*
D10*
X13251500Y-11097500D02*
X17711500Y-11097500D01*
X17761500Y-9242500D02*
X17761500Y-11047500D01*
X13763000Y-9192500D02*
X13763000Y-8938000D01*
X13763000Y-9192500D02*
X17711500Y-9192500D01*
X17761500Y-9242500D02*
G75*
G03*
X17711500Y-9192500I-50000J0D01*
G01*
X12446409Y-9370987D02*
X12747000Y-9231000D01*
X12747000Y-8938000D02*
X12747000Y-9231000D01*
X13763000Y-8938000D02*
X12747000Y-8938000D01*
X17711500Y-11097500D02*
G75*
G03*
X17761500Y-11047500I0J50000D01*
G01*
D11*
D10*
X12824000Y-9015000D02*
X12924000Y-9115000D01*
X12924000Y-9015000D02*
X12824000Y-9115000D01*
X13078000Y-9015000D02*
X13178000Y-9115000D01*
X13178000Y-9015000D02*
X13078000Y-9115000D01*
X13332000Y-9015000D02*
X13432000Y-9115000D01*
X13432000Y-9015000D02*
X13332000Y-9115000D01*
X13586000Y-9015000D02*
X13686000Y-9115000D01*
X13686000Y-9015000D02*
X13586000Y-9115000D01*
D12*
X11608047Y-10567605D02*
G75*
G03*
X11608047Y-10567605I-75000J0D01*
G01*
X11814343Y-11220601D02*
G75*
G03*
X11814343Y-11220601I-75000J0D01*
G01*
D11*
X11821030Y-11182492D02*
X11735584Y-11130540D01*
X11735584Y-11130540D02*
G75*
G03*
X11657656Y-11258709I-38964J-64084D01*
G01*
X11657656Y-11258709D02*
X11743102Y-11310661D01*
X11743102Y-11310661D02*
G75*
G03*
X11821030Y-11182492I38964J64084D01*
G01*
D12*
X12075362Y-10067227D02*
G75*
G03*
X12075362Y-10067227I-75000J0D01*
G01*
X12298314Y-9963263D02*
G75*
G03*
X12298314Y-9963263I-75000J0D01*
G01*
D11*
X12291287Y-9931567D02*
X12291287Y-9931567D01*
X12291287Y-9931567D02*
G75*
G03*
X12155341Y-9994960I-67973J-31696D01*
G01*
X12155341Y-9994960D02*
X12155341Y-9994960D01*
X12155341Y-9994960D02*
G75*
G03*
X12291287Y-9931567I67973J31696D01*
G01*
D12*
X12310040Y-11171511D02*
G75*
G03*
X12310040Y-11171511I-75000J0D01*
G01*
X12545680Y-11061630D02*
G75*
G03*
X12545680Y-11061630I-75000J0D01*
G01*
X13809000Y-10570000D02*
G75*
G03*
X13809000Y-10570000I-75000J0D01*
G01*
D11*
X13824139Y-10569984D02*
X13768654Y-10486789D01*
X13768654Y-10486789D02*
G75*
G03*
X13643861Y-10570016I-62397J-41613D01*
G01*
X13643861Y-10570016D02*
X13699346Y-10653211D01*
X13699346Y-10653211D02*
G75*
G03*
X13824139Y-10569984I62397J41613D01*
G01*
D12*
X13898000Y-9891000D02*
G75*
G03*
X13898000Y-9891000I-75000J0D01*
G01*
X14279000Y-10735000D02*
G75*
G03*
X14279000Y-10735000I-75000J0D01*
G01*
X14533000Y-9635000D02*
G75*
G03*
X14533000Y-9635000I-75000J0D01*
G01*
X14539000Y-10735000D02*
G75*
G03*
X14539000Y-10735000I-75000J0D01*
G01*
X14779000Y-9635000D02*
G75*
G03*
X14779000Y-9635000I-75000J0D01*
G01*
D11*
X14779000Y-9635000D02*
X14779000Y-9635000D01*
X14779000Y-9635000D02*
G75*
G03*
X14629000Y-9635000I-75000J0D01*
G01*
X14629000Y-9635000D02*
X14629000Y-9635000D01*
X14629000Y-9635000D02*
G75*
G03*
X14779000Y-9635000I75000J0D01*
G01*
D12*
X15714000Y-10570000D02*
G75*
G03*
X15714000Y-10570000I-75000J0D01*
G01*
D11*
X15729139Y-10569984D02*
X15673654Y-10486789D01*
X15673654Y-10486789D02*
G75*
G03*
X15548861Y-10570016I-62397J-41613D01*
G01*
X15548861Y-10570016D02*
X15604346Y-10653211D01*
X15604346Y-10653211D02*
G75*
G03*
X15729139Y-10569984I62397J41613D01*
G01*
D12*
X15803000Y-9891000D02*
G75*
G03*
X15803000Y-9891000I-75000J0D01*
G01*
X16184000Y-10735000D02*
G75*
G03*
X16184000Y-10735000I-75000J0D01*
G01*
X16438000Y-9635000D02*
G75*
G03*
X16438000Y-9635000I-75000J0D01*
G01*
X16444000Y-10735000D02*
G75*
G03*
X16444000Y-10735000I-75000J0D01*
G01*
X16684000Y-9635000D02*
G75*
G03*
X16684000Y-9635000I-75000J0D01*
G01*
D11*
X16684000Y-9635000D02*
X16684000Y-9635000D01*
X16684000Y-9635000D02*
G75*
G03*
X16534000Y-9635000I-75000J0D01*
G01*
X16534000Y-9635000D02*
X16534000Y-9635000D01*
X16534000Y-9635000D02*
G75*
G03*
X16684000Y-9635000I75000J0D01*
G01*
X10991116Y-12203629D02*
X10991116Y-12003629D01*
X10991116Y-12003629D02*
X11038735Y-12003629D01*
X11038735Y-12003629D02*
X11067307Y-12013152D01*
X11067307Y-12013152D02*
X11086354Y-12032200D01*
X11086354Y-12032200D02*
X11095878Y-12051248D01*
X11095878Y-12051248D02*
X11105402Y-12089343D01*
X11105402Y-12089343D02*
X11105402Y-12117914D01*
X11105402Y-12117914D02*
X11095878Y-12156010D01*
X11095878Y-12156010D02*
X11086354Y-12175057D01*
X11086354Y-12175057D02*
X11067307Y-12194105D01*
X11067307Y-12194105D02*
X11038735Y-12203629D01*
X11038735Y-12203629D02*
X10991116Y-12203629D01*
X11191116Y-12203629D02*
X11191116Y-12070295D01*
X11191116Y-12108391D02*
X11200640Y-12089343D01*
X11200640Y-12089343D02*
X11210164Y-12079819D01*
X11210164Y-12079819D02*
X11229211Y-12070295D01*
X11229211Y-12070295D02*
X11248259Y-12070295D01*
X11314926Y-12203629D02*
X11314926Y-12070295D01*
X11314926Y-12003629D02*
X11305402Y-12013152D01*
X11305402Y-12013152D02*
X11314926Y-12022676D01*
X11314926Y-12022676D02*
X11324450Y-12013152D01*
X11324450Y-12013152D02*
X11314926Y-12003629D01*
X11314926Y-12003629D02*
X11314926Y-12022676D01*
X11438735Y-12203629D02*
X11419688Y-12194105D01*
X11419688Y-12194105D02*
X11410164Y-12175057D01*
X11410164Y-12175057D02*
X11410164Y-12003629D01*
X11543497Y-12203629D02*
X11524450Y-12194105D01*
X11524450Y-12194105D02*
X11514926Y-12175057D01*
X11514926Y-12175057D02*
X11514926Y-12003629D01*
X11772069Y-12203629D02*
X11772069Y-12003629D01*
X11772069Y-12003629D02*
X11838735Y-12146486D01*
X11838735Y-12146486D02*
X11905402Y-12003629D01*
X11905402Y-12003629D02*
X11905402Y-12203629D01*
X12086354Y-12203629D02*
X12086354Y-12098867D01*
X12086354Y-12098867D02*
X12076831Y-12079819D01*
X12076831Y-12079819D02*
X12057783Y-12070295D01*
X12057783Y-12070295D02*
X12019688Y-12070295D01*
X12019688Y-12070295D02*
X12000640Y-12079819D01*
X12086354Y-12194105D02*
X12067307Y-12203629D01*
X12067307Y-12203629D02*
X12019688Y-12203629D01*
X12019688Y-12203629D02*
X12000640Y-12194105D01*
X12000640Y-12194105D02*
X11991116Y-12175057D01*
X11991116Y-12175057D02*
X11991116Y-12156010D01*
X11991116Y-12156010D02*
X12000640Y-12136962D01*
X12000640Y-12136962D02*
X12019688Y-12127438D01*
X12019688Y-12127438D02*
X12067307Y-12127438D01*
X12067307Y-12127438D02*
X12086354Y-12117914D01*
X12181592Y-12070295D02*
X12181592Y-12270295D01*
X12181592Y-12079819D02*
X12200640Y-12070295D01*
X12200640Y-12070295D02*
X12238735Y-12070295D01*
X12238735Y-12070295D02*
X12257783Y-12079819D01*
X12257783Y-12079819D02*
X12267307Y-12089343D01*
X12267307Y-12089343D02*
X12276831Y-12108391D01*
X12276831Y-12108391D02*
X12276831Y-12165533D01*
X12276831Y-12165533D02*
X12267307Y-12184581D01*
X12267307Y-12184581D02*
X12257783Y-12194105D01*
X12257783Y-12194105D02*
X12238735Y-12203629D01*
X12238735Y-12203629D02*
X12200640Y-12203629D01*
X12200640Y-12203629D02*
X12181592Y-12194105D01*
X12362545Y-12184581D02*
X12372069Y-12194105D01*
X12372069Y-12194105D02*
X12362545Y-12203629D01*
X12362545Y-12203629D02*
X12353021Y-12194105D01*
X12353021Y-12194105D02*
X12362545Y-12184581D01*
X12362545Y-12184581D02*
X12362545Y-12203629D01*
X12362545Y-12079819D02*
X12372069Y-12089343D01*
X12372069Y-12089343D02*
X12362545Y-12098867D01*
X12362545Y-12098867D02*
X12353021Y-12089343D01*
X12353021Y-12089343D02*
X12362545Y-12079819D01*
X12362545Y-12079819D02*
X12362545Y-12098867D01*
D10*
X10630340Y-12482145D02*
X10730340Y-12582145D01*
X10730340Y-12482145D02*
X10630340Y-12582145D01*
D11*
X11095878Y-12623629D02*
X10981593Y-12623629D01*
X11038735Y-12623629D02*
X11038735Y-12423629D01*
X11038735Y-12423629D02*
X11019688Y-12452200D01*
X11019688Y-12452200D02*
X11000640Y-12471248D01*
X11000640Y-12471248D02*
X10981593Y-12480771D01*
X11181593Y-12604581D02*
X11191116Y-12614105D01*
X11191116Y-12614105D02*
X11181593Y-12623629D01*
X11181593Y-12623629D02*
X11172069Y-12614105D01*
X11172069Y-12614105D02*
X11181593Y-12604581D01*
X11181593Y-12604581D02*
X11181593Y-12623629D01*
X11314926Y-12423629D02*
X11333973Y-12423629D01*
X11333973Y-12423629D02*
X11353021Y-12433152D01*
X11353021Y-12433152D02*
X11362545Y-12442676D01*
X11362545Y-12442676D02*
X11372069Y-12461724D01*
X11372069Y-12461724D02*
X11381592Y-12499819D01*
X11381592Y-12499819D02*
X11381592Y-12547438D01*
X11381592Y-12547438D02*
X11372069Y-12585533D01*
X11372069Y-12585533D02*
X11362545Y-12604581D01*
X11362545Y-12604581D02*
X11353021Y-12614105D01*
X11353021Y-12614105D02*
X11333973Y-12623629D01*
X11333973Y-12623629D02*
X11314926Y-12623629D01*
X11314926Y-12623629D02*
X11295878Y-12614105D01*
X11295878Y-12614105D02*
X11286354Y-12604581D01*
X11286354Y-12604581D02*
X11276831Y-12585533D01*
X11276831Y-12585533D02*
X11267307Y-12547438D01*
X11267307Y-12547438D02*
X11267307Y-12499819D01*
X11267307Y-12499819D02*
X11276831Y-12461724D01*
X11276831Y-12461724D02*
X11286354Y-12442676D01*
X11286354Y-12442676D02*
X11295878Y-12433152D01*
X11295878Y-12433152D02*
X11314926Y-12423629D01*
X11505402Y-12423629D02*
X11524450Y-12423629D01*
X11524450Y-12423629D02*
X11543497Y-12433152D01*
X11543497Y-12433152D02*
X11553021Y-12442676D01*
X11553021Y-12442676D02*
X11562545Y-12461724D01*
X11562545Y-12461724D02*
X11572069Y-12499819D01*
X11572069Y-12499819D02*
X11572069Y-12547438D01*
X11572069Y-12547438D02*
X11562545Y-12585533D01*
X11562545Y-12585533D02*
X11553021Y-12604581D01*
X11553021Y-12604581D02*
X11543497Y-12614105D01*
X11543497Y-12614105D02*
X11524450Y-12623629D01*
X11524450Y-12623629D02*
X11505402Y-12623629D01*
X11505402Y-12623629D02*
X11486354Y-12614105D01*
X11486354Y-12614105D02*
X11476831Y-12604581D01*
X11476831Y-12604581D02*
X11467307Y-12585533D01*
X11467307Y-12585533D02*
X11457783Y-12547438D01*
X11457783Y-12547438D02*
X11457783Y-12499819D01*
X11457783Y-12499819D02*
X11467307Y-12461724D01*
X11467307Y-12461724D02*
X11476831Y-12442676D01*
X11476831Y-12442676D02*
X11486354Y-12433152D01*
X11486354Y-12433152D02*
X11505402Y-12423629D01*
X11695878Y-12423629D02*
X11714926Y-12423629D01*
X11714926Y-12423629D02*
X11733973Y-12433152D01*
X11733973Y-12433152D02*
X11743497Y-12442676D01*
X11743497Y-12442676D02*
X11753021Y-12461724D01*
X11753021Y-12461724D02*
X11762545Y-12499819D01*
X11762545Y-12499819D02*
X11762545Y-12547438D01*
X11762545Y-12547438D02*
X11753021Y-12585533D01*
X11753021Y-12585533D02*
X11743497Y-12604581D01*
X11743497Y-12604581D02*
X11733973Y-12614105D01*
X11733973Y-12614105D02*
X11714926Y-12623629D01*
X11714926Y-12623629D02*
X11695878Y-12623629D01*
X11695878Y-12623629D02*
X11676831Y-12614105D01*
X11676831Y-12614105D02*
X11667307Y-12604581D01*
X11667307Y-12604581D02*
X11657783Y-12585533D01*
X11657783Y-12585533D02*
X11648259Y-12547438D01*
X11648259Y-12547438D02*
X11648259Y-12499819D01*
X11648259Y-12499819D02*
X11657783Y-12461724D01*
X11657783Y-12461724D02*
X11667307Y-12442676D01*
X11667307Y-12442676D02*
X11676831Y-12433152D01*
X11676831Y-12433152D02*
X11695878Y-12423629D01*
X11848259Y-12623629D02*
X11848259Y-12490295D01*
X11848259Y-12509343D02*
X11857783Y-12499819D01*
X11857783Y-12499819D02*
X11876831Y-12490295D01*
X11876831Y-12490295D02*
X11905402Y-12490295D01*
X11905402Y-12490295D02*
X11924450Y-12499819D01*
X11924450Y-12499819D02*
X11933973Y-12518867D01*
X11933973Y-12518867D02*
X11933973Y-12623629D01*
X11933973Y-12518867D02*
X11943497Y-12499819D01*
X11943497Y-12499819D02*
X11962545Y-12490295D01*
X11962545Y-12490295D02*
X11991116Y-12490295D01*
X11991116Y-12490295D02*
X12010164Y-12499819D01*
X12010164Y-12499819D02*
X12019688Y-12518867D01*
X12019688Y-12518867D02*
X12019688Y-12623629D01*
X12114926Y-12623629D02*
X12114926Y-12490295D01*
X12114926Y-12509343D02*
X12124450Y-12499819D01*
X12124450Y-12499819D02*
X12143497Y-12490295D01*
X12143497Y-12490295D02*
X12172069Y-12490295D01*
X12172069Y-12490295D02*
X12191116Y-12499819D01*
X12191116Y-12499819D02*
X12200640Y-12518867D01*
X12200640Y-12518867D02*
X12200640Y-12623629D01*
X12200640Y-12518867D02*
X12210164Y-12499819D01*
X12210164Y-12499819D02*
X12229212Y-12490295D01*
X12229212Y-12490295D02*
X12257783Y-12490295D01*
X12257783Y-12490295D02*
X12276831Y-12499819D01*
X12276831Y-12499819D02*
X12286354Y-12518867D01*
X12286354Y-12518867D02*
X12286354Y-12623629D01*
X12676831Y-12414105D02*
X12505402Y-12671248D01*
X12933974Y-12423629D02*
X12953021Y-12423629D01*
X12953021Y-12423629D02*
X12972069Y-12433152D01*
X12972069Y-12433152D02*
X12981593Y-12442676D01*
X12981593Y-12442676D02*
X12991116Y-12461724D01*
X12991116Y-12461724D02*
X13000640Y-12499819D01*
X13000640Y-12499819D02*
X13000640Y-12547438D01*
X13000640Y-12547438D02*
X12991116Y-12585533D01*
X12991116Y-12585533D02*
X12981593Y-12604581D01*
X12981593Y-12604581D02*
X12972069Y-12614105D01*
X12972069Y-12614105D02*
X12953021Y-12623629D01*
X12953021Y-12623629D02*
X12933974Y-12623629D01*
X12933974Y-12623629D02*
X12914926Y-12614105D01*
X12914926Y-12614105D02*
X12905402Y-12604581D01*
X12905402Y-12604581D02*
X12895878Y-12585533D01*
X12895878Y-12585533D02*
X12886355Y-12547438D01*
X12886355Y-12547438D02*
X12886355Y-12499819D01*
X12886355Y-12499819D02*
X12895878Y-12461724D01*
X12895878Y-12461724D02*
X12905402Y-12442676D01*
X12905402Y-12442676D02*
X12914926Y-12433152D01*
X12914926Y-12433152D02*
X12933974Y-12423629D01*
X13086355Y-12604581D02*
X13095878Y-12614105D01*
X13095878Y-12614105D02*
X13086355Y-12623629D01*
X13086355Y-12623629D02*
X13076831Y-12614105D01*
X13076831Y-12614105D02*
X13086355Y-12604581D01*
X13086355Y-12604581D02*
X13086355Y-12623629D01*
X13219688Y-12423629D02*
X13238736Y-12423629D01*
X13238736Y-12423629D02*
X13257783Y-12433152D01*
X13257783Y-12433152D02*
X13267307Y-12442676D01*
X13267307Y-12442676D02*
X13276831Y-12461724D01*
X13276831Y-12461724D02*
X13286355Y-12499819D01*
X13286355Y-12499819D02*
X13286355Y-12547438D01*
X13286355Y-12547438D02*
X13276831Y-12585533D01*
X13276831Y-12585533D02*
X13267307Y-12604581D01*
X13267307Y-12604581D02*
X13257783Y-12614105D01*
X13257783Y-12614105D02*
X13238736Y-12623629D01*
X13238736Y-12623629D02*
X13219688Y-12623629D01*
X13219688Y-12623629D02*
X13200640Y-12614105D01*
X13200640Y-12614105D02*
X13191116Y-12604581D01*
X13191116Y-12604581D02*
X13181593Y-12585533D01*
X13181593Y-12585533D02*
X13172069Y-12547438D01*
X13172069Y-12547438D02*
X13172069Y-12499819D01*
X13172069Y-12499819D02*
X13181593Y-12461724D01*
X13181593Y-12461724D02*
X13191116Y-12442676D01*
X13191116Y-12442676D02*
X13200640Y-12433152D01*
X13200640Y-12433152D02*
X13219688Y-12423629D01*
X13353021Y-12423629D02*
X13476831Y-12423629D01*
X13476831Y-12423629D02*
X13410164Y-12499819D01*
X13410164Y-12499819D02*
X13438736Y-12499819D01*
X13438736Y-12499819D02*
X13457783Y-12509343D01*
X13457783Y-12509343D02*
X13467307Y-12518867D01*
X13467307Y-12518867D02*
X13476831Y-12537914D01*
X13476831Y-12537914D02*
X13476831Y-12585533D01*
X13476831Y-12585533D02*
X13467307Y-12604581D01*
X13467307Y-12604581D02*
X13457783Y-12614105D01*
X13457783Y-12614105D02*
X13438736Y-12623629D01*
X13438736Y-12623629D02*
X13381593Y-12623629D01*
X13381593Y-12623629D02*
X13362545Y-12614105D01*
X13362545Y-12614105D02*
X13353021Y-12604581D01*
X13572069Y-12623629D02*
X13610164Y-12623629D01*
X13610164Y-12623629D02*
X13629212Y-12614105D01*
X13629212Y-12614105D02*
X13638736Y-12604581D01*
X13638736Y-12604581D02*
X13657783Y-12576010D01*
X13657783Y-12576010D02*
X13667307Y-12537914D01*
X13667307Y-12537914D02*
X13667307Y-12461724D01*
X13667307Y-12461724D02*
X13657783Y-12442676D01*
X13657783Y-12442676D02*
X13648259Y-12433152D01*
X13648259Y-12433152D02*
X13629212Y-12423629D01*
X13629212Y-12423629D02*
X13591116Y-12423629D01*
X13591116Y-12423629D02*
X13572069Y-12433152D01*
X13572069Y-12433152D02*
X13562545Y-12442676D01*
X13562545Y-12442676D02*
X13553021Y-12461724D01*
X13553021Y-12461724D02*
X13553021Y-12509343D01*
X13553021Y-12509343D02*
X13562545Y-12528391D01*
X13562545Y-12528391D02*
X13572069Y-12537914D01*
X13572069Y-12537914D02*
X13591116Y-12547438D01*
X13591116Y-12547438D02*
X13629212Y-12547438D01*
X13629212Y-12547438D02*
X13648259Y-12537914D01*
X13648259Y-12537914D02*
X13657783Y-12528391D01*
X13657783Y-12528391D02*
X13667307Y-12509343D01*
X13838736Y-12490295D02*
X13838736Y-12623629D01*
X13791116Y-12414105D02*
X13743497Y-12556962D01*
X13743497Y-12556962D02*
X13867307Y-12556962D01*
X13933974Y-12423629D02*
X13933974Y-12461724D01*
X14010164Y-12423629D02*
X14010164Y-12461724D01*
X14305402Y-12699819D02*
X14295878Y-12690295D01*
X14295878Y-12690295D02*
X14276831Y-12661724D01*
X14276831Y-12661724D02*
X14267307Y-12642676D01*
X14267307Y-12642676D02*
X14257783Y-12614105D01*
X14257783Y-12614105D02*
X14248259Y-12566486D01*
X14248259Y-12566486D02*
X14248259Y-12528391D01*
X14248259Y-12528391D02*
X14257783Y-12480771D01*
X14257783Y-12480771D02*
X14267307Y-12452200D01*
X14267307Y-12452200D02*
X14276831Y-12433152D01*
X14276831Y-12433152D02*
X14295878Y-12404581D01*
X14295878Y-12404581D02*
X14305402Y-12395057D01*
X14467307Y-12490295D02*
X14467307Y-12623629D01*
X14419688Y-12414105D02*
X14372069Y-12556962D01*
X14372069Y-12556962D02*
X14495878Y-12556962D01*
X14724450Y-12623629D02*
X14724450Y-12423629D01*
X14810164Y-12623629D02*
X14810164Y-12518867D01*
X14810164Y-12518867D02*
X14800640Y-12499819D01*
X14800640Y-12499819D02*
X14781593Y-12490295D01*
X14781593Y-12490295D02*
X14753021Y-12490295D01*
X14753021Y-12490295D02*
X14733974Y-12499819D01*
X14733974Y-12499819D02*
X14724450Y-12509343D01*
X14933974Y-12623629D02*
X14914926Y-12614105D01*
X14914926Y-12614105D02*
X14905402Y-12604581D01*
X14905402Y-12604581D02*
X14895879Y-12585533D01*
X14895879Y-12585533D02*
X14895879Y-12528391D01*
X14895879Y-12528391D02*
X14905402Y-12509343D01*
X14905402Y-12509343D02*
X14914926Y-12499819D01*
X14914926Y-12499819D02*
X14933974Y-12490295D01*
X14933974Y-12490295D02*
X14962545Y-12490295D01*
X14962545Y-12490295D02*
X14981593Y-12499819D01*
X14981593Y-12499819D02*
X14991117Y-12509343D01*
X14991117Y-12509343D02*
X15000640Y-12528391D01*
X15000640Y-12528391D02*
X15000640Y-12585533D01*
X15000640Y-12585533D02*
X14991117Y-12604581D01*
X14991117Y-12604581D02*
X14981593Y-12614105D01*
X14981593Y-12614105D02*
X14962545Y-12623629D01*
X14962545Y-12623629D02*
X14933974Y-12623629D01*
X15114926Y-12623629D02*
X15095879Y-12614105D01*
X15095879Y-12614105D02*
X15086355Y-12595057D01*
X15086355Y-12595057D02*
X15086355Y-12423629D01*
X15267307Y-12614105D02*
X15248260Y-12623629D01*
X15248260Y-12623629D02*
X15210164Y-12623629D01*
X15210164Y-12623629D02*
X15191117Y-12614105D01*
X15191117Y-12614105D02*
X15181593Y-12595057D01*
X15181593Y-12595057D02*
X15181593Y-12518867D01*
X15181593Y-12518867D02*
X15191117Y-12499819D01*
X15191117Y-12499819D02*
X15210164Y-12490295D01*
X15210164Y-12490295D02*
X15248260Y-12490295D01*
X15248260Y-12490295D02*
X15267307Y-12499819D01*
X15267307Y-12499819D02*
X15276831Y-12518867D01*
X15276831Y-12518867D02*
X15276831Y-12537914D01*
X15276831Y-12537914D02*
X15181593Y-12556962D01*
X15353021Y-12614105D02*
X15372069Y-12623629D01*
X15372069Y-12623629D02*
X15410164Y-12623629D01*
X15410164Y-12623629D02*
X15429212Y-12614105D01*
X15429212Y-12614105D02*
X15438736Y-12595057D01*
X15438736Y-12595057D02*
X15438736Y-12585533D01*
X15438736Y-12585533D02*
X15429212Y-12566486D01*
X15429212Y-12566486D02*
X15410164Y-12556962D01*
X15410164Y-12556962D02*
X15381593Y-12556962D01*
X15381593Y-12556962D02*
X15362545Y-12547438D01*
X15362545Y-12547438D02*
X15353021Y-12528391D01*
X15353021Y-12528391D02*
X15353021Y-12518867D01*
X15353021Y-12518867D02*
X15362545Y-12499819D01*
X15362545Y-12499819D02*
X15381593Y-12490295D01*
X15381593Y-12490295D02*
X15410164Y-12490295D01*
X15410164Y-12490295D02*
X15429212Y-12499819D01*
X15505402Y-12699819D02*
X15514926Y-12690295D01*
X15514926Y-12690295D02*
X15533974Y-12661724D01*
X15533974Y-12661724D02*
X15543498Y-12642676D01*
X15543498Y-12642676D02*
X15553021Y-12614105D01*
X15553021Y-12614105D02*
X15562545Y-12566486D01*
X15562545Y-12566486D02*
X15562545Y-12528391D01*
X15562545Y-12528391D02*
X15553021Y-12480771D01*
X15553021Y-12480771D02*
X15543498Y-12452200D01*
X15543498Y-12452200D02*
X15533974Y-12433152D01*
X15533974Y-12433152D02*
X15514926Y-12404581D01*
X15514926Y-12404581D02*
X15505402Y-12395057D01*
D12*
X10730340Y-12796145D02*
G75*
G03*
X10730340Y-12796145I-75000J0D01*
G01*
D11*
X11095878Y-12887629D02*
X10981593Y-12887629D01*
X11038735Y-12887629D02*
X11038735Y-12687629D01*
X11038735Y-12687629D02*
X11019688Y-12716200D01*
X11019688Y-12716200D02*
X11000640Y-12735248D01*
X11000640Y-12735248D02*
X10981593Y-12744771D01*
X11181593Y-12868581D02*
X11191116Y-12878105D01*
X11191116Y-12878105D02*
X11181593Y-12887629D01*
X11181593Y-12887629D02*
X11172069Y-12878105D01*
X11172069Y-12878105D02*
X11181593Y-12868581D01*
X11181593Y-12868581D02*
X11181593Y-12887629D01*
X11372069Y-12687629D02*
X11276831Y-12687629D01*
X11276831Y-12687629D02*
X11267307Y-12782867D01*
X11267307Y-12782867D02*
X11276831Y-12773343D01*
X11276831Y-12773343D02*
X11295878Y-12763819D01*
X11295878Y-12763819D02*
X11343497Y-12763819D01*
X11343497Y-12763819D02*
X11362545Y-12773343D01*
X11362545Y-12773343D02*
X11372069Y-12782867D01*
X11372069Y-12782867D02*
X11381592Y-12801914D01*
X11381592Y-12801914D02*
X11381592Y-12849533D01*
X11381592Y-12849533D02*
X11372069Y-12868581D01*
X11372069Y-12868581D02*
X11362545Y-12878105D01*
X11362545Y-12878105D02*
X11343497Y-12887629D01*
X11343497Y-12887629D02*
X11295878Y-12887629D01*
X11295878Y-12887629D02*
X11276831Y-12878105D01*
X11276831Y-12878105D02*
X11267307Y-12868581D01*
X11505402Y-12687629D02*
X11524450Y-12687629D01*
X11524450Y-12687629D02*
X11543497Y-12697152D01*
X11543497Y-12697152D02*
X11553021Y-12706676D01*
X11553021Y-12706676D02*
X11562545Y-12725724D01*
X11562545Y-12725724D02*
X11572069Y-12763819D01*
X11572069Y-12763819D02*
X11572069Y-12811438D01*
X11572069Y-12811438D02*
X11562545Y-12849533D01*
X11562545Y-12849533D02*
X11553021Y-12868581D01*
X11553021Y-12868581D02*
X11543497Y-12878105D01*
X11543497Y-12878105D02*
X11524450Y-12887629D01*
X11524450Y-12887629D02*
X11505402Y-12887629D01*
X11505402Y-12887629D02*
X11486354Y-12878105D01*
X11486354Y-12878105D02*
X11476831Y-12868581D01*
X11476831Y-12868581D02*
X11467307Y-12849533D01*
X11467307Y-12849533D02*
X11457783Y-12811438D01*
X11457783Y-12811438D02*
X11457783Y-12763819D01*
X11457783Y-12763819D02*
X11467307Y-12725724D01*
X11467307Y-12725724D02*
X11476831Y-12706676D01*
X11476831Y-12706676D02*
X11486354Y-12697152D01*
X11486354Y-12697152D02*
X11505402Y-12687629D01*
X11695878Y-12687629D02*
X11714926Y-12687629D01*
X11714926Y-12687629D02*
X11733973Y-12697152D01*
X11733973Y-12697152D02*
X11743497Y-12706676D01*
X11743497Y-12706676D02*
X11753021Y-12725724D01*
X11753021Y-12725724D02*
X11762545Y-12763819D01*
X11762545Y-12763819D02*
X11762545Y-12811438D01*
X11762545Y-12811438D02*
X11753021Y-12849533D01*
X11753021Y-12849533D02*
X11743497Y-12868581D01*
X11743497Y-12868581D02*
X11733973Y-12878105D01*
X11733973Y-12878105D02*
X11714926Y-12887629D01*
X11714926Y-12887629D02*
X11695878Y-12887629D01*
X11695878Y-12887629D02*
X11676831Y-12878105D01*
X11676831Y-12878105D02*
X11667307Y-12868581D01*
X11667307Y-12868581D02*
X11657783Y-12849533D01*
X11657783Y-12849533D02*
X11648259Y-12811438D01*
X11648259Y-12811438D02*
X11648259Y-12763819D01*
X11648259Y-12763819D02*
X11657783Y-12725724D01*
X11657783Y-12725724D02*
X11667307Y-12706676D01*
X11667307Y-12706676D02*
X11676831Y-12697152D01*
X11676831Y-12697152D02*
X11695878Y-12687629D01*
X11848259Y-12887629D02*
X11848259Y-12754295D01*
X11848259Y-12773343D02*
X11857783Y-12763819D01*
X11857783Y-12763819D02*
X11876831Y-12754295D01*
X11876831Y-12754295D02*
X11905402Y-12754295D01*
X11905402Y-12754295D02*
X11924450Y-12763819D01*
X11924450Y-12763819D02*
X11933973Y-12782867D01*
X11933973Y-12782867D02*
X11933973Y-12887629D01*
X11933973Y-12782867D02*
X11943497Y-12763819D01*
X11943497Y-12763819D02*
X11962545Y-12754295D01*
X11962545Y-12754295D02*
X11991116Y-12754295D01*
X11991116Y-12754295D02*
X12010164Y-12763819D01*
X12010164Y-12763819D02*
X12019688Y-12782867D01*
X12019688Y-12782867D02*
X12019688Y-12887629D01*
X12114926Y-12887629D02*
X12114926Y-12754295D01*
X12114926Y-12773343D02*
X12124450Y-12763819D01*
X12124450Y-12763819D02*
X12143497Y-12754295D01*
X12143497Y-12754295D02*
X12172069Y-12754295D01*
X12172069Y-12754295D02*
X12191116Y-12763819D01*
X12191116Y-12763819D02*
X12200640Y-12782867D01*
X12200640Y-12782867D02*
X12200640Y-12887629D01*
X12200640Y-12782867D02*
X12210164Y-12763819D01*
X12210164Y-12763819D02*
X12229212Y-12754295D01*
X12229212Y-12754295D02*
X12257783Y-12754295D01*
X12257783Y-12754295D02*
X12276831Y-12763819D01*
X12276831Y-12763819D02*
X12286354Y-12782867D01*
X12286354Y-12782867D02*
X12286354Y-12887629D01*
X12676831Y-12678105D02*
X12505402Y-12935248D01*
X12933974Y-12687629D02*
X12953021Y-12687629D01*
X12953021Y-12687629D02*
X12972069Y-12697152D01*
X12972069Y-12697152D02*
X12981593Y-12706676D01*
X12981593Y-12706676D02*
X12991116Y-12725724D01*
X12991116Y-12725724D02*
X13000640Y-12763819D01*
X13000640Y-12763819D02*
X13000640Y-12811438D01*
X13000640Y-12811438D02*
X12991116Y-12849533D01*
X12991116Y-12849533D02*
X12981593Y-12868581D01*
X12981593Y-12868581D02*
X12972069Y-12878105D01*
X12972069Y-12878105D02*
X12953021Y-12887629D01*
X12953021Y-12887629D02*
X12933974Y-12887629D01*
X12933974Y-12887629D02*
X12914926Y-12878105D01*
X12914926Y-12878105D02*
X12905402Y-12868581D01*
X12905402Y-12868581D02*
X12895878Y-12849533D01*
X12895878Y-12849533D02*
X12886355Y-12811438D01*
X12886355Y-12811438D02*
X12886355Y-12763819D01*
X12886355Y-12763819D02*
X12895878Y-12725724D01*
X12895878Y-12725724D02*
X12905402Y-12706676D01*
X12905402Y-12706676D02*
X12914926Y-12697152D01*
X12914926Y-12697152D02*
X12933974Y-12687629D01*
X13086355Y-12868581D02*
X13095878Y-12878105D01*
X13095878Y-12878105D02*
X13086355Y-12887629D01*
X13086355Y-12887629D02*
X13076831Y-12878105D01*
X13076831Y-12878105D02*
X13086355Y-12868581D01*
X13086355Y-12868581D02*
X13086355Y-12887629D01*
X13219688Y-12687629D02*
X13238736Y-12687629D01*
X13238736Y-12687629D02*
X13257783Y-12697152D01*
X13257783Y-12697152D02*
X13267307Y-12706676D01*
X13267307Y-12706676D02*
X13276831Y-12725724D01*
X13276831Y-12725724D02*
X13286355Y-12763819D01*
X13286355Y-12763819D02*
X13286355Y-12811438D01*
X13286355Y-12811438D02*
X13276831Y-12849533D01*
X13276831Y-12849533D02*
X13267307Y-12868581D01*
X13267307Y-12868581D02*
X13257783Y-12878105D01*
X13257783Y-12878105D02*
X13238736Y-12887629D01*
X13238736Y-12887629D02*
X13219688Y-12887629D01*
X13219688Y-12887629D02*
X13200640Y-12878105D01*
X13200640Y-12878105D02*
X13191116Y-12868581D01*
X13191116Y-12868581D02*
X13181593Y-12849533D01*
X13181593Y-12849533D02*
X13172069Y-12811438D01*
X13172069Y-12811438D02*
X13172069Y-12763819D01*
X13172069Y-12763819D02*
X13181593Y-12725724D01*
X13181593Y-12725724D02*
X13191116Y-12706676D01*
X13191116Y-12706676D02*
X13200640Y-12697152D01*
X13200640Y-12697152D02*
X13219688Y-12687629D01*
X13467307Y-12687629D02*
X13372069Y-12687629D01*
X13372069Y-12687629D02*
X13362545Y-12782867D01*
X13362545Y-12782867D02*
X13372069Y-12773343D01*
X13372069Y-12773343D02*
X13391116Y-12763819D01*
X13391116Y-12763819D02*
X13438736Y-12763819D01*
X13438736Y-12763819D02*
X13457783Y-12773343D01*
X13457783Y-12773343D02*
X13467307Y-12782867D01*
X13467307Y-12782867D02*
X13476831Y-12801914D01*
X13476831Y-12801914D02*
X13476831Y-12849533D01*
X13476831Y-12849533D02*
X13467307Y-12868581D01*
X13467307Y-12868581D02*
X13457783Y-12878105D01*
X13457783Y-12878105D02*
X13438736Y-12887629D01*
X13438736Y-12887629D02*
X13391116Y-12887629D01*
X13391116Y-12887629D02*
X13372069Y-12878105D01*
X13372069Y-12878105D02*
X13362545Y-12868581D01*
X13572069Y-12887629D02*
X13610164Y-12887629D01*
X13610164Y-12887629D02*
X13629212Y-12878105D01*
X13629212Y-12878105D02*
X13638736Y-12868581D01*
X13638736Y-12868581D02*
X13657783Y-12840010D01*
X13657783Y-12840010D02*
X13667307Y-12801914D01*
X13667307Y-12801914D02*
X13667307Y-12725724D01*
X13667307Y-12725724D02*
X13657783Y-12706676D01*
X13657783Y-12706676D02*
X13648259Y-12697152D01*
X13648259Y-12697152D02*
X13629212Y-12687629D01*
X13629212Y-12687629D02*
X13591116Y-12687629D01*
X13591116Y-12687629D02*
X13572069Y-12697152D01*
X13572069Y-12697152D02*
X13562545Y-12706676D01*
X13562545Y-12706676D02*
X13553021Y-12725724D01*
X13553021Y-12725724D02*
X13553021Y-12773343D01*
X13553021Y-12773343D02*
X13562545Y-12792391D01*
X13562545Y-12792391D02*
X13572069Y-12801914D01*
X13572069Y-12801914D02*
X13591116Y-12811438D01*
X13591116Y-12811438D02*
X13629212Y-12811438D01*
X13629212Y-12811438D02*
X13648259Y-12801914D01*
X13648259Y-12801914D02*
X13657783Y-12792391D01*
X13657783Y-12792391D02*
X13667307Y-12773343D01*
X13857783Y-12887629D02*
X13743497Y-12887629D01*
X13800640Y-12887629D02*
X13800640Y-12687629D01*
X13800640Y-12687629D02*
X13781593Y-12716200D01*
X13781593Y-12716200D02*
X13762545Y-12735248D01*
X13762545Y-12735248D02*
X13743497Y-12744771D01*
X13933974Y-12687629D02*
X13933974Y-12725724D01*
X14010164Y-12687629D02*
X14010164Y-12725724D01*
X14305402Y-12963819D02*
X14295878Y-12954295D01*
X14295878Y-12954295D02*
X14276831Y-12925724D01*
X14276831Y-12925724D02*
X14267307Y-12906676D01*
X14267307Y-12906676D02*
X14257783Y-12878105D01*
X14257783Y-12878105D02*
X14248259Y-12830486D01*
X14248259Y-12830486D02*
X14248259Y-12792391D01*
X14248259Y-12792391D02*
X14257783Y-12744771D01*
X14257783Y-12744771D02*
X14267307Y-12716200D01*
X14267307Y-12716200D02*
X14276831Y-12697152D01*
X14276831Y-12697152D02*
X14295878Y-12668581D01*
X14295878Y-12668581D02*
X14305402Y-12659057D01*
X14486355Y-12887629D02*
X14372069Y-12887629D01*
X14429212Y-12887629D02*
X14429212Y-12687629D01*
X14429212Y-12687629D02*
X14410164Y-12716200D01*
X14410164Y-12716200D02*
X14391117Y-12735248D01*
X14391117Y-12735248D02*
X14372069Y-12744771D01*
X14562545Y-12706676D02*
X14572069Y-12697152D01*
X14572069Y-12697152D02*
X14591117Y-12687629D01*
X14591117Y-12687629D02*
X14638736Y-12687629D01*
X14638736Y-12687629D02*
X14657783Y-12697152D01*
X14657783Y-12697152D02*
X14667307Y-12706676D01*
X14667307Y-12706676D02*
X14676831Y-12725724D01*
X14676831Y-12725724D02*
X14676831Y-12744771D01*
X14676831Y-12744771D02*
X14667307Y-12773343D01*
X14667307Y-12773343D02*
X14553021Y-12887629D01*
X14553021Y-12887629D02*
X14676831Y-12887629D01*
X14914926Y-12887629D02*
X14914926Y-12687629D01*
X15000640Y-12887629D02*
X15000640Y-12782867D01*
X15000640Y-12782867D02*
X14991117Y-12763819D01*
X14991117Y-12763819D02*
X14972069Y-12754295D01*
X14972069Y-12754295D02*
X14943498Y-12754295D01*
X14943498Y-12754295D02*
X14924450Y-12763819D01*
X14924450Y-12763819D02*
X14914926Y-12773343D01*
X15124450Y-12887629D02*
X15105402Y-12878105D01*
X15105402Y-12878105D02*
X15095879Y-12868581D01*
X15095879Y-12868581D02*
X15086355Y-12849533D01*
X15086355Y-12849533D02*
X15086355Y-12792391D01*
X15086355Y-12792391D02*
X15095879Y-12773343D01*
X15095879Y-12773343D02*
X15105402Y-12763819D01*
X15105402Y-12763819D02*
X15124450Y-12754295D01*
X15124450Y-12754295D02*
X15153021Y-12754295D01*
X15153021Y-12754295D02*
X15172069Y-12763819D01*
X15172069Y-12763819D02*
X15181593Y-12773343D01*
X15181593Y-12773343D02*
X15191117Y-12792391D01*
X15191117Y-12792391D02*
X15191117Y-12849533D01*
X15191117Y-12849533D02*
X15181593Y-12868581D01*
X15181593Y-12868581D02*
X15172069Y-12878105D01*
X15172069Y-12878105D02*
X15153021Y-12887629D01*
X15153021Y-12887629D02*
X15124450Y-12887629D01*
X15305402Y-12887629D02*
X15286355Y-12878105D01*
X15286355Y-12878105D02*
X15276831Y-12859057D01*
X15276831Y-12859057D02*
X15276831Y-12687629D01*
X15457783Y-12878105D02*
X15438736Y-12887629D01*
X15438736Y-12887629D02*
X15400640Y-12887629D01*
X15400640Y-12887629D02*
X15381593Y-12878105D01*
X15381593Y-12878105D02*
X15372069Y-12859057D01*
X15372069Y-12859057D02*
X15372069Y-12782867D01*
X15372069Y-12782867D02*
X15381593Y-12763819D01*
X15381593Y-12763819D02*
X15400640Y-12754295D01*
X15400640Y-12754295D02*
X15438736Y-12754295D01*
X15438736Y-12754295D02*
X15457783Y-12763819D01*
X15457783Y-12763819D02*
X15467307Y-12782867D01*
X15467307Y-12782867D02*
X15467307Y-12801914D01*
X15467307Y-12801914D02*
X15372069Y-12820962D01*
X15543498Y-12878105D02*
X15562545Y-12887629D01*
X15562545Y-12887629D02*
X15600640Y-12887629D01*
X15600640Y-12887629D02*
X15619688Y-12878105D01*
X15619688Y-12878105D02*
X15629212Y-12859057D01*
X15629212Y-12859057D02*
X15629212Y-12849533D01*
X15629212Y-12849533D02*
X15619688Y-12830486D01*
X15619688Y-12830486D02*
X15600640Y-12820962D01*
X15600640Y-12820962D02*
X15572069Y-12820962D01*
X15572069Y-12820962D02*
X15553021Y-12811438D01*
X15553021Y-12811438D02*
X15543498Y-12792391D01*
X15543498Y-12792391D02*
X15543498Y-12782867D01*
X15543498Y-12782867D02*
X15553021Y-12763819D01*
X15553021Y-12763819D02*
X15572069Y-12754295D01*
X15572069Y-12754295D02*
X15600640Y-12754295D01*
X15600640Y-12754295D02*
X15619688Y-12763819D01*
X15867307Y-12811438D02*
X16019688Y-12811438D01*
X15943498Y-12887629D02*
X15943498Y-12735248D01*
X16353022Y-12687629D02*
X16314926Y-12687629D01*
X16314926Y-12687629D02*
X16295879Y-12697152D01*
X16295879Y-12697152D02*
X16286355Y-12706676D01*
X16286355Y-12706676D02*
X16267307Y-12735248D01*
X16267307Y-12735248D02*
X16257783Y-12773343D01*
X16257783Y-12773343D02*
X16257783Y-12849533D01*
X16257783Y-12849533D02*
X16267307Y-12868581D01*
X16267307Y-12868581D02*
X16276831Y-12878105D01*
X16276831Y-12878105D02*
X16295879Y-12887629D01*
X16295879Y-12887629D02*
X16333974Y-12887629D01*
X16333974Y-12887629D02*
X16353022Y-12878105D01*
X16353022Y-12878105D02*
X16362545Y-12868581D01*
X16362545Y-12868581D02*
X16372069Y-12849533D01*
X16372069Y-12849533D02*
X16372069Y-12801914D01*
X16372069Y-12801914D02*
X16362545Y-12782867D01*
X16362545Y-12782867D02*
X16353022Y-12773343D01*
X16353022Y-12773343D02*
X16333974Y-12763819D01*
X16333974Y-12763819D02*
X16295879Y-12763819D01*
X16295879Y-12763819D02*
X16276831Y-12773343D01*
X16276831Y-12773343D02*
X16267307Y-12782867D01*
X16267307Y-12782867D02*
X16257783Y-12801914D01*
X16600641Y-12878105D02*
X16619688Y-12887629D01*
X16619688Y-12887629D02*
X16657783Y-12887629D01*
X16657783Y-12887629D02*
X16676831Y-12878105D01*
X16676831Y-12878105D02*
X16686355Y-12859057D01*
X16686355Y-12859057D02*
X16686355Y-12849533D01*
X16686355Y-12849533D02*
X16676831Y-12830486D01*
X16676831Y-12830486D02*
X16657783Y-12820962D01*
X16657783Y-12820962D02*
X16629212Y-12820962D01*
X16629212Y-12820962D02*
X16610164Y-12811438D01*
X16610164Y-12811438D02*
X16600641Y-12792391D01*
X16600641Y-12792391D02*
X16600641Y-12782867D01*
X16600641Y-12782867D02*
X16610164Y-12763819D01*
X16610164Y-12763819D02*
X16629212Y-12754295D01*
X16629212Y-12754295D02*
X16657783Y-12754295D01*
X16657783Y-12754295D02*
X16676831Y-12763819D01*
X16800641Y-12887629D02*
X16781593Y-12878105D01*
X16781593Y-12878105D02*
X16772069Y-12859057D01*
X16772069Y-12859057D02*
X16772069Y-12687629D01*
X16905403Y-12887629D02*
X16886355Y-12878105D01*
X16886355Y-12878105D02*
X16876831Y-12868581D01*
X16876831Y-12868581D02*
X16867307Y-12849533D01*
X16867307Y-12849533D02*
X16867307Y-12792391D01*
X16867307Y-12792391D02*
X16876831Y-12773343D01*
X16876831Y-12773343D02*
X16886355Y-12763819D01*
X16886355Y-12763819D02*
X16905403Y-12754295D01*
X16905403Y-12754295D02*
X16933974Y-12754295D01*
X16933974Y-12754295D02*
X16953022Y-12763819D01*
X16953022Y-12763819D02*
X16962546Y-12773343D01*
X16962546Y-12773343D02*
X16972069Y-12792391D01*
X16972069Y-12792391D02*
X16972069Y-12849533D01*
X16972069Y-12849533D02*
X16962546Y-12868581D01*
X16962546Y-12868581D02*
X16953022Y-12878105D01*
X16953022Y-12878105D02*
X16933974Y-12887629D01*
X16933974Y-12887629D02*
X16905403Y-12887629D01*
X17029212Y-12754295D02*
X17105403Y-12754295D01*
X17057784Y-12687629D02*
X17057784Y-12859057D01*
X17057784Y-12859057D02*
X17067307Y-12878105D01*
X17067307Y-12878105D02*
X17086355Y-12887629D01*
X17086355Y-12887629D02*
X17105403Y-12887629D01*
X17162546Y-12878105D02*
X17181593Y-12887629D01*
X17181593Y-12887629D02*
X17219688Y-12887629D01*
X17219688Y-12887629D02*
X17238736Y-12878105D01*
X17238736Y-12878105D02*
X17248260Y-12859057D01*
X17248260Y-12859057D02*
X17248260Y-12849533D01*
X17248260Y-12849533D02*
X17238736Y-12830486D01*
X17238736Y-12830486D02*
X17219688Y-12820962D01*
X17219688Y-12820962D02*
X17191117Y-12820962D01*
X17191117Y-12820962D02*
X17172069Y-12811438D01*
X17172069Y-12811438D02*
X17162546Y-12792391D01*
X17162546Y-12792391D02*
X17162546Y-12782867D01*
X17162546Y-12782867D02*
X17172069Y-12763819D01*
X17172069Y-12763819D02*
X17191117Y-12754295D01*
X17191117Y-12754295D02*
X17219688Y-12754295D01*
X17219688Y-12754295D02*
X17238736Y-12763819D01*
X17314927Y-12963819D02*
X17324450Y-12954295D01*
X17324450Y-12954295D02*
X17343498Y-12925724D01*
X17343498Y-12925724D02*
X17353022Y-12906676D01*
X17353022Y-12906676D02*
X17362546Y-12878105D01*
X17362546Y-12878105D02*
X17372069Y-12830486D01*
X17372069Y-12830486D02*
X17372069Y-12792391D01*
X17372069Y-12792391D02*
X17362546Y-12744771D01*
X17362546Y-12744771D02*
X17353022Y-12716200D01*
X17353022Y-12716200D02*
X17343498Y-12697152D01*
X17343498Y-12697152D02*
X17324450Y-12668581D01*
X17324450Y-12668581D02*
X17314927Y-12659057D01*
M02*
