M48
; DRILL file {KiCad 7.0.5} date Thu Aug  3 23:11:39 2023
; FORMAT={-:-/ absolute / metric / decimal}
; #@! TF.CreationDate,2023-08-03T23:11:39+08:00
; #@! TF.GenerationSoftware,Kicad,Pcbnew,7.0.5
; #@! TF.FileFunction,Plated,1,2,PTH
FMAT,2
METRIC
; #@! TA.AperFunction,Plated,PTH,ComponentDrill
T1C1.000
; #@! TA.AperFunction,Plated,PTH,ComponentDrill
T2C1.500
%
G90
G05
T1
X128.74Y-90.65
X131.28Y-90.65
X133.82Y-90.65
X136.36Y-90.65
T2
X115.33Y-105.676
X120.004Y-100.672
X122.35Y-111.715
X124.707Y-110.616
X138.23Y-98.91
X142.04Y-107.35
X144.58Y-96.35
X144.64Y-107.35
X157.28Y-98.91
X161.09Y-107.35
X163.63Y-96.35
X163.69Y-107.35
T2
X117.821Y-112.466G85X116.966Y-111.946
G05
X122.233Y-99.633G85X122.233Y-99.633
G05
X137.617Y-106.116G85X137.063Y-105.284
G05
X147.04Y-96.35G85X147.04Y-96.35
G05
X156.667Y-106.116G85X156.113Y-105.284
G05
X166.09Y-96.35G85X166.09Y-96.35
G05
T0
M30
