G04 #@! TF.GenerationSoftware,KiCad,Pcbnew,7.0.5*
G04 #@! TF.CreationDate,2023-08-10T21:35:30+08:00*
G04 #@! TF.ProjectId,LB,4c422e6b-6963-4616-945f-706362585858,rev?*
G04 #@! TF.SameCoordinates,Original*
G04 #@! TF.FileFunction,Copper,L1,Top*
G04 #@! TF.FilePolarity,Positive*
%FSLAX46Y46*%
G04 Gerber Fmt 4.6, Leading zero omitted, Abs format (unit mm)*
G04 Created by KiCad (PCBNEW 7.0.5) date 2023-08-10 21:35:30*
%MOMM*%
%LPD*%
G01*
G04 APERTURE LIST*
G04 Aperture macros list*
%AMRoundRect*
0 Rectangle with rounded corners*
0 $1 Rounding radius*
0 $2 $3 $4 $5 $6 $7 $8 $9 X,Y pos of 4 corners*
0 Add a 4 corners polygon primitive as box body*
4,1,4,$2,$3,$4,$5,$6,$7,$8,$9,$2,$3,0*
0 Add four circle primitives for the rounded corners*
1,1,$1+$1,$2,$3*
1,1,$1+$1,$4,$5*
1,1,$1+$1,$6,$7*
1,1,$1+$1,$8,$9*
0 Add four rect primitives between the rounded corners*
20,1,$1+$1,$2,$3,$4,$5,0*
20,1,$1+$1,$4,$5,$6,$7,0*
20,1,$1+$1,$6,$7,$8,$9,0*
20,1,$1+$1,$8,$9,$2,$3,0*%
%AMHorizOval*
0 Thick line with rounded ends*
0 $1 width*
0 $2 $3 position (X,Y) of the first rounded end (center of the circle)*
0 $4 $5 position (X,Y) of the second rounded end (center of the circle)*
0 Add line between two ends*
20,1,$1,$2,$3,$4,$5,0*
0 Add two circle primitives to create the rounded ends*
1,1,$1,$2,$3*
1,1,$1,$4,$5*%
%AMOutline4P*
0 Free polygon, 4 corners , with rotation*
0 The origin of the aperture is its center*
0 number of corners: always 4*
0 $1 to $8 corner X, Y*
0 $9 Rotation angle, in degrees counterclockwise*
0 create outline with 4 corners*
4,1,4,$1,$2,$3,$4,$5,$6,$7,$8,$1,$2,$9*%
G04 Aperture macros list end*
G04 #@! TA.AperFunction,ComponentPad*
%ADD10HorizOval,2.400000X-0.305164X0.457575X0.305164X-0.457575X0*%
G04 #@! TD*
G04 #@! TA.AperFunction,ComponentPad*
%ADD11C,2.400000*%
G04 #@! TD*
G04 #@! TA.AperFunction,SMDPad,CuDef*
%ADD12Outline4P,-1.300000X-1.200000X1.300000X-1.200000X1.300000X1.200000X-1.300000X1.200000X0.000000*%
G04 #@! TD*
G04 #@! TA.AperFunction,SMDPad,CuDef*
%ADD13Outline4P,-1.200000X-1.200000X1.200000X-1.200000X1.200000X1.200000X-1.200000X1.200000X0.000000*%
G04 #@! TD*
G04 #@! TA.AperFunction,ComponentPad*
%ADD14C,1.700000*%
G04 #@! TD*
G04 #@! TA.AperFunction,ComponentPad*
%ADD15O,1.700000X1.700000*%
G04 #@! TD*
G04 #@! TA.AperFunction,ComponentPad*
%ADD16RoundRect,0.425000X-0.425000X-0.425000X0.425000X-0.425000X0.425000X0.425000X-0.425000X0.425000X0*%
G04 #@! TD*
G04 #@! TA.AperFunction,ComponentPad*
%ADD17R,1.600000X1.600000*%
G04 #@! TD*
G04 #@! TA.AperFunction,ComponentPad*
%ADD18O,1.600000X1.600000*%
G04 #@! TD*
G04 #@! TA.AperFunction,ViaPad*
%ADD19C,0.800000*%
G04 #@! TD*
G04 #@! TA.AperFunction,Conductor*
%ADD20C,0.250000*%
G04 #@! TD*
G04 APERTURE END LIST*
D10*
X137410000Y-58680000D03*
D11*
X138300000Y-51890000D03*
X142110000Y-60330000D03*
D12*
X143410000Y-60330000D03*
D11*
X144650000Y-49330000D03*
X144710000Y-60330000D03*
D13*
X145880000Y-49330000D03*
D11*
X147110000Y-49330000D03*
D10*
X118360000Y-58680000D03*
D11*
X119250000Y-51890000D03*
X123060000Y-60330000D03*
D12*
X124360000Y-60330000D03*
D11*
X125600000Y-49330000D03*
X125660000Y-60330000D03*
D13*
X126830000Y-49330000D03*
D11*
X128060000Y-49330000D03*
D10*
X118360000Y-96780000D03*
D11*
X119250000Y-89990000D03*
X123060000Y-98430000D03*
D12*
X124360000Y-98430000D03*
D11*
X125600000Y-87430000D03*
X125660000Y-98430000D03*
D13*
X126830000Y-87430000D03*
D11*
X128060000Y-87430000D03*
D10*
X137410000Y-77730000D03*
D11*
X138300000Y-70940000D03*
X142110000Y-79380000D03*
D12*
X143410000Y-79380000D03*
D11*
X144650000Y-68380000D03*
X144710000Y-79380000D03*
D13*
X145880000Y-68380000D03*
D11*
X147110000Y-68380000D03*
D10*
X137410000Y-96780000D03*
D11*
X138300000Y-89990000D03*
X142110000Y-98430000D03*
D12*
X143410000Y-98430000D03*
D11*
X144650000Y-87430000D03*
X144710000Y-98430000D03*
D13*
X145880000Y-87430000D03*
D11*
X147110000Y-87430000D03*
D10*
X118360000Y-77730000D03*
D11*
X119250000Y-70940000D03*
X123060000Y-79380000D03*
D12*
X124360000Y-79380000D03*
D11*
X125600000Y-68380000D03*
X125660000Y-79380000D03*
D13*
X126830000Y-68380000D03*
D11*
X128060000Y-68380000D03*
D14*
X150230000Y-68400000D03*
D15*
X150230000Y-70940000D03*
D16*
X150230000Y-73480000D03*
X150230000Y-76020000D03*
X150230000Y-78560000D03*
D17*
X131315000Y-77280000D03*
D18*
X131315000Y-69680000D03*
D17*
X133855000Y-96330000D03*
D18*
X133855000Y-88730000D03*
D17*
X131315000Y-96330000D03*
D18*
X131315000Y-88730000D03*
D17*
X131315000Y-58230000D03*
D18*
X131315000Y-50630000D03*
D17*
X133855000Y-77280000D03*
D18*
X133855000Y-69680000D03*
D17*
X133855000Y-58230000D03*
D18*
X133855000Y-50630000D03*
D19*
X129835000Y-66340000D03*
X135335000Y-65570000D03*
D20*
X147533604Y-66340000D02*
X129835000Y-66340000D01*
X150230000Y-70940000D02*
X148840000Y-69550000D01*
X148840000Y-67646396D02*
X147533604Y-66340000D01*
X148840000Y-69550000D02*
X148840000Y-67646396D01*
X130015000Y-49330000D02*
X131315000Y-50630000D01*
X128060000Y-49330000D02*
X130015000Y-49330000D01*
X147400000Y-65570000D02*
X135335000Y-65570000D01*
X150230000Y-68400000D02*
X147400000Y-65570000D01*
X133855000Y-50630000D02*
X135155000Y-49330000D01*
X135155000Y-49330000D02*
X144650000Y-49330000D01*
X130015000Y-68380000D02*
X131315000Y-69680000D01*
X128060000Y-68380000D02*
X130015000Y-68380000D01*
X133855000Y-69680000D02*
X135155000Y-68380000D01*
X135155000Y-68380000D02*
X144650000Y-68380000D01*
X130015000Y-87430000D02*
X131315000Y-88730000D01*
X128060000Y-87430000D02*
X130015000Y-87430000D01*
X144650000Y-87430000D02*
X135155000Y-87430000D01*
X135155000Y-87430000D02*
X133855000Y-88730000D01*
X130190000Y-57105000D02*
X135835000Y-57105000D01*
X118360000Y-58680000D02*
X128615000Y-58680000D01*
X128615000Y-58680000D02*
X130190000Y-57105000D01*
X135835000Y-57105000D02*
X137410000Y-58680000D01*
X135835000Y-76155000D02*
X137410000Y-77730000D01*
X137410000Y-77730000D02*
X148520000Y-77730000D01*
X128615000Y-77730000D02*
X130190000Y-76155000D01*
X118360000Y-77730000D02*
X128615000Y-77730000D01*
X148520000Y-77730000D02*
X150230000Y-76020000D01*
X130190000Y-76155000D02*
X135835000Y-76155000D01*
X118360000Y-96780000D02*
X128615000Y-96780000D01*
X138685000Y-89605000D02*
X148525000Y-89605000D01*
X128615000Y-96780000D02*
X130190000Y-95205000D01*
X138300000Y-89990000D02*
X138685000Y-89605000D01*
X150230000Y-87900000D02*
X150230000Y-78560000D01*
X148525000Y-89605000D02*
X150230000Y-87900000D01*
X135835000Y-95205000D02*
X137410000Y-96780000D01*
X130190000Y-95205000D02*
X135835000Y-95205000D01*
M02*
