G04 #@! TF.GenerationSoftware,KiCad,Pcbnew,7.0.5*
G04 #@! TF.CreationDate,2023-08-16T13:59:19+08:00*
G04 #@! TF.ProjectId,RA,52412e6b-6963-4616-945f-706362585858,rev?*
G04 #@! TF.SameCoordinates,Original*
G04 #@! TF.FileFunction,Copper,L2,Bot*
G04 #@! TF.FilePolarity,Positive*
%FSLAX46Y46*%
G04 Gerber Fmt 4.6, Leading zero omitted, Abs format (unit mm)*
G04 Created by KiCad (PCBNEW 7.0.5) date 2023-08-16 13:59:19*
%MOMM*%
%LPD*%
G01*
G04 APERTURE LIST*
G04 Aperture macros list*
%AMRoundRect*
0 Rectangle with rounded corners*
0 $1 Rounding radius*
0 $2 $3 $4 $5 $6 $7 $8 $9 X,Y pos of 4 corners*
0 Add a 4 corners polygon primitive as box body*
4,1,4,$2,$3,$4,$5,$6,$7,$8,$9,$2,$3,0*
0 Add four circle primitives for the rounded corners*
1,1,$1+$1,$2,$3*
1,1,$1+$1,$4,$5*
1,1,$1+$1,$6,$7*
1,1,$1+$1,$8,$9*
0 Add four rect primitives between the rounded corners*
20,1,$1+$1,$2,$3,$4,$5,0*
20,1,$1+$1,$4,$5,$6,$7,0*
20,1,$1+$1,$6,$7,$8,$9,0*
20,1,$1+$1,$8,$9,$2,$3,0*%
%AMHorizOval*
0 Thick line with rounded ends*
0 $1 width*
0 $2 $3 position (X,Y) of the first rounded end (center of the circle)*
0 $4 $5 position (X,Y) of the second rounded end (center of the circle)*
0 Add line between two ends*
20,1,$1,$2,$3,$4,$5,0*
0 Add two circle primitives to create the rounded ends*
1,1,$1,$2,$3*
1,1,$1,$4,$5*%
%AMOutline4P*
0 Free polygon, 4 corners , with rotation*
0 The origin of the aperture is its center*
0 number of corners: always 4*
0 $1 to $8 corner X, Y*
0 $9 Rotation angle, in degrees counterclockwise*
0 create outline with 4 corners*
4,1,4,$1,$2,$3,$4,$5,$6,$7,$8,$1,$2,$9*%
G04 Aperture macros list end*
G04 #@! TA.AperFunction,ComponentPad*
%ADD10HorizOval,2.400000X-0.305164X0.457575X0.305164X-0.457575X0*%
G04 #@! TD*
G04 #@! TA.AperFunction,ComponentPad*
%ADD11C,2.400000*%
G04 #@! TD*
G04 #@! TA.AperFunction,SMDPad,CuDef*
%ADD12Outline4P,-1.150000X-1.200000X1.150000X-1.200000X1.150000X1.200000X-1.150000X1.200000X0.000000*%
G04 #@! TD*
G04 #@! TA.AperFunction,SMDPad,CuDef*
%ADD13Outline4P,-1.200000X-1.200000X1.200000X-1.200000X1.200000X1.200000X-1.200000X1.200000X0.000000*%
G04 #@! TD*
G04 #@! TA.AperFunction,ComponentPad*
%ADD14C,1.700000*%
G04 #@! TD*
G04 #@! TA.AperFunction,ComponentPad*
%ADD15O,1.700000X1.700000*%
G04 #@! TD*
G04 #@! TA.AperFunction,ComponentPad*
%ADD16RoundRect,0.425000X-0.425000X-0.425000X0.425000X-0.425000X0.425000X0.425000X-0.425000X0.425000X0*%
G04 #@! TD*
G04 #@! TA.AperFunction,ComponentPad*
%ADD17R,1.600000X1.600000*%
G04 #@! TD*
G04 #@! TA.AperFunction,SMDPad,CuDef*
%ADD18RoundRect,0.225000X0.375000X-0.225000X0.375000X0.225000X-0.375000X0.225000X-0.375000X-0.225000X0*%
G04 #@! TD*
G04 #@! TA.AperFunction,ComponentPad*
%ADD19O,1.600000X1.600000*%
G04 #@! TD*
G04 #@! TA.AperFunction,ViaPad*
%ADD20C,0.800000*%
G04 #@! TD*
G04 #@! TA.AperFunction,Conductor*
%ADD21C,0.250000*%
G04 #@! TD*
G04 APERTURE END LIST*
D10*
X137410000Y-58680000D03*
D11*
X138300000Y-51890000D03*
X142110000Y-60330000D03*
D12*
X143410000Y-60330000D03*
D11*
X144650000Y-49330000D03*
X144710000Y-60330000D03*
D13*
X145880000Y-49330000D03*
D11*
X147110000Y-49330000D03*
D10*
X118360000Y-58680000D03*
D11*
X119250000Y-51890000D03*
X123060000Y-60330000D03*
D12*
X124360000Y-60330000D03*
D11*
X125600000Y-49330000D03*
X125660000Y-60330000D03*
D13*
X126830000Y-49330000D03*
D11*
X128060000Y-49330000D03*
D14*
X114900000Y-65860000D03*
D15*
X114900000Y-68400000D03*
X114900000Y-70940000D03*
X114900000Y-73480000D03*
D16*
X114900000Y-76020000D03*
X114900000Y-78560000D03*
X114900000Y-81100000D03*
D10*
X118360000Y-96780000D03*
D11*
X119250000Y-89990000D03*
X123060000Y-98430000D03*
D12*
X124360000Y-98430000D03*
D11*
X125600000Y-87430000D03*
X125660000Y-98430000D03*
D13*
X126830000Y-87430000D03*
D11*
X128060000Y-87430000D03*
D10*
X137410000Y-77730000D03*
D11*
X138300000Y-70940000D03*
X142110000Y-79380000D03*
D12*
X143410000Y-79380000D03*
D11*
X144650000Y-68380000D03*
X144710000Y-79380000D03*
D13*
X145880000Y-68380000D03*
D11*
X147110000Y-68380000D03*
D10*
X137410000Y-96780000D03*
D11*
X138300000Y-89990000D03*
X142110000Y-98430000D03*
D12*
X143410000Y-98430000D03*
D11*
X144650000Y-87430000D03*
X144710000Y-98430000D03*
D13*
X145880000Y-87430000D03*
D11*
X147110000Y-87430000D03*
D10*
X118360000Y-77730000D03*
D11*
X119250000Y-70940000D03*
X123060000Y-79380000D03*
D12*
X124360000Y-79380000D03*
D11*
X125600000Y-68380000D03*
X125660000Y-79380000D03*
D13*
X126830000Y-68380000D03*
D11*
X128060000Y-68380000D03*
D14*
X150230000Y-68400000D03*
D15*
X150230000Y-70940000D03*
D16*
X150230000Y-73480000D03*
X150230000Y-76020000D03*
X150230000Y-78560000D03*
D17*
X131315000Y-77280000D03*
D18*
X131315000Y-75130000D03*
X131315000Y-71830000D03*
D19*
X131315000Y-69680000D03*
D17*
X133855000Y-96330000D03*
D18*
X133855000Y-94180000D03*
X133855000Y-90880000D03*
D19*
X133855000Y-88730000D03*
D17*
X131315000Y-96330000D03*
D18*
X131315000Y-94180000D03*
X131315000Y-90880000D03*
D19*
X131315000Y-88730000D03*
D17*
X131315000Y-58230000D03*
D18*
X131315000Y-56080000D03*
X131315000Y-52780000D03*
D19*
X131315000Y-50630000D03*
D17*
X133855000Y-77280000D03*
D18*
X133855000Y-75130000D03*
X133855000Y-71830000D03*
D19*
X133855000Y-69680000D03*
D17*
X133855000Y-58230000D03*
D18*
X133855000Y-56080000D03*
X133855000Y-52780000D03*
D19*
X133855000Y-50630000D03*
D20*
X130190000Y-67640000D03*
X134976889Y-67677734D03*
D21*
X126860000Y-78180000D02*
X126860000Y-69640000D01*
X126860000Y-69640000D02*
X125600000Y-68380000D01*
X131315000Y-69680000D02*
X131315000Y-71830000D01*
X125660000Y-79380000D02*
X126860000Y-78180000D01*
X133855000Y-71830000D02*
X133855000Y-69680000D01*
X145850000Y-78240000D02*
X144710000Y-79380000D01*
X145850000Y-69580000D02*
X145850000Y-78240000D01*
X144650000Y-68380000D02*
X145850000Y-69580000D01*
X126800000Y-59190000D02*
X125660000Y-60330000D01*
X125600000Y-49330000D02*
X126800000Y-50530000D01*
X126800000Y-50530000D02*
X126800000Y-59190000D01*
X131315000Y-50630000D02*
X131315000Y-52780000D01*
X145910000Y-50590000D02*
X144650000Y-49330000D01*
X144710000Y-60330000D02*
X145910000Y-59130000D01*
X133855000Y-50630000D02*
X133855000Y-52780000D01*
X145910000Y-59130000D02*
X145910000Y-50590000D01*
X131315000Y-90880000D02*
X131315000Y-88730000D01*
X126885000Y-97205000D02*
X125660000Y-98430000D01*
X125600000Y-87430000D02*
X126885000Y-88715000D01*
X126885000Y-88715000D02*
X126885000Y-97205000D01*
X133855000Y-88730000D02*
X133855000Y-90880000D01*
X145910000Y-88690000D02*
X144650000Y-87430000D01*
X144710000Y-98430000D02*
X145910000Y-97230000D01*
X145910000Y-97230000D02*
X145910000Y-88690000D01*
X131315000Y-75130000D02*
X131315000Y-77280000D01*
X131315000Y-96330000D02*
X131315000Y-94180000D01*
X130190000Y-78405000D02*
X130190000Y-95205000D01*
X131315000Y-58230000D02*
X131315000Y-56080000D01*
X130190000Y-67640000D02*
X130190000Y-59355000D01*
X130190000Y-76155000D02*
X131315000Y-77280000D01*
X131315000Y-77280000D02*
X130190000Y-78405000D01*
X130190000Y-67640000D02*
X130190000Y-76155000D01*
X130190000Y-59355000D02*
X131315000Y-58230000D01*
X130190000Y-95205000D02*
X131315000Y-96330000D01*
X133855000Y-96330000D02*
X133855000Y-94180000D01*
X134980000Y-76155000D02*
X133855000Y-77280000D01*
X134980000Y-95205000D02*
X133855000Y-96330000D01*
X133855000Y-75130000D02*
X133855000Y-77280000D01*
X134980000Y-78405000D02*
X134980000Y-95205000D01*
X134980000Y-59355000D02*
X133855000Y-58230000D01*
X134980000Y-67680845D02*
X134980000Y-76155000D01*
X134976889Y-67677734D02*
X134980000Y-67674623D01*
X133855000Y-77280000D02*
X134980000Y-78405000D01*
X133855000Y-56080000D02*
X133855000Y-58230000D01*
X134980000Y-67674623D02*
X134980000Y-59355000D01*
X134976889Y-67677734D02*
X134980000Y-67680845D01*
X119250000Y-57790000D02*
X118360000Y-58680000D01*
X138300000Y-57790000D02*
X137410000Y-58680000D01*
X116170000Y-74750000D02*
X114900000Y-76020000D01*
X138300000Y-51890000D02*
X138300000Y-57790000D01*
X118360000Y-58680000D02*
X116170000Y-60870000D01*
X119250000Y-51890000D02*
X119250000Y-57790000D01*
X116170000Y-60870000D02*
X116170000Y-74750000D01*
X138300000Y-76840000D02*
X138300000Y-70940000D01*
X119250000Y-70940000D02*
X119250000Y-76840000D01*
X119250000Y-76840000D02*
X118360000Y-77730000D01*
X137410000Y-77730000D02*
X138300000Y-76840000D01*
X119250000Y-89990000D02*
X119250000Y-95890000D01*
X119250000Y-95890000D02*
X118360000Y-96780000D01*
X138300000Y-89990000D02*
X138300000Y-95890000D01*
X138300000Y-95890000D02*
X137410000Y-96780000D01*
G04 #@! TA.AperFunction,NonConductor*
G36*
X151037063Y-44905733D02*
G01*
X151056036Y-44907870D01*
X151061350Y-44908469D01*
X151145954Y-44919607D01*
X151160722Y-44923123D01*
X151200423Y-44937015D01*
X151202281Y-44937723D01*
X151261089Y-44962082D01*
X151272117Y-44967779D01*
X151289232Y-44978533D01*
X151311500Y-44992526D01*
X151314340Y-44994501D01*
X151364505Y-45032994D01*
X151368140Y-45036182D01*
X151403816Y-45071858D01*
X151407011Y-45075501D01*
X151445497Y-45125658D01*
X151447472Y-45128498D01*
X151463800Y-45154482D01*
X151472214Y-45167873D01*
X151477921Y-45178920D01*
X151502256Y-45237669D01*
X151502996Y-45239609D01*
X151516873Y-45279269D01*
X151520392Y-45294049D01*
X151531534Y-45378678D01*
X151534267Y-45402928D01*
X151534500Y-45407075D01*
X151534500Y-101552923D01*
X151534267Y-101557071D01*
X151531533Y-101581326D01*
X151520392Y-101665949D01*
X151516873Y-101680729D01*
X151502996Y-101720389D01*
X151502256Y-101722329D01*
X151477921Y-101781078D01*
X151472211Y-101792132D01*
X151447472Y-101831500D01*
X151445497Y-101834340D01*
X151407011Y-101884497D01*
X151403816Y-101888140D01*
X151368140Y-101923816D01*
X151364497Y-101927011D01*
X151314340Y-101965497D01*
X151311500Y-101967472D01*
X151272132Y-101992211D01*
X151261078Y-101997921D01*
X151202329Y-102022256D01*
X151200389Y-102022996D01*
X151160729Y-102036873D01*
X151145949Y-102040392D01*
X151061326Y-102051533D01*
X151047223Y-102053122D01*
X151037063Y-102054267D01*
X151032924Y-102054500D01*
X114137075Y-102054500D01*
X114132936Y-102054267D01*
X114112976Y-102052018D01*
X114108678Y-102051534D01*
X114024049Y-102040392D01*
X114009269Y-102036873D01*
X113969609Y-102022996D01*
X113967680Y-102022260D01*
X113908919Y-101997920D01*
X113897873Y-101992214D01*
X113884482Y-101983800D01*
X113858498Y-101967472D01*
X113855658Y-101965497D01*
X113824313Y-101941446D01*
X113805496Y-101927007D01*
X113801858Y-101923816D01*
X113766182Y-101888140D01*
X113762994Y-101884505D01*
X113724501Y-101834340D01*
X113722526Y-101831500D01*
X113713739Y-101817518D01*
X113697779Y-101792117D01*
X113692082Y-101781089D01*
X113667723Y-101722281D01*
X113667015Y-101720423D01*
X113653123Y-101680722D01*
X113649607Y-101665954D01*
X113638466Y-101581326D01*
X113635733Y-101557063D01*
X113635500Y-101552918D01*
X113635500Y-92641246D01*
X116409500Y-92641246D01*
X116450382Y-92859942D01*
X116507031Y-93006168D01*
X116530753Y-93067401D01*
X116555803Y-93107858D01*
X116645499Y-93252724D01*
X116647876Y-93256562D01*
X116797764Y-93420981D01*
X116807713Y-93428494D01*
X116975306Y-93555055D01*
X116975309Y-93555057D01*
X116975310Y-93555057D01*
X116975311Y-93555058D01*
X117174472Y-93654229D01*
X117388464Y-93715115D01*
X117554497Y-93730500D01*
X117554499Y-93730500D01*
X117965501Y-93730500D01*
X117965503Y-93730500D01*
X118131536Y-93715115D01*
X118345528Y-93654229D01*
X118544689Y-93555058D01*
X118554699Y-93547499D01*
X118722235Y-93420982D01*
X118722236Y-93420981D01*
X118722237Y-93420980D01*
X118745813Y-93395117D01*
X118790652Y-93371629D01*
X118840099Y-93382458D01*
X118871017Y-93422537D01*
X118874500Y-93444971D01*
X118874500Y-94989669D01*
X118857187Y-95037235D01*
X118813350Y-95062545D01*
X118763500Y-95053755D01*
X118760615Y-95052000D01*
X118735426Y-95035882D01*
X118735423Y-95035880D01*
X118735419Y-95035878D01*
X118735411Y-95035874D01*
X118514382Y-94941405D01*
X118280815Y-94884603D01*
X118280807Y-94884602D01*
X118041067Y-94867018D01*
X118041060Y-94867019D01*
X117801708Y-94889133D01*
X117569239Y-94950349D01*
X117379154Y-95035882D01*
X117350030Y-95048987D01*
X117277477Y-95097374D01*
X117150038Y-95182365D01*
X117150036Y-95182367D01*
X116974734Y-95346834D01*
X116974731Y-95346837D01*
X116828891Y-95537915D01*
X116828885Y-95537924D01*
X116716484Y-95750399D01*
X116640584Y-95978494D01*
X116603264Y-96215960D01*
X116603263Y-96215964D01*
X116605538Y-96456338D01*
X116647344Y-96693052D01*
X116647345Y-96693054D01*
X116727545Y-96919664D01*
X116727546Y-96919665D01*
X116814791Y-97077300D01*
X116814807Y-97077326D01*
X117491699Y-98092286D01*
X117491700Y-98092287D01*
X117603711Y-98233423D01*
X117603713Y-98233425D01*
X117782101Y-98394553D01*
X117984577Y-98524120D01*
X117984585Y-98524123D01*
X117984588Y-98524125D01*
X118205617Y-98618594D01*
X118439184Y-98675396D01*
X118439187Y-98675396D01*
X118439194Y-98675398D01*
X118643765Y-98690401D01*
X118678932Y-98692981D01*
X118678932Y-98692980D01*
X118678934Y-98692981D01*
X118823428Y-98679630D01*
X118918291Y-98670866D01*
X118918293Y-98670865D01*
X118918298Y-98670865D01*
X119150757Y-98609652D01*
X119369971Y-98511013D01*
X119491440Y-98430003D01*
X121604529Y-98430003D01*
X121624378Y-98669556D01*
X121624378Y-98669557D01*
X121683392Y-98902597D01*
X121779950Y-99122727D01*
X121779951Y-99122728D01*
X121911429Y-99323969D01*
X122074236Y-99500825D01*
X122263933Y-99648472D01*
X122475344Y-99762882D01*
X122702703Y-99840934D01*
X122939808Y-99880500D01*
X123185326Y-99880500D01*
X125539808Y-99880500D01*
X125780192Y-99880500D01*
X126017297Y-99840934D01*
X126244656Y-99762882D01*
X126456067Y-99648472D01*
X126645764Y-99500825D01*
X126808571Y-99323969D01*
X126940049Y-99122728D01*
X127036610Y-98902591D01*
X127095620Y-98669563D01*
X127095620Y-98669559D01*
X127095621Y-98669557D01*
X127095621Y-98669556D01*
X127115471Y-98430003D01*
X127115471Y-98429996D01*
X127095621Y-98190443D01*
X127095621Y-98190442D01*
X127070765Y-98092287D01*
X127036610Y-97957409D01*
X126943196Y-97744448D01*
X126939944Y-97693934D01*
X126958636Y-97662399D01*
X127117558Y-97503477D01*
X127129400Y-97493861D01*
X127142836Y-97485084D01*
X127165594Y-97455843D01*
X127168631Y-97452405D01*
X127172520Y-97448517D01*
X127185653Y-97430121D01*
X127186532Y-97428942D01*
X127219809Y-97386189D01*
X127222727Y-97380797D01*
X127222977Y-97380932D01*
X127224570Y-97377838D01*
X127224314Y-97377713D01*
X127227006Y-97372203D01*
X127227010Y-97372199D01*
X127242460Y-97320303D01*
X127242927Y-97318846D01*
X127260500Y-97267660D01*
X127260500Y-97267657D01*
X127261510Y-97261610D01*
X127261787Y-97261656D01*
X127262289Y-97258207D01*
X127262010Y-97258173D01*
X127262767Y-97252094D01*
X127262769Y-97252088D01*
X127261091Y-97211528D01*
X127260531Y-97197987D01*
X127260499Y-97196458D01*
X127260499Y-95236114D01*
X127260499Y-93461422D01*
X127277812Y-93413859D01*
X127321649Y-93388549D01*
X127371499Y-93397339D01*
X127389185Y-93411571D01*
X127397762Y-93420980D01*
X127397764Y-93420982D01*
X127575306Y-93555055D01*
X127575309Y-93555057D01*
X127575310Y-93555057D01*
X127575311Y-93555058D01*
X127774472Y-93654229D01*
X127988464Y-93715115D01*
X128154497Y-93730500D01*
X128154499Y-93730500D01*
X128565501Y-93730500D01*
X128565503Y-93730500D01*
X128731536Y-93715115D01*
X128945528Y-93654229D01*
X129144689Y-93555058D01*
X129322236Y-93420981D01*
X129472124Y-93256562D01*
X129589247Y-93067401D01*
X129669618Y-92859940D01*
X129669617Y-92859940D01*
X129670854Y-92856750D01*
X129672046Y-92857211D01*
X129698986Y-92819963D01*
X129748075Y-92807610D01*
X129793619Y-92829700D01*
X129814308Y-92875898D01*
X129814500Y-92881221D01*
X129814500Y-95158381D01*
X129812925Y-95173566D01*
X129809633Y-95189264D01*
X129809633Y-95189269D01*
X129814216Y-95226032D01*
X129814500Y-95230613D01*
X129814500Y-95236118D01*
X129818215Y-95258380D01*
X129818435Y-95259892D01*
X129825134Y-95313627D01*
X129826884Y-95319504D01*
X129826615Y-95319584D01*
X129827679Y-95322904D01*
X129827945Y-95322813D01*
X129829935Y-95328610D01*
X129855696Y-95376215D01*
X129856391Y-95377564D01*
X129856522Y-95377832D01*
X129880175Y-95426214D01*
X129883738Y-95431204D01*
X129883510Y-95431366D01*
X129885595Y-95434162D01*
X129885817Y-95433990D01*
X129889579Y-95438823D01*
X129889581Y-95438826D01*
X129929400Y-95475482D01*
X129930504Y-95476541D01*
X130242825Y-95788862D01*
X130264217Y-95834738D01*
X130264499Y-95841188D01*
X130264499Y-97154672D01*
X130279034Y-97227740D01*
X130322408Y-97292656D01*
X130334399Y-97310601D01*
X130417260Y-97365966D01*
X130490326Y-97380500D01*
X130490328Y-97380500D01*
X132139672Y-97380500D01*
X132139674Y-97380500D01*
X132212740Y-97365966D01*
X132295601Y-97310601D01*
X132350966Y-97227740D01*
X132365500Y-97154674D01*
X132365500Y-95505326D01*
X132350966Y-95432260D01*
X132295601Y-95349399D01*
X132291765Y-95346836D01*
X132212740Y-95294034D01*
X132198422Y-95291186D01*
X132139674Y-95279500D01*
X132139672Y-95279500D01*
X131764500Y-95279500D01*
X131716934Y-95262187D01*
X131691624Y-95218350D01*
X131690500Y-95205500D01*
X131690500Y-94951806D01*
X131707813Y-94904240D01*
X131751650Y-94878930D01*
X131756587Y-94878230D01*
X131792114Y-94874412D01*
X131920226Y-94826628D01*
X132029687Y-94744687D01*
X132111628Y-94635226D01*
X132159412Y-94507114D01*
X132165500Y-94450485D01*
X132165499Y-93909516D01*
X132159412Y-93852886D01*
X132111628Y-93724774D01*
X132029687Y-93615313D01*
X131939098Y-93547499D01*
X131920225Y-93533371D01*
X131920226Y-93533371D01*
X131792114Y-93485588D01*
X131735486Y-93479500D01*
X130894515Y-93479500D01*
X130894514Y-93479501D01*
X130837885Y-93485588D01*
X130709774Y-93533371D01*
X130683846Y-93552781D01*
X130635392Y-93567426D01*
X130588860Y-93547499D01*
X130566023Y-93502324D01*
X130565500Y-93493540D01*
X130565500Y-91566459D01*
X130582813Y-91518893D01*
X130626650Y-91493583D01*
X130676500Y-91502373D01*
X130683842Y-91507216D01*
X130709774Y-91526628D01*
X130709773Y-91526628D01*
X130757556Y-91544450D01*
X130837886Y-91574412D01*
X130894515Y-91580500D01*
X131735484Y-91580499D01*
X131792114Y-91574412D01*
X131920226Y-91526628D01*
X132029687Y-91444687D01*
X132111628Y-91335226D01*
X132159412Y-91207114D01*
X132165500Y-91150485D01*
X132165499Y-90609516D01*
X132159412Y-90552886D01*
X132111628Y-90424774D01*
X132029687Y-90315313D01*
X131939098Y-90247499D01*
X131920225Y-90233371D01*
X131920226Y-90233371D01*
X131792114Y-90185588D01*
X131756588Y-90181768D01*
X131711146Y-90159469D01*
X131690668Y-90113177D01*
X131690500Y-90108192D01*
X131690500Y-89764794D01*
X131707813Y-89717228D01*
X131729615Y-89699533D01*
X131901450Y-89607685D01*
X132061410Y-89476410D01*
X132192685Y-89316450D01*
X132290232Y-89133954D01*
X132350300Y-88935934D01*
X132370583Y-88730000D01*
X132350300Y-88524066D01*
X132290232Y-88326046D01*
X132192685Y-88143550D01*
X132061410Y-87983590D01*
X131901450Y-87852315D01*
X131718954Y-87754768D01*
X131607158Y-87720855D01*
X131520935Y-87694700D01*
X131315000Y-87674417D01*
X131109064Y-87694700D01*
X130911043Y-87754769D01*
X130728549Y-87852315D01*
X130686443Y-87886870D01*
X130638690Y-87903662D01*
X130591316Y-87885830D01*
X130566487Y-87841719D01*
X130565500Y-87829678D01*
X130565499Y-83725144D01*
X130582813Y-83677578D01*
X130626650Y-83652268D01*
X130676500Y-83661058D01*
X130708834Y-83699284D01*
X130760630Y-83838157D01*
X130897772Y-84089313D01*
X130983517Y-84203855D01*
X131069261Y-84318395D01*
X131271605Y-84520739D01*
X131443415Y-84649354D01*
X131500686Y-84692227D01*
X131751843Y-84829369D01*
X132019939Y-84929364D01*
X132019945Y-84929365D01*
X132019954Y-84929369D01*
X132299572Y-84990196D01*
X132513539Y-85005499D01*
X132513544Y-85005500D01*
X132513552Y-85005500D01*
X132656456Y-85005500D01*
X132656459Y-85005499D01*
X132870428Y-84990196D01*
X133150046Y-84929369D01*
X133150057Y-84929364D01*
X133150060Y-84929364D01*
X133418156Y-84829369D01*
X133418156Y-84829368D01*
X133418161Y-84829367D01*
X133669315Y-84692226D01*
X133898395Y-84520739D01*
X134100739Y-84318395D01*
X134272226Y-84089315D01*
X134409367Y-83838161D01*
X134409367Y-83838159D01*
X134409369Y-83838157D01*
X134461166Y-83699284D01*
X134494009Y-83660767D01*
X134543928Y-83652372D01*
X134587563Y-83678029D01*
X134604500Y-83725144D01*
X134604500Y-87829666D01*
X134587187Y-87877232D01*
X134543350Y-87902542D01*
X134493500Y-87893752D01*
X134483555Y-87886869D01*
X134441450Y-87852315D01*
X134258956Y-87754769D01*
X134258955Y-87754768D01*
X134258954Y-87754768D01*
X134147158Y-87720855D01*
X134060935Y-87694700D01*
X133855000Y-87674417D01*
X133649064Y-87694700D01*
X133451043Y-87754769D01*
X133268549Y-87852315D01*
X133108590Y-87983589D01*
X133108589Y-87983590D01*
X132977315Y-88143549D01*
X132879769Y-88326043D01*
X132819700Y-88524064D01*
X132806595Y-88657117D01*
X132799417Y-88730000D01*
X132819700Y-88935934D01*
X132879768Y-89133954D01*
X132977315Y-89316450D01*
X133108590Y-89476410D01*
X133268550Y-89607685D01*
X133440383Y-89699532D01*
X133474172Y-89737223D01*
X133479500Y-89764794D01*
X133479500Y-90108193D01*
X133462187Y-90155759D01*
X133418350Y-90181069D01*
X133413410Y-90181769D01*
X133377885Y-90185588D01*
X133249774Y-90233371D01*
X133140313Y-90315313D01*
X133058371Y-90424774D01*
X133010588Y-90552884D01*
X133010588Y-90552887D01*
X133004500Y-90609513D01*
X133004500Y-91150484D01*
X133004501Y-91150485D01*
X133010588Y-91207114D01*
X133058371Y-91335225D01*
X133078972Y-91362744D01*
X133140313Y-91444687D01*
X133249774Y-91526628D01*
X133249773Y-91526628D01*
X133297556Y-91544450D01*
X133377886Y-91574412D01*
X133434515Y-91580500D01*
X134275484Y-91580499D01*
X134332114Y-91574412D01*
X134460226Y-91526628D01*
X134486153Y-91507218D01*
X134534607Y-91492573D01*
X134581139Y-91512499D01*
X134603977Y-91557673D01*
X134604500Y-91566459D01*
X134604500Y-93493540D01*
X134587187Y-93541106D01*
X134543350Y-93566416D01*
X134493500Y-93557626D01*
X134486154Y-93552781D01*
X134460225Y-93533371D01*
X134332114Y-93485588D01*
X134275486Y-93479500D01*
X133434515Y-93479500D01*
X133434514Y-93479501D01*
X133377885Y-93485588D01*
X133249774Y-93533371D01*
X133140313Y-93615313D01*
X133058371Y-93724774D01*
X133010588Y-93852884D01*
X133010588Y-93852887D01*
X133004500Y-93909513D01*
X133004500Y-94450484D01*
X133004501Y-94450485D01*
X133010588Y-94507114D01*
X133058371Y-94635225D01*
X133058372Y-94635226D01*
X133140313Y-94744687D01*
X133249774Y-94826628D01*
X133249773Y-94826628D01*
X133297556Y-94844450D01*
X133377886Y-94874412D01*
X133413410Y-94878231D01*
X133458853Y-94900529D01*
X133479332Y-94946821D01*
X133479500Y-94951807D01*
X133479500Y-95205500D01*
X133462187Y-95253066D01*
X133418350Y-95278376D01*
X133405500Y-95279500D01*
X133030326Y-95279500D01*
X132981615Y-95289189D01*
X132957259Y-95294034D01*
X132874399Y-95349398D01*
X132874398Y-95349399D01*
X132819034Y-95432259D01*
X132817728Y-95438826D01*
X132804500Y-95505326D01*
X132804500Y-97154674D01*
X132812812Y-97196458D01*
X132819034Y-97227740D01*
X132862408Y-97292656D01*
X132874399Y-97310601D01*
X132957260Y-97365966D01*
X133030326Y-97380500D01*
X133030328Y-97380500D01*
X134679672Y-97380500D01*
X134679674Y-97380500D01*
X134752740Y-97365966D01*
X134835601Y-97310601D01*
X134890966Y-97227740D01*
X134905500Y-97154674D01*
X134905500Y-95841187D01*
X134922813Y-95793622D01*
X134927174Y-95788862D01*
X134965637Y-95750399D01*
X135212558Y-95503477D01*
X135224400Y-95493861D01*
X135237836Y-95485084D01*
X135260594Y-95455843D01*
X135263631Y-95452405D01*
X135267519Y-95448518D01*
X135280636Y-95430145D01*
X135281552Y-95428916D01*
X135283657Y-95426211D01*
X135314809Y-95386189D01*
X135314810Y-95386183D01*
X135317729Y-95380792D01*
X135317978Y-95380926D01*
X135319571Y-95377832D01*
X135319316Y-95377708D01*
X135322009Y-95372200D01*
X135322008Y-95372200D01*
X135322010Y-95372199D01*
X135337459Y-95320302D01*
X135337900Y-95318925D01*
X135355500Y-95267660D01*
X135355500Y-95267656D01*
X135356510Y-95261609D01*
X135356786Y-95261655D01*
X135357289Y-95258207D01*
X135357009Y-95258173D01*
X135357765Y-95252096D01*
X135357768Y-95252089D01*
X135356156Y-95213110D01*
X135355532Y-95198002D01*
X135355500Y-95196473D01*
X135355500Y-92881221D01*
X135372813Y-92833655D01*
X135416650Y-92808345D01*
X135466500Y-92817135D01*
X135499037Y-92855912D01*
X135500136Y-92859305D01*
X135500381Y-92859939D01*
X135500382Y-92859940D01*
X135580753Y-93067401D01*
X135605803Y-93107858D01*
X135695499Y-93252724D01*
X135697876Y-93256562D01*
X135847764Y-93420981D01*
X135857713Y-93428494D01*
X136025306Y-93555055D01*
X136025309Y-93555057D01*
X136025310Y-93555057D01*
X136025311Y-93555058D01*
X136224472Y-93654229D01*
X136438464Y-93715115D01*
X136604497Y-93730500D01*
X136604499Y-93730500D01*
X137015501Y-93730500D01*
X137015503Y-93730500D01*
X137181536Y-93715115D01*
X137395528Y-93654229D01*
X137594689Y-93555058D01*
X137604699Y-93547499D01*
X137772235Y-93420982D01*
X137772236Y-93420981D01*
X137772235Y-93420980D01*
X137795813Y-93395117D01*
X137840652Y-93371629D01*
X137890099Y-93382458D01*
X137921017Y-93422537D01*
X137924500Y-93444971D01*
X137924500Y-94989669D01*
X137907187Y-95037235D01*
X137863350Y-95062545D01*
X137813500Y-95053755D01*
X137810615Y-95052000D01*
X137785426Y-95035882D01*
X137785423Y-95035880D01*
X137785419Y-95035878D01*
X137785411Y-95035874D01*
X137564382Y-94941405D01*
X137330815Y-94884603D01*
X137330807Y-94884602D01*
X137091067Y-94867018D01*
X137091060Y-94867019D01*
X136851708Y-94889133D01*
X136619239Y-94950349D01*
X136429154Y-95035882D01*
X136400030Y-95048987D01*
X136327477Y-95097374D01*
X136200038Y-95182365D01*
X136200036Y-95182367D01*
X136024734Y-95346834D01*
X136024731Y-95346837D01*
X135878891Y-95537915D01*
X135878885Y-95537924D01*
X135766484Y-95750399D01*
X135690584Y-95978494D01*
X135653264Y-96215960D01*
X135653263Y-96215964D01*
X135655538Y-96456338D01*
X135697344Y-96693052D01*
X135697345Y-96693054D01*
X135777545Y-96919664D01*
X135777546Y-96919665D01*
X135864791Y-97077300D01*
X135864807Y-97077326D01*
X136541699Y-98092286D01*
X136541700Y-98092287D01*
X136653711Y-98233423D01*
X136653713Y-98233425D01*
X136832101Y-98394553D01*
X137034577Y-98524120D01*
X137034585Y-98524123D01*
X137034588Y-98524125D01*
X137255617Y-98618594D01*
X137489184Y-98675396D01*
X137489187Y-98675396D01*
X137489194Y-98675398D01*
X137693765Y-98690401D01*
X137728932Y-98692981D01*
X137728932Y-98692980D01*
X137728934Y-98692981D01*
X137873428Y-98679630D01*
X137968291Y-98670866D01*
X137968293Y-98670865D01*
X137968298Y-98670865D01*
X138200757Y-98609652D01*
X138419971Y-98511013D01*
X138541440Y-98430003D01*
X140654529Y-98430003D01*
X140674378Y-98669556D01*
X140674378Y-98669557D01*
X140733392Y-98902597D01*
X140829950Y-99122727D01*
X140829951Y-99122728D01*
X140961429Y-99323969D01*
X141124236Y-99500825D01*
X141313933Y-99648472D01*
X141525344Y-99762882D01*
X141752703Y-99840934D01*
X141989808Y-99880500D01*
X142235326Y-99880500D01*
X144589808Y-99880500D01*
X144830192Y-99880500D01*
X145067297Y-99840934D01*
X145294656Y-99762882D01*
X145506067Y-99648472D01*
X145695764Y-99500825D01*
X145858571Y-99323969D01*
X145990049Y-99122728D01*
X146086610Y-98902591D01*
X146145620Y-98669563D01*
X146145620Y-98669559D01*
X146145621Y-98669557D01*
X146145621Y-98669556D01*
X146165471Y-98430003D01*
X146165471Y-98429996D01*
X146145621Y-98190443D01*
X146145621Y-98190442D01*
X146120765Y-98092287D01*
X146086610Y-97957409D01*
X145993196Y-97744448D01*
X145989944Y-97693934D01*
X146008636Y-97662399D01*
X146142558Y-97528477D01*
X146154400Y-97518861D01*
X146167836Y-97510084D01*
X146190594Y-97480843D01*
X146193631Y-97477405D01*
X146197519Y-97473518D01*
X146210636Y-97455145D01*
X146211552Y-97453916D01*
X146215755Y-97448516D01*
X146244809Y-97411189D01*
X146244810Y-97411183D01*
X146247729Y-97405792D01*
X146247978Y-97405926D01*
X146249571Y-97402832D01*
X146249316Y-97402708D01*
X146252009Y-97397200D01*
X146252008Y-97397200D01*
X146252010Y-97397199D01*
X146267459Y-97345302D01*
X146267900Y-97343925D01*
X146285500Y-97292660D01*
X146285500Y-97292656D01*
X146286510Y-97286609D01*
X146286786Y-97286655D01*
X146287289Y-97283207D01*
X146287009Y-97283173D01*
X146287765Y-97277096D01*
X146287768Y-97277089D01*
X146286487Y-97246131D01*
X146285532Y-97223002D01*
X146285500Y-97221473D01*
X146285500Y-93434002D01*
X146302813Y-93386436D01*
X146346650Y-93361126D01*
X146396500Y-93369916D01*
X146414187Y-93384149D01*
X146447763Y-93420981D01*
X146447764Y-93420982D01*
X146625306Y-93555055D01*
X146625309Y-93555057D01*
X146625310Y-93555057D01*
X146625311Y-93555058D01*
X146824472Y-93654229D01*
X147038464Y-93715115D01*
X147204497Y-93730500D01*
X147204499Y-93730500D01*
X147615501Y-93730500D01*
X147615503Y-93730500D01*
X147781536Y-93715115D01*
X147995528Y-93654229D01*
X148194689Y-93555058D01*
X148372236Y-93420981D01*
X148522124Y-93256562D01*
X148639247Y-93067401D01*
X148719618Y-92859940D01*
X148760500Y-92641243D01*
X148760500Y-92418757D01*
X148719618Y-92200060D01*
X148639247Y-91992599D01*
X148522124Y-91803438D01*
X148372236Y-91639019D01*
X148318677Y-91598573D01*
X148194693Y-91504944D01*
X148194690Y-91504942D01*
X148073679Y-91444686D01*
X147995528Y-91405771D01*
X147995524Y-91405770D01*
X147995522Y-91405769D01*
X147781537Y-91344885D01*
X147781524Y-91344883D01*
X147615509Y-91329500D01*
X147615503Y-91329500D01*
X147204497Y-91329500D01*
X147204490Y-91329500D01*
X147038475Y-91344883D01*
X147038462Y-91344885D01*
X146824477Y-91405769D01*
X146824472Y-91405771D01*
X146625309Y-91504942D01*
X146625306Y-91504944D01*
X146447764Y-91639017D01*
X146447762Y-91639019D01*
X146414186Y-91675851D01*
X146369347Y-91699339D01*
X146319900Y-91688509D01*
X146288982Y-91648430D01*
X146285500Y-91625997D01*
X146285500Y-88954500D01*
X146302813Y-88906934D01*
X146346650Y-88881624D01*
X146359500Y-88880500D01*
X147230192Y-88880500D01*
X147467297Y-88840934D01*
X147694656Y-88762882D01*
X147906067Y-88648472D01*
X148095764Y-88500825D01*
X148258571Y-88323969D01*
X148390049Y-88122728D01*
X148486610Y-87902591D01*
X148545620Y-87669563D01*
X148545620Y-87669559D01*
X148545621Y-87669557D01*
X148545621Y-87669556D01*
X148565471Y-87430003D01*
X148565471Y-87429996D01*
X148545621Y-87190443D01*
X148545621Y-87190442D01*
X148545620Y-87190437D01*
X148486610Y-86957409D01*
X148390049Y-86737272D01*
X148258571Y-86536031D01*
X148095764Y-86359175D01*
X147906067Y-86211528D01*
X147817715Y-86163714D01*
X147694655Y-86097117D01*
X147467295Y-86019065D01*
X147230194Y-85979500D01*
X147230192Y-85979500D01*
X147104674Y-85979500D01*
X144770192Y-85979500D01*
X144529808Y-85979500D01*
X144529805Y-85979500D01*
X144292704Y-86019065D01*
X144065344Y-86097117D01*
X143853940Y-86211524D01*
X143853928Y-86211531D01*
X143664234Y-86359176D01*
X143501427Y-86536033D01*
X143369951Y-86737271D01*
X143273392Y-86957402D01*
X143214378Y-87190442D01*
X143214378Y-87190443D01*
X143194529Y-87429996D01*
X143194529Y-87430003D01*
X143214378Y-87669556D01*
X143214378Y-87669557D01*
X143235957Y-87754769D01*
X143266968Y-87877232D01*
X143273392Y-87902597D01*
X143308919Y-87983589D01*
X143369951Y-88122728D01*
X143501429Y-88323969D01*
X143664236Y-88500825D01*
X143853933Y-88648472D01*
X144065344Y-88762882D01*
X144292703Y-88840934D01*
X144529808Y-88880500D01*
X144655326Y-88880500D01*
X145460500Y-88880500D01*
X145508066Y-88897813D01*
X145533376Y-88941650D01*
X145534500Y-88954500D01*
X145534500Y-97043809D01*
X145517187Y-97091375D01*
X145512826Y-97096135D01*
X145474597Y-97134364D01*
X145428721Y-97155756D01*
X145387051Y-97147119D01*
X145294659Y-97097119D01*
X145277796Y-97091330D01*
X145067297Y-97019066D01*
X145067294Y-97019065D01*
X145067293Y-97019065D01*
X144830194Y-96979500D01*
X144830192Y-96979500D01*
X144589808Y-96979500D01*
X144584674Y-96979500D01*
X142235326Y-96979500D01*
X142230192Y-96979500D01*
X141989808Y-96979500D01*
X141989805Y-96979500D01*
X141752704Y-97019065D01*
X141525344Y-97097117D01*
X141313940Y-97211524D01*
X141313928Y-97211531D01*
X141124234Y-97359176D01*
X140961427Y-97536033D01*
X140829951Y-97737271D01*
X140733392Y-97957402D01*
X140674378Y-98190442D01*
X140674378Y-98190443D01*
X140654529Y-98429996D01*
X140654529Y-98430003D01*
X138541440Y-98430003D01*
X138619959Y-98377637D01*
X138795267Y-98213164D01*
X138941112Y-98022080D01*
X139053517Y-97809596D01*
X139129415Y-97581508D01*
X139166736Y-97344039D01*
X139164462Y-97103666D01*
X139122655Y-96866946D01*
X139042455Y-96640336D01*
X138955199Y-96482683D01*
X138670738Y-96056152D01*
X138658751Y-96006975D01*
X138662312Y-95991073D01*
X138675500Y-95952660D01*
X138675500Y-95952656D01*
X138676510Y-95946610D01*
X138676786Y-95946656D01*
X138677289Y-95943206D01*
X138677009Y-95943172D01*
X138677765Y-95937095D01*
X138677768Y-95937088D01*
X138676462Y-95905511D01*
X138675532Y-95883002D01*
X138675500Y-95881474D01*
X138675500Y-92446882D01*
X139305804Y-92446882D01*
X139315654Y-92779099D01*
X139315656Y-92779121D01*
X139364730Y-93107856D01*
X139364731Y-93107857D01*
X139452344Y-93428494D01*
X139577266Y-93736516D01*
X139577267Y-93736517D01*
X139737742Y-94027603D01*
X139931519Y-94297665D01*
X140155877Y-94542914D01*
X140407666Y-94759906D01*
X140612316Y-94897748D01*
X140683351Y-94945594D01*
X140683353Y-94945595D01*
X140979067Y-95097374D01*
X141290656Y-95213113D01*
X141613747Y-95291187D01*
X141943805Y-95330500D01*
X141943809Y-95330500D01*
X142193023Y-95330500D01*
X142441807Y-95315736D01*
X142768956Y-95256939D01*
X143086854Y-95159862D01*
X143391040Y-95025868D01*
X143677243Y-94856837D01*
X143941445Y-94655142D01*
X144179937Y-94423616D01*
X144389373Y-94165506D01*
X144566810Y-93884438D01*
X144709760Y-93584357D01*
X144816215Y-93269475D01*
X144884680Y-92944212D01*
X144914195Y-92613134D01*
X144914195Y-92613120D01*
X144914195Y-92613117D01*
X144904345Y-92280900D01*
X144904345Y-92280890D01*
X144855269Y-91952142D01*
X144775737Y-91661084D01*
X144767655Y-91631505D01*
X144642733Y-91323483D01*
X144579329Y-91208475D01*
X144482258Y-91032397D01*
X144288481Y-90762335D01*
X144064123Y-90517086D01*
X143812334Y-90300094D01*
X143667178Y-90202324D01*
X143536648Y-90114405D01*
X143380253Y-90034134D01*
X143240933Y-89962626D01*
X142929344Y-89846887D01*
X142606253Y-89768813D01*
X142276195Y-89729500D01*
X142026977Y-89729500D01*
X141778201Y-89744263D01*
X141778184Y-89744265D01*
X141451049Y-89803059D01*
X141133147Y-89900137D01*
X140828954Y-90034134D01*
X140542773Y-90203152D01*
X140542752Y-90203166D01*
X140278557Y-90404855D01*
X140278547Y-90404864D01*
X140040068Y-90636378D01*
X140040063Y-90636383D01*
X140040063Y-90636384D01*
X139839168Y-90883969D01*
X139830625Y-90894497D01*
X139830623Y-90894498D01*
X139653189Y-91175562D01*
X139653188Y-91175564D01*
X139510239Y-91475644D01*
X139403787Y-91790515D01*
X139403784Y-91790525D01*
X139335321Y-92115778D01*
X139335320Y-92115787D01*
X139335320Y-92115788D01*
X139320602Y-92280890D01*
X139305804Y-92446879D01*
X139305804Y-92446882D01*
X138675500Y-92446882D01*
X138675500Y-91447519D01*
X138692813Y-91399953D01*
X138725471Y-91377529D01*
X138884656Y-91322882D01*
X139096067Y-91208472D01*
X139285764Y-91060825D01*
X139448571Y-90883969D01*
X139580049Y-90682728D01*
X139676610Y-90462591D01*
X139735620Y-90229563D01*
X139735620Y-90229559D01*
X139735621Y-90229557D01*
X139735621Y-90229556D01*
X139755471Y-89990003D01*
X139755471Y-89989996D01*
X139735621Y-89750443D01*
X139735621Y-89750442D01*
X139734057Y-89744264D01*
X139676610Y-89517409D01*
X139580049Y-89297272D01*
X139448571Y-89096031D01*
X139285764Y-88919175D01*
X139096067Y-88771528D01*
X139007715Y-88723714D01*
X138884655Y-88657117D01*
X138657295Y-88579065D01*
X138420194Y-88539500D01*
X138420192Y-88539500D01*
X138179808Y-88539500D01*
X138179805Y-88539500D01*
X137942704Y-88579065D01*
X137715344Y-88657117D01*
X137503940Y-88771524D01*
X137503928Y-88771531D01*
X137314234Y-88919176D01*
X137151427Y-89096033D01*
X137019951Y-89297271D01*
X136923392Y-89517402D01*
X136864378Y-89750442D01*
X136864378Y-89750443D01*
X136844529Y-89989996D01*
X136844529Y-89990003D01*
X136864378Y-90229556D01*
X136864378Y-90229557D01*
X136893884Y-90346076D01*
X136908769Y-90404855D01*
X136923392Y-90462597D01*
X136962997Y-90552886D01*
X137019951Y-90682728D01*
X137151429Y-90883969D01*
X137314236Y-91060825D01*
X137503933Y-91208472D01*
X137715344Y-91322882D01*
X137874528Y-91377528D01*
X137913895Y-91409347D01*
X137924500Y-91447519D01*
X137924500Y-91615028D01*
X137907187Y-91662594D01*
X137863350Y-91687904D01*
X137813500Y-91679114D01*
X137795814Y-91664882D01*
X137772237Y-91639019D01*
X137772235Y-91639017D01*
X137594693Y-91504944D01*
X137594690Y-91504942D01*
X137473679Y-91444686D01*
X137395528Y-91405771D01*
X137395524Y-91405770D01*
X137395522Y-91405769D01*
X137181537Y-91344885D01*
X137181524Y-91344883D01*
X137015509Y-91329500D01*
X137015503Y-91329500D01*
X136604497Y-91329500D01*
X136604490Y-91329500D01*
X136438475Y-91344883D01*
X136438462Y-91344885D01*
X136224477Y-91405769D01*
X136224472Y-91405771D01*
X136025309Y-91504942D01*
X136025306Y-91504944D01*
X135847767Y-91639016D01*
X135697874Y-91803440D01*
X135580756Y-91992594D01*
X135580751Y-91992604D01*
X135499146Y-92203250D01*
X135497954Y-92202788D01*
X135471007Y-92240041D01*
X135421917Y-92252388D01*
X135376375Y-92230292D01*
X135355691Y-92184092D01*
X135355500Y-92178778D01*
X135355500Y-78451617D01*
X135357075Y-78436431D01*
X135360367Y-78420732D01*
X135355783Y-78383963D01*
X135355500Y-78379385D01*
X135355500Y-78373890D01*
X135355499Y-78373881D01*
X135353381Y-78361189D01*
X135351784Y-78351624D01*
X135351565Y-78350119D01*
X135350154Y-78338802D01*
X135344866Y-78296374D01*
X135344864Y-78296370D01*
X135343115Y-78290493D01*
X135343386Y-78290412D01*
X135342324Y-78287096D01*
X135342056Y-78287189D01*
X135340065Y-78281389D01*
X135314312Y-78233802D01*
X135313612Y-78232442D01*
X135289826Y-78183788D01*
X135286264Y-78178800D01*
X135286493Y-78178636D01*
X135284407Y-78175839D01*
X135284185Y-78176013D01*
X135280419Y-78171174D01*
X135265655Y-78157583D01*
X135240591Y-78134510D01*
X135239495Y-78133458D01*
X134927174Y-77821136D01*
X134905782Y-77775259D01*
X134905500Y-77768810D01*
X134905500Y-76791188D01*
X134922813Y-76743622D01*
X134927174Y-76738862D01*
X134965637Y-76700399D01*
X135212558Y-76453477D01*
X135224400Y-76443861D01*
X135237836Y-76435084D01*
X135260594Y-76405843D01*
X135263631Y-76402405D01*
X135267519Y-76398518D01*
X135280636Y-76380145D01*
X135281552Y-76378916D01*
X135283657Y-76376211D01*
X135314809Y-76336189D01*
X135314810Y-76336183D01*
X135317729Y-76330792D01*
X135317978Y-76330926D01*
X135319571Y-76327832D01*
X135319316Y-76327708D01*
X135322009Y-76322200D01*
X135322008Y-76322200D01*
X135322010Y-76322199D01*
X135337459Y-76270302D01*
X135337900Y-76268925D01*
X135355500Y-76217660D01*
X135355500Y-76217656D01*
X135356510Y-76211609D01*
X135356786Y-76211655D01*
X135357289Y-76208207D01*
X135357009Y-76208173D01*
X135357765Y-76202096D01*
X135357768Y-76202089D01*
X135356156Y-76163110D01*
X135355532Y-76148002D01*
X135355500Y-76146473D01*
X135355500Y-73831221D01*
X135372813Y-73783655D01*
X135416650Y-73758345D01*
X135466500Y-73767135D01*
X135499037Y-73805912D01*
X135500136Y-73809305D01*
X135500381Y-73809939D01*
X135500382Y-73809940D01*
X135580753Y-74017401D01*
X135608259Y-74061825D01*
X135695499Y-74202724D01*
X135697876Y-74206562D01*
X135847764Y-74370981D01*
X135857713Y-74378494D01*
X136025306Y-74505055D01*
X136025309Y-74505057D01*
X136025310Y-74505057D01*
X136025311Y-74505058D01*
X136224472Y-74604229D01*
X136438464Y-74665115D01*
X136604497Y-74680500D01*
X136604499Y-74680500D01*
X137015501Y-74680500D01*
X137015503Y-74680500D01*
X137181536Y-74665115D01*
X137395528Y-74604229D01*
X137594689Y-74505058D01*
X137604699Y-74497499D01*
X137772235Y-74370982D01*
X137772236Y-74370981D01*
X137780441Y-74361981D01*
X137795813Y-74345117D01*
X137840652Y-74321629D01*
X137890099Y-74332458D01*
X137921017Y-74372537D01*
X137924500Y-74394971D01*
X137924500Y-75939669D01*
X137907187Y-75987235D01*
X137863350Y-76012545D01*
X137813500Y-76003755D01*
X137810615Y-76002000D01*
X137785426Y-75985882D01*
X137785423Y-75985880D01*
X137785419Y-75985878D01*
X137785411Y-75985874D01*
X137564382Y-75891405D01*
X137330815Y-75834603D01*
X137330807Y-75834602D01*
X137091067Y-75817018D01*
X137091060Y-75817019D01*
X136851708Y-75839133D01*
X136619239Y-75900349D01*
X136429154Y-75985882D01*
X136400030Y-75998987D01*
X136327477Y-76047374D01*
X136200038Y-76132365D01*
X136200036Y-76132367D01*
X136024734Y-76296834D01*
X136024731Y-76296837D01*
X135878891Y-76487915D01*
X135878885Y-76487924D01*
X135766484Y-76700399D01*
X135690584Y-76928494D01*
X135653264Y-77165960D01*
X135653263Y-77165964D01*
X135655538Y-77406338D01*
X135697344Y-77643052D01*
X135772614Y-77855732D01*
X135777545Y-77869664D01*
X135777546Y-77869665D01*
X135864791Y-78027300D01*
X135864807Y-78027326D01*
X136541699Y-79042286D01*
X136541700Y-79042287D01*
X136653711Y-79183423D01*
X136653713Y-79183425D01*
X136832101Y-79344553D01*
X137034577Y-79474120D01*
X137034585Y-79474123D01*
X137034588Y-79474125D01*
X137255617Y-79568594D01*
X137489184Y-79625396D01*
X137489187Y-79625396D01*
X137489194Y-79625398D01*
X137693766Y-79640401D01*
X137728932Y-79642981D01*
X137728932Y-79642980D01*
X137728934Y-79642981D01*
X137873428Y-79629630D01*
X137968291Y-79620866D01*
X137968293Y-79620865D01*
X137968298Y-79620865D01*
X138200757Y-79559652D01*
X138419971Y-79461013D01*
X138541440Y-79380003D01*
X140654529Y-79380003D01*
X140674378Y-79619556D01*
X140674378Y-79619557D01*
X140733392Y-79852597D01*
X140821949Y-80054486D01*
X140829951Y-80072728D01*
X140961429Y-80273969D01*
X141124236Y-80450825D01*
X141313933Y-80598472D01*
X141525344Y-80712882D01*
X141752703Y-80790934D01*
X141989808Y-80830500D01*
X142235326Y-80830500D01*
X144589808Y-80830500D01*
X144830192Y-80830500D01*
X145067297Y-80790934D01*
X145294656Y-80712882D01*
X145506067Y-80598472D01*
X145695764Y-80450825D01*
X145858571Y-80273969D01*
X145990049Y-80072728D01*
X146086610Y-79852591D01*
X146145620Y-79619563D01*
X146145620Y-79619559D01*
X146145621Y-79619557D01*
X146145621Y-79619556D01*
X146165471Y-79380003D01*
X146165471Y-79379996D01*
X146145621Y-79140443D01*
X146145621Y-79140442D01*
X146137319Y-79107657D01*
X146120085Y-79039601D01*
X149129500Y-79039601D01*
X149135684Y-79107651D01*
X149135686Y-79107661D01*
X149184486Y-79264267D01*
X149184488Y-79264270D01*
X149269352Y-79404653D01*
X149385347Y-79520648D01*
X149449865Y-79559650D01*
X149525732Y-79605513D01*
X149574999Y-79620865D01*
X149682343Y-79654315D01*
X149750406Y-79660500D01*
X149750408Y-79660500D01*
X150709592Y-79660500D01*
X150709594Y-79660500D01*
X150777657Y-79654315D01*
X150934270Y-79605512D01*
X151074653Y-79520648D01*
X151190648Y-79404653D01*
X151275512Y-79264270D01*
X151324315Y-79107657D01*
X151330500Y-79039594D01*
X151330500Y-78080406D01*
X151324315Y-78012343D01*
X151297971Y-77927803D01*
X151275513Y-77855732D01*
X151254599Y-77821136D01*
X151190648Y-77715347D01*
X151074653Y-77599352D01*
X150934270Y-77514488D01*
X150934267Y-77514486D01*
X150777661Y-77465686D01*
X150777658Y-77465685D01*
X150777657Y-77465685D01*
X150777655Y-77465684D01*
X150777651Y-77465684D01*
X150709601Y-77459500D01*
X150709594Y-77459500D01*
X149750406Y-77459500D01*
X149750398Y-77459500D01*
X149682348Y-77465684D01*
X149682338Y-77465686D01*
X149525732Y-77514486D01*
X149385346Y-77599352D01*
X149269352Y-77715346D01*
X149184486Y-77855732D01*
X149135686Y-78012338D01*
X149135684Y-78012348D01*
X149129500Y-78080398D01*
X149129500Y-79039601D01*
X146120085Y-79039601D01*
X146086610Y-78907409D01*
X145993196Y-78694448D01*
X145989944Y-78643934D01*
X146008636Y-78612399D01*
X146082558Y-78538477D01*
X146094400Y-78528861D01*
X146107836Y-78520084D01*
X146130594Y-78490843D01*
X146133631Y-78487405D01*
X146137519Y-78483518D01*
X146150636Y-78465145D01*
X146151552Y-78463916D01*
X146161125Y-78451617D01*
X146184809Y-78421189D01*
X146184810Y-78421183D01*
X146187729Y-78415792D01*
X146187978Y-78415926D01*
X146189571Y-78412832D01*
X146189316Y-78412708D01*
X146192009Y-78407200D01*
X146192008Y-78407200D01*
X146192010Y-78407199D01*
X146207459Y-78355302D01*
X146207900Y-78353925D01*
X146225500Y-78302660D01*
X146225500Y-78302656D01*
X146226510Y-78296609D01*
X146226786Y-78296655D01*
X146227289Y-78293207D01*
X146227009Y-78293173D01*
X146227765Y-78287096D01*
X146227768Y-78287089D01*
X146225730Y-78237801D01*
X146225532Y-78233002D01*
X146225500Y-78231473D01*
X146225500Y-76499601D01*
X149129500Y-76499601D01*
X149135684Y-76567651D01*
X149135686Y-76567661D01*
X149184486Y-76724267D01*
X149206411Y-76760536D01*
X149269352Y-76864653D01*
X149385347Y-76980648D01*
X149427538Y-77006153D01*
X149525732Y-77065513D01*
X149597803Y-77087971D01*
X149682343Y-77114315D01*
X149750406Y-77120500D01*
X149750408Y-77120500D01*
X150709592Y-77120500D01*
X150709594Y-77120500D01*
X150777657Y-77114315D01*
X150934270Y-77065512D01*
X151074653Y-76980648D01*
X151190648Y-76864653D01*
X151275512Y-76724270D01*
X151324315Y-76567657D01*
X151330500Y-76499594D01*
X151330500Y-75540406D01*
X151324315Y-75472343D01*
X151275512Y-75315730D01*
X151190648Y-75175347D01*
X151074653Y-75059352D01*
X150935357Y-74975145D01*
X150934267Y-74974486D01*
X150777661Y-74925686D01*
X150777658Y-74925685D01*
X150777657Y-74925685D01*
X150777655Y-74925684D01*
X150777651Y-74925684D01*
X150709601Y-74919500D01*
X150709594Y-74919500D01*
X149750406Y-74919500D01*
X149750398Y-74919500D01*
X149682348Y-74925684D01*
X149682338Y-74925686D01*
X149525732Y-74974486D01*
X149385346Y-75059352D01*
X149269352Y-75175346D01*
X149184486Y-75315732D01*
X149135686Y-75472338D01*
X149135684Y-75472348D01*
X149129500Y-75540398D01*
X149129500Y-76499601D01*
X146225500Y-76499601D01*
X146225500Y-74318185D01*
X146242813Y-74270619D01*
X146286650Y-74245309D01*
X146336500Y-74254099D01*
X146354187Y-74268332D01*
X146447763Y-74370981D01*
X146447764Y-74370982D01*
X146625306Y-74505055D01*
X146625309Y-74505057D01*
X146625310Y-74505057D01*
X146625311Y-74505058D01*
X146824472Y-74604229D01*
X147038464Y-74665115D01*
X147204497Y-74680500D01*
X147204499Y-74680500D01*
X147615501Y-74680500D01*
X147615503Y-74680500D01*
X147781536Y-74665115D01*
X147995528Y-74604229D01*
X148194689Y-74505058D01*
X148372236Y-74370981D01*
X148522124Y-74206562D01*
X148639247Y-74017401D01*
X148661639Y-73959601D01*
X149129500Y-73959601D01*
X149135684Y-74027651D01*
X149135686Y-74027661D01*
X149184486Y-74184267D01*
X149257759Y-74305476D01*
X149269352Y-74324653D01*
X149385347Y-74440648D01*
X149512354Y-74517426D01*
X149525732Y-74525513D01*
X149597803Y-74547971D01*
X149682343Y-74574315D01*
X149750406Y-74580500D01*
X149750408Y-74580500D01*
X150709592Y-74580500D01*
X150709594Y-74580500D01*
X150777657Y-74574315D01*
X150934270Y-74525512D01*
X151074653Y-74440648D01*
X151190648Y-74324653D01*
X151275512Y-74184270D01*
X151324315Y-74027657D01*
X151330500Y-73959594D01*
X151330500Y-73000406D01*
X151324315Y-72932343D01*
X151297971Y-72847803D01*
X151275513Y-72775732D01*
X151274119Y-72773426D01*
X151190648Y-72635347D01*
X151074653Y-72519352D01*
X151069867Y-72516459D01*
X150934267Y-72434486D01*
X150777661Y-72385686D01*
X150777658Y-72385685D01*
X150777657Y-72385685D01*
X150777655Y-72385684D01*
X150777651Y-72385684D01*
X150709601Y-72379500D01*
X150709594Y-72379500D01*
X149750406Y-72379500D01*
X149750398Y-72379500D01*
X149682348Y-72385684D01*
X149682338Y-72385686D01*
X149525732Y-72434486D01*
X149385346Y-72519352D01*
X149269352Y-72635346D01*
X149184486Y-72775732D01*
X149135686Y-72932338D01*
X149135684Y-72932348D01*
X149129500Y-73000398D01*
X149129500Y-73959601D01*
X148661639Y-73959601D01*
X148719618Y-73809940D01*
X148760500Y-73591243D01*
X148760500Y-73368757D01*
X148719618Y-73150060D01*
X148639247Y-72942599D01*
X148522124Y-72753438D01*
X148372236Y-72589019D01*
X148340467Y-72565028D01*
X148194693Y-72454944D01*
X148194690Y-72454942D01*
X148055601Y-72385684D01*
X147995528Y-72355771D01*
X147995524Y-72355770D01*
X147995522Y-72355769D01*
X147781537Y-72294885D01*
X147781524Y-72294883D01*
X147615509Y-72279500D01*
X147615503Y-72279500D01*
X147204497Y-72279500D01*
X147204490Y-72279500D01*
X147038475Y-72294883D01*
X147038462Y-72294885D01*
X146824477Y-72355769D01*
X146824472Y-72355771D01*
X146625309Y-72454942D01*
X146625306Y-72454944D01*
X146447764Y-72589017D01*
X146447763Y-72589018D01*
X146354187Y-72691668D01*
X146309347Y-72715157D01*
X146259900Y-72704328D01*
X146228982Y-72664248D01*
X146225500Y-72641815D01*
X146225500Y-70940003D01*
X149124784Y-70940003D01*
X149143601Y-71143076D01*
X149143602Y-71143082D01*
X149199416Y-71339244D01*
X149199418Y-71339250D01*
X149290327Y-71521821D01*
X149290328Y-71521822D01*
X149290329Y-71521825D01*
X149413234Y-71684578D01*
X149413235Y-71684579D01*
X149550636Y-71809836D01*
X149563959Y-71821981D01*
X149737363Y-71929348D01*
X149927544Y-72003024D01*
X150128024Y-72040500D01*
X150128026Y-72040500D01*
X150331974Y-72040500D01*
X150331976Y-72040500D01*
X150532456Y-72003024D01*
X150722637Y-71929348D01*
X150896041Y-71821981D01*
X151046764Y-71684579D01*
X151169673Y-71521821D01*
X151260582Y-71339250D01*
X151316397Y-71143083D01*
X151317092Y-71135588D01*
X151335215Y-70940003D01*
X151335215Y-70939996D01*
X151316398Y-70736923D01*
X151316397Y-70736917D01*
X151300060Y-70679500D01*
X151260582Y-70540750D01*
X151169673Y-70358179D01*
X151169670Y-70358175D01*
X151169670Y-70358174D01*
X151046765Y-70195421D01*
X151046764Y-70195420D01*
X150896041Y-70058019D01*
X150876680Y-70046031D01*
X150722637Y-69950652D01*
X150555582Y-69885935D01*
X150532459Y-69876977D01*
X150532458Y-69876976D01*
X150532456Y-69876976D01*
X150444407Y-69860516D01*
X150331979Y-69839500D01*
X150331976Y-69839500D01*
X150128024Y-69839500D01*
X150128020Y-69839500D01*
X149978115Y-69867522D01*
X149927544Y-69876976D01*
X149927542Y-69876976D01*
X149927540Y-69876977D01*
X149737368Y-69950650D01*
X149737363Y-69950652D01*
X149737358Y-69950654D01*
X149737358Y-69950655D01*
X149563958Y-70058019D01*
X149563957Y-70058019D01*
X149413235Y-70195420D01*
X149413234Y-70195421D01*
X149290329Y-70358174D01*
X149290328Y-70358177D01*
X149199418Y-70540750D01*
X149199416Y-70540755D01*
X149143602Y-70736917D01*
X149143601Y-70736923D01*
X149124784Y-70939996D01*
X149124784Y-70940003D01*
X146225500Y-70940003D01*
X146225500Y-69904500D01*
X146242813Y-69856934D01*
X146286650Y-69831624D01*
X146299500Y-69830500D01*
X147230192Y-69830500D01*
X147467297Y-69790934D01*
X147694656Y-69712882D01*
X147906067Y-69598472D01*
X148095764Y-69450825D01*
X148258571Y-69273969D01*
X148390049Y-69072728D01*
X148486610Y-68852591D01*
X148545620Y-68619563D01*
X148545620Y-68619559D01*
X148545621Y-68619557D01*
X148545621Y-68619556D01*
X148563814Y-68400003D01*
X149124784Y-68400003D01*
X149143601Y-68603076D01*
X149143602Y-68603082D01*
X149197275Y-68791719D01*
X149199418Y-68799250D01*
X149290327Y-68981821D01*
X149290328Y-68981822D01*
X149290329Y-68981825D01*
X149413234Y-69144578D01*
X149413235Y-69144579D01*
X149550636Y-69269836D01*
X149563959Y-69281981D01*
X149737363Y-69389348D01*
X149927544Y-69463024D01*
X150128024Y-69500500D01*
X150128026Y-69500500D01*
X150331974Y-69500500D01*
X150331976Y-69500500D01*
X150532456Y-69463024D01*
X150722637Y-69389348D01*
X150896041Y-69281981D01*
X151046764Y-69144579D01*
X151169673Y-68981821D01*
X151260582Y-68799250D01*
X151316397Y-68603083D01*
X151335215Y-68400000D01*
X151333362Y-68380000D01*
X151316398Y-68196923D01*
X151316397Y-68196917D01*
X151304274Y-68154309D01*
X151260582Y-68000750D01*
X151169673Y-67818179D01*
X151169670Y-67818175D01*
X151169670Y-67818174D01*
X151046765Y-67655421D01*
X151046764Y-67655420D01*
X150896041Y-67518019D01*
X150896041Y-67518018D01*
X150722637Y-67410652D01*
X150532456Y-67336976D01*
X150444407Y-67320516D01*
X150331979Y-67299500D01*
X150331976Y-67299500D01*
X150128024Y-67299500D01*
X150128020Y-67299500D01*
X149978115Y-67327522D01*
X149927544Y-67336976D01*
X149927542Y-67336976D01*
X149927540Y-67336977D01*
X149834007Y-67373212D01*
X149737363Y-67410652D01*
X149737358Y-67410654D01*
X149737358Y-67410655D01*
X149563958Y-67518019D01*
X149563957Y-67518019D01*
X149413235Y-67655420D01*
X149413234Y-67655421D01*
X149290329Y-67818174D01*
X149290328Y-67818177D01*
X149199418Y-68000750D01*
X149199416Y-68000755D01*
X149143602Y-68196917D01*
X149143601Y-68196923D01*
X149124784Y-68399996D01*
X149124784Y-68400003D01*
X148563814Y-68400003D01*
X148565471Y-68380003D01*
X148565471Y-68379996D01*
X148545621Y-68140443D01*
X148545621Y-68140442D01*
X148538486Y-68112265D01*
X148486610Y-67907409D01*
X148390049Y-67687272D01*
X148258571Y-67486031D01*
X148095764Y-67309175D01*
X147906067Y-67161528D01*
X147737491Y-67070299D01*
X147694655Y-67047117D01*
X147467295Y-66969065D01*
X147230194Y-66929500D01*
X147230192Y-66929500D01*
X147104674Y-66929500D01*
X144770192Y-66929500D01*
X144529808Y-66929500D01*
X144529805Y-66929500D01*
X144292704Y-66969065D01*
X144065344Y-67047117D01*
X143853940Y-67161524D01*
X143853928Y-67161531D01*
X143664234Y-67309176D01*
X143501427Y-67486033D01*
X143369951Y-67687271D01*
X143273392Y-67907402D01*
X143214378Y-68140442D01*
X143214378Y-68140443D01*
X143194529Y-68379996D01*
X143194529Y-68380003D01*
X143214378Y-68619556D01*
X143214378Y-68619557D01*
X143235957Y-68704769D01*
X143266968Y-68827232D01*
X143273392Y-68852597D01*
X143330076Y-68981822D01*
X143369951Y-69072728D01*
X143501429Y-69273969D01*
X143664236Y-69450825D01*
X143853933Y-69598472D01*
X144065344Y-69712882D01*
X144292703Y-69790934D01*
X144529808Y-69830500D01*
X144655326Y-69830500D01*
X145400500Y-69830500D01*
X145448066Y-69847813D01*
X145473376Y-69891650D01*
X145474500Y-69904500D01*
X145474500Y-78020256D01*
X145457187Y-78067822D01*
X145413350Y-78093132D01*
X145365280Y-78085337D01*
X145294656Y-78047117D01*
X145067295Y-77969065D01*
X144830194Y-77929500D01*
X144830192Y-77929500D01*
X144589808Y-77929500D01*
X144584674Y-77929500D01*
X142235326Y-77929500D01*
X142230192Y-77929500D01*
X141989808Y-77929500D01*
X141989805Y-77929500D01*
X141752704Y-77969065D01*
X141525344Y-78047117D01*
X141313940Y-78161524D01*
X141313928Y-78161531D01*
X141124234Y-78309176D01*
X140961427Y-78486033D01*
X140829951Y-78687271D01*
X140733392Y-78907402D01*
X140674378Y-79140442D01*
X140674378Y-79140443D01*
X140654529Y-79379996D01*
X140654529Y-79380003D01*
X138541440Y-79380003D01*
X138619959Y-79327637D01*
X138795267Y-79163164D01*
X138941112Y-78972080D01*
X139053517Y-78759596D01*
X139129415Y-78531508D01*
X139166736Y-78294039D01*
X139166690Y-78289229D01*
X139166193Y-78236653D01*
X139164462Y-78053666D01*
X139122655Y-77816946D01*
X139042455Y-77590336D01*
X138955199Y-77432683D01*
X138670738Y-77006152D01*
X138658751Y-76956975D01*
X138662312Y-76941073D01*
X138675500Y-76902660D01*
X138675500Y-76902656D01*
X138676510Y-76896610D01*
X138676786Y-76896656D01*
X138677289Y-76893206D01*
X138677009Y-76893172D01*
X138677765Y-76887095D01*
X138677768Y-76887088D01*
X138676462Y-76855511D01*
X138675532Y-76833002D01*
X138675500Y-76831474D01*
X138675500Y-73396882D01*
X139305804Y-73396882D01*
X139315654Y-73729099D01*
X139315656Y-73729121D01*
X139364730Y-74057856D01*
X139364731Y-74057857D01*
X139452344Y-74378494D01*
X139577266Y-74686516D01*
X139577267Y-74686517D01*
X139737742Y-74977603D01*
X139931519Y-75247665D01*
X140155877Y-75492914D01*
X140407666Y-75709906D01*
X140612316Y-75847748D01*
X140683351Y-75895594D01*
X140683353Y-75895595D01*
X140979067Y-76047374D01*
X141290656Y-76163113D01*
X141613747Y-76241187D01*
X141943805Y-76280500D01*
X141943809Y-76280500D01*
X142193023Y-76280500D01*
X142441807Y-76265736D01*
X142768956Y-76206939D01*
X143086854Y-76109862D01*
X143391040Y-75975868D01*
X143677243Y-75806837D01*
X143941445Y-75605142D01*
X144179937Y-75373616D01*
X144389373Y-75115506D01*
X144566810Y-74834438D01*
X144709760Y-74534357D01*
X144816215Y-74219475D01*
X144884680Y-73894212D01*
X144914195Y-73563134D01*
X144914195Y-73563120D01*
X144914195Y-73563117D01*
X144905710Y-73276923D01*
X144904345Y-73230890D01*
X144855269Y-72902142D01*
X144786190Y-72649339D01*
X144767655Y-72581505D01*
X144642733Y-72273483D01*
X144579329Y-72158475D01*
X144482258Y-71982397D01*
X144288481Y-71712335D01*
X144064123Y-71467086D01*
X143812334Y-71250094D01*
X143667178Y-71152324D01*
X143536648Y-71064405D01*
X143380253Y-70984134D01*
X143240933Y-70912626D01*
X142929344Y-70796887D01*
X142606253Y-70718813D01*
X142276195Y-70679500D01*
X142026977Y-70679500D01*
X141778201Y-70694263D01*
X141778184Y-70694265D01*
X141451049Y-70753059D01*
X141133147Y-70850137D01*
X140828954Y-70984134D01*
X140542773Y-71153152D01*
X140542752Y-71153166D01*
X140278557Y-71354855D01*
X140278547Y-71354864D01*
X140040068Y-71586378D01*
X140040063Y-71586383D01*
X140040063Y-71586384D01*
X139839168Y-71833969D01*
X139830625Y-71844497D01*
X139830623Y-71844498D01*
X139653189Y-72125562D01*
X139653188Y-72125564D01*
X139510239Y-72425644D01*
X139403787Y-72740515D01*
X139403784Y-72740525D01*
X139335321Y-73065778D01*
X139335320Y-73065787D01*
X139335320Y-73065788D01*
X139320602Y-73230890D01*
X139305804Y-73396879D01*
X139305804Y-73396882D01*
X138675500Y-73396882D01*
X138675500Y-72397519D01*
X138692813Y-72349953D01*
X138725471Y-72327529D01*
X138884656Y-72272882D01*
X139096067Y-72158472D01*
X139285764Y-72010825D01*
X139448571Y-71833969D01*
X139580049Y-71632728D01*
X139676610Y-71412591D01*
X139735620Y-71179563D01*
X139735620Y-71179559D01*
X139735621Y-71179557D01*
X139735621Y-71179556D01*
X139755471Y-70940003D01*
X139755471Y-70939996D01*
X139735621Y-70700443D01*
X139735621Y-70700442D01*
X139734057Y-70694264D01*
X139676610Y-70467409D01*
X139580049Y-70247272D01*
X139448571Y-70046031D01*
X139285764Y-69869175D01*
X139096067Y-69721528D01*
X139007715Y-69673714D01*
X138884655Y-69607117D01*
X138657295Y-69529065D01*
X138420194Y-69489500D01*
X138420192Y-69489500D01*
X138179808Y-69489500D01*
X138179805Y-69489500D01*
X137942704Y-69529065D01*
X137715344Y-69607117D01*
X137503940Y-69721524D01*
X137503928Y-69721531D01*
X137314234Y-69869176D01*
X137151427Y-70046033D01*
X137019951Y-70247271D01*
X136923392Y-70467402D01*
X136864378Y-70700442D01*
X136864378Y-70700443D01*
X136844529Y-70939996D01*
X136844529Y-70940003D01*
X136864378Y-71179556D01*
X136864378Y-71179557D01*
X136893884Y-71296076D01*
X136908769Y-71354855D01*
X136923392Y-71412597D01*
X136971303Y-71521822D01*
X137019951Y-71632728D01*
X137151429Y-71833969D01*
X137314236Y-72010825D01*
X137503933Y-72158472D01*
X137715344Y-72272882D01*
X137874528Y-72327528D01*
X137913895Y-72359347D01*
X137924500Y-72397519D01*
X137924500Y-72565028D01*
X137907187Y-72612594D01*
X137863350Y-72637904D01*
X137813500Y-72629114D01*
X137795814Y-72614882D01*
X137772237Y-72589019D01*
X137772235Y-72589017D01*
X137594693Y-72454944D01*
X137594690Y-72454942D01*
X137455601Y-72385684D01*
X137395528Y-72355771D01*
X137395524Y-72355770D01*
X137395522Y-72355769D01*
X137181537Y-72294885D01*
X137181524Y-72294883D01*
X137015509Y-72279500D01*
X137015503Y-72279500D01*
X136604497Y-72279500D01*
X136604490Y-72279500D01*
X136438475Y-72294883D01*
X136438462Y-72294885D01*
X136224477Y-72355769D01*
X136224472Y-72355771D01*
X136025309Y-72454942D01*
X136025306Y-72454944D01*
X135847767Y-72589016D01*
X135847764Y-72589018D01*
X135847764Y-72589019D01*
X135803199Y-72637904D01*
X135697874Y-72753440D01*
X135580756Y-72942594D01*
X135580751Y-72942604D01*
X135499146Y-73153250D01*
X135497954Y-73152788D01*
X135471007Y-73190041D01*
X135421917Y-73202388D01*
X135376375Y-73180292D01*
X135355691Y-73134092D01*
X135355500Y-73128778D01*
X135355500Y-68244677D01*
X135372813Y-68197111D01*
X135380429Y-68189287D01*
X135467372Y-68112264D01*
X135557109Y-67982257D01*
X135613126Y-67834552D01*
X135632167Y-67677734D01*
X135627585Y-67640000D01*
X135613127Y-67520925D01*
X135613126Y-67520916D01*
X135571310Y-67410655D01*
X135557110Y-67373212D01*
X135506230Y-67299500D01*
X135467372Y-67243204D01*
X135424779Y-67205470D01*
X135380429Y-67166179D01*
X135356305Y-67121678D01*
X135355500Y-67110789D01*
X135355500Y-59401617D01*
X135357075Y-59386431D01*
X135360367Y-59370732D01*
X135355783Y-59333963D01*
X135355500Y-59329385D01*
X135355500Y-59323890D01*
X135355499Y-59323881D01*
X135353381Y-59311189D01*
X135351784Y-59301624D01*
X135351565Y-59300119D01*
X135350154Y-59288802D01*
X135344866Y-59246374D01*
X135344864Y-59246370D01*
X135343115Y-59240493D01*
X135343386Y-59240412D01*
X135342324Y-59237096D01*
X135342056Y-59237189D01*
X135340065Y-59231389D01*
X135314312Y-59183802D01*
X135313612Y-59182442D01*
X135289826Y-59133788D01*
X135286264Y-59128800D01*
X135286493Y-59128636D01*
X135284407Y-59125839D01*
X135284185Y-59126013D01*
X135280419Y-59121174D01*
X135265655Y-59107583D01*
X135240591Y-59084510D01*
X135239495Y-59083458D01*
X134927174Y-58771136D01*
X134905782Y-58725259D01*
X134905500Y-58718810D01*
X134905500Y-57405327D01*
X134905500Y-57405326D01*
X134890966Y-57332260D01*
X134835601Y-57249399D01*
X134831765Y-57246836D01*
X134752740Y-57194034D01*
X134738422Y-57191186D01*
X134679674Y-57179500D01*
X134679672Y-57179500D01*
X134304500Y-57179500D01*
X134256934Y-57162187D01*
X134231624Y-57118350D01*
X134230500Y-57105500D01*
X134230500Y-56851806D01*
X134247813Y-56804240D01*
X134291650Y-56778930D01*
X134296587Y-56778230D01*
X134332114Y-56774412D01*
X134460226Y-56726628D01*
X134569687Y-56644687D01*
X134651628Y-56535226D01*
X134699412Y-56407114D01*
X134705500Y-56350485D01*
X134705499Y-55809516D01*
X134699412Y-55752886D01*
X134651628Y-55624774D01*
X134569687Y-55515313D01*
X134460226Y-55433372D01*
X134460225Y-55433371D01*
X134460226Y-55433371D01*
X134332114Y-55385588D01*
X134275486Y-55379500D01*
X133434515Y-55379500D01*
X133434514Y-55379501D01*
X133377885Y-55385588D01*
X133249774Y-55433371D01*
X133140313Y-55515313D01*
X133058371Y-55624774D01*
X133010588Y-55752884D01*
X133010588Y-55752887D01*
X133004500Y-55809513D01*
X133004500Y-56350484D01*
X133004501Y-56350485D01*
X133010588Y-56407114D01*
X133058371Y-56535225D01*
X133058372Y-56535226D01*
X133140313Y-56644687D01*
X133249774Y-56726628D01*
X133249773Y-56726628D01*
X133297557Y-56744450D01*
X133377886Y-56774412D01*
X133413410Y-56778231D01*
X133458853Y-56800529D01*
X133479332Y-56846821D01*
X133479500Y-56851807D01*
X133479500Y-57105500D01*
X133462187Y-57153066D01*
X133418350Y-57178376D01*
X133405500Y-57179500D01*
X133030326Y-57179500D01*
X132981615Y-57189189D01*
X132957259Y-57194034D01*
X132874399Y-57249398D01*
X132874398Y-57249399D01*
X132819034Y-57332259D01*
X132819033Y-57332260D01*
X132819034Y-57332260D01*
X132804500Y-57405326D01*
X132804500Y-59054674D01*
X132815808Y-59111524D01*
X132819034Y-59127740D01*
X132862408Y-59192656D01*
X132874399Y-59210601D01*
X132957260Y-59265966D01*
X133030326Y-59280500D01*
X134343811Y-59280500D01*
X134391377Y-59297813D01*
X134396137Y-59302174D01*
X134582826Y-59488862D01*
X134604218Y-59534738D01*
X134604500Y-59541188D01*
X134604500Y-63234855D01*
X134587187Y-63282421D01*
X134543350Y-63307731D01*
X134493500Y-63298941D01*
X134461166Y-63260715D01*
X134409369Y-63121843D01*
X134272227Y-62870686D01*
X134229354Y-62813415D01*
X134100739Y-62641605D01*
X133898395Y-62439261D01*
X133783855Y-62353517D01*
X133669313Y-62267772D01*
X133418156Y-62130630D01*
X133150060Y-62030635D01*
X133150042Y-62030630D01*
X132870425Y-61969803D01*
X132656460Y-61954500D01*
X132656448Y-61954500D01*
X132513552Y-61954500D01*
X132513539Y-61954500D01*
X132299574Y-61969803D01*
X132019957Y-62030630D01*
X132019939Y-62030635D01*
X131751843Y-62130630D01*
X131500686Y-62267772D01*
X131271602Y-62439263D01*
X131069263Y-62641602D01*
X130897772Y-62870686D01*
X130760630Y-63121843D01*
X130708834Y-63260715D01*
X130675990Y-63299232D01*
X130626072Y-63307627D01*
X130582437Y-63281970D01*
X130565500Y-63234855D01*
X130565500Y-59541188D01*
X130582813Y-59493622D01*
X130587174Y-59488862D01*
X130773863Y-59302174D01*
X130819740Y-59280782D01*
X130826189Y-59280500D01*
X132139672Y-59280500D01*
X132139674Y-59280500D01*
X132212740Y-59265966D01*
X132295601Y-59210601D01*
X132350966Y-59127740D01*
X132365500Y-59054674D01*
X132365500Y-57405326D01*
X132350966Y-57332260D01*
X132295601Y-57249399D01*
X132291765Y-57246836D01*
X132212740Y-57194034D01*
X132198422Y-57191186D01*
X132139674Y-57179500D01*
X132139672Y-57179500D01*
X131764500Y-57179500D01*
X131716934Y-57162187D01*
X131691624Y-57118350D01*
X131690500Y-57105500D01*
X131690500Y-56851806D01*
X131707813Y-56804240D01*
X131751650Y-56778930D01*
X131756587Y-56778230D01*
X131792114Y-56774412D01*
X131920226Y-56726628D01*
X132029687Y-56644687D01*
X132111628Y-56535226D01*
X132159412Y-56407114D01*
X132165500Y-56350485D01*
X132165499Y-55809516D01*
X132159412Y-55752886D01*
X132111628Y-55624774D01*
X132029687Y-55515313D01*
X131920226Y-55433372D01*
X131920225Y-55433371D01*
X131920226Y-55433371D01*
X131792114Y-55385588D01*
X131735486Y-55379500D01*
X130894515Y-55379500D01*
X130894514Y-55379501D01*
X130837885Y-55385588D01*
X130709774Y-55433371D01*
X130600313Y-55515313D01*
X130518371Y-55624774D01*
X130470588Y-55752884D01*
X130470588Y-55752887D01*
X130464500Y-55809513D01*
X130464500Y-56350484D01*
X130464501Y-56350485D01*
X130470588Y-56407114D01*
X130518371Y-56535225D01*
X130518372Y-56535226D01*
X130600313Y-56644687D01*
X130709774Y-56726628D01*
X130709773Y-56726628D01*
X130757557Y-56744450D01*
X130837886Y-56774412D01*
X130873410Y-56778231D01*
X130918853Y-56800529D01*
X130939332Y-56846821D01*
X130939500Y-56851807D01*
X130939500Y-57105500D01*
X130922187Y-57153066D01*
X130878350Y-57178376D01*
X130865500Y-57179500D01*
X130490326Y-57179500D01*
X130441615Y-57189189D01*
X130417259Y-57194034D01*
X130334399Y-57249398D01*
X130334398Y-57249399D01*
X130279034Y-57332259D01*
X130264499Y-57405327D01*
X130264500Y-58718809D01*
X130247187Y-58766375D01*
X130242826Y-58771135D01*
X129957440Y-59056520D01*
X129945592Y-59066142D01*
X129932163Y-59074916D01*
X129909408Y-59104150D01*
X129906377Y-59107583D01*
X129902484Y-59111477D01*
X129902478Y-59111484D01*
X129889353Y-59129867D01*
X129888440Y-59131092D01*
X129855194Y-59173806D01*
X129852273Y-59179204D01*
X129852026Y-59179070D01*
X129850430Y-59182171D01*
X129850682Y-59182295D01*
X129847988Y-59187804D01*
X129832550Y-59239658D01*
X129832084Y-59241113D01*
X129814499Y-59292339D01*
X129813491Y-59298386D01*
X129813213Y-59298339D01*
X129812711Y-59301790D01*
X129812990Y-59301825D01*
X129812232Y-59307908D01*
X129812232Y-59307911D01*
X129812232Y-59307912D01*
X129812368Y-59311189D01*
X129814468Y-59361996D01*
X129814500Y-59363524D01*
X129814500Y-67070299D01*
X129797187Y-67117865D01*
X129789571Y-67125689D01*
X129699517Y-67205470D01*
X129609779Y-67335478D01*
X129609778Y-67335478D01*
X129553764Y-67483177D01*
X129553761Y-67483191D01*
X129534722Y-67639996D01*
X129534722Y-67640003D01*
X129553761Y-67796808D01*
X129553764Y-67796822D01*
X129609778Y-67944521D01*
X129699516Y-68074529D01*
X129789571Y-68154309D01*
X129813694Y-68198809D01*
X129814500Y-68209699D01*
X129814500Y-73128778D01*
X129797187Y-73176344D01*
X129753350Y-73201654D01*
X129703500Y-73192864D01*
X129670963Y-73154087D01*
X129669867Y-73150703D01*
X129636971Y-73065789D01*
X129589247Y-72942599D01*
X129472124Y-72753438D01*
X129322236Y-72589019D01*
X129290467Y-72565028D01*
X129144693Y-72454944D01*
X129144690Y-72454942D01*
X129005601Y-72385684D01*
X128945528Y-72355771D01*
X128945524Y-72355770D01*
X128945522Y-72355769D01*
X128731537Y-72294885D01*
X128731524Y-72294883D01*
X128565509Y-72279500D01*
X128565503Y-72279500D01*
X128154497Y-72279500D01*
X128154490Y-72279500D01*
X127988475Y-72294883D01*
X127988462Y-72294885D01*
X127774477Y-72355769D01*
X127774472Y-72355771D01*
X127575309Y-72454942D01*
X127575306Y-72454944D01*
X127397764Y-72589017D01*
X127397762Y-72589019D01*
X127364186Y-72625851D01*
X127319347Y-72649339D01*
X127269900Y-72638509D01*
X127238982Y-72598430D01*
X127235500Y-72575997D01*
X127235500Y-69904500D01*
X127252813Y-69856934D01*
X127296650Y-69831624D01*
X127309500Y-69830500D01*
X128180192Y-69830500D01*
X128417297Y-69790934D01*
X128644656Y-69712882D01*
X128856067Y-69598472D01*
X129045764Y-69450825D01*
X129208571Y-69273969D01*
X129340049Y-69072728D01*
X129436610Y-68852591D01*
X129495620Y-68619563D01*
X129495620Y-68619559D01*
X129495621Y-68619557D01*
X129495621Y-68619556D01*
X129515471Y-68380003D01*
X129515471Y-68379996D01*
X129495621Y-68140443D01*
X129495621Y-68140442D01*
X129488486Y-68112265D01*
X129436610Y-67907409D01*
X129340049Y-67687272D01*
X129208571Y-67486031D01*
X129045764Y-67309175D01*
X128856067Y-67161528D01*
X128687491Y-67070299D01*
X128644655Y-67047117D01*
X128417295Y-66969065D01*
X128180194Y-66929500D01*
X128180192Y-66929500D01*
X128054674Y-66929500D01*
X125720192Y-66929500D01*
X125479808Y-66929500D01*
X125479805Y-66929500D01*
X125242704Y-66969065D01*
X125015344Y-67047117D01*
X124803940Y-67161524D01*
X124803928Y-67161531D01*
X124614234Y-67309176D01*
X124451427Y-67486033D01*
X124319951Y-67687271D01*
X124223392Y-67907402D01*
X124164378Y-68140442D01*
X124164378Y-68140443D01*
X124144529Y-68379996D01*
X124144529Y-68380003D01*
X124164378Y-68619556D01*
X124164378Y-68619557D01*
X124185957Y-68704769D01*
X124216968Y-68827232D01*
X124223392Y-68852597D01*
X124280076Y-68981822D01*
X124319951Y-69072728D01*
X124451429Y-69273969D01*
X124614236Y-69450825D01*
X124803933Y-69598472D01*
X125015344Y-69712882D01*
X125242703Y-69790934D01*
X125479808Y-69830500D01*
X125605326Y-69830500D01*
X126410500Y-69830500D01*
X126458066Y-69847813D01*
X126483376Y-69891650D01*
X126484500Y-69904500D01*
X126484499Y-77993810D01*
X126467186Y-78041376D01*
X126462825Y-78046136D01*
X126424597Y-78084364D01*
X126378721Y-78105756D01*
X126337051Y-78097119D01*
X126244659Y-78047119D01*
X126227796Y-78041330D01*
X126017297Y-77969066D01*
X126017294Y-77969065D01*
X126017293Y-77969065D01*
X125780194Y-77929500D01*
X125780192Y-77929500D01*
X125539808Y-77929500D01*
X125534674Y-77929500D01*
X123185326Y-77929500D01*
X123180192Y-77929500D01*
X122939808Y-77929500D01*
X122939805Y-77929500D01*
X122702704Y-77969065D01*
X122475344Y-78047117D01*
X122263940Y-78161524D01*
X122263928Y-78161531D01*
X122074234Y-78309176D01*
X121911427Y-78486033D01*
X121779951Y-78687271D01*
X121683392Y-78907402D01*
X121624378Y-79140442D01*
X121624378Y-79140443D01*
X121604529Y-79379996D01*
X121604529Y-79380003D01*
X121624378Y-79619556D01*
X121624378Y-79619557D01*
X121683392Y-79852597D01*
X121771949Y-80054486D01*
X121779951Y-80072728D01*
X121911429Y-80273969D01*
X122074236Y-80450825D01*
X122263933Y-80598472D01*
X122475344Y-80712882D01*
X122702703Y-80790934D01*
X122939808Y-80830500D01*
X123185326Y-80830500D01*
X125539808Y-80830500D01*
X125780192Y-80830500D01*
X126017297Y-80790934D01*
X126244656Y-80712882D01*
X126456067Y-80598472D01*
X126645764Y-80450825D01*
X126808571Y-80273969D01*
X126940049Y-80072728D01*
X127036610Y-79852591D01*
X127095620Y-79619563D01*
X127095620Y-79619559D01*
X127095621Y-79619557D01*
X127095621Y-79619556D01*
X127115471Y-79380003D01*
X127115471Y-79379996D01*
X127095621Y-79140443D01*
X127095621Y-79140442D01*
X127087319Y-79107657D01*
X127036610Y-78907409D01*
X126943196Y-78694448D01*
X126939944Y-78643934D01*
X126958636Y-78612399D01*
X127092558Y-78478477D01*
X127104400Y-78468861D01*
X127117836Y-78460084D01*
X127140594Y-78430843D01*
X127143631Y-78427405D01*
X127147519Y-78423518D01*
X127160636Y-78405145D01*
X127161552Y-78403916D01*
X127194809Y-78361189D01*
X127194810Y-78361183D01*
X127197729Y-78355792D01*
X127197978Y-78355926D01*
X127199571Y-78352832D01*
X127199316Y-78352708D01*
X127202009Y-78347200D01*
X127202008Y-78347200D01*
X127202010Y-78347199D01*
X127217459Y-78295302D01*
X127217900Y-78293925D01*
X127235500Y-78242660D01*
X127235499Y-78242657D01*
X127236510Y-78236607D01*
X127236790Y-78236653D01*
X127237291Y-78233213D01*
X127237009Y-78233178D01*
X127237767Y-78227092D01*
X127237768Y-78227089D01*
X127236354Y-78192906D01*
X127235532Y-78173002D01*
X127235500Y-78171473D01*
X127235500Y-76278610D01*
X127235500Y-74383999D01*
X127252812Y-74336436D01*
X127296649Y-74311126D01*
X127346499Y-74319916D01*
X127364185Y-74334148D01*
X127397762Y-74370980D01*
X127397764Y-74370982D01*
X127575306Y-74505055D01*
X127575309Y-74505057D01*
X127575310Y-74505057D01*
X127575311Y-74505058D01*
X127774472Y-74604229D01*
X127988464Y-74665115D01*
X128154497Y-74680500D01*
X128154499Y-74680500D01*
X128565501Y-74680500D01*
X128565503Y-74680500D01*
X128731536Y-74665115D01*
X128945528Y-74604229D01*
X129144689Y-74505058D01*
X129322236Y-74370981D01*
X129472124Y-74206562D01*
X129589247Y-74017401D01*
X129669618Y-73809940D01*
X129669617Y-73809940D01*
X129670854Y-73806750D01*
X129672046Y-73807211D01*
X129698986Y-73769963D01*
X129748075Y-73757610D01*
X129793619Y-73779700D01*
X129814308Y-73825898D01*
X129814500Y-73831221D01*
X129814500Y-76108381D01*
X129812925Y-76123566D01*
X129809633Y-76139264D01*
X129809633Y-76139269D01*
X129814216Y-76176032D01*
X129814500Y-76180613D01*
X129814500Y-76186118D01*
X129818215Y-76208380D01*
X129818435Y-76209892D01*
X129825134Y-76263627D01*
X129826884Y-76269504D01*
X129826615Y-76269584D01*
X129827679Y-76272904D01*
X129827945Y-76272813D01*
X129829935Y-76278610D01*
X129855696Y-76326215D01*
X129856391Y-76327564D01*
X129856522Y-76327832D01*
X129880175Y-76376214D01*
X129883738Y-76381204D01*
X129883510Y-76381366D01*
X129885595Y-76384162D01*
X129885817Y-76383990D01*
X129889579Y-76388823D01*
X129889581Y-76388826D01*
X129929400Y-76425482D01*
X129930504Y-76426541D01*
X130242825Y-76738862D01*
X130264217Y-76784738D01*
X130264499Y-76791188D01*
X130264499Y-77768809D01*
X130247186Y-77816375D01*
X130242825Y-77821135D01*
X129957440Y-78106520D01*
X129945592Y-78116142D01*
X129932163Y-78124916D01*
X129909408Y-78154150D01*
X129906377Y-78157583D01*
X129902484Y-78161477D01*
X129902478Y-78161484D01*
X129889353Y-78179867D01*
X129888440Y-78181092D01*
X129855194Y-78223806D01*
X129852273Y-78229204D01*
X129852026Y-78229070D01*
X129850430Y-78232171D01*
X129850682Y-78232295D01*
X129847988Y-78237804D01*
X129832550Y-78289658D01*
X129832084Y-78291113D01*
X129814499Y-78342339D01*
X129813491Y-78348386D01*
X129813213Y-78348339D01*
X129812711Y-78351790D01*
X129812990Y-78351825D01*
X129812231Y-78357909D01*
X129814467Y-78411997D01*
X129814499Y-78413525D01*
X129814500Y-92178778D01*
X129797187Y-92226344D01*
X129753350Y-92251654D01*
X129703500Y-92242864D01*
X129670963Y-92204087D01*
X129669867Y-92200703D01*
X129636971Y-92115789D01*
X129589247Y-91992599D01*
X129472124Y-91803438D01*
X129322236Y-91639019D01*
X129268677Y-91598573D01*
X129144693Y-91504944D01*
X129144690Y-91504942D01*
X129023679Y-91444686D01*
X128945528Y-91405771D01*
X128945524Y-91405770D01*
X128945522Y-91405769D01*
X128731537Y-91344885D01*
X128731524Y-91344883D01*
X128565509Y-91329500D01*
X128565503Y-91329500D01*
X128154497Y-91329500D01*
X128154490Y-91329500D01*
X127988475Y-91344883D01*
X127988462Y-91344885D01*
X127774477Y-91405769D01*
X127774472Y-91405771D01*
X127575309Y-91504942D01*
X127575306Y-91504944D01*
X127397765Y-91639016D01*
X127389185Y-91648429D01*
X127344344Y-91671915D01*
X127294898Y-91661084D01*
X127263981Y-91621003D01*
X127260500Y-91598573D01*
X127260500Y-88954500D01*
X127277813Y-88906934D01*
X127321650Y-88881624D01*
X127334500Y-88880500D01*
X128180192Y-88880500D01*
X128417297Y-88840934D01*
X128644656Y-88762882D01*
X128856067Y-88648472D01*
X129045764Y-88500825D01*
X129208571Y-88323969D01*
X129340049Y-88122728D01*
X129436610Y-87902591D01*
X129495620Y-87669563D01*
X129495620Y-87669559D01*
X129495621Y-87669557D01*
X129495621Y-87669556D01*
X129515471Y-87430003D01*
X129515471Y-87429996D01*
X129495621Y-87190443D01*
X129495621Y-87190442D01*
X129495620Y-87190437D01*
X129436610Y-86957409D01*
X129340049Y-86737272D01*
X129208571Y-86536031D01*
X129045764Y-86359175D01*
X128856067Y-86211528D01*
X128767715Y-86163714D01*
X128644655Y-86097117D01*
X128417295Y-86019065D01*
X128180194Y-85979500D01*
X128180192Y-85979500D01*
X128054674Y-85979500D01*
X125720192Y-85979500D01*
X125479808Y-85979500D01*
X125479805Y-85979500D01*
X125242704Y-86019065D01*
X125015344Y-86097117D01*
X124803940Y-86211524D01*
X124803928Y-86211531D01*
X124614234Y-86359176D01*
X124451427Y-86536033D01*
X124319951Y-86737271D01*
X124223392Y-86957402D01*
X124164378Y-87190442D01*
X124164378Y-87190443D01*
X124144529Y-87429996D01*
X124144529Y-87430003D01*
X124164378Y-87669556D01*
X124164378Y-87669557D01*
X124185957Y-87754769D01*
X124216968Y-87877232D01*
X124223392Y-87902597D01*
X124258919Y-87983589D01*
X124319951Y-88122728D01*
X124451429Y-88323969D01*
X124614236Y-88500825D01*
X124803933Y-88648472D01*
X125015344Y-88762882D01*
X125242703Y-88840934D01*
X125479808Y-88880500D01*
X125605326Y-88880500D01*
X126435500Y-88880500D01*
X126483066Y-88897813D01*
X126508376Y-88941650D01*
X126509500Y-88954500D01*
X126509500Y-97018810D01*
X126492187Y-97066376D01*
X126487825Y-97071136D01*
X126424596Y-97134364D01*
X126378720Y-97155756D01*
X126337051Y-97147119D01*
X126244659Y-97097119D01*
X126227796Y-97091330D01*
X126017297Y-97019066D01*
X126017294Y-97019065D01*
X126017293Y-97019065D01*
X125780194Y-96979500D01*
X125780192Y-96979500D01*
X125539808Y-96979500D01*
X125534674Y-96979500D01*
X123185326Y-96979500D01*
X123180192Y-96979500D01*
X122939808Y-96979500D01*
X122939805Y-96979500D01*
X122702704Y-97019065D01*
X122475344Y-97097117D01*
X122263940Y-97211524D01*
X122263928Y-97211531D01*
X122074234Y-97359176D01*
X121911427Y-97536033D01*
X121779951Y-97737271D01*
X121683392Y-97957402D01*
X121624378Y-98190442D01*
X121624378Y-98190443D01*
X121604529Y-98429996D01*
X121604529Y-98430003D01*
X119491440Y-98430003D01*
X119569959Y-98377637D01*
X119745267Y-98213164D01*
X119891112Y-98022080D01*
X120003517Y-97809596D01*
X120079415Y-97581508D01*
X120116736Y-97344039D01*
X120114462Y-97103666D01*
X120072655Y-96866946D01*
X119992455Y-96640336D01*
X119905199Y-96482683D01*
X119620738Y-96056152D01*
X119608751Y-96006975D01*
X119612312Y-95991073D01*
X119625500Y-95952660D01*
X119625500Y-95952656D01*
X119626510Y-95946607D01*
X119626790Y-95946653D01*
X119627291Y-95943212D01*
X119627009Y-95943177D01*
X119627767Y-95937092D01*
X119627766Y-95937091D01*
X119627768Y-95937088D01*
X119625530Y-95882984D01*
X119625499Y-95881521D01*
X119625499Y-92446882D01*
X120255804Y-92446882D01*
X120265654Y-92779099D01*
X120265656Y-92779121D01*
X120314730Y-93107856D01*
X120314731Y-93107857D01*
X120402344Y-93428494D01*
X120527266Y-93736516D01*
X120527267Y-93736517D01*
X120687742Y-94027603D01*
X120881519Y-94297665D01*
X121105877Y-94542914D01*
X121357666Y-94759906D01*
X121562316Y-94897748D01*
X121633351Y-94945594D01*
X121633353Y-94945595D01*
X121929067Y-95097374D01*
X122240656Y-95213113D01*
X122563747Y-95291187D01*
X122893805Y-95330500D01*
X122893809Y-95330500D01*
X123143023Y-95330500D01*
X123391807Y-95315736D01*
X123718956Y-95256939D01*
X124036854Y-95159862D01*
X124341040Y-95025868D01*
X124627243Y-94856837D01*
X124891445Y-94655142D01*
X125129937Y-94423616D01*
X125339373Y-94165506D01*
X125516810Y-93884438D01*
X125659760Y-93584357D01*
X125766215Y-93269475D01*
X125834680Y-92944212D01*
X125864195Y-92613134D01*
X125864195Y-92613120D01*
X125864195Y-92613117D01*
X125854345Y-92280900D01*
X125854345Y-92280890D01*
X125805269Y-91952142D01*
X125725737Y-91661084D01*
X125717655Y-91631505D01*
X125592733Y-91323483D01*
X125529329Y-91208475D01*
X125432258Y-91032397D01*
X125238481Y-90762335D01*
X125014123Y-90517086D01*
X124762334Y-90300094D01*
X124617178Y-90202324D01*
X124486648Y-90114405D01*
X124330253Y-90034134D01*
X124190933Y-89962626D01*
X123879344Y-89846887D01*
X123556253Y-89768813D01*
X123226195Y-89729500D01*
X122976977Y-89729500D01*
X122728201Y-89744263D01*
X122728184Y-89744265D01*
X122401049Y-89803059D01*
X122083147Y-89900137D01*
X121778954Y-90034134D01*
X121492773Y-90203152D01*
X121492752Y-90203166D01*
X121228557Y-90404855D01*
X121228547Y-90404864D01*
X120990068Y-90636378D01*
X120990063Y-90636383D01*
X120990063Y-90636384D01*
X120789168Y-90883969D01*
X120780625Y-90894497D01*
X120780623Y-90894498D01*
X120603189Y-91175562D01*
X120603188Y-91175564D01*
X120460239Y-91475644D01*
X120353787Y-91790515D01*
X120353784Y-91790525D01*
X120285321Y-92115778D01*
X120285320Y-92115787D01*
X120285320Y-92115788D01*
X120270602Y-92280890D01*
X120255804Y-92446879D01*
X120255804Y-92446882D01*
X119625499Y-92446882D01*
X119625499Y-91447518D01*
X119642812Y-91399953D01*
X119675470Y-91377529D01*
X119834656Y-91322882D01*
X120046067Y-91208472D01*
X120235764Y-91060825D01*
X120398571Y-90883969D01*
X120530049Y-90682728D01*
X120626610Y-90462591D01*
X120685620Y-90229563D01*
X120685620Y-90229559D01*
X120685621Y-90229557D01*
X120685621Y-90229556D01*
X120705471Y-89990003D01*
X120705471Y-89989996D01*
X120685621Y-89750443D01*
X120685621Y-89750442D01*
X120684057Y-89744264D01*
X120626610Y-89517409D01*
X120530049Y-89297272D01*
X120398571Y-89096031D01*
X120235764Y-88919175D01*
X120046067Y-88771528D01*
X119957715Y-88723714D01*
X119834655Y-88657117D01*
X119607295Y-88579065D01*
X119370194Y-88539500D01*
X119370192Y-88539500D01*
X119129808Y-88539500D01*
X119129805Y-88539500D01*
X118892704Y-88579065D01*
X118665344Y-88657117D01*
X118453940Y-88771524D01*
X118453928Y-88771531D01*
X118264234Y-88919176D01*
X118101427Y-89096033D01*
X117969951Y-89297271D01*
X117873392Y-89517402D01*
X117814378Y-89750442D01*
X117814378Y-89750443D01*
X117794529Y-89989996D01*
X117794529Y-89990003D01*
X117814378Y-90229556D01*
X117814378Y-90229557D01*
X117843884Y-90346076D01*
X117858769Y-90404855D01*
X117873392Y-90462597D01*
X117912997Y-90552886D01*
X117969951Y-90682728D01*
X118101429Y-90883969D01*
X118264236Y-91060825D01*
X118453933Y-91208472D01*
X118665344Y-91322882D01*
X118824528Y-91377528D01*
X118863895Y-91409347D01*
X118874500Y-91447519D01*
X118874500Y-91615028D01*
X118857187Y-91662594D01*
X118813350Y-91687904D01*
X118763500Y-91679114D01*
X118745814Y-91664882D01*
X118722237Y-91639019D01*
X118722235Y-91639017D01*
X118544693Y-91504944D01*
X118544690Y-91504942D01*
X118423679Y-91444686D01*
X118345528Y-91405771D01*
X118345524Y-91405770D01*
X118345522Y-91405769D01*
X118131537Y-91344885D01*
X118131524Y-91344883D01*
X117965509Y-91329500D01*
X117965503Y-91329500D01*
X117554497Y-91329500D01*
X117554490Y-91329500D01*
X117388475Y-91344883D01*
X117388462Y-91344885D01*
X117174477Y-91405769D01*
X117174472Y-91405771D01*
X116975309Y-91504942D01*
X116975306Y-91504944D01*
X116797767Y-91639016D01*
X116647874Y-91803440D01*
X116530756Y-91992594D01*
X116530751Y-91992604D01*
X116450382Y-92200057D01*
X116409500Y-92418753D01*
X116409500Y-92641246D01*
X113635500Y-92641246D01*
X113635500Y-81579601D01*
X113799500Y-81579601D01*
X113805684Y-81647651D01*
X113805686Y-81647661D01*
X113854486Y-81804267D01*
X113939352Y-81944653D01*
X114055347Y-82060648D01*
X114195730Y-82145512D01*
X114195732Y-82145513D01*
X114267803Y-82167971D01*
X114352343Y-82194315D01*
X114420406Y-82200500D01*
X114420408Y-82200500D01*
X115379592Y-82200500D01*
X115379594Y-82200500D01*
X115447657Y-82194315D01*
X115604270Y-82145512D01*
X115744653Y-82060648D01*
X115860648Y-81944653D01*
X115945512Y-81804270D01*
X115994315Y-81647657D01*
X116000500Y-81579594D01*
X116000500Y-80620406D01*
X115994315Y-80552343D01*
X115967971Y-80467803D01*
X115945513Y-80395732D01*
X115871905Y-80273969D01*
X115860648Y-80255347D01*
X115744653Y-80139352D01*
X115604270Y-80054488D01*
X115604267Y-80054486D01*
X115447661Y-80005686D01*
X115447658Y-80005685D01*
X115447657Y-80005685D01*
X115447655Y-80005684D01*
X115447651Y-80005684D01*
X115379601Y-79999500D01*
X115379594Y-79999500D01*
X114420406Y-79999500D01*
X114420398Y-79999500D01*
X114352348Y-80005684D01*
X114352338Y-80005686D01*
X114195732Y-80054486D01*
X114055346Y-80139352D01*
X113939352Y-80255346D01*
X113854486Y-80395732D01*
X113805686Y-80552338D01*
X113805684Y-80552348D01*
X113799500Y-80620398D01*
X113799500Y-81579601D01*
X113635500Y-81579601D01*
X113635500Y-79039601D01*
X113799500Y-79039601D01*
X113805684Y-79107651D01*
X113805686Y-79107661D01*
X113854486Y-79264267D01*
X113854488Y-79264270D01*
X113939352Y-79404653D01*
X114055347Y-79520648D01*
X114119865Y-79559650D01*
X114195732Y-79605513D01*
X114244999Y-79620865D01*
X114352343Y-79654315D01*
X114420406Y-79660500D01*
X114420408Y-79660500D01*
X115379592Y-79660500D01*
X115379594Y-79660500D01*
X115447657Y-79654315D01*
X115604270Y-79605512D01*
X115744653Y-79520648D01*
X115860648Y-79404653D01*
X115945512Y-79264270D01*
X115994315Y-79107657D01*
X116000500Y-79039594D01*
X116000500Y-78080406D01*
X115994315Y-78012343D01*
X115967971Y-77927803D01*
X115945513Y-77855732D01*
X115924599Y-77821136D01*
X115860648Y-77715347D01*
X115744653Y-77599352D01*
X115604270Y-77514488D01*
X115604267Y-77514486D01*
X115447661Y-77465686D01*
X115447658Y-77465685D01*
X115447657Y-77465685D01*
X115447655Y-77465684D01*
X115447651Y-77465684D01*
X115379601Y-77459500D01*
X115379594Y-77459500D01*
X114420406Y-77459500D01*
X114420398Y-77459500D01*
X114352348Y-77465684D01*
X114352338Y-77465686D01*
X114195732Y-77514486D01*
X114055346Y-77599352D01*
X113939352Y-77715346D01*
X113854486Y-77855732D01*
X113805686Y-78012338D01*
X113805684Y-78012348D01*
X113799500Y-78080398D01*
X113799500Y-79039601D01*
X113635500Y-79039601D01*
X113635500Y-73480003D01*
X113794785Y-73480003D01*
X113813601Y-73683076D01*
X113813602Y-73683082D01*
X113855752Y-73831221D01*
X113869418Y-73879250D01*
X113960327Y-74061821D01*
X113960328Y-74061822D01*
X113960329Y-74061825D01*
X114083234Y-74224578D01*
X114083235Y-74224579D01*
X114205937Y-74336436D01*
X114233959Y-74361981D01*
X114407363Y-74469348D01*
X114597544Y-74543024D01*
X114798024Y-74580500D01*
X114798026Y-74580500D01*
X115001974Y-74580500D01*
X115001976Y-74580500D01*
X115202456Y-74543024D01*
X115392637Y-74469348D01*
X115566041Y-74361981D01*
X115670648Y-74266619D01*
X115717462Y-74247369D01*
X115765699Y-74262715D01*
X115792787Y-74305476D01*
X115794500Y-74321307D01*
X115794500Y-74563809D01*
X115777187Y-74611375D01*
X115772826Y-74616135D01*
X115486482Y-74902479D01*
X115440606Y-74923871D01*
X115427460Y-74923849D01*
X115379603Y-74919500D01*
X115379594Y-74919500D01*
X114420406Y-74919500D01*
X114420398Y-74919500D01*
X114352348Y-74925684D01*
X114352338Y-74925686D01*
X114195732Y-74974486D01*
X114055346Y-75059352D01*
X113939352Y-75175346D01*
X113854486Y-75315732D01*
X113805686Y-75472338D01*
X113805684Y-75472348D01*
X113799500Y-75540398D01*
X113799500Y-76499601D01*
X113805684Y-76567651D01*
X113805686Y-76567661D01*
X113854486Y-76724267D01*
X113876411Y-76760536D01*
X113939352Y-76864653D01*
X114055347Y-76980648D01*
X114097538Y-77006153D01*
X114195732Y-77065513D01*
X114267803Y-77087971D01*
X114352343Y-77114315D01*
X114420406Y-77120500D01*
X114420408Y-77120500D01*
X115379592Y-77120500D01*
X115379594Y-77120500D01*
X115447657Y-77114315D01*
X115604270Y-77065512D01*
X115744653Y-76980648D01*
X115860648Y-76864653D01*
X115945512Y-76724270D01*
X115994315Y-76567657D01*
X116000500Y-76499594D01*
X116000500Y-75540406D01*
X115996150Y-75492537D01*
X116009086Y-75443601D01*
X116017514Y-75433521D01*
X116402558Y-75048477D01*
X116414400Y-75038861D01*
X116427836Y-75030084D01*
X116450594Y-75000843D01*
X116453631Y-74997405D01*
X116457519Y-74993518D01*
X116470636Y-74975145D01*
X116471552Y-74973916D01*
X116504809Y-74931189D01*
X116504810Y-74931183D01*
X116507729Y-74925792D01*
X116507978Y-74925926D01*
X116509571Y-74922832D01*
X116509316Y-74922708D01*
X116512009Y-74917200D01*
X116512008Y-74917200D01*
X116512010Y-74917199D01*
X116527459Y-74865302D01*
X116527900Y-74863925D01*
X116545500Y-74812660D01*
X116545500Y-74812656D01*
X116546510Y-74806609D01*
X116546786Y-74806655D01*
X116547289Y-74803207D01*
X116547009Y-74803173D01*
X116547765Y-74797096D01*
X116547768Y-74797089D01*
X116546487Y-74766131D01*
X116545532Y-74743002D01*
X116545500Y-74741473D01*
X116545500Y-74285277D01*
X116562813Y-74237711D01*
X116606650Y-74212401D01*
X116656500Y-74221191D01*
X116674187Y-74235424D01*
X116797763Y-74370981D01*
X116797764Y-74370982D01*
X116975306Y-74505055D01*
X116975309Y-74505057D01*
X116975310Y-74505057D01*
X116975311Y-74505058D01*
X117174472Y-74604229D01*
X117388464Y-74665115D01*
X117554497Y-74680500D01*
X117554499Y-74680500D01*
X117965501Y-74680500D01*
X117965503Y-74680500D01*
X118131536Y-74665115D01*
X118345528Y-74604229D01*
X118544689Y-74505058D01*
X118554699Y-74497499D01*
X118722235Y-74370982D01*
X118722236Y-74370981D01*
X118730441Y-74361981D01*
X118745813Y-74345117D01*
X118790652Y-74321629D01*
X118840099Y-74332458D01*
X118871017Y-74372537D01*
X118874500Y-74394971D01*
X118874500Y-75939669D01*
X118857187Y-75987235D01*
X118813350Y-76012545D01*
X118763500Y-76003755D01*
X118760615Y-76002000D01*
X118735426Y-75985882D01*
X118735423Y-75985880D01*
X118735419Y-75985878D01*
X118735411Y-75985874D01*
X118514382Y-75891405D01*
X118280815Y-75834603D01*
X118280807Y-75834602D01*
X118041067Y-75817018D01*
X118041060Y-75817019D01*
X117801708Y-75839133D01*
X117569239Y-75900349D01*
X117379154Y-75985882D01*
X117350030Y-75998987D01*
X117277477Y-76047374D01*
X117150038Y-76132365D01*
X117150036Y-76132367D01*
X116974734Y-76296834D01*
X116974731Y-76296837D01*
X116828891Y-76487915D01*
X116828885Y-76487924D01*
X116716484Y-76700399D01*
X116640584Y-76928494D01*
X116603264Y-77165960D01*
X116603263Y-77165964D01*
X116605538Y-77406338D01*
X116647344Y-77643052D01*
X116722614Y-77855732D01*
X116727545Y-77869664D01*
X116727546Y-77869665D01*
X116814791Y-78027300D01*
X116814807Y-78027326D01*
X117491699Y-79042286D01*
X117491700Y-79042287D01*
X117603711Y-79183423D01*
X117603713Y-79183425D01*
X117782101Y-79344553D01*
X117984577Y-79474120D01*
X117984585Y-79474123D01*
X117984588Y-79474125D01*
X118205617Y-79568594D01*
X118439184Y-79625396D01*
X118439187Y-79625396D01*
X118439194Y-79625398D01*
X118643765Y-79640401D01*
X118678932Y-79642981D01*
X118678932Y-79642980D01*
X118678934Y-79642981D01*
X118823428Y-79629630D01*
X118918291Y-79620866D01*
X118918293Y-79620865D01*
X118918298Y-79620865D01*
X119150757Y-79559652D01*
X119369971Y-79461013D01*
X119569959Y-79327637D01*
X119745267Y-79163164D01*
X119891112Y-78972080D01*
X120003517Y-78759596D01*
X120079415Y-78531508D01*
X120116736Y-78294039D01*
X120116690Y-78289229D01*
X120116193Y-78236653D01*
X120114462Y-78053666D01*
X120072655Y-77816946D01*
X119992455Y-77590336D01*
X119905199Y-77432683D01*
X119620738Y-77006152D01*
X119608751Y-76956975D01*
X119612312Y-76941073D01*
X119625500Y-76902660D01*
X119625500Y-76902656D01*
X119626510Y-76896607D01*
X119626790Y-76896653D01*
X119627291Y-76893212D01*
X119627009Y-76893177D01*
X119627767Y-76887092D01*
X119627766Y-76887091D01*
X119627768Y-76887088D01*
X119625530Y-76832984D01*
X119625499Y-76831521D01*
X119625499Y-73396882D01*
X120255804Y-73396882D01*
X120265654Y-73729099D01*
X120265656Y-73729121D01*
X120314730Y-74057856D01*
X120314731Y-74057857D01*
X120402344Y-74378494D01*
X120527266Y-74686516D01*
X120527267Y-74686517D01*
X120687742Y-74977603D01*
X120881519Y-75247665D01*
X121105877Y-75492914D01*
X121357666Y-75709906D01*
X121562316Y-75847748D01*
X121633351Y-75895594D01*
X121633353Y-75895595D01*
X121929067Y-76047374D01*
X122240656Y-76163113D01*
X122563747Y-76241187D01*
X122893805Y-76280500D01*
X122893809Y-76280500D01*
X123143023Y-76280500D01*
X123391807Y-76265736D01*
X123718956Y-76206939D01*
X124036854Y-76109862D01*
X124341040Y-75975868D01*
X124627243Y-75806837D01*
X124891445Y-75605142D01*
X125129937Y-75373616D01*
X125339373Y-75115506D01*
X125516810Y-74834438D01*
X125659760Y-74534357D01*
X125766215Y-74219475D01*
X125834680Y-73894212D01*
X125864195Y-73563134D01*
X125864195Y-73563120D01*
X125864195Y-73563117D01*
X125855710Y-73276923D01*
X125854345Y-73230890D01*
X125805269Y-72902142D01*
X125736190Y-72649339D01*
X125717655Y-72581505D01*
X125592733Y-72273483D01*
X125529329Y-72158475D01*
X125432258Y-71982397D01*
X125238481Y-71712335D01*
X125014123Y-71467086D01*
X124762334Y-71250094D01*
X124617178Y-71152324D01*
X124486648Y-71064405D01*
X124330253Y-70984134D01*
X124190933Y-70912626D01*
X123879344Y-70796887D01*
X123556253Y-70718813D01*
X123226195Y-70679500D01*
X122976977Y-70679500D01*
X122728201Y-70694263D01*
X122728184Y-70694265D01*
X122401049Y-70753059D01*
X122083147Y-70850137D01*
X121778954Y-70984134D01*
X121492773Y-71153152D01*
X121492752Y-71153166D01*
X121228557Y-71354855D01*
X121228547Y-71354864D01*
X120990068Y-71586378D01*
X120990063Y-71586383D01*
X120990063Y-71586384D01*
X120789168Y-71833969D01*
X120780625Y-71844497D01*
X120780623Y-71844498D01*
X120603189Y-72125562D01*
X120603188Y-72125564D01*
X120460239Y-72425644D01*
X120353787Y-72740515D01*
X120353784Y-72740525D01*
X120285321Y-73065778D01*
X120285320Y-73065787D01*
X120285320Y-73065788D01*
X120270602Y-73230890D01*
X120255804Y-73396879D01*
X120255804Y-73396882D01*
X119625499Y-73396882D01*
X119625499Y-72397518D01*
X119642812Y-72349953D01*
X119675470Y-72327529D01*
X119834656Y-72272882D01*
X120046067Y-72158472D01*
X120235764Y-72010825D01*
X120398571Y-71833969D01*
X120530049Y-71632728D01*
X120626610Y-71412591D01*
X120685620Y-71179563D01*
X120685620Y-71179559D01*
X120685621Y-71179557D01*
X120685621Y-71179556D01*
X120705471Y-70940003D01*
X120705471Y-70939996D01*
X120685621Y-70700443D01*
X120685621Y-70700442D01*
X120684057Y-70694264D01*
X120626610Y-70467409D01*
X120530049Y-70247272D01*
X120398571Y-70046031D01*
X120235764Y-69869175D01*
X120046067Y-69721528D01*
X119957715Y-69673714D01*
X119834655Y-69607117D01*
X119607295Y-69529065D01*
X119370194Y-69489500D01*
X119370192Y-69489500D01*
X119129808Y-69489500D01*
X119129805Y-69489500D01*
X118892704Y-69529065D01*
X118665344Y-69607117D01*
X118453940Y-69721524D01*
X118453928Y-69721531D01*
X118264234Y-69869176D01*
X118101427Y-70046033D01*
X117969951Y-70247271D01*
X117873392Y-70467402D01*
X117814378Y-70700442D01*
X117814378Y-70700443D01*
X117794529Y-70939996D01*
X117794529Y-70940003D01*
X117814378Y-71179556D01*
X117814378Y-71179557D01*
X117843884Y-71296076D01*
X117858769Y-71354855D01*
X117873392Y-71412597D01*
X117921303Y-71521822D01*
X117969951Y-71632728D01*
X118101429Y-71833969D01*
X118264236Y-72010825D01*
X118453933Y-72158472D01*
X118665344Y-72272882D01*
X118824528Y-72327528D01*
X118863895Y-72359347D01*
X118874500Y-72397519D01*
X118874500Y-72565028D01*
X118857187Y-72612594D01*
X118813350Y-72637904D01*
X118763500Y-72629114D01*
X118745814Y-72614882D01*
X118722237Y-72589019D01*
X118722235Y-72589017D01*
X118544693Y-72454944D01*
X118544690Y-72454942D01*
X118405601Y-72385684D01*
X118345528Y-72355771D01*
X118345524Y-72355770D01*
X118345522Y-72355769D01*
X118131537Y-72294885D01*
X118131524Y-72294883D01*
X117965509Y-72279500D01*
X117965503Y-72279500D01*
X117554497Y-72279500D01*
X117554490Y-72279500D01*
X117388475Y-72294883D01*
X117388462Y-72294885D01*
X117174477Y-72355769D01*
X117174472Y-72355771D01*
X116975309Y-72454942D01*
X116975306Y-72454944D01*
X116797764Y-72589017D01*
X116797763Y-72589018D01*
X116674187Y-72724576D01*
X116629347Y-72748065D01*
X116579900Y-72737236D01*
X116548982Y-72697156D01*
X116545500Y-72674723D01*
X116545500Y-66923022D01*
X116545500Y-61056185D01*
X116562812Y-61008622D01*
X116567151Y-61003885D01*
X117471526Y-60099509D01*
X117517401Y-60078118D01*
X117566296Y-60091219D01*
X117581814Y-60105833D01*
X117599917Y-60128642D01*
X117603713Y-60133425D01*
X117782101Y-60294553D01*
X117984577Y-60424120D01*
X117984585Y-60424123D01*
X117984588Y-60424125D01*
X118205617Y-60518594D01*
X118439184Y-60575396D01*
X118439187Y-60575396D01*
X118439194Y-60575398D01*
X118643765Y-60590401D01*
X118678932Y-60592981D01*
X118678932Y-60592980D01*
X118678934Y-60592981D01*
X118823428Y-60579630D01*
X118918291Y-60570866D01*
X118918293Y-60570865D01*
X118918298Y-60570865D01*
X119150757Y-60509652D01*
X119369971Y-60411013D01*
X119491440Y-60330003D01*
X121604529Y-60330003D01*
X121624378Y-60569556D01*
X121624378Y-60569557D01*
X121653884Y-60686077D01*
X121671620Y-60756113D01*
X121683392Y-60802597D01*
X121779951Y-61022728D01*
X121911429Y-61223969D01*
X122074236Y-61400825D01*
X122263933Y-61548472D01*
X122475344Y-61662882D01*
X122702703Y-61740934D01*
X122939808Y-61780500D01*
X123185326Y-61780500D01*
X125539808Y-61780500D01*
X125780192Y-61780500D01*
X126017297Y-61740934D01*
X126244656Y-61662882D01*
X126456067Y-61548472D01*
X126645764Y-61400825D01*
X126808571Y-61223969D01*
X126940049Y-61022728D01*
X127036610Y-60802591D01*
X127095620Y-60569563D01*
X127095620Y-60569559D01*
X127095621Y-60569557D01*
X127095621Y-60569556D01*
X127115471Y-60330003D01*
X127115471Y-60329996D01*
X127095621Y-60090443D01*
X127095621Y-60090442D01*
X127070765Y-59992287D01*
X127036610Y-59857409D01*
X126943196Y-59644448D01*
X126939944Y-59593934D01*
X126958636Y-59562399D01*
X127032558Y-59488477D01*
X127044400Y-59478861D01*
X127057836Y-59470084D01*
X127080594Y-59440843D01*
X127083631Y-59437405D01*
X127087519Y-59433518D01*
X127100636Y-59415145D01*
X127101552Y-59413916D01*
X127104536Y-59410082D01*
X127134809Y-59371189D01*
X127134810Y-59371183D01*
X127137729Y-59365792D01*
X127137978Y-59365926D01*
X127139571Y-59362832D01*
X127139316Y-59362708D01*
X127142009Y-59357200D01*
X127142008Y-59357200D01*
X127142010Y-59357199D01*
X127157459Y-59305302D01*
X127157900Y-59303925D01*
X127175500Y-59252660D01*
X127175500Y-59252656D01*
X127176510Y-59246609D01*
X127176786Y-59246655D01*
X127177289Y-59243207D01*
X127177009Y-59243173D01*
X127177765Y-59237096D01*
X127177768Y-59237089D01*
X127175730Y-59187801D01*
X127175532Y-59183002D01*
X127175500Y-59181473D01*
X127175500Y-55268185D01*
X127192813Y-55220619D01*
X127236650Y-55195309D01*
X127286500Y-55204099D01*
X127304187Y-55218332D01*
X127397763Y-55320981D01*
X127397764Y-55320982D01*
X127575306Y-55455055D01*
X127575309Y-55455057D01*
X127575310Y-55455057D01*
X127575311Y-55455058D01*
X127774472Y-55554229D01*
X127988464Y-55615115D01*
X128154497Y-55630500D01*
X128154499Y-55630500D01*
X128565501Y-55630500D01*
X128565503Y-55630500D01*
X128731536Y-55615115D01*
X128945528Y-55554229D01*
X129144689Y-55455058D01*
X129322236Y-55320981D01*
X129472124Y-55156562D01*
X129589247Y-54967401D01*
X129669618Y-54759940D01*
X129710499Y-54541246D01*
X135459500Y-54541246D01*
X135500382Y-54759942D01*
X135557031Y-54906168D01*
X135580753Y-54967401D01*
X135605803Y-55007858D01*
X135695499Y-55152724D01*
X135697876Y-55156562D01*
X135847764Y-55320981D01*
X135857713Y-55328494D01*
X136025306Y-55455055D01*
X136025309Y-55455057D01*
X136025310Y-55455057D01*
X136025311Y-55455058D01*
X136224472Y-55554229D01*
X136438464Y-55615115D01*
X136604497Y-55630500D01*
X136604499Y-55630500D01*
X137015501Y-55630500D01*
X137015503Y-55630500D01*
X137181536Y-55615115D01*
X137395528Y-55554229D01*
X137594689Y-55455058D01*
X137623407Y-55433371D01*
X137772235Y-55320982D01*
X137772236Y-55320981D01*
X137795813Y-55295118D01*
X137840652Y-55271629D01*
X137890099Y-55282458D01*
X137921017Y-55322537D01*
X137924500Y-55344971D01*
X137924500Y-56889669D01*
X137907187Y-56937235D01*
X137863350Y-56962545D01*
X137813500Y-56953755D01*
X137810615Y-56952000D01*
X137785426Y-56935882D01*
X137785423Y-56935880D01*
X137785419Y-56935878D01*
X137785411Y-56935874D01*
X137564382Y-56841405D01*
X137330815Y-56784603D01*
X137330807Y-56784602D01*
X137091067Y-56767018D01*
X137091060Y-56767019D01*
X136851708Y-56789133D01*
X136619239Y-56850349D01*
X136429154Y-56935882D01*
X136400030Y-56948987D01*
X136327477Y-56997374D01*
X136200038Y-57082365D01*
X136200036Y-57082367D01*
X136024734Y-57246834D01*
X136024731Y-57246837D01*
X135878891Y-57437915D01*
X135878885Y-57437924D01*
X135766484Y-57650399D01*
X135690584Y-57878494D01*
X135653264Y-58115960D01*
X135653263Y-58115964D01*
X135655538Y-58356338D01*
X135697344Y-58593052D01*
X135758685Y-58766375D01*
X135777545Y-58819664D01*
X135777546Y-58819665D01*
X135864791Y-58977300D01*
X135864807Y-58977326D01*
X136541699Y-59992286D01*
X136541700Y-59992287D01*
X136653711Y-60133423D01*
X136653713Y-60133425D01*
X136832101Y-60294553D01*
X137034577Y-60424120D01*
X137034585Y-60424123D01*
X137034588Y-60424125D01*
X137255617Y-60518594D01*
X137489184Y-60575396D01*
X137489187Y-60575396D01*
X137489194Y-60575398D01*
X137693766Y-60590401D01*
X137728932Y-60592981D01*
X137728932Y-60592980D01*
X137728934Y-60592981D01*
X137873428Y-60579630D01*
X137968291Y-60570866D01*
X137968293Y-60570865D01*
X137968298Y-60570865D01*
X138200757Y-60509652D01*
X138419971Y-60411013D01*
X138541440Y-60330003D01*
X140654529Y-60330003D01*
X140674378Y-60569556D01*
X140674378Y-60569557D01*
X140703885Y-60686077D01*
X140721620Y-60756113D01*
X140733392Y-60802597D01*
X140829950Y-61022728D01*
X140829951Y-61022728D01*
X140961429Y-61223969D01*
X141124236Y-61400825D01*
X141313933Y-61548472D01*
X141525344Y-61662882D01*
X141752703Y-61740934D01*
X141989808Y-61780500D01*
X142235326Y-61780500D01*
X144589808Y-61780500D01*
X144830192Y-61780500D01*
X145067297Y-61740934D01*
X145294656Y-61662882D01*
X145506067Y-61548472D01*
X145695764Y-61400825D01*
X145858571Y-61223969D01*
X145990049Y-61022728D01*
X146086610Y-60802591D01*
X146145620Y-60569563D01*
X146145620Y-60569559D01*
X146145621Y-60569557D01*
X146145621Y-60569556D01*
X146165471Y-60330003D01*
X146165471Y-60329996D01*
X146145621Y-60090443D01*
X146145621Y-60090442D01*
X146120765Y-59992287D01*
X146086610Y-59857409D01*
X145993196Y-59644448D01*
X145989944Y-59593934D01*
X146008636Y-59562399D01*
X146142558Y-59428477D01*
X146154400Y-59418861D01*
X146167836Y-59410084D01*
X146190594Y-59380843D01*
X146193631Y-59377405D01*
X146197519Y-59373518D01*
X146210636Y-59355145D01*
X146211552Y-59353916D01*
X146244809Y-59311189D01*
X146244810Y-59311183D01*
X146247729Y-59305792D01*
X146247978Y-59305926D01*
X146249571Y-59302832D01*
X146249316Y-59302708D01*
X146252009Y-59297200D01*
X146252008Y-59297200D01*
X146252010Y-59297199D01*
X146267459Y-59245302D01*
X146267900Y-59243925D01*
X146285500Y-59192660D01*
X146285500Y-59192656D01*
X146286510Y-59186609D01*
X146286786Y-59186655D01*
X146287289Y-59183207D01*
X146287009Y-59183173D01*
X146287765Y-59177096D01*
X146287768Y-59177089D01*
X146286487Y-59146131D01*
X146285532Y-59123002D01*
X146285500Y-59121473D01*
X146285500Y-55334002D01*
X146302813Y-55286436D01*
X146346650Y-55261126D01*
X146396500Y-55269916D01*
X146414187Y-55284149D01*
X146447763Y-55320981D01*
X146447764Y-55320982D01*
X146625306Y-55455055D01*
X146625309Y-55455057D01*
X146625310Y-55455057D01*
X146625311Y-55455058D01*
X146824472Y-55554229D01*
X147038464Y-55615115D01*
X147204497Y-55630500D01*
X147204499Y-55630500D01*
X147615501Y-55630500D01*
X147615503Y-55630500D01*
X147781536Y-55615115D01*
X147995528Y-55554229D01*
X148194689Y-55455058D01*
X148372236Y-55320981D01*
X148522124Y-55156562D01*
X148639247Y-54967401D01*
X148719618Y-54759940D01*
X148760500Y-54541243D01*
X148760500Y-54318757D01*
X148719618Y-54100060D01*
X148639247Y-53892599D01*
X148522124Y-53703438D01*
X148372236Y-53539019D01*
X148340467Y-53515028D01*
X148194693Y-53404944D01*
X148194690Y-53404942D01*
X148073679Y-53344686D01*
X147995528Y-53305771D01*
X147995524Y-53305770D01*
X147995522Y-53305769D01*
X147781537Y-53244885D01*
X147781524Y-53244883D01*
X147615509Y-53229500D01*
X147615503Y-53229500D01*
X147204497Y-53229500D01*
X147204490Y-53229500D01*
X147038475Y-53244883D01*
X147038462Y-53244885D01*
X146824477Y-53305769D01*
X146824472Y-53305771D01*
X146625309Y-53404942D01*
X146625306Y-53404944D01*
X146447764Y-53539017D01*
X146447762Y-53539019D01*
X146414186Y-53575851D01*
X146369347Y-53599339D01*
X146319900Y-53588509D01*
X146288982Y-53548430D01*
X146285500Y-53525997D01*
X146285500Y-50854500D01*
X146302813Y-50806934D01*
X146346650Y-50781624D01*
X146359500Y-50780500D01*
X147230192Y-50780500D01*
X147467297Y-50740934D01*
X147694656Y-50662882D01*
X147906067Y-50548472D01*
X148095764Y-50400825D01*
X148258571Y-50223969D01*
X148390049Y-50022728D01*
X148486610Y-49802591D01*
X148545620Y-49569563D01*
X148545620Y-49569559D01*
X148545621Y-49569557D01*
X148545621Y-49569556D01*
X148565471Y-49330003D01*
X148565471Y-49329996D01*
X148545621Y-49090443D01*
X148545621Y-49090442D01*
X148545620Y-49090437D01*
X148486610Y-48857409D01*
X148390049Y-48637272D01*
X148258571Y-48436031D01*
X148095764Y-48259175D01*
X147906067Y-48111528D01*
X147817715Y-48063714D01*
X147694655Y-47997117D01*
X147467295Y-47919065D01*
X147230194Y-47879500D01*
X147230192Y-47879500D01*
X147104674Y-47879500D01*
X144770192Y-47879500D01*
X144529808Y-47879500D01*
X144529805Y-47879500D01*
X144292704Y-47919065D01*
X144065344Y-47997117D01*
X143853940Y-48111524D01*
X143853928Y-48111531D01*
X143664234Y-48259176D01*
X143501427Y-48436033D01*
X143369951Y-48637271D01*
X143273392Y-48857402D01*
X143214378Y-49090442D01*
X143214378Y-49090443D01*
X143194529Y-49329996D01*
X143194529Y-49330003D01*
X143214378Y-49569556D01*
X143214378Y-49569557D01*
X143273392Y-49802597D01*
X143308919Y-49883589D01*
X143369951Y-50022728D01*
X143501429Y-50223969D01*
X143664236Y-50400825D01*
X143853933Y-50548472D01*
X144065344Y-50662882D01*
X144292703Y-50740934D01*
X144529808Y-50780500D01*
X144655326Y-50780500D01*
X145460500Y-50780500D01*
X145508066Y-50797813D01*
X145533376Y-50841650D01*
X145534500Y-50854500D01*
X145534500Y-58943810D01*
X145517187Y-58991376D01*
X145512825Y-58996137D01*
X145474596Y-59034365D01*
X145428720Y-59055756D01*
X145387051Y-59047119D01*
X145294659Y-58997119D01*
X145277796Y-58991330D01*
X145067297Y-58919066D01*
X145067294Y-58919065D01*
X145067293Y-58919065D01*
X144830194Y-58879500D01*
X144830192Y-58879500D01*
X144589808Y-58879500D01*
X144584674Y-58879500D01*
X142235326Y-58879500D01*
X142230192Y-58879500D01*
X141989808Y-58879500D01*
X141989805Y-58879500D01*
X141752704Y-58919065D01*
X141525344Y-58997117D01*
X141313940Y-59111524D01*
X141313928Y-59111531D01*
X141124234Y-59259176D01*
X140961427Y-59436033D01*
X140829951Y-59637271D01*
X140733392Y-59857402D01*
X140674378Y-60090442D01*
X140674378Y-60090443D01*
X140654529Y-60329996D01*
X140654529Y-60330003D01*
X138541440Y-60330003D01*
X138619959Y-60277637D01*
X138795267Y-60113164D01*
X138941112Y-59922080D01*
X139053517Y-59709596D01*
X139129415Y-59481508D01*
X139166736Y-59244039D01*
X139166690Y-59239229D01*
X139166193Y-59186655D01*
X139164462Y-59003666D01*
X139122655Y-58766946D01*
X139042455Y-58540336D01*
X138955199Y-58382683D01*
X138670738Y-57956152D01*
X138658751Y-57906975D01*
X138662312Y-57891073D01*
X138675500Y-57852660D01*
X138675500Y-57852656D01*
X138676510Y-57846610D01*
X138676786Y-57846656D01*
X138677289Y-57843206D01*
X138677009Y-57843172D01*
X138677765Y-57837095D01*
X138677768Y-57837088D01*
X138676462Y-57805511D01*
X138675532Y-57783002D01*
X138675500Y-57781474D01*
X138675500Y-54346882D01*
X139305804Y-54346882D01*
X139315654Y-54679099D01*
X139315656Y-54679121D01*
X139364730Y-55007856D01*
X139364731Y-55007857D01*
X139452344Y-55328494D01*
X139577266Y-55636516D01*
X139577267Y-55636517D01*
X139737742Y-55927603D01*
X139931519Y-56197665D01*
X140155877Y-56442914D01*
X140407666Y-56659906D01*
X140612316Y-56797748D01*
X140683351Y-56845594D01*
X140683353Y-56845595D01*
X140979067Y-56997374D01*
X141290656Y-57113113D01*
X141613747Y-57191187D01*
X141943805Y-57230500D01*
X141943809Y-57230500D01*
X142193023Y-57230500D01*
X142441807Y-57215736D01*
X142768956Y-57156939D01*
X143086854Y-57059862D01*
X143391040Y-56925868D01*
X143677243Y-56756837D01*
X143941445Y-56555142D01*
X144179937Y-56323616D01*
X144389373Y-56065506D01*
X144566810Y-55784438D01*
X144709760Y-55484357D01*
X144816215Y-55169475D01*
X144884680Y-54844212D01*
X144914195Y-54513134D01*
X144914195Y-54513120D01*
X144914195Y-54513117D01*
X144904345Y-54180900D01*
X144904345Y-54180890D01*
X144855269Y-53852142D01*
X144786190Y-53599339D01*
X144767655Y-53531505D01*
X144642733Y-53223483D01*
X144579329Y-53108475D01*
X144482258Y-52932397D01*
X144288481Y-52662335D01*
X144064123Y-52417086D01*
X143812334Y-52200094D01*
X143668407Y-52103152D01*
X143536648Y-52014405D01*
X143380253Y-51934134D01*
X143240933Y-51862626D01*
X142929344Y-51746887D01*
X142606253Y-51668813D01*
X142276195Y-51629500D01*
X142026977Y-51629500D01*
X141778201Y-51644263D01*
X141778184Y-51644265D01*
X141451049Y-51703059D01*
X141133147Y-51800137D01*
X140828954Y-51934134D01*
X140542773Y-52103152D01*
X140542752Y-52103166D01*
X140278557Y-52304855D01*
X140278547Y-52304864D01*
X140040068Y-52536378D01*
X140040063Y-52536383D01*
X140040063Y-52536384D01*
X139839168Y-52783969D01*
X139830625Y-52794497D01*
X139830623Y-52794498D01*
X139653189Y-53075562D01*
X139653188Y-53075564D01*
X139510239Y-53375644D01*
X139403787Y-53690515D01*
X139403784Y-53690525D01*
X139335321Y-54015778D01*
X139335320Y-54015787D01*
X139335320Y-54015788D01*
X139320602Y-54180890D01*
X139305804Y-54346879D01*
X139305804Y-54346882D01*
X138675500Y-54346882D01*
X138675500Y-53347519D01*
X138692813Y-53299953D01*
X138725471Y-53277529D01*
X138884656Y-53222882D01*
X139096067Y-53108472D01*
X139285764Y-52960825D01*
X139448571Y-52783969D01*
X139580049Y-52582728D01*
X139676610Y-52362591D01*
X139735620Y-52129563D01*
X139735620Y-52129559D01*
X139735621Y-52129557D01*
X139735621Y-52129556D01*
X139755471Y-51890003D01*
X139755471Y-51889996D01*
X139735621Y-51650443D01*
X139735621Y-51650442D01*
X139734057Y-51644264D01*
X139676610Y-51417409D01*
X139580049Y-51197272D01*
X139448571Y-50996031D01*
X139285764Y-50819175D01*
X139096067Y-50671528D01*
X139007715Y-50623714D01*
X138884655Y-50557117D01*
X138657295Y-50479065D01*
X138420194Y-50439500D01*
X138420192Y-50439500D01*
X138179808Y-50439500D01*
X138179805Y-50439500D01*
X137942704Y-50479065D01*
X137715344Y-50557117D01*
X137503940Y-50671524D01*
X137503928Y-50671531D01*
X137314234Y-50819176D01*
X137151427Y-50996033D01*
X137019951Y-51197271D01*
X136923392Y-51417402D01*
X136864378Y-51650442D01*
X136864378Y-51650443D01*
X136844529Y-51889996D01*
X136844529Y-51890003D01*
X136864378Y-52129556D01*
X136864378Y-52129557D01*
X136893884Y-52246077D01*
X136908769Y-52304855D01*
X136923392Y-52362597D01*
X136962997Y-52452886D01*
X137019951Y-52582728D01*
X137151429Y-52783969D01*
X137314236Y-52960825D01*
X137503933Y-53108472D01*
X137715344Y-53222882D01*
X137874528Y-53277528D01*
X137913895Y-53309347D01*
X137924500Y-53347519D01*
X137924500Y-53515028D01*
X137907187Y-53562594D01*
X137863350Y-53587904D01*
X137813500Y-53579114D01*
X137795814Y-53564882D01*
X137772237Y-53539019D01*
X137772235Y-53539017D01*
X137594693Y-53404944D01*
X137594690Y-53404942D01*
X137473679Y-53344686D01*
X137395528Y-53305771D01*
X137395524Y-53305770D01*
X137395522Y-53305769D01*
X137181537Y-53244885D01*
X137181524Y-53244883D01*
X137015509Y-53229500D01*
X137015503Y-53229500D01*
X136604497Y-53229500D01*
X136604490Y-53229500D01*
X136438475Y-53244883D01*
X136438462Y-53244885D01*
X136224477Y-53305769D01*
X136224472Y-53305771D01*
X136025309Y-53404942D01*
X136025306Y-53404944D01*
X135847767Y-53539016D01*
X135697874Y-53703440D01*
X135580756Y-53892594D01*
X135580751Y-53892604D01*
X135500382Y-54100057D01*
X135459500Y-54318753D01*
X135459500Y-54541246D01*
X129710499Y-54541246D01*
X129710500Y-54541243D01*
X129710500Y-54318757D01*
X129669618Y-54100060D01*
X129589247Y-53892599D01*
X129472124Y-53703438D01*
X129322236Y-53539019D01*
X129290467Y-53515028D01*
X129144693Y-53404944D01*
X129144690Y-53404942D01*
X129023679Y-53344686D01*
X128945528Y-53305771D01*
X128945524Y-53305770D01*
X128945522Y-53305769D01*
X128731537Y-53244885D01*
X128731524Y-53244883D01*
X128565509Y-53229500D01*
X128565503Y-53229500D01*
X128154497Y-53229500D01*
X128154490Y-53229500D01*
X127988475Y-53244883D01*
X127988462Y-53244885D01*
X127774477Y-53305769D01*
X127774472Y-53305771D01*
X127575309Y-53404942D01*
X127575306Y-53404944D01*
X127397764Y-53539017D01*
X127397763Y-53539018D01*
X127304187Y-53641668D01*
X127259347Y-53665157D01*
X127209900Y-53654328D01*
X127178982Y-53614248D01*
X127175500Y-53591815D01*
X127175500Y-50854500D01*
X127192813Y-50806934D01*
X127236650Y-50781624D01*
X127249500Y-50780500D01*
X128180192Y-50780500D01*
X128417297Y-50740934D01*
X128644656Y-50662882D01*
X128705417Y-50630000D01*
X130259417Y-50630000D01*
X130263507Y-50671531D01*
X130279700Y-50835934D01*
X130339768Y-51033954D01*
X130437315Y-51216450D01*
X130568590Y-51376410D01*
X130728550Y-51507685D01*
X130900383Y-51599532D01*
X130934172Y-51637223D01*
X130939500Y-51664794D01*
X130939500Y-52008193D01*
X130922187Y-52055759D01*
X130878350Y-52081069D01*
X130873410Y-52081769D01*
X130837885Y-52085588D01*
X130709774Y-52133371D01*
X130600313Y-52215313D01*
X130518371Y-52324774D01*
X130470588Y-52452884D01*
X130470588Y-52452887D01*
X130464500Y-52509513D01*
X130464500Y-53050484D01*
X130464501Y-53050485D01*
X130470588Y-53107114D01*
X130518371Y-53235225D01*
X130538972Y-53262744D01*
X130600313Y-53344687D01*
X130709774Y-53426628D01*
X130709773Y-53426628D01*
X130757557Y-53444450D01*
X130837886Y-53474412D01*
X130894515Y-53480500D01*
X131735484Y-53480499D01*
X131792114Y-53474412D01*
X131920226Y-53426628D01*
X132029687Y-53344687D01*
X132111628Y-53235226D01*
X132159412Y-53107114D01*
X132165500Y-53050485D01*
X132165499Y-52509516D01*
X132159412Y-52452886D01*
X132111628Y-52324774D01*
X132029687Y-52215313D01*
X131920226Y-52133372D01*
X131920225Y-52133371D01*
X131920226Y-52133371D01*
X131792114Y-52085588D01*
X131756588Y-52081768D01*
X131711146Y-52059469D01*
X131690668Y-52013177D01*
X131690500Y-52008192D01*
X131690500Y-51664794D01*
X131707813Y-51617228D01*
X131729615Y-51599533D01*
X131901450Y-51507685D01*
X132061410Y-51376410D01*
X132192685Y-51216450D01*
X132290232Y-51033954D01*
X132350300Y-50835934D01*
X132370583Y-50630000D01*
X132799417Y-50630000D01*
X132803507Y-50671531D01*
X132819700Y-50835934D01*
X132879768Y-51033954D01*
X132977315Y-51216450D01*
X133108590Y-51376410D01*
X133268550Y-51507685D01*
X133440383Y-51599532D01*
X133474172Y-51637223D01*
X133479500Y-51664794D01*
X133479500Y-52008193D01*
X133462187Y-52055759D01*
X133418350Y-52081069D01*
X133413410Y-52081769D01*
X133377885Y-52085588D01*
X133249774Y-52133371D01*
X133140313Y-52215313D01*
X133058371Y-52324774D01*
X133010588Y-52452884D01*
X133010588Y-52452887D01*
X133004500Y-52509513D01*
X133004500Y-53050484D01*
X133004501Y-53050485D01*
X133010588Y-53107114D01*
X133058371Y-53235225D01*
X133078972Y-53262744D01*
X133140313Y-53344687D01*
X133249774Y-53426628D01*
X133249773Y-53426628D01*
X133297557Y-53444450D01*
X133377886Y-53474412D01*
X133434515Y-53480500D01*
X134275484Y-53480499D01*
X134332114Y-53474412D01*
X134460226Y-53426628D01*
X134569687Y-53344687D01*
X134651628Y-53235226D01*
X134699412Y-53107114D01*
X134705500Y-53050485D01*
X134705499Y-52509516D01*
X134699412Y-52452886D01*
X134651628Y-52324774D01*
X134569687Y-52215313D01*
X134460226Y-52133372D01*
X134460225Y-52133371D01*
X134460226Y-52133371D01*
X134332114Y-52085588D01*
X134296588Y-52081768D01*
X134251146Y-52059469D01*
X134230668Y-52013177D01*
X134230500Y-52008192D01*
X134230500Y-51664794D01*
X134247813Y-51617228D01*
X134269615Y-51599533D01*
X134441450Y-51507685D01*
X134601410Y-51376410D01*
X134732685Y-51216450D01*
X134830232Y-51033954D01*
X134890300Y-50835934D01*
X134910583Y-50630000D01*
X134890300Y-50424066D01*
X134830232Y-50226046D01*
X134732685Y-50043550D01*
X134601410Y-49883590D01*
X134441450Y-49752315D01*
X134258954Y-49654768D01*
X134147158Y-49620855D01*
X134060935Y-49594700D01*
X133957966Y-49584558D01*
X133855000Y-49574417D01*
X133854999Y-49574417D01*
X133649064Y-49594700D01*
X133451043Y-49654769D01*
X133268549Y-49752315D01*
X133108590Y-49883589D01*
X133108589Y-49883590D01*
X132977315Y-50043549D01*
X132879769Y-50226043D01*
X132819700Y-50424064D01*
X132799417Y-50630000D01*
X132370583Y-50630000D01*
X132350300Y-50424066D01*
X132290232Y-50226046D01*
X132192685Y-50043550D01*
X132061410Y-49883590D01*
X131901450Y-49752315D01*
X131718954Y-49654768D01*
X131607158Y-49620855D01*
X131520935Y-49594700D01*
X131315000Y-49574417D01*
X131109064Y-49594700D01*
X130911043Y-49654769D01*
X130728549Y-49752315D01*
X130568590Y-49883589D01*
X130568589Y-49883590D01*
X130437315Y-50043549D01*
X130339769Y-50226043D01*
X130279700Y-50424064D01*
X130259417Y-50630000D01*
X128705417Y-50630000D01*
X128856067Y-50548472D01*
X129045764Y-50400825D01*
X129208571Y-50223969D01*
X129340049Y-50022728D01*
X129436610Y-49802591D01*
X129495620Y-49569563D01*
X129495620Y-49569559D01*
X129495621Y-49569557D01*
X129495621Y-49569556D01*
X129515471Y-49330003D01*
X129515471Y-49329996D01*
X129495621Y-49090443D01*
X129495621Y-49090442D01*
X129495620Y-49090437D01*
X129436610Y-48857409D01*
X129340049Y-48637272D01*
X129208571Y-48436031D01*
X129045764Y-48259175D01*
X128856067Y-48111528D01*
X128767715Y-48063714D01*
X128644655Y-47997117D01*
X128417295Y-47919065D01*
X128180194Y-47879500D01*
X128180192Y-47879500D01*
X128054674Y-47879500D01*
X125720192Y-47879500D01*
X125479808Y-47879500D01*
X125479805Y-47879500D01*
X125242704Y-47919065D01*
X125015344Y-47997117D01*
X124803940Y-48111524D01*
X124803928Y-48111531D01*
X124614234Y-48259176D01*
X124451427Y-48436033D01*
X124319951Y-48637271D01*
X124223392Y-48857402D01*
X124164378Y-49090442D01*
X124164378Y-49090443D01*
X124144529Y-49329996D01*
X124144529Y-49330003D01*
X124164378Y-49569556D01*
X124164378Y-49569557D01*
X124223392Y-49802597D01*
X124258919Y-49883589D01*
X124319951Y-50022728D01*
X124451429Y-50223969D01*
X124614236Y-50400825D01*
X124803933Y-50548472D01*
X125015344Y-50662882D01*
X125242703Y-50740934D01*
X125479808Y-50780500D01*
X125605326Y-50780500D01*
X126350500Y-50780500D01*
X126398066Y-50797813D01*
X126423376Y-50841650D01*
X126424500Y-50854500D01*
X126424500Y-58970256D01*
X126407187Y-59017822D01*
X126363350Y-59043132D01*
X126315280Y-59035337D01*
X126244656Y-58997117D01*
X126017295Y-58919065D01*
X125780194Y-58879500D01*
X125780192Y-58879500D01*
X125539808Y-58879500D01*
X125534674Y-58879500D01*
X123185326Y-58879500D01*
X123180192Y-58879500D01*
X122939808Y-58879500D01*
X122939805Y-58879500D01*
X122702704Y-58919065D01*
X122475344Y-58997117D01*
X122263940Y-59111524D01*
X122263928Y-59111531D01*
X122074234Y-59259176D01*
X121911427Y-59436033D01*
X121779951Y-59637271D01*
X121683392Y-59857402D01*
X121624378Y-60090442D01*
X121624378Y-60090443D01*
X121604529Y-60329996D01*
X121604529Y-60330003D01*
X119491440Y-60330003D01*
X119569959Y-60277637D01*
X119745267Y-60113164D01*
X119891112Y-59922080D01*
X120003517Y-59709596D01*
X120079415Y-59481508D01*
X120116736Y-59244039D01*
X120116690Y-59239229D01*
X120116193Y-59186655D01*
X120114462Y-59003666D01*
X120072655Y-58766946D01*
X119992455Y-58540336D01*
X119905199Y-58382683D01*
X119620738Y-57956152D01*
X119608751Y-57906975D01*
X119612312Y-57891073D01*
X119625500Y-57852660D01*
X119625500Y-57852656D01*
X119626510Y-57846607D01*
X119626790Y-57846653D01*
X119627291Y-57843212D01*
X119627009Y-57843177D01*
X119627767Y-57837092D01*
X119627766Y-57837091D01*
X119627768Y-57837088D01*
X119625530Y-57782984D01*
X119625499Y-57781521D01*
X119625499Y-54346882D01*
X120255804Y-54346882D01*
X120265654Y-54679099D01*
X120265656Y-54679121D01*
X120314730Y-55007856D01*
X120314731Y-55007857D01*
X120402344Y-55328494D01*
X120527266Y-55636516D01*
X120527267Y-55636517D01*
X120687742Y-55927603D01*
X120881519Y-56197665D01*
X121105877Y-56442914D01*
X121357666Y-56659906D01*
X121562316Y-56797748D01*
X121633351Y-56845594D01*
X121633353Y-56845595D01*
X121929067Y-56997374D01*
X122240656Y-57113113D01*
X122563747Y-57191187D01*
X122893805Y-57230500D01*
X122893809Y-57230500D01*
X123143023Y-57230500D01*
X123391807Y-57215736D01*
X123718956Y-57156939D01*
X124036854Y-57059862D01*
X124341040Y-56925868D01*
X124627243Y-56756837D01*
X124891445Y-56555142D01*
X125129937Y-56323616D01*
X125339373Y-56065506D01*
X125516810Y-55784438D01*
X125659760Y-55484357D01*
X125766215Y-55169475D01*
X125834680Y-54844212D01*
X125864195Y-54513134D01*
X125864195Y-54513120D01*
X125864195Y-54513117D01*
X125854345Y-54180900D01*
X125854345Y-54180890D01*
X125805269Y-53852142D01*
X125736190Y-53599339D01*
X125717655Y-53531505D01*
X125592733Y-53223483D01*
X125529329Y-53108475D01*
X125432258Y-52932397D01*
X125238481Y-52662335D01*
X125014123Y-52417086D01*
X124762334Y-52200094D01*
X124618407Y-52103152D01*
X124486648Y-52014405D01*
X124330253Y-51934134D01*
X124190933Y-51862626D01*
X123879344Y-51746887D01*
X123556253Y-51668813D01*
X123226195Y-51629500D01*
X122976977Y-51629500D01*
X122728201Y-51644263D01*
X122728184Y-51644265D01*
X122401049Y-51703059D01*
X122083147Y-51800137D01*
X121778954Y-51934134D01*
X121492773Y-52103152D01*
X121492752Y-52103166D01*
X121228557Y-52304855D01*
X121228547Y-52304864D01*
X120990068Y-52536378D01*
X120990063Y-52536383D01*
X120990063Y-52536384D01*
X120789168Y-52783969D01*
X120780625Y-52794497D01*
X120780623Y-52794498D01*
X120603189Y-53075562D01*
X120603188Y-53075564D01*
X120460239Y-53375644D01*
X120353787Y-53690515D01*
X120353784Y-53690525D01*
X120285321Y-54015778D01*
X120285320Y-54015787D01*
X120285320Y-54015788D01*
X120270602Y-54180890D01*
X120255804Y-54346879D01*
X120255804Y-54346882D01*
X119625499Y-54346882D01*
X119625499Y-53347518D01*
X119642812Y-53299953D01*
X119675470Y-53277529D01*
X119834656Y-53222882D01*
X120046067Y-53108472D01*
X120235764Y-52960825D01*
X120398571Y-52783969D01*
X120530049Y-52582728D01*
X120626610Y-52362591D01*
X120685620Y-52129563D01*
X120685620Y-52129559D01*
X120685621Y-52129557D01*
X120685621Y-52129556D01*
X120705471Y-51890003D01*
X120705471Y-51889996D01*
X120685621Y-51650443D01*
X120685621Y-51650442D01*
X120684057Y-51644264D01*
X120626610Y-51417409D01*
X120530049Y-51197272D01*
X120398571Y-50996031D01*
X120235764Y-50819175D01*
X120046067Y-50671528D01*
X119957715Y-50623714D01*
X119834655Y-50557117D01*
X119607295Y-50479065D01*
X119370194Y-50439500D01*
X119370192Y-50439500D01*
X119129808Y-50439500D01*
X119129805Y-50439500D01*
X118892704Y-50479065D01*
X118665344Y-50557117D01*
X118453940Y-50671524D01*
X118453928Y-50671531D01*
X118264234Y-50819176D01*
X118101427Y-50996033D01*
X117969951Y-51197271D01*
X117873392Y-51417402D01*
X117814378Y-51650442D01*
X117814378Y-51650443D01*
X117794529Y-51889996D01*
X117794529Y-51890003D01*
X117814378Y-52129556D01*
X117814378Y-52129557D01*
X117843885Y-52246077D01*
X117858769Y-52304855D01*
X117873392Y-52362597D01*
X117912997Y-52452886D01*
X117969951Y-52582728D01*
X118101429Y-52783969D01*
X118264236Y-52960825D01*
X118453933Y-53108472D01*
X118665344Y-53222882D01*
X118824528Y-53277528D01*
X118863895Y-53309347D01*
X118874500Y-53347519D01*
X118874500Y-53515028D01*
X118857187Y-53562594D01*
X118813350Y-53587904D01*
X118763500Y-53579114D01*
X118745814Y-53564882D01*
X118722237Y-53539019D01*
X118722235Y-53539017D01*
X118544693Y-53404944D01*
X118544690Y-53404942D01*
X118423679Y-53344686D01*
X118345528Y-53305771D01*
X118345524Y-53305770D01*
X118345522Y-53305769D01*
X118131537Y-53244885D01*
X118131524Y-53244883D01*
X117965509Y-53229500D01*
X117965503Y-53229500D01*
X117554497Y-53229500D01*
X117554490Y-53229500D01*
X117388475Y-53244883D01*
X117388462Y-53244885D01*
X117174477Y-53305769D01*
X117174472Y-53305771D01*
X116975309Y-53404942D01*
X116975306Y-53404944D01*
X116797767Y-53539016D01*
X116647874Y-53703440D01*
X116530756Y-53892594D01*
X116530751Y-53892604D01*
X116450382Y-54100057D01*
X116409500Y-54318753D01*
X116409500Y-54541246D01*
X116450382Y-54759942D01*
X116507031Y-54906168D01*
X116530753Y-54967401D01*
X116555803Y-55007858D01*
X116645499Y-55152724D01*
X116647876Y-55156562D01*
X116797764Y-55320981D01*
X116807713Y-55328494D01*
X116975306Y-55455055D01*
X116975309Y-55455057D01*
X116975310Y-55455057D01*
X116975311Y-55455058D01*
X117174472Y-55554229D01*
X117388464Y-55615115D01*
X117554497Y-55630500D01*
X117554499Y-55630500D01*
X117965501Y-55630500D01*
X117965503Y-55630500D01*
X118131536Y-55615115D01*
X118345528Y-55554229D01*
X118544689Y-55455058D01*
X118573407Y-55433371D01*
X118722235Y-55320982D01*
X118722236Y-55320981D01*
X118745813Y-55295118D01*
X118790652Y-55271629D01*
X118840099Y-55282458D01*
X118871017Y-55322537D01*
X118874500Y-55344971D01*
X118874500Y-56889669D01*
X118857187Y-56937235D01*
X118813350Y-56962545D01*
X118763500Y-56953755D01*
X118760615Y-56952000D01*
X118735426Y-56935882D01*
X118735423Y-56935880D01*
X118735419Y-56935878D01*
X118735411Y-56935874D01*
X118514382Y-56841405D01*
X118280815Y-56784603D01*
X118280807Y-56784602D01*
X118041067Y-56767018D01*
X118041060Y-56767019D01*
X117801708Y-56789133D01*
X117569239Y-56850349D01*
X117379154Y-56935882D01*
X117350030Y-56948987D01*
X117277477Y-56997374D01*
X117150038Y-57082365D01*
X117150036Y-57082367D01*
X116974734Y-57246834D01*
X116974731Y-57246837D01*
X116828891Y-57437915D01*
X116828885Y-57437924D01*
X116716484Y-57650399D01*
X116640584Y-57878494D01*
X116603264Y-58115960D01*
X116603263Y-58115964D01*
X116605538Y-58356338D01*
X116647344Y-58593052D01*
X116708685Y-58766375D01*
X116727545Y-58819664D01*
X116727546Y-58819665D01*
X116814791Y-58977300D01*
X116814807Y-58977326D01*
X117067937Y-59356879D01*
X117079925Y-59406057D01*
X117058698Y-59450263D01*
X115937440Y-60571520D01*
X115925592Y-60581142D01*
X115912163Y-60589916D01*
X115889408Y-60619150D01*
X115886377Y-60622583D01*
X115882484Y-60626477D01*
X115882478Y-60626484D01*
X115869353Y-60644867D01*
X115868440Y-60646092D01*
X115835194Y-60688806D01*
X115832273Y-60694204D01*
X115832026Y-60694070D01*
X115830430Y-60697171D01*
X115830682Y-60697295D01*
X115827988Y-60702804D01*
X115812550Y-60754658D01*
X115812084Y-60756113D01*
X115794499Y-60807338D01*
X115793491Y-60813384D01*
X115793217Y-60813338D01*
X115792713Y-60816793D01*
X115792990Y-60816828D01*
X115792232Y-60822912D01*
X115794468Y-60876996D01*
X115794500Y-60878524D01*
X115794500Y-65018692D01*
X115777187Y-65066258D01*
X115733350Y-65091568D01*
X115683500Y-65082778D01*
X115670647Y-65073379D01*
X115566041Y-64978019D01*
X115392637Y-64870652D01*
X115202456Y-64796976D01*
X115114407Y-64780516D01*
X115001979Y-64759500D01*
X115001976Y-64759500D01*
X114798024Y-64759500D01*
X114798020Y-64759500D01*
X114648115Y-64787522D01*
X114597544Y-64796976D01*
X114597542Y-64796976D01*
X114597540Y-64796977D01*
X114407368Y-64870650D01*
X114407363Y-64870652D01*
X114407358Y-64870654D01*
X114407358Y-64870655D01*
X114233958Y-64978019D01*
X114233957Y-64978019D01*
X114083235Y-65115420D01*
X114083234Y-65115421D01*
X113960329Y-65278174D01*
X113960328Y-65278177D01*
X113869418Y-65460750D01*
X113869416Y-65460755D01*
X113813602Y-65656917D01*
X113813601Y-65656923D01*
X113794785Y-65859996D01*
X113794785Y-65860003D01*
X113813601Y-66063076D01*
X113813602Y-66063082D01*
X113869416Y-66259244D01*
X113869418Y-66259250D01*
X113960327Y-66441821D01*
X113960328Y-66441822D01*
X113960329Y-66441825D01*
X114083234Y-66604578D01*
X114083235Y-66604579D01*
X114220636Y-66729836D01*
X114233959Y-66741981D01*
X114407363Y-66849348D01*
X114597544Y-66923024D01*
X114798024Y-66960500D01*
X114798026Y-66960500D01*
X115001974Y-66960500D01*
X115001976Y-66960500D01*
X115202456Y-66923024D01*
X115392637Y-66849348D01*
X115566041Y-66741981D01*
X115670648Y-66646619D01*
X115717462Y-66627369D01*
X115765699Y-66642715D01*
X115792787Y-66685476D01*
X115794500Y-66701307D01*
X115794500Y-67558692D01*
X115777187Y-67606258D01*
X115733350Y-67631568D01*
X115683500Y-67622778D01*
X115670647Y-67613379D01*
X115566041Y-67518019D01*
X115566040Y-67518019D01*
X115392637Y-67410652D01*
X115202456Y-67336976D01*
X115114407Y-67320516D01*
X115001979Y-67299500D01*
X115001976Y-67299500D01*
X114798024Y-67299500D01*
X114798020Y-67299500D01*
X114648115Y-67327522D01*
X114597544Y-67336976D01*
X114597542Y-67336976D01*
X114597540Y-67336977D01*
X114504007Y-67373212D01*
X114407363Y-67410652D01*
X114407358Y-67410654D01*
X114407358Y-67410655D01*
X114233958Y-67518019D01*
X114233957Y-67518019D01*
X114083235Y-67655420D01*
X114083234Y-67655421D01*
X113960329Y-67818174D01*
X113960328Y-67818177D01*
X113869418Y-68000750D01*
X113869416Y-68000755D01*
X113813602Y-68196917D01*
X113813601Y-68196923D01*
X113794785Y-68399996D01*
X113794785Y-68400003D01*
X113813601Y-68603076D01*
X113813602Y-68603082D01*
X113867275Y-68791719D01*
X113869418Y-68799250D01*
X113960327Y-68981821D01*
X113960328Y-68981822D01*
X113960329Y-68981825D01*
X114083234Y-69144578D01*
X114083235Y-69144579D01*
X114220637Y-69269836D01*
X114233959Y-69281981D01*
X114407363Y-69389348D01*
X114597544Y-69463024D01*
X114798024Y-69500500D01*
X114798026Y-69500500D01*
X115001974Y-69500500D01*
X115001976Y-69500500D01*
X115202456Y-69463024D01*
X115392637Y-69389348D01*
X115566041Y-69281981D01*
X115670648Y-69186619D01*
X115717462Y-69167369D01*
X115765699Y-69182715D01*
X115792787Y-69225476D01*
X115794500Y-69241307D01*
X115794500Y-70098692D01*
X115777187Y-70146258D01*
X115733350Y-70171568D01*
X115683500Y-70162778D01*
X115670647Y-70153379D01*
X115566041Y-70058019D01*
X115546680Y-70046031D01*
X115392637Y-69950652D01*
X115225582Y-69885935D01*
X115202459Y-69876977D01*
X115202458Y-69876976D01*
X115202456Y-69876976D01*
X115114407Y-69860516D01*
X115001979Y-69839500D01*
X115001976Y-69839500D01*
X114798024Y-69839500D01*
X114798020Y-69839500D01*
X114648115Y-69867522D01*
X114597544Y-69876976D01*
X114597542Y-69876976D01*
X114597540Y-69876977D01*
X114407368Y-69950650D01*
X114407363Y-69950652D01*
X114407358Y-69950654D01*
X114407358Y-69950655D01*
X114233958Y-70058019D01*
X114233957Y-70058019D01*
X114083235Y-70195420D01*
X114083234Y-70195421D01*
X113960329Y-70358174D01*
X113960328Y-70358177D01*
X113869418Y-70540750D01*
X113869416Y-70540755D01*
X113813602Y-70736917D01*
X113813601Y-70736923D01*
X113794785Y-70939996D01*
X113794785Y-70940003D01*
X113813601Y-71143076D01*
X113813602Y-71143082D01*
X113869416Y-71339244D01*
X113869418Y-71339250D01*
X113960327Y-71521821D01*
X113960328Y-71521822D01*
X113960329Y-71521825D01*
X114083234Y-71684578D01*
X114083235Y-71684579D01*
X114220637Y-71809836D01*
X114233959Y-71821981D01*
X114407363Y-71929348D01*
X114597544Y-72003024D01*
X114798024Y-72040500D01*
X114798026Y-72040500D01*
X115001974Y-72040500D01*
X115001976Y-72040500D01*
X115202456Y-72003024D01*
X115392637Y-71929348D01*
X115566041Y-71821981D01*
X115670648Y-71726619D01*
X115717462Y-71707369D01*
X115765699Y-71722715D01*
X115792787Y-71765476D01*
X115794500Y-71781307D01*
X115794500Y-72638692D01*
X115777187Y-72686258D01*
X115733350Y-72711568D01*
X115683500Y-72702778D01*
X115670647Y-72693379D01*
X115566041Y-72598019D01*
X115551501Y-72589016D01*
X115392637Y-72490652D01*
X115224831Y-72425644D01*
X115202459Y-72416977D01*
X115202458Y-72416976D01*
X115202456Y-72416976D01*
X115098370Y-72397519D01*
X115001979Y-72379500D01*
X115001976Y-72379500D01*
X114798024Y-72379500D01*
X114798020Y-72379500D01*
X114648115Y-72407522D01*
X114597544Y-72416976D01*
X114597542Y-72416976D01*
X114597540Y-72416977D01*
X114443563Y-72476628D01*
X114407363Y-72490652D01*
X114407358Y-72490654D01*
X114407358Y-72490655D01*
X114233958Y-72598019D01*
X114233957Y-72598019D01*
X114083235Y-72735420D01*
X114083234Y-72735421D01*
X113960329Y-72898174D01*
X113960328Y-72898177D01*
X113869418Y-73080750D01*
X113869416Y-73080755D01*
X113813602Y-73276917D01*
X113813601Y-73276923D01*
X113794785Y-73479996D01*
X113794785Y-73480003D01*
X113635500Y-73480003D01*
X113635500Y-45407081D01*
X113635733Y-45402937D01*
X113636755Y-45393855D01*
X113638472Y-45378620D01*
X113649607Y-45294041D01*
X113653122Y-45279281D01*
X113667023Y-45239552D01*
X113667714Y-45237741D01*
X113692087Y-45178900D01*
X113697773Y-45167891D01*
X113722530Y-45128492D01*
X113724489Y-45125674D01*
X113763006Y-45075478D01*
X113766167Y-45071874D01*
X113801874Y-45036167D01*
X113805478Y-45033006D01*
X113855674Y-44994489D01*
X113858492Y-44992530D01*
X113897891Y-44967773D01*
X113908900Y-44962087D01*
X113967741Y-44937714D01*
X113969552Y-44937023D01*
X114009281Y-44923122D01*
X114024041Y-44919607D01*
X114108620Y-44908472D01*
X114122767Y-44906878D01*
X114132938Y-44905733D01*
X114137083Y-44905500D01*
X151032918Y-44905500D01*
X151037063Y-44905733D01*
G37*
G04 #@! TD.AperFunction*
G04 #@! TA.AperFunction,NonConductor*
G36*
X134578682Y-70524168D02*
G01*
X134603512Y-70568279D01*
X134604500Y-70580333D01*
X134604500Y-71143540D01*
X134587187Y-71191106D01*
X134543350Y-71216416D01*
X134493500Y-71207626D01*
X134486154Y-71202781D01*
X134460225Y-71183371D01*
X134332114Y-71135588D01*
X134296588Y-71131768D01*
X134251146Y-71109469D01*
X134230668Y-71063177D01*
X134230500Y-71058192D01*
X134230500Y-70714794D01*
X134247813Y-70667228D01*
X134269615Y-70649533D01*
X134441450Y-70557685D01*
X134483556Y-70523129D01*
X134531307Y-70506337D01*
X134578682Y-70524168D01*
G37*
G04 #@! TD.AperFunction*
G04 #@! TA.AperFunction,NonConductor*
G36*
X130676500Y-70516247D02*
G01*
X130686440Y-70523127D01*
X130728550Y-70557685D01*
X130900383Y-70649532D01*
X130934172Y-70687223D01*
X130939500Y-70714794D01*
X130939500Y-71058193D01*
X130922187Y-71105759D01*
X130878350Y-71131069D01*
X130873410Y-71131769D01*
X130837885Y-71135588D01*
X130709774Y-71183371D01*
X130683846Y-71202781D01*
X130635392Y-71217426D01*
X130588860Y-71197499D01*
X130566023Y-71152324D01*
X130565500Y-71143540D01*
X130565500Y-70580333D01*
X130582813Y-70532767D01*
X130626650Y-70507457D01*
X130676500Y-70516247D01*
G37*
G04 #@! TD.AperFunction*
G04 #@! TA.AperFunction,NonConductor*
G36*
X134581139Y-75762499D02*
G01*
X134603977Y-75807673D01*
X134604500Y-75816459D01*
X134604500Y-75968810D01*
X134587187Y-76016376D01*
X134582826Y-76021136D01*
X134396137Y-76207826D01*
X134350261Y-76229218D01*
X134343811Y-76229500D01*
X134304500Y-76229500D01*
X134256934Y-76212187D01*
X134231624Y-76168350D01*
X134230500Y-76155500D01*
X134230500Y-75901806D01*
X134247813Y-75854240D01*
X134291650Y-75828930D01*
X134296587Y-75828230D01*
X134332114Y-75824412D01*
X134460226Y-75776628D01*
X134486153Y-75757218D01*
X134534607Y-75742573D01*
X134581139Y-75762499D01*
G37*
G04 #@! TD.AperFunction*
G04 #@! TA.AperFunction,NonConductor*
G36*
X130676500Y-75752373D02*
G01*
X130683842Y-75757216D01*
X130709774Y-75776628D01*
X130709773Y-75776628D01*
X130757557Y-75794450D01*
X130837886Y-75824412D01*
X130873410Y-75828231D01*
X130918853Y-75850529D01*
X130939332Y-75896821D01*
X130939500Y-75901807D01*
X130939500Y-76155500D01*
X130922187Y-76203066D01*
X130878350Y-76228376D01*
X130865500Y-76229500D01*
X130826190Y-76229500D01*
X130778624Y-76212187D01*
X130773864Y-76207826D01*
X130587174Y-76021136D01*
X130565782Y-75975260D01*
X130565500Y-75968810D01*
X130565500Y-75816459D01*
X130582813Y-75768893D01*
X130626650Y-75743583D01*
X130676500Y-75752373D01*
G37*
G04 #@! TD.AperFunction*
G04 #@! TA.AperFunction,NonConductor*
G36*
X130676500Y-64611058D02*
G01*
X130708834Y-64649284D01*
X130760630Y-64788157D01*
X130897772Y-65039313D01*
X130917943Y-65066258D01*
X131069261Y-65268395D01*
X131271605Y-65470739D01*
X131443415Y-65599354D01*
X131500686Y-65642227D01*
X131751843Y-65779369D01*
X132019939Y-65879364D01*
X132019945Y-65879365D01*
X132019954Y-65879369D01*
X132299572Y-65940196D01*
X132513539Y-65955499D01*
X132513544Y-65955500D01*
X132513552Y-65955500D01*
X132656456Y-65955500D01*
X132656459Y-65955499D01*
X132870428Y-65940196D01*
X133150046Y-65879369D01*
X133150057Y-65879364D01*
X133150060Y-65879364D01*
X133418156Y-65779369D01*
X133418156Y-65779368D01*
X133418161Y-65779367D01*
X133669315Y-65642226D01*
X133898395Y-65470739D01*
X134100739Y-65268395D01*
X134272226Y-65039315D01*
X134409367Y-64788161D01*
X134409367Y-64788159D01*
X134409369Y-64788157D01*
X134461166Y-64649284D01*
X134494009Y-64610767D01*
X134543928Y-64602372D01*
X134587563Y-64628029D01*
X134604500Y-64675144D01*
X134604500Y-67105277D01*
X134587187Y-67152843D01*
X134579571Y-67160667D01*
X134486406Y-67243204D01*
X134396668Y-67373212D01*
X134396667Y-67373212D01*
X134340653Y-67520911D01*
X134340650Y-67520925D01*
X134321611Y-67677730D01*
X134321611Y-67677737D01*
X134340650Y-67834542D01*
X134340653Y-67834556D01*
X134396667Y-67982255D01*
X134409437Y-68000755D01*
X134486405Y-68112263D01*
X134486407Y-68112265D01*
X134486407Y-68112266D01*
X134579570Y-68194799D01*
X134603694Y-68239299D01*
X134604500Y-68250189D01*
X134604500Y-68779666D01*
X134587187Y-68827232D01*
X134543350Y-68852542D01*
X134493500Y-68843752D01*
X134483555Y-68836869D01*
X134441450Y-68802315D01*
X134258956Y-68704769D01*
X134258955Y-68704768D01*
X134258954Y-68704768D01*
X134147158Y-68670855D01*
X134060935Y-68644700D01*
X133855000Y-68624417D01*
X133649064Y-68644700D01*
X133451043Y-68704769D01*
X133268549Y-68802315D01*
X133108590Y-68933589D01*
X133108589Y-68933590D01*
X132977315Y-69093549D01*
X132879769Y-69276043D01*
X132819700Y-69474064D01*
X132799417Y-69680000D01*
X132803507Y-69721531D01*
X132819700Y-69885934D01*
X132868264Y-70046031D01*
X132879769Y-70083956D01*
X132977315Y-70266450D01*
X133052594Y-70358179D01*
X133108590Y-70426410D01*
X133268550Y-70557685D01*
X133440383Y-70649532D01*
X133474172Y-70687223D01*
X133479500Y-70714794D01*
X133479500Y-71058193D01*
X133462187Y-71105759D01*
X133418350Y-71131069D01*
X133413410Y-71131769D01*
X133377885Y-71135588D01*
X133249774Y-71183371D01*
X133140313Y-71265313D01*
X133058371Y-71374774D01*
X133010588Y-71502884D01*
X133010588Y-71502887D01*
X133004500Y-71559513D01*
X133004500Y-72100484D01*
X133004501Y-72100485D01*
X133010588Y-72157114D01*
X133058371Y-72285225D01*
X133078972Y-72312745D01*
X133140313Y-72394687D01*
X133249774Y-72476628D01*
X133249773Y-72476628D01*
X133287368Y-72490650D01*
X133377886Y-72524412D01*
X133434515Y-72530500D01*
X134275484Y-72530499D01*
X134332114Y-72524412D01*
X134460226Y-72476628D01*
X134486153Y-72457218D01*
X134534607Y-72442573D01*
X134581139Y-72462499D01*
X134603977Y-72507673D01*
X134604500Y-72516459D01*
X134604500Y-74443540D01*
X134587187Y-74491106D01*
X134543350Y-74516416D01*
X134493500Y-74507626D01*
X134486154Y-74502781D01*
X134460225Y-74483371D01*
X134332114Y-74435588D01*
X134275486Y-74429500D01*
X133434515Y-74429500D01*
X133434514Y-74429501D01*
X133377885Y-74435588D01*
X133249774Y-74483371D01*
X133140313Y-74565313D01*
X133058371Y-74674774D01*
X133010588Y-74802884D01*
X133010588Y-74802885D01*
X133010588Y-74802886D01*
X133010392Y-74804707D01*
X133004500Y-74859513D01*
X133004500Y-75400484D01*
X133004501Y-75400485D01*
X133010588Y-75457114D01*
X133058371Y-75585225D01*
X133058372Y-75585226D01*
X133140313Y-75694687D01*
X133249774Y-75776628D01*
X133249773Y-75776628D01*
X133297557Y-75794450D01*
X133377886Y-75824412D01*
X133413410Y-75828231D01*
X133458853Y-75850529D01*
X133479332Y-75896821D01*
X133479500Y-75901807D01*
X133479500Y-76155500D01*
X133462187Y-76203066D01*
X133418350Y-76228376D01*
X133405500Y-76229500D01*
X133030326Y-76229500D01*
X132981615Y-76239189D01*
X132957259Y-76244034D01*
X132874399Y-76299398D01*
X132874398Y-76299399D01*
X132819034Y-76382259D01*
X132817728Y-76388826D01*
X132804500Y-76455326D01*
X132804500Y-78104674D01*
X132815808Y-78161524D01*
X132819034Y-78177740D01*
X132858397Y-78236653D01*
X132874399Y-78260601D01*
X132957260Y-78315966D01*
X133030326Y-78330500D01*
X134343811Y-78330500D01*
X134391377Y-78347813D01*
X134396137Y-78352174D01*
X134582826Y-78538863D01*
X134604218Y-78584739D01*
X134604500Y-78591189D01*
X134604500Y-82284855D01*
X134587187Y-82332421D01*
X134543350Y-82357731D01*
X134493500Y-82348941D01*
X134461166Y-82310715D01*
X134409369Y-82171843D01*
X134272227Y-81920686D01*
X134185079Y-81804270D01*
X134100739Y-81691605D01*
X133898395Y-81489261D01*
X133783855Y-81403517D01*
X133669313Y-81317772D01*
X133418156Y-81180630D01*
X133150060Y-81080635D01*
X133150042Y-81080630D01*
X132870425Y-81019803D01*
X132656460Y-81004500D01*
X132656448Y-81004500D01*
X132513552Y-81004500D01*
X132513539Y-81004500D01*
X132299574Y-81019803D01*
X132019957Y-81080630D01*
X132019939Y-81080635D01*
X131751843Y-81180630D01*
X131500686Y-81317772D01*
X131271602Y-81489263D01*
X131069263Y-81691602D01*
X130897772Y-81920686D01*
X130760630Y-82171843D01*
X130708834Y-82310715D01*
X130675990Y-82349232D01*
X130626072Y-82357627D01*
X130582437Y-82331970D01*
X130565500Y-82284855D01*
X130565500Y-78591188D01*
X130582813Y-78543622D01*
X130587174Y-78538862D01*
X130773863Y-78352174D01*
X130819740Y-78330782D01*
X130826189Y-78330500D01*
X132139672Y-78330500D01*
X132139674Y-78330500D01*
X132212740Y-78315966D01*
X132295601Y-78260601D01*
X132350966Y-78177740D01*
X132365500Y-78104674D01*
X132365500Y-76455326D01*
X132350966Y-76382260D01*
X132295601Y-76299399D01*
X132291765Y-76296836D01*
X132212740Y-76244034D01*
X132198422Y-76241186D01*
X132139674Y-76229500D01*
X132139672Y-76229500D01*
X131764500Y-76229500D01*
X131716934Y-76212187D01*
X131691624Y-76168350D01*
X131690500Y-76155500D01*
X131690500Y-75901806D01*
X131707813Y-75854240D01*
X131751650Y-75828930D01*
X131756587Y-75828230D01*
X131792114Y-75824412D01*
X131920226Y-75776628D01*
X132029687Y-75694687D01*
X132111628Y-75585226D01*
X132159412Y-75457114D01*
X132165500Y-75400485D01*
X132165499Y-74859516D01*
X132159412Y-74802886D01*
X132111628Y-74674774D01*
X132029687Y-74565313D01*
X131939098Y-74497499D01*
X131920225Y-74483371D01*
X131920226Y-74483371D01*
X131792114Y-74435588D01*
X131735486Y-74429500D01*
X130894515Y-74429500D01*
X130894514Y-74429501D01*
X130837885Y-74435588D01*
X130709774Y-74483371D01*
X130683846Y-74502781D01*
X130635392Y-74517426D01*
X130588860Y-74497499D01*
X130566023Y-74452324D01*
X130565500Y-74443540D01*
X130565500Y-72516459D01*
X130582813Y-72468893D01*
X130626650Y-72443583D01*
X130676500Y-72452373D01*
X130683842Y-72457216D01*
X130709774Y-72476628D01*
X130709773Y-72476628D01*
X130747368Y-72490650D01*
X130837886Y-72524412D01*
X130894515Y-72530500D01*
X131735484Y-72530499D01*
X131792114Y-72524412D01*
X131920226Y-72476628D01*
X132029687Y-72394687D01*
X132111628Y-72285226D01*
X132159412Y-72157114D01*
X132165500Y-72100485D01*
X132165499Y-71559516D01*
X132159412Y-71502886D01*
X132111628Y-71374774D01*
X132029687Y-71265313D01*
X131939098Y-71197499D01*
X131920225Y-71183371D01*
X131920226Y-71183371D01*
X131792114Y-71135588D01*
X131756588Y-71131768D01*
X131711146Y-71109469D01*
X131690668Y-71063177D01*
X131690500Y-71058192D01*
X131690500Y-70714794D01*
X131707813Y-70667228D01*
X131729615Y-70649533D01*
X131901450Y-70557685D01*
X132061410Y-70426410D01*
X132192685Y-70266450D01*
X132290232Y-70083954D01*
X132350300Y-69885934D01*
X132370583Y-69680000D01*
X132350300Y-69474066D01*
X132290232Y-69276046D01*
X132192685Y-69093550D01*
X132061410Y-68933590D01*
X131901450Y-68802315D01*
X131718954Y-68704768D01*
X131607158Y-68670855D01*
X131520935Y-68644700D01*
X131315000Y-68624417D01*
X131109064Y-68644700D01*
X130911043Y-68704769D01*
X130728549Y-68802315D01*
X130686445Y-68836869D01*
X130638692Y-68853662D01*
X130591318Y-68835831D01*
X130566488Y-68791719D01*
X130565500Y-68779666D01*
X130565500Y-68209699D01*
X130582813Y-68162133D01*
X130590429Y-68154309D01*
X130606082Y-68140442D01*
X130680483Y-68074530D01*
X130770220Y-67944523D01*
X130784296Y-67907409D01*
X130811930Y-67834542D01*
X130826237Y-67796818D01*
X130840696Y-67677737D01*
X130845278Y-67640003D01*
X130845278Y-67639996D01*
X130826238Y-67483191D01*
X130826237Y-67483182D01*
X130798730Y-67410652D01*
X130770221Y-67335478D01*
X130745387Y-67299500D01*
X130680483Y-67205470D01*
X130630878Y-67161524D01*
X130590429Y-67125689D01*
X130566305Y-67081188D01*
X130565500Y-67070299D01*
X130565500Y-64675144D01*
X130582813Y-64627578D01*
X130626650Y-64602268D01*
X130676500Y-64611058D01*
G37*
G04 #@! TD.AperFunction*
G04 #@! TA.AperFunction,NonConductor*
G36*
X134578682Y-89574168D02*
G01*
X134603512Y-89618279D01*
X134604500Y-89630333D01*
X134604500Y-90193540D01*
X134587187Y-90241106D01*
X134543350Y-90266416D01*
X134493500Y-90257626D01*
X134486154Y-90252781D01*
X134460225Y-90233371D01*
X134332114Y-90185588D01*
X134296588Y-90181768D01*
X134251146Y-90159469D01*
X134230668Y-90113177D01*
X134230500Y-90108192D01*
X134230500Y-89764794D01*
X134247813Y-89717228D01*
X134269615Y-89699533D01*
X134441450Y-89607685D01*
X134483556Y-89573129D01*
X134531307Y-89556337D01*
X134578682Y-89574168D01*
G37*
G04 #@! TD.AperFunction*
G04 #@! TA.AperFunction,NonConductor*
G36*
X130676500Y-89566247D02*
G01*
X130686440Y-89573127D01*
X130728550Y-89607685D01*
X130900383Y-89699532D01*
X130934172Y-89737223D01*
X130939500Y-89764794D01*
X130939500Y-90108193D01*
X130922187Y-90155759D01*
X130878350Y-90181069D01*
X130873410Y-90181769D01*
X130837885Y-90185588D01*
X130709774Y-90233371D01*
X130683846Y-90252781D01*
X130635392Y-90267426D01*
X130588860Y-90247499D01*
X130566023Y-90202324D01*
X130565500Y-90193540D01*
X130565500Y-89630333D01*
X130582813Y-89582767D01*
X130626650Y-89557457D01*
X130676500Y-89566247D01*
G37*
G04 #@! TD.AperFunction*
G04 #@! TA.AperFunction,NonConductor*
G36*
X134581139Y-94812499D02*
G01*
X134603977Y-94857673D01*
X134604500Y-94866459D01*
X134604500Y-95018810D01*
X134587187Y-95066376D01*
X134582826Y-95071136D01*
X134396137Y-95257826D01*
X134350261Y-95279218D01*
X134343811Y-95279500D01*
X134304500Y-95279500D01*
X134256934Y-95262187D01*
X134231624Y-95218350D01*
X134230500Y-95205500D01*
X134230500Y-94951806D01*
X134247813Y-94904240D01*
X134291650Y-94878930D01*
X134296587Y-94878230D01*
X134332114Y-94874412D01*
X134460226Y-94826628D01*
X134486153Y-94807218D01*
X134534607Y-94792573D01*
X134581139Y-94812499D01*
G37*
G04 #@! TD.AperFunction*
G04 #@! TA.AperFunction,NonConductor*
G36*
X130676500Y-94802373D02*
G01*
X130683842Y-94807216D01*
X130709774Y-94826628D01*
X130709773Y-94826628D01*
X130757556Y-94844450D01*
X130837886Y-94874412D01*
X130873410Y-94878231D01*
X130918853Y-94900529D01*
X130939332Y-94946821D01*
X130939500Y-94951807D01*
X130939500Y-95205500D01*
X130922187Y-95253066D01*
X130878350Y-95278376D01*
X130865500Y-95279500D01*
X130826190Y-95279500D01*
X130778624Y-95262187D01*
X130773864Y-95257826D01*
X130587174Y-95071136D01*
X130565782Y-95025260D01*
X130565500Y-95018810D01*
X130565500Y-94866459D01*
X130582813Y-94818893D01*
X130626650Y-94793583D01*
X130676500Y-94802373D01*
G37*
G04 #@! TD.AperFunction*
M02*
