G04 #@! TF.GenerationSoftware,KiCad,Pcbnew,7.0.5*
G04 #@! TF.CreationDate,2023-08-03T23:08:54+08:00*
G04 #@! TF.ProjectId,RA,52412e6b-6963-4616-945f-706362585858,rev?*
G04 #@! TF.SameCoordinates,Original*
G04 #@! TF.FileFunction,Legend,Bot*
G04 #@! TF.FilePolarity,Positive*
%FSLAX46Y46*%
G04 Gerber Fmt 4.6, Leading zero omitted, Abs format (unit mm)*
G04 Created by KiCad (PCBNEW 7.0.5) date 2023-08-03 23:08:54*
%MOMM*%
%LPD*%
G01*
G04 APERTURE LIST*
G04 Aperture macros list*
%AMRoundRect*
0 Rectangle with rounded corners*
0 $1 Rounding radius*
0 $2 $3 $4 $5 $6 $7 $8 $9 X,Y pos of 4 corners*
0 Add a 4 corners polygon primitive as box body*
4,1,4,$2,$3,$4,$5,$6,$7,$8,$9,$2,$3,0*
0 Add four circle primitives for the rounded corners*
1,1,$1+$1,$2,$3*
1,1,$1+$1,$4,$5*
1,1,$1+$1,$6,$7*
1,1,$1+$1,$8,$9*
0 Add four rect primitives between the rounded corners*
20,1,$1+$1,$2,$3,$4,$5,0*
20,1,$1+$1,$4,$5,$6,$7,0*
20,1,$1+$1,$6,$7,$8,$9,0*
20,1,$1+$1,$8,$9,$2,$3,0*%
%AMHorizOval*
0 Thick line with rounded ends*
0 $1 width*
0 $2 $3 position (X,Y) of the first rounded end (center of the circle)*
0 $4 $5 position (X,Y) of the second rounded end (center of the circle)*
0 Add line between two ends*
20,1,$1,$2,$3,$4,$5,0*
0 Add two circle primitives to create the rounded ends*
1,1,$1,$2,$3*
1,1,$1,$4,$5*%
%AMOutline4P*
0 Free polygon, 4 corners , with rotation*
0 The origin of the aperture is its center*
0 number of corners: always 4*
0 $1 to $8 corner X, Y*
0 $9 Rotation angle, in degrees counterclockwise*
0 create outline with 4 corners*
4,1,4,$1,$2,$3,$4,$5,$6,$7,$8,$1,$2,$9*%
G04 Aperture macros list end*
%ADD10C,0.150000*%
%ADD11C,0.120000*%
%ADD12C,0.100000*%
%ADD13O,2.200000X1.900000*%
%ADD14C,5.100000*%
%ADD15HorizOval,2.400000X-0.305164X0.457575X0.305164X-0.457575X0*%
%ADD16C,2.400000*%
%ADD17Outline4P,-1.150000X-1.200000X1.150000X-1.200000X1.150000X1.200000X-1.150000X1.200000X0.000000*%
%ADD18Outline4P,-1.200000X-1.200000X1.200000X-1.200000X1.200000X1.200000X-1.200000X1.200000X0.000000*%
%ADD19C,3.500000*%
%ADD20C,1.700000*%
%ADD21O,1.700000X1.700000*%
%ADD22RoundRect,0.425000X-0.425000X-0.425000X0.425000X-0.425000X0.425000X0.425000X-0.425000X0.425000X0*%
%ADD23RoundRect,0.225000X-0.225000X-0.375000X0.225000X-0.375000X0.225000X0.375000X-0.225000X0.375000X0*%
G04 APERTURE END LIST*
D10*
X150299047Y-46594819D02*
X150632380Y-46118628D01*
X150870475Y-46594819D02*
X150870475Y-45594819D01*
X150870475Y-45594819D02*
X150489523Y-45594819D01*
X150489523Y-45594819D02*
X150394285Y-45642438D01*
X150394285Y-45642438D02*
X150346666Y-45690057D01*
X150346666Y-45690057D02*
X150299047Y-45785295D01*
X150299047Y-45785295D02*
X150299047Y-45928152D01*
X150299047Y-45928152D02*
X150346666Y-46023390D01*
X150346666Y-46023390D02*
X150394285Y-46071009D01*
X150394285Y-46071009D02*
X150489523Y-46118628D01*
X150489523Y-46118628D02*
X150870475Y-46118628D01*
X149918094Y-46309104D02*
X149441904Y-46309104D01*
X150013332Y-46594819D02*
X149679999Y-45594819D01*
X149679999Y-45594819D02*
X149346666Y-46594819D01*
X121901428Y-69352295D02*
X121901428Y-68552295D01*
X121901428Y-68552295D02*
X121710952Y-68552295D01*
X121710952Y-68552295D02*
X121596666Y-68590390D01*
X121596666Y-68590390D02*
X121520476Y-68666580D01*
X121520476Y-68666580D02*
X121482381Y-68742771D01*
X121482381Y-68742771D02*
X121444285Y-68895152D01*
X121444285Y-68895152D02*
X121444285Y-69009438D01*
X121444285Y-69009438D02*
X121482381Y-69161819D01*
X121482381Y-69161819D02*
X121520476Y-69238009D01*
X121520476Y-69238009D02*
X121596666Y-69314200D01*
X121596666Y-69314200D02*
X121710952Y-69352295D01*
X121710952Y-69352295D02*
X121901428Y-69352295D01*
X121139524Y-68628485D02*
X121101428Y-68590390D01*
X121101428Y-68590390D02*
X121025238Y-68552295D01*
X121025238Y-68552295D02*
X120834762Y-68552295D01*
X120834762Y-68552295D02*
X120758571Y-68590390D01*
X120758571Y-68590390D02*
X120720476Y-68628485D01*
X120720476Y-68628485D02*
X120682381Y-68704676D01*
X120682381Y-68704676D02*
X120682381Y-68780866D01*
X120682381Y-68780866D02*
X120720476Y-68895152D01*
X120720476Y-68895152D02*
X121177619Y-69352295D01*
X121177619Y-69352295D02*
X120682381Y-69352295D01*
X119920476Y-69352295D02*
X120377619Y-69352295D01*
X120149047Y-69352295D02*
X120149047Y-68552295D01*
X120149047Y-68552295D02*
X120225238Y-68666580D01*
X120225238Y-68666580D02*
X120301428Y-68742771D01*
X120301428Y-68742771D02*
X120377619Y-68780866D01*
X140951428Y-88402295D02*
X140951428Y-87602295D01*
X140951428Y-87602295D02*
X140760952Y-87602295D01*
X140760952Y-87602295D02*
X140646666Y-87640390D01*
X140646666Y-87640390D02*
X140570476Y-87716580D01*
X140570476Y-87716580D02*
X140532381Y-87792771D01*
X140532381Y-87792771D02*
X140494285Y-87945152D01*
X140494285Y-87945152D02*
X140494285Y-88059438D01*
X140494285Y-88059438D02*
X140532381Y-88211819D01*
X140532381Y-88211819D02*
X140570476Y-88288009D01*
X140570476Y-88288009D02*
X140646666Y-88364200D01*
X140646666Y-88364200D02*
X140760952Y-88402295D01*
X140760952Y-88402295D02*
X140951428Y-88402295D01*
X140227619Y-87602295D02*
X139732381Y-87602295D01*
X139732381Y-87602295D02*
X139999047Y-87907057D01*
X139999047Y-87907057D02*
X139884762Y-87907057D01*
X139884762Y-87907057D02*
X139808571Y-87945152D01*
X139808571Y-87945152D02*
X139770476Y-87983247D01*
X139770476Y-87983247D02*
X139732381Y-88059438D01*
X139732381Y-88059438D02*
X139732381Y-88249914D01*
X139732381Y-88249914D02*
X139770476Y-88326104D01*
X139770476Y-88326104D02*
X139808571Y-88364200D01*
X139808571Y-88364200D02*
X139884762Y-88402295D01*
X139884762Y-88402295D02*
X140113333Y-88402295D01*
X140113333Y-88402295D02*
X140189524Y-88364200D01*
X140189524Y-88364200D02*
X140227619Y-88326104D01*
X139046666Y-87868961D02*
X139046666Y-88402295D01*
X139237142Y-87564200D02*
X139427619Y-88135628D01*
X139427619Y-88135628D02*
X138932380Y-88135628D01*
X121901428Y-88402295D02*
X121901428Y-87602295D01*
X121901428Y-87602295D02*
X121710952Y-87602295D01*
X121710952Y-87602295D02*
X121596666Y-87640390D01*
X121596666Y-87640390D02*
X121520476Y-87716580D01*
X121520476Y-87716580D02*
X121482381Y-87792771D01*
X121482381Y-87792771D02*
X121444285Y-87945152D01*
X121444285Y-87945152D02*
X121444285Y-88059438D01*
X121444285Y-88059438D02*
X121482381Y-88211819D01*
X121482381Y-88211819D02*
X121520476Y-88288009D01*
X121520476Y-88288009D02*
X121596666Y-88364200D01*
X121596666Y-88364200D02*
X121710952Y-88402295D01*
X121710952Y-88402295D02*
X121901428Y-88402295D01*
X121177619Y-87602295D02*
X120682381Y-87602295D01*
X120682381Y-87602295D02*
X120949047Y-87907057D01*
X120949047Y-87907057D02*
X120834762Y-87907057D01*
X120834762Y-87907057D02*
X120758571Y-87945152D01*
X120758571Y-87945152D02*
X120720476Y-87983247D01*
X120720476Y-87983247D02*
X120682381Y-88059438D01*
X120682381Y-88059438D02*
X120682381Y-88249914D01*
X120682381Y-88249914D02*
X120720476Y-88326104D01*
X120720476Y-88326104D02*
X120758571Y-88364200D01*
X120758571Y-88364200D02*
X120834762Y-88402295D01*
X120834762Y-88402295D02*
X121063333Y-88402295D01*
X121063333Y-88402295D02*
X121139524Y-88364200D01*
X121139524Y-88364200D02*
X121177619Y-88326104D01*
X120415714Y-87602295D02*
X119920476Y-87602295D01*
X119920476Y-87602295D02*
X120187142Y-87907057D01*
X120187142Y-87907057D02*
X120072857Y-87907057D01*
X120072857Y-87907057D02*
X119996666Y-87945152D01*
X119996666Y-87945152D02*
X119958571Y-87983247D01*
X119958571Y-87983247D02*
X119920476Y-88059438D01*
X119920476Y-88059438D02*
X119920476Y-88249914D01*
X119920476Y-88249914D02*
X119958571Y-88326104D01*
X119958571Y-88326104D02*
X119996666Y-88364200D01*
X119996666Y-88364200D02*
X120072857Y-88402295D01*
X120072857Y-88402295D02*
X120301428Y-88402295D01*
X120301428Y-88402295D02*
X120377619Y-88364200D01*
X120377619Y-88364200D02*
X120415714Y-88326104D01*
X121520475Y-50302295D02*
X121520475Y-49502295D01*
X121520475Y-49502295D02*
X121329999Y-49502295D01*
X121329999Y-49502295D02*
X121215713Y-49540390D01*
X121215713Y-49540390D02*
X121139523Y-49616580D01*
X121139523Y-49616580D02*
X121101428Y-49692771D01*
X121101428Y-49692771D02*
X121063332Y-49845152D01*
X121063332Y-49845152D02*
X121063332Y-49959438D01*
X121063332Y-49959438D02*
X121101428Y-50111819D01*
X121101428Y-50111819D02*
X121139523Y-50188009D01*
X121139523Y-50188009D02*
X121215713Y-50264200D01*
X121215713Y-50264200D02*
X121329999Y-50302295D01*
X121329999Y-50302295D02*
X121520475Y-50302295D01*
X120682380Y-50302295D02*
X120529999Y-50302295D01*
X120529999Y-50302295D02*
X120453809Y-50264200D01*
X120453809Y-50264200D02*
X120415713Y-50226104D01*
X120415713Y-50226104D02*
X120339523Y-50111819D01*
X120339523Y-50111819D02*
X120301428Y-49959438D01*
X120301428Y-49959438D02*
X120301428Y-49654676D01*
X120301428Y-49654676D02*
X120339523Y-49578485D01*
X120339523Y-49578485D02*
X120377618Y-49540390D01*
X120377618Y-49540390D02*
X120453809Y-49502295D01*
X120453809Y-49502295D02*
X120606190Y-49502295D01*
X120606190Y-49502295D02*
X120682380Y-49540390D01*
X120682380Y-49540390D02*
X120720475Y-49578485D01*
X120720475Y-49578485D02*
X120758571Y-49654676D01*
X120758571Y-49654676D02*
X120758571Y-49845152D01*
X120758571Y-49845152D02*
X120720475Y-49921342D01*
X120720475Y-49921342D02*
X120682380Y-49959438D01*
X120682380Y-49959438D02*
X120606190Y-49997533D01*
X120606190Y-49997533D02*
X120453809Y-49997533D01*
X120453809Y-49997533D02*
X120377618Y-49959438D01*
X120377618Y-49959438D02*
X120339523Y-49921342D01*
X120339523Y-49921342D02*
X120301428Y-49845152D01*
X140951428Y-69352295D02*
X140951428Y-68552295D01*
X140951428Y-68552295D02*
X140760952Y-68552295D01*
X140760952Y-68552295D02*
X140646666Y-68590390D01*
X140646666Y-68590390D02*
X140570476Y-68666580D01*
X140570476Y-68666580D02*
X140532381Y-68742771D01*
X140532381Y-68742771D02*
X140494285Y-68895152D01*
X140494285Y-68895152D02*
X140494285Y-69009438D01*
X140494285Y-69009438D02*
X140532381Y-69161819D01*
X140532381Y-69161819D02*
X140570476Y-69238009D01*
X140570476Y-69238009D02*
X140646666Y-69314200D01*
X140646666Y-69314200D02*
X140760952Y-69352295D01*
X140760952Y-69352295D02*
X140951428Y-69352295D01*
X140189524Y-68628485D02*
X140151428Y-68590390D01*
X140151428Y-68590390D02*
X140075238Y-68552295D01*
X140075238Y-68552295D02*
X139884762Y-68552295D01*
X139884762Y-68552295D02*
X139808571Y-68590390D01*
X139808571Y-68590390D02*
X139770476Y-68628485D01*
X139770476Y-68628485D02*
X139732381Y-68704676D01*
X139732381Y-68704676D02*
X139732381Y-68780866D01*
X139732381Y-68780866D02*
X139770476Y-68895152D01*
X139770476Y-68895152D02*
X140227619Y-69352295D01*
X140227619Y-69352295D02*
X139732381Y-69352295D01*
X139427619Y-68628485D02*
X139389523Y-68590390D01*
X139389523Y-68590390D02*
X139313333Y-68552295D01*
X139313333Y-68552295D02*
X139122857Y-68552295D01*
X139122857Y-68552295D02*
X139046666Y-68590390D01*
X139046666Y-68590390D02*
X139008571Y-68628485D01*
X139008571Y-68628485D02*
X138970476Y-68704676D01*
X138970476Y-68704676D02*
X138970476Y-68780866D01*
X138970476Y-68780866D02*
X139008571Y-68895152D01*
X139008571Y-68895152D02*
X139465714Y-69352295D01*
X139465714Y-69352295D02*
X138970476Y-69352295D01*
X140951428Y-50302295D02*
X140951428Y-49502295D01*
X140951428Y-49502295D02*
X140760952Y-49502295D01*
X140760952Y-49502295D02*
X140646666Y-49540390D01*
X140646666Y-49540390D02*
X140570476Y-49616580D01*
X140570476Y-49616580D02*
X140532381Y-49692771D01*
X140532381Y-49692771D02*
X140494285Y-49845152D01*
X140494285Y-49845152D02*
X140494285Y-49959438D01*
X140494285Y-49959438D02*
X140532381Y-50111819D01*
X140532381Y-50111819D02*
X140570476Y-50188009D01*
X140570476Y-50188009D02*
X140646666Y-50264200D01*
X140646666Y-50264200D02*
X140760952Y-50302295D01*
X140760952Y-50302295D02*
X140951428Y-50302295D01*
X139732381Y-50302295D02*
X140189524Y-50302295D01*
X139960952Y-50302295D02*
X139960952Y-49502295D01*
X139960952Y-49502295D02*
X140037143Y-49616580D01*
X140037143Y-49616580D02*
X140113333Y-49692771D01*
X140113333Y-49692771D02*
X140189524Y-49730866D01*
X139237142Y-49502295D02*
X139160952Y-49502295D01*
X139160952Y-49502295D02*
X139084761Y-49540390D01*
X139084761Y-49540390D02*
X139046666Y-49578485D01*
X139046666Y-49578485D02*
X139008571Y-49654676D01*
X139008571Y-49654676D02*
X138970476Y-49807057D01*
X138970476Y-49807057D02*
X138970476Y-49997533D01*
X138970476Y-49997533D02*
X139008571Y-50149914D01*
X139008571Y-50149914D02*
X139046666Y-50226104D01*
X139046666Y-50226104D02*
X139084761Y-50264200D01*
X139084761Y-50264200D02*
X139160952Y-50302295D01*
X139160952Y-50302295D02*
X139237142Y-50302295D01*
X139237142Y-50302295D02*
X139313333Y-50264200D01*
X139313333Y-50264200D02*
X139351428Y-50226104D01*
X139351428Y-50226104D02*
X139389523Y-50149914D01*
X139389523Y-50149914D02*
X139427619Y-49997533D01*
X139427619Y-49997533D02*
X139427619Y-49807057D01*
X139427619Y-49807057D02*
X139389523Y-49654676D01*
X139389523Y-49654676D02*
X139351428Y-49578485D01*
X139351428Y-49578485D02*
X139313333Y-49540390D01*
X139313333Y-49540390D02*
X139237142Y-49502295D01*
D11*
X118570000Y-65990000D02*
X122580000Y-65990000D01*
X118570000Y-67990000D02*
X118570000Y-65990000D01*
X118570000Y-67990000D02*
X122580000Y-67990000D01*
D12*
X120174400Y-66990000D02*
X120574400Y-66990000D01*
X120574400Y-66990000D02*
X120574400Y-66440000D01*
X120574400Y-66990000D02*
X120574400Y-67540000D01*
X120574400Y-66990000D02*
X121174400Y-67390000D01*
X121174400Y-66590000D02*
X120574400Y-66990000D01*
X121174400Y-66990000D02*
X121674400Y-66990000D01*
X121174400Y-67390000D02*
X121174400Y-66590000D01*
D11*
X137620000Y-85040000D02*
X141630000Y-85040000D01*
X137620000Y-87040000D02*
X137620000Y-85040000D01*
X137620000Y-87040000D02*
X141630000Y-87040000D01*
D12*
X139224400Y-86040000D02*
X139624400Y-86040000D01*
X139624400Y-86040000D02*
X139624400Y-85490000D01*
X139624400Y-86040000D02*
X139624400Y-86590000D01*
X139624400Y-86040000D02*
X140224400Y-86440000D01*
X140224400Y-85640000D02*
X139624400Y-86040000D01*
X140224400Y-86040000D02*
X140724400Y-86040000D01*
X140224400Y-86440000D02*
X140224400Y-85640000D01*
D11*
X118570000Y-85040000D02*
X122580000Y-85040000D01*
X118570000Y-87040000D02*
X118570000Y-85040000D01*
X118570000Y-87040000D02*
X122580000Y-87040000D01*
D12*
X120174400Y-86040000D02*
X120574400Y-86040000D01*
X120574400Y-86040000D02*
X120574400Y-85490000D01*
X120574400Y-86040000D02*
X120574400Y-86590000D01*
X120574400Y-86040000D02*
X121174400Y-86440000D01*
X121174400Y-85640000D02*
X120574400Y-86040000D01*
X121174400Y-86040000D02*
X121674400Y-86040000D01*
X121174400Y-86440000D02*
X121174400Y-85640000D01*
D11*
X118570000Y-46940000D02*
X122580000Y-46940000D01*
X118570000Y-48940000D02*
X118570000Y-46940000D01*
X118570000Y-48940000D02*
X122580000Y-48940000D01*
D12*
X120174400Y-47940000D02*
X120574400Y-47940000D01*
X120574400Y-47940000D02*
X120574400Y-47390000D01*
X120574400Y-47940000D02*
X120574400Y-48490000D01*
X120574400Y-47940000D02*
X121174400Y-48340000D01*
X121174400Y-47540000D02*
X120574400Y-47940000D01*
X121174400Y-47940000D02*
X121674400Y-47940000D01*
X121174400Y-48340000D02*
X121174400Y-47540000D01*
D11*
X137620000Y-65990000D02*
X141630000Y-65990000D01*
X137620000Y-67990000D02*
X137620000Y-65990000D01*
X137620000Y-67990000D02*
X141630000Y-67990000D01*
D12*
X139224400Y-66990000D02*
X139624400Y-66990000D01*
X139624400Y-66990000D02*
X139624400Y-66440000D01*
X139624400Y-66990000D02*
X139624400Y-67540000D01*
X139624400Y-66990000D02*
X140224400Y-67390000D01*
X140224400Y-66590000D02*
X139624400Y-66990000D01*
X140224400Y-66990000D02*
X140724400Y-66990000D01*
X140224400Y-67390000D02*
X140224400Y-66590000D01*
D11*
X137620000Y-46940000D02*
X141630000Y-46940000D01*
X137620000Y-48940000D02*
X137620000Y-46940000D01*
X137620000Y-48940000D02*
X141630000Y-48940000D01*
D12*
X139224400Y-47940000D02*
X139624400Y-47940000D01*
X139624400Y-47940000D02*
X139624400Y-47390000D01*
X139624400Y-47940000D02*
X139624400Y-48490000D01*
X139624400Y-47940000D02*
X140224400Y-48340000D01*
X140224400Y-47540000D02*
X139624400Y-47940000D01*
X140224400Y-47940000D02*
X140724400Y-47940000D01*
X140224400Y-48340000D02*
X140224400Y-47540000D01*
%LPC*%
D13*
X136810000Y-54430000D03*
D14*
X142110000Y-54430000D03*
D13*
X147410000Y-54430000D03*
D15*
X137410000Y-58680000D03*
D16*
X138300000Y-51890000D03*
X142110000Y-60330000D03*
D17*
X143410000Y-60330000D03*
D16*
X144650000Y-49330000D03*
X144710000Y-60330000D03*
D18*
X145880000Y-49330000D03*
D16*
X147110000Y-49330000D03*
D13*
X117760000Y-54430000D03*
D14*
X123060000Y-54430000D03*
D13*
X128360000Y-54430000D03*
D15*
X118360000Y-58680000D03*
D16*
X119250000Y-51890000D03*
X123060000Y-60330000D03*
D17*
X124360000Y-60330000D03*
D16*
X125600000Y-49330000D03*
X125660000Y-60330000D03*
D18*
X126830000Y-49330000D03*
D16*
X128060000Y-49330000D03*
D19*
X132585000Y-83005000D03*
X132585000Y-63955000D03*
D20*
X114900000Y-65860000D03*
D21*
X114900000Y-68400000D03*
X114900000Y-70940000D03*
X114900000Y-73480000D03*
D22*
X114900000Y-76020000D03*
X114900000Y-78560000D03*
X114900000Y-81100000D03*
D13*
X117760000Y-92530000D03*
D14*
X123060000Y-92530000D03*
D13*
X128360000Y-92530000D03*
D15*
X118360000Y-96780000D03*
D16*
X119250000Y-89990000D03*
X123060000Y-98430000D03*
D17*
X124360000Y-98430000D03*
D16*
X125600000Y-87430000D03*
X125660000Y-98430000D03*
D18*
X126830000Y-87430000D03*
D16*
X128060000Y-87430000D03*
D13*
X136810000Y-73480000D03*
D14*
X142110000Y-73480000D03*
D13*
X147410000Y-73480000D03*
D15*
X137410000Y-77730000D03*
D16*
X138300000Y-70940000D03*
X142110000Y-79380000D03*
D17*
X143410000Y-79380000D03*
D16*
X144650000Y-68380000D03*
X144710000Y-79380000D03*
D18*
X145880000Y-68380000D03*
D16*
X147110000Y-68380000D03*
D13*
X136810000Y-92530000D03*
D14*
X142110000Y-92530000D03*
D13*
X147410000Y-92530000D03*
D15*
X137410000Y-96780000D03*
D16*
X138300000Y-89990000D03*
X142110000Y-98430000D03*
D17*
X143410000Y-98430000D03*
D16*
X144650000Y-87430000D03*
X144710000Y-98430000D03*
D18*
X145880000Y-87430000D03*
D16*
X147110000Y-87430000D03*
D13*
X117760000Y-73480000D03*
D14*
X123060000Y-73480000D03*
D13*
X128360000Y-73480000D03*
D15*
X118360000Y-77730000D03*
D16*
X119250000Y-70940000D03*
X123060000Y-79380000D03*
D17*
X124360000Y-79380000D03*
D16*
X125600000Y-68380000D03*
X125660000Y-79380000D03*
D18*
X126830000Y-68380000D03*
D16*
X128060000Y-68380000D03*
D20*
X150230000Y-68400000D03*
D21*
X150230000Y-70940000D03*
D22*
X150230000Y-73480000D03*
X150230000Y-76020000D03*
X150230000Y-78560000D03*
D23*
X119280000Y-66990000D03*
X122580000Y-66990000D03*
X138330000Y-86040000D03*
X141630000Y-86040000D03*
X119280000Y-86040000D03*
X122580000Y-86040000D03*
X119280000Y-47940000D03*
X122580000Y-47940000D03*
X138330000Y-66990000D03*
X141630000Y-66990000D03*
X138330000Y-47940000D03*
X141630000Y-47940000D03*
%LPD*%
M02*
