G04 #@! TF.GenerationSoftware,KiCad,Pcbnew,7.0.5*
G04 #@! TF.CreationDate,2023-08-16T13:59:19+08:00*
G04 #@! TF.ProjectId,RA,52412e6b-6963-4616-945f-706362585858,rev?*
G04 #@! TF.SameCoordinates,Original*
G04 #@! TF.FileFunction,Copper,L1,Top*
G04 #@! TF.FilePolarity,Positive*
%FSLAX46Y46*%
G04 Gerber Fmt 4.6, Leading zero omitted, Abs format (unit mm)*
G04 Created by KiCad (PCBNEW 7.0.5) date 2023-08-16 13:59:19*
%MOMM*%
%LPD*%
G01*
G04 APERTURE LIST*
G04 Aperture macros list*
%AMRoundRect*
0 Rectangle with rounded corners*
0 $1 Rounding radius*
0 $2 $3 $4 $5 $6 $7 $8 $9 X,Y pos of 4 corners*
0 Add a 4 corners polygon primitive as box body*
4,1,4,$2,$3,$4,$5,$6,$7,$8,$9,$2,$3,0*
0 Add four circle primitives for the rounded corners*
1,1,$1+$1,$2,$3*
1,1,$1+$1,$4,$5*
1,1,$1+$1,$6,$7*
1,1,$1+$1,$8,$9*
0 Add four rect primitives between the rounded corners*
20,1,$1+$1,$2,$3,$4,$5,0*
20,1,$1+$1,$4,$5,$6,$7,0*
20,1,$1+$1,$6,$7,$8,$9,0*
20,1,$1+$1,$8,$9,$2,$3,0*%
%AMHorizOval*
0 Thick line with rounded ends*
0 $1 width*
0 $2 $3 position (X,Y) of the first rounded end (center of the circle)*
0 $4 $5 position (X,Y) of the second rounded end (center of the circle)*
0 Add line between two ends*
20,1,$1,$2,$3,$4,$5,0*
0 Add two circle primitives to create the rounded ends*
1,1,$1,$2,$3*
1,1,$1,$4,$5*%
%AMOutline4P*
0 Free polygon, 4 corners , with rotation*
0 The origin of the aperture is its center*
0 number of corners: always 4*
0 $1 to $8 corner X, Y*
0 $9 Rotation angle, in degrees counterclockwise*
0 create outline with 4 corners*
4,1,4,$1,$2,$3,$4,$5,$6,$7,$8,$1,$2,$9*%
G04 Aperture macros list end*
G04 #@! TA.AperFunction,ComponentPad*
%ADD10HorizOval,2.400000X-0.305164X0.457575X0.305164X-0.457575X0*%
G04 #@! TD*
G04 #@! TA.AperFunction,ComponentPad*
%ADD11C,2.400000*%
G04 #@! TD*
G04 #@! TA.AperFunction,SMDPad,CuDef*
%ADD12Outline4P,-1.300000X-1.200000X1.300000X-1.200000X1.300000X1.200000X-1.300000X1.200000X0.000000*%
G04 #@! TD*
G04 #@! TA.AperFunction,SMDPad,CuDef*
%ADD13Outline4P,-1.200000X-1.200000X1.200000X-1.200000X1.200000X1.200000X-1.200000X1.200000X0.000000*%
G04 #@! TD*
G04 #@! TA.AperFunction,ComponentPad*
%ADD14C,1.700000*%
G04 #@! TD*
G04 #@! TA.AperFunction,ComponentPad*
%ADD15O,1.700000X1.700000*%
G04 #@! TD*
G04 #@! TA.AperFunction,ComponentPad*
%ADD16RoundRect,0.425000X-0.425000X-0.425000X0.425000X-0.425000X0.425000X0.425000X-0.425000X0.425000X0*%
G04 #@! TD*
G04 #@! TA.AperFunction,ComponentPad*
%ADD17R,1.600000X1.600000*%
G04 #@! TD*
G04 #@! TA.AperFunction,ComponentPad*
%ADD18O,1.600000X1.600000*%
G04 #@! TD*
G04 #@! TA.AperFunction,ViaPad*
%ADD19C,0.800000*%
G04 #@! TD*
G04 #@! TA.AperFunction,Conductor*
%ADD20C,0.250000*%
G04 #@! TD*
G04 APERTURE END LIST*
D10*
X137410000Y-58680000D03*
D11*
X138300000Y-51890000D03*
X142110000Y-60330000D03*
D12*
X143410000Y-60330000D03*
D11*
X144650000Y-49330000D03*
X144710000Y-60330000D03*
D13*
X145880000Y-49330000D03*
D11*
X147110000Y-49330000D03*
D10*
X118360000Y-58680000D03*
D11*
X119250000Y-51890000D03*
X123060000Y-60330000D03*
D12*
X124360000Y-60330000D03*
D11*
X125600000Y-49330000D03*
X125660000Y-60330000D03*
D13*
X126830000Y-49330000D03*
D11*
X128060000Y-49330000D03*
D14*
X114900000Y-65860000D03*
D15*
X114900000Y-68400000D03*
X114900000Y-70940000D03*
X114900000Y-73480000D03*
D16*
X114900000Y-76020000D03*
X114900000Y-78560000D03*
X114900000Y-81100000D03*
D10*
X118360000Y-96780000D03*
D11*
X119250000Y-89990000D03*
X123060000Y-98430000D03*
D12*
X124360000Y-98430000D03*
D11*
X125600000Y-87430000D03*
X125660000Y-98430000D03*
D13*
X126830000Y-87430000D03*
D11*
X128060000Y-87430000D03*
D10*
X137410000Y-77730000D03*
D11*
X138300000Y-70940000D03*
X142110000Y-79380000D03*
D12*
X143410000Y-79380000D03*
D11*
X144650000Y-68380000D03*
X144710000Y-79380000D03*
D13*
X145880000Y-68380000D03*
D11*
X147110000Y-68380000D03*
D10*
X137410000Y-96780000D03*
D11*
X138300000Y-89990000D03*
X142110000Y-98430000D03*
D12*
X143410000Y-98430000D03*
D11*
X144650000Y-87430000D03*
X144710000Y-98430000D03*
D13*
X145880000Y-87430000D03*
D11*
X147110000Y-87430000D03*
D10*
X118360000Y-77730000D03*
D11*
X119250000Y-70940000D03*
X123060000Y-79380000D03*
D12*
X124360000Y-79380000D03*
D11*
X125600000Y-68380000D03*
X125660000Y-79380000D03*
D13*
X126830000Y-68380000D03*
D11*
X128060000Y-68380000D03*
D14*
X150230000Y-68400000D03*
D15*
X150230000Y-70940000D03*
D16*
X150230000Y-73480000D03*
X150230000Y-76020000D03*
X150230000Y-78560000D03*
D17*
X131315000Y-77280000D03*
D18*
X131315000Y-69680000D03*
D17*
X133855000Y-96330000D03*
D18*
X133855000Y-88730000D03*
D17*
X131315000Y-96330000D03*
D18*
X131315000Y-88730000D03*
D17*
X131315000Y-58230000D03*
D18*
X131315000Y-50630000D03*
D17*
X133855000Y-77280000D03*
D18*
X133855000Y-69680000D03*
D17*
X133855000Y-58230000D03*
D18*
X133855000Y-50630000D03*
D19*
X130190000Y-67640000D03*
X134976889Y-67677734D03*
D20*
X130015000Y-68380000D02*
X131315000Y-69680000D01*
X128060000Y-68380000D02*
X130015000Y-68380000D01*
X135155000Y-68380000D02*
X133855000Y-69680000D01*
X144650000Y-68380000D02*
X135155000Y-68380000D01*
X130015000Y-49330000D02*
X131315000Y-50630000D01*
X128060000Y-49330000D02*
X130015000Y-49330000D01*
X135155000Y-49330000D02*
X133855000Y-50630000D01*
X144650000Y-49330000D02*
X135155000Y-49330000D01*
X128060000Y-87430000D02*
X130015000Y-87430000D01*
X130015000Y-87430000D02*
X131315000Y-88730000D01*
X144650000Y-87430000D02*
X135155000Y-87430000D01*
X135155000Y-87430000D02*
X133855000Y-88730000D01*
X129105000Y-66555000D02*
X119567792Y-66555000D01*
X130190000Y-67640000D02*
X129105000Y-66555000D01*
X116170000Y-72210000D02*
X114900000Y-73480000D01*
X119567792Y-66555000D02*
X116170000Y-69952792D01*
X116170000Y-69952792D02*
X116170000Y-72210000D01*
X129680305Y-66105000D02*
X119381396Y-66105000D01*
X114900000Y-70586396D02*
X114900000Y-70940000D01*
X134976889Y-67677734D02*
X131253039Y-67677734D01*
X119381396Y-66105000D02*
X114900000Y-70586396D01*
X131253039Y-67677734D02*
X129680305Y-66105000D01*
X134215188Y-66777734D02*
X134842922Y-66150000D01*
X115555000Y-65205000D02*
X130053097Y-65205000D01*
X134842922Y-66150000D02*
X149182081Y-66150000D01*
X150230000Y-67197919D02*
X150230000Y-68400000D01*
X130053097Y-65205000D02*
X131625831Y-66777734D01*
X114900000Y-65860000D02*
X115555000Y-65205000D01*
X149182081Y-66150000D02*
X150230000Y-67197919D01*
X131625831Y-66777734D02*
X134215188Y-66777734D01*
X114900000Y-68400000D02*
X116450000Y-68400000D01*
X147940000Y-66600000D02*
X148960000Y-67620000D01*
X131439435Y-67227734D02*
X134401584Y-67227734D01*
X129866701Y-65655000D02*
X131439435Y-67227734D01*
X148960000Y-67620000D02*
X148960000Y-69670000D01*
X119195000Y-65655000D02*
X129866701Y-65655000D01*
X135029318Y-66600000D02*
X147940000Y-66600000D01*
X134401584Y-67227734D02*
X135029318Y-66600000D01*
X116450000Y-68400000D02*
X119195000Y-65655000D01*
X148960000Y-69670000D02*
X150230000Y-70940000D01*
X148960000Y-76210000D02*
X148960000Y-74750000D01*
X128428604Y-77280000D02*
X130003604Y-75705000D01*
X119153213Y-75653213D02*
X120780000Y-77280000D01*
X114900000Y-76020000D02*
X115266787Y-75653213D01*
X139770000Y-77280000D02*
X147890000Y-77280000D01*
X128615000Y-58680000D02*
X130190000Y-57105000D01*
X120780000Y-77280000D02*
X128428604Y-77280000D01*
X148960000Y-74750000D02*
X150230000Y-73480000D01*
X130003604Y-75705000D02*
X138195000Y-75705000D01*
X130190000Y-57105000D02*
X135835000Y-57105000D01*
X115266787Y-75653213D02*
X119153213Y-75653213D01*
X118360000Y-58680000D02*
X128615000Y-58680000D01*
X147890000Y-77280000D02*
X148960000Y-76210000D01*
X135835000Y-57105000D02*
X137410000Y-58680000D01*
X138195000Y-75705000D02*
X139770000Y-77280000D01*
X114900000Y-78560000D02*
X115730000Y-77730000D01*
X128615000Y-77730000D02*
X130190000Y-76155000D01*
X130190000Y-76155000D02*
X135835000Y-76155000D01*
X148520000Y-77730000D02*
X150230000Y-76020000D01*
X135835000Y-76155000D02*
X137410000Y-77730000D01*
X115730000Y-77730000D02*
X118360000Y-77730000D01*
X118360000Y-77730000D02*
X128615000Y-77730000D01*
X137410000Y-77730000D02*
X148520000Y-77730000D01*
X128615000Y-96780000D02*
X130190000Y-95205000D01*
X130190000Y-95205000D02*
X135835000Y-95205000D01*
X116810000Y-89990000D02*
X119250000Y-89990000D01*
X148610000Y-96780000D02*
X150230000Y-95160000D01*
X118360000Y-96780000D02*
X128615000Y-96780000D01*
X114900000Y-81100000D02*
X114900000Y-88080000D01*
X114900000Y-88080000D02*
X116810000Y-89990000D01*
X150230000Y-95160000D02*
X150230000Y-78560000D01*
X137410000Y-96780000D02*
X148610000Y-96780000D01*
X135835000Y-95205000D02*
X137410000Y-96780000D01*
G04 #@! TA.AperFunction,NonConductor*
G36*
X151037063Y-44905733D02*
G01*
X151056036Y-44907870D01*
X151061350Y-44908469D01*
X151145954Y-44919607D01*
X151160722Y-44923123D01*
X151200423Y-44937015D01*
X151202281Y-44937723D01*
X151261089Y-44962082D01*
X151272117Y-44967779D01*
X151289232Y-44978533D01*
X151311500Y-44992526D01*
X151314340Y-44994501D01*
X151364505Y-45032994D01*
X151368140Y-45036182D01*
X151403816Y-45071858D01*
X151407011Y-45075501D01*
X151445497Y-45125658D01*
X151447472Y-45128498D01*
X151463800Y-45154482D01*
X151472214Y-45167873D01*
X151477921Y-45178920D01*
X151502256Y-45237669D01*
X151502996Y-45239609D01*
X151516873Y-45279269D01*
X151520392Y-45294049D01*
X151531534Y-45378678D01*
X151534267Y-45402928D01*
X151534500Y-45407075D01*
X151534500Y-101552923D01*
X151534267Y-101557071D01*
X151531533Y-101581326D01*
X151520392Y-101665949D01*
X151516873Y-101680729D01*
X151502996Y-101720389D01*
X151502256Y-101722329D01*
X151477921Y-101781078D01*
X151472211Y-101792132D01*
X151447472Y-101831500D01*
X151445497Y-101834340D01*
X151407011Y-101884497D01*
X151403816Y-101888140D01*
X151368140Y-101923816D01*
X151364497Y-101927011D01*
X151314340Y-101965497D01*
X151311500Y-101967472D01*
X151272132Y-101992211D01*
X151261078Y-101997921D01*
X151202329Y-102022256D01*
X151200389Y-102022996D01*
X151160729Y-102036873D01*
X151145949Y-102040392D01*
X151061326Y-102051533D01*
X151047223Y-102053122D01*
X151037063Y-102054267D01*
X151032924Y-102054500D01*
X114137075Y-102054500D01*
X114132936Y-102054267D01*
X114112976Y-102052018D01*
X114108678Y-102051534D01*
X114024049Y-102040392D01*
X114009269Y-102036873D01*
X113969609Y-102022996D01*
X113967680Y-102022260D01*
X113908919Y-101997920D01*
X113897873Y-101992214D01*
X113884482Y-101983800D01*
X113858498Y-101967472D01*
X113855658Y-101965497D01*
X113824313Y-101941446D01*
X113805496Y-101927007D01*
X113801858Y-101923816D01*
X113766182Y-101888140D01*
X113762994Y-101884505D01*
X113724501Y-101834340D01*
X113722526Y-101831500D01*
X113713739Y-101817518D01*
X113697779Y-101792117D01*
X113692082Y-101781089D01*
X113667723Y-101722281D01*
X113667015Y-101720423D01*
X113653123Y-101680722D01*
X113649607Y-101665954D01*
X113638466Y-101581326D01*
X113635733Y-101557063D01*
X113635500Y-101552918D01*
X113635500Y-92641246D01*
X116409500Y-92641246D01*
X116450382Y-92859942D01*
X116507031Y-93006168D01*
X116530753Y-93067401D01*
X116647876Y-93256562D01*
X116797764Y-93420981D01*
X116797767Y-93420983D01*
X116975306Y-93555055D01*
X116975309Y-93555057D01*
X116975310Y-93555057D01*
X116975311Y-93555058D01*
X117174472Y-93654229D01*
X117388464Y-93715115D01*
X117554497Y-93730500D01*
X117554499Y-93730500D01*
X117965501Y-93730500D01*
X117965503Y-93730500D01*
X118131536Y-93715115D01*
X118345528Y-93654229D01*
X118544689Y-93555058D01*
X118722236Y-93420981D01*
X118872124Y-93256562D01*
X118989247Y-93067401D01*
X119069618Y-92859940D01*
X119110500Y-92641243D01*
X119110500Y-92446882D01*
X120255804Y-92446882D01*
X120265654Y-92779099D01*
X120265656Y-92779121D01*
X120314730Y-93107856D01*
X120314731Y-93107857D01*
X120402344Y-93428494D01*
X120527266Y-93736516D01*
X120527267Y-93736517D01*
X120687742Y-94027603D01*
X120881519Y-94297665D01*
X121105877Y-94542914D01*
X121357666Y-94759906D01*
X121558494Y-94895174D01*
X121633351Y-94945594D01*
X121633353Y-94945595D01*
X121929067Y-95097374D01*
X122240656Y-95213113D01*
X122563747Y-95291187D01*
X122893805Y-95330500D01*
X122893809Y-95330500D01*
X123143023Y-95330500D01*
X123391807Y-95315736D01*
X123718956Y-95256939D01*
X124036854Y-95159862D01*
X124341040Y-95025868D01*
X124627243Y-94856837D01*
X124891445Y-94655142D01*
X125129937Y-94423616D01*
X125339373Y-94165506D01*
X125516810Y-93884438D01*
X125659760Y-93584357D01*
X125766215Y-93269475D01*
X125834680Y-92944212D01*
X125861689Y-92641246D01*
X127009500Y-92641246D01*
X127050382Y-92859942D01*
X127107031Y-93006168D01*
X127130753Y-93067401D01*
X127247876Y-93256562D01*
X127397764Y-93420981D01*
X127397767Y-93420983D01*
X127575306Y-93555055D01*
X127575309Y-93555057D01*
X127575310Y-93555057D01*
X127575311Y-93555058D01*
X127774472Y-93654229D01*
X127988464Y-93715115D01*
X128154497Y-93730500D01*
X128154499Y-93730500D01*
X128565501Y-93730500D01*
X128565503Y-93730500D01*
X128731536Y-93715115D01*
X128945528Y-93654229D01*
X129144689Y-93555058D01*
X129322236Y-93420981D01*
X129472124Y-93256562D01*
X129589247Y-93067401D01*
X129669618Y-92859940D01*
X129710499Y-92641246D01*
X135459500Y-92641246D01*
X135500382Y-92859942D01*
X135557031Y-93006168D01*
X135580753Y-93067401D01*
X135697876Y-93256562D01*
X135847764Y-93420981D01*
X135847767Y-93420983D01*
X136025306Y-93555055D01*
X136025309Y-93555057D01*
X136025310Y-93555057D01*
X136025311Y-93555058D01*
X136224472Y-93654229D01*
X136438464Y-93715115D01*
X136604497Y-93730500D01*
X136604499Y-93730500D01*
X137015501Y-93730500D01*
X137015503Y-93730500D01*
X137181536Y-93715115D01*
X137395528Y-93654229D01*
X137594689Y-93555058D01*
X137772236Y-93420981D01*
X137922124Y-93256562D01*
X138039247Y-93067401D01*
X138119618Y-92859940D01*
X138160500Y-92641243D01*
X138160500Y-92446882D01*
X139305804Y-92446882D01*
X139315654Y-92779099D01*
X139315656Y-92779121D01*
X139364730Y-93107856D01*
X139364731Y-93107857D01*
X139452344Y-93428494D01*
X139577266Y-93736516D01*
X139577267Y-93736517D01*
X139737742Y-94027603D01*
X139931519Y-94297665D01*
X140155877Y-94542914D01*
X140407666Y-94759906D01*
X140608494Y-94895174D01*
X140683351Y-94945594D01*
X140683353Y-94945595D01*
X140979067Y-95097374D01*
X141290656Y-95213113D01*
X141613747Y-95291187D01*
X141943805Y-95330500D01*
X141943809Y-95330500D01*
X142193023Y-95330500D01*
X142441807Y-95315736D01*
X142768956Y-95256939D01*
X143086854Y-95159862D01*
X143391040Y-95025868D01*
X143677243Y-94856837D01*
X143941445Y-94655142D01*
X144179937Y-94423616D01*
X144389373Y-94165506D01*
X144566810Y-93884438D01*
X144709760Y-93584357D01*
X144816215Y-93269475D01*
X144884680Y-92944212D01*
X144911689Y-92641246D01*
X146059500Y-92641246D01*
X146100382Y-92859942D01*
X146157031Y-93006168D01*
X146180753Y-93067401D01*
X146297876Y-93256562D01*
X146447764Y-93420981D01*
X146447767Y-93420983D01*
X146625306Y-93555055D01*
X146625309Y-93555057D01*
X146625310Y-93555057D01*
X146625311Y-93555058D01*
X146824472Y-93654229D01*
X147038464Y-93715115D01*
X147204497Y-93730500D01*
X147204499Y-93730500D01*
X147615501Y-93730500D01*
X147615503Y-93730500D01*
X147781536Y-93715115D01*
X147995528Y-93654229D01*
X148194689Y-93555058D01*
X148372236Y-93420981D01*
X148522124Y-93256562D01*
X148639247Y-93067401D01*
X148719618Y-92859940D01*
X148760500Y-92641243D01*
X148760500Y-92418757D01*
X148719618Y-92200060D01*
X148639247Y-91992599D01*
X148522124Y-91803438D01*
X148372236Y-91639019D01*
X148362286Y-91631505D01*
X148194693Y-91504944D01*
X148194690Y-91504942D01*
X148065271Y-91440499D01*
X147995528Y-91405771D01*
X147995524Y-91405770D01*
X147995522Y-91405769D01*
X147781537Y-91344885D01*
X147781524Y-91344883D01*
X147615509Y-91329500D01*
X147615503Y-91329500D01*
X147204497Y-91329500D01*
X147204490Y-91329500D01*
X147038475Y-91344883D01*
X147038462Y-91344885D01*
X146824477Y-91405769D01*
X146824472Y-91405771D01*
X146625309Y-91504942D01*
X146625306Y-91504944D01*
X146447767Y-91639016D01*
X146297874Y-91803440D01*
X146180756Y-91992594D01*
X146180751Y-91992604D01*
X146100382Y-92200057D01*
X146059500Y-92418753D01*
X146059500Y-92641246D01*
X144911689Y-92641246D01*
X144914195Y-92613134D01*
X144914195Y-92613120D01*
X144914195Y-92613117D01*
X144904345Y-92280900D01*
X144904345Y-92280890D01*
X144855269Y-91952142D01*
X144767655Y-91631506D01*
X144716326Y-91504944D01*
X144642733Y-91323483D01*
X144579329Y-91208475D01*
X144482258Y-91032397D01*
X144288481Y-90762335D01*
X144064123Y-90517086D01*
X143812334Y-90300094D01*
X143668407Y-90203152D01*
X143536648Y-90114405D01*
X143380253Y-90034134D01*
X143240933Y-89962626D01*
X142929344Y-89846887D01*
X142606253Y-89768813D01*
X142276195Y-89729500D01*
X142026977Y-89729500D01*
X141778201Y-89744263D01*
X141778184Y-89744265D01*
X141451049Y-89803059D01*
X141133147Y-89900137D01*
X140828954Y-90034134D01*
X140542773Y-90203152D01*
X140542752Y-90203166D01*
X140278557Y-90404855D01*
X140278547Y-90404864D01*
X140040068Y-90636378D01*
X140040063Y-90636383D01*
X140040063Y-90636384D01*
X139839168Y-90883969D01*
X139830625Y-90894497D01*
X139830623Y-90894498D01*
X139653189Y-91175562D01*
X139653188Y-91175564D01*
X139510239Y-91475644D01*
X139403787Y-91790515D01*
X139403784Y-91790525D01*
X139335321Y-92115778D01*
X139335320Y-92115787D01*
X139335320Y-92115788D01*
X139320602Y-92280890D01*
X139305804Y-92446879D01*
X139305804Y-92446882D01*
X138160500Y-92446882D01*
X138160500Y-92418757D01*
X138119618Y-92200060D01*
X138039247Y-91992599D01*
X137922124Y-91803438D01*
X137772236Y-91639019D01*
X137762286Y-91631505D01*
X137594693Y-91504944D01*
X137594690Y-91504942D01*
X137465271Y-91440499D01*
X137395528Y-91405771D01*
X137395524Y-91405770D01*
X137395522Y-91405769D01*
X137181537Y-91344885D01*
X137181524Y-91344883D01*
X137015509Y-91329500D01*
X137015503Y-91329500D01*
X136604497Y-91329500D01*
X136604490Y-91329500D01*
X136438475Y-91344883D01*
X136438462Y-91344885D01*
X136224477Y-91405769D01*
X136224472Y-91405771D01*
X136025309Y-91504942D01*
X136025306Y-91504944D01*
X135847767Y-91639016D01*
X135697874Y-91803440D01*
X135580756Y-91992594D01*
X135580751Y-91992604D01*
X135500382Y-92200057D01*
X135459500Y-92418753D01*
X135459500Y-92641246D01*
X129710499Y-92641246D01*
X129710500Y-92641243D01*
X129710500Y-92418757D01*
X129669618Y-92200060D01*
X129589247Y-91992599D01*
X129472124Y-91803438D01*
X129322236Y-91639019D01*
X129312286Y-91631505D01*
X129144693Y-91504944D01*
X129144690Y-91504942D01*
X129015271Y-91440499D01*
X128945528Y-91405771D01*
X128945524Y-91405770D01*
X128945522Y-91405769D01*
X128731537Y-91344885D01*
X128731524Y-91344883D01*
X128565509Y-91329500D01*
X128565503Y-91329500D01*
X128154497Y-91329500D01*
X128154490Y-91329500D01*
X127988475Y-91344883D01*
X127988462Y-91344885D01*
X127774477Y-91405769D01*
X127774472Y-91405771D01*
X127575309Y-91504942D01*
X127575306Y-91504944D01*
X127397767Y-91639016D01*
X127247874Y-91803440D01*
X127130756Y-91992594D01*
X127130751Y-91992604D01*
X127050382Y-92200057D01*
X127009500Y-92418753D01*
X127009500Y-92641246D01*
X125861689Y-92641246D01*
X125864195Y-92613134D01*
X125864195Y-92613120D01*
X125864195Y-92613117D01*
X125854345Y-92280900D01*
X125854345Y-92280890D01*
X125805269Y-91952142D01*
X125717655Y-91631506D01*
X125666326Y-91504944D01*
X125592733Y-91323483D01*
X125529329Y-91208475D01*
X125432258Y-91032397D01*
X125238481Y-90762335D01*
X125014123Y-90517086D01*
X124762334Y-90300094D01*
X124618407Y-90203152D01*
X124486648Y-90114405D01*
X124330253Y-90034134D01*
X124244272Y-89990003D01*
X136844529Y-89990003D01*
X136864378Y-90229556D01*
X136864378Y-90229557D01*
X136890323Y-90332010D01*
X136912942Y-90421334D01*
X136923392Y-90462597D01*
X136999620Y-90636378D01*
X137019951Y-90682728D01*
X137151429Y-90883969D01*
X137314236Y-91060825D01*
X137503933Y-91208472D01*
X137715344Y-91322882D01*
X137942703Y-91400934D01*
X138179808Y-91440500D01*
X138420192Y-91440500D01*
X138657297Y-91400934D01*
X138884656Y-91322882D01*
X139096067Y-91208472D01*
X139285764Y-91060825D01*
X139448571Y-90883969D01*
X139580049Y-90682728D01*
X139676610Y-90462591D01*
X139735620Y-90229563D01*
X139735620Y-90229559D01*
X139735621Y-90229557D01*
X139735621Y-90229556D01*
X139755471Y-89990003D01*
X139755471Y-89989996D01*
X139735621Y-89750443D01*
X139735621Y-89750442D01*
X139734057Y-89744264D01*
X139676610Y-89517409D01*
X139580049Y-89297272D01*
X139448571Y-89096031D01*
X139285764Y-88919175D01*
X139096067Y-88771528D01*
X139007715Y-88723714D01*
X138884655Y-88657117D01*
X138657295Y-88579065D01*
X138420194Y-88539500D01*
X138420192Y-88539500D01*
X138179808Y-88539500D01*
X138179805Y-88539500D01*
X137942704Y-88579065D01*
X137715344Y-88657117D01*
X137503940Y-88771524D01*
X137503928Y-88771531D01*
X137314234Y-88919176D01*
X137151427Y-89096033D01*
X137019951Y-89297271D01*
X136923392Y-89517402D01*
X136864378Y-89750442D01*
X136864378Y-89750443D01*
X136844529Y-89989996D01*
X136844529Y-89990003D01*
X124244272Y-89990003D01*
X124190933Y-89962626D01*
X123879344Y-89846887D01*
X123556253Y-89768813D01*
X123226195Y-89729500D01*
X122976977Y-89729500D01*
X122728201Y-89744263D01*
X122728184Y-89744265D01*
X122401049Y-89803059D01*
X122083147Y-89900137D01*
X121778954Y-90034134D01*
X121492773Y-90203152D01*
X121492752Y-90203166D01*
X121228557Y-90404855D01*
X121228547Y-90404864D01*
X120990068Y-90636378D01*
X120990063Y-90636383D01*
X120990063Y-90636384D01*
X120789168Y-90883969D01*
X120780625Y-90894497D01*
X120780623Y-90894498D01*
X120603189Y-91175562D01*
X120603188Y-91175564D01*
X120460239Y-91475644D01*
X120353787Y-91790515D01*
X120353784Y-91790525D01*
X120285321Y-92115778D01*
X120285320Y-92115787D01*
X120285320Y-92115788D01*
X120270602Y-92280890D01*
X120255804Y-92446879D01*
X120255804Y-92446882D01*
X119110500Y-92446882D01*
X119110500Y-92418757D01*
X119069618Y-92200060D01*
X118989247Y-91992599D01*
X118872124Y-91803438D01*
X118722236Y-91639019D01*
X118712286Y-91631505D01*
X118544693Y-91504944D01*
X118544690Y-91504942D01*
X118415271Y-91440499D01*
X118345528Y-91405771D01*
X118345524Y-91405770D01*
X118345522Y-91405769D01*
X118131537Y-91344885D01*
X118131524Y-91344883D01*
X117965509Y-91329500D01*
X117965503Y-91329500D01*
X117554497Y-91329500D01*
X117554490Y-91329500D01*
X117388475Y-91344883D01*
X117388462Y-91344885D01*
X117174477Y-91405769D01*
X117174472Y-91405771D01*
X116975309Y-91504942D01*
X116975306Y-91504944D01*
X116797767Y-91639016D01*
X116647874Y-91803440D01*
X116530756Y-91992594D01*
X116530751Y-91992604D01*
X116450382Y-92200057D01*
X116409500Y-92418753D01*
X116409500Y-92641246D01*
X113635500Y-92641246D01*
X113635500Y-81579601D01*
X113799500Y-81579601D01*
X113805684Y-81647651D01*
X113805686Y-81647661D01*
X113854486Y-81804267D01*
X113939352Y-81944653D01*
X114055347Y-82060648D01*
X114195730Y-82145512D01*
X114195732Y-82145513D01*
X114267803Y-82167971D01*
X114352343Y-82194315D01*
X114420406Y-82200500D01*
X114450500Y-82200500D01*
X114498066Y-82217813D01*
X114523376Y-82261650D01*
X114524500Y-82274500D01*
X114524500Y-88033381D01*
X114522925Y-88048566D01*
X114519633Y-88064264D01*
X114519633Y-88064269D01*
X114524216Y-88101032D01*
X114524500Y-88105613D01*
X114524500Y-88111118D01*
X114528215Y-88133380D01*
X114528435Y-88134892D01*
X114535134Y-88188627D01*
X114536884Y-88194504D01*
X114536615Y-88194584D01*
X114537679Y-88197904D01*
X114537945Y-88197813D01*
X114539935Y-88203610D01*
X114565696Y-88251215D01*
X114566391Y-88252564D01*
X114571888Y-88263808D01*
X114590175Y-88301214D01*
X114593738Y-88306204D01*
X114593510Y-88306366D01*
X114595595Y-88309162D01*
X114595817Y-88308990D01*
X114599578Y-88313823D01*
X114599580Y-88313825D01*
X114599581Y-88313826D01*
X114625421Y-88337614D01*
X114639399Y-88350481D01*
X114640503Y-88351540D01*
X116511518Y-90222556D01*
X116521141Y-90234406D01*
X116529916Y-90247836D01*
X116559152Y-90270591D01*
X116562585Y-90273623D01*
X116566481Y-90277519D01*
X116584873Y-90290650D01*
X116586088Y-90291555D01*
X116628811Y-90324809D01*
X116628813Y-90324809D01*
X116628816Y-90324812D01*
X116634206Y-90327729D01*
X116634071Y-90327978D01*
X116637163Y-90329569D01*
X116637288Y-90329315D01*
X116642798Y-90332008D01*
X116642801Y-90332010D01*
X116694710Y-90347463D01*
X116696083Y-90347903D01*
X116747340Y-90365500D01*
X116747341Y-90365500D01*
X116753391Y-90366510D01*
X116753344Y-90366786D01*
X116756793Y-90367289D01*
X116756828Y-90367009D01*
X116762905Y-90367766D01*
X116762912Y-90367768D01*
X116795911Y-90366403D01*
X116816997Y-90365532D01*
X116818525Y-90365500D01*
X117791207Y-90365500D01*
X117838773Y-90382813D01*
X117862943Y-90421334D01*
X117873391Y-90462594D01*
X117873393Y-90462599D01*
X117969949Y-90682726D01*
X118021961Y-90762335D01*
X118101429Y-90883969D01*
X118264236Y-91060825D01*
X118453933Y-91208472D01*
X118665344Y-91322882D01*
X118892703Y-91400934D01*
X119129808Y-91440500D01*
X119370192Y-91440500D01*
X119607297Y-91400934D01*
X119834656Y-91322882D01*
X120046067Y-91208472D01*
X120235764Y-91060825D01*
X120398571Y-90883969D01*
X120530049Y-90682728D01*
X120626610Y-90462591D01*
X120685620Y-90229563D01*
X120685620Y-90229559D01*
X120685621Y-90229557D01*
X120685621Y-90229556D01*
X120705471Y-89990003D01*
X120705471Y-89989996D01*
X120685621Y-89750443D01*
X120685621Y-89750442D01*
X120684057Y-89744264D01*
X120626610Y-89517409D01*
X120530049Y-89297272D01*
X120398571Y-89096031D01*
X120235764Y-88919175D01*
X120046067Y-88771528D01*
X119957715Y-88723714D01*
X119834655Y-88657117D01*
X119607295Y-88579065D01*
X119370194Y-88539500D01*
X119370192Y-88539500D01*
X119129808Y-88539500D01*
X119129805Y-88539500D01*
X118892704Y-88579065D01*
X118665344Y-88657117D01*
X118453940Y-88771524D01*
X118453928Y-88771531D01*
X118264234Y-88919176D01*
X118101427Y-89096033D01*
X117969949Y-89297273D01*
X117873393Y-89517400D01*
X117873391Y-89517405D01*
X117862943Y-89558666D01*
X117834483Y-89600527D01*
X117791207Y-89614500D01*
X116996189Y-89614500D01*
X116948623Y-89597187D01*
X116943863Y-89592826D01*
X115297173Y-87946136D01*
X115275781Y-87900260D01*
X115275499Y-87893810D01*
X115275499Y-87430003D01*
X124144529Y-87430003D01*
X124164378Y-87669556D01*
X124164378Y-87669557D01*
X124185957Y-87754769D01*
X124221166Y-87893810D01*
X124223392Y-87902597D01*
X124310434Y-88101032D01*
X124319951Y-88122728D01*
X124451429Y-88323969D01*
X124614236Y-88500825D01*
X124803933Y-88648472D01*
X125015344Y-88762882D01*
X125242703Y-88840934D01*
X125479808Y-88880500D01*
X128180192Y-88880500D01*
X128417297Y-88840934D01*
X128644656Y-88762882D01*
X128856067Y-88648472D01*
X129045764Y-88500825D01*
X129208571Y-88323969D01*
X129340049Y-88122728D01*
X129436610Y-87902591D01*
X129447057Y-87861333D01*
X129475517Y-87819473D01*
X129518793Y-87805500D01*
X129828811Y-87805500D01*
X129876377Y-87822813D01*
X129881137Y-87827174D01*
X130317771Y-88263808D01*
X130339163Y-88309684D01*
X130336259Y-88337613D01*
X130332035Y-88351540D01*
X130279700Y-88524064D01*
X130266595Y-88657117D01*
X130259417Y-88730000D01*
X130279700Y-88935934D01*
X130339768Y-89133954D01*
X130437315Y-89316450D01*
X130568590Y-89476410D01*
X130728550Y-89607685D01*
X130911046Y-89705232D01*
X131109066Y-89765300D01*
X131315000Y-89785583D01*
X131520934Y-89765300D01*
X131718954Y-89705232D01*
X131901450Y-89607685D01*
X132061410Y-89476410D01*
X132192685Y-89316450D01*
X132290232Y-89133954D01*
X132350300Y-88935934D01*
X132370583Y-88730000D01*
X132799417Y-88730000D01*
X132819700Y-88935934D01*
X132879768Y-89133954D01*
X132977315Y-89316450D01*
X133108590Y-89476410D01*
X133268550Y-89607685D01*
X133451046Y-89705232D01*
X133649066Y-89765300D01*
X133855000Y-89785583D01*
X134060934Y-89765300D01*
X134258954Y-89705232D01*
X134441450Y-89607685D01*
X134601410Y-89476410D01*
X134732685Y-89316450D01*
X134830232Y-89133954D01*
X134890300Y-88935934D01*
X134910583Y-88730000D01*
X134890300Y-88524066D01*
X134833740Y-88337611D01*
X134836500Y-88287070D01*
X134852225Y-88263810D01*
X135288862Y-87827174D01*
X135334740Y-87805782D01*
X135341189Y-87805500D01*
X143191207Y-87805500D01*
X143238773Y-87822813D01*
X143262942Y-87861333D01*
X143272800Y-87900260D01*
X143273391Y-87902594D01*
X143273393Y-87902599D01*
X143369949Y-88122726D01*
X143485653Y-88299822D01*
X143501429Y-88323969D01*
X143664236Y-88500825D01*
X143853933Y-88648472D01*
X144065344Y-88762882D01*
X144292703Y-88840934D01*
X144529808Y-88880500D01*
X147230192Y-88880500D01*
X147467297Y-88840934D01*
X147694656Y-88762882D01*
X147906067Y-88648472D01*
X148095764Y-88500825D01*
X148258571Y-88323969D01*
X148390049Y-88122728D01*
X148486610Y-87902591D01*
X148545620Y-87669563D01*
X148545620Y-87669559D01*
X148545621Y-87669557D01*
X148545621Y-87669556D01*
X148565471Y-87430003D01*
X148565471Y-87429996D01*
X148545621Y-87190443D01*
X148545621Y-87190442D01*
X148545620Y-87190437D01*
X148486610Y-86957409D01*
X148390049Y-86737272D01*
X148258571Y-86536031D01*
X148095764Y-86359175D01*
X147906067Y-86211528D01*
X147817715Y-86163714D01*
X147694655Y-86097117D01*
X147467295Y-86019065D01*
X147230194Y-85979500D01*
X147230192Y-85979500D01*
X147104674Y-85979500D01*
X144770192Y-85979500D01*
X144529808Y-85979500D01*
X144529805Y-85979500D01*
X144292704Y-86019065D01*
X144065344Y-86097117D01*
X143853940Y-86211524D01*
X143853928Y-86211531D01*
X143664234Y-86359176D01*
X143501427Y-86536033D01*
X143369949Y-86737273D01*
X143273393Y-86957400D01*
X143273391Y-86957405D01*
X143262943Y-86998666D01*
X143234483Y-87040527D01*
X143191207Y-87054500D01*
X135201618Y-87054500D01*
X135186433Y-87052925D01*
X135170732Y-87049633D01*
X135133963Y-87054216D01*
X135129385Y-87054500D01*
X135123877Y-87054500D01*
X135101623Y-87058214D01*
X135100112Y-87058434D01*
X135046376Y-87065133D01*
X135040499Y-87066883D01*
X135040419Y-87066616D01*
X135037096Y-87067681D01*
X135037187Y-87067945D01*
X135031385Y-87069936D01*
X134983797Y-87095690D01*
X134982439Y-87096390D01*
X134933788Y-87120174D01*
X134928798Y-87123737D01*
X134928637Y-87123511D01*
X134925837Y-87125599D01*
X134926008Y-87125818D01*
X134921175Y-87129578D01*
X134884504Y-87169412D01*
X134883446Y-87170515D01*
X134321190Y-87732770D01*
X134275313Y-87754162D01*
X134247383Y-87751258D01*
X134060935Y-87694700D01*
X133855000Y-87674417D01*
X133649064Y-87694700D01*
X133451043Y-87754769D01*
X133268549Y-87852315D01*
X133108590Y-87983589D01*
X133108589Y-87983590D01*
X132977315Y-88143549D01*
X132879769Y-88326043D01*
X132819700Y-88524064D01*
X132806595Y-88657117D01*
X132799417Y-88730000D01*
X132370583Y-88730000D01*
X132350300Y-88524066D01*
X132290232Y-88326046D01*
X132192685Y-88143550D01*
X132061410Y-87983590D01*
X131959871Y-87900260D01*
X131901450Y-87852315D01*
X131718956Y-87754769D01*
X131718955Y-87754768D01*
X131718954Y-87754768D01*
X131607158Y-87720855D01*
X131520935Y-87694700D01*
X131315000Y-87674417D01*
X131109064Y-87694700D01*
X130922615Y-87751258D01*
X130872071Y-87748498D01*
X130848808Y-87732770D01*
X130313479Y-87197441D01*
X130303853Y-87185586D01*
X130295086Y-87172166D01*
X130295083Y-87172163D01*
X130265853Y-87149412D01*
X130262415Y-87146377D01*
X130258518Y-87142480D01*
X130249004Y-87135687D01*
X130240123Y-87129346D01*
X130238897Y-87128432D01*
X130224864Y-87117510D01*
X130196189Y-87095191D01*
X130196186Y-87095190D01*
X130196185Y-87095189D01*
X130190795Y-87092272D01*
X130190928Y-87092024D01*
X130187829Y-87090429D01*
X130187706Y-87090682D01*
X130182201Y-87087990D01*
X130130347Y-87072552D01*
X130128892Y-87072086D01*
X130077661Y-87054499D01*
X130071615Y-87053491D01*
X130071661Y-87053214D01*
X130068206Y-87052710D01*
X130068172Y-87052991D01*
X130062089Y-87052232D01*
X130062088Y-87052232D01*
X130062086Y-87052232D01*
X130008003Y-87054468D01*
X130006475Y-87054500D01*
X129518793Y-87054500D01*
X129471227Y-87037187D01*
X129447057Y-86998666D01*
X129436610Y-86957409D01*
X129428386Y-86938660D01*
X129340050Y-86737273D01*
X129208572Y-86536033D01*
X129208571Y-86536031D01*
X129045764Y-86359175D01*
X128856067Y-86211528D01*
X128767715Y-86163714D01*
X128644655Y-86097117D01*
X128417295Y-86019065D01*
X128180194Y-85979500D01*
X128180192Y-85979500D01*
X128054674Y-85979500D01*
X125720192Y-85979500D01*
X125479808Y-85979500D01*
X125479805Y-85979500D01*
X125242704Y-86019065D01*
X125015344Y-86097117D01*
X124803940Y-86211524D01*
X124803928Y-86211531D01*
X124614234Y-86359176D01*
X124451427Y-86536033D01*
X124319951Y-86737271D01*
X124223392Y-86957402D01*
X124164378Y-87190442D01*
X124164378Y-87190443D01*
X124144529Y-87429996D01*
X124144529Y-87430003D01*
X115275499Y-87430003D01*
X115275500Y-83005006D01*
X130579390Y-83005006D01*
X130599803Y-83290425D01*
X130660630Y-83570042D01*
X130660635Y-83570060D01*
X130760630Y-83838156D01*
X130897772Y-84089313D01*
X130983517Y-84203855D01*
X131069261Y-84318395D01*
X131271605Y-84520739D01*
X131443415Y-84649354D01*
X131500686Y-84692227D01*
X131751843Y-84829369D01*
X132019939Y-84929364D01*
X132019945Y-84929365D01*
X132019954Y-84929369D01*
X132299572Y-84990196D01*
X132513539Y-85005499D01*
X132513544Y-85005500D01*
X132513552Y-85005500D01*
X132656456Y-85005500D01*
X132656459Y-85005499D01*
X132870428Y-84990196D01*
X133150046Y-84929369D01*
X133150057Y-84929364D01*
X133150060Y-84929364D01*
X133418156Y-84829369D01*
X133418156Y-84829368D01*
X133418161Y-84829367D01*
X133669315Y-84692226D01*
X133898395Y-84520739D01*
X134100739Y-84318395D01*
X134272226Y-84089315D01*
X134409367Y-83838161D01*
X134509369Y-83570046D01*
X134570196Y-83290428D01*
X134590610Y-83005000D01*
X134590610Y-83004993D01*
X134570196Y-82719574D01*
X134570196Y-82719572D01*
X134509369Y-82439954D01*
X134509365Y-82439945D01*
X134509364Y-82439939D01*
X134409369Y-82171843D01*
X134272227Y-81920686D01*
X134185079Y-81804270D01*
X134100739Y-81691605D01*
X133898395Y-81489261D01*
X133783855Y-81403517D01*
X133669313Y-81317772D01*
X133418156Y-81180630D01*
X133150060Y-81080635D01*
X133150042Y-81080630D01*
X132870425Y-81019803D01*
X132656460Y-81004500D01*
X132656448Y-81004500D01*
X132513552Y-81004500D01*
X132513539Y-81004500D01*
X132299574Y-81019803D01*
X132019957Y-81080630D01*
X132019939Y-81080635D01*
X131751843Y-81180630D01*
X131500686Y-81317772D01*
X131271602Y-81489263D01*
X131069263Y-81691602D01*
X130897772Y-81920686D01*
X130760630Y-82171843D01*
X130660635Y-82439939D01*
X130660630Y-82439957D01*
X130599803Y-82719574D01*
X130579390Y-83004993D01*
X130579390Y-83005006D01*
X115275500Y-83005006D01*
X115275500Y-82274500D01*
X115292813Y-82226934D01*
X115336650Y-82201624D01*
X115349500Y-82200500D01*
X115379592Y-82200500D01*
X115379594Y-82200500D01*
X115447657Y-82194315D01*
X115604270Y-82145512D01*
X115744653Y-82060648D01*
X115860648Y-81944653D01*
X115945512Y-81804270D01*
X115994315Y-81647657D01*
X116000500Y-81579594D01*
X116000500Y-80620406D01*
X115994315Y-80552343D01*
X115967971Y-80467803D01*
X115945513Y-80395732D01*
X115871905Y-80273969D01*
X115860648Y-80255347D01*
X115744653Y-80139352D01*
X115604270Y-80054488D01*
X115604267Y-80054486D01*
X115447661Y-80005686D01*
X115447658Y-80005685D01*
X115447657Y-80005685D01*
X115447655Y-80005684D01*
X115447651Y-80005684D01*
X115379601Y-79999500D01*
X115379594Y-79999500D01*
X114420406Y-79999500D01*
X114420398Y-79999500D01*
X114352348Y-80005684D01*
X114352338Y-80005686D01*
X114195732Y-80054486D01*
X114055346Y-80139352D01*
X113939352Y-80255346D01*
X113854486Y-80395732D01*
X113805686Y-80552338D01*
X113805684Y-80552348D01*
X113799500Y-80620398D01*
X113799500Y-81579601D01*
X113635500Y-81579601D01*
X113635500Y-79039601D01*
X113799500Y-79039601D01*
X113805684Y-79107651D01*
X113805686Y-79107661D01*
X113854486Y-79264267D01*
X113854488Y-79264270D01*
X113939352Y-79404653D01*
X114055347Y-79520648D01*
X114119865Y-79559650D01*
X114195732Y-79605513D01*
X114244999Y-79620865D01*
X114352343Y-79654315D01*
X114420406Y-79660500D01*
X114420408Y-79660500D01*
X115379592Y-79660500D01*
X115379594Y-79660500D01*
X115447657Y-79654315D01*
X115604270Y-79605512D01*
X115744653Y-79520648D01*
X115860648Y-79404653D01*
X115945512Y-79264270D01*
X115994315Y-79107657D01*
X116000500Y-79039594D01*
X116000500Y-78179500D01*
X116017813Y-78131934D01*
X116061650Y-78106624D01*
X116074500Y-78105500D01*
X116827347Y-78105500D01*
X116874913Y-78122813D01*
X116888910Y-78138440D01*
X117007305Y-78315966D01*
X117491699Y-79042286D01*
X117491700Y-79042287D01*
X117603711Y-79183423D01*
X117603713Y-79183425D01*
X117782101Y-79344553D01*
X117984577Y-79474120D01*
X117984585Y-79474123D01*
X117984588Y-79474125D01*
X118205617Y-79568594D01*
X118439184Y-79625396D01*
X118439187Y-79625396D01*
X118439194Y-79625398D01*
X118643765Y-79640401D01*
X118678932Y-79642981D01*
X118678932Y-79642980D01*
X118678934Y-79642981D01*
X118823428Y-79629630D01*
X118918291Y-79620866D01*
X118918293Y-79620865D01*
X118918298Y-79620865D01*
X119150757Y-79559652D01*
X119369971Y-79461013D01*
X119569959Y-79327637D01*
X119745267Y-79163164D01*
X119891112Y-78972080D01*
X120003517Y-78759596D01*
X120079415Y-78531508D01*
X120116736Y-78294039D01*
X120115658Y-78180200D01*
X120132521Y-78132472D01*
X120176117Y-78106749D01*
X120189656Y-78105500D01*
X122120364Y-78105500D01*
X122167930Y-78122813D01*
X122193240Y-78166650D01*
X122184450Y-78216500D01*
X122165817Y-78237894D01*
X122136645Y-78260600D01*
X122074234Y-78309176D01*
X121911427Y-78486033D01*
X121779951Y-78687271D01*
X121683392Y-78907402D01*
X121624378Y-79140442D01*
X121624378Y-79140443D01*
X121604529Y-79379996D01*
X121604529Y-79380003D01*
X121624378Y-79619556D01*
X121624378Y-79619557D01*
X121683392Y-79852597D01*
X121771949Y-80054486D01*
X121779951Y-80072728D01*
X121911429Y-80273969D01*
X122074236Y-80450825D01*
X122263933Y-80598472D01*
X122475344Y-80712882D01*
X122702703Y-80790934D01*
X122939808Y-80830500D01*
X125780192Y-80830500D01*
X126017297Y-80790934D01*
X126244656Y-80712882D01*
X126456067Y-80598472D01*
X126645764Y-80450825D01*
X126808571Y-80273969D01*
X126940049Y-80072728D01*
X127036610Y-79852591D01*
X127095620Y-79619563D01*
X127095620Y-79619559D01*
X127095621Y-79619557D01*
X127095621Y-79619556D01*
X127115471Y-79380003D01*
X127115471Y-79379996D01*
X127095621Y-79140443D01*
X127095621Y-79140442D01*
X127087319Y-79107657D01*
X127036610Y-78907409D01*
X126940049Y-78687272D01*
X126808571Y-78486031D01*
X126645764Y-78309175D01*
X126554183Y-78237894D01*
X126527281Y-78195019D01*
X126534234Y-78144879D01*
X126571789Y-78110939D01*
X126599636Y-78105500D01*
X128568383Y-78105500D01*
X128583567Y-78107074D01*
X128599268Y-78110367D01*
X128636036Y-78105783D01*
X128640615Y-78105500D01*
X128646111Y-78105500D01*
X128646114Y-78105500D01*
X128668387Y-78101782D01*
X128669887Y-78101564D01*
X128675604Y-78100851D01*
X128723626Y-78094866D01*
X128723629Y-78094864D01*
X128729507Y-78093115D01*
X128729587Y-78093386D01*
X128732904Y-78092323D01*
X128732812Y-78092055D01*
X128738606Y-78090065D01*
X128738610Y-78090065D01*
X128786235Y-78064290D01*
X128787535Y-78063622D01*
X128836211Y-78039826D01*
X128836213Y-78039823D01*
X128841204Y-78036261D01*
X128841369Y-78036493D01*
X128844158Y-78034414D01*
X128843983Y-78034189D01*
X128848821Y-78030422D01*
X128848821Y-78030421D01*
X128848826Y-78030419D01*
X128885535Y-77990541D01*
X128886517Y-77989518D01*
X130138175Y-76737861D01*
X130184051Y-76716470D01*
X130232945Y-76729571D01*
X130261979Y-76771035D01*
X130264500Y-76790188D01*
X130264499Y-78104672D01*
X130265632Y-78110366D01*
X130279034Y-78177740D01*
X130334399Y-78260601D01*
X130417260Y-78315966D01*
X130490326Y-78330500D01*
X130490328Y-78330500D01*
X132139672Y-78330500D01*
X132139674Y-78330500D01*
X132212740Y-78315966D01*
X132295601Y-78260601D01*
X132350966Y-78177740D01*
X132365500Y-78104674D01*
X132365500Y-76604500D01*
X132382813Y-76556934D01*
X132426650Y-76531624D01*
X132439500Y-76530500D01*
X132730500Y-76530500D01*
X132778066Y-76547813D01*
X132803376Y-76591650D01*
X132804500Y-76604500D01*
X132804500Y-78104674D01*
X132819034Y-78177740D01*
X132874399Y-78260601D01*
X132957260Y-78315966D01*
X133030326Y-78330500D01*
X133030328Y-78330500D01*
X134679672Y-78330500D01*
X134679674Y-78330500D01*
X134752740Y-78315966D01*
X134835601Y-78260601D01*
X134890966Y-78177740D01*
X134905500Y-78104674D01*
X134905500Y-76604499D01*
X134922813Y-76556934D01*
X134966650Y-76531624D01*
X134979500Y-76530500D01*
X135648811Y-76530500D01*
X135696377Y-76547813D01*
X135701137Y-76552174D01*
X135756525Y-76607562D01*
X135777917Y-76653438D01*
X135769612Y-76694488D01*
X135766484Y-76700400D01*
X135690584Y-76928494D01*
X135653264Y-77165960D01*
X135653263Y-77165964D01*
X135655538Y-77406338D01*
X135697344Y-77643052D01*
X135772614Y-77855732D01*
X135777545Y-77869664D01*
X135777546Y-77869665D01*
X135864791Y-78027300D01*
X135864807Y-78027326D01*
X136541699Y-79042286D01*
X136541700Y-79042287D01*
X136653711Y-79183423D01*
X136653713Y-79183425D01*
X136832101Y-79344553D01*
X137034577Y-79474120D01*
X137034585Y-79474123D01*
X137034588Y-79474125D01*
X137255617Y-79568594D01*
X137489184Y-79625396D01*
X137489187Y-79625396D01*
X137489194Y-79625398D01*
X137693766Y-79640401D01*
X137728932Y-79642981D01*
X137728932Y-79642980D01*
X137728934Y-79642981D01*
X137873428Y-79629630D01*
X137968291Y-79620866D01*
X137968293Y-79620865D01*
X137968298Y-79620865D01*
X138200757Y-79559652D01*
X138419971Y-79461013D01*
X138619959Y-79327637D01*
X138795267Y-79163164D01*
X138941112Y-78972080D01*
X139053517Y-78759596D01*
X139129415Y-78531508D01*
X139166736Y-78294039D01*
X139165658Y-78180200D01*
X139182521Y-78132472D01*
X139226117Y-78106749D01*
X139239656Y-78105500D01*
X141170364Y-78105500D01*
X141217930Y-78122813D01*
X141243240Y-78166650D01*
X141234450Y-78216500D01*
X141215817Y-78237894D01*
X141186645Y-78260600D01*
X141124234Y-78309176D01*
X140961427Y-78486033D01*
X140829951Y-78687271D01*
X140733392Y-78907402D01*
X140674378Y-79140442D01*
X140674378Y-79140443D01*
X140654529Y-79379996D01*
X140654529Y-79380003D01*
X140674378Y-79619556D01*
X140674378Y-79619557D01*
X140733392Y-79852597D01*
X140821949Y-80054486D01*
X140829951Y-80072728D01*
X140961429Y-80273969D01*
X141124236Y-80450825D01*
X141313933Y-80598472D01*
X141525344Y-80712882D01*
X141752703Y-80790934D01*
X141989808Y-80830500D01*
X144830192Y-80830500D01*
X145067297Y-80790934D01*
X145294656Y-80712882D01*
X145506067Y-80598472D01*
X145695764Y-80450825D01*
X145858571Y-80273969D01*
X145990049Y-80072728D01*
X146086610Y-79852591D01*
X146145620Y-79619563D01*
X146145620Y-79619559D01*
X146145621Y-79619557D01*
X146145621Y-79619556D01*
X146165471Y-79380003D01*
X146165471Y-79379996D01*
X146145621Y-79140443D01*
X146145621Y-79140442D01*
X146137319Y-79107657D01*
X146086610Y-78907409D01*
X145990049Y-78687272D01*
X145858571Y-78486031D01*
X145695764Y-78309175D01*
X145604183Y-78237894D01*
X145577281Y-78195019D01*
X145584234Y-78144879D01*
X145621789Y-78110939D01*
X145649636Y-78105500D01*
X148473383Y-78105500D01*
X148488567Y-78107074D01*
X148504268Y-78110367D01*
X148541036Y-78105783D01*
X148545615Y-78105500D01*
X148551111Y-78105500D01*
X148551114Y-78105500D01*
X148573387Y-78101782D01*
X148574887Y-78101564D01*
X148580604Y-78100851D01*
X148628626Y-78094866D01*
X148628629Y-78094864D01*
X148634507Y-78093115D01*
X148634587Y-78093386D01*
X148637904Y-78092323D01*
X148637812Y-78092055D01*
X148643606Y-78090065D01*
X148643610Y-78090065D01*
X148691235Y-78064290D01*
X148692535Y-78063622D01*
X148741211Y-78039826D01*
X148741213Y-78039823D01*
X148746204Y-78036261D01*
X148746369Y-78036493D01*
X148749158Y-78034414D01*
X148748983Y-78034189D01*
X148753821Y-78030422D01*
X148753821Y-78030421D01*
X148753826Y-78030419D01*
X148790535Y-77990541D01*
X148791517Y-77989518D01*
X149149724Y-77631311D01*
X149195599Y-77609920D01*
X149244494Y-77623021D01*
X149273528Y-77664485D01*
X149269116Y-77714912D01*
X149265377Y-77721921D01*
X149184486Y-77855732D01*
X149135686Y-78012338D01*
X149135684Y-78012348D01*
X149129500Y-78080398D01*
X149129500Y-79039601D01*
X149135684Y-79107651D01*
X149135686Y-79107661D01*
X149184486Y-79264267D01*
X149184488Y-79264270D01*
X149269352Y-79404653D01*
X149385347Y-79520648D01*
X149449865Y-79559650D01*
X149525732Y-79605513D01*
X149574999Y-79620865D01*
X149682343Y-79654315D01*
X149750406Y-79660500D01*
X149780500Y-79660500D01*
X149828066Y-79677813D01*
X149853376Y-79721650D01*
X149854500Y-79734500D01*
X149854500Y-94973810D01*
X149837187Y-95021376D01*
X149832826Y-95026136D01*
X148476136Y-96382826D01*
X148430260Y-96404218D01*
X148423810Y-96404500D01*
X138942653Y-96404500D01*
X138895087Y-96387187D01*
X138881088Y-96371558D01*
X138777317Y-96215960D01*
X138462885Y-95744488D01*
X138278300Y-95467713D01*
X138278299Y-95467712D01*
X138166288Y-95326576D01*
X138166284Y-95326572D01*
X137987899Y-95165447D01*
X137968451Y-95153002D01*
X137785423Y-95035880D01*
X137785417Y-95035877D01*
X137785411Y-95035874D01*
X137564382Y-94941405D01*
X137330815Y-94884603D01*
X137330807Y-94884602D01*
X137091067Y-94867018D01*
X137091060Y-94867019D01*
X136851708Y-94889133D01*
X136619239Y-94950349D01*
X136400031Y-95048986D01*
X136400026Y-95048989D01*
X136336523Y-95091340D01*
X136287344Y-95103328D01*
X136243139Y-95082101D01*
X136133479Y-94972441D01*
X136123853Y-94960586D01*
X136115086Y-94947166D01*
X136115083Y-94947163D01*
X136085853Y-94924412D01*
X136082415Y-94921377D01*
X136078518Y-94917480D01*
X136069004Y-94910687D01*
X136060123Y-94904346D01*
X136058897Y-94903432D01*
X136034705Y-94884603D01*
X136016189Y-94870191D01*
X136016186Y-94870190D01*
X136016185Y-94870189D01*
X136010795Y-94867272D01*
X136010928Y-94867024D01*
X136007829Y-94865429D01*
X136007706Y-94865682D01*
X136002201Y-94862990D01*
X135950347Y-94847552D01*
X135948892Y-94847086D01*
X135897661Y-94829499D01*
X135891615Y-94828491D01*
X135891661Y-94828214D01*
X135888206Y-94827710D01*
X135888172Y-94827991D01*
X135882089Y-94827232D01*
X135882088Y-94827232D01*
X135882086Y-94827232D01*
X135828003Y-94829468D01*
X135826475Y-94829500D01*
X130236617Y-94829500D01*
X130221432Y-94827925D01*
X130205731Y-94824633D01*
X130168965Y-94829216D01*
X130164386Y-94829500D01*
X130158879Y-94829500D01*
X130136613Y-94833216D01*
X130135102Y-94833436D01*
X130081374Y-94840134D01*
X130075498Y-94841884D01*
X130075417Y-94841615D01*
X130072102Y-94842677D01*
X130072193Y-94842942D01*
X130066392Y-94844933D01*
X130018789Y-94870694D01*
X130017431Y-94871393D01*
X129968787Y-94895174D01*
X129963797Y-94898737D01*
X129963636Y-94898511D01*
X129960837Y-94900598D01*
X129961008Y-94900818D01*
X129956175Y-94904578D01*
X129919515Y-94944400D01*
X129918457Y-94945503D01*
X128481136Y-96382826D01*
X128435260Y-96404218D01*
X128428810Y-96404500D01*
X119892653Y-96404500D01*
X119845087Y-96387187D01*
X119831088Y-96371558D01*
X119727317Y-96215960D01*
X119412885Y-95744488D01*
X119228300Y-95467713D01*
X119228299Y-95467712D01*
X119116288Y-95326576D01*
X119116284Y-95326572D01*
X118937899Y-95165447D01*
X118918451Y-95153002D01*
X118735423Y-95035880D01*
X118735417Y-95035877D01*
X118735411Y-95035874D01*
X118514382Y-94941405D01*
X118280815Y-94884603D01*
X118280807Y-94884602D01*
X118041067Y-94867018D01*
X118041060Y-94867019D01*
X117801708Y-94889133D01*
X117569239Y-94950349D01*
X117350032Y-95048986D01*
X117350030Y-95048987D01*
X117150486Y-95182066D01*
X117150038Y-95182365D01*
X117150036Y-95182367D01*
X116974734Y-95346834D01*
X116974731Y-95346837D01*
X116828891Y-95537915D01*
X116828885Y-95537924D01*
X116716484Y-95750399D01*
X116640584Y-95978494D01*
X116603264Y-96215960D01*
X116603263Y-96215964D01*
X116605538Y-96456338D01*
X116647344Y-96693052D01*
X116647345Y-96693054D01*
X116727545Y-96919664D01*
X116727546Y-96919665D01*
X116814791Y-97077300D01*
X116814807Y-97077326D01*
X117491699Y-98092286D01*
X117491700Y-98092287D01*
X117603711Y-98233423D01*
X117603713Y-98233425D01*
X117782101Y-98394553D01*
X117984577Y-98524120D01*
X117984585Y-98524123D01*
X117984588Y-98524125D01*
X118205617Y-98618594D01*
X118439184Y-98675396D01*
X118439187Y-98675396D01*
X118439194Y-98675398D01*
X118643765Y-98690401D01*
X118678932Y-98692981D01*
X118678932Y-98692980D01*
X118678934Y-98692981D01*
X118823428Y-98679630D01*
X118918291Y-98670866D01*
X118918293Y-98670865D01*
X118918298Y-98670865D01*
X119150757Y-98609652D01*
X119369971Y-98511013D01*
X119569959Y-98377637D01*
X119745267Y-98213164D01*
X119891112Y-98022080D01*
X120003517Y-97809596D01*
X120079415Y-97581508D01*
X120116736Y-97344039D01*
X120115658Y-97230200D01*
X120132521Y-97182472D01*
X120176117Y-97156749D01*
X120189656Y-97155500D01*
X122120364Y-97155500D01*
X122167930Y-97172813D01*
X122193240Y-97216650D01*
X122184450Y-97266500D01*
X122165817Y-97287894D01*
X122136645Y-97310600D01*
X122074234Y-97359176D01*
X121911427Y-97536033D01*
X121779951Y-97737271D01*
X121683392Y-97957402D01*
X121624378Y-98190442D01*
X121624378Y-98190443D01*
X121604529Y-98429996D01*
X121604529Y-98430003D01*
X121624378Y-98669556D01*
X121624378Y-98669557D01*
X121683392Y-98902597D01*
X121779950Y-99122727D01*
X121779951Y-99122728D01*
X121911429Y-99323969D01*
X122074236Y-99500825D01*
X122263933Y-99648472D01*
X122475344Y-99762882D01*
X122702703Y-99840934D01*
X122939808Y-99880500D01*
X125780192Y-99880500D01*
X126017297Y-99840934D01*
X126244656Y-99762882D01*
X126456067Y-99648472D01*
X126645764Y-99500825D01*
X126808571Y-99323969D01*
X126940049Y-99122728D01*
X127036610Y-98902591D01*
X127095620Y-98669563D01*
X127095620Y-98669559D01*
X127095621Y-98669557D01*
X127095621Y-98669556D01*
X127115471Y-98430003D01*
X127115471Y-98429996D01*
X127095621Y-98190443D01*
X127095621Y-98190442D01*
X127070765Y-98092287D01*
X127036610Y-97957409D01*
X126940049Y-97737272D01*
X126808571Y-97536031D01*
X126645764Y-97359175D01*
X126554183Y-97287894D01*
X126527281Y-97245019D01*
X126534234Y-97194879D01*
X126571789Y-97160939D01*
X126599636Y-97155500D01*
X128568383Y-97155500D01*
X128583567Y-97157074D01*
X128599268Y-97160367D01*
X128636036Y-97155783D01*
X128640615Y-97155500D01*
X128646111Y-97155500D01*
X128646114Y-97155500D01*
X128668387Y-97151782D01*
X128669887Y-97151564D01*
X128675604Y-97150851D01*
X128723626Y-97144866D01*
X128723629Y-97144864D01*
X128729507Y-97143115D01*
X128729587Y-97143386D01*
X128732904Y-97142323D01*
X128732812Y-97142055D01*
X128738606Y-97140065D01*
X128738610Y-97140065D01*
X128786235Y-97114290D01*
X128787535Y-97113622D01*
X128836211Y-97089826D01*
X128836213Y-97089823D01*
X128841204Y-97086261D01*
X128841369Y-97086493D01*
X128844158Y-97084414D01*
X128843983Y-97084189D01*
X128848821Y-97080422D01*
X128848821Y-97080421D01*
X128848826Y-97080419D01*
X128885535Y-97040541D01*
X128886517Y-97039518D01*
X130138174Y-95787861D01*
X130184051Y-95766470D01*
X130232945Y-95779571D01*
X130261979Y-95821035D01*
X130264500Y-95840188D01*
X130264499Y-97154672D01*
X130265632Y-97160366D01*
X130279034Y-97227740D01*
X130334399Y-97310601D01*
X130417260Y-97365966D01*
X130490326Y-97380500D01*
X130490328Y-97380500D01*
X132139672Y-97380500D01*
X132139674Y-97380500D01*
X132212740Y-97365966D01*
X132295601Y-97310601D01*
X132350966Y-97227740D01*
X132365500Y-97154674D01*
X132365500Y-95654500D01*
X132382813Y-95606934D01*
X132426650Y-95581624D01*
X132439500Y-95580500D01*
X132730500Y-95580500D01*
X132778066Y-95597813D01*
X132803376Y-95641650D01*
X132804500Y-95654500D01*
X132804500Y-97154674D01*
X132819034Y-97227740D01*
X132874399Y-97310601D01*
X132957260Y-97365966D01*
X133030326Y-97380500D01*
X133030328Y-97380500D01*
X134679672Y-97380500D01*
X134679674Y-97380500D01*
X134752740Y-97365966D01*
X134835601Y-97310601D01*
X134890966Y-97227740D01*
X134905500Y-97154674D01*
X134905500Y-95654500D01*
X134922813Y-95606934D01*
X134966650Y-95581624D01*
X134979500Y-95580500D01*
X135648811Y-95580500D01*
X135696377Y-95597813D01*
X135701137Y-95602174D01*
X135756525Y-95657562D01*
X135777917Y-95703438D01*
X135769612Y-95744488D01*
X135766484Y-95750400D01*
X135690584Y-95978494D01*
X135653264Y-96215960D01*
X135653263Y-96215964D01*
X135655538Y-96456338D01*
X135697344Y-96693052D01*
X135697345Y-96693054D01*
X135777545Y-96919664D01*
X135777546Y-96919665D01*
X135864791Y-97077300D01*
X135864807Y-97077326D01*
X136541699Y-98092286D01*
X136541700Y-98092287D01*
X136653711Y-98233423D01*
X136653713Y-98233425D01*
X136832101Y-98394553D01*
X137034577Y-98524120D01*
X137034585Y-98524123D01*
X137034588Y-98524125D01*
X137255617Y-98618594D01*
X137489184Y-98675396D01*
X137489187Y-98675396D01*
X137489194Y-98675398D01*
X137693765Y-98690401D01*
X137728932Y-98692981D01*
X137728932Y-98692980D01*
X137728934Y-98692981D01*
X137873428Y-98679630D01*
X137968291Y-98670866D01*
X137968293Y-98670865D01*
X137968298Y-98670865D01*
X138200757Y-98609652D01*
X138419971Y-98511013D01*
X138619959Y-98377637D01*
X138795267Y-98213164D01*
X138941112Y-98022080D01*
X139053517Y-97809596D01*
X139129415Y-97581508D01*
X139166736Y-97344039D01*
X139165658Y-97230200D01*
X139182521Y-97182472D01*
X139226117Y-97156749D01*
X139239656Y-97155500D01*
X141170364Y-97155500D01*
X141217930Y-97172813D01*
X141243240Y-97216650D01*
X141234450Y-97266500D01*
X141215817Y-97287894D01*
X141186645Y-97310600D01*
X141124234Y-97359176D01*
X140961427Y-97536033D01*
X140829951Y-97737271D01*
X140733392Y-97957402D01*
X140674378Y-98190442D01*
X140674378Y-98190443D01*
X140654529Y-98429996D01*
X140654529Y-98430003D01*
X140674378Y-98669556D01*
X140674378Y-98669557D01*
X140733392Y-98902597D01*
X140829950Y-99122727D01*
X140829951Y-99122728D01*
X140961429Y-99323969D01*
X141124236Y-99500825D01*
X141313933Y-99648472D01*
X141525344Y-99762882D01*
X141752703Y-99840934D01*
X141989808Y-99880500D01*
X144830192Y-99880500D01*
X145067297Y-99840934D01*
X145294656Y-99762882D01*
X145506067Y-99648472D01*
X145695764Y-99500825D01*
X145858571Y-99323969D01*
X145990049Y-99122728D01*
X146086610Y-98902591D01*
X146145620Y-98669563D01*
X146145620Y-98669559D01*
X146145621Y-98669557D01*
X146145621Y-98669556D01*
X146165471Y-98430003D01*
X146165471Y-98429996D01*
X146145621Y-98190443D01*
X146145621Y-98190442D01*
X146120765Y-98092287D01*
X146086610Y-97957409D01*
X145990049Y-97737272D01*
X145858571Y-97536031D01*
X145695764Y-97359175D01*
X145604183Y-97287894D01*
X145577281Y-97245019D01*
X145584234Y-97194879D01*
X145621789Y-97160939D01*
X145649636Y-97155500D01*
X148563383Y-97155500D01*
X148578567Y-97157074D01*
X148594268Y-97160367D01*
X148631036Y-97155783D01*
X148635615Y-97155500D01*
X148641111Y-97155500D01*
X148641114Y-97155500D01*
X148663387Y-97151782D01*
X148664887Y-97151564D01*
X148670604Y-97150851D01*
X148718626Y-97144866D01*
X148718629Y-97144864D01*
X148724507Y-97143115D01*
X148724587Y-97143386D01*
X148727904Y-97142323D01*
X148727812Y-97142055D01*
X148733606Y-97140065D01*
X148733610Y-97140065D01*
X148781235Y-97114290D01*
X148782535Y-97113622D01*
X148831211Y-97089826D01*
X148831213Y-97089823D01*
X148836204Y-97086261D01*
X148836369Y-97086493D01*
X148839158Y-97084414D01*
X148838983Y-97084189D01*
X148843824Y-97080420D01*
X148843823Y-97080420D01*
X148843826Y-97080419D01*
X148880512Y-97040565D01*
X148881517Y-97039518D01*
X150462561Y-95458475D01*
X150474401Y-95448861D01*
X150487836Y-95440084D01*
X150510598Y-95410837D01*
X150513620Y-95407417D01*
X150517520Y-95403518D01*
X150530660Y-95385111D01*
X150531564Y-95383900D01*
X150564809Y-95341189D01*
X150564810Y-95341184D01*
X150567729Y-95335792D01*
X150567979Y-95335927D01*
X150569571Y-95332835D01*
X150569316Y-95332710D01*
X150572010Y-95327199D01*
X150572197Y-95326572D01*
X150587469Y-95275271D01*
X150587897Y-95273932D01*
X150605500Y-95222660D01*
X150605500Y-95222656D01*
X150606510Y-95216610D01*
X150606786Y-95216656D01*
X150607289Y-95213206D01*
X150607009Y-95213172D01*
X150607765Y-95207095D01*
X150607768Y-95207088D01*
X150605815Y-95159862D01*
X150605532Y-95153002D01*
X150605500Y-95151474D01*
X150605500Y-79734500D01*
X150622813Y-79686934D01*
X150666650Y-79661624D01*
X150679500Y-79660500D01*
X150709592Y-79660500D01*
X150709594Y-79660500D01*
X150777657Y-79654315D01*
X150934270Y-79605512D01*
X151074653Y-79520648D01*
X151190648Y-79404653D01*
X151275512Y-79264270D01*
X151324315Y-79107657D01*
X151330500Y-79039594D01*
X151330500Y-78080406D01*
X151324315Y-78012343D01*
X151297971Y-77927803D01*
X151275513Y-77855732D01*
X151190647Y-77715346D01*
X151074653Y-77599352D01*
X150934267Y-77514486D01*
X150777661Y-77465686D01*
X150777658Y-77465685D01*
X150777657Y-77465685D01*
X150777655Y-77465684D01*
X150777651Y-77465684D01*
X150709601Y-77459500D01*
X150709594Y-77459500D01*
X149750406Y-77459500D01*
X149750398Y-77459500D01*
X149682348Y-77465684D01*
X149682338Y-77465686D01*
X149525732Y-77514486D01*
X149391921Y-77595377D01*
X149342258Y-77605169D01*
X149297920Y-77580747D01*
X149279653Y-77533539D01*
X149296005Y-77485633D01*
X149301303Y-77479732D01*
X149643516Y-77137519D01*
X149689391Y-77116128D01*
X149702536Y-77116149D01*
X149750406Y-77120500D01*
X149750408Y-77120500D01*
X150709592Y-77120500D01*
X150709594Y-77120500D01*
X150777657Y-77114315D01*
X150934270Y-77065512D01*
X151074653Y-76980648D01*
X151190648Y-76864653D01*
X151275512Y-76724270D01*
X151324315Y-76567657D01*
X151330500Y-76499594D01*
X151330500Y-75540406D01*
X151324315Y-75472343D01*
X151293241Y-75372625D01*
X151275513Y-75315732D01*
X151275214Y-75315237D01*
X151190648Y-75175347D01*
X151074653Y-75059352D01*
X151074652Y-75059351D01*
X150934267Y-74974486D01*
X150777661Y-74925686D01*
X150777658Y-74925685D01*
X150777657Y-74925685D01*
X150777655Y-74925684D01*
X150777651Y-74925684D01*
X150709601Y-74919500D01*
X150709594Y-74919500D01*
X149750406Y-74919500D01*
X149750398Y-74919500D01*
X149682348Y-74925684D01*
X149682338Y-74925686D01*
X149525732Y-74974486D01*
X149447783Y-75021608D01*
X149398120Y-75031400D01*
X149353782Y-75006978D01*
X149335515Y-74959770D01*
X149335500Y-74958280D01*
X149335500Y-74936188D01*
X149352813Y-74888622D01*
X149357163Y-74883873D01*
X149643517Y-74597519D01*
X149689391Y-74576128D01*
X149702536Y-74576149D01*
X149750406Y-74580500D01*
X149750408Y-74580500D01*
X150709592Y-74580500D01*
X150709594Y-74580500D01*
X150777657Y-74574315D01*
X150934270Y-74525512D01*
X151074653Y-74440648D01*
X151190648Y-74324653D01*
X151275512Y-74184270D01*
X151324315Y-74027657D01*
X151330500Y-73959594D01*
X151330500Y-73000406D01*
X151324315Y-72932343D01*
X151275512Y-72775730D01*
X151190648Y-72635347D01*
X151074653Y-72519352D01*
X151011322Y-72481067D01*
X150934267Y-72434486D01*
X150777661Y-72385686D01*
X150777658Y-72385685D01*
X150777657Y-72385685D01*
X150777655Y-72385684D01*
X150777651Y-72385684D01*
X150709601Y-72379500D01*
X150709594Y-72379500D01*
X149750406Y-72379500D01*
X149750398Y-72379500D01*
X149682348Y-72385684D01*
X149682338Y-72385686D01*
X149525732Y-72434486D01*
X149385346Y-72519352D01*
X149269352Y-72635346D01*
X149184486Y-72775732D01*
X149135686Y-72932338D01*
X149135684Y-72932348D01*
X149129500Y-73000398D01*
X149129500Y-73959603D01*
X149133849Y-74007460D01*
X149120912Y-74056397D01*
X149112479Y-74066482D01*
X148727440Y-74451520D01*
X148715592Y-74461142D01*
X148702163Y-74469916D01*
X148679408Y-74499150D01*
X148676377Y-74502583D01*
X148672484Y-74506477D01*
X148672478Y-74506484D01*
X148659353Y-74524867D01*
X148658440Y-74526092D01*
X148625194Y-74568806D01*
X148622273Y-74574204D01*
X148622026Y-74574070D01*
X148620430Y-74577171D01*
X148620682Y-74577295D01*
X148617988Y-74582804D01*
X148602550Y-74634658D01*
X148602084Y-74636113D01*
X148584499Y-74687339D01*
X148583491Y-74693386D01*
X148583213Y-74693339D01*
X148582711Y-74696790D01*
X148582990Y-74696825D01*
X148582232Y-74702908D01*
X148584468Y-74756996D01*
X148584500Y-74758524D01*
X148584500Y-76023810D01*
X148567187Y-76071376D01*
X148562826Y-76076136D01*
X147756136Y-76882826D01*
X147710260Y-76904218D01*
X147703810Y-76904500D01*
X139956190Y-76904500D01*
X139908624Y-76887187D01*
X139903864Y-76882826D01*
X138493479Y-75472441D01*
X138483853Y-75460586D01*
X138475086Y-75447166D01*
X138475083Y-75447163D01*
X138445853Y-75424412D01*
X138442415Y-75421377D01*
X138441692Y-75420654D01*
X138438518Y-75417480D01*
X138426359Y-75408799D01*
X138420123Y-75404346D01*
X138418897Y-75403432D01*
X138404864Y-75392510D01*
X138376189Y-75370191D01*
X138376186Y-75370190D01*
X138376185Y-75370189D01*
X138370795Y-75367272D01*
X138370928Y-75367024D01*
X138367829Y-75365429D01*
X138367706Y-75365682D01*
X138362201Y-75362990D01*
X138310347Y-75347552D01*
X138308892Y-75347086D01*
X138257661Y-75329499D01*
X138251615Y-75328491D01*
X138251661Y-75328214D01*
X138248206Y-75327710D01*
X138248172Y-75327991D01*
X138242089Y-75327232D01*
X138242088Y-75327232D01*
X138242086Y-75327232D01*
X138188003Y-75329468D01*
X138186475Y-75329500D01*
X130050221Y-75329500D01*
X130035036Y-75327925D01*
X130019335Y-75324633D01*
X129982569Y-75329216D01*
X129977990Y-75329500D01*
X129972483Y-75329500D01*
X129950217Y-75333216D01*
X129948706Y-75333436D01*
X129894978Y-75340134D01*
X129889102Y-75341884D01*
X129889021Y-75341615D01*
X129885706Y-75342677D01*
X129885797Y-75342942D01*
X129879996Y-75344933D01*
X129832393Y-75370694D01*
X129831035Y-75371393D01*
X129782391Y-75395174D01*
X129777401Y-75398737D01*
X129777240Y-75398511D01*
X129774441Y-75400598D01*
X129774612Y-75400818D01*
X129769779Y-75404578D01*
X129733119Y-75444400D01*
X129732061Y-75445503D01*
X128294740Y-76882826D01*
X128248864Y-76904218D01*
X128242414Y-76904500D01*
X120966189Y-76904500D01*
X120918623Y-76887187D01*
X120913863Y-76882826D01*
X120187717Y-76156680D01*
X119451692Y-75420654D01*
X119442066Y-75408799D01*
X119433299Y-75395379D01*
X119433296Y-75395376D01*
X119404066Y-75372625D01*
X119400628Y-75369590D01*
X119396731Y-75365693D01*
X119387217Y-75358900D01*
X119378336Y-75352559D01*
X119377110Y-75351645D01*
X119363077Y-75340723D01*
X119334402Y-75318404D01*
X119334399Y-75318403D01*
X119334398Y-75318402D01*
X119329008Y-75315485D01*
X119329141Y-75315237D01*
X119326042Y-75313642D01*
X119325919Y-75313895D01*
X119320414Y-75311203D01*
X119268560Y-75295765D01*
X119267105Y-75295299D01*
X119215874Y-75277712D01*
X119209828Y-75276704D01*
X119209874Y-75276427D01*
X119206419Y-75275923D01*
X119206385Y-75276204D01*
X119200302Y-75275445D01*
X119200301Y-75275445D01*
X119200299Y-75275445D01*
X119146216Y-75277681D01*
X119144688Y-75277713D01*
X115964266Y-75277713D01*
X115916700Y-75260400D01*
X115900938Y-75241996D01*
X115860648Y-75175347D01*
X115744653Y-75059352D01*
X115744652Y-75059352D01*
X115604267Y-74974486D01*
X115447661Y-74925686D01*
X115447658Y-74925685D01*
X115447657Y-74925685D01*
X115447655Y-74925684D01*
X115447651Y-74925684D01*
X115379601Y-74919500D01*
X115379594Y-74919500D01*
X114420406Y-74919500D01*
X114420398Y-74919500D01*
X114352348Y-74925684D01*
X114352338Y-74925686D01*
X114195732Y-74974486D01*
X114055346Y-75059352D01*
X113939352Y-75175346D01*
X113854486Y-75315732D01*
X113805686Y-75472338D01*
X113805684Y-75472348D01*
X113799500Y-75540398D01*
X113799500Y-76499601D01*
X113805684Y-76567651D01*
X113805686Y-76567661D01*
X113854486Y-76724267D01*
X113939352Y-76864652D01*
X113939352Y-76864653D01*
X114055347Y-76980648D01*
X114195730Y-77065512D01*
X114195732Y-77065513D01*
X114267803Y-77087971D01*
X114352343Y-77114315D01*
X114420406Y-77120500D01*
X114420408Y-77120500D01*
X115379592Y-77120500D01*
X115379594Y-77120500D01*
X115447657Y-77114315D01*
X115604270Y-77065512D01*
X115744653Y-76980648D01*
X115860648Y-76864653D01*
X115945512Y-76724270D01*
X115994315Y-76567657D01*
X116000500Y-76499594D01*
X116000500Y-76102712D01*
X116017813Y-76055147D01*
X116061650Y-76029837D01*
X116074500Y-76028713D01*
X117073490Y-76028713D01*
X117121056Y-76046026D01*
X117146366Y-76089863D01*
X117137576Y-76139713D01*
X117124122Y-76156680D01*
X116974734Y-76296834D01*
X116974731Y-76296837D01*
X116828891Y-76487915D01*
X116828885Y-76487924D01*
X116716484Y-76700399D01*
X116640584Y-76928494D01*
X116603264Y-77165960D01*
X116603263Y-77165964D01*
X116604341Y-77279800D01*
X116587479Y-77327528D01*
X116543883Y-77353251D01*
X116530344Y-77354500D01*
X115776617Y-77354500D01*
X115761432Y-77352925D01*
X115745732Y-77349633D01*
X115708963Y-77354216D01*
X115704385Y-77354500D01*
X115698877Y-77354500D01*
X115676621Y-77358214D01*
X115675110Y-77358434D01*
X115621373Y-77365133D01*
X115615497Y-77366883D01*
X115615418Y-77366618D01*
X115612097Y-77367681D01*
X115612188Y-77367944D01*
X115606389Y-77369935D01*
X115558782Y-77395697D01*
X115557424Y-77396396D01*
X115508785Y-77420175D01*
X115503797Y-77423737D01*
X115503635Y-77423510D01*
X115500836Y-77425597D01*
X115501008Y-77425818D01*
X115496176Y-77429578D01*
X115486506Y-77440083D01*
X115441552Y-77463352D01*
X115425366Y-77463659D01*
X115379601Y-77459500D01*
X115379594Y-77459500D01*
X114420406Y-77459500D01*
X114420398Y-77459500D01*
X114352348Y-77465684D01*
X114352338Y-77465686D01*
X114195732Y-77514486D01*
X114055346Y-77599352D01*
X113939352Y-77715346D01*
X113854486Y-77855732D01*
X113805686Y-78012338D01*
X113805684Y-78012348D01*
X113799500Y-78080398D01*
X113799500Y-79039601D01*
X113635500Y-79039601D01*
X113635500Y-73480003D01*
X113794785Y-73480003D01*
X113813601Y-73683076D01*
X113813602Y-73683082D01*
X113869416Y-73879244D01*
X113869418Y-73879250D01*
X113960327Y-74061821D01*
X113960328Y-74061822D01*
X113960329Y-74061825D01*
X114083234Y-74224578D01*
X114083235Y-74224579D01*
X114193012Y-74324653D01*
X114233959Y-74361981D01*
X114407363Y-74469348D01*
X114597544Y-74543024D01*
X114798024Y-74580500D01*
X114798026Y-74580500D01*
X115001974Y-74580500D01*
X115001976Y-74580500D01*
X115202456Y-74543024D01*
X115392637Y-74469348D01*
X115566041Y-74361981D01*
X115716764Y-74224579D01*
X115720619Y-74219475D01*
X115839670Y-74061825D01*
X115839670Y-74061824D01*
X115839673Y-74061821D01*
X115930582Y-73879250D01*
X115986397Y-73683083D01*
X115994907Y-73591246D01*
X116409500Y-73591246D01*
X116450382Y-73809942D01*
X116507031Y-73956168D01*
X116530753Y-74017401D01*
X116647876Y-74206562D01*
X116797764Y-74370981D01*
X116797767Y-74370983D01*
X116975306Y-74505055D01*
X116975309Y-74505057D01*
X116975310Y-74505057D01*
X116975311Y-74505058D01*
X117174472Y-74604229D01*
X117388464Y-74665115D01*
X117554497Y-74680500D01*
X117554499Y-74680500D01*
X117965501Y-74680500D01*
X117965503Y-74680500D01*
X118131536Y-74665115D01*
X118345528Y-74604229D01*
X118544689Y-74505058D01*
X118722236Y-74370981D01*
X118872124Y-74206562D01*
X118989247Y-74017401D01*
X119069618Y-73809940D01*
X119110500Y-73591243D01*
X119110500Y-73396882D01*
X120255804Y-73396882D01*
X120265654Y-73729099D01*
X120265656Y-73729121D01*
X120314730Y-74057856D01*
X120314731Y-74057857D01*
X120402344Y-74378494D01*
X120527266Y-74686516D01*
X120566122Y-74756996D01*
X120687742Y-74977603D01*
X120881519Y-75247665D01*
X121105877Y-75492914D01*
X121357666Y-75709906D01*
X121562316Y-75847748D01*
X121633351Y-75895594D01*
X121633353Y-75895595D01*
X121929067Y-76047374D01*
X122240656Y-76163113D01*
X122563747Y-76241187D01*
X122893805Y-76280500D01*
X122893809Y-76280500D01*
X123143023Y-76280500D01*
X123391807Y-76265736D01*
X123718956Y-76206939D01*
X124036854Y-76109862D01*
X124341040Y-75975868D01*
X124627243Y-75806837D01*
X124891445Y-75605142D01*
X125129937Y-75373616D01*
X125339373Y-75115506D01*
X125516810Y-74834438D01*
X125659760Y-74534357D01*
X125766215Y-74219475D01*
X125834680Y-73894212D01*
X125861689Y-73591246D01*
X127009500Y-73591246D01*
X127050382Y-73809942D01*
X127107031Y-73956168D01*
X127130753Y-74017401D01*
X127247876Y-74206562D01*
X127397764Y-74370981D01*
X127397767Y-74370983D01*
X127575306Y-74505055D01*
X127575309Y-74505057D01*
X127575310Y-74505057D01*
X127575311Y-74505058D01*
X127774472Y-74604229D01*
X127988464Y-74665115D01*
X128154497Y-74680500D01*
X128154499Y-74680500D01*
X128565501Y-74680500D01*
X128565503Y-74680500D01*
X128731536Y-74665115D01*
X128945528Y-74604229D01*
X129144689Y-74505058D01*
X129322236Y-74370981D01*
X129472124Y-74206562D01*
X129589247Y-74017401D01*
X129669618Y-73809940D01*
X129710499Y-73591246D01*
X135459500Y-73591246D01*
X135500382Y-73809942D01*
X135557031Y-73956168D01*
X135580753Y-74017401D01*
X135697876Y-74206562D01*
X135847764Y-74370981D01*
X135847767Y-74370983D01*
X136025306Y-74505055D01*
X136025309Y-74505057D01*
X136025310Y-74505057D01*
X136025311Y-74505058D01*
X136224472Y-74604229D01*
X136438464Y-74665115D01*
X136604497Y-74680500D01*
X136604499Y-74680500D01*
X137015501Y-74680500D01*
X137015503Y-74680500D01*
X137181536Y-74665115D01*
X137395528Y-74604229D01*
X137594689Y-74505058D01*
X137772236Y-74370981D01*
X137922124Y-74206562D01*
X138039247Y-74017401D01*
X138119618Y-73809940D01*
X138160500Y-73591243D01*
X138160500Y-73396882D01*
X139305804Y-73396882D01*
X139315654Y-73729099D01*
X139315656Y-73729121D01*
X139364730Y-74057856D01*
X139364731Y-74057857D01*
X139452344Y-74378494D01*
X139577266Y-74686516D01*
X139616122Y-74756996D01*
X139737742Y-74977603D01*
X139931519Y-75247665D01*
X140155877Y-75492914D01*
X140407666Y-75709906D01*
X140612316Y-75847748D01*
X140683351Y-75895594D01*
X140683353Y-75895595D01*
X140979067Y-76047374D01*
X141290656Y-76163113D01*
X141613747Y-76241187D01*
X141943805Y-76280500D01*
X141943809Y-76280500D01*
X142193023Y-76280500D01*
X142441807Y-76265736D01*
X142768956Y-76206939D01*
X143086854Y-76109862D01*
X143391040Y-75975868D01*
X143677243Y-75806837D01*
X143941445Y-75605142D01*
X144179937Y-75373616D01*
X144389373Y-75115506D01*
X144566810Y-74834438D01*
X144709760Y-74534357D01*
X144816215Y-74219475D01*
X144884680Y-73894212D01*
X144911689Y-73591246D01*
X146059500Y-73591246D01*
X146100382Y-73809942D01*
X146157031Y-73956168D01*
X146180753Y-74017401D01*
X146297876Y-74206562D01*
X146447764Y-74370981D01*
X146447767Y-74370983D01*
X146625306Y-74505055D01*
X146625309Y-74505057D01*
X146625310Y-74505057D01*
X146625311Y-74505058D01*
X146824472Y-74604229D01*
X147038464Y-74665115D01*
X147204497Y-74680500D01*
X147204499Y-74680500D01*
X147615501Y-74680500D01*
X147615503Y-74680500D01*
X147781536Y-74665115D01*
X147995528Y-74604229D01*
X148194689Y-74505058D01*
X148372236Y-74370981D01*
X148522124Y-74206562D01*
X148639247Y-74017401D01*
X148719618Y-73809940D01*
X148760500Y-73591243D01*
X148760500Y-73368757D01*
X148719618Y-73150060D01*
X148639247Y-72942599D01*
X148522124Y-72753438D01*
X148372236Y-72589019D01*
X148265588Y-72508482D01*
X148194693Y-72454944D01*
X148194690Y-72454942D01*
X148049624Y-72382708D01*
X147995528Y-72355771D01*
X147995524Y-72355770D01*
X147995522Y-72355769D01*
X147781537Y-72294885D01*
X147781524Y-72294883D01*
X147615509Y-72279500D01*
X147615503Y-72279500D01*
X147204497Y-72279500D01*
X147204490Y-72279500D01*
X147038475Y-72294883D01*
X147038462Y-72294885D01*
X146824477Y-72355769D01*
X146824472Y-72355771D01*
X146625309Y-72454942D01*
X146625306Y-72454944D01*
X146447767Y-72589016D01*
X146447764Y-72589018D01*
X146447764Y-72589019D01*
X146357831Y-72687670D01*
X146297874Y-72753440D01*
X146180756Y-72942594D01*
X146180751Y-72942604D01*
X146100382Y-73150057D01*
X146059500Y-73368753D01*
X146059500Y-73591246D01*
X144911689Y-73591246D01*
X144914195Y-73563134D01*
X144914195Y-73563120D01*
X144914195Y-73563117D01*
X144905710Y-73276923D01*
X144904345Y-73230890D01*
X144855269Y-72902142D01*
X144767655Y-72581506D01*
X144738039Y-72508482D01*
X144642733Y-72273483D01*
X144579329Y-72158475D01*
X144482258Y-71982397D01*
X144288481Y-71712335D01*
X144064123Y-71467086D01*
X143812334Y-71250094D01*
X143653458Y-71143083D01*
X143536648Y-71064405D01*
X143380253Y-70984134D01*
X143240933Y-70912626D01*
X142929344Y-70796887D01*
X142606253Y-70718813D01*
X142276195Y-70679500D01*
X142026977Y-70679500D01*
X141778201Y-70694263D01*
X141778184Y-70694265D01*
X141451049Y-70753059D01*
X141133147Y-70850137D01*
X140828954Y-70984134D01*
X140542773Y-71153152D01*
X140542752Y-71153166D01*
X140278557Y-71354855D01*
X140278547Y-71354864D01*
X140040068Y-71586378D01*
X140040063Y-71586383D01*
X140040063Y-71586384D01*
X139839168Y-71833969D01*
X139830625Y-71844497D01*
X139830623Y-71844498D01*
X139653189Y-72125562D01*
X139653188Y-72125564D01*
X139510239Y-72425644D01*
X139403787Y-72740515D01*
X139403784Y-72740525D01*
X139335321Y-73065778D01*
X139335320Y-73065787D01*
X139335320Y-73065788D01*
X139320602Y-73230890D01*
X139305804Y-73396879D01*
X139305804Y-73396882D01*
X138160500Y-73396882D01*
X138160500Y-73368757D01*
X138119618Y-73150060D01*
X138039247Y-72942599D01*
X137922124Y-72753438D01*
X137772236Y-72589019D01*
X137665588Y-72508482D01*
X137594693Y-72454944D01*
X137594690Y-72454942D01*
X137449624Y-72382708D01*
X137395528Y-72355771D01*
X137395524Y-72355770D01*
X137395522Y-72355769D01*
X137181537Y-72294885D01*
X137181524Y-72294883D01*
X137015509Y-72279500D01*
X137015503Y-72279500D01*
X136604497Y-72279500D01*
X136604490Y-72279500D01*
X136438475Y-72294883D01*
X136438462Y-72294885D01*
X136224477Y-72355769D01*
X136224472Y-72355771D01*
X136025309Y-72454942D01*
X136025306Y-72454944D01*
X135847767Y-72589016D01*
X135847764Y-72589018D01*
X135847764Y-72589019D01*
X135757831Y-72687670D01*
X135697874Y-72753440D01*
X135580756Y-72942594D01*
X135580751Y-72942604D01*
X135500382Y-73150057D01*
X135459500Y-73368753D01*
X135459500Y-73591246D01*
X129710499Y-73591246D01*
X129710500Y-73591243D01*
X129710500Y-73368757D01*
X129669618Y-73150060D01*
X129589247Y-72942599D01*
X129472124Y-72753438D01*
X129322236Y-72589019D01*
X129215588Y-72508482D01*
X129144693Y-72454944D01*
X129144690Y-72454942D01*
X128999624Y-72382708D01*
X128945528Y-72355771D01*
X128945524Y-72355770D01*
X128945522Y-72355769D01*
X128731537Y-72294885D01*
X128731524Y-72294883D01*
X128565509Y-72279500D01*
X128565503Y-72279500D01*
X128154497Y-72279500D01*
X128154490Y-72279500D01*
X127988475Y-72294883D01*
X127988462Y-72294885D01*
X127774477Y-72355769D01*
X127774472Y-72355771D01*
X127575309Y-72454942D01*
X127575306Y-72454944D01*
X127397767Y-72589016D01*
X127397764Y-72589018D01*
X127397764Y-72589019D01*
X127307831Y-72687670D01*
X127247874Y-72753440D01*
X127130756Y-72942594D01*
X127130751Y-72942604D01*
X127050382Y-73150057D01*
X127009500Y-73368753D01*
X127009500Y-73591246D01*
X125861689Y-73591246D01*
X125864195Y-73563134D01*
X125864195Y-73563120D01*
X125864195Y-73563117D01*
X125855710Y-73276923D01*
X125854345Y-73230890D01*
X125805269Y-72902142D01*
X125717655Y-72581506D01*
X125688039Y-72508482D01*
X125592733Y-72273483D01*
X125529329Y-72158475D01*
X125432258Y-71982397D01*
X125238481Y-71712335D01*
X125014123Y-71467086D01*
X124762334Y-71250094D01*
X124603458Y-71143083D01*
X124486648Y-71064405D01*
X124330253Y-70984134D01*
X124244272Y-70940003D01*
X136844529Y-70940003D01*
X136864378Y-71179556D01*
X136864378Y-71179557D01*
X136882242Y-71250099D01*
X136908769Y-71354855D01*
X136923392Y-71412597D01*
X136971303Y-71521822D01*
X137019951Y-71632728D01*
X137151429Y-71833969D01*
X137314236Y-72010825D01*
X137503933Y-72158472D01*
X137715344Y-72272882D01*
X137942703Y-72350934D01*
X138179808Y-72390500D01*
X138420192Y-72390500D01*
X138657297Y-72350934D01*
X138884656Y-72272882D01*
X139096067Y-72158472D01*
X139285764Y-72010825D01*
X139448571Y-71833969D01*
X139580049Y-71632728D01*
X139676610Y-71412591D01*
X139735620Y-71179563D01*
X139735620Y-71179559D01*
X139735621Y-71179557D01*
X139735621Y-71179556D01*
X139755471Y-70940003D01*
X139755471Y-70939996D01*
X139735621Y-70700443D01*
X139735621Y-70700442D01*
X139734057Y-70694264D01*
X139676610Y-70467409D01*
X139580049Y-70247272D01*
X139448571Y-70046031D01*
X139285764Y-69869175D01*
X139099423Y-69724140D01*
X139096071Y-69721531D01*
X139096070Y-69721530D01*
X139096067Y-69721528D01*
X139007715Y-69673714D01*
X138884655Y-69607117D01*
X138657295Y-69529065D01*
X138420194Y-69489500D01*
X138420192Y-69489500D01*
X138179808Y-69489500D01*
X138179805Y-69489500D01*
X137942704Y-69529065D01*
X137715344Y-69607117D01*
X137503940Y-69721524D01*
X137503928Y-69721531D01*
X137314234Y-69869176D01*
X137151427Y-70046033D01*
X137019951Y-70247271D01*
X136923392Y-70467402D01*
X136864378Y-70700442D01*
X136864378Y-70700443D01*
X136844529Y-70939996D01*
X136844529Y-70940003D01*
X124244272Y-70940003D01*
X124190933Y-70912626D01*
X123879344Y-70796887D01*
X123556253Y-70718813D01*
X123226195Y-70679500D01*
X122976977Y-70679500D01*
X122728201Y-70694263D01*
X122728184Y-70694265D01*
X122401049Y-70753059D01*
X122083147Y-70850137D01*
X121778954Y-70984134D01*
X121492773Y-71153152D01*
X121492752Y-71153166D01*
X121228557Y-71354855D01*
X121228547Y-71354864D01*
X120990068Y-71586378D01*
X120990063Y-71586383D01*
X120990063Y-71586384D01*
X120789168Y-71833969D01*
X120780625Y-71844497D01*
X120780623Y-71844498D01*
X120603189Y-72125562D01*
X120603188Y-72125564D01*
X120460239Y-72425644D01*
X120353787Y-72740515D01*
X120353784Y-72740525D01*
X120285321Y-73065778D01*
X120285320Y-73065787D01*
X120285320Y-73065788D01*
X120270602Y-73230890D01*
X120255804Y-73396879D01*
X120255804Y-73396882D01*
X119110500Y-73396882D01*
X119110500Y-73368757D01*
X119069618Y-73150060D01*
X118989247Y-72942599D01*
X118872124Y-72753438D01*
X118722236Y-72589019D01*
X118615588Y-72508482D01*
X118544693Y-72454944D01*
X118544690Y-72454942D01*
X118399624Y-72382708D01*
X118345528Y-72355771D01*
X118345524Y-72355770D01*
X118345522Y-72355769D01*
X118131537Y-72294885D01*
X118131524Y-72294883D01*
X117965509Y-72279500D01*
X117965503Y-72279500D01*
X117554497Y-72279500D01*
X117554490Y-72279500D01*
X117388475Y-72294883D01*
X117388462Y-72294885D01*
X117174477Y-72355769D01*
X117174472Y-72355771D01*
X116975309Y-72454942D01*
X116975306Y-72454944D01*
X116797767Y-72589016D01*
X116797764Y-72589018D01*
X116797764Y-72589019D01*
X116707831Y-72687670D01*
X116647874Y-72753440D01*
X116530756Y-72942594D01*
X116530751Y-72942604D01*
X116450382Y-73150057D01*
X116409500Y-73368753D01*
X116409500Y-73591246D01*
X115994907Y-73591246D01*
X115997514Y-73563117D01*
X116005215Y-73480003D01*
X116005215Y-73479996D01*
X115986398Y-73276923D01*
X115986397Y-73276917D01*
X115973298Y-73230878D01*
X115930582Y-73080750D01*
X115920974Y-73061456D01*
X115915269Y-73011160D01*
X115934888Y-72976147D01*
X116402558Y-72508477D01*
X116414400Y-72498861D01*
X116427836Y-72490084D01*
X116450594Y-72460843D01*
X116453631Y-72457405D01*
X116457519Y-72453518D01*
X116470636Y-72435145D01*
X116471552Y-72433916D01*
X116504809Y-72391189D01*
X116504810Y-72391183D01*
X116507729Y-72385792D01*
X116507978Y-72385926D01*
X116509571Y-72382832D01*
X116509316Y-72382708D01*
X116512009Y-72377200D01*
X116512008Y-72377200D01*
X116512010Y-72377199D01*
X116527459Y-72325302D01*
X116527900Y-72323925D01*
X116545500Y-72272660D01*
X116545500Y-72272656D01*
X116546510Y-72266609D01*
X116546786Y-72266655D01*
X116547289Y-72263207D01*
X116547009Y-72263173D01*
X116547765Y-72257096D01*
X116547768Y-72257089D01*
X116546487Y-72226131D01*
X116545532Y-72203002D01*
X116545500Y-72201473D01*
X116545500Y-70940003D01*
X117794529Y-70940003D01*
X117814378Y-71179556D01*
X117814378Y-71179557D01*
X117832242Y-71250099D01*
X117858769Y-71354855D01*
X117873392Y-71412597D01*
X117921303Y-71521822D01*
X117969951Y-71632728D01*
X118101429Y-71833969D01*
X118264236Y-72010825D01*
X118453933Y-72158472D01*
X118665344Y-72272882D01*
X118892703Y-72350934D01*
X119129808Y-72390500D01*
X119370192Y-72390500D01*
X119607297Y-72350934D01*
X119834656Y-72272882D01*
X120046067Y-72158472D01*
X120235764Y-72010825D01*
X120398571Y-71833969D01*
X120530049Y-71632728D01*
X120626610Y-71412591D01*
X120685620Y-71179563D01*
X120685620Y-71179559D01*
X120685621Y-71179557D01*
X120685621Y-71179556D01*
X120705471Y-70940003D01*
X120705471Y-70939996D01*
X120685621Y-70700443D01*
X120685621Y-70700442D01*
X120684057Y-70694264D01*
X120626610Y-70467409D01*
X120530049Y-70247272D01*
X120398571Y-70046031D01*
X120235764Y-69869175D01*
X120049423Y-69724140D01*
X120046071Y-69721531D01*
X120046070Y-69721530D01*
X120046067Y-69721528D01*
X119957715Y-69673714D01*
X119834655Y-69607117D01*
X119607295Y-69529065D01*
X119370194Y-69489500D01*
X119370192Y-69489500D01*
X119129808Y-69489500D01*
X119129805Y-69489500D01*
X118892704Y-69529065D01*
X118665344Y-69607117D01*
X118453940Y-69721524D01*
X118453928Y-69721531D01*
X118264234Y-69869176D01*
X118101427Y-70046033D01*
X117969951Y-70247271D01*
X117873392Y-70467402D01*
X117814378Y-70700442D01*
X117814378Y-70700443D01*
X117794529Y-70939996D01*
X117794529Y-70940003D01*
X116545500Y-70940003D01*
X116545500Y-70138980D01*
X116562813Y-70091414D01*
X116567174Y-70086654D01*
X119701655Y-66952174D01*
X119747531Y-66930782D01*
X119753981Y-66930500D01*
X124938616Y-66930500D01*
X124986182Y-66947813D01*
X125011492Y-66991650D01*
X125002702Y-67041500D01*
X124973836Y-67069581D01*
X124803940Y-67161524D01*
X124803928Y-67161531D01*
X124614234Y-67309176D01*
X124451427Y-67486033D01*
X124319951Y-67687271D01*
X124223392Y-67907402D01*
X124223390Y-67907407D01*
X124223390Y-67907409D01*
X124221286Y-67915717D01*
X124164378Y-68140442D01*
X124164378Y-68140443D01*
X124144529Y-68379996D01*
X124144529Y-68380003D01*
X124164378Y-68619556D01*
X124164378Y-68619557D01*
X124185957Y-68704769D01*
X124212942Y-68811334D01*
X124223392Y-68852597D01*
X124280076Y-68981822D01*
X124319951Y-69072728D01*
X124451429Y-69273969D01*
X124614236Y-69450825D01*
X124803933Y-69598472D01*
X125015344Y-69712882D01*
X125242703Y-69790934D01*
X125479808Y-69830500D01*
X128180192Y-69830500D01*
X128417297Y-69790934D01*
X128644656Y-69712882D01*
X128856067Y-69598472D01*
X129045764Y-69450825D01*
X129208571Y-69273969D01*
X129340049Y-69072728D01*
X129436610Y-68852591D01*
X129447057Y-68811333D01*
X129475517Y-68769473D01*
X129518793Y-68755500D01*
X129828811Y-68755500D01*
X129876377Y-68772813D01*
X129881137Y-68777174D01*
X130317771Y-69213808D01*
X130339163Y-69259684D01*
X130336259Y-69287615D01*
X130279700Y-69474064D01*
X130259417Y-69680000D01*
X130279700Y-69885935D01*
X130285127Y-69903826D01*
X130328264Y-70046031D01*
X130339769Y-70083956D01*
X130437315Y-70266450D01*
X130512594Y-70358179D01*
X130568590Y-70426410D01*
X130728550Y-70557685D01*
X130911046Y-70655232D01*
X131109066Y-70715300D01*
X131315000Y-70735583D01*
X131520934Y-70715300D01*
X131718954Y-70655232D01*
X131901450Y-70557685D01*
X132061410Y-70426410D01*
X132192685Y-70266450D01*
X132290232Y-70083954D01*
X132350300Y-69885934D01*
X132370583Y-69680000D01*
X132350300Y-69474066D01*
X132290232Y-69276046D01*
X132192685Y-69093550D01*
X132061410Y-68933590D01*
X131901450Y-68802315D01*
X131846256Y-68772813D01*
X131718956Y-68704769D01*
X131718955Y-68704768D01*
X131718954Y-68704768D01*
X131607158Y-68670855D01*
X131520935Y-68644700D01*
X131315000Y-68624417D01*
X131109064Y-68644700D01*
X130922615Y-68701258D01*
X130872071Y-68698498D01*
X130848808Y-68682770D01*
X130491095Y-68325058D01*
X130469703Y-68279182D01*
X130482804Y-68230287D01*
X130509028Y-68207210D01*
X130562240Y-68179283D01*
X130680483Y-68074530D01*
X130770220Y-67944523D01*
X130789733Y-67893069D01*
X130822789Y-67854733D01*
X130872752Y-67846613D01*
X130911251Y-67866984D01*
X130954557Y-67910290D01*
X130964180Y-67922140D01*
X130972955Y-67935570D01*
X131002191Y-67958325D01*
X131005624Y-67961357D01*
X131009520Y-67965253D01*
X131027912Y-67978384D01*
X131029127Y-67979289D01*
X131071850Y-68012543D01*
X131071852Y-68012543D01*
X131071855Y-68012546D01*
X131077245Y-68015463D01*
X131077110Y-68015712D01*
X131080202Y-68017303D01*
X131080327Y-68017049D01*
X131085837Y-68019742D01*
X131085840Y-68019744D01*
X131137749Y-68035197D01*
X131139122Y-68035637D01*
X131190379Y-68053234D01*
X131190380Y-68053234D01*
X131196430Y-68054244D01*
X131196383Y-68054520D01*
X131199832Y-68055023D01*
X131199867Y-68054743D01*
X131205944Y-68055500D01*
X131205951Y-68055502D01*
X131238950Y-68054137D01*
X131260036Y-68053266D01*
X131261564Y-68053234D01*
X134406823Y-68053234D01*
X134454389Y-68070547D01*
X134467720Y-68085193D01*
X134486406Y-68112264D01*
X134604649Y-68217017D01*
X134604650Y-68217017D01*
X134604653Y-68217020D01*
X134635149Y-68233026D01*
X134669221Y-68270461D01*
X134671259Y-68321039D01*
X134653085Y-68350875D01*
X134321190Y-68682770D01*
X134275314Y-68704162D01*
X134247383Y-68701258D01*
X134060935Y-68644700D01*
X133855000Y-68624417D01*
X133649064Y-68644700D01*
X133451043Y-68704769D01*
X133268549Y-68802315D01*
X133108590Y-68933589D01*
X133108589Y-68933590D01*
X132977315Y-69093549D01*
X132879769Y-69276043D01*
X132819700Y-69474064D01*
X132799417Y-69680000D01*
X132819700Y-69885935D01*
X132825127Y-69903826D01*
X132868264Y-70046031D01*
X132879769Y-70083956D01*
X132977315Y-70266450D01*
X133052594Y-70358179D01*
X133108590Y-70426410D01*
X133268550Y-70557685D01*
X133451046Y-70655232D01*
X133649066Y-70715300D01*
X133855000Y-70735583D01*
X134060934Y-70715300D01*
X134258954Y-70655232D01*
X134441450Y-70557685D01*
X134601410Y-70426410D01*
X134732685Y-70266450D01*
X134830232Y-70083954D01*
X134890300Y-69885934D01*
X134910583Y-69680000D01*
X134890300Y-69474066D01*
X134833740Y-69287611D01*
X134836500Y-69237070D01*
X134852225Y-69213810D01*
X135288862Y-68777174D01*
X135334740Y-68755782D01*
X135341189Y-68755500D01*
X143191207Y-68755500D01*
X143238773Y-68772813D01*
X143262943Y-68811334D01*
X143273391Y-68852594D01*
X143273393Y-68852599D01*
X143369949Y-69072726D01*
X143480090Y-69241307D01*
X143501429Y-69273969D01*
X143664236Y-69450825D01*
X143853933Y-69598472D01*
X144065344Y-69712882D01*
X144292703Y-69790934D01*
X144529808Y-69830500D01*
X147230192Y-69830500D01*
X147467297Y-69790934D01*
X147694656Y-69712882D01*
X147906067Y-69598472D01*
X148095764Y-69450825D01*
X148258571Y-69273969D01*
X148390049Y-69072728D01*
X148442732Y-68952621D01*
X148477695Y-68916016D01*
X148528006Y-68910448D01*
X148570127Y-68938522D01*
X148584500Y-68982347D01*
X148584500Y-69623381D01*
X148582925Y-69638566D01*
X148579633Y-69654264D01*
X148579633Y-69654269D01*
X148584216Y-69691032D01*
X148584500Y-69695613D01*
X148584500Y-69701118D01*
X148588215Y-69723380D01*
X148588435Y-69724892D01*
X148595134Y-69778627D01*
X148596884Y-69784504D01*
X148596615Y-69784584D01*
X148597679Y-69787904D01*
X148597945Y-69787813D01*
X148599935Y-69793610D01*
X148625696Y-69841215D01*
X148626396Y-69842574D01*
X148650175Y-69891214D01*
X148653738Y-69896204D01*
X148653510Y-69896366D01*
X148655595Y-69899162D01*
X148655817Y-69898990D01*
X148659579Y-69903823D01*
X148659581Y-69903826D01*
X148699400Y-69940482D01*
X148700504Y-69941541D01*
X149195108Y-70436145D01*
X149216500Y-70482021D01*
X149209026Y-70521451D01*
X149199417Y-70540750D01*
X149199416Y-70540752D01*
X149143602Y-70736917D01*
X149143601Y-70736923D01*
X149124784Y-70939996D01*
X149124784Y-70940003D01*
X149143601Y-71143076D01*
X149143602Y-71143082D01*
X149174052Y-71250099D01*
X149199418Y-71339250D01*
X149290327Y-71521821D01*
X149290328Y-71521822D01*
X149290329Y-71521825D01*
X149413234Y-71684578D01*
X149413235Y-71684579D01*
X149550636Y-71809836D01*
X149563959Y-71821981D01*
X149737363Y-71929348D01*
X149927544Y-72003024D01*
X150128024Y-72040500D01*
X150128026Y-72040500D01*
X150331974Y-72040500D01*
X150331976Y-72040500D01*
X150532456Y-72003024D01*
X150722637Y-71929348D01*
X150896041Y-71821981D01*
X151046764Y-71684579D01*
X151169673Y-71521821D01*
X151260582Y-71339250D01*
X151316397Y-71143083D01*
X151323688Y-71064405D01*
X151335215Y-70940003D01*
X151335215Y-70939996D01*
X151316398Y-70736923D01*
X151316397Y-70736917D01*
X151260583Y-70540755D01*
X151260582Y-70540750D01*
X151169673Y-70358179D01*
X151169670Y-70358175D01*
X151169670Y-70358174D01*
X151046765Y-70195421D01*
X151046764Y-70195420D01*
X150896041Y-70058019D01*
X150876680Y-70046031D01*
X150722637Y-69950652D01*
X150555582Y-69885935D01*
X150532459Y-69876977D01*
X150532458Y-69876976D01*
X150532456Y-69876976D01*
X150444407Y-69860516D01*
X150331979Y-69839500D01*
X150331976Y-69839500D01*
X150128024Y-69839500D01*
X150128020Y-69839500D01*
X149978115Y-69867522D01*
X149927544Y-69876976D01*
X149927542Y-69876976D01*
X149927540Y-69876977D01*
X149807065Y-69923648D01*
X149756457Y-69924687D01*
X149728008Y-69906971D01*
X149545929Y-69724892D01*
X149357174Y-69536136D01*
X149335782Y-69490259D01*
X149335500Y-69483810D01*
X149335500Y-69241307D01*
X149352813Y-69193741D01*
X149396650Y-69168431D01*
X149446500Y-69177221D01*
X149459348Y-69186615D01*
X149563959Y-69281981D01*
X149737363Y-69389348D01*
X149927544Y-69463024D01*
X150128024Y-69500500D01*
X150128026Y-69500500D01*
X150331974Y-69500500D01*
X150331976Y-69500500D01*
X150532456Y-69463024D01*
X150722637Y-69389348D01*
X150896041Y-69281981D01*
X151046764Y-69144579D01*
X151169673Y-68981821D01*
X151260582Y-68799250D01*
X151316397Y-68603083D01*
X151335215Y-68400000D01*
X151333362Y-68380000D01*
X151316398Y-68196923D01*
X151316397Y-68196917D01*
X151311379Y-68179282D01*
X151260582Y-68000750D01*
X151169673Y-67818179D01*
X151169670Y-67818175D01*
X151169670Y-67818174D01*
X151046765Y-67655421D01*
X151046764Y-67655420D01*
X150896041Y-67518019D01*
X150872968Y-67503733D01*
X150722637Y-67410652D01*
X150692012Y-67398788D01*
X150652767Y-67383584D01*
X150614667Y-67350257D01*
X150605499Y-67314581D01*
X150605499Y-67309175D01*
X150605499Y-67244526D01*
X150607074Y-67229354D01*
X150610367Y-67213651D01*
X150605783Y-67176884D01*
X150605500Y-67172305D01*
X150605500Y-67166809D01*
X150605500Y-67166805D01*
X150601780Y-67144514D01*
X150601560Y-67143001D01*
X150598017Y-67114581D01*
X150594865Y-67089293D01*
X150594863Y-67089289D01*
X150594863Y-67089287D01*
X150593115Y-67083413D01*
X150593386Y-67083332D01*
X150592325Y-67080021D01*
X150592058Y-67080113D01*
X150590066Y-67074311D01*
X150564302Y-67026703D01*
X150563602Y-67025343D01*
X150539826Y-66976708D01*
X150536262Y-66971716D01*
X150536491Y-66971552D01*
X150534407Y-66968758D01*
X150534185Y-66968932D01*
X150530419Y-66964093D01*
X150494234Y-66930782D01*
X150490591Y-66927429D01*
X150489495Y-66926377D01*
X149480560Y-65917441D01*
X149470934Y-65905586D01*
X149462167Y-65892166D01*
X149462164Y-65892163D01*
X149432934Y-65869412D01*
X149429496Y-65866377D01*
X149425599Y-65862480D01*
X149416085Y-65855687D01*
X149407204Y-65849346D01*
X149405978Y-65848432D01*
X149391945Y-65837510D01*
X149363270Y-65815191D01*
X149363267Y-65815190D01*
X149363266Y-65815189D01*
X149357876Y-65812272D01*
X149358009Y-65812024D01*
X149354910Y-65810429D01*
X149354787Y-65810682D01*
X149349282Y-65807990D01*
X149297428Y-65792552D01*
X149295973Y-65792086D01*
X149244742Y-65774499D01*
X149238696Y-65773491D01*
X149238742Y-65773214D01*
X149235287Y-65772710D01*
X149235253Y-65772991D01*
X149229170Y-65772232D01*
X149229169Y-65772232D01*
X149229167Y-65772232D01*
X149175084Y-65774468D01*
X149173556Y-65774500D01*
X134889539Y-65774500D01*
X134874354Y-65772925D01*
X134858654Y-65769633D01*
X134821885Y-65774216D01*
X134817307Y-65774500D01*
X134811799Y-65774500D01*
X134789543Y-65778214D01*
X134788032Y-65778434D01*
X134734295Y-65785133D01*
X134728419Y-65786883D01*
X134728340Y-65786618D01*
X134725019Y-65787681D01*
X134725110Y-65787944D01*
X134719311Y-65789935D01*
X134671704Y-65815697D01*
X134670346Y-65816396D01*
X134621707Y-65840175D01*
X134616719Y-65843737D01*
X134616557Y-65843510D01*
X134613758Y-65845597D01*
X134613930Y-65845818D01*
X134609097Y-65849578D01*
X134572426Y-65889412D01*
X134571368Y-65890515D01*
X134081324Y-66380560D01*
X134035448Y-66401952D01*
X134028998Y-66402234D01*
X131812020Y-66402234D01*
X131764454Y-66384921D01*
X131759694Y-66380560D01*
X130351576Y-64972441D01*
X130341950Y-64960586D01*
X130333183Y-64947166D01*
X130333180Y-64947163D01*
X130303950Y-64924412D01*
X130300512Y-64921377D01*
X130296615Y-64917480D01*
X130287101Y-64910687D01*
X130278220Y-64904346D01*
X130276994Y-64903432D01*
X130262961Y-64892510D01*
X130234286Y-64870191D01*
X130234283Y-64870190D01*
X130234282Y-64870189D01*
X130228892Y-64867272D01*
X130229025Y-64867024D01*
X130225926Y-64865429D01*
X130225803Y-64865682D01*
X130220298Y-64862990D01*
X130168444Y-64847552D01*
X130166989Y-64847086D01*
X130115758Y-64829499D01*
X130109712Y-64828491D01*
X130109758Y-64828214D01*
X130106303Y-64827710D01*
X130106269Y-64827991D01*
X130100186Y-64827232D01*
X130100185Y-64827232D01*
X130100183Y-64827232D01*
X130046100Y-64829468D01*
X130044572Y-64829500D01*
X115601617Y-64829500D01*
X115586432Y-64827925D01*
X115570732Y-64824633D01*
X115533963Y-64829216D01*
X115529385Y-64829500D01*
X115523877Y-64829500D01*
X115501621Y-64833214D01*
X115500110Y-64833434D01*
X115446373Y-64840133D01*
X115440497Y-64841883D01*
X115440418Y-64841618D01*
X115437095Y-64842682D01*
X115437186Y-64842945D01*
X115431384Y-64844936D01*
X115417592Y-64852400D01*
X115367519Y-64859810D01*
X115355645Y-64856320D01*
X115202459Y-64796977D01*
X115202458Y-64796976D01*
X115202456Y-64796976D01*
X115114407Y-64780516D01*
X115001979Y-64759500D01*
X115001976Y-64759500D01*
X114798024Y-64759500D01*
X114798020Y-64759500D01*
X114648115Y-64787522D01*
X114597544Y-64796976D01*
X114597542Y-64796976D01*
X114597540Y-64796977D01*
X114427141Y-64862990D01*
X114407363Y-64870652D01*
X114407358Y-64870654D01*
X114407358Y-64870655D01*
X114233958Y-64978019D01*
X114233957Y-64978019D01*
X114083235Y-65115420D01*
X114083234Y-65115421D01*
X113960329Y-65278174D01*
X113960328Y-65278177D01*
X113869418Y-65460750D01*
X113869416Y-65460755D01*
X113813602Y-65656917D01*
X113813601Y-65656923D01*
X113794785Y-65859996D01*
X113794785Y-65860003D01*
X113813601Y-66063076D01*
X113813602Y-66063082D01*
X113869416Y-66259244D01*
X113869418Y-66259250D01*
X113960327Y-66441821D01*
X113960328Y-66441822D01*
X113960329Y-66441825D01*
X114083234Y-66604578D01*
X114083235Y-66604579D01*
X114220636Y-66729836D01*
X114233959Y-66741981D01*
X114407363Y-66849348D01*
X114597544Y-66923024D01*
X114798024Y-66960500D01*
X114798026Y-66960500D01*
X115001974Y-66960500D01*
X115001976Y-66960500D01*
X115202456Y-66923024D01*
X115392637Y-66849348D01*
X115566041Y-66741981D01*
X115716764Y-66604579D01*
X115752653Y-66557055D01*
X115839670Y-66441825D01*
X115839670Y-66441824D01*
X115839673Y-66441821D01*
X115930582Y-66259250D01*
X115986397Y-66063083D01*
X115999893Y-65917441D01*
X116005215Y-65860003D01*
X116005215Y-65859996D01*
X115986806Y-65661328D01*
X115999656Y-65612367D01*
X116040971Y-65583121D01*
X116060490Y-65580500D01*
X118559811Y-65580500D01*
X118607377Y-65597813D01*
X118632687Y-65641650D01*
X118623897Y-65691500D01*
X118612137Y-65706825D01*
X117395940Y-66923022D01*
X116316136Y-68002826D01*
X116270260Y-68024218D01*
X116263810Y-68024500D01*
X115988227Y-68024500D01*
X115940661Y-68007187D01*
X115921985Y-67983485D01*
X115912907Y-67965254D01*
X115839673Y-67818179D01*
X115839670Y-67818175D01*
X115839670Y-67818174D01*
X115716765Y-67655421D01*
X115716764Y-67655420D01*
X115566041Y-67518019D01*
X115542968Y-67503733D01*
X115392637Y-67410652D01*
X115244996Y-67353456D01*
X115202459Y-67336977D01*
X115202458Y-67336976D01*
X115202456Y-67336976D01*
X115114407Y-67320516D01*
X115001979Y-67299500D01*
X115001976Y-67299500D01*
X114798024Y-67299500D01*
X114798020Y-67299500D01*
X114648115Y-67327522D01*
X114597544Y-67336976D01*
X114597542Y-67336976D01*
X114597540Y-67336977D01*
X114437985Y-67398789D01*
X114407363Y-67410652D01*
X114407358Y-67410654D01*
X114407358Y-67410655D01*
X114233958Y-67518019D01*
X114233957Y-67518019D01*
X114083235Y-67655420D01*
X114083234Y-67655421D01*
X113960329Y-67818174D01*
X113960328Y-67818177D01*
X113869418Y-68000750D01*
X113869416Y-68000755D01*
X113813602Y-68196917D01*
X113813601Y-68196923D01*
X113794785Y-68399996D01*
X113794785Y-68400003D01*
X113813601Y-68603076D01*
X113813602Y-68603082D01*
X113869416Y-68799244D01*
X113869418Y-68799250D01*
X113960327Y-68981821D01*
X113960328Y-68981822D01*
X113960329Y-68981825D01*
X114083234Y-69144578D01*
X114083235Y-69144579D01*
X114198682Y-69249822D01*
X114233959Y-69281981D01*
X114407363Y-69389348D01*
X114597544Y-69463024D01*
X114798024Y-69500500D01*
X114798026Y-69500500D01*
X115001974Y-69500500D01*
X115001976Y-69500500D01*
X115202456Y-69463024D01*
X115348540Y-69406430D01*
X115399146Y-69405392D01*
X115438583Y-69437126D01*
X115448394Y-69486785D01*
X115427596Y-69527760D01*
X115125503Y-69829853D01*
X115079627Y-69851245D01*
X115059580Y-69850267D01*
X115001981Y-69839500D01*
X115001976Y-69839500D01*
X114798024Y-69839500D01*
X114798020Y-69839500D01*
X114648115Y-69867522D01*
X114597544Y-69876976D01*
X114597542Y-69876976D01*
X114597540Y-69876977D01*
X114433615Y-69940482D01*
X114407363Y-69950652D01*
X114407358Y-69950654D01*
X114407358Y-69950655D01*
X114233958Y-70058019D01*
X114233957Y-70058019D01*
X114083235Y-70195420D01*
X114083234Y-70195421D01*
X113960329Y-70358174D01*
X113960328Y-70358177D01*
X113869418Y-70540750D01*
X113869416Y-70540755D01*
X113813602Y-70736917D01*
X113813601Y-70736923D01*
X113794785Y-70939996D01*
X113794785Y-70940003D01*
X113813601Y-71143076D01*
X113813602Y-71143082D01*
X113844052Y-71250099D01*
X113869418Y-71339250D01*
X113960327Y-71521821D01*
X113960328Y-71521822D01*
X113960329Y-71521825D01*
X114083234Y-71684578D01*
X114083235Y-71684579D01*
X114220637Y-71809836D01*
X114233959Y-71821981D01*
X114407363Y-71929348D01*
X114597544Y-72003024D01*
X114798024Y-72040500D01*
X114798026Y-72040500D01*
X115001974Y-72040500D01*
X115001976Y-72040500D01*
X115202456Y-72003024D01*
X115392637Y-71929348D01*
X115566041Y-71821981D01*
X115670648Y-71726619D01*
X115717462Y-71707369D01*
X115765699Y-71722715D01*
X115792787Y-71765476D01*
X115794500Y-71781307D01*
X115794499Y-72023810D01*
X115777186Y-72071377D01*
X115772825Y-72076136D01*
X115401990Y-72446971D01*
X115356114Y-72468363D01*
X115322932Y-72463648D01*
X115202459Y-72416977D01*
X115202458Y-72416976D01*
X115202456Y-72416976D01*
X115114407Y-72400516D01*
X115001979Y-72379500D01*
X115001976Y-72379500D01*
X114798024Y-72379500D01*
X114798020Y-72379500D01*
X114648115Y-72407522D01*
X114597544Y-72416976D01*
X114597542Y-72416976D01*
X114597540Y-72416977D01*
X114432105Y-72481067D01*
X114407363Y-72490652D01*
X114407358Y-72490654D01*
X114407358Y-72490655D01*
X114233958Y-72598019D01*
X114233957Y-72598019D01*
X114083235Y-72735420D01*
X114083234Y-72735421D01*
X113960329Y-72898174D01*
X113960328Y-72898177D01*
X113869418Y-73080750D01*
X113869416Y-73080755D01*
X113813602Y-73276917D01*
X113813601Y-73276923D01*
X113794785Y-73479996D01*
X113794785Y-73480003D01*
X113635500Y-73480003D01*
X113635500Y-63955006D01*
X130579390Y-63955006D01*
X130599803Y-64240425D01*
X130660630Y-64520042D01*
X130660635Y-64520060D01*
X130760630Y-64788156D01*
X130897772Y-65039313D01*
X130954745Y-65115420D01*
X131069261Y-65268395D01*
X131271605Y-65470739D01*
X131418229Y-65580500D01*
X131500686Y-65642227D01*
X131679355Y-65739787D01*
X131750130Y-65778434D01*
X131751843Y-65779369D01*
X132019939Y-65879364D01*
X132019945Y-65879365D01*
X132019954Y-65879369D01*
X132299572Y-65940196D01*
X132513539Y-65955499D01*
X132513544Y-65955500D01*
X132513552Y-65955500D01*
X132656456Y-65955500D01*
X132656459Y-65955499D01*
X132870428Y-65940196D01*
X133150046Y-65879369D01*
X133150057Y-65879364D01*
X133150060Y-65879364D01*
X133418156Y-65779369D01*
X133418156Y-65779368D01*
X133418161Y-65779367D01*
X133669315Y-65642226D01*
X133898395Y-65470739D01*
X134100739Y-65268395D01*
X134272226Y-65039315D01*
X134409367Y-64788161D01*
X134509369Y-64520046D01*
X134570196Y-64240428D01*
X134590610Y-63955000D01*
X134590610Y-63954993D01*
X134570196Y-63669574D01*
X134570196Y-63669572D01*
X134509369Y-63389954D01*
X134509365Y-63389945D01*
X134509364Y-63389939D01*
X134409369Y-63121843D01*
X134272227Y-62870686D01*
X134229354Y-62813415D01*
X134100739Y-62641605D01*
X133898395Y-62439261D01*
X133783855Y-62353517D01*
X133669313Y-62267772D01*
X133418156Y-62130630D01*
X133150060Y-62030635D01*
X133150042Y-62030630D01*
X132870425Y-61969803D01*
X132656460Y-61954500D01*
X132656448Y-61954500D01*
X132513552Y-61954500D01*
X132513539Y-61954500D01*
X132299574Y-61969803D01*
X132019957Y-62030630D01*
X132019939Y-62030635D01*
X131751843Y-62130630D01*
X131500686Y-62267772D01*
X131271602Y-62439263D01*
X131069263Y-62641602D01*
X130897772Y-62870686D01*
X130760630Y-63121843D01*
X130660635Y-63389939D01*
X130660630Y-63389957D01*
X130599803Y-63669574D01*
X130579390Y-63954993D01*
X130579390Y-63955006D01*
X113635500Y-63955006D01*
X113635500Y-58115964D01*
X116603263Y-58115964D01*
X116605538Y-58356338D01*
X116647344Y-58593052D01*
X116647345Y-58593054D01*
X116727545Y-58819664D01*
X116727546Y-58819665D01*
X116814791Y-58977300D01*
X116814807Y-58977326D01*
X117491699Y-59992286D01*
X117491700Y-59992287D01*
X117603711Y-60133423D01*
X117603713Y-60133425D01*
X117782101Y-60294553D01*
X117984577Y-60424120D01*
X117984585Y-60424123D01*
X117984588Y-60424125D01*
X118205617Y-60518594D01*
X118439184Y-60575396D01*
X118439187Y-60575396D01*
X118439194Y-60575398D01*
X118643765Y-60590401D01*
X118678932Y-60592981D01*
X118678932Y-60592980D01*
X118678934Y-60592981D01*
X118823428Y-60579630D01*
X118918291Y-60570866D01*
X118918293Y-60570865D01*
X118918298Y-60570865D01*
X119150757Y-60509652D01*
X119369971Y-60411013D01*
X119569959Y-60277637D01*
X119745267Y-60113164D01*
X119891112Y-59922080D01*
X120003517Y-59709596D01*
X120079415Y-59481508D01*
X120116736Y-59244039D01*
X120115658Y-59130200D01*
X120132521Y-59082472D01*
X120176117Y-59056749D01*
X120189656Y-59055500D01*
X122120364Y-59055500D01*
X122167930Y-59072813D01*
X122193240Y-59116650D01*
X122184450Y-59166500D01*
X122165817Y-59187894D01*
X122136645Y-59210600D01*
X122074234Y-59259176D01*
X121911427Y-59436033D01*
X121779951Y-59637271D01*
X121683392Y-59857402D01*
X121624378Y-60090442D01*
X121624378Y-60090443D01*
X121604529Y-60329996D01*
X121604529Y-60330003D01*
X121624378Y-60569556D01*
X121624378Y-60569557D01*
X121683392Y-60802597D01*
X121779951Y-61022728D01*
X121911429Y-61223969D01*
X122074236Y-61400825D01*
X122263933Y-61548472D01*
X122475344Y-61662882D01*
X122702703Y-61740934D01*
X122939808Y-61780500D01*
X125780192Y-61780500D01*
X126017297Y-61740934D01*
X126244656Y-61662882D01*
X126456067Y-61548472D01*
X126645764Y-61400825D01*
X126808571Y-61223969D01*
X126940049Y-61022728D01*
X127036610Y-60802591D01*
X127095620Y-60569563D01*
X127095620Y-60569559D01*
X127095621Y-60569557D01*
X127095621Y-60569556D01*
X127115471Y-60330003D01*
X127115471Y-60329996D01*
X127095621Y-60090443D01*
X127095621Y-60090442D01*
X127070765Y-59992287D01*
X127036610Y-59857409D01*
X126940049Y-59637272D01*
X126808571Y-59436031D01*
X126645764Y-59259175D01*
X126554183Y-59187894D01*
X126527281Y-59145019D01*
X126534234Y-59094879D01*
X126571789Y-59060939D01*
X126599636Y-59055500D01*
X128568383Y-59055500D01*
X128583567Y-59057074D01*
X128599268Y-59060367D01*
X128636036Y-59055783D01*
X128640615Y-59055500D01*
X128646111Y-59055500D01*
X128646114Y-59055500D01*
X128668387Y-59051782D01*
X128669887Y-59051564D01*
X128675604Y-59050851D01*
X128723626Y-59044866D01*
X128723629Y-59044864D01*
X128729507Y-59043115D01*
X128729587Y-59043386D01*
X128732904Y-59042323D01*
X128732812Y-59042055D01*
X128738606Y-59040065D01*
X128738610Y-59040065D01*
X128786235Y-59014290D01*
X128787535Y-59013622D01*
X128836211Y-58989826D01*
X128836213Y-58989823D01*
X128841204Y-58986261D01*
X128841369Y-58986493D01*
X128844158Y-58984414D01*
X128843983Y-58984189D01*
X128848821Y-58980422D01*
X128848821Y-58980421D01*
X128848826Y-58980419D01*
X128885535Y-58940541D01*
X128886517Y-58939518D01*
X130138175Y-57687861D01*
X130184051Y-57666470D01*
X130232945Y-57679571D01*
X130261979Y-57721035D01*
X130264500Y-57740188D01*
X130264499Y-59054672D01*
X130265632Y-59060366D01*
X130279034Y-59127740D01*
X130334399Y-59210601D01*
X130417260Y-59265966D01*
X130490326Y-59280500D01*
X130490328Y-59280500D01*
X132139672Y-59280500D01*
X132139674Y-59280500D01*
X132212740Y-59265966D01*
X132295601Y-59210601D01*
X132350966Y-59127740D01*
X132365500Y-59054674D01*
X132365500Y-57554500D01*
X132382813Y-57506934D01*
X132426650Y-57481624D01*
X132439500Y-57480500D01*
X132730500Y-57480500D01*
X132778066Y-57497813D01*
X132803376Y-57541650D01*
X132804500Y-57554500D01*
X132804500Y-59054674D01*
X132819034Y-59127740D01*
X132874399Y-59210601D01*
X132957260Y-59265966D01*
X133030326Y-59280500D01*
X133030328Y-59280500D01*
X134679672Y-59280500D01*
X134679674Y-59280500D01*
X134752740Y-59265966D01*
X134835601Y-59210601D01*
X134890966Y-59127740D01*
X134905500Y-59054674D01*
X134905500Y-57554499D01*
X134922813Y-57506934D01*
X134966650Y-57481624D01*
X134979500Y-57480500D01*
X135648811Y-57480500D01*
X135696377Y-57497813D01*
X135701137Y-57502174D01*
X135756525Y-57557562D01*
X135777917Y-57603438D01*
X135769612Y-57644488D01*
X135766484Y-57650400D01*
X135690584Y-57878494D01*
X135653264Y-58115960D01*
X135653263Y-58115964D01*
X135655538Y-58356338D01*
X135697344Y-58593052D01*
X135697345Y-58593054D01*
X135777545Y-58819664D01*
X135777546Y-58819665D01*
X135864791Y-58977300D01*
X135864807Y-58977326D01*
X136541699Y-59992286D01*
X136541700Y-59992287D01*
X136653711Y-60133423D01*
X136653713Y-60133425D01*
X136832101Y-60294553D01*
X137034577Y-60424120D01*
X137034585Y-60424123D01*
X137034588Y-60424125D01*
X137255617Y-60518594D01*
X137489184Y-60575396D01*
X137489187Y-60575396D01*
X137489194Y-60575398D01*
X137693766Y-60590401D01*
X137728932Y-60592981D01*
X137728932Y-60592980D01*
X137728934Y-60592981D01*
X137873428Y-60579630D01*
X137968291Y-60570866D01*
X137968293Y-60570865D01*
X137968298Y-60570865D01*
X138200757Y-60509652D01*
X138419971Y-60411013D01*
X138541440Y-60330003D01*
X140654529Y-60330003D01*
X140674378Y-60569556D01*
X140674378Y-60569557D01*
X140733392Y-60802597D01*
X140829950Y-61022728D01*
X140829951Y-61022728D01*
X140961429Y-61223969D01*
X141124236Y-61400825D01*
X141313933Y-61548472D01*
X141525344Y-61662882D01*
X141752703Y-61740934D01*
X141989808Y-61780500D01*
X144830192Y-61780500D01*
X145067297Y-61740934D01*
X145294656Y-61662882D01*
X145506067Y-61548472D01*
X145695764Y-61400825D01*
X145858571Y-61223969D01*
X145990049Y-61022728D01*
X146086610Y-60802591D01*
X146145620Y-60569563D01*
X146145620Y-60569559D01*
X146145621Y-60569557D01*
X146145621Y-60569556D01*
X146165471Y-60330003D01*
X146165471Y-60329996D01*
X146145621Y-60090443D01*
X146145621Y-60090442D01*
X146120765Y-59992287D01*
X146086610Y-59857409D01*
X145990049Y-59637272D01*
X145858571Y-59436031D01*
X145695764Y-59259175D01*
X145506067Y-59111528D01*
X145403061Y-59055784D01*
X145294655Y-58997117D01*
X145067295Y-58919065D01*
X144830194Y-58879500D01*
X144830192Y-58879500D01*
X144734674Y-58879500D01*
X142230192Y-58879500D01*
X141989808Y-58879500D01*
X141989805Y-58879500D01*
X141752704Y-58919065D01*
X141525344Y-58997117D01*
X141313940Y-59111524D01*
X141313928Y-59111531D01*
X141124234Y-59259176D01*
X140961427Y-59436033D01*
X140829951Y-59637271D01*
X140733392Y-59857402D01*
X140674378Y-60090442D01*
X140674378Y-60090443D01*
X140654529Y-60329996D01*
X140654529Y-60330003D01*
X138541440Y-60330003D01*
X138619959Y-60277637D01*
X138795267Y-60113164D01*
X138941112Y-59922080D01*
X139053517Y-59709596D01*
X139129415Y-59481508D01*
X139166736Y-59244039D01*
X139164462Y-59003666D01*
X139122655Y-58766946D01*
X139042455Y-58540336D01*
X138955199Y-58382683D01*
X138486283Y-57679571D01*
X138278300Y-57367713D01*
X138278299Y-57367712D01*
X138166288Y-57226576D01*
X138166284Y-57226572D01*
X137987899Y-57065447D01*
X137924701Y-57025006D01*
X137785423Y-56935880D01*
X137785417Y-56935877D01*
X137785411Y-56935874D01*
X137564382Y-56841405D01*
X137330815Y-56784603D01*
X137330807Y-56784602D01*
X137091067Y-56767018D01*
X137091060Y-56767019D01*
X136851708Y-56789133D01*
X136619239Y-56850349D01*
X136400031Y-56948986D01*
X136400026Y-56948989D01*
X136336523Y-56991340D01*
X136287344Y-57003328D01*
X136243139Y-56982101D01*
X136133479Y-56872441D01*
X136123853Y-56860586D01*
X136115086Y-56847166D01*
X136115083Y-56847163D01*
X136085853Y-56824412D01*
X136082415Y-56821377D01*
X136078518Y-56817480D01*
X136069004Y-56810687D01*
X136060123Y-56804346D01*
X136058897Y-56803432D01*
X136034705Y-56784603D01*
X136016189Y-56770191D01*
X136016186Y-56770190D01*
X136016185Y-56770189D01*
X136010795Y-56767272D01*
X136010928Y-56767024D01*
X136007829Y-56765429D01*
X136007706Y-56765682D01*
X136002201Y-56762990D01*
X135950347Y-56747552D01*
X135948892Y-56747086D01*
X135897661Y-56729499D01*
X135891615Y-56728491D01*
X135891661Y-56728214D01*
X135888206Y-56727710D01*
X135888172Y-56727991D01*
X135882089Y-56727232D01*
X135882088Y-56727232D01*
X135882086Y-56727232D01*
X135828003Y-56729468D01*
X135826475Y-56729500D01*
X130236617Y-56729500D01*
X130221432Y-56727925D01*
X130205731Y-56724633D01*
X130168965Y-56729216D01*
X130164386Y-56729500D01*
X130158879Y-56729500D01*
X130136613Y-56733216D01*
X130135102Y-56733436D01*
X130081374Y-56740134D01*
X130075498Y-56741884D01*
X130075417Y-56741615D01*
X130072102Y-56742677D01*
X130072193Y-56742942D01*
X130066392Y-56744933D01*
X130018789Y-56770694D01*
X130017431Y-56771393D01*
X129968787Y-56795174D01*
X129963797Y-56798737D01*
X129963636Y-56798511D01*
X129960837Y-56800598D01*
X129961008Y-56800818D01*
X129956175Y-56804578D01*
X129919515Y-56844400D01*
X129918457Y-56845503D01*
X128481136Y-58282826D01*
X128435260Y-58304218D01*
X128428810Y-58304500D01*
X119892653Y-58304500D01*
X119845087Y-58287187D01*
X119831088Y-58271558D01*
X119727317Y-58115960D01*
X119412885Y-57644488D01*
X119228300Y-57367713D01*
X119228299Y-57367712D01*
X119116288Y-57226576D01*
X119116284Y-57226572D01*
X118937899Y-57065447D01*
X118874701Y-57025006D01*
X118735423Y-56935880D01*
X118735417Y-56935877D01*
X118735411Y-56935874D01*
X118514382Y-56841405D01*
X118280815Y-56784603D01*
X118280807Y-56784602D01*
X118041067Y-56767018D01*
X118041060Y-56767019D01*
X117801708Y-56789133D01*
X117569239Y-56850349D01*
X117350032Y-56948986D01*
X117350030Y-56948987D01*
X117150486Y-57082066D01*
X117150038Y-57082365D01*
X117150036Y-57082367D01*
X116974734Y-57246834D01*
X116974731Y-57246837D01*
X116828891Y-57437915D01*
X116828885Y-57437924D01*
X116716484Y-57650399D01*
X116640584Y-57878494D01*
X116603264Y-58115960D01*
X116603263Y-58115964D01*
X113635500Y-58115964D01*
X113635500Y-54541246D01*
X116409500Y-54541246D01*
X116450382Y-54759942D01*
X116507031Y-54906168D01*
X116530753Y-54967401D01*
X116647876Y-55156562D01*
X116797764Y-55320981D01*
X116797767Y-55320983D01*
X116975306Y-55455055D01*
X116975309Y-55455057D01*
X116975310Y-55455057D01*
X116975311Y-55455058D01*
X117174472Y-55554229D01*
X117388464Y-55615115D01*
X117554497Y-55630500D01*
X117554499Y-55630500D01*
X117965501Y-55630500D01*
X117965503Y-55630500D01*
X118131536Y-55615115D01*
X118345528Y-55554229D01*
X118544689Y-55455058D01*
X118722236Y-55320981D01*
X118872124Y-55156562D01*
X118989247Y-54967401D01*
X119069618Y-54759940D01*
X119110500Y-54541243D01*
X119110500Y-54346882D01*
X120255804Y-54346882D01*
X120265654Y-54679099D01*
X120265656Y-54679121D01*
X120314730Y-55007856D01*
X120314731Y-55007857D01*
X120402344Y-55328494D01*
X120527266Y-55636516D01*
X120527267Y-55636517D01*
X120687742Y-55927603D01*
X120881519Y-56197665D01*
X121105877Y-56442914D01*
X121357666Y-56659906D01*
X121558494Y-56795174D01*
X121633351Y-56845594D01*
X121633353Y-56845595D01*
X121929067Y-56997374D01*
X122240656Y-57113113D01*
X122563747Y-57191187D01*
X122893805Y-57230500D01*
X122893809Y-57230500D01*
X123143023Y-57230500D01*
X123391807Y-57215736D01*
X123718956Y-57156939D01*
X124036854Y-57059862D01*
X124341040Y-56925868D01*
X124627243Y-56756837D01*
X124891445Y-56555142D01*
X125129937Y-56323616D01*
X125339373Y-56065506D01*
X125516810Y-55784438D01*
X125659760Y-55484357D01*
X125766215Y-55169475D01*
X125834680Y-54844212D01*
X125861689Y-54541246D01*
X127009500Y-54541246D01*
X127050382Y-54759942D01*
X127107031Y-54906168D01*
X127130753Y-54967401D01*
X127247876Y-55156562D01*
X127397764Y-55320981D01*
X127397767Y-55320983D01*
X127575306Y-55455055D01*
X127575309Y-55455057D01*
X127575310Y-55455057D01*
X127575311Y-55455058D01*
X127774472Y-55554229D01*
X127988464Y-55615115D01*
X128154497Y-55630500D01*
X128154499Y-55630500D01*
X128565501Y-55630500D01*
X128565503Y-55630500D01*
X128731536Y-55615115D01*
X128945528Y-55554229D01*
X129144689Y-55455058D01*
X129322236Y-55320981D01*
X129472124Y-55156562D01*
X129589247Y-54967401D01*
X129669618Y-54759940D01*
X129710499Y-54541246D01*
X135459500Y-54541246D01*
X135500382Y-54759942D01*
X135557031Y-54906168D01*
X135580753Y-54967401D01*
X135697876Y-55156562D01*
X135847764Y-55320981D01*
X135847767Y-55320983D01*
X136025306Y-55455055D01*
X136025309Y-55455057D01*
X136025310Y-55455057D01*
X136025311Y-55455058D01*
X136224472Y-55554229D01*
X136438464Y-55615115D01*
X136604497Y-55630500D01*
X136604499Y-55630500D01*
X137015501Y-55630500D01*
X137015503Y-55630500D01*
X137181536Y-55615115D01*
X137395528Y-55554229D01*
X137594689Y-55455058D01*
X137772236Y-55320981D01*
X137922124Y-55156562D01*
X138039247Y-54967401D01*
X138119618Y-54759940D01*
X138160500Y-54541243D01*
X138160500Y-54346882D01*
X139305804Y-54346882D01*
X139315654Y-54679099D01*
X139315656Y-54679121D01*
X139364730Y-55007856D01*
X139364731Y-55007857D01*
X139452344Y-55328494D01*
X139577266Y-55636516D01*
X139577267Y-55636517D01*
X139737742Y-55927603D01*
X139931519Y-56197665D01*
X140155877Y-56442914D01*
X140407666Y-56659906D01*
X140608494Y-56795174D01*
X140683351Y-56845594D01*
X140683353Y-56845595D01*
X140979067Y-56997374D01*
X141290656Y-57113113D01*
X141613747Y-57191187D01*
X141943805Y-57230500D01*
X141943809Y-57230500D01*
X142193023Y-57230500D01*
X142441807Y-57215736D01*
X142768956Y-57156939D01*
X143086854Y-57059862D01*
X143391040Y-56925868D01*
X143677243Y-56756837D01*
X143941445Y-56555142D01*
X144179937Y-56323616D01*
X144389373Y-56065506D01*
X144566810Y-55784438D01*
X144709760Y-55484357D01*
X144816215Y-55169475D01*
X144884680Y-54844212D01*
X144911689Y-54541246D01*
X146059500Y-54541246D01*
X146100382Y-54759942D01*
X146157031Y-54906168D01*
X146180753Y-54967401D01*
X146297876Y-55156562D01*
X146447764Y-55320981D01*
X146447767Y-55320983D01*
X146625306Y-55455055D01*
X146625309Y-55455057D01*
X146625310Y-55455057D01*
X146625311Y-55455058D01*
X146824472Y-55554229D01*
X147038464Y-55615115D01*
X147204497Y-55630500D01*
X147204499Y-55630500D01*
X147615501Y-55630500D01*
X147615503Y-55630500D01*
X147781536Y-55615115D01*
X147995528Y-55554229D01*
X148194689Y-55455058D01*
X148372236Y-55320981D01*
X148522124Y-55156562D01*
X148639247Y-54967401D01*
X148719618Y-54759940D01*
X148760500Y-54541243D01*
X148760500Y-54318757D01*
X148719618Y-54100060D01*
X148639247Y-53892599D01*
X148522124Y-53703438D01*
X148372236Y-53539019D01*
X148362286Y-53531505D01*
X148194693Y-53404944D01*
X148194690Y-53404942D01*
X148065271Y-53340499D01*
X147995528Y-53305771D01*
X147995524Y-53305770D01*
X147995522Y-53305769D01*
X147781537Y-53244885D01*
X147781524Y-53244883D01*
X147615509Y-53229500D01*
X147615503Y-53229500D01*
X147204497Y-53229500D01*
X147204490Y-53229500D01*
X147038475Y-53244883D01*
X147038462Y-53244885D01*
X146824477Y-53305769D01*
X146824472Y-53305771D01*
X146625309Y-53404942D01*
X146625306Y-53404944D01*
X146447767Y-53539016D01*
X146297874Y-53703440D01*
X146180756Y-53892594D01*
X146180751Y-53892604D01*
X146100382Y-54100057D01*
X146059500Y-54318753D01*
X146059500Y-54541246D01*
X144911689Y-54541246D01*
X144914195Y-54513134D01*
X144914195Y-54513120D01*
X144914195Y-54513117D01*
X144904345Y-54180900D01*
X144904345Y-54180890D01*
X144855269Y-53852142D01*
X144767655Y-53531506D01*
X144716326Y-53404944D01*
X144642733Y-53223483D01*
X144579329Y-53108475D01*
X144482258Y-52932397D01*
X144288481Y-52662335D01*
X144064123Y-52417086D01*
X143812334Y-52200094D01*
X143668407Y-52103152D01*
X143536648Y-52014405D01*
X143380253Y-51934134D01*
X143240933Y-51862626D01*
X142929344Y-51746887D01*
X142606253Y-51668813D01*
X142276195Y-51629500D01*
X142026977Y-51629500D01*
X141778201Y-51644263D01*
X141778184Y-51644265D01*
X141451049Y-51703059D01*
X141133147Y-51800137D01*
X140828954Y-51934134D01*
X140542773Y-52103152D01*
X140542752Y-52103166D01*
X140278557Y-52304855D01*
X140278547Y-52304864D01*
X140040068Y-52536378D01*
X140040063Y-52536383D01*
X140040063Y-52536384D01*
X139839168Y-52783969D01*
X139830625Y-52794497D01*
X139830623Y-52794498D01*
X139653189Y-53075562D01*
X139653188Y-53075564D01*
X139510239Y-53375644D01*
X139403787Y-53690515D01*
X139403784Y-53690525D01*
X139335321Y-54015778D01*
X139335320Y-54015787D01*
X139335320Y-54015788D01*
X139320602Y-54180890D01*
X139305804Y-54346879D01*
X139305804Y-54346882D01*
X138160500Y-54346882D01*
X138160500Y-54318757D01*
X138119618Y-54100060D01*
X138039247Y-53892599D01*
X137922124Y-53703438D01*
X137772236Y-53539019D01*
X137762286Y-53531505D01*
X137594693Y-53404944D01*
X137594690Y-53404942D01*
X137465271Y-53340499D01*
X137395528Y-53305771D01*
X137395524Y-53305770D01*
X137395522Y-53305769D01*
X137181537Y-53244885D01*
X137181524Y-53244883D01*
X137015509Y-53229500D01*
X137015503Y-53229500D01*
X136604497Y-53229500D01*
X136604490Y-53229500D01*
X136438475Y-53244883D01*
X136438462Y-53244885D01*
X136224477Y-53305769D01*
X136224472Y-53305771D01*
X136025309Y-53404942D01*
X136025306Y-53404944D01*
X135847767Y-53539016D01*
X135697874Y-53703440D01*
X135580756Y-53892594D01*
X135580751Y-53892604D01*
X135500382Y-54100057D01*
X135459500Y-54318753D01*
X135459500Y-54541246D01*
X129710499Y-54541246D01*
X129710500Y-54541243D01*
X129710500Y-54318757D01*
X129669618Y-54100060D01*
X129589247Y-53892599D01*
X129472124Y-53703438D01*
X129322236Y-53539019D01*
X129312286Y-53531505D01*
X129144693Y-53404944D01*
X129144690Y-53404942D01*
X129015271Y-53340499D01*
X128945528Y-53305771D01*
X128945524Y-53305770D01*
X128945522Y-53305769D01*
X128731537Y-53244885D01*
X128731524Y-53244883D01*
X128565509Y-53229500D01*
X128565503Y-53229500D01*
X128154497Y-53229500D01*
X128154490Y-53229500D01*
X127988475Y-53244883D01*
X127988462Y-53244885D01*
X127774477Y-53305769D01*
X127774472Y-53305771D01*
X127575309Y-53404942D01*
X127575306Y-53404944D01*
X127397767Y-53539016D01*
X127247874Y-53703440D01*
X127130756Y-53892594D01*
X127130751Y-53892604D01*
X127050382Y-54100057D01*
X127009500Y-54318753D01*
X127009500Y-54541246D01*
X125861689Y-54541246D01*
X125864195Y-54513134D01*
X125864195Y-54513120D01*
X125864195Y-54513117D01*
X125854345Y-54180900D01*
X125854345Y-54180890D01*
X125805269Y-53852142D01*
X125717655Y-53531506D01*
X125666326Y-53404944D01*
X125592733Y-53223483D01*
X125529329Y-53108475D01*
X125432258Y-52932397D01*
X125238481Y-52662335D01*
X125014123Y-52417086D01*
X124762334Y-52200094D01*
X124618407Y-52103152D01*
X124486648Y-52014405D01*
X124330253Y-51934134D01*
X124244272Y-51890003D01*
X136844529Y-51890003D01*
X136864378Y-52129556D01*
X136864378Y-52129557D01*
X136882242Y-52200099D01*
X136908769Y-52304855D01*
X136923392Y-52362597D01*
X136999620Y-52536378D01*
X137019951Y-52582728D01*
X137151429Y-52783969D01*
X137314236Y-52960825D01*
X137503933Y-53108472D01*
X137715344Y-53222882D01*
X137942703Y-53300934D01*
X138179808Y-53340500D01*
X138420192Y-53340500D01*
X138657297Y-53300934D01*
X138884656Y-53222882D01*
X139096067Y-53108472D01*
X139285764Y-52960825D01*
X139448571Y-52783969D01*
X139580049Y-52582728D01*
X139676610Y-52362591D01*
X139735620Y-52129563D01*
X139735620Y-52129559D01*
X139735621Y-52129557D01*
X139735621Y-52129556D01*
X139755471Y-51890003D01*
X139755471Y-51889996D01*
X139735621Y-51650443D01*
X139735621Y-51650442D01*
X139734057Y-51644264D01*
X139676610Y-51417409D01*
X139580049Y-51197272D01*
X139448571Y-50996031D01*
X139285764Y-50819175D01*
X139096067Y-50671528D01*
X139007715Y-50623714D01*
X138884655Y-50557117D01*
X138657295Y-50479065D01*
X138420194Y-50439500D01*
X138420192Y-50439500D01*
X138179808Y-50439500D01*
X138179805Y-50439500D01*
X137942704Y-50479065D01*
X137715344Y-50557117D01*
X137503940Y-50671524D01*
X137503928Y-50671531D01*
X137314234Y-50819176D01*
X137151427Y-50996033D01*
X137019951Y-51197271D01*
X136923392Y-51417402D01*
X136864378Y-51650442D01*
X136864378Y-51650443D01*
X136844529Y-51889996D01*
X136844529Y-51890003D01*
X124244272Y-51890003D01*
X124190933Y-51862626D01*
X123879344Y-51746887D01*
X123556253Y-51668813D01*
X123226195Y-51629500D01*
X122976977Y-51629500D01*
X122728201Y-51644263D01*
X122728184Y-51644265D01*
X122401049Y-51703059D01*
X122083147Y-51800137D01*
X121778954Y-51934134D01*
X121492773Y-52103152D01*
X121492752Y-52103166D01*
X121228557Y-52304855D01*
X121228547Y-52304864D01*
X120990068Y-52536378D01*
X120990063Y-52536383D01*
X120990063Y-52536384D01*
X120789168Y-52783969D01*
X120780625Y-52794497D01*
X120780623Y-52794498D01*
X120603189Y-53075562D01*
X120603188Y-53075564D01*
X120460239Y-53375644D01*
X120353787Y-53690515D01*
X120353784Y-53690525D01*
X120285321Y-54015778D01*
X120285320Y-54015787D01*
X120285320Y-54015788D01*
X120270602Y-54180890D01*
X120255804Y-54346879D01*
X120255804Y-54346882D01*
X119110500Y-54346882D01*
X119110500Y-54318757D01*
X119069618Y-54100060D01*
X118989247Y-53892599D01*
X118872124Y-53703438D01*
X118722236Y-53539019D01*
X118712286Y-53531505D01*
X118544693Y-53404944D01*
X118544690Y-53404942D01*
X118415271Y-53340499D01*
X118345528Y-53305771D01*
X118345524Y-53305770D01*
X118345522Y-53305769D01*
X118131537Y-53244885D01*
X118131524Y-53244883D01*
X117965509Y-53229500D01*
X117965503Y-53229500D01*
X117554497Y-53229500D01*
X117554490Y-53229500D01*
X117388475Y-53244883D01*
X117388462Y-53244885D01*
X117174477Y-53305769D01*
X117174472Y-53305771D01*
X116975309Y-53404942D01*
X116975306Y-53404944D01*
X116797767Y-53539016D01*
X116647874Y-53703440D01*
X116530756Y-53892594D01*
X116530751Y-53892604D01*
X116450382Y-54100057D01*
X116409500Y-54318753D01*
X116409500Y-54541246D01*
X113635500Y-54541246D01*
X113635500Y-51890003D01*
X117794529Y-51890003D01*
X117814378Y-52129556D01*
X117814378Y-52129557D01*
X117832242Y-52200099D01*
X117858769Y-52304855D01*
X117873392Y-52362597D01*
X117949620Y-52536378D01*
X117969951Y-52582728D01*
X118101429Y-52783969D01*
X118264236Y-52960825D01*
X118453933Y-53108472D01*
X118665344Y-53222882D01*
X118892703Y-53300934D01*
X119129808Y-53340500D01*
X119370192Y-53340500D01*
X119607297Y-53300934D01*
X119834656Y-53222882D01*
X120046067Y-53108472D01*
X120235764Y-52960825D01*
X120398571Y-52783969D01*
X120530049Y-52582728D01*
X120626610Y-52362591D01*
X120685620Y-52129563D01*
X120685620Y-52129559D01*
X120685621Y-52129557D01*
X120685621Y-52129556D01*
X120705471Y-51890003D01*
X120705471Y-51889996D01*
X120685621Y-51650443D01*
X120685621Y-51650442D01*
X120684057Y-51644264D01*
X120626610Y-51417409D01*
X120530049Y-51197272D01*
X120398571Y-50996031D01*
X120235764Y-50819175D01*
X120046067Y-50671528D01*
X119957715Y-50623714D01*
X119834655Y-50557117D01*
X119607295Y-50479065D01*
X119370194Y-50439500D01*
X119370192Y-50439500D01*
X119129808Y-50439500D01*
X119129805Y-50439500D01*
X118892704Y-50479065D01*
X118665344Y-50557117D01*
X118453940Y-50671524D01*
X118453928Y-50671531D01*
X118264234Y-50819176D01*
X118101427Y-50996033D01*
X117969951Y-51197271D01*
X117873392Y-51417402D01*
X117814378Y-51650442D01*
X117814378Y-51650443D01*
X117794529Y-51889996D01*
X117794529Y-51890003D01*
X113635500Y-51890003D01*
X113635500Y-49330003D01*
X124144529Y-49330003D01*
X124164378Y-49569556D01*
X124164378Y-49569557D01*
X124185957Y-49654769D01*
X124212942Y-49761334D01*
X124223392Y-49802597D01*
X124258919Y-49883589D01*
X124319951Y-50022728D01*
X124451429Y-50223969D01*
X124614236Y-50400825D01*
X124803933Y-50548472D01*
X125015344Y-50662882D01*
X125242703Y-50740934D01*
X125479808Y-50780500D01*
X128180192Y-50780500D01*
X128417297Y-50740934D01*
X128644656Y-50662882D01*
X128856067Y-50548472D01*
X129045764Y-50400825D01*
X129208571Y-50223969D01*
X129340049Y-50022728D01*
X129436610Y-49802591D01*
X129447057Y-49761333D01*
X129475517Y-49719473D01*
X129518793Y-49705500D01*
X129828811Y-49705500D01*
X129876377Y-49722813D01*
X129881137Y-49727174D01*
X130317771Y-50163808D01*
X130339163Y-50209684D01*
X130336259Y-50237615D01*
X130279700Y-50424064D01*
X130259417Y-50630000D01*
X130263507Y-50671531D01*
X130279700Y-50835934D01*
X130339768Y-51033954D01*
X130437315Y-51216450D01*
X130568590Y-51376410D01*
X130728550Y-51507685D01*
X130911046Y-51605232D01*
X131109066Y-51665300D01*
X131315000Y-51685583D01*
X131520934Y-51665300D01*
X131718954Y-51605232D01*
X131901450Y-51507685D01*
X132061410Y-51376410D01*
X132192685Y-51216450D01*
X132290232Y-51033954D01*
X132350300Y-50835934D01*
X132370583Y-50630000D01*
X132799417Y-50630000D01*
X132803507Y-50671531D01*
X132819700Y-50835934D01*
X132879768Y-51033954D01*
X132977315Y-51216450D01*
X133108590Y-51376410D01*
X133268550Y-51507685D01*
X133451046Y-51605232D01*
X133649066Y-51665300D01*
X133855000Y-51685583D01*
X134060934Y-51665300D01*
X134258954Y-51605232D01*
X134441450Y-51507685D01*
X134601410Y-51376410D01*
X134732685Y-51216450D01*
X134830232Y-51033954D01*
X134890300Y-50835934D01*
X134910583Y-50630000D01*
X134890300Y-50424066D01*
X134833740Y-50237611D01*
X134836500Y-50187070D01*
X134852225Y-50163810D01*
X135288862Y-49727174D01*
X135334740Y-49705782D01*
X135341189Y-49705500D01*
X143191207Y-49705500D01*
X143238773Y-49722813D01*
X143262943Y-49761334D01*
X143273391Y-49802594D01*
X143273393Y-49802599D01*
X143369949Y-50022726D01*
X143485653Y-50199822D01*
X143501429Y-50223969D01*
X143664236Y-50400825D01*
X143853933Y-50548472D01*
X144065344Y-50662882D01*
X144292703Y-50740934D01*
X144529808Y-50780500D01*
X147230192Y-50780500D01*
X147467297Y-50740934D01*
X147694656Y-50662882D01*
X147906067Y-50548472D01*
X148095764Y-50400825D01*
X148258571Y-50223969D01*
X148390049Y-50022728D01*
X148486610Y-49802591D01*
X148545620Y-49569563D01*
X148545620Y-49569559D01*
X148545621Y-49569557D01*
X148545621Y-49569556D01*
X148565471Y-49330003D01*
X148565471Y-49329996D01*
X148545621Y-49090443D01*
X148545621Y-49090442D01*
X148545620Y-49090437D01*
X148486610Y-48857409D01*
X148390049Y-48637272D01*
X148258571Y-48436031D01*
X148095764Y-48259175D01*
X147906067Y-48111528D01*
X147817715Y-48063714D01*
X147694655Y-47997117D01*
X147467295Y-47919065D01*
X147230194Y-47879500D01*
X147230192Y-47879500D01*
X147104674Y-47879500D01*
X144770192Y-47879500D01*
X144529808Y-47879500D01*
X144529805Y-47879500D01*
X144292704Y-47919065D01*
X144065344Y-47997117D01*
X143853940Y-48111524D01*
X143853928Y-48111531D01*
X143664234Y-48259176D01*
X143501427Y-48436033D01*
X143369949Y-48637273D01*
X143273393Y-48857400D01*
X143273391Y-48857405D01*
X143262943Y-48898666D01*
X143234483Y-48940527D01*
X143191207Y-48954500D01*
X135201618Y-48954500D01*
X135186433Y-48952925D01*
X135170732Y-48949633D01*
X135133963Y-48954216D01*
X135129385Y-48954500D01*
X135123877Y-48954500D01*
X135101623Y-48958214D01*
X135100112Y-48958434D01*
X135046376Y-48965133D01*
X135040499Y-48966883D01*
X135040419Y-48966616D01*
X135037096Y-48967681D01*
X135037187Y-48967945D01*
X135031385Y-48969936D01*
X134983797Y-48995690D01*
X134982439Y-48996390D01*
X134933788Y-49020174D01*
X134928798Y-49023737D01*
X134928637Y-49023511D01*
X134925837Y-49025599D01*
X134926008Y-49025818D01*
X134921175Y-49029578D01*
X134884504Y-49069412D01*
X134883446Y-49070515D01*
X134321190Y-49632770D01*
X134275313Y-49654162D01*
X134247383Y-49651258D01*
X134060935Y-49594700D01*
X133957966Y-49584558D01*
X133855000Y-49574417D01*
X133854999Y-49574417D01*
X133649064Y-49594700D01*
X133451043Y-49654769D01*
X133268549Y-49752315D01*
X133108590Y-49883589D01*
X133108589Y-49883590D01*
X132977315Y-50043549D01*
X132879769Y-50226043D01*
X132819700Y-50424064D01*
X132799417Y-50630000D01*
X132370583Y-50630000D01*
X132350300Y-50424066D01*
X132290232Y-50226046D01*
X132192685Y-50043550D01*
X132061410Y-49883590D01*
X131901450Y-49752315D01*
X131846256Y-49722813D01*
X131718956Y-49654769D01*
X131718955Y-49654768D01*
X131718954Y-49654768D01*
X131607158Y-49620855D01*
X131520935Y-49594700D01*
X131315000Y-49574417D01*
X131109064Y-49594700D01*
X130922615Y-49651258D01*
X130872071Y-49648498D01*
X130848808Y-49632770D01*
X130313479Y-49097441D01*
X130303853Y-49085586D01*
X130295086Y-49072166D01*
X130295083Y-49072163D01*
X130265853Y-49049412D01*
X130262415Y-49046377D01*
X130258518Y-49042480D01*
X130249004Y-49035687D01*
X130240123Y-49029346D01*
X130238897Y-49028432D01*
X130224864Y-49017510D01*
X130196189Y-48995191D01*
X130196186Y-48995190D01*
X130196185Y-48995189D01*
X130190795Y-48992272D01*
X130190928Y-48992024D01*
X130187829Y-48990429D01*
X130187706Y-48990682D01*
X130182201Y-48987990D01*
X130130347Y-48972552D01*
X130128892Y-48972086D01*
X130077661Y-48954499D01*
X130071615Y-48953491D01*
X130071661Y-48953214D01*
X130068206Y-48952710D01*
X130068172Y-48952991D01*
X130062089Y-48952232D01*
X130062088Y-48952232D01*
X130062086Y-48952232D01*
X130008003Y-48954468D01*
X130006475Y-48954500D01*
X129518793Y-48954500D01*
X129471227Y-48937187D01*
X129447057Y-48898666D01*
X129436610Y-48857409D01*
X129428386Y-48838660D01*
X129340050Y-48637273D01*
X129208572Y-48436033D01*
X129208571Y-48436031D01*
X129045764Y-48259175D01*
X128856067Y-48111528D01*
X128767715Y-48063714D01*
X128644655Y-47997117D01*
X128417295Y-47919065D01*
X128180194Y-47879500D01*
X128180192Y-47879500D01*
X128054674Y-47879500D01*
X125720192Y-47879500D01*
X125479808Y-47879500D01*
X125479805Y-47879500D01*
X125242704Y-47919065D01*
X125015344Y-47997117D01*
X124803940Y-48111524D01*
X124803928Y-48111531D01*
X124614234Y-48259176D01*
X124451427Y-48436033D01*
X124319951Y-48637271D01*
X124223392Y-48857402D01*
X124164378Y-49090442D01*
X124164378Y-49090443D01*
X124144529Y-49329996D01*
X124144529Y-49330003D01*
X113635500Y-49330003D01*
X113635500Y-45407081D01*
X113635733Y-45402937D01*
X113636755Y-45393855D01*
X113638472Y-45378620D01*
X113649607Y-45294041D01*
X113653122Y-45279281D01*
X113667023Y-45239552D01*
X113667714Y-45237741D01*
X113692087Y-45178900D01*
X113697773Y-45167891D01*
X113722530Y-45128492D01*
X113724489Y-45125674D01*
X113763006Y-45075478D01*
X113766167Y-45071874D01*
X113801874Y-45036167D01*
X113805478Y-45033006D01*
X113855674Y-44994489D01*
X113858492Y-44992530D01*
X113897891Y-44967773D01*
X113908900Y-44962087D01*
X113967741Y-44937714D01*
X113969552Y-44937023D01*
X114009281Y-44923122D01*
X114024041Y-44919607D01*
X114108620Y-44908472D01*
X114122767Y-44906878D01*
X114132938Y-44905733D01*
X114137083Y-44905500D01*
X151032918Y-44905500D01*
X151037063Y-44905733D01*
G37*
G04 #@! TD.AperFunction*
G04 #@! TA.AperFunction,NonConductor*
G36*
X149043458Y-66542813D02*
G01*
X149048218Y-66547174D01*
X149782713Y-67281669D01*
X149804105Y-67327545D01*
X149791004Y-67376440D01*
X149757121Y-67402997D01*
X149737370Y-67410648D01*
X149737358Y-67410655D01*
X149563958Y-67518019D01*
X149563957Y-67518019D01*
X149455867Y-67616557D01*
X149409052Y-67635808D01*
X149360815Y-67620462D01*
X149333727Y-67577701D01*
X149333030Y-67574088D01*
X149331779Y-67566591D01*
X149331565Y-67565118D01*
X149326055Y-67520916D01*
X149324866Y-67511374D01*
X149324864Y-67511370D01*
X149323115Y-67505493D01*
X149323386Y-67505412D01*
X149322324Y-67502096D01*
X149322056Y-67502189D01*
X149320065Y-67496389D01*
X149294312Y-67448802D01*
X149293612Y-67447442D01*
X149269826Y-67398788D01*
X149266264Y-67393800D01*
X149266493Y-67393636D01*
X149264407Y-67390839D01*
X149264185Y-67391013D01*
X149260419Y-67386174D01*
X149246339Y-67373212D01*
X149220591Y-67349510D01*
X149219495Y-67348458D01*
X148522864Y-66651826D01*
X148501472Y-66605949D01*
X148514573Y-66557055D01*
X148556037Y-66528021D01*
X148575190Y-66525500D01*
X148995892Y-66525500D01*
X149043458Y-66542813D01*
G37*
G04 #@! TD.AperFunction*
G04 #@! TA.AperFunction,NonConductor*
G36*
X143953029Y-66992813D02*
G01*
X143978339Y-67036650D01*
X143969549Y-67086500D01*
X143940683Y-67114581D01*
X143853940Y-67161524D01*
X143853928Y-67161531D01*
X143664234Y-67309176D01*
X143501427Y-67486033D01*
X143369949Y-67687273D01*
X143273393Y-67907400D01*
X143273391Y-67907405D01*
X143262943Y-67948666D01*
X143234483Y-67990527D01*
X143191207Y-68004500D01*
X135655880Y-68004500D01*
X135608314Y-67987187D01*
X135583004Y-67943350D01*
X135586689Y-67904260D01*
X135613126Y-67834552D01*
X135632167Y-67677734D01*
X135629885Y-67658944D01*
X135613127Y-67520925D01*
X135613126Y-67520916D01*
X135571310Y-67410655D01*
X135557110Y-67373212D01*
X135467372Y-67243204D01*
X135460213Y-67236862D01*
X135349129Y-67138451D01*
X135344152Y-67135839D01*
X135304492Y-67115023D01*
X135270420Y-67077588D01*
X135268382Y-67027010D01*
X135299332Y-66986955D01*
X135338882Y-66975500D01*
X143905463Y-66975500D01*
X143953029Y-66992813D01*
G37*
G04 #@! TD.AperFunction*
G04 #@! TA.AperFunction,NonConductor*
G36*
X128966377Y-66947813D02*
G01*
X128971137Y-66952174D01*
X129522696Y-67503733D01*
X129544088Y-67549609D01*
X129543831Y-67564978D01*
X129535241Y-67635732D01*
X129534722Y-67640003D01*
X129553761Y-67796808D01*
X129553764Y-67796822D01*
X129594510Y-67904260D01*
X129595190Y-67954874D01*
X129563176Y-67994084D01*
X129525319Y-68004500D01*
X129518793Y-68004500D01*
X129471227Y-67987187D01*
X129447057Y-67948666D01*
X129440340Y-67922140D01*
X129436610Y-67907409D01*
X129413504Y-67854733D01*
X129340050Y-67687273D01*
X129261230Y-67566631D01*
X129208571Y-67486031D01*
X129045764Y-67309175D01*
X128856067Y-67161528D01*
X128686164Y-67069581D01*
X128652571Y-67031716D01*
X128651176Y-66981116D01*
X128682632Y-66941458D01*
X128721384Y-66930500D01*
X128918811Y-66930500D01*
X128966377Y-66947813D01*
G37*
G04 #@! TD.AperFunction*
G04 #@! TA.AperFunction,NonConductor*
G36*
X138601715Y-76643956D02*
G01*
X138610232Y-76651269D01*
X139187137Y-77228174D01*
X139208529Y-77274050D01*
X139195428Y-77322945D01*
X139153964Y-77351979D01*
X139134811Y-77354500D01*
X138942653Y-77354500D01*
X138895087Y-77337187D01*
X138881088Y-77321558D01*
X138849404Y-77274050D01*
X138496340Y-76744652D01*
X138484353Y-76695475D01*
X138506781Y-76650095D01*
X138553131Y-76629749D01*
X138601715Y-76643956D01*
G37*
G04 #@! TD.AperFunction*
G04 #@! TA.AperFunction,NonConductor*
G36*
X119431580Y-76463821D02*
G01*
X119440097Y-76471134D01*
X120197137Y-77228174D01*
X120218529Y-77274050D01*
X120205428Y-77322945D01*
X120163964Y-77351979D01*
X120144811Y-77354500D01*
X119892653Y-77354500D01*
X119845087Y-77337187D01*
X119831088Y-77321558D01*
X119799404Y-77274050D01*
X119326205Y-76564517D01*
X119314218Y-76515340D01*
X119336646Y-76469960D01*
X119382996Y-76449614D01*
X119431580Y-76463821D01*
G37*
G04 #@! TD.AperFunction*
M02*
