M48
; DRILL file {KiCad 7.0.5} date Wed Aug 16 13:59:17 2023
; FORMAT={-:-/ absolute / metric / decimal}
; #@! TF.CreationDate,2023-08-16T13:59:17+08:00
; #@! TF.GenerationSoftware,Kicad,Pcbnew,7.0.5
; #@! TF.FileFunction,Plated,1,2,PTH
FMAT,2
METRIC
; #@! TA.AperFunction,Plated,PTH,ViaDrill
T1C0.400
; #@! TA.AperFunction,Plated,PTH,ComponentDrill
T2C0.800
; #@! TA.AperFunction,Plated,PTH,ComponentDrill
T3C1.000
; #@! TA.AperFunction,Plated,PTH,ComponentDrill
T4C1.500
%
G90
G05
T1
X130.19Y-67.64
X134.977Y-67.678
T2
X131.315Y-50.63
X131.315Y-58.23
X131.315Y-69.68
X131.315Y-77.28
X131.315Y-88.73
X131.315Y-96.33
X133.855Y-50.63
X133.855Y-58.23
X133.855Y-69.68
X133.855Y-77.28
X133.855Y-88.73
X133.855Y-96.33
T3
X114.9Y-65.86
X114.9Y-68.4
X114.9Y-70.94
X114.9Y-73.48
X114.9Y-76.02
X114.9Y-78.56
X114.9Y-81.1
X150.23Y-68.4
X150.23Y-70.94
X150.23Y-73.48
X150.23Y-76.02
X150.23Y-78.56
T4
X119.25Y-51.89
X119.25Y-70.94
X119.25Y-89.99
X123.06Y-60.33
X123.06Y-79.38
X123.06Y-98.43
X125.6Y-49.33
X125.6Y-68.38
X125.6Y-87.43
X125.66Y-60.33
X125.66Y-79.38
X125.66Y-98.43
X138.3Y-51.89
X138.3Y-70.94
X138.3Y-89.99
X142.11Y-60.33
X142.11Y-79.38
X142.11Y-98.43
X144.65Y-49.33
X144.65Y-68.38
X144.65Y-87.43
X144.71Y-60.33
X144.71Y-79.38
X144.71Y-98.43
T4
X118.637Y-59.096G85X118.083Y-58.264
G05
X118.637Y-78.146G85X118.083Y-77.314
G05
X118.637Y-97.196G85X118.083Y-96.364
G05
X128.06Y-49.33G85X128.06Y-49.33
G05
X128.06Y-68.38G85X128.06Y-68.38
G05
X128.06Y-87.43G85X128.06Y-87.43
G05
X137.687Y-59.096G85X137.133Y-58.264
G05
X137.687Y-78.146G85X137.133Y-77.314
G05
X137.687Y-97.196G85X137.133Y-96.364
G05
X147.11Y-49.33G85X147.11Y-49.33
G05
X147.11Y-68.38G85X147.11Y-68.38
G05
X147.11Y-87.43G85X147.11Y-87.43
G05
T0
M30
