G04 #@! TF.GenerationSoftware,KiCad,Pcbnew,7.0.5*
G04 #@! TF.CreationDate,2023-08-16T13:59:01+08:00*
G04 #@! TF.ProjectId,LT,4c542e6b-6963-4616-945f-706362585858,rev?*
G04 #@! TF.SameCoordinates,Original*
G04 #@! TF.FileFunction,Legend,Bot*
G04 #@! TF.FilePolarity,Positive*
%FSLAX46Y46*%
G04 Gerber Fmt 4.6, Leading zero omitted, Abs format (unit mm)*
G04 Created by KiCad (PCBNEW 7.0.5) date 2023-08-16 13:59:01*
%MOMM*%
%LPD*%
G01*
G04 APERTURE LIST*
G04 Aperture macros list*
%AMRoundRect*
0 Rectangle with rounded corners*
0 $1 Rounding radius*
0 $2 $3 $4 $5 $6 $7 $8 $9 X,Y pos of 4 corners*
0 Add a 4 corners polygon primitive as box body*
4,1,4,$2,$3,$4,$5,$6,$7,$8,$9,$2,$3,0*
0 Add four circle primitives for the rounded corners*
1,1,$1+$1,$2,$3*
1,1,$1+$1,$4,$5*
1,1,$1+$1,$6,$7*
1,1,$1+$1,$8,$9*
0 Add four rect primitives between the rounded corners*
20,1,$1+$1,$2,$3,$4,$5,0*
20,1,$1+$1,$4,$5,$6,$7,0*
20,1,$1+$1,$6,$7,$8,$9,0*
20,1,$1+$1,$8,$9,$2,$3,0*%
%AMHorizOval*
0 Thick line with rounded ends*
0 $1 width*
0 $2 $3 position (X,Y) of the first rounded end (center of the circle)*
0 $4 $5 position (X,Y) of the second rounded end (center of the circle)*
0 Add line between two ends*
20,1,$1,$2,$3,$4,$5,0*
0 Add two circle primitives to create the rounded ends*
1,1,$1,$2,$3*
1,1,$1,$4,$5*%
%AMOutline4P*
0 Free polygon, 4 corners , with rotation*
0 The origin of the aperture is its center*
0 number of corners: always 4*
0 $1 to $8 corner X, Y*
0 $9 Rotation angle, in degrees counterclockwise*
0 create outline with 4 corners*
4,1,4,$1,$2,$3,$4,$5,$6,$7,$8,$1,$2,$9*%
G04 Aperture macros list end*
%ADD10C,0.150000*%
%ADD11C,0.120000*%
%ADD12C,0.100000*%
%ADD13RoundRect,0.425000X-0.425000X0.425000X-0.425000X-0.425000X0.425000X-0.425000X0.425000X0.425000X0*%
%ADD14O,1.700000X1.700000*%
%ADD15C,3.500000*%
%ADD16HorizOval,1.900000X0.135946X-0.063393X-0.135946X0.063393X0*%
%ADD17C,5.100000*%
%ADD18HorizOval,2.400000X-0.083193X0.543672X0.083193X-0.543672X0*%
%ADD19C,2.400000*%
%ADD20Outline4P,-1.150000X-1.200000X1.150000X-1.200000X1.150000X1.200000X-1.150000X1.200000X335.000000*%
%ADD21Outline4P,-1.200000X-1.200000X1.200000X-1.200000X1.200000X1.200000X-1.200000X1.200000X335.000000*%
%ADD22O,2.200000X1.900000*%
%ADD23HorizOval,2.400000X-0.305164X0.457575X0.305164X-0.457575X0*%
%ADD24Outline4P,-1.150000X-1.200000X1.150000X-1.200000X1.150000X1.200000X-1.150000X1.200000X0.000000*%
%ADD25Outline4P,-1.200000X-1.200000X1.200000X-1.200000X1.200000X1.200000X-1.200000X1.200000X0.000000*%
%ADD26R,1.600000X1.600000*%
%ADD27RoundRect,0.225000X-0.375000X0.225000X-0.375000X-0.225000X0.375000X-0.225000X0.375000X0.225000X0*%
%ADD28O,1.600000X1.600000*%
G04 APERTURE END LIST*
D10*
X228542046Y-94713411D02*
X228973621Y-94914658D01*
X228973621Y-94914658D02*
X229396239Y-94008350D01*
X228792034Y-93726605D02*
X228274144Y-93485109D01*
X228110470Y-94512165D02*
X228533089Y-93605857D01*
X179041428Y-110464819D02*
X179517618Y-110464819D01*
X179517618Y-110464819D02*
X179517618Y-109464819D01*
X178850951Y-109464819D02*
X178279523Y-109464819D01*
X178565237Y-110464819D02*
X178565237Y-109464819D01*
D11*
X221445000Y-98690000D02*
X221445000Y-99150000D01*
X222565000Y-99150000D02*
X222565000Y-103750000D01*
X220325000Y-99150000D02*
X222565000Y-99150000D01*
D12*
X221445000Y-100724400D02*
X221445000Y-101124400D01*
X221445000Y-101124400D02*
X221995000Y-101124400D01*
X221445000Y-101124400D02*
X220895000Y-101124400D01*
X221445000Y-101124400D02*
X221045000Y-101724400D01*
X221845000Y-101724400D02*
X221445000Y-101124400D01*
X221445000Y-101724400D02*
X221445000Y-102224400D01*
X221045000Y-101724400D02*
X221845000Y-101724400D01*
D11*
X222565000Y-103750000D02*
X220325000Y-103750000D01*
X220325000Y-103750000D02*
X220325000Y-99150000D01*
X221445000Y-104230000D02*
X221445000Y-103750000D01*
X202395000Y-98690000D02*
X202395000Y-99150000D01*
X203515000Y-99150000D02*
X203515000Y-103750000D01*
X201275000Y-99150000D02*
X203515000Y-99150000D01*
D12*
X202395000Y-100724400D02*
X202395000Y-101124400D01*
X202395000Y-101124400D02*
X202945000Y-101124400D01*
X202395000Y-101124400D02*
X201845000Y-101124400D01*
X202395000Y-101124400D02*
X201995000Y-101724400D01*
X202795000Y-101724400D02*
X202395000Y-101124400D01*
X202395000Y-101724400D02*
X202395000Y-102224400D01*
X201995000Y-101724400D02*
X202795000Y-101724400D01*
D11*
X203515000Y-103750000D02*
X201275000Y-103750000D01*
X201275000Y-103750000D02*
X201275000Y-99150000D01*
X202395000Y-104230000D02*
X202395000Y-103750000D01*
X204935000Y-98690000D02*
X204935000Y-99150000D01*
X206055000Y-99150000D02*
X206055000Y-103750000D01*
X203815000Y-99150000D02*
X206055000Y-99150000D01*
D12*
X204935000Y-100724400D02*
X204935000Y-101124400D01*
X204935000Y-101124400D02*
X205485000Y-101124400D01*
X204935000Y-101124400D02*
X204385000Y-101124400D01*
X204935000Y-101124400D02*
X204535000Y-101724400D01*
X205335000Y-101724400D02*
X204935000Y-101124400D01*
X204935000Y-101724400D02*
X204935000Y-102224400D01*
X204535000Y-101724400D02*
X205335000Y-101724400D01*
D11*
X206055000Y-103750000D02*
X203815000Y-103750000D01*
X203815000Y-103750000D02*
X203815000Y-99150000D01*
X204935000Y-104230000D02*
X204935000Y-103750000D01*
%LPC*%
D13*
X226490000Y-90650000D03*
D14*
X223950000Y-90650000D03*
X221410000Y-90650000D03*
X218870000Y-90650000D03*
D15*
X181115000Y-101450000D03*
D16*
X230569543Y-104128021D03*
D17*
X235372974Y-106367898D03*
D16*
X240176405Y-108607775D03*
D18*
X229317200Y-108233400D03*
D19*
X232993392Y-102455701D03*
X232879526Y-111715114D03*
D20*
X234057726Y-112264518D03*
D19*
X239830349Y-102819179D03*
X235235927Y-112813921D03*
D21*
X240945107Y-103338999D03*
D19*
X242059866Y-103858820D03*
D15*
X224820000Y-101450000D03*
D22*
X188840000Y-101450000D03*
D17*
X194140000Y-101450000D03*
D22*
X199440000Y-101450000D03*
D23*
X189440000Y-105700000D03*
D19*
X190330000Y-98910000D03*
X194140000Y-107350000D03*
D24*
X195440000Y-107350000D03*
D19*
X196680000Y-96350000D03*
X196740000Y-107350000D03*
D25*
X197910000Y-96350000D03*
D19*
X199140000Y-96350000D03*
D22*
X207890000Y-101450000D03*
D17*
X213190000Y-101450000D03*
D22*
X218490000Y-101450000D03*
D23*
X208490000Y-105700000D03*
D19*
X209380000Y-98910000D03*
X213190000Y-107350000D03*
D24*
X214490000Y-107350000D03*
D19*
X215730000Y-96350000D03*
X215790000Y-107350000D03*
D25*
X216960000Y-96350000D03*
D19*
X218190000Y-96350000D03*
D26*
X221445000Y-97650000D03*
D27*
X221445000Y-99800000D03*
X221445000Y-103100000D03*
D28*
X221445000Y-105250000D03*
D26*
X202395000Y-97650000D03*
D27*
X202395000Y-99800000D03*
X202395000Y-103100000D03*
D28*
X202395000Y-105250000D03*
D26*
X204935000Y-97650000D03*
D27*
X204935000Y-99800000D03*
X204935000Y-103100000D03*
D28*
X204935000Y-105250000D03*
%LPD*%
M02*
