G04 #@! TF.GenerationSoftware,KiCad,Pcbnew,7.0.5*
G04 #@! TF.CreationDate,2023-08-16T13:59:01+08:00*
G04 #@! TF.ProjectId,LT,4c542e6b-6963-4616-945f-706362585858,rev?*
G04 #@! TF.SameCoordinates,Original*
G04 #@! TF.FileFunction,Copper,L2,Bot*
G04 #@! TF.FilePolarity,Positive*
%FSLAX46Y46*%
G04 Gerber Fmt 4.6, Leading zero omitted, Abs format (unit mm)*
G04 Created by KiCad (PCBNEW 7.0.5) date 2023-08-16 13:59:01*
%MOMM*%
%LPD*%
G01*
G04 APERTURE LIST*
G04 Aperture macros list*
%AMRoundRect*
0 Rectangle with rounded corners*
0 $1 Rounding radius*
0 $2 $3 $4 $5 $6 $7 $8 $9 X,Y pos of 4 corners*
0 Add a 4 corners polygon primitive as box body*
4,1,4,$2,$3,$4,$5,$6,$7,$8,$9,$2,$3,0*
0 Add four circle primitives for the rounded corners*
1,1,$1+$1,$2,$3*
1,1,$1+$1,$4,$5*
1,1,$1+$1,$6,$7*
1,1,$1+$1,$8,$9*
0 Add four rect primitives between the rounded corners*
20,1,$1+$1,$2,$3,$4,$5,0*
20,1,$1+$1,$4,$5,$6,$7,0*
20,1,$1+$1,$6,$7,$8,$9,0*
20,1,$1+$1,$8,$9,$2,$3,0*%
%AMHorizOval*
0 Thick line with rounded ends*
0 $1 width*
0 $2 $3 position (X,Y) of the first rounded end (center of the circle)*
0 $4 $5 position (X,Y) of the second rounded end (center of the circle)*
0 Add line between two ends*
20,1,$1,$2,$3,$4,$5,0*
0 Add two circle primitives to create the rounded ends*
1,1,$1,$2,$3*
1,1,$1,$4,$5*%
%AMOutline4P*
0 Free polygon, 4 corners , with rotation*
0 The origin of the aperture is its center*
0 number of corners: always 4*
0 $1 to $8 corner X, Y*
0 $9 Rotation angle, in degrees counterclockwise*
0 create outline with 4 corners*
4,1,4,$1,$2,$3,$4,$5,$6,$7,$8,$1,$2,$9*%
G04 Aperture macros list end*
G04 #@! TA.AperFunction,ComponentPad*
%ADD10RoundRect,0.425000X-0.425000X0.425000X-0.425000X-0.425000X0.425000X-0.425000X0.425000X0.425000X0*%
G04 #@! TD*
G04 #@! TA.AperFunction,ComponentPad*
%ADD11O,1.700000X1.700000*%
G04 #@! TD*
G04 #@! TA.AperFunction,ComponentPad*
%ADD12HorizOval,2.400000X-0.083193X0.543672X0.083193X-0.543672X0*%
G04 #@! TD*
G04 #@! TA.AperFunction,ComponentPad*
%ADD13C,2.400000*%
G04 #@! TD*
G04 #@! TA.AperFunction,SMDPad,CuDef*
%ADD14Outline4P,-1.150000X-1.200000X1.150000X-1.200000X1.150000X1.200000X-1.150000X1.200000X335.000000*%
G04 #@! TD*
G04 #@! TA.AperFunction,SMDPad,CuDef*
%ADD15Outline4P,-1.200000X-1.200000X1.200000X-1.200000X1.200000X1.200000X-1.200000X1.200000X335.000000*%
G04 #@! TD*
G04 #@! TA.AperFunction,ComponentPad*
%ADD16HorizOval,2.400000X-0.305164X0.457575X0.305164X-0.457575X0*%
G04 #@! TD*
G04 #@! TA.AperFunction,SMDPad,CuDef*
%ADD17Outline4P,-1.150000X-1.200000X1.150000X-1.200000X1.150000X1.200000X-1.150000X1.200000X0.000000*%
G04 #@! TD*
G04 #@! TA.AperFunction,SMDPad,CuDef*
%ADD18Outline4P,-1.200000X-1.200000X1.200000X-1.200000X1.200000X1.200000X-1.200000X1.200000X0.000000*%
G04 #@! TD*
G04 #@! TA.AperFunction,ComponentPad*
%ADD19R,1.600000X1.600000*%
G04 #@! TD*
G04 #@! TA.AperFunction,SMDPad,CuDef*
%ADD20RoundRect,0.225000X-0.375000X0.225000X-0.375000X-0.225000X0.375000X-0.225000X0.375000X0.225000X0*%
G04 #@! TD*
G04 #@! TA.AperFunction,ComponentPad*
%ADD21O,1.600000X1.600000*%
G04 #@! TD*
G04 #@! TA.AperFunction,Conductor*
%ADD22C,0.250000*%
G04 #@! TD*
G04 APERTURE END LIST*
D10*
X226490000Y-90650000D03*
D11*
X223950000Y-90650000D03*
X221410000Y-90650000D03*
X218870000Y-90650000D03*
D12*
X229317200Y-108233400D03*
D13*
X232993392Y-102455701D03*
X232879526Y-111715114D03*
D14*
X234057726Y-112264518D03*
D13*
X239830349Y-102819179D03*
X235235927Y-112813921D03*
D15*
X240945107Y-103338999D03*
D13*
X242059866Y-103858820D03*
D16*
X189440000Y-105700000D03*
D13*
X190330000Y-98910000D03*
X194140000Y-107350000D03*
D17*
X195440000Y-107350000D03*
D13*
X196680000Y-96350000D03*
X196740000Y-107350000D03*
D18*
X197910000Y-96350000D03*
D13*
X199140000Y-96350000D03*
D16*
X208490000Y-105700000D03*
D13*
X209380000Y-98910000D03*
X213190000Y-107350000D03*
D17*
X214490000Y-107350000D03*
D13*
X215730000Y-96350000D03*
X215790000Y-107350000D03*
D18*
X216960000Y-96350000D03*
D13*
X218190000Y-96350000D03*
D19*
X221445000Y-97650000D03*
D20*
X221445000Y-99800000D03*
X221445000Y-103100000D03*
D21*
X221445000Y-105250000D03*
D19*
X202395000Y-97650000D03*
D20*
X202395000Y-99800000D03*
X202395000Y-103100000D03*
D21*
X202395000Y-105250000D03*
D19*
X204935000Y-97650000D03*
D20*
X204935000Y-99800000D03*
X204935000Y-103100000D03*
D21*
X204935000Y-105250000D03*
D22*
X218870000Y-92440000D02*
X218870000Y-90650000D01*
X202395000Y-99800000D02*
X202395000Y-97650000D01*
X202395000Y-97650000D02*
X205825000Y-94220000D01*
X205825000Y-94220000D02*
X217090000Y-94220000D01*
X217090000Y-94220000D02*
X218870000Y-92440000D01*
X196680000Y-96350000D02*
X197880000Y-97550000D01*
X197880000Y-97550000D02*
X197880000Y-106210000D01*
X202395000Y-105250000D02*
X202395000Y-103100000D01*
X197880000Y-106210000D02*
X196740000Y-107350000D01*
X219110000Y-94700000D02*
X221410000Y-92400000D01*
X204935000Y-97650000D02*
X204935000Y-99800000D01*
X221410000Y-92400000D02*
X221410000Y-90650000D01*
X204935000Y-97650000D02*
X207885000Y-94700000D01*
X207885000Y-94700000D02*
X219110000Y-94700000D01*
X204935000Y-103100000D02*
X204935000Y-105250000D01*
X216990000Y-106150000D02*
X216990000Y-97610000D01*
X215790000Y-107350000D02*
X216990000Y-106150000D01*
X216990000Y-97610000D02*
X215730000Y-96350000D01*
X221445000Y-97650000D02*
X221445000Y-93155000D01*
X221445000Y-99800000D02*
X221445000Y-97650000D01*
X221445000Y-93155000D02*
X223950000Y-90650000D01*
X223220000Y-105250000D02*
X221445000Y-105250000D01*
X239830349Y-102819179D02*
X238630349Y-104019179D01*
X229685114Y-111715114D02*
X223220000Y-105250000D01*
X238630349Y-109419499D02*
X235235927Y-112813921D01*
X238630349Y-104019179D02*
X238630349Y-109419499D01*
X221445000Y-105250000D02*
X221445000Y-103100000D01*
X232879526Y-111715114D02*
X229685114Y-111715114D01*
X209380000Y-98910000D02*
X209380000Y-104810000D01*
X226490000Y-90650000D02*
X226490000Y-95952309D01*
X232993392Y-104557208D02*
X229317200Y-108233400D01*
X226490000Y-95952309D02*
X232993392Y-102455701D01*
X232993392Y-102455701D02*
X232993392Y-104557208D01*
X209380000Y-104810000D02*
X208490000Y-105700000D01*
X190330000Y-104810000D02*
X190330000Y-98910000D01*
X189440000Y-105700000D02*
X190330000Y-104810000D01*
G04 #@! TA.AperFunction,NonConductor*
G36*
X227733066Y-89397813D02*
G01*
X227758376Y-89441650D01*
X227759500Y-89454500D01*
X227759500Y-92309142D01*
X227759476Y-92310147D01*
X227759531Y-92310297D01*
X227759644Y-92310410D01*
X227760544Y-92310805D01*
X230758746Y-93707088D01*
X230759036Y-93707259D01*
X230765528Y-93710286D01*
X230765530Y-93710288D01*
X247557635Y-101540574D01*
X247557663Y-101540599D01*
X247575725Y-101549010D01*
X247579387Y-101550974D01*
X247600379Y-101563803D01*
X247672196Y-101609557D01*
X247684105Y-101618994D01*
X247714304Y-101648452D01*
X247715748Y-101649942D01*
X247758573Y-101696677D01*
X247766175Y-101706521D01*
X247791509Y-101745750D01*
X247793247Y-101748739D01*
X247822317Y-101804580D01*
X247824269Y-101809016D01*
X247841612Y-101856668D01*
X247842968Y-101861319D01*
X247856582Y-101922732D01*
X247857173Y-101926142D01*
X247862989Y-101972562D01*
X247863493Y-101984988D01*
X247860737Y-102048128D01*
X247860589Y-102050199D01*
X247856368Y-102092373D01*
X247853311Y-102107257D01*
X247827924Y-102187775D01*
X247819837Y-102211848D01*
X247818296Y-102215705D01*
X240191847Y-118570675D01*
X240189884Y-118574334D01*
X240177210Y-118595076D01*
X240131280Y-118667170D01*
X240121845Y-118679077D01*
X240092615Y-118709048D01*
X240091123Y-118710494D01*
X240044112Y-118753571D01*
X240034268Y-118761173D01*
X239995327Y-118786325D01*
X239992335Y-118788065D01*
X239936125Y-118817326D01*
X239931690Y-118819278D01*
X239884376Y-118836498D01*
X239879725Y-118837854D01*
X239817912Y-118851557D01*
X239814502Y-118852147D01*
X239768429Y-118857919D01*
X239756002Y-118858423D01*
X239692483Y-118855649D01*
X239690411Y-118855500D01*
X239648547Y-118851309D01*
X239633667Y-118848252D01*
X239552979Y-118822811D01*
X239529019Y-118814759D01*
X239525166Y-118813219D01*
X222727287Y-110980239D01*
X222724784Y-110978490D01*
X222715100Y-110974500D01*
X222715099Y-110974500D01*
X178117075Y-110974500D01*
X178112936Y-110974267D01*
X178092976Y-110972018D01*
X178088678Y-110971534D01*
X178004049Y-110960392D01*
X177989269Y-110956873D01*
X177949609Y-110942996D01*
X177947680Y-110942260D01*
X177888919Y-110917920D01*
X177877873Y-110912214D01*
X177864482Y-110903800D01*
X177838498Y-110887472D01*
X177835658Y-110885497D01*
X177804313Y-110861446D01*
X177785496Y-110847007D01*
X177781858Y-110843816D01*
X177746182Y-110808140D01*
X177742994Y-110804505D01*
X177704501Y-110754340D01*
X177702526Y-110751500D01*
X177693739Y-110737518D01*
X177677779Y-110712117D01*
X177672082Y-110701089D01*
X177647723Y-110642281D01*
X177647015Y-110640423D01*
X177633123Y-110600722D01*
X177629607Y-110585954D01*
X177618471Y-110501372D01*
X177615731Y-110477052D01*
X177615499Y-110472936D01*
X177615499Y-101450006D01*
X179109390Y-101450006D01*
X179129803Y-101735425D01*
X179190630Y-102015042D01*
X179190635Y-102015060D01*
X179290630Y-102283156D01*
X179427772Y-102534313D01*
X179513517Y-102648854D01*
X179599261Y-102763395D01*
X179801605Y-102965739D01*
X179961590Y-103085502D01*
X180030686Y-103137227D01*
X180281843Y-103274369D01*
X180549939Y-103374364D01*
X180549945Y-103374365D01*
X180549954Y-103374369D01*
X180829572Y-103435196D01*
X181043539Y-103450499D01*
X181043544Y-103450500D01*
X181043552Y-103450500D01*
X181186456Y-103450500D01*
X181186459Y-103450499D01*
X181400428Y-103435196D01*
X181680046Y-103374369D01*
X181680057Y-103374364D01*
X181680060Y-103374364D01*
X181948156Y-103274369D01*
X181948156Y-103274368D01*
X181948161Y-103274367D01*
X182199315Y-103137226D01*
X182428395Y-102965739D01*
X182630739Y-102763395D01*
X182802226Y-102534315D01*
X182939367Y-102283161D01*
X182940126Y-102281126D01*
X183039364Y-102015060D01*
X183039364Y-102015057D01*
X183039369Y-102015046D01*
X183100196Y-101735428D01*
X183109198Y-101609557D01*
X183112653Y-101561246D01*
X187489500Y-101561246D01*
X187530382Y-101779942D01*
X187585700Y-101922732D01*
X187610753Y-101987401D01*
X187649636Y-102050199D01*
X187725499Y-102172724D01*
X187727876Y-102176562D01*
X187877764Y-102340981D01*
X187885180Y-102346581D01*
X188055306Y-102475055D01*
X188055309Y-102475057D01*
X188055310Y-102475057D01*
X188055311Y-102475058D01*
X188254472Y-102574229D01*
X188468464Y-102635115D01*
X188634497Y-102650500D01*
X188634499Y-102650500D01*
X189045501Y-102650500D01*
X189045503Y-102650500D01*
X189211536Y-102635115D01*
X189425528Y-102574229D01*
X189624689Y-102475058D01*
X189653407Y-102453371D01*
X189802235Y-102340982D01*
X189802236Y-102340981D01*
X189825813Y-102315118D01*
X189870652Y-102291629D01*
X189920099Y-102302458D01*
X189951017Y-102342537D01*
X189954500Y-102364971D01*
X189954500Y-103909669D01*
X189937187Y-103957235D01*
X189893350Y-103982545D01*
X189843500Y-103973755D01*
X189840615Y-103972000D01*
X189817540Y-103957235D01*
X189815423Y-103955880D01*
X189815419Y-103955878D01*
X189815411Y-103955874D01*
X189594382Y-103861405D01*
X189360815Y-103804603D01*
X189360807Y-103804602D01*
X189121067Y-103787018D01*
X189121060Y-103787019D01*
X188881708Y-103809133D01*
X188649239Y-103870349D01*
X188444302Y-103962565D01*
X188430030Y-103968987D01*
X188357477Y-104017374D01*
X188230038Y-104102365D01*
X188230036Y-104102367D01*
X188054734Y-104266834D01*
X188054731Y-104266837D01*
X187908891Y-104457915D01*
X187908885Y-104457924D01*
X187796484Y-104670399D01*
X187720584Y-104898494D01*
X187683264Y-105135960D01*
X187683263Y-105135964D01*
X187685538Y-105376338D01*
X187727344Y-105613052D01*
X187807542Y-105839656D01*
X187807545Y-105839664D01*
X187807546Y-105839665D01*
X187894791Y-105997300D01*
X187894807Y-105997326D01*
X188571699Y-107012286D01*
X188571700Y-107012287D01*
X188683711Y-107153423D01*
X188683713Y-107153425D01*
X188862101Y-107314553D01*
X189064577Y-107444120D01*
X189064585Y-107444123D01*
X189064588Y-107444125D01*
X189285617Y-107538594D01*
X189519184Y-107595396D01*
X189519187Y-107595396D01*
X189519194Y-107595398D01*
X189723765Y-107610401D01*
X189758932Y-107612981D01*
X189758932Y-107612980D01*
X189758934Y-107612981D01*
X189903428Y-107599630D01*
X189998291Y-107590866D01*
X189998293Y-107590865D01*
X189998298Y-107590865D01*
X190230757Y-107529652D01*
X190449971Y-107431013D01*
X190571440Y-107350003D01*
X192684529Y-107350003D01*
X192704378Y-107589556D01*
X192704378Y-107589557D01*
X192763392Y-107822597D01*
X192782209Y-107865495D01*
X192859951Y-108042728D01*
X192991429Y-108243969D01*
X193154236Y-108420825D01*
X193343933Y-108568472D01*
X193555344Y-108682882D01*
X193782703Y-108760934D01*
X194019808Y-108800500D01*
X194265326Y-108800500D01*
X196619808Y-108800500D01*
X196860192Y-108800500D01*
X197097297Y-108760934D01*
X197324656Y-108682882D01*
X197536067Y-108568472D01*
X197725764Y-108420825D01*
X197888571Y-108243969D01*
X198020049Y-108042728D01*
X198116610Y-107822591D01*
X198175620Y-107589563D01*
X198175620Y-107589559D01*
X198175621Y-107589557D01*
X198175621Y-107589556D01*
X198195471Y-107350003D01*
X198195471Y-107349996D01*
X198175621Y-107110443D01*
X198175621Y-107110442D01*
X198150765Y-107012287D01*
X198116610Y-106877409D01*
X198023196Y-106664448D01*
X198019944Y-106613934D01*
X198038636Y-106582399D01*
X198112558Y-106508477D01*
X198124400Y-106498861D01*
X198137836Y-106490084D01*
X198160594Y-106460843D01*
X198163631Y-106457405D01*
X198167519Y-106453518D01*
X198180636Y-106435145D01*
X198181552Y-106433916D01*
X198184536Y-106430082D01*
X198214809Y-106391189D01*
X198214810Y-106391183D01*
X198217729Y-106385792D01*
X198217978Y-106385926D01*
X198219571Y-106382832D01*
X198219316Y-106382708D01*
X198222009Y-106377200D01*
X198222008Y-106377200D01*
X198222010Y-106377199D01*
X198237459Y-106325302D01*
X198237900Y-106323925D01*
X198255500Y-106272660D01*
X198255500Y-106272656D01*
X198256510Y-106266609D01*
X198256786Y-106266655D01*
X198257289Y-106263207D01*
X198257009Y-106263173D01*
X198257765Y-106257096D01*
X198257768Y-106257089D01*
X198255931Y-106212656D01*
X198255532Y-106203002D01*
X198255500Y-106201473D01*
X198255500Y-105250000D01*
X201339417Y-105250000D01*
X201345260Y-105309320D01*
X201359700Y-105455935D01*
X201363786Y-105469404D01*
X201417711Y-105647174D01*
X201419769Y-105653956D01*
X201517315Y-105836450D01*
X201643539Y-105990256D01*
X201648590Y-105996410D01*
X201808550Y-106127685D01*
X201991046Y-106225232D01*
X202189066Y-106285300D01*
X202395000Y-106305583D01*
X202600934Y-106285300D01*
X202798954Y-106225232D01*
X202981450Y-106127685D01*
X203141410Y-105996410D01*
X203272685Y-105836450D01*
X203370232Y-105653954D01*
X203430300Y-105455934D01*
X203450583Y-105250000D01*
X203879417Y-105250000D01*
X203885260Y-105309320D01*
X203899700Y-105455935D01*
X203903786Y-105469404D01*
X203957711Y-105647174D01*
X203959769Y-105653956D01*
X204057315Y-105836450D01*
X204183539Y-105990256D01*
X204188590Y-105996410D01*
X204348550Y-106127685D01*
X204531046Y-106225232D01*
X204729066Y-106285300D01*
X204935000Y-106305583D01*
X205140934Y-106285300D01*
X205338954Y-106225232D01*
X205521450Y-106127685D01*
X205681410Y-105996410D01*
X205812685Y-105836450D01*
X205910232Y-105653954D01*
X205970300Y-105455934D01*
X205990583Y-105250000D01*
X205970300Y-105044066D01*
X205910232Y-104846046D01*
X205812685Y-104663550D01*
X205681410Y-104503590D01*
X205625765Y-104457924D01*
X205521450Y-104372315D01*
X205349616Y-104280466D01*
X205315828Y-104242774D01*
X205310500Y-104215204D01*
X205310500Y-103871806D01*
X205327813Y-103824240D01*
X205371650Y-103798930D01*
X205376587Y-103798230D01*
X205412114Y-103794412D01*
X205540226Y-103746628D01*
X205649687Y-103664687D01*
X205731628Y-103555226D01*
X205779412Y-103427114D01*
X205785500Y-103370485D01*
X205785499Y-102829516D01*
X205779412Y-102772886D01*
X205731628Y-102644774D01*
X205649687Y-102535313D01*
X205567744Y-102473972D01*
X205540225Y-102453371D01*
X205540226Y-102453371D01*
X205412114Y-102405588D01*
X205355486Y-102399500D01*
X204514515Y-102399500D01*
X204514514Y-102399501D01*
X204457885Y-102405588D01*
X204329774Y-102453371D01*
X204220313Y-102535313D01*
X204138371Y-102644774D01*
X204090588Y-102772884D01*
X204090588Y-102772887D01*
X204084500Y-102829513D01*
X204084500Y-103370484D01*
X204084501Y-103370485D01*
X204090588Y-103427114D01*
X204138371Y-103555225D01*
X204138372Y-103555226D01*
X204220313Y-103664687D01*
X204329774Y-103746628D01*
X204329773Y-103746628D01*
X204377557Y-103764450D01*
X204457886Y-103794412D01*
X204493410Y-103798231D01*
X204538853Y-103820529D01*
X204559332Y-103866821D01*
X204559500Y-103871807D01*
X204559500Y-104215204D01*
X204542187Y-104262770D01*
X204520384Y-104280466D01*
X204348549Y-104372315D01*
X204188590Y-104503589D01*
X204188589Y-104503590D01*
X204057315Y-104663549D01*
X203959769Y-104846043D01*
X203959768Y-104846045D01*
X203959768Y-104846046D01*
X203954573Y-104863172D01*
X203899700Y-105044064D01*
X203890785Y-105134576D01*
X203879417Y-105250000D01*
X203450583Y-105250000D01*
X203430300Y-105044066D01*
X203370232Y-104846046D01*
X203272685Y-104663550D01*
X203141410Y-104503590D01*
X203085765Y-104457924D01*
X202981450Y-104372315D01*
X202809615Y-104280466D01*
X202775827Y-104242775D01*
X202770499Y-104215204D01*
X202770499Y-103871806D01*
X202787812Y-103824240D01*
X202831649Y-103798930D01*
X202836583Y-103798231D01*
X202872114Y-103794412D01*
X203000226Y-103746628D01*
X203109687Y-103664687D01*
X203191628Y-103555226D01*
X203239412Y-103427114D01*
X203245500Y-103370485D01*
X203245499Y-102829516D01*
X203239412Y-102772886D01*
X203191628Y-102644774D01*
X203109687Y-102535313D01*
X203027744Y-102473972D01*
X203000225Y-102453371D01*
X203000226Y-102453371D01*
X202872114Y-102405588D01*
X202815486Y-102399500D01*
X201974515Y-102399500D01*
X201974514Y-102399501D01*
X201917885Y-102405588D01*
X201789774Y-102453371D01*
X201680313Y-102535313D01*
X201598371Y-102644774D01*
X201550588Y-102772884D01*
X201550588Y-102772887D01*
X201544500Y-102829513D01*
X201544500Y-103370484D01*
X201544501Y-103370485D01*
X201550588Y-103427114D01*
X201598371Y-103555225D01*
X201598372Y-103555226D01*
X201680313Y-103664687D01*
X201789774Y-103746628D01*
X201789773Y-103746628D01*
X201837557Y-103764450D01*
X201917886Y-103794412D01*
X201953410Y-103798231D01*
X201998853Y-103820529D01*
X202019332Y-103866821D01*
X202019500Y-103871807D01*
X202019500Y-104215204D01*
X202002187Y-104262770D01*
X201980384Y-104280466D01*
X201808549Y-104372315D01*
X201648590Y-104503589D01*
X201648589Y-104503590D01*
X201517315Y-104663549D01*
X201419769Y-104846043D01*
X201419768Y-104846045D01*
X201419768Y-104846046D01*
X201414573Y-104863172D01*
X201359700Y-105044064D01*
X201350785Y-105134576D01*
X201339417Y-105250000D01*
X198255500Y-105250000D01*
X198255500Y-102288185D01*
X198272813Y-102240619D01*
X198316650Y-102215309D01*
X198366500Y-102224099D01*
X198384187Y-102238332D01*
X198477763Y-102340981D01*
X198477764Y-102340982D01*
X198655306Y-102475055D01*
X198655309Y-102475057D01*
X198655310Y-102475057D01*
X198655311Y-102475058D01*
X198854472Y-102574229D01*
X199068464Y-102635115D01*
X199234497Y-102650500D01*
X199234499Y-102650500D01*
X199645501Y-102650500D01*
X199645503Y-102650500D01*
X199811536Y-102635115D01*
X200025528Y-102574229D01*
X200224689Y-102475058D01*
X200402236Y-102340981D01*
X200552124Y-102176562D01*
X200669247Y-101987401D01*
X200749618Y-101779940D01*
X200790499Y-101561246D01*
X206539500Y-101561246D01*
X206580382Y-101779942D01*
X206635700Y-101922732D01*
X206660753Y-101987401D01*
X206699636Y-102050199D01*
X206775499Y-102172724D01*
X206777876Y-102176562D01*
X206927764Y-102340981D01*
X206935180Y-102346581D01*
X207105306Y-102475055D01*
X207105309Y-102475057D01*
X207105310Y-102475057D01*
X207105311Y-102475058D01*
X207304472Y-102574229D01*
X207518464Y-102635115D01*
X207684497Y-102650500D01*
X207684499Y-102650500D01*
X208095501Y-102650500D01*
X208095503Y-102650500D01*
X208261536Y-102635115D01*
X208475528Y-102574229D01*
X208674689Y-102475058D01*
X208703407Y-102453371D01*
X208852235Y-102340982D01*
X208852236Y-102340981D01*
X208875813Y-102315118D01*
X208920652Y-102291629D01*
X208970099Y-102302458D01*
X209001017Y-102342537D01*
X209004500Y-102364971D01*
X209004500Y-103909669D01*
X208987187Y-103957235D01*
X208943350Y-103982545D01*
X208893500Y-103973755D01*
X208890615Y-103972000D01*
X208867540Y-103957235D01*
X208865423Y-103955880D01*
X208865419Y-103955878D01*
X208865411Y-103955874D01*
X208644382Y-103861405D01*
X208410815Y-103804603D01*
X208410807Y-103804602D01*
X208171067Y-103787018D01*
X208171060Y-103787019D01*
X207931708Y-103809133D01*
X207699239Y-103870349D01*
X207494302Y-103962565D01*
X207480030Y-103968987D01*
X207407477Y-104017374D01*
X207280038Y-104102365D01*
X207280036Y-104102367D01*
X207104734Y-104266834D01*
X207104731Y-104266837D01*
X206958891Y-104457915D01*
X206958885Y-104457924D01*
X206846484Y-104670399D01*
X206770584Y-104898494D01*
X206733264Y-105135960D01*
X206733263Y-105135964D01*
X206735538Y-105376338D01*
X206777344Y-105613052D01*
X206857542Y-105839656D01*
X206857545Y-105839664D01*
X206857546Y-105839665D01*
X206944791Y-105997300D01*
X206944807Y-105997326D01*
X207621699Y-107012286D01*
X207621700Y-107012287D01*
X207733711Y-107153423D01*
X207733713Y-107153425D01*
X207912101Y-107314553D01*
X208114577Y-107444120D01*
X208114585Y-107444123D01*
X208114588Y-107444125D01*
X208335617Y-107538594D01*
X208569184Y-107595396D01*
X208569187Y-107595396D01*
X208569194Y-107595398D01*
X208773765Y-107610401D01*
X208808932Y-107612981D01*
X208808932Y-107612980D01*
X208808934Y-107612981D01*
X208953428Y-107599630D01*
X209048291Y-107590866D01*
X209048293Y-107590865D01*
X209048298Y-107590865D01*
X209280757Y-107529652D01*
X209499971Y-107431013D01*
X209699959Y-107297637D01*
X209875267Y-107133164D01*
X210021112Y-106942080D01*
X210133517Y-106729596D01*
X210209415Y-106501508D01*
X210246736Y-106264039D01*
X210244462Y-106023666D01*
X210202655Y-105786946D01*
X210122455Y-105560336D01*
X210035199Y-105402683D01*
X209750738Y-104976152D01*
X209738751Y-104926975D01*
X209742312Y-104911073D01*
X209755500Y-104872660D01*
X209755500Y-104872656D01*
X209756510Y-104866610D01*
X209756786Y-104866656D01*
X209757289Y-104863206D01*
X209757009Y-104863172D01*
X209757765Y-104857095D01*
X209757768Y-104857088D01*
X209755530Y-104802984D01*
X209755500Y-104801521D01*
X209755500Y-101366882D01*
X210385804Y-101366882D01*
X210395654Y-101699099D01*
X210395656Y-101699121D01*
X210444730Y-102027856D01*
X210444731Y-102027857D01*
X210532344Y-102348494D01*
X210657266Y-102656516D01*
X210716190Y-102763397D01*
X210799138Y-102913858D01*
X210817739Y-102947597D01*
X210817742Y-102947603D01*
X211006706Y-103210958D01*
X211011519Y-103217665D01*
X211235877Y-103462914D01*
X211487666Y-103679906D01*
X211692316Y-103817748D01*
X211763351Y-103865594D01*
X211763353Y-103865595D01*
X212059067Y-104017374D01*
X212370656Y-104133113D01*
X212693747Y-104211187D01*
X213023805Y-104250500D01*
X213023809Y-104250500D01*
X213273023Y-104250500D01*
X213521807Y-104235736D01*
X213848956Y-104176939D01*
X214166854Y-104079862D01*
X214471040Y-103945868D01*
X214757243Y-103776837D01*
X215021445Y-103575142D01*
X215259937Y-103343616D01*
X215469373Y-103085506D01*
X215646810Y-102804438D01*
X215789760Y-102504357D01*
X215896215Y-102189475D01*
X215964680Y-101864212D01*
X215994195Y-101533134D01*
X215994195Y-101533120D01*
X215994195Y-101533117D01*
X215984345Y-101200900D01*
X215984345Y-101200890D01*
X215935269Y-100872142D01*
X215865507Y-100616839D01*
X215847655Y-100551505D01*
X215722733Y-100243483D01*
X215663811Y-100136605D01*
X215562258Y-99952397D01*
X215368481Y-99682335D01*
X215144123Y-99437086D01*
X214892334Y-99220094D01*
X214748407Y-99123152D01*
X214616648Y-99034405D01*
X214460253Y-98954134D01*
X214320933Y-98882626D01*
X214009344Y-98766887D01*
X213686253Y-98688813D01*
X213356195Y-98649500D01*
X213106977Y-98649500D01*
X212858201Y-98664263D01*
X212858184Y-98664265D01*
X212531049Y-98723059D01*
X212213147Y-98820137D01*
X211908954Y-98954134D01*
X211622773Y-99123152D01*
X211622752Y-99123166D01*
X211358557Y-99324855D01*
X211358547Y-99324864D01*
X211120068Y-99556378D01*
X211120063Y-99556383D01*
X211120063Y-99556384D01*
X210919168Y-99803969D01*
X210910625Y-99814497D01*
X210910623Y-99814498D01*
X210733189Y-100095562D01*
X210733188Y-100095564D01*
X210590239Y-100395644D01*
X210483787Y-100710515D01*
X210483784Y-100710525D01*
X210415321Y-101035778D01*
X210415320Y-101035787D01*
X210415320Y-101035788D01*
X210400602Y-101200890D01*
X210385804Y-101366879D01*
X210385804Y-101366882D01*
X209755500Y-101366882D01*
X209755500Y-100367516D01*
X209772812Y-100319953D01*
X209805469Y-100297529D01*
X209964656Y-100242882D01*
X210176067Y-100128472D01*
X210365764Y-99980825D01*
X210528571Y-99803969D01*
X210660049Y-99602728D01*
X210756610Y-99382591D01*
X210815620Y-99149563D01*
X210815620Y-99149559D01*
X210815621Y-99149557D01*
X210815621Y-99149556D01*
X210835471Y-98910003D01*
X210835471Y-98909996D01*
X210815621Y-98670443D01*
X210815621Y-98670442D01*
X210814057Y-98664264D01*
X210756610Y-98437409D01*
X210660049Y-98217272D01*
X210528571Y-98016031D01*
X210365764Y-97839175D01*
X210176067Y-97691528D01*
X210087715Y-97643714D01*
X209964655Y-97577117D01*
X209737295Y-97499065D01*
X209500194Y-97459500D01*
X209500192Y-97459500D01*
X209259808Y-97459500D01*
X209259805Y-97459500D01*
X209022704Y-97499065D01*
X208795344Y-97577117D01*
X208583940Y-97691524D01*
X208583928Y-97691531D01*
X208394234Y-97839176D01*
X208231427Y-98016033D01*
X208099951Y-98217271D01*
X208003392Y-98437402D01*
X207944378Y-98670442D01*
X207944378Y-98670443D01*
X207924529Y-98909996D01*
X207924529Y-98910003D01*
X207944378Y-99149556D01*
X207944378Y-99149557D01*
X207973885Y-99266076D01*
X207988769Y-99324855D01*
X208003392Y-99382597D01*
X208099951Y-99602728D01*
X208204513Y-99762772D01*
X208231429Y-99803969D01*
X208394236Y-99980825D01*
X208583933Y-100128472D01*
X208795344Y-100242882D01*
X208954528Y-100297528D01*
X208993895Y-100329347D01*
X209004500Y-100367519D01*
X209004500Y-100535028D01*
X208987187Y-100582594D01*
X208943350Y-100607904D01*
X208893500Y-100599114D01*
X208875814Y-100584882D01*
X208852237Y-100559019D01*
X208852235Y-100559017D01*
X208674693Y-100424944D01*
X208674690Y-100424942D01*
X208559369Y-100367519D01*
X208475528Y-100325771D01*
X208475524Y-100325770D01*
X208475522Y-100325769D01*
X208261537Y-100264885D01*
X208261524Y-100264883D01*
X208095509Y-100249500D01*
X208095503Y-100249500D01*
X207684497Y-100249500D01*
X207684490Y-100249500D01*
X207518475Y-100264883D01*
X207518462Y-100264885D01*
X207304477Y-100325769D01*
X207304472Y-100325771D01*
X207105309Y-100424942D01*
X207105306Y-100424944D01*
X206927767Y-100559016D01*
X206777874Y-100723440D01*
X206660756Y-100912594D01*
X206660751Y-100912604D01*
X206580382Y-101120057D01*
X206539500Y-101338753D01*
X206539500Y-101561246D01*
X200790499Y-101561246D01*
X200790500Y-101561243D01*
X200790500Y-101338757D01*
X200749618Y-101120060D01*
X200669247Y-100912599D01*
X200552124Y-100723438D01*
X200402236Y-100559019D01*
X200370467Y-100535028D01*
X200224693Y-100424944D01*
X200224690Y-100424942D01*
X200109369Y-100367519D01*
X200025528Y-100325771D01*
X200025524Y-100325770D01*
X200025522Y-100325769D01*
X199811537Y-100264885D01*
X199811524Y-100264883D01*
X199645509Y-100249500D01*
X199645503Y-100249500D01*
X199234497Y-100249500D01*
X199234490Y-100249500D01*
X199068475Y-100264883D01*
X199068462Y-100264885D01*
X198854477Y-100325769D01*
X198854472Y-100325771D01*
X198655309Y-100424942D01*
X198655306Y-100424944D01*
X198477764Y-100559017D01*
X198477763Y-100559018D01*
X198384187Y-100661668D01*
X198339347Y-100685157D01*
X198289900Y-100674328D01*
X198258982Y-100634248D01*
X198255500Y-100611815D01*
X198255500Y-98474674D01*
X201344500Y-98474674D01*
X201359034Y-98547740D01*
X201414399Y-98630601D01*
X201497260Y-98685966D01*
X201570326Y-98700500D01*
X201945500Y-98700500D01*
X201993066Y-98717813D01*
X202018376Y-98761650D01*
X202019500Y-98774500D01*
X202019499Y-99028193D01*
X202002186Y-99075760D01*
X201958349Y-99101069D01*
X201953409Y-99101769D01*
X201917885Y-99105588D01*
X201789774Y-99153371D01*
X201680313Y-99235313D01*
X201598371Y-99344774D01*
X201550588Y-99472884D01*
X201550588Y-99472887D01*
X201544500Y-99529513D01*
X201544500Y-100070484D01*
X201544501Y-100070485D01*
X201550588Y-100127114D01*
X201598371Y-100255225D01*
X201618972Y-100282745D01*
X201680313Y-100364687D01*
X201789774Y-100446628D01*
X201789773Y-100446628D01*
X201837557Y-100464450D01*
X201917886Y-100494412D01*
X201974515Y-100500500D01*
X202815484Y-100500499D01*
X202872114Y-100494412D01*
X203000226Y-100446628D01*
X203109687Y-100364687D01*
X203191628Y-100255226D01*
X203239412Y-100127114D01*
X203245500Y-100070485D01*
X203245499Y-99529516D01*
X203239412Y-99472886D01*
X203191628Y-99344774D01*
X203109687Y-99235313D01*
X203000226Y-99153372D01*
X203000225Y-99153371D01*
X203000226Y-99153371D01*
X202872114Y-99105588D01*
X202836587Y-99101768D01*
X202791145Y-99079469D01*
X202770667Y-99033177D01*
X202770499Y-99028192D01*
X202770500Y-98774500D01*
X202787813Y-98726933D01*
X202831650Y-98701624D01*
X202844500Y-98700500D01*
X203219672Y-98700500D01*
X203219674Y-98700500D01*
X203292740Y-98685966D01*
X203375601Y-98630601D01*
X203430966Y-98547740D01*
X203445500Y-98474674D01*
X203445500Y-97161187D01*
X203462813Y-97113622D01*
X203467174Y-97108862D01*
X203758174Y-96817862D01*
X203804050Y-96796470D01*
X203852945Y-96809571D01*
X203881979Y-96851035D01*
X203884500Y-96870188D01*
X203884500Y-98474674D01*
X203899034Y-98547740D01*
X203954399Y-98630601D01*
X204037260Y-98685966D01*
X204110326Y-98700500D01*
X204485500Y-98700500D01*
X204533066Y-98717813D01*
X204558376Y-98761650D01*
X204559500Y-98774500D01*
X204559500Y-99028193D01*
X204542187Y-99075759D01*
X204498350Y-99101069D01*
X204493410Y-99101769D01*
X204457885Y-99105588D01*
X204329774Y-99153371D01*
X204220313Y-99235313D01*
X204138371Y-99344774D01*
X204090588Y-99472884D01*
X204090588Y-99472887D01*
X204084500Y-99529513D01*
X204084500Y-100070484D01*
X204084501Y-100070485D01*
X204090588Y-100127114D01*
X204138371Y-100255225D01*
X204158972Y-100282745D01*
X204220313Y-100364687D01*
X204329774Y-100446628D01*
X204329773Y-100446628D01*
X204377557Y-100464450D01*
X204457886Y-100494412D01*
X204514515Y-100500500D01*
X205355484Y-100500499D01*
X205412114Y-100494412D01*
X205540226Y-100446628D01*
X205649687Y-100364687D01*
X205731628Y-100255226D01*
X205779412Y-100127114D01*
X205785500Y-100070485D01*
X205785499Y-99529516D01*
X205779412Y-99472886D01*
X205731628Y-99344774D01*
X205649687Y-99235313D01*
X205540226Y-99153372D01*
X205540225Y-99153371D01*
X205540226Y-99153371D01*
X205412114Y-99105588D01*
X205376587Y-99101768D01*
X205331145Y-99079469D01*
X205310667Y-99033177D01*
X205310500Y-99028221D01*
X205310500Y-98774500D01*
X205327813Y-98726933D01*
X205371650Y-98701624D01*
X205384500Y-98700500D01*
X205759672Y-98700500D01*
X205759674Y-98700500D01*
X205832740Y-98685966D01*
X205915601Y-98630601D01*
X205970966Y-98547740D01*
X205985500Y-98474674D01*
X205985500Y-97161188D01*
X206002813Y-97113623D01*
X206007174Y-97108863D01*
X208018864Y-95097174D01*
X208064740Y-95075782D01*
X208071190Y-95075500D01*
X214790364Y-95075500D01*
X214837930Y-95092813D01*
X214863240Y-95136650D01*
X214854450Y-95186500D01*
X214835817Y-95207894D01*
X214791318Y-95242529D01*
X214744234Y-95279176D01*
X214581427Y-95456033D01*
X214449951Y-95657271D01*
X214353392Y-95877402D01*
X214294378Y-96110442D01*
X214294378Y-96110443D01*
X214274529Y-96349996D01*
X214274529Y-96350003D01*
X214294378Y-96589556D01*
X214294378Y-96589557D01*
X214314597Y-96669398D01*
X214352192Y-96817862D01*
X214353392Y-96822597D01*
X214449950Y-97042727D01*
X214449951Y-97042728D01*
X214581429Y-97243969D01*
X214744236Y-97420825D01*
X214933933Y-97568472D01*
X215145344Y-97682882D01*
X215372703Y-97760934D01*
X215609808Y-97800500D01*
X215735326Y-97800500D01*
X216540500Y-97800500D01*
X216588066Y-97817813D01*
X216613376Y-97861650D01*
X216614500Y-97874500D01*
X216614499Y-105963810D01*
X216597186Y-106011376D01*
X216592825Y-106016136D01*
X216554597Y-106054364D01*
X216508721Y-106075756D01*
X216467051Y-106067119D01*
X216374659Y-106017119D01*
X216357796Y-106011330D01*
X216147297Y-105939066D01*
X216147294Y-105939065D01*
X216147293Y-105939065D01*
X215910194Y-105899500D01*
X215910192Y-105899500D01*
X215669808Y-105899500D01*
X215664674Y-105899500D01*
X213315326Y-105899500D01*
X213310192Y-105899500D01*
X213069808Y-105899500D01*
X213069805Y-105899500D01*
X212832704Y-105939065D01*
X212605344Y-106017117D01*
X212393940Y-106131524D01*
X212393928Y-106131531D01*
X212204234Y-106279176D01*
X212041427Y-106456033D01*
X211909951Y-106657271D01*
X211813392Y-106877402D01*
X211754378Y-107110442D01*
X211754378Y-107110443D01*
X211734529Y-107349996D01*
X211734529Y-107350003D01*
X211754378Y-107589556D01*
X211754378Y-107589557D01*
X211813392Y-107822597D01*
X211832209Y-107865495D01*
X211909951Y-108042728D01*
X212041429Y-108243969D01*
X212204236Y-108420825D01*
X212393933Y-108568472D01*
X212605344Y-108682882D01*
X212832703Y-108760934D01*
X213069808Y-108800500D01*
X213315326Y-108800500D01*
X215669808Y-108800500D01*
X215910192Y-108800500D01*
X216147297Y-108760934D01*
X216374656Y-108682882D01*
X216586067Y-108568472D01*
X216775764Y-108420825D01*
X216938571Y-108243969D01*
X217070049Y-108042728D01*
X217166610Y-107822591D01*
X217225620Y-107589563D01*
X217225620Y-107589559D01*
X217225621Y-107589557D01*
X217225621Y-107589556D01*
X217245471Y-107350003D01*
X217245471Y-107349996D01*
X217225621Y-107110443D01*
X217225621Y-107110442D01*
X217200765Y-107012287D01*
X217166610Y-106877409D01*
X217073196Y-106664448D01*
X217069944Y-106613934D01*
X217088636Y-106582399D01*
X217222558Y-106448477D01*
X217234400Y-106438861D01*
X217247836Y-106430084D01*
X217270594Y-106400843D01*
X217273631Y-106397405D01*
X217277519Y-106393518D01*
X217290636Y-106375145D01*
X217291552Y-106373916D01*
X217324809Y-106331189D01*
X217324810Y-106331183D01*
X217327729Y-106325792D01*
X217327978Y-106325926D01*
X217329571Y-106322832D01*
X217329316Y-106322708D01*
X217332009Y-106317200D01*
X217332008Y-106317200D01*
X217332010Y-106317199D01*
X217347459Y-106265302D01*
X217347900Y-106263925D01*
X217365500Y-106212660D01*
X217365500Y-106212656D01*
X217366510Y-106206609D01*
X217366786Y-106206655D01*
X217367289Y-106203207D01*
X217367009Y-106203173D01*
X217367765Y-106197096D01*
X217367768Y-106197089D01*
X217366487Y-106166131D01*
X217365532Y-106143002D01*
X217365500Y-106141473D01*
X217365500Y-105250000D01*
X220389417Y-105250000D01*
X220409700Y-105455935D01*
X220413786Y-105469404D01*
X220467711Y-105647174D01*
X220469769Y-105653956D01*
X220567315Y-105836450D01*
X220693539Y-105990256D01*
X220698590Y-105996410D01*
X220858550Y-106127685D01*
X221041046Y-106225232D01*
X221239066Y-106285300D01*
X221445000Y-106305583D01*
X221650934Y-106285300D01*
X221848954Y-106225232D01*
X222031450Y-106127685D01*
X222191410Y-105996410D01*
X222322685Y-105836450D01*
X222414532Y-105664616D01*
X222452224Y-105630828D01*
X222479795Y-105625500D01*
X223033811Y-105625500D01*
X223081377Y-105642813D01*
X223086136Y-105647173D01*
X226238996Y-108800034D01*
X229386632Y-111947670D01*
X229396255Y-111959520D01*
X229405030Y-111972950D01*
X229434266Y-111995705D01*
X229437699Y-111998737D01*
X229441595Y-112002633D01*
X229459987Y-112015764D01*
X229461202Y-112016669D01*
X229503925Y-112049923D01*
X229503927Y-112049923D01*
X229503930Y-112049926D01*
X229509320Y-112052843D01*
X229509185Y-112053092D01*
X229512277Y-112054683D01*
X229512402Y-112054429D01*
X229517912Y-112057122D01*
X229517915Y-112057124D01*
X229569824Y-112072577D01*
X229571197Y-112073017D01*
X229622454Y-112090614D01*
X229622455Y-112090614D01*
X229628505Y-112091624D01*
X229628458Y-112091900D01*
X229631907Y-112092403D01*
X229631942Y-112092123D01*
X229638019Y-112092880D01*
X229638026Y-112092882D01*
X229671025Y-112091517D01*
X229692111Y-112090646D01*
X229693639Y-112090614D01*
X231420733Y-112090614D01*
X231468299Y-112107927D01*
X231492469Y-112146448D01*
X231502917Y-112187708D01*
X231502919Y-112187713D01*
X231599475Y-112407840D01*
X231708268Y-112574358D01*
X231730955Y-112609083D01*
X231893762Y-112785939D01*
X232083459Y-112933586D01*
X232294870Y-113047996D01*
X232355547Y-113068825D01*
X232375273Y-113079137D01*
X232380102Y-113082679D01*
X234509334Y-114075556D01*
X234509335Y-114075556D01*
X234509337Y-114075557D01*
X234518852Y-114077885D01*
X234536485Y-114084683D01*
X234651271Y-114146803D01*
X234878630Y-114224855D01*
X235115735Y-114264421D01*
X235356119Y-114264421D01*
X235593224Y-114224855D01*
X235820583Y-114146803D01*
X236031994Y-114032393D01*
X236221691Y-113884746D01*
X236384498Y-113707890D01*
X236515976Y-113506649D01*
X236612537Y-113286512D01*
X236671547Y-113053484D01*
X236671547Y-113053480D01*
X236671548Y-113053478D01*
X236671548Y-113053477D01*
X236691398Y-112813924D01*
X236691398Y-112813917D01*
X236671548Y-112574364D01*
X236671548Y-112574363D01*
X236671547Y-112574358D01*
X236612537Y-112341330D01*
X236519123Y-112128369D01*
X236515871Y-112077855D01*
X236534563Y-112046320D01*
X238862907Y-109717976D01*
X238874749Y-109708360D01*
X238888185Y-109699583D01*
X238910943Y-109670342D01*
X238913980Y-109666904D01*
X238917869Y-109663016D01*
X238931002Y-109644620D01*
X238931881Y-109643441D01*
X238965158Y-109600688D01*
X238968076Y-109595296D01*
X238968326Y-109595431D01*
X238969919Y-109592337D01*
X238969663Y-109592212D01*
X238972355Y-109586702D01*
X238972359Y-109586698D01*
X238987809Y-109534802D01*
X238988276Y-109533345D01*
X238991198Y-109524834D01*
X239005849Y-109482159D01*
X239005849Y-109482156D01*
X239006859Y-109476109D01*
X239007138Y-109476155D01*
X239007641Y-109472708D01*
X239007359Y-109472673D01*
X239008116Y-109466593D01*
X239008118Y-109466587D01*
X239006472Y-109426790D01*
X239005881Y-109412488D01*
X239005849Y-109410959D01*
X239005849Y-109384022D01*
X239023162Y-109336456D01*
X239066999Y-109311146D01*
X239116849Y-109319936D01*
X239137735Y-109337924D01*
X239170615Y-109379216D01*
X239338826Y-109524834D01*
X239482801Y-109608947D01*
X239855298Y-109782646D01*
X239855307Y-109782649D01*
X239855308Y-109782650D01*
X239917239Y-109804831D01*
X240012277Y-109838872D01*
X240231951Y-109874127D01*
X240454364Y-109868418D01*
X240671940Y-109821938D01*
X240877271Y-109736269D01*
X241063364Y-109614330D01*
X241209363Y-109474208D01*
X241223880Y-109460275D01*
X241223880Y-109460274D01*
X241223882Y-109460273D01*
X241353359Y-109279344D01*
X241447386Y-109077703D01*
X241484301Y-108934047D01*
X241502760Y-108862220D01*
X241507137Y-108796725D01*
X241517597Y-108640229D01*
X241491390Y-108419293D01*
X241425033Y-108206933D01*
X241320784Y-108010383D01*
X241182195Y-107836334D01*
X241050506Y-107722333D01*
X241013983Y-107690715D01*
X241013978Y-107690712D01*
X240870012Y-107606605D01*
X240870014Y-107606605D01*
X240870009Y-107606603D01*
X240497512Y-107432904D01*
X240497505Y-107432901D01*
X240497502Y-107432900D01*
X240497494Y-107432897D01*
X240340534Y-107376679D01*
X240120862Y-107341423D01*
X240120859Y-107341423D01*
X239987411Y-107344848D01*
X239898444Y-107347132D01*
X239898443Y-107347132D01*
X239721121Y-107385013D01*
X239680870Y-107393612D01*
X239680869Y-107393612D01*
X239680866Y-107393613D01*
X239475542Y-107479279D01*
X239475540Y-107479280D01*
X239289443Y-107601221D01*
X239131089Y-107753202D01*
X239084783Y-107773648D01*
X239036168Y-107759546D01*
X239007992Y-107717494D01*
X239005849Y-107699813D01*
X239005849Y-104205367D01*
X239023162Y-104157801D01*
X239027513Y-104153051D01*
X239065751Y-104114812D01*
X239111626Y-104093421D01*
X239153295Y-104102057D01*
X239245693Y-104152061D01*
X239248551Y-104153042D01*
X239284992Y-104165552D01*
X239288618Y-104167015D01*
X241406594Y-105154644D01*
X241408567Y-105155637D01*
X241475206Y-105191700D01*
X241475210Y-105191702D01*
X241702569Y-105269754D01*
X241939674Y-105309320D01*
X242180058Y-105309320D01*
X242417163Y-105269754D01*
X242644522Y-105191702D01*
X242855933Y-105077292D01*
X243045630Y-104929645D01*
X243208437Y-104752789D01*
X243339915Y-104551548D01*
X243436476Y-104331411D01*
X243495486Y-104098383D01*
X243495486Y-104098379D01*
X243495487Y-104098377D01*
X243495487Y-104098376D01*
X243515337Y-103858823D01*
X243515337Y-103858816D01*
X243495487Y-103619263D01*
X243495487Y-103619262D01*
X243492309Y-103606711D01*
X243436476Y-103386229D01*
X243429570Y-103370486D01*
X243387916Y-103275523D01*
X243339915Y-103166092D01*
X243208437Y-102964851D01*
X243045630Y-102787995D01*
X242855933Y-102640348D01*
X242813947Y-102617626D01*
X242644530Y-102525941D01*
X242644524Y-102525939D01*
X242644523Y-102525938D01*
X242644522Y-102525938D01*
X242605226Y-102512447D01*
X242601602Y-102510985D01*
X240483612Y-101523349D01*
X240481639Y-101522356D01*
X240415006Y-101486297D01*
X240306067Y-101448898D01*
X240187646Y-101408245D01*
X240187643Y-101408244D01*
X240187642Y-101408244D01*
X239950543Y-101368679D01*
X239950541Y-101368679D01*
X239710157Y-101368679D01*
X239710154Y-101368679D01*
X239473053Y-101408244D01*
X239245693Y-101486296D01*
X239034289Y-101600703D01*
X239034277Y-101600710D01*
X238844583Y-101748355D01*
X238681776Y-101925212D01*
X238550300Y-102126450D01*
X238453741Y-102346581D01*
X238453739Y-102346586D01*
X238453739Y-102346588D01*
X238451862Y-102354002D01*
X238394727Y-102579621D01*
X238394727Y-102579622D01*
X238374878Y-102819175D01*
X238374878Y-102819182D01*
X238394727Y-103058735D01*
X238394727Y-103058736D01*
X238453741Y-103291778D01*
X238547150Y-103504728D01*
X238550403Y-103555242D01*
X238531709Y-103586779D01*
X238397789Y-103720699D01*
X238385941Y-103730321D01*
X238372512Y-103739095D01*
X238349757Y-103768329D01*
X238346726Y-103771762D01*
X238342833Y-103775656D01*
X238342827Y-103775663D01*
X238329702Y-103794046D01*
X238328789Y-103795271D01*
X238295543Y-103837985D01*
X238292622Y-103843383D01*
X238292375Y-103843249D01*
X238290779Y-103846350D01*
X238291031Y-103846474D01*
X238288337Y-103851983D01*
X238272899Y-103903837D01*
X238272433Y-103905292D01*
X238254848Y-103956518D01*
X238253840Y-103962565D01*
X238253562Y-103962518D01*
X238253060Y-103965969D01*
X238253339Y-103966004D01*
X238252580Y-103972088D01*
X238254816Y-104026176D01*
X238254848Y-104027704D01*
X238254849Y-105738414D01*
X238237536Y-105785980D01*
X238193699Y-105811290D01*
X238143849Y-105802500D01*
X238111312Y-105763724D01*
X238109466Y-105757919D01*
X238030629Y-105469403D01*
X237905707Y-105161381D01*
X237887960Y-105129190D01*
X237745232Y-104870295D01*
X237551455Y-104600233D01*
X237327097Y-104354984D01*
X237075308Y-104137992D01*
X236911567Y-104027704D01*
X236799622Y-103952303D01*
X236643227Y-103872032D01*
X236503907Y-103800524D01*
X236192318Y-103684785D01*
X235869227Y-103606711D01*
X235539169Y-103567398D01*
X235289951Y-103567398D01*
X235041175Y-103582161D01*
X235041158Y-103582163D01*
X234714023Y-103640957D01*
X234396121Y-103738035D01*
X234091928Y-103872032D01*
X233805747Y-104041050D01*
X233805726Y-104041064D01*
X233541531Y-104242753D01*
X233541521Y-104242762D01*
X233494436Y-104288472D01*
X233448248Y-104309182D01*
X233399553Y-104295357D01*
X233371137Y-104253467D01*
X233368892Y-104235376D01*
X233368892Y-103913220D01*
X233386205Y-103865654D01*
X233418863Y-103843230D01*
X233578048Y-103788583D01*
X233789459Y-103674173D01*
X233979156Y-103526526D01*
X234141963Y-103349670D01*
X234273441Y-103148429D01*
X234370002Y-102928292D01*
X234429012Y-102695264D01*
X234429012Y-102695260D01*
X234429013Y-102695258D01*
X234429013Y-102695257D01*
X234448863Y-102455704D01*
X234448863Y-102455697D01*
X234429013Y-102216144D01*
X234429013Y-102216143D01*
X234428392Y-102213691D01*
X234370002Y-101983110D01*
X234273441Y-101762973D01*
X234141963Y-101561732D01*
X233979156Y-101384876D01*
X233789459Y-101237229D01*
X233670444Y-101172821D01*
X233578047Y-101122818D01*
X233350687Y-101044766D01*
X233113586Y-101005201D01*
X233113584Y-101005201D01*
X232873200Y-101005201D01*
X232873197Y-101005201D01*
X232636098Y-101044766D01*
X232408734Y-101122819D01*
X232316338Y-101172821D01*
X232266265Y-101180233D01*
X232228793Y-101160065D01*
X226887174Y-95818445D01*
X226865782Y-95772569D01*
X226865500Y-95766119D01*
X226865500Y-91824500D01*
X226882813Y-91776934D01*
X226926650Y-91751624D01*
X226939500Y-91750500D01*
X226969592Y-91750500D01*
X226969594Y-91750500D01*
X227037657Y-91744315D01*
X227194270Y-91695512D01*
X227334653Y-91610648D01*
X227450648Y-91494653D01*
X227535512Y-91354270D01*
X227584315Y-91197657D01*
X227590500Y-91129594D01*
X227590500Y-90170406D01*
X227584315Y-90102343D01*
X227535512Y-89945730D01*
X227450648Y-89805347D01*
X227334653Y-89689352D01*
X227194270Y-89604488D01*
X227194267Y-89604486D01*
X227037661Y-89555686D01*
X227037658Y-89555685D01*
X227037657Y-89555685D01*
X227037655Y-89555684D01*
X227037651Y-89555684D01*
X226969601Y-89549500D01*
X226969594Y-89549500D01*
X226010406Y-89549500D01*
X226010398Y-89549500D01*
X225942348Y-89555684D01*
X225942338Y-89555686D01*
X225785732Y-89604486D01*
X225645346Y-89689352D01*
X225529352Y-89805346D01*
X225444486Y-89945732D01*
X225395686Y-90102338D01*
X225395684Y-90102348D01*
X225389500Y-90170398D01*
X225389500Y-91129601D01*
X225395684Y-91197651D01*
X225395686Y-91197661D01*
X225444486Y-91354267D01*
X225529352Y-91494653D01*
X225645347Y-91610648D01*
X225767888Y-91684726D01*
X225785732Y-91695513D01*
X225857803Y-91717971D01*
X225942343Y-91744315D01*
X226010406Y-91750500D01*
X226040500Y-91750500D01*
X226088066Y-91767813D01*
X226113376Y-91811650D01*
X226114500Y-91824500D01*
X226114500Y-95905690D01*
X226112925Y-95920875D01*
X226109633Y-95936573D01*
X226109633Y-95936578D01*
X226114216Y-95973341D01*
X226114500Y-95977922D01*
X226114500Y-95983427D01*
X226118215Y-96005689D01*
X226118435Y-96007201D01*
X226125134Y-96060936D01*
X226126884Y-96066813D01*
X226126615Y-96066893D01*
X226127679Y-96070213D01*
X226127945Y-96070122D01*
X226129935Y-96075919D01*
X226155696Y-96123524D01*
X226156396Y-96124883D01*
X226180175Y-96173523D01*
X226183738Y-96178513D01*
X226183510Y-96178675D01*
X226185595Y-96181471D01*
X226185817Y-96181299D01*
X226189579Y-96186132D01*
X226189581Y-96186135D01*
X226229400Y-96222791D01*
X226230504Y-96223850D01*
X231694753Y-101688099D01*
X231716145Y-101733975D01*
X231710194Y-101770150D01*
X231616784Y-101983101D01*
X231557770Y-102216143D01*
X231557770Y-102216144D01*
X231537921Y-102455697D01*
X231537921Y-102455704D01*
X231557770Y-102695257D01*
X231557770Y-102695258D01*
X231585418Y-102804437D01*
X231613127Y-102913859D01*
X231616784Y-102928298D01*
X231685742Y-103085506D01*
X231713343Y-103148429D01*
X231844821Y-103349670D01*
X232007628Y-103526526D01*
X232197325Y-103674173D01*
X232408736Y-103788583D01*
X232567920Y-103843229D01*
X232607287Y-103875048D01*
X232617892Y-103913220D01*
X232617892Y-104371017D01*
X232600579Y-104418583D01*
X232596218Y-104423343D01*
X230361769Y-106657791D01*
X230315893Y-106679183D01*
X230266998Y-106666082D01*
X230254327Y-106654843D01*
X230234141Y-106632312D01*
X230234140Y-106632310D01*
X230046459Y-106482119D01*
X230046457Y-106482118D01*
X230046456Y-106482117D01*
X229897762Y-106399033D01*
X229836609Y-106364863D01*
X229719011Y-106322708D01*
X229610324Y-106283747D01*
X229373775Y-106240983D01*
X229373774Y-106240982D01*
X229373769Y-106240982D01*
X229133417Y-106237736D01*
X228895798Y-106274097D01*
X228667401Y-106349073D01*
X228454465Y-106460617D01*
X228262797Y-106605686D01*
X228262794Y-106605688D01*
X228262794Y-106605689D01*
X228252088Y-106617008D01*
X228097610Y-106780332D01*
X227963430Y-106979776D01*
X227963428Y-106979779D01*
X227863908Y-107198579D01*
X227863905Y-107198588D01*
X227801752Y-107430800D01*
X227801751Y-107430805D01*
X227778668Y-107670074D01*
X227784867Y-107759546D01*
X227791122Y-107849831D01*
X227972630Y-109035995D01*
X227975658Y-109055779D01*
X227975661Y-109055796D01*
X228017527Y-109231028D01*
X228017528Y-109231031D01*
X228037946Y-109279344D01*
X228078895Y-109376236D01*
X228081464Y-109426790D01*
X228050938Y-109467168D01*
X228001598Y-109478477D01*
X227958406Y-109457369D01*
X226636600Y-108135563D01*
X223518479Y-105017441D01*
X223508853Y-105005586D01*
X223500086Y-104992166D01*
X223500083Y-104992163D01*
X223470853Y-104969412D01*
X223467415Y-104966377D01*
X223463518Y-104962480D01*
X223454004Y-104955687D01*
X223445123Y-104949346D01*
X223443897Y-104948432D01*
X223419759Y-104929645D01*
X223401189Y-104915191D01*
X223401186Y-104915190D01*
X223401185Y-104915189D01*
X223395795Y-104912272D01*
X223395928Y-104912024D01*
X223392829Y-104910429D01*
X223392706Y-104910682D01*
X223387201Y-104907990D01*
X223335347Y-104892552D01*
X223333892Y-104892086D01*
X223282661Y-104874499D01*
X223276615Y-104873491D01*
X223276661Y-104873214D01*
X223273206Y-104872710D01*
X223273172Y-104872991D01*
X223267089Y-104872232D01*
X223267088Y-104872232D01*
X223267086Y-104872232D01*
X223213003Y-104874468D01*
X223211475Y-104874500D01*
X222479795Y-104874500D01*
X222432229Y-104857187D01*
X222414533Y-104835384D01*
X222396819Y-104802244D01*
X222322685Y-104663550D01*
X222191410Y-104503590D01*
X222135765Y-104457924D01*
X222031450Y-104372315D01*
X221859616Y-104280466D01*
X221825828Y-104242774D01*
X221820500Y-104215204D01*
X221820500Y-104095570D01*
X229228351Y-104095570D01*
X229254557Y-104316499D01*
X229254558Y-104316504D01*
X229313017Y-104503590D01*
X229320915Y-104528863D01*
X229425164Y-104725413D01*
X229563753Y-104899462D01*
X229563755Y-104899464D01*
X229670837Y-104992163D01*
X229731964Y-105045080D01*
X229875939Y-105129193D01*
X230248436Y-105302892D01*
X230248445Y-105302895D01*
X230248446Y-105302896D01*
X230278167Y-105313541D01*
X230405415Y-105359118D01*
X230625089Y-105394373D01*
X230847502Y-105388664D01*
X231065078Y-105342184D01*
X231270409Y-105256515D01*
X231456502Y-105134576D01*
X231617020Y-104980519D01*
X231746497Y-104799590D01*
X231840524Y-104597949D01*
X231895898Y-104382465D01*
X231910735Y-104160475D01*
X231884528Y-103939539D01*
X231818171Y-103727179D01*
X231713922Y-103530629D01*
X231575333Y-103356580D01*
X231567347Y-103349667D01*
X231407121Y-103210961D01*
X231407116Y-103210958D01*
X231263150Y-103126851D01*
X231263152Y-103126851D01*
X231263147Y-103126849D01*
X230890650Y-102953150D01*
X230890643Y-102953147D01*
X230890640Y-102953146D01*
X230890632Y-102953143D01*
X230733672Y-102896925D01*
X230514000Y-102861669D01*
X230513997Y-102861669D01*
X230380549Y-102865094D01*
X230291582Y-102867378D01*
X230291581Y-102867378D01*
X230114259Y-102905259D01*
X230074008Y-102913858D01*
X230074007Y-102913858D01*
X230074004Y-102913859D01*
X229868680Y-102999525D01*
X229868678Y-102999526D01*
X229682581Y-103121467D01*
X229522067Y-103275520D01*
X229392589Y-103456451D01*
X229298561Y-103658094D01*
X229243187Y-103873575D01*
X229228351Y-104095565D01*
X229228351Y-104095570D01*
X221820500Y-104095570D01*
X221820500Y-103871806D01*
X221837813Y-103824240D01*
X221881650Y-103798930D01*
X221886587Y-103798230D01*
X221922114Y-103794412D01*
X222050226Y-103746628D01*
X222159687Y-103664687D01*
X222241628Y-103555226D01*
X222289412Y-103427114D01*
X222295500Y-103370485D01*
X222295499Y-102829516D01*
X222289412Y-102772886D01*
X222241628Y-102644774D01*
X222159687Y-102535313D01*
X222077744Y-102473972D01*
X222050225Y-102453371D01*
X222050226Y-102453371D01*
X221922114Y-102405588D01*
X221865486Y-102399500D01*
X221024515Y-102399500D01*
X221024514Y-102399501D01*
X220967885Y-102405588D01*
X220839774Y-102453371D01*
X220730313Y-102535313D01*
X220648371Y-102644774D01*
X220600588Y-102772884D01*
X220600588Y-102772887D01*
X220594500Y-102829513D01*
X220594500Y-103370484D01*
X220594501Y-103370485D01*
X220600588Y-103427114D01*
X220648371Y-103555225D01*
X220648372Y-103555226D01*
X220730313Y-103664687D01*
X220839774Y-103746628D01*
X220839773Y-103746628D01*
X220887557Y-103764450D01*
X220967886Y-103794412D01*
X221001974Y-103798076D01*
X221003409Y-103798231D01*
X221048852Y-103820529D01*
X221069331Y-103866821D01*
X221069499Y-103871807D01*
X221069499Y-104215205D01*
X221052186Y-104262771D01*
X221030383Y-104280467D01*
X220858549Y-104372315D01*
X220698590Y-104503589D01*
X220698589Y-104503590D01*
X220567315Y-104663549D01*
X220469769Y-104846043D01*
X220469768Y-104846045D01*
X220469768Y-104846046D01*
X220464573Y-104863172D01*
X220409700Y-105044064D01*
X220389417Y-105250000D01*
X217365500Y-105250000D01*
X217365500Y-102354002D01*
X217382813Y-102306436D01*
X217426650Y-102281126D01*
X217476500Y-102289916D01*
X217494187Y-102304149D01*
X217527763Y-102340981D01*
X217527764Y-102340982D01*
X217705306Y-102475055D01*
X217705309Y-102475057D01*
X217705310Y-102475057D01*
X217705311Y-102475058D01*
X217904472Y-102574229D01*
X218118464Y-102635115D01*
X218284497Y-102650500D01*
X218284499Y-102650500D01*
X218695501Y-102650500D01*
X218695503Y-102650500D01*
X218861536Y-102635115D01*
X219075528Y-102574229D01*
X219274689Y-102475058D01*
X219452236Y-102340981D01*
X219602124Y-102176562D01*
X219719247Y-101987401D01*
X219799618Y-101779940D01*
X219840500Y-101561243D01*
X219840500Y-101450006D01*
X222814390Y-101450006D01*
X222834803Y-101735425D01*
X222895630Y-102015042D01*
X222895635Y-102015060D01*
X222995630Y-102283156D01*
X223132772Y-102534313D01*
X223218517Y-102648854D01*
X223304261Y-102763395D01*
X223506605Y-102965739D01*
X223666590Y-103085502D01*
X223735686Y-103137227D01*
X223986843Y-103274369D01*
X224254939Y-103374364D01*
X224254945Y-103374365D01*
X224254954Y-103374369D01*
X224534572Y-103435196D01*
X224748539Y-103450499D01*
X224748544Y-103450500D01*
X224748552Y-103450500D01*
X224891456Y-103450500D01*
X224891459Y-103450499D01*
X225105428Y-103435196D01*
X225385046Y-103374369D01*
X225385057Y-103374364D01*
X225385060Y-103374364D01*
X225653156Y-103274369D01*
X225653156Y-103274368D01*
X225653161Y-103274367D01*
X225904315Y-103137226D01*
X226133395Y-102965739D01*
X226335739Y-102763395D01*
X226507226Y-102534315D01*
X226644367Y-102283161D01*
X226645126Y-102281126D01*
X226744364Y-102015060D01*
X226744364Y-102015057D01*
X226744369Y-102015046D01*
X226805196Y-101735428D01*
X226814198Y-101609557D01*
X226825610Y-101450006D01*
X226825610Y-101449993D01*
X226805196Y-101164574D01*
X226805196Y-101164572D01*
X226744369Y-100884954D01*
X226744365Y-100884945D01*
X226744364Y-100884939D01*
X226644369Y-100616843D01*
X226507227Y-100365686D01*
X226431768Y-100264885D01*
X226335739Y-100136605D01*
X226133395Y-99934261D01*
X225959341Y-99803966D01*
X225904313Y-99762772D01*
X225653156Y-99625630D01*
X225385060Y-99525635D01*
X225385042Y-99525630D01*
X225105425Y-99464803D01*
X224891460Y-99449500D01*
X224891448Y-99449500D01*
X224748552Y-99449500D01*
X224748539Y-99449500D01*
X224534574Y-99464803D01*
X224254957Y-99525630D01*
X224254939Y-99525635D01*
X223986843Y-99625630D01*
X223735686Y-99762772D01*
X223506602Y-99934263D01*
X223304263Y-100136602D01*
X223132772Y-100365686D01*
X222995630Y-100616843D01*
X222895635Y-100884939D01*
X222895630Y-100884957D01*
X222834803Y-101164574D01*
X222814390Y-101449993D01*
X222814390Y-101450006D01*
X219840500Y-101450006D01*
X219840500Y-101338757D01*
X219799618Y-101120060D01*
X219719247Y-100912599D01*
X219602124Y-100723438D01*
X219452236Y-100559019D01*
X219420467Y-100535028D01*
X219274693Y-100424944D01*
X219274690Y-100424942D01*
X219159369Y-100367519D01*
X219075528Y-100325771D01*
X219075524Y-100325770D01*
X219075522Y-100325769D01*
X218861537Y-100264885D01*
X218861524Y-100264883D01*
X218695509Y-100249500D01*
X218695503Y-100249500D01*
X218284497Y-100249500D01*
X218284490Y-100249500D01*
X218118475Y-100264883D01*
X218118462Y-100264885D01*
X217904477Y-100325769D01*
X217904472Y-100325771D01*
X217705309Y-100424942D01*
X217705306Y-100424944D01*
X217527764Y-100559017D01*
X217527762Y-100559019D01*
X217494186Y-100595851D01*
X217449347Y-100619339D01*
X217399900Y-100608509D01*
X217368982Y-100568430D01*
X217365500Y-100545997D01*
X217365500Y-97874500D01*
X217382813Y-97826934D01*
X217426650Y-97801624D01*
X217439500Y-97800500D01*
X218310192Y-97800500D01*
X218547297Y-97760934D01*
X218774656Y-97682882D01*
X218986067Y-97568472D01*
X219175764Y-97420825D01*
X219338571Y-97243969D01*
X219470049Y-97042728D01*
X219566610Y-96822591D01*
X219625620Y-96589563D01*
X219625620Y-96589559D01*
X219625621Y-96589557D01*
X219625621Y-96589556D01*
X219645471Y-96350003D01*
X219645471Y-96349996D01*
X219625621Y-96110443D01*
X219625621Y-96110442D01*
X219615411Y-96070122D01*
X219566610Y-95877409D01*
X219470049Y-95657272D01*
X219338571Y-95456031D01*
X219175764Y-95279175D01*
X219085326Y-95208784D01*
X219058423Y-95165906D01*
X219065376Y-95115767D01*
X219102931Y-95081827D01*
X219121629Y-95076956D01*
X219126224Y-95076383D01*
X219131042Y-95075784D01*
X219135618Y-95075500D01*
X219141111Y-95075500D01*
X219141114Y-95075500D01*
X219163387Y-95071782D01*
X219164887Y-95071564D01*
X219170604Y-95070851D01*
X219218626Y-95064866D01*
X219218629Y-95064864D01*
X219224507Y-95063115D01*
X219224587Y-95063386D01*
X219227904Y-95062323D01*
X219227812Y-95062055D01*
X219233606Y-95060065D01*
X219233610Y-95060065D01*
X219281235Y-95034290D01*
X219282535Y-95033622D01*
X219331211Y-95009826D01*
X219331213Y-95009823D01*
X219336204Y-95006261D01*
X219336369Y-95006493D01*
X219339158Y-95004414D01*
X219338983Y-95004189D01*
X219343821Y-95000422D01*
X219343821Y-95000421D01*
X219343826Y-95000419D01*
X219380535Y-94960541D01*
X219381517Y-94959518D01*
X220943174Y-93397861D01*
X220989049Y-93376470D01*
X221037944Y-93389571D01*
X221066978Y-93431035D01*
X221069499Y-93450188D01*
X221069500Y-96525500D01*
X221052187Y-96573066D01*
X221008350Y-96598376D01*
X220995500Y-96599500D01*
X220620326Y-96599500D01*
X220571615Y-96609189D01*
X220547259Y-96614034D01*
X220464399Y-96669398D01*
X220464398Y-96669399D01*
X220409034Y-96752259D01*
X220409033Y-96752260D01*
X220409034Y-96752260D01*
X220394500Y-96825326D01*
X220394500Y-98474674D01*
X220409034Y-98547740D01*
X220464399Y-98630601D01*
X220547260Y-98685966D01*
X220620326Y-98700500D01*
X220995500Y-98700500D01*
X221043066Y-98717813D01*
X221068376Y-98761650D01*
X221069500Y-98774500D01*
X221069500Y-99028193D01*
X221052187Y-99075759D01*
X221008350Y-99101069D01*
X221003410Y-99101769D01*
X220967885Y-99105588D01*
X220839774Y-99153371D01*
X220730313Y-99235313D01*
X220648371Y-99344774D01*
X220600588Y-99472884D01*
X220600588Y-99472887D01*
X220594500Y-99529513D01*
X220594500Y-100070484D01*
X220594501Y-100070485D01*
X220600588Y-100127114D01*
X220648371Y-100255225D01*
X220668972Y-100282744D01*
X220730313Y-100364687D01*
X220839774Y-100446628D01*
X220839773Y-100446628D01*
X220887557Y-100464450D01*
X220967886Y-100494412D01*
X221024515Y-100500500D01*
X221865484Y-100500499D01*
X221922114Y-100494412D01*
X222050226Y-100446628D01*
X222159687Y-100364687D01*
X222241628Y-100255226D01*
X222289412Y-100127114D01*
X222295500Y-100070485D01*
X222295499Y-99529516D01*
X222289412Y-99472886D01*
X222241628Y-99344774D01*
X222159687Y-99235313D01*
X222050226Y-99153372D01*
X222050225Y-99153371D01*
X222050226Y-99153371D01*
X221922114Y-99105588D01*
X221886588Y-99101768D01*
X221841146Y-99079469D01*
X221820668Y-99033177D01*
X221820500Y-99028192D01*
X221820500Y-98774500D01*
X221837813Y-98726934D01*
X221881650Y-98701624D01*
X221894500Y-98700500D01*
X222269672Y-98700500D01*
X222269674Y-98700500D01*
X222342740Y-98685966D01*
X222425601Y-98630601D01*
X222480966Y-98547740D01*
X222495500Y-98474674D01*
X222495500Y-96825326D01*
X222480966Y-96752260D01*
X222425601Y-96669399D01*
X222342740Y-96614034D01*
X222269674Y-96599500D01*
X222269672Y-96599500D01*
X221894500Y-96599500D01*
X221846934Y-96582187D01*
X221821624Y-96538350D01*
X221820500Y-96525500D01*
X221820500Y-93341188D01*
X221837813Y-93293622D01*
X221842163Y-93288873D01*
X223448009Y-91683026D01*
X223493884Y-91661635D01*
X223527064Y-91666349D01*
X223647544Y-91713024D01*
X223848024Y-91750500D01*
X223848026Y-91750500D01*
X224051974Y-91750500D01*
X224051976Y-91750500D01*
X224252456Y-91713024D01*
X224442637Y-91639348D01*
X224616041Y-91531981D01*
X224766764Y-91394579D01*
X224889673Y-91231821D01*
X224980582Y-91049250D01*
X225036397Y-90853083D01*
X225055215Y-90650000D01*
X225036397Y-90446917D01*
X224980582Y-90250750D01*
X224889673Y-90068179D01*
X224889670Y-90068175D01*
X224889670Y-90068174D01*
X224766765Y-89905421D01*
X224766764Y-89905420D01*
X224616041Y-89768019D01*
X224488989Y-89689352D01*
X224442637Y-89660652D01*
X224252456Y-89586976D01*
X224164407Y-89570516D01*
X224051979Y-89549500D01*
X224051976Y-89549500D01*
X223848024Y-89549500D01*
X223848020Y-89549500D01*
X223698115Y-89577522D01*
X223647544Y-89586976D01*
X223647542Y-89586976D01*
X223647540Y-89586977D01*
X223457368Y-89660650D01*
X223457363Y-89660652D01*
X223457358Y-89660654D01*
X223457358Y-89660655D01*
X223283958Y-89768019D01*
X223283957Y-89768019D01*
X223133235Y-89905420D01*
X223133234Y-89905421D01*
X223010329Y-90068174D01*
X223010328Y-90068177D01*
X222919418Y-90250750D01*
X222919416Y-90250755D01*
X222863602Y-90446917D01*
X222863601Y-90446923D01*
X222844784Y-90649996D01*
X222844784Y-90650003D01*
X222863601Y-90853076D01*
X222863602Y-90853082D01*
X222919416Y-91049244D01*
X222919416Y-91049245D01*
X222929025Y-91068543D01*
X222934728Y-91118840D01*
X222915108Y-91153853D01*
X221911825Y-92157136D01*
X221865949Y-92178528D01*
X221817054Y-92165427D01*
X221788020Y-92123963D01*
X221785500Y-92104817D01*
X221785500Y-91735416D01*
X221802813Y-91687851D01*
X221832767Y-91666414D01*
X221902637Y-91639348D01*
X222076041Y-91531981D01*
X222226764Y-91394579D01*
X222349673Y-91231821D01*
X222440582Y-91049250D01*
X222496397Y-90853083D01*
X222515215Y-90650000D01*
X222496397Y-90446917D01*
X222440582Y-90250750D01*
X222349673Y-90068179D01*
X222349670Y-90068175D01*
X222349670Y-90068174D01*
X222226765Y-89905421D01*
X222226764Y-89905420D01*
X222076041Y-89768019D01*
X221948989Y-89689352D01*
X221902637Y-89660652D01*
X221712456Y-89586976D01*
X221624407Y-89570516D01*
X221511979Y-89549500D01*
X221511976Y-89549500D01*
X221308024Y-89549500D01*
X221308020Y-89549500D01*
X221158115Y-89577522D01*
X221107544Y-89586976D01*
X221107542Y-89586976D01*
X221107540Y-89586977D01*
X220917368Y-89660650D01*
X220917363Y-89660652D01*
X220917358Y-89660654D01*
X220917358Y-89660655D01*
X220743958Y-89768019D01*
X220743957Y-89768019D01*
X220593235Y-89905420D01*
X220593234Y-89905421D01*
X220470329Y-90068174D01*
X220470328Y-90068177D01*
X220379418Y-90250750D01*
X220379416Y-90250755D01*
X220323602Y-90446917D01*
X220323601Y-90446923D01*
X220304784Y-90649996D01*
X220304784Y-90650003D01*
X220323601Y-90853076D01*
X220323602Y-90853082D01*
X220379416Y-91049244D01*
X220379417Y-91049246D01*
X220379418Y-91049250D01*
X220470327Y-91231821D01*
X220470328Y-91231822D01*
X220470329Y-91231825D01*
X220593234Y-91394578D01*
X220593235Y-91394579D01*
X220703012Y-91494653D01*
X220743959Y-91531981D01*
X220917363Y-91639348D01*
X220987231Y-91666414D01*
X221025332Y-91699740D01*
X221034500Y-91735417D01*
X221034500Y-92213810D01*
X221017187Y-92261376D01*
X221012826Y-92266136D01*
X218976136Y-94302826D01*
X218930260Y-94324218D01*
X218923810Y-94324500D01*
X217695189Y-94324500D01*
X217647623Y-94307187D01*
X217622313Y-94263350D01*
X217631103Y-94213500D01*
X217642863Y-94198174D01*
X218001404Y-93839633D01*
X219102558Y-92738477D01*
X219114400Y-92728861D01*
X219127836Y-92720084D01*
X219150594Y-92690843D01*
X219153631Y-92687405D01*
X219157519Y-92683518D01*
X219170636Y-92665145D01*
X219171552Y-92663916D01*
X219204809Y-92621189D01*
X219204810Y-92621183D01*
X219207729Y-92615792D01*
X219207979Y-92615927D01*
X219209571Y-92612835D01*
X219209316Y-92612710D01*
X219212010Y-92607199D01*
X219212010Y-92607198D01*
X219227469Y-92555271D01*
X219227897Y-92553932D01*
X219245500Y-92502660D01*
X219245500Y-92502656D01*
X219246510Y-92496610D01*
X219246786Y-92496656D01*
X219247289Y-92493206D01*
X219247009Y-92493172D01*
X219247765Y-92487095D01*
X219247768Y-92487088D01*
X219246462Y-92455511D01*
X219245532Y-92433002D01*
X219245500Y-92431474D01*
X219245500Y-91735417D01*
X219262813Y-91687851D01*
X219292767Y-91666414D01*
X219362637Y-91639348D01*
X219536041Y-91531981D01*
X219686764Y-91394579D01*
X219809673Y-91231821D01*
X219900582Y-91049250D01*
X219956397Y-90853083D01*
X219975215Y-90650000D01*
X219956397Y-90446917D01*
X219900582Y-90250750D01*
X219809673Y-90068179D01*
X219809670Y-90068175D01*
X219809670Y-90068174D01*
X219686765Y-89905421D01*
X219686764Y-89905420D01*
X219536041Y-89768019D01*
X219408989Y-89689352D01*
X219362637Y-89660652D01*
X219172456Y-89586976D01*
X219084407Y-89570516D01*
X218971979Y-89549500D01*
X218971976Y-89549500D01*
X218768024Y-89549500D01*
X218768020Y-89549500D01*
X218618115Y-89577522D01*
X218567544Y-89586976D01*
X218567542Y-89586976D01*
X218567540Y-89586977D01*
X218377368Y-89660650D01*
X218377363Y-89660652D01*
X218377358Y-89660654D01*
X218377358Y-89660655D01*
X218203958Y-89768019D01*
X218203957Y-89768019D01*
X218053235Y-89905420D01*
X218053234Y-89905421D01*
X217930329Y-90068174D01*
X217930328Y-90068177D01*
X217839418Y-90250750D01*
X217839416Y-90250755D01*
X217783602Y-90446917D01*
X217783601Y-90446923D01*
X217764784Y-90649996D01*
X217764784Y-90650003D01*
X217783601Y-90853076D01*
X217783602Y-90853082D01*
X217839416Y-91049244D01*
X217839417Y-91049246D01*
X217839418Y-91049250D01*
X217930327Y-91231821D01*
X217930328Y-91231822D01*
X217930329Y-91231825D01*
X218053234Y-91394578D01*
X218053235Y-91394579D01*
X218163012Y-91494653D01*
X218203959Y-91531981D01*
X218377363Y-91639348D01*
X218447231Y-91666414D01*
X218485332Y-91699740D01*
X218494500Y-91735417D01*
X218494500Y-92253810D01*
X218477187Y-92301376D01*
X218472826Y-92306136D01*
X216956136Y-93822826D01*
X216910260Y-93844218D01*
X216903810Y-93844500D01*
X205871618Y-93844500D01*
X205856433Y-93842925D01*
X205840732Y-93839633D01*
X205803963Y-93844216D01*
X205799385Y-93844500D01*
X205793877Y-93844500D01*
X205771623Y-93848214D01*
X205770112Y-93848434D01*
X205716376Y-93855133D01*
X205710499Y-93856883D01*
X205710419Y-93856616D01*
X205707096Y-93857681D01*
X205707187Y-93857945D01*
X205701385Y-93859936D01*
X205653797Y-93885690D01*
X205652439Y-93886390D01*
X205603788Y-93910174D01*
X205598798Y-93913737D01*
X205598637Y-93913511D01*
X205595837Y-93915599D01*
X205596008Y-93915818D01*
X205591175Y-93919578D01*
X205554503Y-93959413D01*
X205553445Y-93960516D01*
X202936136Y-96577826D01*
X202890260Y-96599218D01*
X202883810Y-96599500D01*
X201570326Y-96599500D01*
X201521615Y-96609189D01*
X201497259Y-96614034D01*
X201414399Y-96669398D01*
X201414398Y-96669399D01*
X201359034Y-96752259D01*
X201359033Y-96752260D01*
X201359034Y-96752260D01*
X201344500Y-96825326D01*
X201344500Y-98474674D01*
X198255500Y-98474674D01*
X198255500Y-97874500D01*
X198272813Y-97826934D01*
X198316650Y-97801624D01*
X198329500Y-97800500D01*
X199260192Y-97800500D01*
X199497297Y-97760934D01*
X199724656Y-97682882D01*
X199936067Y-97568472D01*
X200125764Y-97420825D01*
X200288571Y-97243969D01*
X200420049Y-97042728D01*
X200516610Y-96822591D01*
X200575620Y-96589563D01*
X200575620Y-96589559D01*
X200575621Y-96589557D01*
X200575621Y-96589556D01*
X200595471Y-96350003D01*
X200595471Y-96349996D01*
X200575621Y-96110443D01*
X200575621Y-96110442D01*
X200565411Y-96070122D01*
X200516610Y-95877409D01*
X200420049Y-95657272D01*
X200288571Y-95456031D01*
X200125764Y-95279175D01*
X199936067Y-95131528D01*
X199833061Y-95075784D01*
X199724655Y-95017117D01*
X199497295Y-94939065D01*
X199260194Y-94899500D01*
X199260192Y-94899500D01*
X199134674Y-94899500D01*
X196800192Y-94899500D01*
X196559808Y-94899500D01*
X196559805Y-94899500D01*
X196322704Y-94939065D01*
X196095344Y-95017117D01*
X195883940Y-95131524D01*
X195883928Y-95131531D01*
X195694234Y-95279176D01*
X195531427Y-95456033D01*
X195399951Y-95657271D01*
X195303392Y-95877402D01*
X195244378Y-96110442D01*
X195244378Y-96110443D01*
X195224529Y-96349996D01*
X195224529Y-96350003D01*
X195244378Y-96589556D01*
X195244378Y-96589557D01*
X195264597Y-96669398D01*
X195302192Y-96817862D01*
X195303392Y-96822597D01*
X195399951Y-97042727D01*
X195399951Y-97042728D01*
X195531429Y-97243969D01*
X195694236Y-97420825D01*
X195883933Y-97568472D01*
X196095344Y-97682882D01*
X196322703Y-97760934D01*
X196559808Y-97800500D01*
X196685326Y-97800500D01*
X197430500Y-97800500D01*
X197478066Y-97817813D01*
X197503376Y-97861650D01*
X197504500Y-97874500D01*
X197504500Y-105990256D01*
X197487187Y-106037822D01*
X197443350Y-106063132D01*
X197395280Y-106055337D01*
X197324656Y-106017117D01*
X197097295Y-105939065D01*
X196860194Y-105899500D01*
X196860192Y-105899500D01*
X196619808Y-105899500D01*
X196614674Y-105899500D01*
X194265326Y-105899500D01*
X194260192Y-105899500D01*
X194019808Y-105899500D01*
X194019805Y-105899500D01*
X193782704Y-105939065D01*
X193555344Y-106017117D01*
X193343940Y-106131524D01*
X193343928Y-106131531D01*
X193154234Y-106279176D01*
X192991427Y-106456033D01*
X192859951Y-106657271D01*
X192763392Y-106877402D01*
X192704378Y-107110442D01*
X192704378Y-107110443D01*
X192684529Y-107349996D01*
X192684529Y-107350003D01*
X190571440Y-107350003D01*
X190649959Y-107297637D01*
X190825267Y-107133164D01*
X190971112Y-106942080D01*
X191083517Y-106729596D01*
X191159415Y-106501508D01*
X191196736Y-106264039D01*
X191194462Y-106023666D01*
X191152655Y-105786946D01*
X191072455Y-105560336D01*
X190985199Y-105402683D01*
X190700738Y-104976152D01*
X190688751Y-104926975D01*
X190692312Y-104911073D01*
X190705500Y-104872660D01*
X190705500Y-104872656D01*
X190706510Y-104866610D01*
X190706786Y-104866656D01*
X190707289Y-104863206D01*
X190707009Y-104863172D01*
X190707765Y-104857095D01*
X190707768Y-104857088D01*
X190706462Y-104825511D01*
X190705532Y-104803002D01*
X190705500Y-104801474D01*
X190705500Y-101366882D01*
X191335804Y-101366882D01*
X191345654Y-101699099D01*
X191345656Y-101699121D01*
X191394730Y-102027856D01*
X191394731Y-102027857D01*
X191482344Y-102348494D01*
X191607266Y-102656516D01*
X191666190Y-102763397D01*
X191749138Y-102913858D01*
X191767739Y-102947597D01*
X191767742Y-102947603D01*
X191956706Y-103210958D01*
X191961519Y-103217665D01*
X192185877Y-103462914D01*
X192437666Y-103679906D01*
X192642316Y-103817748D01*
X192713351Y-103865594D01*
X192713353Y-103865595D01*
X193009067Y-104017374D01*
X193320656Y-104133113D01*
X193643747Y-104211187D01*
X193973805Y-104250500D01*
X193973809Y-104250500D01*
X194223023Y-104250500D01*
X194471807Y-104235736D01*
X194798956Y-104176939D01*
X195116854Y-104079862D01*
X195421040Y-103945868D01*
X195707243Y-103776837D01*
X195971445Y-103575142D01*
X196209937Y-103343616D01*
X196419373Y-103085506D01*
X196596810Y-102804438D01*
X196739760Y-102504357D01*
X196846215Y-102189475D01*
X196914680Y-101864212D01*
X196944195Y-101533134D01*
X196944195Y-101533120D01*
X196944195Y-101533117D01*
X196934345Y-101200900D01*
X196934345Y-101200890D01*
X196885269Y-100872142D01*
X196815507Y-100616839D01*
X196797655Y-100551505D01*
X196672733Y-100243483D01*
X196613811Y-100136605D01*
X196512258Y-99952397D01*
X196318481Y-99682335D01*
X196094123Y-99437086D01*
X195842334Y-99220094D01*
X195698407Y-99123152D01*
X195566648Y-99034405D01*
X195410253Y-98954134D01*
X195270933Y-98882626D01*
X194959344Y-98766887D01*
X194636253Y-98688813D01*
X194306195Y-98649500D01*
X194056977Y-98649500D01*
X193808201Y-98664263D01*
X193808184Y-98664265D01*
X193481049Y-98723059D01*
X193163147Y-98820137D01*
X192858954Y-98954134D01*
X192572773Y-99123152D01*
X192572752Y-99123166D01*
X192308557Y-99324855D01*
X192308547Y-99324864D01*
X192070068Y-99556378D01*
X192070063Y-99556383D01*
X192070063Y-99556384D01*
X191869168Y-99803969D01*
X191860625Y-99814497D01*
X191860623Y-99814498D01*
X191683189Y-100095562D01*
X191683188Y-100095564D01*
X191540239Y-100395644D01*
X191433787Y-100710515D01*
X191433784Y-100710525D01*
X191365321Y-101035778D01*
X191365320Y-101035787D01*
X191365320Y-101035788D01*
X191350602Y-101200890D01*
X191335804Y-101366879D01*
X191335804Y-101366882D01*
X190705500Y-101366882D01*
X190705500Y-100367519D01*
X190722813Y-100319953D01*
X190755471Y-100297529D01*
X190914656Y-100242882D01*
X191126067Y-100128472D01*
X191315764Y-99980825D01*
X191478571Y-99803969D01*
X191610049Y-99602728D01*
X191706610Y-99382591D01*
X191765620Y-99149563D01*
X191765620Y-99149559D01*
X191765621Y-99149557D01*
X191765621Y-99149556D01*
X191785471Y-98910003D01*
X191785471Y-98909996D01*
X191765621Y-98670443D01*
X191765621Y-98670442D01*
X191764057Y-98664264D01*
X191706610Y-98437409D01*
X191610049Y-98217272D01*
X191478571Y-98016031D01*
X191315764Y-97839175D01*
X191126067Y-97691528D01*
X191037715Y-97643714D01*
X190914655Y-97577117D01*
X190687295Y-97499065D01*
X190450194Y-97459500D01*
X190450192Y-97459500D01*
X190209808Y-97459500D01*
X190209805Y-97459500D01*
X189972704Y-97499065D01*
X189745344Y-97577117D01*
X189533940Y-97691524D01*
X189533928Y-97691531D01*
X189344234Y-97839176D01*
X189181427Y-98016033D01*
X189049951Y-98217271D01*
X188953392Y-98437402D01*
X188894378Y-98670442D01*
X188894378Y-98670443D01*
X188874529Y-98909996D01*
X188874529Y-98910003D01*
X188894378Y-99149556D01*
X188894378Y-99149557D01*
X188923884Y-99266077D01*
X188938769Y-99324855D01*
X188953392Y-99382597D01*
X189049951Y-99602728D01*
X189154513Y-99762772D01*
X189181429Y-99803969D01*
X189344236Y-99980825D01*
X189533933Y-100128472D01*
X189745344Y-100242882D01*
X189904528Y-100297528D01*
X189943895Y-100329347D01*
X189954500Y-100367519D01*
X189954500Y-100535028D01*
X189937187Y-100582594D01*
X189893350Y-100607904D01*
X189843500Y-100599114D01*
X189825814Y-100584882D01*
X189802237Y-100559019D01*
X189802235Y-100559017D01*
X189624693Y-100424944D01*
X189624690Y-100424942D01*
X189509369Y-100367519D01*
X189425528Y-100325771D01*
X189425524Y-100325770D01*
X189425522Y-100325769D01*
X189211537Y-100264885D01*
X189211524Y-100264883D01*
X189045509Y-100249500D01*
X189045503Y-100249500D01*
X188634497Y-100249500D01*
X188634490Y-100249500D01*
X188468475Y-100264883D01*
X188468462Y-100264885D01*
X188254477Y-100325769D01*
X188254472Y-100325771D01*
X188055309Y-100424942D01*
X188055306Y-100424944D01*
X187877767Y-100559016D01*
X187727874Y-100723440D01*
X187610756Y-100912594D01*
X187610751Y-100912604D01*
X187530382Y-101120057D01*
X187489500Y-101338753D01*
X187489500Y-101561246D01*
X183112653Y-101561246D01*
X183120610Y-101450006D01*
X183120610Y-101449993D01*
X183100196Y-101164574D01*
X183100196Y-101164572D01*
X183039369Y-100884954D01*
X183039365Y-100884945D01*
X183039364Y-100884939D01*
X182939369Y-100616843D01*
X182802227Y-100365686D01*
X182726768Y-100264885D01*
X182630739Y-100136605D01*
X182428395Y-99934261D01*
X182254341Y-99803966D01*
X182199313Y-99762772D01*
X181948156Y-99625630D01*
X181680060Y-99525635D01*
X181680042Y-99525630D01*
X181400425Y-99464803D01*
X181186460Y-99449500D01*
X181186448Y-99449500D01*
X181043552Y-99449500D01*
X181043539Y-99449500D01*
X180829574Y-99464803D01*
X180549957Y-99525630D01*
X180549939Y-99525635D01*
X180281843Y-99625630D01*
X180030686Y-99762772D01*
X179801602Y-99934263D01*
X179599263Y-100136602D01*
X179427772Y-100365686D01*
X179290630Y-100616843D01*
X179190635Y-100884939D01*
X179190630Y-100884957D01*
X179129803Y-101164574D01*
X179109390Y-101449993D01*
X179109390Y-101450006D01*
X177615499Y-101450006D01*
X177615499Y-92427079D01*
X177615732Y-92422935D01*
X177616422Y-92416805D01*
X177618468Y-92398647D01*
X177629607Y-92314041D01*
X177633122Y-92299281D01*
X177647023Y-92259552D01*
X177647714Y-92257741D01*
X177672087Y-92198900D01*
X177677773Y-92187891D01*
X177702530Y-92148492D01*
X177704489Y-92145674D01*
X177743006Y-92095478D01*
X177746167Y-92091874D01*
X177781874Y-92056167D01*
X177785478Y-92053006D01*
X177835674Y-92014489D01*
X177838492Y-92012530D01*
X177877891Y-91987773D01*
X177888900Y-91982087D01*
X177947741Y-91957714D01*
X177949552Y-91957023D01*
X177989281Y-91943122D01*
X178004041Y-91939607D01*
X178088620Y-91928472D01*
X178102767Y-91926878D01*
X178112938Y-91925733D01*
X178117083Y-91925500D01*
X217585183Y-91925500D01*
X217585339Y-91925531D01*
X217599999Y-91925541D01*
X217599999Y-91925540D01*
X217600000Y-91925541D01*
X217600383Y-91925383D01*
X217600500Y-91925099D01*
X217600541Y-91925000D01*
X217600540Y-91924997D01*
X217600566Y-91910656D01*
X217600500Y-91910318D01*
X217600500Y-89454500D01*
X217617813Y-89406934D01*
X217661650Y-89381624D01*
X217674500Y-89380500D01*
X227685500Y-89380500D01*
X227733066Y-89397813D01*
G37*
G04 #@! TD.AperFunction*
G04 #@! TA.AperFunction,NonConductor*
G36*
X207327377Y-94612813D02*
G01*
X207352687Y-94656650D01*
X207343897Y-94706500D01*
X207332137Y-94721826D01*
X205476136Y-96577826D01*
X205430260Y-96599218D01*
X205423810Y-96599500D01*
X204155188Y-96599500D01*
X204107622Y-96582187D01*
X204082312Y-96538350D01*
X204091102Y-96488500D01*
X204102862Y-96473174D01*
X204757592Y-95818445D01*
X205958862Y-94617174D01*
X206004739Y-94595782D01*
X206011189Y-94595500D01*
X207279811Y-94595500D01*
X207327377Y-94612813D01*
G37*
G04 #@! TD.AperFunction*
G04 #@! TA.AperFunction,NonConductor*
G36*
X232646809Y-105521306D02*
G01*
X232675843Y-105562770D01*
X232674467Y-105605621D01*
X232666760Y-105628417D01*
X232666758Y-105628423D01*
X232598295Y-105953676D01*
X232598294Y-105953685D01*
X232598294Y-105953686D01*
X232569859Y-106272656D01*
X232568778Y-106284777D01*
X232568778Y-106284780D01*
X232578628Y-106616997D01*
X232578630Y-106617019D01*
X232627704Y-106945754D01*
X232627705Y-106945756D01*
X232645884Y-107012285D01*
X232715318Y-107266392D01*
X232840240Y-107574414D01*
X232919120Y-107717494D01*
X233000716Y-107865501D01*
X233194493Y-108135563D01*
X233418851Y-108380812D01*
X233670640Y-108597804D01*
X233875290Y-108735646D01*
X233946325Y-108783492D01*
X233946327Y-108783493D01*
X234242041Y-108935272D01*
X234553630Y-109051011D01*
X234876721Y-109129085D01*
X235206779Y-109168398D01*
X235206783Y-109168398D01*
X235455997Y-109168398D01*
X235704781Y-109153634D01*
X236031930Y-109094837D01*
X236349828Y-108997760D01*
X236654014Y-108863766D01*
X236940217Y-108694735D01*
X237204419Y-108493040D01*
X237442911Y-108261514D01*
X237652347Y-108003404D01*
X237829784Y-107722336D01*
X237972734Y-107422255D01*
X238079189Y-107107373D01*
X238108436Y-106968425D01*
X238135175Y-106925445D01*
X238183285Y-106909708D01*
X238230256Y-106928577D01*
X238254108Y-106973224D01*
X238254849Y-106983668D01*
X238254849Y-109233308D01*
X238237536Y-109280874D01*
X238233175Y-109285634D01*
X236000523Y-111518285D01*
X235954647Y-111539677D01*
X235912977Y-111531040D01*
X235820582Y-111481038D01*
X235784587Y-111468681D01*
X235759901Y-111460206D01*
X235740174Y-111449894D01*
X235735354Y-111446359D01*
X235506439Y-111339614D01*
X233606118Y-110453480D01*
X233606116Y-110453479D01*
X233606115Y-110453479D01*
X233596596Y-110451149D01*
X233578971Y-110444352D01*
X233464185Y-110382233D01*
X233447322Y-110376444D01*
X233236823Y-110304180D01*
X233236820Y-110304179D01*
X233236819Y-110304179D01*
X232999720Y-110264614D01*
X232999718Y-110264614D01*
X232759334Y-110264614D01*
X232759331Y-110264614D01*
X232522230Y-110304179D01*
X232294870Y-110382231D01*
X232083466Y-110496638D01*
X232083454Y-110496645D01*
X231893760Y-110644290D01*
X231730953Y-110821147D01*
X231599475Y-111022387D01*
X231502919Y-111242514D01*
X231502917Y-111242519D01*
X231492469Y-111283780D01*
X231464009Y-111325641D01*
X231420733Y-111339614D01*
X229871303Y-111339614D01*
X229823737Y-111322301D01*
X229818977Y-111317940D01*
X228727456Y-110226419D01*
X228706064Y-110180543D01*
X228719165Y-110131648D01*
X228760629Y-110102614D01*
X228804752Y-110104433D01*
X229024076Y-110183053D01*
X229260625Y-110225817D01*
X229394159Y-110227620D01*
X229500983Y-110229063D01*
X229500983Y-110229062D01*
X229500987Y-110229063D01*
X229738605Y-110192703D01*
X229966997Y-110117728D01*
X230179934Y-110006183D01*
X230371607Y-109861112D01*
X230536788Y-109686470D01*
X230670970Y-109487023D01*
X230770496Y-109268210D01*
X230832648Y-109036000D01*
X230855731Y-108796727D01*
X230843278Y-108616970D01*
X230665984Y-107458346D01*
X230675903Y-107408710D01*
X230686803Y-107394832D01*
X232552039Y-105529596D01*
X232597914Y-105508205D01*
X232646809Y-105521306D01*
G37*
G04 #@! TD.AperFunction*
M02*
