G04 #@! TF.GenerationSoftware,KiCad,Pcbnew,7.0.5*
G04 #@! TF.CreationDate,2023-08-03T23:07:55+08:00*
G04 #@! TF.ProjectId,LT,4c542e6b-6963-4616-945f-706362585858,rev?*
G04 #@! TF.SameCoordinates,Original*
G04 #@! TF.FileFunction,Legend,Bot*
G04 #@! TF.FilePolarity,Positive*
%FSLAX46Y46*%
G04 Gerber Fmt 4.6, Leading zero omitted, Abs format (unit mm)*
G04 Created by KiCad (PCBNEW 7.0.5) date 2023-08-03 23:07:55*
%MOMM*%
%LPD*%
G01*
G04 APERTURE LIST*
G04 Aperture macros list*
%AMRoundRect*
0 Rectangle with rounded corners*
0 $1 Rounding radius*
0 $2 $3 $4 $5 $6 $7 $8 $9 X,Y pos of 4 corners*
0 Add a 4 corners polygon primitive as box body*
4,1,4,$2,$3,$4,$5,$6,$7,$8,$9,$2,$3,0*
0 Add four circle primitives for the rounded corners*
1,1,$1+$1,$2,$3*
1,1,$1+$1,$4,$5*
1,1,$1+$1,$6,$7*
1,1,$1+$1,$8,$9*
0 Add four rect primitives between the rounded corners*
20,1,$1+$1,$2,$3,$4,$5,0*
20,1,$1+$1,$4,$5,$6,$7,0*
20,1,$1+$1,$6,$7,$8,$9,0*
20,1,$1+$1,$8,$9,$2,$3,0*%
%AMHorizOval*
0 Thick line with rounded ends*
0 $1 width*
0 $2 $3 position (X,Y) of the first rounded end (center of the circle)*
0 $4 $5 position (X,Y) of the second rounded end (center of the circle)*
0 Add line between two ends*
20,1,$1,$2,$3,$4,$5,0*
0 Add two circle primitives to create the rounded ends*
1,1,$1,$2,$3*
1,1,$1,$4,$5*%
%AMOutline4P*
0 Free polygon, 4 corners , with rotation*
0 The origin of the aperture is its center*
0 number of corners: always 4*
0 $1 to $8 corner X, Y*
0 $9 Rotation angle, in degrees counterclockwise*
0 create outline with 4 corners*
4,1,4,$1,$2,$3,$4,$5,$6,$7,$8,$1,$2,$9*%
G04 Aperture macros list end*
%ADD10C,0.150000*%
%ADD11C,0.120000*%
%ADD12C,0.100000*%
%ADD13RoundRect,0.425000X-0.425000X0.425000X-0.425000X-0.425000X0.425000X-0.425000X0.425000X0.425000X0*%
%ADD14O,1.700000X1.700000*%
%ADD15C,3.500000*%
%ADD16HorizOval,1.900000X0.135946X-0.063393X-0.135946X0.063393X0*%
%ADD17C,5.100000*%
%ADD18HorizOval,2.400000X-0.083193X0.543672X0.083193X-0.543672X0*%
%ADD19C,2.400000*%
%ADD20Outline4P,-1.150000X-1.200000X1.150000X-1.200000X1.150000X1.200000X-1.150000X1.200000X335.000000*%
%ADD21Outline4P,-1.200000X-1.200000X1.200000X-1.200000X1.200000X1.200000X-1.200000X1.200000X335.000000*%
%ADD22O,2.200000X1.900000*%
%ADD23HorizOval,2.400000X-0.305164X0.457575X0.305164X-0.457575X0*%
%ADD24Outline4P,-1.150000X-1.200000X1.150000X-1.200000X1.150000X1.200000X-1.150000X1.200000X0.000000*%
%ADD25Outline4P,-1.200000X-1.200000X1.200000X-1.200000X1.200000X1.200000X-1.200000X1.200000X0.000000*%
%ADD26RoundRect,0.225000X-0.362401X-0.244776X0.045437X-0.434955X0.362401X0.244776X-0.045437X0.434955X0*%
%ADD27RoundRect,0.225000X-0.225000X-0.375000X0.225000X-0.375000X0.225000X0.375000X-0.225000X0.375000X0*%
G04 APERTURE END LIST*
D10*
X228542046Y-94713411D02*
X228973621Y-94914658D01*
X228973621Y-94914658D02*
X229396239Y-94008350D01*
X228792034Y-93726605D02*
X228274144Y-93485109D01*
X228110470Y-94512165D02*
X228533089Y-93605857D01*
X179041428Y-110464819D02*
X179517618Y-110464819D01*
X179517618Y-110464819D02*
X179517618Y-109464819D01*
X178850951Y-109464819D02*
X178279523Y-109464819D01*
X178565237Y-110464819D02*
X178565237Y-109464819D01*
X236292063Y-102231510D02*
X236630158Y-101506464D01*
X236630158Y-101506464D02*
X236457528Y-101425965D01*
X236457528Y-101425965D02*
X236337850Y-101412192D01*
X236337850Y-101412192D02*
X236236599Y-101449044D01*
X236236599Y-101449044D02*
X236169873Y-101501997D01*
X236169873Y-101501997D02*
X236070948Y-101624001D01*
X236070948Y-101624001D02*
X236022649Y-101727579D01*
X236022649Y-101727579D02*
X235992776Y-101881783D01*
X235992776Y-101881783D02*
X235995103Y-101966935D01*
X235995103Y-101966935D02*
X236031955Y-102068186D01*
X236031955Y-102068186D02*
X236119433Y-102151011D01*
X236119433Y-102151011D02*
X236292063Y-102231510D01*
X235974164Y-101200569D02*
X235525326Y-100991272D01*
X235525326Y-100991272D02*
X235638210Y-101380178D01*
X235638210Y-101380178D02*
X235534632Y-101331879D01*
X235534632Y-101331879D02*
X235449480Y-101334206D01*
X235449480Y-101334206D02*
X235398854Y-101352632D01*
X235398854Y-101352632D02*
X235332129Y-101405584D01*
X235332129Y-101405584D02*
X235251630Y-101578214D01*
X235251630Y-101578214D02*
X235253957Y-101663366D01*
X235253957Y-101663366D02*
X235272383Y-101713992D01*
X235272383Y-101713992D02*
X235325335Y-101780717D01*
X235325335Y-101780717D02*
X235532491Y-101877316D01*
X235532491Y-101877316D02*
X235617643Y-101874989D01*
X235617643Y-101874989D02*
X235668269Y-101856563D01*
X234841971Y-101555321D02*
X234703867Y-101490922D01*
X234703867Y-101490922D02*
X234650914Y-101424196D01*
X234650914Y-101424196D02*
X234632488Y-101373571D01*
X234632488Y-101373571D02*
X234611735Y-101237793D01*
X234611735Y-101237793D02*
X234641608Y-101083589D01*
X234641608Y-101083589D02*
X234770406Y-100807381D01*
X234770406Y-100807381D02*
X234837132Y-100754429D01*
X234837132Y-100754429D02*
X234887758Y-100736003D01*
X234887758Y-100736003D02*
X234972909Y-100733676D01*
X234972909Y-100733676D02*
X235111013Y-100798075D01*
X235111013Y-100798075D02*
X235163966Y-100864801D01*
X235163966Y-100864801D02*
X235182392Y-100915426D01*
X235182392Y-100915426D02*
X235184718Y-101000578D01*
X235184718Y-101000578D02*
X235104220Y-101173208D01*
X235104220Y-101173208D02*
X235037494Y-101226160D01*
X235037494Y-101226160D02*
X234986868Y-101244587D01*
X234986868Y-101244587D02*
X234901717Y-101246913D01*
X234901717Y-101246913D02*
X234763613Y-101182514D01*
X234763613Y-101182514D02*
X234710660Y-101115789D01*
X234710660Y-101115789D02*
X234692234Y-101065163D01*
X234692234Y-101065163D02*
X234689908Y-100980011D01*
X193111428Y-97312295D02*
X193111428Y-96512295D01*
X193111428Y-96512295D02*
X192920952Y-96512295D01*
X192920952Y-96512295D02*
X192806666Y-96550390D01*
X192806666Y-96550390D02*
X192730476Y-96626580D01*
X192730476Y-96626580D02*
X192692381Y-96702771D01*
X192692381Y-96702771D02*
X192654285Y-96855152D01*
X192654285Y-96855152D02*
X192654285Y-96969438D01*
X192654285Y-96969438D02*
X192692381Y-97121819D01*
X192692381Y-97121819D02*
X192730476Y-97198009D01*
X192730476Y-97198009D02*
X192806666Y-97274200D01*
X192806666Y-97274200D02*
X192920952Y-97312295D01*
X192920952Y-97312295D02*
X193111428Y-97312295D01*
X192387619Y-96512295D02*
X191892381Y-96512295D01*
X191892381Y-96512295D02*
X192159047Y-96817057D01*
X192159047Y-96817057D02*
X192044762Y-96817057D01*
X192044762Y-96817057D02*
X191968571Y-96855152D01*
X191968571Y-96855152D02*
X191930476Y-96893247D01*
X191930476Y-96893247D02*
X191892381Y-96969438D01*
X191892381Y-96969438D02*
X191892381Y-97159914D01*
X191892381Y-97159914D02*
X191930476Y-97236104D01*
X191930476Y-97236104D02*
X191968571Y-97274200D01*
X191968571Y-97274200D02*
X192044762Y-97312295D01*
X192044762Y-97312295D02*
X192273333Y-97312295D01*
X192273333Y-97312295D02*
X192349524Y-97274200D01*
X192349524Y-97274200D02*
X192387619Y-97236104D01*
X191625714Y-96512295D02*
X191092380Y-96512295D01*
X191092380Y-96512295D02*
X191435238Y-97312295D01*
X212161428Y-97312295D02*
X212161428Y-96512295D01*
X212161428Y-96512295D02*
X211970952Y-96512295D01*
X211970952Y-96512295D02*
X211856666Y-96550390D01*
X211856666Y-96550390D02*
X211780476Y-96626580D01*
X211780476Y-96626580D02*
X211742381Y-96702771D01*
X211742381Y-96702771D02*
X211704285Y-96855152D01*
X211704285Y-96855152D02*
X211704285Y-96969438D01*
X211704285Y-96969438D02*
X211742381Y-97121819D01*
X211742381Y-97121819D02*
X211780476Y-97198009D01*
X211780476Y-97198009D02*
X211856666Y-97274200D01*
X211856666Y-97274200D02*
X211970952Y-97312295D01*
X211970952Y-97312295D02*
X212161428Y-97312295D01*
X211437619Y-96512295D02*
X210942381Y-96512295D01*
X210942381Y-96512295D02*
X211209047Y-96817057D01*
X211209047Y-96817057D02*
X211094762Y-96817057D01*
X211094762Y-96817057D02*
X211018571Y-96855152D01*
X211018571Y-96855152D02*
X210980476Y-96893247D01*
X210980476Y-96893247D02*
X210942381Y-96969438D01*
X210942381Y-96969438D02*
X210942381Y-97159914D01*
X210942381Y-97159914D02*
X210980476Y-97236104D01*
X210980476Y-97236104D02*
X211018571Y-97274200D01*
X211018571Y-97274200D02*
X211094762Y-97312295D01*
X211094762Y-97312295D02*
X211323333Y-97312295D01*
X211323333Y-97312295D02*
X211399524Y-97274200D01*
X211399524Y-97274200D02*
X211437619Y-97236104D01*
X210485238Y-96855152D02*
X210561428Y-96817057D01*
X210561428Y-96817057D02*
X210599523Y-96778961D01*
X210599523Y-96778961D02*
X210637619Y-96702771D01*
X210637619Y-96702771D02*
X210637619Y-96664676D01*
X210637619Y-96664676D02*
X210599523Y-96588485D01*
X210599523Y-96588485D02*
X210561428Y-96550390D01*
X210561428Y-96550390D02*
X210485238Y-96512295D01*
X210485238Y-96512295D02*
X210332857Y-96512295D01*
X210332857Y-96512295D02*
X210256666Y-96550390D01*
X210256666Y-96550390D02*
X210218571Y-96588485D01*
X210218571Y-96588485D02*
X210180476Y-96664676D01*
X210180476Y-96664676D02*
X210180476Y-96702771D01*
X210180476Y-96702771D02*
X210218571Y-96778961D01*
X210218571Y-96778961D02*
X210256666Y-96817057D01*
X210256666Y-96817057D02*
X210332857Y-96855152D01*
X210332857Y-96855152D02*
X210485238Y-96855152D01*
X210485238Y-96855152D02*
X210561428Y-96893247D01*
X210561428Y-96893247D02*
X210599523Y-96931342D01*
X210599523Y-96931342D02*
X210637619Y-97007533D01*
X210637619Y-97007533D02*
X210637619Y-97159914D01*
X210637619Y-97159914D02*
X210599523Y-97236104D01*
X210599523Y-97236104D02*
X210561428Y-97274200D01*
X210561428Y-97274200D02*
X210485238Y-97312295D01*
X210485238Y-97312295D02*
X210332857Y-97312295D01*
X210332857Y-97312295D02*
X210256666Y-97274200D01*
X210256666Y-97274200D02*
X210218571Y-97236104D01*
X210218571Y-97236104D02*
X210180476Y-97159914D01*
X210180476Y-97159914D02*
X210180476Y-97007533D01*
X210180476Y-97007533D02*
X210218571Y-96931342D01*
X210218571Y-96931342D02*
X210256666Y-96893247D01*
X210256666Y-96893247D02*
X210332857Y-96855152D01*
D11*
X234693732Y-97776313D02*
X238328026Y-99471012D01*
X233848495Y-99588929D02*
X234693732Y-97776313D01*
X233848495Y-99588929D02*
X237482790Y-101283628D01*
D12*
X235725194Y-99360670D02*
X236087717Y-99529717D01*
X236087717Y-99529717D02*
X236320157Y-99031248D01*
X236087717Y-99529717D02*
X235855277Y-100028186D01*
X236087717Y-99529717D02*
X236462454Y-100145811D01*
X236800549Y-99420765D02*
X236087717Y-99529717D01*
X236631502Y-99783288D02*
X237084656Y-99994597D01*
X236462454Y-100145811D02*
X236800549Y-99420765D01*
D11*
X189780000Y-93950000D02*
X193790000Y-93950000D01*
X189780000Y-95950000D02*
X189780000Y-93950000D01*
X189780000Y-95950000D02*
X193790000Y-95950000D01*
D12*
X191384400Y-94950000D02*
X191784400Y-94950000D01*
X191784400Y-94950000D02*
X191784400Y-94400000D01*
X191784400Y-94950000D02*
X191784400Y-95500000D01*
X191784400Y-94950000D02*
X192384400Y-95350000D01*
X192384400Y-94550000D02*
X191784400Y-94950000D01*
X192384400Y-94950000D02*
X192884400Y-94950000D01*
X192384400Y-95350000D02*
X192384400Y-94550000D01*
D11*
X208830000Y-93950000D02*
X212840000Y-93950000D01*
X208830000Y-95950000D02*
X208830000Y-93950000D01*
X208830000Y-95950000D02*
X212840000Y-95950000D01*
D12*
X210434400Y-94950000D02*
X210834400Y-94950000D01*
X210834400Y-94950000D02*
X210834400Y-94400000D01*
X210834400Y-94950000D02*
X210834400Y-95500000D01*
X210834400Y-94950000D02*
X211434400Y-95350000D01*
X211434400Y-94550000D02*
X210834400Y-94950000D01*
X211434400Y-94950000D02*
X211934400Y-94950000D01*
X211434400Y-95350000D02*
X211434400Y-94550000D01*
%LPC*%
D13*
X226490000Y-90650000D03*
D14*
X223950000Y-90650000D03*
X221410000Y-90650000D03*
X218870000Y-90650000D03*
D15*
X181115000Y-101450000D03*
D16*
X230569543Y-104128021D03*
D17*
X235372974Y-106367898D03*
D16*
X240176405Y-108607775D03*
D18*
X229317200Y-108233400D03*
D19*
X232993392Y-102455701D03*
X232879526Y-111715114D03*
D20*
X234057726Y-112264518D03*
D19*
X239830349Y-102819179D03*
X235235927Y-112813921D03*
D21*
X240945107Y-103338999D03*
D19*
X242059866Y-103858820D03*
D15*
X224820000Y-101450000D03*
D22*
X188840000Y-101450000D03*
D17*
X194140000Y-101450000D03*
D22*
X199440000Y-101450000D03*
D23*
X189440000Y-105700000D03*
D19*
X190330000Y-98910000D03*
X194140000Y-107350000D03*
D24*
X195440000Y-107350000D03*
D19*
X196680000Y-96350000D03*
X196740000Y-107350000D03*
D25*
X197910000Y-96350000D03*
D19*
X199140000Y-96350000D03*
D22*
X207890000Y-101450000D03*
D17*
X213190000Y-101450000D03*
D22*
X218490000Y-101450000D03*
D23*
X208490000Y-105700000D03*
D19*
X209380000Y-98910000D03*
X213190000Y-107350000D03*
D24*
X214490000Y-107350000D03*
D19*
X215730000Y-96350000D03*
X215790000Y-107350000D03*
D25*
X216960000Y-96350000D03*
D19*
X218190000Y-96350000D03*
D26*
X234914592Y-98982680D03*
X237905408Y-100377320D03*
D27*
X190490000Y-94950000D03*
X193790000Y-94950000D03*
X209540000Y-94950000D03*
X212840000Y-94950000D03*
%LPD*%
M02*
