G04 #@! TF.GenerationSoftware,KiCad,Pcbnew,7.0.5*
G04 #@! TF.CreationDate,2023-07-24T08:34:16+08:00*
G04 #@! TF.ProjectId,LT,4c542e6b-6963-4616-945f-706362585858,rev?*
G04 #@! TF.SameCoordinates,Original*
G04 #@! TF.FileFunction,Copper,L2,Bot*
G04 #@! TF.FilePolarity,Positive*
%FSLAX46Y46*%
G04 Gerber Fmt 4.6, Leading zero omitted, Abs format (unit mm)*
G04 Created by KiCad (PCBNEW 7.0.5) date 2023-07-24 08:34:16*
%MOMM*%
%LPD*%
G01*
G04 APERTURE LIST*
G04 Aperture macros list*
%AMRoundRect*
0 Rectangle with rounded corners*
0 $1 Rounding radius*
0 $2 $3 $4 $5 $6 $7 $8 $9 X,Y pos of 4 corners*
0 Add a 4 corners polygon primitive as box body*
4,1,4,$2,$3,$4,$5,$6,$7,$8,$9,$2,$3,0*
0 Add four circle primitives for the rounded corners*
1,1,$1+$1,$2,$3*
1,1,$1+$1,$4,$5*
1,1,$1+$1,$6,$7*
1,1,$1+$1,$8,$9*
0 Add four rect primitives between the rounded corners*
20,1,$1+$1,$2,$3,$4,$5,0*
20,1,$1+$1,$4,$5,$6,$7,0*
20,1,$1+$1,$6,$7,$8,$9,0*
20,1,$1+$1,$8,$9,$2,$3,0*%
%AMHorizOval*
0 Thick line with rounded ends*
0 $1 width*
0 $2 $3 position (X,Y) of the first rounded end (center of the circle)*
0 $4 $5 position (X,Y) of the second rounded end (center of the circle)*
0 Add line between two ends*
20,1,$1,$2,$3,$4,$5,0*
0 Add two circle primitives to create the rounded ends*
1,1,$1,$2,$3*
1,1,$1,$4,$5*%
%AMOutline4P*
0 Free polygon, 4 corners , with rotation*
0 The origin of the aperture is its center*
0 number of corners: always 4*
0 $1 to $8 corner X, Y*
0 $9 Rotation angle, in degrees counterclockwise*
0 create outline with 4 corners*
4,1,4,$1,$2,$3,$4,$5,$6,$7,$8,$1,$2,$9*%
G04 Aperture macros list end*
G04 #@! TA.AperFunction,ComponentPad*
%ADD10C,2.400000*%
G04 #@! TD*
G04 #@! TA.AperFunction,SMDPad,CuDef*
%ADD11Outline4P,-1.200000X-1.200000X1.200000X-1.200000X1.200000X1.200000X-1.200000X1.200000X335.000000*%
G04 #@! TD*
G04 #@! TA.AperFunction,SMDPad,CuDef*
%ADD12Outline4P,-1.150000X-1.200000X1.150000X-1.200000X1.150000X1.200000X-1.150000X1.200000X335.000000*%
G04 #@! TD*
G04 #@! TA.AperFunction,ComponentPad*
%ADD13HorizOval,2.400000X-0.083193X0.543672X0.083193X-0.543672X0*%
G04 #@! TD*
G04 #@! TA.AperFunction,ComponentPad*
%ADD14RoundRect,0.425000X-0.425000X0.425000X-0.425000X-0.425000X0.425000X-0.425000X0.425000X0.425000X0*%
G04 #@! TD*
G04 #@! TA.AperFunction,ComponentPad*
%ADD15O,1.700000X1.700000*%
G04 #@! TD*
G04 #@! TA.AperFunction,ComponentPad*
%ADD16HorizOval,2.400000X-0.305164X0.457575X0.305164X-0.457575X0*%
G04 #@! TD*
G04 #@! TA.AperFunction,SMDPad,CuDef*
%ADD17Outline4P,-1.150000X-1.200000X1.150000X-1.200000X1.150000X1.200000X-1.150000X1.200000X0.000000*%
G04 #@! TD*
G04 #@! TA.AperFunction,SMDPad,CuDef*
%ADD18Outline4P,-1.200000X-1.200000X1.200000X-1.200000X1.200000X1.200000X-1.200000X1.200000X0.000000*%
G04 #@! TD*
G04 #@! TA.AperFunction,SMDPad,CuDef*
%ADD19RoundRect,0.225000X-0.362401X-0.244776X0.045437X-0.434955X0.362401X0.244776X-0.045437X0.434955X0*%
G04 #@! TD*
G04 #@! TA.AperFunction,SMDPad,CuDef*
%ADD20RoundRect,0.225000X-0.225000X-0.375000X0.225000X-0.375000X0.225000X0.375000X-0.225000X0.375000X0*%
G04 #@! TD*
G04 #@! TA.AperFunction,Conductor*
%ADD21C,0.250000*%
G04 #@! TD*
G04 APERTURE END LIST*
D10*
X242059866Y-103858820D03*
D11*
X240945107Y-103338999D03*
D10*
X235235927Y-112813921D03*
X239830349Y-102819179D03*
D12*
X234057726Y-112264518D03*
D10*
X232879526Y-111715114D03*
X232993392Y-102455701D03*
D13*
X229317200Y-108233400D03*
D14*
X226490000Y-90650000D03*
D15*
X223950000Y-90650000D03*
X221410000Y-90650000D03*
X218870000Y-90650000D03*
D16*
X189440000Y-105700000D03*
D10*
X190330000Y-98910000D03*
X194140000Y-107350000D03*
D17*
X195440000Y-107350000D03*
D10*
X196680000Y-96350000D03*
X196740000Y-107350000D03*
D18*
X197910000Y-96350000D03*
D10*
X199140000Y-96350000D03*
D16*
X208490000Y-105700000D03*
D10*
X209380000Y-98910000D03*
X213190000Y-107350000D03*
D17*
X214490000Y-107350000D03*
D10*
X215730000Y-96350000D03*
X215790000Y-107350000D03*
D18*
X216960000Y-96350000D03*
D10*
X218190000Y-96350000D03*
D19*
X234914592Y-98982680D03*
X237905408Y-100377320D03*
D20*
X190490000Y-94950000D03*
X193790000Y-94950000D03*
X209540000Y-94950000D03*
X212840000Y-94950000D03*
D21*
X218870000Y-92420000D02*
X218870000Y-90650000D01*
X190490000Y-94950000D02*
X191865000Y-93575000D01*
X217715000Y-93575000D02*
X218870000Y-92420000D01*
X191865000Y-93575000D02*
X217715000Y-93575000D01*
X197880000Y-97550000D02*
X197880000Y-106210000D01*
X196680000Y-96350000D02*
X197880000Y-97550000D01*
X193790000Y-94950000D02*
X195280000Y-94950000D01*
X195280000Y-94950000D02*
X196680000Y-96350000D01*
X197880000Y-106210000D02*
X196740000Y-107350000D01*
X209540000Y-94950000D02*
X210465000Y-94025000D01*
X221410000Y-92420000D02*
X221410000Y-90650000D01*
X219805000Y-94025000D02*
X221410000Y-92420000D01*
X210465000Y-94025000D02*
X219805000Y-94025000D01*
X212840000Y-94950000D02*
X214330000Y-94950000D01*
X216930000Y-106210000D02*
X215790000Y-107350000D01*
X216930000Y-97550000D02*
X216930000Y-106210000D01*
X214330000Y-94950000D02*
X215730000Y-96350000D01*
X215730000Y-96350000D02*
X216930000Y-97550000D01*
X223950000Y-95520000D02*
X227412680Y-98982680D01*
X223950000Y-90650000D02*
X223950000Y-95520000D01*
X227412680Y-98982680D02*
X234914592Y-98982680D01*
X239830349Y-102819179D02*
X239830000Y-102818830D01*
X239830349Y-102819179D02*
X239830349Y-106289651D01*
X239830000Y-102300000D02*
X239828088Y-102300000D01*
X239830349Y-106289651D02*
X235235927Y-110884073D01*
X239828088Y-102300000D02*
X237905408Y-100377320D01*
X235235927Y-110884073D02*
X235235927Y-112813921D01*
X239830000Y-102818830D02*
X239830000Y-102300000D01*
M02*
