G04 #@! TF.GenerationSoftware,KiCad,Pcbnew,7.0.5*
G04 #@! TF.CreationDate,2023-08-10T21:36:07+08:00*
G04 #@! TF.ProjectId,LT,4c542e6b-6963-4616-945f-706362585858,rev?*
G04 #@! TF.SameCoordinates,Original*
G04 #@! TF.FileFunction,Copper,L1,Top*
G04 #@! TF.FilePolarity,Positive*
%FSLAX46Y46*%
G04 Gerber Fmt 4.6, Leading zero omitted, Abs format (unit mm)*
G04 Created by KiCad (PCBNEW 7.0.5) date 2023-08-10 21:36:07*
%MOMM*%
%LPD*%
G01*
G04 APERTURE LIST*
G04 Aperture macros list*
%AMRoundRect*
0 Rectangle with rounded corners*
0 $1 Rounding radius*
0 $2 $3 $4 $5 $6 $7 $8 $9 X,Y pos of 4 corners*
0 Add a 4 corners polygon primitive as box body*
4,1,4,$2,$3,$4,$5,$6,$7,$8,$9,$2,$3,0*
0 Add four circle primitives for the rounded corners*
1,1,$1+$1,$2,$3*
1,1,$1+$1,$4,$5*
1,1,$1+$1,$6,$7*
1,1,$1+$1,$8,$9*
0 Add four rect primitives between the rounded corners*
20,1,$1+$1,$2,$3,$4,$5,0*
20,1,$1+$1,$4,$5,$6,$7,0*
20,1,$1+$1,$6,$7,$8,$9,0*
20,1,$1+$1,$8,$9,$2,$3,0*%
%AMHorizOval*
0 Thick line with rounded ends*
0 $1 width*
0 $2 $3 position (X,Y) of the first rounded end (center of the circle)*
0 $4 $5 position (X,Y) of the second rounded end (center of the circle)*
0 Add line between two ends*
20,1,$1,$2,$3,$4,$5,0*
0 Add two circle primitives to create the rounded ends*
1,1,$1,$2,$3*
1,1,$1,$4,$5*%
%AMOutline4P*
0 Free polygon, 4 corners , with rotation*
0 The origin of the aperture is its center*
0 number of corners: always 4*
0 $1 to $8 corner X, Y*
0 $9 Rotation angle, in degrees counterclockwise*
0 create outline with 4 corners*
4,1,4,$1,$2,$3,$4,$5,$6,$7,$8,$1,$2,$9*%
G04 Aperture macros list end*
G04 #@! TA.AperFunction,ComponentPad*
%ADD10RoundRect,0.425000X-0.425000X0.425000X-0.425000X-0.425000X0.425000X-0.425000X0.425000X0.425000X0*%
G04 #@! TD*
G04 #@! TA.AperFunction,ComponentPad*
%ADD11O,1.700000X1.700000*%
G04 #@! TD*
G04 #@! TA.AperFunction,ComponentPad*
%ADD12HorizOval,2.400000X-0.083193X0.543672X0.083193X-0.543672X0*%
G04 #@! TD*
G04 #@! TA.AperFunction,ComponentPad*
%ADD13C,2.400000*%
G04 #@! TD*
G04 #@! TA.AperFunction,SMDPad,CuDef*
%ADD14Outline4P,-1.300000X-1.200000X1.300000X-1.200000X1.300000X1.200000X-1.300000X1.200000X335.000000*%
G04 #@! TD*
G04 #@! TA.AperFunction,SMDPad,CuDef*
%ADD15Outline4P,-1.200000X-1.200000X1.200000X-1.200000X1.200000X1.200000X-1.200000X1.200000X335.000000*%
G04 #@! TD*
G04 #@! TA.AperFunction,ComponentPad*
%ADD16HorizOval,2.400000X-0.305164X0.457575X0.305164X-0.457575X0*%
G04 #@! TD*
G04 #@! TA.AperFunction,SMDPad,CuDef*
%ADD17Outline4P,-1.300000X-1.200000X1.300000X-1.200000X1.300000X1.200000X-1.300000X1.200000X0.000000*%
G04 #@! TD*
G04 #@! TA.AperFunction,SMDPad,CuDef*
%ADD18Outline4P,-1.200000X-1.200000X1.200000X-1.200000X1.200000X1.200000X-1.200000X1.200000X0.000000*%
G04 #@! TD*
G04 #@! TA.AperFunction,ComponentPad*
%ADD19R,1.600000X1.600000*%
G04 #@! TD*
G04 #@! TA.AperFunction,ComponentPad*
%ADD20O,1.600000X1.600000*%
G04 #@! TD*
G04 #@! TA.AperFunction,Conductor*
%ADD21C,0.250000*%
G04 #@! TD*
G04 APERTURE END LIST*
D10*
X226490000Y-90650000D03*
D11*
X223950000Y-90650000D03*
X221410000Y-90650000D03*
X218870000Y-90650000D03*
D12*
X229317200Y-108233400D03*
D13*
X232993392Y-102455701D03*
X232879526Y-111715114D03*
D14*
X234057726Y-112264518D03*
D13*
X239830349Y-102819179D03*
X235235927Y-112813921D03*
D15*
X240945107Y-103338999D03*
D13*
X242059866Y-103858820D03*
D16*
X189440000Y-105700000D03*
D13*
X190330000Y-98910000D03*
X194140000Y-107350000D03*
D17*
X195440000Y-107350000D03*
D13*
X196680000Y-96350000D03*
X196740000Y-107350000D03*
D18*
X197910000Y-96350000D03*
D13*
X199140000Y-96350000D03*
D16*
X208490000Y-105700000D03*
D13*
X209380000Y-98910000D03*
X213190000Y-107350000D03*
D17*
X214490000Y-107350000D03*
D13*
X215730000Y-96350000D03*
X215790000Y-107350000D03*
D18*
X216960000Y-96350000D03*
D13*
X218190000Y-96350000D03*
D19*
X221445000Y-97650000D03*
D20*
X221445000Y-105250000D03*
D19*
X202395000Y-97650000D03*
D20*
X202395000Y-105250000D03*
D19*
X204935000Y-97650000D03*
D20*
X204935000Y-105250000D03*
D21*
X196740000Y-107350000D02*
X200295000Y-107350000D01*
X200295000Y-107350000D02*
X202395000Y-105250000D01*
X207461787Y-107776787D02*
X204935000Y-105250000D01*
X212763213Y-107776787D02*
X207461787Y-107776787D01*
X213190000Y-107350000D02*
X212763213Y-107776787D01*
X201929009Y-104125000D02*
X206915000Y-104125000D01*
X189440000Y-105700000D02*
X200354009Y-105700000D01*
X200354009Y-105700000D02*
X201929009Y-104125000D01*
X206915000Y-104125000D02*
X208490000Y-105700000D01*
X219404009Y-105700000D02*
X221937409Y-108233400D01*
X221937409Y-108233400D02*
X229317200Y-108233400D01*
X208490000Y-105700000D02*
X219404009Y-105700000D01*
M02*
