G04 #@! TF.GenerationSoftware,KiCad,Pcbnew,7.0.5*
G04 #@! TF.CreationDate,2023-08-20T01:59:19+08:00*
G04 #@! TF.ProjectId,LT,4c542e6b-6963-4616-945f-706362585858,rev?*
G04 #@! TF.SameCoordinates,Original*
G04 #@! TF.FileFunction,Copper,L1,Top*
G04 #@! TF.FilePolarity,Positive*
%FSLAX46Y46*%
G04 Gerber Fmt 4.6, Leading zero omitted, Abs format (unit mm)*
G04 Created by KiCad (PCBNEW 7.0.5) date 2023-08-20 01:59:19*
%MOMM*%
%LPD*%
G01*
G04 APERTURE LIST*
G04 Aperture macros list*
%AMRoundRect*
0 Rectangle with rounded corners*
0 $1 Rounding radius*
0 $2 $3 $4 $5 $6 $7 $8 $9 X,Y pos of 4 corners*
0 Add a 4 corners polygon primitive as box body*
4,1,4,$2,$3,$4,$5,$6,$7,$8,$9,$2,$3,0*
0 Add four circle primitives for the rounded corners*
1,1,$1+$1,$2,$3*
1,1,$1+$1,$4,$5*
1,1,$1+$1,$6,$7*
1,1,$1+$1,$8,$9*
0 Add four rect primitives between the rounded corners*
20,1,$1+$1,$2,$3,$4,$5,0*
20,1,$1+$1,$4,$5,$6,$7,0*
20,1,$1+$1,$6,$7,$8,$9,0*
20,1,$1+$1,$8,$9,$2,$3,0*%
%AMHorizOval*
0 Thick line with rounded ends*
0 $1 width*
0 $2 $3 position (X,Y) of the first rounded end (center of the circle)*
0 $4 $5 position (X,Y) of the second rounded end (center of the circle)*
0 Add line between two ends*
20,1,$1,$2,$3,$4,$5,0*
0 Add two circle primitives to create the rounded ends*
1,1,$1,$2,$3*
1,1,$1,$4,$5*%
%AMOutline4P*
0 Free polygon, 4 corners , with rotation*
0 The origin of the aperture is its center*
0 number of corners: always 4*
0 $1 to $8 corner X, Y*
0 $9 Rotation angle, in degrees counterclockwise*
0 create outline with 4 corners*
4,1,4,$1,$2,$3,$4,$5,$6,$7,$8,$1,$2,$9*%
G04 Aperture macros list end*
G04 #@! TA.AperFunction,ComponentPad*
%ADD10RoundRect,0.425000X-0.425000X0.425000X-0.425000X-0.425000X0.425000X-0.425000X0.425000X0.425000X0*%
G04 #@! TD*
G04 #@! TA.AperFunction,ComponentPad*
%ADD11O,1.700000X1.700000*%
G04 #@! TD*
G04 #@! TA.AperFunction,ComponentPad*
%ADD12HorizOval,2.400000X-0.083193X0.543672X0.083193X-0.543672X0*%
G04 #@! TD*
G04 #@! TA.AperFunction,ComponentPad*
%ADD13C,2.400000*%
G04 #@! TD*
G04 #@! TA.AperFunction,SMDPad,CuDef*
%ADD14Outline4P,-1.300000X-1.200000X1.300000X-1.200000X1.300000X1.200000X-1.300000X1.200000X335.000000*%
G04 #@! TD*
G04 #@! TA.AperFunction,SMDPad,CuDef*
%ADD15Outline4P,-1.200000X-1.200000X1.200000X-1.200000X1.200000X1.200000X-1.200000X1.200000X335.000000*%
G04 #@! TD*
G04 #@! TA.AperFunction,ComponentPad*
%ADD16HorizOval,2.400000X-0.305164X0.457575X0.305164X-0.457575X0*%
G04 #@! TD*
G04 #@! TA.AperFunction,SMDPad,CuDef*
%ADD17Outline4P,-1.300000X-1.200000X1.300000X-1.200000X1.300000X1.200000X-1.300000X1.200000X0.000000*%
G04 #@! TD*
G04 #@! TA.AperFunction,SMDPad,CuDef*
%ADD18Outline4P,-1.200000X-1.200000X1.200000X-1.200000X1.200000X1.200000X-1.200000X1.200000X0.000000*%
G04 #@! TD*
G04 #@! TA.AperFunction,ComponentPad*
%ADD19R,1.600000X1.600000*%
G04 #@! TD*
G04 #@! TA.AperFunction,ComponentPad*
%ADD20O,1.600000X1.600000*%
G04 #@! TD*
G04 #@! TA.AperFunction,Conductor*
%ADD21C,0.250000*%
G04 #@! TD*
G04 APERTURE END LIST*
D10*
X226490000Y-90650000D03*
D11*
X223950000Y-90650000D03*
X221410000Y-90650000D03*
X218870000Y-90650000D03*
D12*
X229317200Y-108233400D03*
D13*
X232993392Y-102455701D03*
X232879526Y-111715114D03*
D14*
X234057726Y-112264518D03*
D13*
X239830349Y-102819179D03*
X235235927Y-112813921D03*
D15*
X240945107Y-103338999D03*
D13*
X242059866Y-103858820D03*
D16*
X189440000Y-105700000D03*
D13*
X190330000Y-98910000D03*
X194140000Y-107350000D03*
D17*
X195440000Y-107350000D03*
D13*
X196680000Y-96350000D03*
X196740000Y-107350000D03*
D18*
X197910000Y-96350000D03*
D13*
X199140000Y-96350000D03*
D16*
X208490000Y-105700000D03*
D13*
X209380000Y-98910000D03*
X213190000Y-107350000D03*
D17*
X214490000Y-107350000D03*
D13*
X215730000Y-96350000D03*
X215790000Y-107350000D03*
D18*
X216960000Y-96350000D03*
D13*
X218190000Y-96350000D03*
D19*
X221445000Y-97650000D03*
D20*
X221445000Y-105250000D03*
D19*
X202395000Y-97650000D03*
D20*
X202395000Y-105250000D03*
D19*
X204935000Y-97650000D03*
D20*
X204935000Y-105250000D03*
D21*
X196740000Y-107350000D02*
X200295000Y-107350000D01*
X200295000Y-107350000D02*
X202395000Y-105250000D01*
X207461787Y-107776787D02*
X204935000Y-105250000D01*
X212763213Y-107776787D02*
X207461787Y-107776787D01*
X213190000Y-107350000D02*
X212763213Y-107776787D01*
X201929009Y-104125000D02*
X206915000Y-104125000D01*
X189440000Y-105700000D02*
X200354009Y-105700000D01*
X200354009Y-105700000D02*
X201929009Y-104125000D01*
X206915000Y-104125000D02*
X208490000Y-105700000D01*
X219404009Y-105700000D02*
X221937409Y-108233400D01*
X221937409Y-108233400D02*
X229317200Y-108233400D01*
X208490000Y-105700000D02*
X219404009Y-105700000D01*
G04 #@! TA.AperFunction,NonConductor*
G36*
X222764855Y-91316546D02*
G01*
X222781575Y-91335842D01*
X222908934Y-91517730D01*
X222911505Y-91521401D01*
X223078599Y-91688495D01*
X223160208Y-91745638D01*
X223272165Y-91824032D01*
X223272167Y-91824033D01*
X223272170Y-91824035D01*
X223486337Y-91923903D01*
X223486343Y-91923904D01*
X223486344Y-91923905D01*
X223539038Y-91938024D01*
X223714592Y-91985063D01*
X223891034Y-92000500D01*
X223949999Y-92005659D01*
X223950000Y-92005659D01*
X223950001Y-92005659D01*
X224008966Y-92000500D01*
X224185408Y-91985063D01*
X224413663Y-91923903D01*
X224627830Y-91824035D01*
X224821401Y-91688495D01*
X224988495Y-91521401D01*
X225023652Y-91471190D01*
X225078228Y-91427566D01*
X225147726Y-91420372D01*
X225210081Y-91451894D01*
X225235712Y-91486020D01*
X225284532Y-91581837D01*
X225335144Y-91644337D01*
X225406968Y-91733032D01*
X225558160Y-91855465D01*
X225731504Y-91943788D01*
X225919422Y-91994141D01*
X226000222Y-92000500D01*
X226000230Y-92000500D01*
X226979770Y-92000500D01*
X226979778Y-92000500D01*
X227060578Y-91994141D01*
X227248496Y-91943788D01*
X227421840Y-91855465D01*
X227557465Y-91745637D01*
X227621951Y-91718746D01*
X227690740Y-91730988D01*
X227741991Y-91778477D01*
X227759500Y-91842004D01*
X227759500Y-92308569D01*
X227759464Y-92310114D01*
X227759530Y-92310295D01*
X227759616Y-92310381D01*
X227759617Y-92310383D01*
X227759618Y-92310383D01*
X227759667Y-92310432D01*
X227761029Y-92311031D01*
X230754264Y-93705001D01*
X230754537Y-93705162D01*
X233259384Y-94873191D01*
X247460091Y-101495089D01*
X247544433Y-101534418D01*
X247544476Y-101534455D01*
X247574445Y-101548416D01*
X247580595Y-101551712D01*
X247596184Y-101561240D01*
X247600363Y-101563794D01*
X247667840Y-101606782D01*
X247687801Y-101622599D01*
X247713796Y-101647956D01*
X247716215Y-101650452D01*
X247755719Y-101693563D01*
X247768462Y-101710065D01*
X247790874Y-101744769D01*
X247793787Y-101749778D01*
X247821564Y-101803136D01*
X247824834Y-101810568D01*
X247841050Y-101855119D01*
X247843322Y-101862914D01*
X247856329Y-101921590D01*
X247857317Y-101927302D01*
X247862465Y-101968379D01*
X247863309Y-101989205D01*
X247860768Y-102047412D01*
X247860519Y-102050880D01*
X247856882Y-102087236D01*
X247851759Y-102112180D01*
X247827920Y-102187787D01*
X247820283Y-102210518D01*
X247817701Y-102216980D01*
X240192446Y-118569395D01*
X240189156Y-118575527D01*
X240177196Y-118595098D01*
X240134053Y-118662818D01*
X240118244Y-118682770D01*
X240093104Y-118708547D01*
X240090605Y-118710969D01*
X240047224Y-118750720D01*
X240030725Y-118763462D01*
X239996305Y-118785693D01*
X239991295Y-118788606D01*
X239937582Y-118816568D01*
X239930148Y-118819839D01*
X239885918Y-118835936D01*
X239878127Y-118838207D01*
X239819052Y-118851304D01*
X239813338Y-118852293D01*
X239806044Y-118853207D01*
X239772611Y-118857395D01*
X239751789Y-118858239D01*
X239693186Y-118855680D01*
X239689714Y-118855431D01*
X239653684Y-118851823D01*
X239628750Y-118846701D01*
X239552956Y-118822803D01*
X239530351Y-118815207D01*
X239523893Y-118812626D01*
X224303239Y-111715118D01*
X231174258Y-111715118D01*
X231193303Y-111969268D01*
X231217214Y-112074030D01*
X231250018Y-112217751D01*
X231343133Y-112455002D01*
X231470567Y-112675726D01*
X231629476Y-112874991D01*
X231816309Y-113048346D01*
X232026892Y-113191919D01*
X232110611Y-113232235D01*
X232115759Y-113235021D01*
X232117476Y-113236059D01*
X232151341Y-113251850D01*
X232256522Y-113302503D01*
X232262621Y-113304384D01*
X232270550Y-113307439D01*
X233272237Y-113774532D01*
X234507714Y-114350644D01*
X234590487Y-114390505D01*
X234612923Y-114401310D01*
X234856469Y-114476434D01*
X235108492Y-114514421D01*
X235363362Y-114514421D01*
X235615385Y-114476434D01*
X235858931Y-114401310D01*
X236088561Y-114290726D01*
X236299144Y-114147153D01*
X236485977Y-113973798D01*
X236644886Y-113774533D01*
X236772320Y-113553809D01*
X236865435Y-113316558D01*
X236922149Y-113068078D01*
X236930311Y-112959153D01*
X236941195Y-112813925D01*
X236941195Y-112813916D01*
X236922149Y-112559766D01*
X236898237Y-112455002D01*
X236865435Y-112311284D01*
X236772320Y-112074033D01*
X236644886Y-111853309D01*
X236485977Y-111654044D01*
X236299144Y-111480689D01*
X236088561Y-111337116D01*
X236055188Y-111321044D01*
X236004834Y-111296794D01*
X235999692Y-111294012D01*
X235997978Y-111292977D01*
X235997977Y-111292976D01*
X235964207Y-111277230D01*
X235858931Y-111226532D01*
X235858929Y-111226531D01*
X235858924Y-111226529D01*
X235852821Y-111224647D01*
X235844886Y-111221590D01*
X234843212Y-110754502D01*
X233607802Y-110178421D01*
X233502530Y-110127725D01*
X233502527Y-110127724D01*
X233258992Y-110052603D01*
X233258988Y-110052602D01*
X233258984Y-110052601D01*
X233137757Y-110034328D01*
X233006966Y-110014614D01*
X233006961Y-110014614D01*
X232752091Y-110014614D01*
X232752085Y-110014614D01*
X232595135Y-110038271D01*
X232500068Y-110052601D01*
X232500064Y-110052602D01*
X232500065Y-110052602D01*
X232500059Y-110052603D01*
X232256518Y-110127726D01*
X232026899Y-110238304D01*
X232026898Y-110238305D01*
X231816308Y-110381882D01*
X231629478Y-110555235D01*
X231629476Y-110555237D01*
X231470567Y-110754502D01*
X231343134Y-110975223D01*
X231250018Y-111212476D01*
X231250016Y-111212483D01*
X231193303Y-111460959D01*
X231174258Y-111715109D01*
X231174258Y-111715118D01*
X224303239Y-111715118D01*
X222735240Y-110983948D01*
X222731232Y-110981146D01*
X222715383Y-110974617D01*
X222715099Y-110974500D01*
X222715098Y-110974500D01*
X178118486Y-110974500D01*
X178111540Y-110974110D01*
X178107397Y-110973643D01*
X178088632Y-110971528D01*
X178009169Y-110961066D01*
X177984401Y-110955169D01*
X177950263Y-110943223D01*
X177947014Y-110941983D01*
X177905803Y-110924914D01*
X177892813Y-110919533D01*
X177874296Y-110909967D01*
X177839490Y-110888097D01*
X177834731Y-110884786D01*
X177786798Y-110848005D01*
X177780702Y-110842660D01*
X177747337Y-110809295D01*
X177741993Y-110803200D01*
X177705212Y-110755267D01*
X177701909Y-110750520D01*
X177680027Y-110715695D01*
X177670469Y-110697195D01*
X177648015Y-110642984D01*
X177646775Y-110639735D01*
X177634829Y-110605597D01*
X177628932Y-110580828D01*
X177618468Y-110501345D01*
X177615886Y-110478433D01*
X177615499Y-110471538D01*
X177615499Y-105330741D01*
X187431620Y-105330741D01*
X187450469Y-105476696D01*
X187465062Y-105589699D01*
X187476268Y-105628423D01*
X187537640Y-105840512D01*
X187537642Y-105840517D01*
X187537643Y-105840519D01*
X187647660Y-106077321D01*
X187647663Y-106077326D01*
X187647665Y-106077329D01*
X188366590Y-107155314D01*
X188487338Y-107309364D01*
X188487340Y-107309366D01*
X188487341Y-107309367D01*
X188677903Y-107487875D01*
X188893480Y-107635201D01*
X189129019Y-107747893D01*
X189379002Y-107823309D01*
X189637566Y-107859682D01*
X189898652Y-107856158D01*
X190156141Y-107812822D01*
X190156147Y-107812819D01*
X190156152Y-107812819D01*
X190254044Y-107780378D01*
X190403996Y-107730687D01*
X190636410Y-107611681D01*
X190847933Y-107458591D01*
X191033608Y-107275007D01*
X191189084Y-107065232D01*
X191310715Y-106834181D01*
X191395651Y-106587271D01*
X191424399Y-106427536D01*
X191455647Y-106365043D01*
X191515720Y-106329365D01*
X191546438Y-106325500D01*
X192553153Y-106325500D01*
X192620192Y-106345185D01*
X192665947Y-106397989D01*
X192675891Y-106467147D01*
X192660540Y-106511500D01*
X192603608Y-106610109D01*
X192510492Y-106847362D01*
X192510490Y-106847369D01*
X192453777Y-107095845D01*
X192434732Y-107349995D01*
X192434732Y-107350004D01*
X192453777Y-107604154D01*
X192501403Y-107812819D01*
X192510492Y-107852637D01*
X192603607Y-108089888D01*
X192731041Y-108310612D01*
X192889950Y-108509877D01*
X193076783Y-108683232D01*
X193287366Y-108826805D01*
X193287371Y-108826807D01*
X193287372Y-108826808D01*
X193287373Y-108826809D01*
X193364110Y-108863763D01*
X193516992Y-108937387D01*
X193516993Y-108937387D01*
X193516996Y-108937389D01*
X193760542Y-109012513D01*
X194012565Y-109050500D01*
X194318789Y-109050500D01*
X194318798Y-109050499D01*
X196610361Y-109050499D01*
X196610389Y-109050500D01*
X196612565Y-109050500D01*
X196867435Y-109050500D01*
X197119458Y-109012513D01*
X197363004Y-108937389D01*
X197550053Y-108847311D01*
X197592626Y-108826809D01*
X197592626Y-108826808D01*
X197592634Y-108826805D01*
X197803217Y-108683232D01*
X197990050Y-108509877D01*
X198148959Y-108310612D01*
X198276393Y-108089888D01*
X198290400Y-108054196D01*
X198333215Y-107998985D01*
X198399085Y-107975683D01*
X198405828Y-107975500D01*
X200212257Y-107975500D01*
X200227877Y-107977224D01*
X200227904Y-107976939D01*
X200235666Y-107977673D01*
X200235666Y-107977672D01*
X200235667Y-107977673D01*
X200238999Y-107977568D01*
X200303847Y-107975531D01*
X200305794Y-107975500D01*
X200334347Y-107975500D01*
X200334350Y-107975500D01*
X200341228Y-107974630D01*
X200347041Y-107974172D01*
X200393627Y-107972709D01*
X200412869Y-107967117D01*
X200431912Y-107963174D01*
X200451792Y-107960664D01*
X200495122Y-107943507D01*
X200500646Y-107941617D01*
X200504396Y-107940527D01*
X200545390Y-107928618D01*
X200562629Y-107918422D01*
X200580103Y-107909862D01*
X200598727Y-107902488D01*
X200598727Y-107902487D01*
X200598732Y-107902486D01*
X200636449Y-107875082D01*
X200641305Y-107871892D01*
X200681420Y-107848170D01*
X200695589Y-107833999D01*
X200710379Y-107821368D01*
X200726587Y-107809594D01*
X200756299Y-107773676D01*
X200760212Y-107769376D01*
X201980179Y-106549410D01*
X202041500Y-106515927D01*
X202099947Y-106517317D01*
X202168308Y-106535635D01*
X202325780Y-106549412D01*
X202394998Y-106555468D01*
X202395000Y-106555468D01*
X202395002Y-106555468D01*
X202451672Y-106550509D01*
X202621692Y-106535635D01*
X202841496Y-106476739D01*
X203047734Y-106380568D01*
X203234139Y-106250047D01*
X203395047Y-106089139D01*
X203525568Y-105902734D01*
X203552618Y-105844724D01*
X203598790Y-105792285D01*
X203665983Y-105773133D01*
X203732865Y-105793348D01*
X203777382Y-105844725D01*
X203804429Y-105902728D01*
X203804432Y-105902734D01*
X203934954Y-106089141D01*
X204095858Y-106250045D01*
X204095861Y-106250047D01*
X204282266Y-106380568D01*
X204488504Y-106476739D01*
X204708308Y-106535635D01*
X204865780Y-106549412D01*
X204934998Y-106555468D01*
X204935000Y-106555468D01*
X204935002Y-106555468D01*
X204991673Y-106550509D01*
X205161692Y-106535635D01*
X205230048Y-106517319D01*
X205299897Y-106518982D01*
X205349822Y-106549413D01*
X206960984Y-108160575D01*
X206970809Y-108172838D01*
X206971030Y-108172656D01*
X206975998Y-108178661D01*
X207025719Y-108225353D01*
X207027119Y-108226710D01*
X207047310Y-108246902D01*
X207047314Y-108246905D01*
X207047316Y-108246907D01*
X207052798Y-108251160D01*
X207057230Y-108254944D01*
X207091205Y-108286849D01*
X207108763Y-108296501D01*
X207125022Y-108307182D01*
X207140851Y-108319460D01*
X207183625Y-108337969D01*
X207188843Y-108340525D01*
X207229695Y-108362984D01*
X207249103Y-108367967D01*
X207267504Y-108374267D01*
X207285891Y-108382224D01*
X207329275Y-108389095D01*
X207331906Y-108389512D01*
X207337626Y-108390696D01*
X207382768Y-108402287D01*
X207402803Y-108402287D01*
X207422201Y-108403813D01*
X207441981Y-108406946D01*
X207441982Y-108406947D01*
X207441982Y-108406946D01*
X207441983Y-108406947D01*
X207488370Y-108402562D01*
X207494209Y-108402287D01*
X211794435Y-108402287D01*
X211861474Y-108421972D01*
X211891380Y-108448972D01*
X211939950Y-108509877D01*
X212126783Y-108683232D01*
X212337366Y-108826805D01*
X212337371Y-108826807D01*
X212337372Y-108826808D01*
X212337373Y-108826809D01*
X212414110Y-108863763D01*
X212566992Y-108937387D01*
X212566993Y-108937387D01*
X212566996Y-108937389D01*
X212810542Y-109012513D01*
X213062565Y-109050500D01*
X213368789Y-109050500D01*
X213368798Y-109050499D01*
X215660361Y-109050499D01*
X215660389Y-109050500D01*
X215662565Y-109050500D01*
X215917435Y-109050500D01*
X216169458Y-109012513D01*
X216413004Y-108937389D01*
X216600053Y-108847311D01*
X216642626Y-108826809D01*
X216642626Y-108826808D01*
X216642634Y-108826805D01*
X216853217Y-108683232D01*
X217040050Y-108509877D01*
X217198959Y-108310612D01*
X217326393Y-108089888D01*
X217419508Y-107852637D01*
X217476222Y-107604157D01*
X217487130Y-107458591D01*
X217495268Y-107350004D01*
X217495268Y-107349995D01*
X217476222Y-107095845D01*
X217472331Y-107078798D01*
X217419508Y-106847363D01*
X217326393Y-106610112D01*
X217283394Y-106535635D01*
X217269460Y-106511500D01*
X217252987Y-106443599D01*
X217275840Y-106377573D01*
X217330761Y-106334382D01*
X217376847Y-106325500D01*
X219093557Y-106325500D01*
X219160596Y-106345185D01*
X219181238Y-106361819D01*
X221436603Y-108617184D01*
X221446428Y-108629448D01*
X221446649Y-108629266D01*
X221451619Y-108635274D01*
X221501358Y-108681982D01*
X221502725Y-108683306D01*
X221522939Y-108703520D01*
X221528413Y-108707766D01*
X221532851Y-108711556D01*
X221566827Y-108743462D01*
X221566831Y-108743464D01*
X221584382Y-108753113D01*
X221600640Y-108763792D01*
X221616473Y-108776074D01*
X221638424Y-108785572D01*
X221659246Y-108794583D01*
X221664490Y-108797152D01*
X221705317Y-108819597D01*
X221724721Y-108824579D01*
X221743119Y-108830878D01*
X221761514Y-108838838D01*
X221807538Y-108846126D01*
X221813241Y-108847307D01*
X221858390Y-108858900D01*
X221878425Y-108858900D01*
X221897822Y-108860426D01*
X221917605Y-108863560D01*
X221963992Y-108859175D01*
X221969831Y-108858900D01*
X227586152Y-108858900D01*
X227653191Y-108878585D01*
X227698946Y-108931389D01*
X227708725Y-108964144D01*
X227729316Y-109098712D01*
X227754070Y-109205164D01*
X227773650Y-109289372D01*
X227773651Y-109289375D01*
X227773652Y-109289378D01*
X227870913Y-109531682D01*
X227870916Y-109531687D01*
X228004029Y-109756313D01*
X228004031Y-109756316D01*
X228169874Y-109957991D01*
X228169877Y-109957993D01*
X228169879Y-109957996D01*
X228359794Y-110127726D01*
X228364567Y-110131992D01*
X228364574Y-110131997D01*
X228583524Y-110274226D01*
X228583528Y-110274228D01*
X228583534Y-110274232D01*
X228583543Y-110274236D01*
X228821636Y-110381373D01*
X228821648Y-110381378D01*
X229073327Y-110450922D01*
X229332672Y-110481231D01*
X229593605Y-110471596D01*
X229850008Y-110422244D01*
X230095873Y-110334330D01*
X230325436Y-110209916D01*
X230533318Y-110051916D01*
X230714645Y-109864035D01*
X230865166Y-109650677D01*
X230981354Y-109416842D01*
X231060487Y-109168012D01*
X231100707Y-108910018D01*
X231101075Y-108648908D01*
X230942358Y-107611681D01*
X230905085Y-107368101D01*
X230905084Y-107368096D01*
X230905082Y-107368083D01*
X230860750Y-107177428D01*
X230828002Y-107095845D01*
X230763486Y-106935117D01*
X230763481Y-106935108D01*
X230630367Y-106710482D01*
X230553500Y-106617008D01*
X230464525Y-106508809D01*
X230456012Y-106501201D01*
X230269832Y-106334808D01*
X230269825Y-106334803D01*
X230050875Y-106192574D01*
X230050868Y-106192570D01*
X230050866Y-106192569D01*
X230050862Y-106192567D01*
X230050856Y-106192564D01*
X229917298Y-106132466D01*
X229812752Y-106085422D01*
X229664853Y-106044555D01*
X229561074Y-106015879D01*
X229517848Y-106010827D01*
X229301728Y-105985569D01*
X229301724Y-105985569D01*
X229301723Y-105985569D01*
X229040795Y-105995204D01*
X229040790Y-105995205D01*
X228784393Y-106044555D01*
X228784389Y-106044556D01*
X228538534Y-106132466D01*
X228308965Y-106256884D01*
X228308961Y-106256886D01*
X228101085Y-106414882D01*
X228101081Y-106414885D01*
X227919756Y-106602763D01*
X227919749Y-106602772D01*
X227769233Y-106816125D01*
X227653047Y-107049956D01*
X227653044Y-107049962D01*
X227573913Y-107298787D01*
X227549001Y-107458590D01*
X227544436Y-107487877D01*
X227542078Y-107503000D01*
X227512302Y-107566208D01*
X227453080Y-107603283D01*
X227419558Y-107607900D01*
X222247861Y-107607900D01*
X222180822Y-107588215D01*
X222160180Y-107571581D01*
X221355749Y-106767149D01*
X221322264Y-106705826D01*
X221327248Y-106636134D01*
X221369120Y-106580201D01*
X221434584Y-106555784D01*
X221443430Y-106555468D01*
X221445002Y-106555468D01*
X221501672Y-106550509D01*
X221671692Y-106535635D01*
X221891496Y-106476739D01*
X222097734Y-106380568D01*
X222284139Y-106250047D01*
X222445047Y-106089139D01*
X222575568Y-105902734D01*
X222671739Y-105696496D01*
X222730635Y-105476692D01*
X222750400Y-105250773D01*
X222750468Y-105250001D01*
X222750468Y-105249998D01*
X222744369Y-105180288D01*
X222730635Y-105023308D01*
X222671739Y-104803504D01*
X222575568Y-104597266D01*
X222477839Y-104457693D01*
X222445045Y-104410858D01*
X222284141Y-104249954D01*
X222097734Y-104119432D01*
X222097732Y-104119431D01*
X222046556Y-104095567D01*
X229228351Y-104095567D01*
X229254558Y-104316503D01*
X229303860Y-104474284D01*
X229320914Y-104528859D01*
X229320915Y-104528863D01*
X229357195Y-104597266D01*
X229425164Y-104725413D01*
X229487345Y-104803504D01*
X229540530Y-104870298D01*
X229563753Y-104899462D01*
X229731964Y-105045080D01*
X229875939Y-105129193D01*
X230129975Y-105247652D01*
X230248435Y-105302892D01*
X230285624Y-105316212D01*
X230405415Y-105359118D01*
X230625089Y-105394373D01*
X230842443Y-105388793D01*
X230847503Y-105388664D01*
X230914703Y-105374308D01*
X231065078Y-105342184D01*
X231270409Y-105256515D01*
X231456502Y-105134576D01*
X231617020Y-104980519D01*
X231746497Y-104799590D01*
X231840524Y-104597949D01*
X231895898Y-104382465D01*
X231910735Y-104160475D01*
X231893162Y-104012331D01*
X231904813Y-103943443D01*
X231951859Y-103891787D01*
X232019365Y-103873766D01*
X232085895Y-103895101D01*
X232110865Y-103912125D01*
X232140755Y-103932504D01*
X232140765Y-103932510D01*
X232237418Y-103979055D01*
X232370384Y-104043088D01*
X232370385Y-104043088D01*
X232370388Y-104043090D01*
X232613934Y-104118214D01*
X232865957Y-104156201D01*
X233120827Y-104156201D01*
X233342266Y-104122823D01*
X233411486Y-104132295D01*
X233464600Y-104177690D01*
X233484741Y-104244593D01*
X233465514Y-104311765D01*
X233447117Y-104334408D01*
X233303034Y-104474284D01*
X233303033Y-104474285D01*
X233093598Y-104732395D01*
X232916163Y-105013462D01*
X232916160Y-105013467D01*
X232773215Y-105313537D01*
X232773211Y-105313548D01*
X232666758Y-105628422D01*
X232598293Y-105953687D01*
X232598293Y-105953692D01*
X232568779Y-106284751D01*
X232568779Y-106284760D01*
X232568779Y-106284764D01*
X232576217Y-106535634D01*
X232578629Y-106617010D01*
X232601042Y-106767149D01*
X232626115Y-106935108D01*
X232627705Y-106945755D01*
X232627706Y-106945760D01*
X232715319Y-107266392D01*
X232715320Y-107266396D01*
X232840238Y-107574409D01*
X232840243Y-107574420D01*
X232860787Y-107611684D01*
X233000716Y-107865501D01*
X233046004Y-107928618D01*
X233194494Y-108135565D01*
X233194503Y-108135575D01*
X233412864Y-108374268D01*
X233418851Y-108380812D01*
X233670640Y-108597804D01*
X233670645Y-108597807D01*
X233670651Y-108597812D01*
X233814558Y-108694740D01*
X233946327Y-108783493D01*
X234242041Y-108935272D01*
X234553630Y-109051011D01*
X234876721Y-109129085D01*
X235206779Y-109168398D01*
X235206786Y-109168398D01*
X235455999Y-109168398D01*
X235518193Y-109164706D01*
X235704781Y-109153634D01*
X236031930Y-109094837D01*
X236349828Y-108997760D01*
X236654014Y-108863766D01*
X236940217Y-108694735D01*
X237096638Y-108575321D01*
X238835213Y-108575321D01*
X238861420Y-108796257D01*
X238861420Y-108796259D01*
X238861421Y-108796261D01*
X238868713Y-108819597D01*
X238924384Y-108997760D01*
X238927776Y-109008613D01*
X238927777Y-109008617D01*
X239004692Y-109153633D01*
X239032026Y-109205167D01*
X239170615Y-109379216D01*
X239338826Y-109524834D01*
X239482801Y-109608947D01*
X239736837Y-109727406D01*
X239855297Y-109782646D01*
X239907624Y-109801387D01*
X240012277Y-109838872D01*
X240231951Y-109874127D01*
X240449305Y-109868547D01*
X240454365Y-109868418D01*
X240490626Y-109860671D01*
X240671940Y-109821938D01*
X240877271Y-109736269D01*
X241063364Y-109614330D01*
X241223882Y-109460273D01*
X241353359Y-109279344D01*
X241447386Y-109077703D01*
X241502760Y-108862219D01*
X241517597Y-108640229D01*
X241491390Y-108419293D01*
X241425033Y-108206933D01*
X241320784Y-108010383D01*
X241205417Y-107865498D01*
X241182196Y-107836335D01*
X241164904Y-107821365D01*
X241013984Y-107690716D01*
X240870009Y-107606603D01*
X240497512Y-107432904D01*
X240340533Y-107376679D01*
X240340532Y-107376678D01*
X240340530Y-107376678D01*
X240120861Y-107341423D01*
X240120859Y-107341423D01*
X240110505Y-107341688D01*
X239898444Y-107347131D01*
X239680874Y-107393611D01*
X239680869Y-107393612D01*
X239475537Y-107479282D01*
X239475533Y-107479284D01*
X239289451Y-107601215D01*
X239289441Y-107601223D01*
X239128929Y-107755275D01*
X239128927Y-107755277D01*
X238999450Y-107936206D01*
X238905424Y-108137846D01*
X238850049Y-108353331D01*
X238840713Y-108493030D01*
X238835213Y-108575321D01*
X237096638Y-108575321D01*
X237204419Y-108493040D01*
X237442911Y-108261514D01*
X237652347Y-108003404D01*
X237829784Y-107722336D01*
X237972734Y-107422255D01*
X238079189Y-107107373D01*
X238147654Y-106782110D01*
X238177169Y-106451032D01*
X238167319Y-106118788D01*
X238118243Y-105790040D01*
X238030629Y-105469404D01*
X237905707Y-105161381D01*
X237890929Y-105134576D01*
X237846957Y-105054815D01*
X237745232Y-104870295D01*
X237551455Y-104600233D01*
X237551453Y-104600230D01*
X237551444Y-104600220D01*
X237327909Y-104355872D01*
X237327097Y-104354984D01*
X237323988Y-104352305D01*
X237188725Y-104235735D01*
X237075308Y-104137992D01*
X237075304Y-104137989D01*
X237075296Y-104137983D01*
X236799627Y-103952307D01*
X236799626Y-103952306D01*
X236799623Y-103952304D01*
X236799621Y-103952303D01*
X236503907Y-103800524D01*
X236503902Y-103800522D01*
X236503900Y-103800521D01*
X236192322Y-103684786D01*
X236172160Y-103679914D01*
X236128291Y-103669313D01*
X235869228Y-103606711D01*
X235869223Y-103606710D01*
X235729661Y-103590087D01*
X235539169Y-103567398D01*
X235289951Y-103567398D01*
X235289949Y-103567398D01*
X235041172Y-103582161D01*
X235041165Y-103582162D01*
X234714017Y-103640959D01*
X234447750Y-103722269D01*
X234377884Y-103723022D01*
X234318702Y-103685883D01*
X234288994Y-103622643D01*
X234298192Y-103553382D01*
X234314584Y-103526368D01*
X234402351Y-103416313D01*
X234529785Y-103195589D01*
X234622900Y-102958338D01*
X234654661Y-102819183D01*
X238125081Y-102819183D01*
X238144126Y-103073333D01*
X238177069Y-103217667D01*
X238200841Y-103321816D01*
X238283095Y-103531395D01*
X238293957Y-103559069D01*
X238304131Y-103576691D01*
X238421390Y-103779791D01*
X238580299Y-103979056D01*
X238767132Y-104152411D01*
X238977715Y-104295984D01*
X238977720Y-104295986D01*
X238977721Y-104295987D01*
X238977722Y-104295988D01*
X239092383Y-104351205D01*
X239094665Y-104352362D01*
X239095479Y-104352795D01*
X239095488Y-104352801D01*
X239102070Y-104355870D01*
X239207345Y-104406568D01*
X239209593Y-104407261D01*
X239213446Y-104408450D01*
X239221391Y-104411510D01*
X241331549Y-105395493D01*
X241425218Y-105440601D01*
X241436862Y-105446209D01*
X241680408Y-105521333D01*
X241932431Y-105559320D01*
X242187301Y-105559320D01*
X242439324Y-105521333D01*
X242682870Y-105446209D01*
X242912500Y-105335625D01*
X243123083Y-105192052D01*
X243309916Y-105018697D01*
X243468825Y-104819432D01*
X243596259Y-104598708D01*
X243689374Y-104361457D01*
X243746088Y-104112977D01*
X243758945Y-103941409D01*
X243765134Y-103858824D01*
X243765134Y-103858815D01*
X243746088Y-103604665D01*
X243745393Y-103601621D01*
X243689374Y-103356183D01*
X243596259Y-103118932D01*
X243468825Y-102898208D01*
X243309916Y-102698943D01*
X243123083Y-102525588D01*
X242912500Y-102382015D01*
X242912496Y-102382013D01*
X242912493Y-102382011D01*
X242912492Y-102382010D01*
X242797837Y-102326796D01*
X242795559Y-102325641D01*
X242794732Y-102325200D01*
X242788094Y-102322104D01*
X242776544Y-102316542D01*
X242756390Y-102306836D01*
X242682869Y-102271430D01*
X242676760Y-102269546D01*
X242668827Y-102266489D01*
X241135992Y-101551717D01*
X240558624Y-101282486D01*
X240453355Y-101231791D01*
X240453357Y-101231791D01*
X240209815Y-101156668D01*
X240209811Y-101156667D01*
X240209807Y-101156666D01*
X240088580Y-101138393D01*
X239957789Y-101118679D01*
X239957784Y-101118679D01*
X239702914Y-101118679D01*
X239702908Y-101118679D01*
X239545958Y-101142336D01*
X239450891Y-101156666D01*
X239450887Y-101156667D01*
X239450888Y-101156667D01*
X239450882Y-101156668D01*
X239207341Y-101231791D01*
X238977722Y-101342369D01*
X238977721Y-101342370D01*
X238767131Y-101485947D01*
X238580301Y-101659300D01*
X238580299Y-101659302D01*
X238421390Y-101858567D01*
X238293957Y-102079288D01*
X238200841Y-102316541D01*
X238200839Y-102316548D01*
X238144126Y-102565024D01*
X238125081Y-102819174D01*
X238125081Y-102819183D01*
X234654661Y-102819183D01*
X234679614Y-102709858D01*
X234695014Y-102504357D01*
X234698660Y-102455705D01*
X234698660Y-102455696D01*
X234680550Y-102214031D01*
X234679614Y-102201544D01*
X234622900Y-101953064D01*
X234529785Y-101715813D01*
X234402351Y-101495089D01*
X234243442Y-101295824D01*
X234056609Y-101122469D01*
X233846026Y-100978896D01*
X233846022Y-100978894D01*
X233846019Y-100978892D01*
X233846018Y-100978891D01*
X233616398Y-100868313D01*
X233616400Y-100868313D01*
X233372858Y-100793190D01*
X233372854Y-100793189D01*
X233372850Y-100793188D01*
X233251623Y-100774915D01*
X233120832Y-100755201D01*
X233120827Y-100755201D01*
X232865957Y-100755201D01*
X232865951Y-100755201D01*
X232709001Y-100778858D01*
X232613934Y-100793188D01*
X232613930Y-100793189D01*
X232613931Y-100793189D01*
X232613925Y-100793190D01*
X232370384Y-100868313D01*
X232140765Y-100978891D01*
X232140764Y-100978892D01*
X231930174Y-101122469D01*
X231743344Y-101295822D01*
X231743342Y-101295824D01*
X231584433Y-101495089D01*
X231457000Y-101715810D01*
X231363884Y-101953063D01*
X231363882Y-101953070D01*
X231307169Y-102201546D01*
X231288124Y-102455696D01*
X231288124Y-102455705D01*
X231307169Y-102709856D01*
X231362530Y-102952408D01*
X231358257Y-103022147D01*
X231316958Y-103078505D01*
X231251746Y-103103588D01*
X231189235Y-103092383D01*
X230890650Y-102953150D01*
X230733671Y-102896925D01*
X230733670Y-102896924D01*
X230733668Y-102896924D01*
X230513999Y-102861669D01*
X230513997Y-102861669D01*
X230503643Y-102861934D01*
X230291582Y-102867377D01*
X230074012Y-102913857D01*
X230074007Y-102913858D01*
X229868675Y-102999528D01*
X229868671Y-102999530D01*
X229682589Y-103121461D01*
X229682579Y-103121469D01*
X229522067Y-103275521D01*
X229522065Y-103275523D01*
X229392588Y-103456452D01*
X229298562Y-103658092D01*
X229243187Y-103873577D01*
X229231858Y-104043090D01*
X229228351Y-104095567D01*
X222046556Y-104095567D01*
X221891497Y-104023261D01*
X221891488Y-104023258D01*
X221671697Y-103964366D01*
X221671693Y-103964365D01*
X221671692Y-103964365D01*
X221671691Y-103964364D01*
X221671686Y-103964364D01*
X221445002Y-103944532D01*
X221444998Y-103944532D01*
X221218313Y-103964364D01*
X221218302Y-103964366D01*
X220998511Y-104023258D01*
X220998502Y-104023261D01*
X220792267Y-104119431D01*
X220792265Y-104119432D01*
X220605858Y-104249954D01*
X220444954Y-104410858D01*
X220314432Y-104597265D01*
X220314431Y-104597267D01*
X220218261Y-104803502D01*
X220218258Y-104803511D01*
X220159366Y-105023302D01*
X220159364Y-105023313D01*
X220139532Y-105249998D01*
X220139532Y-105251570D01*
X220139336Y-105252237D01*
X220139060Y-105255393D01*
X220138425Y-105255337D01*
X220119847Y-105318609D01*
X220067043Y-105364364D01*
X219997885Y-105374308D01*
X219934329Y-105345283D01*
X219927851Y-105339251D01*
X219904812Y-105316212D01*
X219894989Y-105303950D01*
X219894768Y-105304134D01*
X219889795Y-105298122D01*
X219840075Y-105251432D01*
X219838675Y-105250075D01*
X219818485Y-105229884D01*
X219812995Y-105225625D01*
X219808570Y-105221847D01*
X219774591Y-105189938D01*
X219774589Y-105189936D01*
X219774586Y-105189935D01*
X219757038Y-105180288D01*
X219740772Y-105169604D01*
X219724945Y-105157327D01*
X219724944Y-105157326D01*
X219724942Y-105157325D01*
X219682177Y-105138818D01*
X219676931Y-105136248D01*
X219636102Y-105113803D01*
X219636101Y-105113802D01*
X219616702Y-105108822D01*
X219598290Y-105102518D01*
X219579907Y-105094562D01*
X219579901Y-105094560D01*
X219533883Y-105087272D01*
X219528161Y-105086087D01*
X219483030Y-105074500D01*
X219483028Y-105074500D01*
X219462993Y-105074500D01*
X219443595Y-105072973D01*
X219435342Y-105071666D01*
X219423814Y-105069840D01*
X219423813Y-105069840D01*
X219377425Y-105074225D01*
X219371587Y-105074500D01*
X210183175Y-105074500D01*
X210116136Y-105054815D01*
X210080013Y-105019301D01*
X209936099Y-104803511D01*
X209563412Y-104244689D01*
X209561897Y-104242756D01*
X209442661Y-104090635D01*
X209442659Y-104090633D01*
X209252097Y-103912125D01*
X209193427Y-103872030D01*
X209088795Y-103800524D01*
X209036520Y-103764799D01*
X209036517Y-103764798D01*
X209036515Y-103764796D01*
X209036512Y-103764794D01*
X208800982Y-103652108D01*
X208550997Y-103576690D01*
X208328805Y-103545435D01*
X208292434Y-103540319D01*
X208292433Y-103540319D01*
X208031347Y-103543841D01*
X207773858Y-103587178D01*
X207773847Y-103587180D01*
X207526009Y-103669311D01*
X207525995Y-103669317D01*
X207485927Y-103689833D01*
X207417284Y-103702865D01*
X207352491Y-103676717D01*
X207341733Y-103667141D01*
X207329476Y-103654884D01*
X207323986Y-103650625D01*
X207319561Y-103646847D01*
X207285582Y-103614938D01*
X207285580Y-103614936D01*
X207285577Y-103614935D01*
X207268029Y-103605288D01*
X207251763Y-103594604D01*
X207242192Y-103587180D01*
X207235936Y-103582327D01*
X207235935Y-103582326D01*
X207235933Y-103582325D01*
X207193168Y-103563818D01*
X207187922Y-103561248D01*
X207147093Y-103538803D01*
X207147092Y-103538802D01*
X207127693Y-103533822D01*
X207109281Y-103527518D01*
X207090898Y-103519562D01*
X207090892Y-103519560D01*
X207044874Y-103512272D01*
X207039152Y-103511087D01*
X206994021Y-103499500D01*
X206994019Y-103499500D01*
X206973984Y-103499500D01*
X206954586Y-103497973D01*
X206947162Y-103496797D01*
X206934805Y-103494840D01*
X206934804Y-103494840D01*
X206888416Y-103499225D01*
X206882578Y-103499500D01*
X202011746Y-103499500D01*
X201996129Y-103497776D01*
X201996102Y-103498062D01*
X201988340Y-103497327D01*
X201920180Y-103499469D01*
X201918233Y-103499500D01*
X201889659Y-103499500D01*
X201888938Y-103499590D01*
X201882766Y-103500369D01*
X201876954Y-103500826D01*
X201830381Y-103502290D01*
X201830378Y-103502291D01*
X201811135Y-103507881D01*
X201792092Y-103511825D01*
X201772213Y-103514336D01*
X201772212Y-103514337D01*
X201728887Y-103531490D01*
X201723361Y-103533382D01*
X201678617Y-103546383D01*
X201678613Y-103546385D01*
X201661374Y-103556580D01*
X201643907Y-103565137D01*
X201625278Y-103572512D01*
X201625276Y-103572513D01*
X201587573Y-103599906D01*
X201582691Y-103603112D01*
X201542589Y-103626828D01*
X201528417Y-103641000D01*
X201513632Y-103653628D01*
X201497421Y-103665407D01*
X201467718Y-103701310D01*
X201463785Y-103705631D01*
X200786953Y-104382465D01*
X200131237Y-105038181D01*
X200069914Y-105071666D01*
X200043556Y-105074500D01*
X191133175Y-105074500D01*
X191066136Y-105054815D01*
X191030013Y-105019301D01*
X190886099Y-104803511D01*
X190513412Y-104244689D01*
X190511897Y-104242756D01*
X190392661Y-104090635D01*
X190392659Y-104090633D01*
X190202097Y-103912125D01*
X190143427Y-103872030D01*
X190038795Y-103800524D01*
X189986520Y-103764799D01*
X189986517Y-103764798D01*
X189986515Y-103764796D01*
X189986512Y-103764794D01*
X189750982Y-103652108D01*
X189500997Y-103576690D01*
X189278805Y-103545435D01*
X189242434Y-103540319D01*
X189242433Y-103540319D01*
X188981347Y-103543841D01*
X188723858Y-103587178D01*
X188723847Y-103587180D01*
X188476009Y-103669311D01*
X188476002Y-103669314D01*
X188243591Y-103788319D01*
X188032075Y-103941403D01*
X188032067Y-103941409D01*
X187846392Y-104124992D01*
X187690916Y-104334766D01*
X187569287Y-104565814D01*
X187569282Y-104565826D01*
X187484349Y-104812728D01*
X187438100Y-105069709D01*
X187431620Y-105330740D01*
X187431620Y-105330741D01*
X177615499Y-105330741D01*
X177615499Y-101450001D01*
X179109390Y-101450001D01*
X179129804Y-101735433D01*
X179190628Y-102015037D01*
X179190630Y-102015043D01*
X179190631Y-102015046D01*
X179264722Y-102213691D01*
X179290635Y-102283166D01*
X179427770Y-102534309D01*
X179427775Y-102534317D01*
X179599254Y-102763387D01*
X179599270Y-102763405D01*
X179801594Y-102965729D01*
X179801612Y-102965745D01*
X180030682Y-103137224D01*
X180030690Y-103137229D01*
X180281833Y-103274364D01*
X180281832Y-103274364D01*
X180281836Y-103274365D01*
X180281839Y-103274367D01*
X180549954Y-103374369D01*
X180549960Y-103374370D01*
X180549962Y-103374371D01*
X180829566Y-103435195D01*
X180829568Y-103435195D01*
X180829572Y-103435196D01*
X181043552Y-103450500D01*
X181186448Y-103450500D01*
X181400428Y-103435196D01*
X181680046Y-103374369D01*
X181948161Y-103274367D01*
X182199315Y-103137226D01*
X182428395Y-102965739D01*
X182630739Y-102763395D01*
X182802226Y-102534315D01*
X182939367Y-102283161D01*
X183039369Y-102015046D01*
X183055700Y-101939972D01*
X183100195Y-101735433D01*
X183100195Y-101735432D01*
X183100196Y-101735428D01*
X183112654Y-101561243D01*
X187489500Y-101561243D01*
X187530382Y-101779940D01*
X187597451Y-101953064D01*
X187610752Y-101987398D01*
X187610754Y-101987404D01*
X187727874Y-102176560D01*
X187727876Y-102176562D01*
X187877761Y-102340979D01*
X188055308Y-102475056D01*
X188055316Y-102475061D01*
X188254461Y-102574224D01*
X188254465Y-102574225D01*
X188254472Y-102574229D01*
X188468464Y-102635115D01*
X188634497Y-102650500D01*
X188634501Y-102650500D01*
X189045499Y-102650500D01*
X189045503Y-102650500D01*
X189211536Y-102635115D01*
X189425528Y-102574229D01*
X189624689Y-102475058D01*
X189802236Y-102340981D01*
X189952124Y-102176562D01*
X190069247Y-101987401D01*
X190149618Y-101779940D01*
X190190500Y-101561243D01*
X190190500Y-101338757D01*
X190149618Y-101120060D01*
X190069247Y-100912599D01*
X190044197Y-100872142D01*
X189990286Y-100785072D01*
X189971731Y-100717712D01*
X189992539Y-100651012D01*
X190046104Y-100606151D01*
X190114194Y-100597180D01*
X190202565Y-100610500D01*
X190457435Y-100610500D01*
X190709458Y-100572513D01*
X190953004Y-100497389D01*
X191182634Y-100386805D01*
X191345351Y-100275866D01*
X191411828Y-100254366D01*
X191479378Y-100272220D01*
X191526553Y-100323760D01*
X191538373Y-100392622D01*
X191532669Y-100418033D01*
X191433785Y-100710521D01*
X191365319Y-101035789D01*
X191365319Y-101035794D01*
X191335805Y-101366853D01*
X191335805Y-101366862D01*
X191335805Y-101366866D01*
X191341285Y-101551717D01*
X191345655Y-101699112D01*
X191365245Y-101830339D01*
X191392818Y-102015046D01*
X191394731Y-102027857D01*
X191394732Y-102027862D01*
X191482345Y-102348494D01*
X191482346Y-102348498D01*
X191607264Y-102656511D01*
X191607269Y-102656522D01*
X191666194Y-102763405D01*
X191767742Y-102947603D01*
X191804999Y-102999527D01*
X191961520Y-103217667D01*
X191961529Y-103217677D01*
X192174520Y-103450500D01*
X192185877Y-103462914D01*
X192437666Y-103679906D01*
X192437671Y-103679909D01*
X192437677Y-103679914D01*
X192598625Y-103788320D01*
X192713353Y-103865595D01*
X193009067Y-104017374D01*
X193320656Y-104133113D01*
X193643747Y-104211187D01*
X193973805Y-104250500D01*
X193973812Y-104250500D01*
X194223025Y-104250500D01*
X194285218Y-104246809D01*
X194471807Y-104235736D01*
X194798956Y-104176939D01*
X195116854Y-104079862D01*
X195421040Y-103945868D01*
X195707243Y-103776837D01*
X195971445Y-103575142D01*
X196209937Y-103343616D01*
X196419373Y-103085506D01*
X196596810Y-102804438D01*
X196739760Y-102504357D01*
X196846215Y-102189475D01*
X196914680Y-101864212D01*
X196941689Y-101561243D01*
X198089500Y-101561243D01*
X198130382Y-101779940D01*
X198197451Y-101953064D01*
X198210752Y-101987398D01*
X198210754Y-101987404D01*
X198327874Y-102176560D01*
X198327876Y-102176562D01*
X198477761Y-102340979D01*
X198655308Y-102475056D01*
X198655316Y-102475061D01*
X198854461Y-102574224D01*
X198854465Y-102574225D01*
X198854472Y-102574229D01*
X199068464Y-102635115D01*
X199234497Y-102650500D01*
X199234501Y-102650500D01*
X199645499Y-102650500D01*
X199645503Y-102650500D01*
X199811536Y-102635115D01*
X200025528Y-102574229D01*
X200224689Y-102475058D01*
X200402236Y-102340981D01*
X200552124Y-102176562D01*
X200669247Y-101987401D01*
X200749618Y-101779940D01*
X200790500Y-101561243D01*
X206539500Y-101561243D01*
X206580382Y-101779940D01*
X206647451Y-101953064D01*
X206660752Y-101987398D01*
X206660754Y-101987404D01*
X206777874Y-102176560D01*
X206777876Y-102176562D01*
X206927761Y-102340979D01*
X207105308Y-102475056D01*
X207105316Y-102475061D01*
X207304461Y-102574224D01*
X207304465Y-102574225D01*
X207304472Y-102574229D01*
X207518464Y-102635115D01*
X207684497Y-102650500D01*
X207684501Y-102650500D01*
X208095499Y-102650500D01*
X208095503Y-102650500D01*
X208261536Y-102635115D01*
X208475528Y-102574229D01*
X208674689Y-102475058D01*
X208852236Y-102340981D01*
X209002124Y-102176562D01*
X209119247Y-101987401D01*
X209199618Y-101779940D01*
X209240500Y-101561243D01*
X209240500Y-101338757D01*
X209199618Y-101120060D01*
X209119247Y-100912599D01*
X209094197Y-100872142D01*
X209040286Y-100785072D01*
X209021731Y-100717712D01*
X209042539Y-100651012D01*
X209096104Y-100606151D01*
X209164194Y-100597180D01*
X209252565Y-100610500D01*
X209507435Y-100610500D01*
X209759458Y-100572513D01*
X210003004Y-100497389D01*
X210232634Y-100386805D01*
X210395351Y-100275866D01*
X210461828Y-100254366D01*
X210529378Y-100272220D01*
X210576553Y-100323760D01*
X210588373Y-100392622D01*
X210582669Y-100418033D01*
X210483785Y-100710521D01*
X210415319Y-101035789D01*
X210415319Y-101035794D01*
X210385805Y-101366853D01*
X210385805Y-101366862D01*
X210385805Y-101366866D01*
X210391285Y-101551717D01*
X210395655Y-101699112D01*
X210415245Y-101830339D01*
X210442818Y-102015046D01*
X210444731Y-102027857D01*
X210444732Y-102027862D01*
X210532345Y-102348494D01*
X210532346Y-102348498D01*
X210657264Y-102656511D01*
X210657269Y-102656522D01*
X210716194Y-102763405D01*
X210817742Y-102947603D01*
X210854999Y-102999527D01*
X211011520Y-103217667D01*
X211011529Y-103217677D01*
X211224520Y-103450500D01*
X211235877Y-103462914D01*
X211487666Y-103679906D01*
X211487671Y-103679909D01*
X211487677Y-103679914D01*
X211648625Y-103788320D01*
X211763353Y-103865595D01*
X212059067Y-104017374D01*
X212370656Y-104133113D01*
X212693747Y-104211187D01*
X213023805Y-104250500D01*
X213023812Y-104250500D01*
X213273025Y-104250500D01*
X213335218Y-104246809D01*
X213521807Y-104235736D01*
X213848956Y-104176939D01*
X214166854Y-104079862D01*
X214471040Y-103945868D01*
X214757243Y-103776837D01*
X215021445Y-103575142D01*
X215259937Y-103343616D01*
X215469373Y-103085506D01*
X215646810Y-102804438D01*
X215789760Y-102504357D01*
X215896215Y-102189475D01*
X215964680Y-101864212D01*
X215991689Y-101561243D01*
X217139500Y-101561243D01*
X217180382Y-101779940D01*
X217247451Y-101953064D01*
X217260752Y-101987398D01*
X217260754Y-101987404D01*
X217377874Y-102176560D01*
X217377876Y-102176562D01*
X217527761Y-102340979D01*
X217705308Y-102475056D01*
X217705316Y-102475061D01*
X217904461Y-102574224D01*
X217904465Y-102574225D01*
X217904472Y-102574229D01*
X218118464Y-102635115D01*
X218284497Y-102650500D01*
X218284501Y-102650500D01*
X218695499Y-102650500D01*
X218695503Y-102650500D01*
X218861536Y-102635115D01*
X219075528Y-102574229D01*
X219274689Y-102475058D01*
X219452236Y-102340981D01*
X219602124Y-102176562D01*
X219719247Y-101987401D01*
X219799618Y-101779940D01*
X219840500Y-101561243D01*
X219840500Y-101450001D01*
X222814390Y-101450001D01*
X222834804Y-101735433D01*
X222895628Y-102015037D01*
X222895630Y-102015043D01*
X222895631Y-102015046D01*
X222969722Y-102213691D01*
X222995635Y-102283166D01*
X223132770Y-102534309D01*
X223132775Y-102534317D01*
X223304254Y-102763387D01*
X223304270Y-102763405D01*
X223506594Y-102965729D01*
X223506612Y-102965745D01*
X223735682Y-103137224D01*
X223735690Y-103137229D01*
X223986833Y-103274364D01*
X223986832Y-103274364D01*
X223986836Y-103274365D01*
X223986839Y-103274367D01*
X224254954Y-103374369D01*
X224254960Y-103374370D01*
X224254962Y-103374371D01*
X224534566Y-103435195D01*
X224534568Y-103435195D01*
X224534572Y-103435196D01*
X224748552Y-103450500D01*
X224891448Y-103450500D01*
X225105428Y-103435196D01*
X225385046Y-103374369D01*
X225653161Y-103274367D01*
X225904315Y-103137226D01*
X226133395Y-102965739D01*
X226335739Y-102763395D01*
X226507226Y-102534315D01*
X226644367Y-102283161D01*
X226744369Y-102015046D01*
X226760700Y-101939972D01*
X226805195Y-101735433D01*
X226805195Y-101735432D01*
X226805196Y-101735428D01*
X226825610Y-101450000D01*
X226805196Y-101164572D01*
X226803476Y-101156667D01*
X226744371Y-100884962D01*
X226744370Y-100884960D01*
X226744369Y-100884954D01*
X226644367Y-100616839D01*
X226633632Y-100597180D01*
X226507229Y-100365690D01*
X226507224Y-100365682D01*
X226335745Y-100136612D01*
X226335729Y-100136594D01*
X226133405Y-99934270D01*
X226133387Y-99934254D01*
X225904317Y-99762775D01*
X225904309Y-99762770D01*
X225653166Y-99625635D01*
X225653167Y-99625635D01*
X225545915Y-99585632D01*
X225385046Y-99525631D01*
X225385043Y-99525630D01*
X225385037Y-99525628D01*
X225105433Y-99464804D01*
X224891450Y-99449500D01*
X224891448Y-99449500D01*
X224748552Y-99449500D01*
X224748549Y-99449500D01*
X224534566Y-99464804D01*
X224254962Y-99525628D01*
X223986833Y-99625635D01*
X223735690Y-99762770D01*
X223735682Y-99762775D01*
X223506612Y-99934254D01*
X223506594Y-99934270D01*
X223304270Y-100136594D01*
X223304254Y-100136612D01*
X223132775Y-100365682D01*
X223132770Y-100365690D01*
X222995635Y-100616833D01*
X222895628Y-100884962D01*
X222834804Y-101164566D01*
X222814390Y-101449998D01*
X222814390Y-101450001D01*
X219840500Y-101450001D01*
X219840500Y-101338757D01*
X219799618Y-101120060D01*
X219719247Y-100912599D01*
X219694197Y-100872142D01*
X219602125Y-100723439D01*
X219602123Y-100723437D01*
X219452238Y-100559020D01*
X219274691Y-100424943D01*
X219274683Y-100424938D01*
X219075538Y-100325775D01*
X219075523Y-100325769D01*
X218861537Y-100264885D01*
X218861535Y-100264884D01*
X218743653Y-100253961D01*
X218695503Y-100249500D01*
X218284497Y-100249500D01*
X218239601Y-100253660D01*
X218118464Y-100264884D01*
X218118462Y-100264885D01*
X217904476Y-100325769D01*
X217904461Y-100325775D01*
X217705316Y-100424938D01*
X217705308Y-100424943D01*
X217527761Y-100559020D01*
X217377876Y-100723437D01*
X217377874Y-100723439D01*
X217260754Y-100912595D01*
X217260753Y-100912599D01*
X217180382Y-101120060D01*
X217139500Y-101338757D01*
X217139500Y-101561243D01*
X215991689Y-101561243D01*
X215994195Y-101533134D01*
X215984345Y-101200890D01*
X215935269Y-100872142D01*
X215847655Y-100551506D01*
X215722733Y-100243483D01*
X215562258Y-99952397D01*
X215368481Y-99682335D01*
X215368479Y-99682332D01*
X215368470Y-99682322D01*
X215155480Y-99449500D01*
X215144123Y-99437086D01*
X215132852Y-99427373D01*
X214892336Y-99220096D01*
X214892334Y-99220094D01*
X214892330Y-99220091D01*
X214892322Y-99220085D01*
X214616653Y-99034409D01*
X214616652Y-99034408D01*
X214616649Y-99034406D01*
X214616647Y-99034405D01*
X214320933Y-98882626D01*
X214320928Y-98882624D01*
X214320926Y-98882623D01*
X214009348Y-98766888D01*
X213686254Y-98688813D01*
X213686249Y-98688812D01*
X213546687Y-98672189D01*
X213356195Y-98649500D01*
X213106977Y-98649500D01*
X213106975Y-98649500D01*
X212858198Y-98664263D01*
X212858191Y-98664264D01*
X212531043Y-98723061D01*
X212213142Y-98820139D01*
X211908960Y-98954131D01*
X211908955Y-98954134D01*
X211622765Y-99123157D01*
X211622748Y-99123169D01*
X211358553Y-99324859D01*
X211358544Y-99324867D01*
X211236329Y-99443513D01*
X211174517Y-99476086D01*
X211104907Y-99470069D01*
X211049600Y-99427373D01*
X211026155Y-99361554D01*
X211029066Y-99326949D01*
X211053454Y-99220096D01*
X211066222Y-99164157D01*
X211082233Y-98950498D01*
X211085268Y-98910004D01*
X211085268Y-98909995D01*
X211066222Y-98655845D01*
X211043771Y-98557482D01*
X211030165Y-98497870D01*
X220144500Y-98497870D01*
X220144501Y-98497876D01*
X220150908Y-98557483D01*
X220201202Y-98692328D01*
X220201206Y-98692335D01*
X220287452Y-98807544D01*
X220287455Y-98807547D01*
X220402664Y-98893793D01*
X220402671Y-98893797D01*
X220537517Y-98944091D01*
X220537516Y-98944091D01*
X220544444Y-98944835D01*
X220597127Y-98950500D01*
X222292872Y-98950499D01*
X222352483Y-98944091D01*
X222487331Y-98893796D01*
X222602546Y-98807546D01*
X222688796Y-98692331D01*
X222739091Y-98557483D01*
X222745500Y-98497873D01*
X222745499Y-96802128D01*
X222739091Y-96742517D01*
X222688796Y-96607669D01*
X222688795Y-96607668D01*
X222688793Y-96607664D01*
X222602547Y-96492455D01*
X222602544Y-96492452D01*
X222487335Y-96406206D01*
X222487328Y-96406202D01*
X222352482Y-96355908D01*
X222352483Y-96355908D01*
X222292883Y-96349501D01*
X222292881Y-96349500D01*
X222292873Y-96349500D01*
X222292864Y-96349500D01*
X220597129Y-96349500D01*
X220597123Y-96349501D01*
X220537516Y-96355908D01*
X220402671Y-96406202D01*
X220402664Y-96406206D01*
X220287455Y-96492452D01*
X220287452Y-96492455D01*
X220201206Y-96607664D01*
X220201202Y-96607671D01*
X220150908Y-96742517D01*
X220144501Y-96802116D01*
X220144501Y-96802123D01*
X220144500Y-96802135D01*
X220144500Y-98497870D01*
X211030165Y-98497870D01*
X211009508Y-98407363D01*
X210916393Y-98170112D01*
X210788959Y-97949388D01*
X210630050Y-97750123D01*
X210443217Y-97576768D01*
X210232634Y-97433195D01*
X210232630Y-97433193D01*
X210232627Y-97433191D01*
X210232626Y-97433190D01*
X210003006Y-97322612D01*
X210003008Y-97322612D01*
X209759466Y-97247489D01*
X209759462Y-97247488D01*
X209759458Y-97247487D01*
X209638231Y-97229214D01*
X209507440Y-97209500D01*
X209507435Y-97209500D01*
X209252565Y-97209500D01*
X209252559Y-97209500D01*
X209095609Y-97233157D01*
X209000542Y-97247487D01*
X209000538Y-97247488D01*
X209000539Y-97247488D01*
X209000533Y-97247489D01*
X208756992Y-97322612D01*
X208527373Y-97433190D01*
X208527372Y-97433191D01*
X208316782Y-97576768D01*
X208129952Y-97750121D01*
X208129950Y-97750123D01*
X207971041Y-97949388D01*
X207843608Y-98170109D01*
X207750492Y-98407362D01*
X207750490Y-98407369D01*
X207693777Y-98655845D01*
X207674732Y-98909995D01*
X207674732Y-98910004D01*
X207693777Y-99164154D01*
X207738832Y-99361554D01*
X207750492Y-99412637D01*
X207843607Y-99649888D01*
X207971041Y-99870612D01*
X208036265Y-99952400D01*
X208112653Y-100048187D01*
X208139061Y-100112874D01*
X208126306Y-100181569D01*
X208078435Y-100232463D01*
X208015706Y-100249500D01*
X207684497Y-100249500D01*
X207639601Y-100253660D01*
X207518464Y-100264884D01*
X207518462Y-100264885D01*
X207304476Y-100325769D01*
X207304461Y-100325775D01*
X207105316Y-100424938D01*
X207105308Y-100424943D01*
X206927761Y-100559020D01*
X206777876Y-100723437D01*
X206777874Y-100723439D01*
X206660754Y-100912595D01*
X206660753Y-100912599D01*
X206580382Y-101120060D01*
X206539500Y-101338757D01*
X206539500Y-101561243D01*
X200790500Y-101561243D01*
X200790500Y-101338757D01*
X200749618Y-101120060D01*
X200669247Y-100912599D01*
X200644197Y-100872142D01*
X200552125Y-100723439D01*
X200552123Y-100723437D01*
X200402238Y-100559020D01*
X200224691Y-100424943D01*
X200224683Y-100424938D01*
X200025538Y-100325775D01*
X200025523Y-100325769D01*
X199811537Y-100264885D01*
X199811535Y-100264884D01*
X199693653Y-100253961D01*
X199645503Y-100249500D01*
X199234497Y-100249500D01*
X199189601Y-100253660D01*
X199068464Y-100264884D01*
X199068462Y-100264885D01*
X198854476Y-100325769D01*
X198854461Y-100325775D01*
X198655316Y-100424938D01*
X198655308Y-100424943D01*
X198477761Y-100559020D01*
X198327876Y-100723437D01*
X198327874Y-100723439D01*
X198210754Y-100912595D01*
X198210753Y-100912599D01*
X198130382Y-101120060D01*
X198089500Y-101338757D01*
X198089500Y-101561243D01*
X196941689Y-101561243D01*
X196944195Y-101533134D01*
X196934345Y-101200890D01*
X196885269Y-100872142D01*
X196797655Y-100551506D01*
X196672733Y-100243483D01*
X196512258Y-99952397D01*
X196318481Y-99682335D01*
X196318479Y-99682332D01*
X196318470Y-99682322D01*
X196105480Y-99449500D01*
X196094123Y-99437086D01*
X196082852Y-99427373D01*
X195842336Y-99220096D01*
X195842334Y-99220094D01*
X195842330Y-99220091D01*
X195842322Y-99220085D01*
X195566653Y-99034409D01*
X195566652Y-99034408D01*
X195566649Y-99034406D01*
X195566647Y-99034405D01*
X195270933Y-98882626D01*
X195270928Y-98882624D01*
X195270926Y-98882623D01*
X194959348Y-98766888D01*
X194636254Y-98688813D01*
X194636249Y-98688812D01*
X194496687Y-98672189D01*
X194306195Y-98649500D01*
X194056977Y-98649500D01*
X194056975Y-98649500D01*
X193808198Y-98664263D01*
X193808191Y-98664264D01*
X193481043Y-98723061D01*
X193163142Y-98820139D01*
X192858960Y-98954131D01*
X192858955Y-98954134D01*
X192572765Y-99123157D01*
X192572748Y-99123169D01*
X192308553Y-99324859D01*
X192308544Y-99324867D01*
X192186329Y-99443513D01*
X192124517Y-99476086D01*
X192054907Y-99470069D01*
X191999600Y-99427373D01*
X191976155Y-99361554D01*
X191979066Y-99326949D01*
X192003454Y-99220096D01*
X192016222Y-99164157D01*
X192032233Y-98950498D01*
X192035268Y-98910004D01*
X192035268Y-98909995D01*
X192016222Y-98655845D01*
X191993771Y-98557482D01*
X191980165Y-98497870D01*
X201094500Y-98497870D01*
X201094501Y-98497876D01*
X201100908Y-98557483D01*
X201151202Y-98692328D01*
X201151206Y-98692335D01*
X201237452Y-98807544D01*
X201237455Y-98807547D01*
X201352664Y-98893793D01*
X201352671Y-98893797D01*
X201487517Y-98944091D01*
X201487516Y-98944091D01*
X201494444Y-98944835D01*
X201547127Y-98950500D01*
X203242872Y-98950499D01*
X203302483Y-98944091D01*
X203437331Y-98893796D01*
X203552546Y-98807546D01*
X203565733Y-98789929D01*
X203621666Y-98748058D01*
X203691358Y-98743074D01*
X203752681Y-98776558D01*
X203764267Y-98789930D01*
X203777454Y-98807546D01*
X203777455Y-98807547D01*
X203892664Y-98893793D01*
X203892671Y-98893797D01*
X204027517Y-98944091D01*
X204027516Y-98944091D01*
X204034444Y-98944835D01*
X204087127Y-98950500D01*
X205782872Y-98950499D01*
X205842483Y-98944091D01*
X205977331Y-98893796D01*
X206092546Y-98807546D01*
X206178796Y-98692331D01*
X206229091Y-98557483D01*
X206235500Y-98497873D01*
X206235499Y-96802128D01*
X206229091Y-96742517D01*
X206178796Y-96607669D01*
X206178795Y-96607668D01*
X206178793Y-96607664D01*
X206092547Y-96492455D01*
X206092544Y-96492452D01*
X205977335Y-96406206D01*
X205977328Y-96406202D01*
X205842482Y-96355908D01*
X205842483Y-96355908D01*
X205787562Y-96350004D01*
X214024732Y-96350004D01*
X214043777Y-96604154D01*
X214088963Y-96802129D01*
X214100492Y-96852637D01*
X214193607Y-97089888D01*
X214321041Y-97310612D01*
X214479950Y-97509877D01*
X214666783Y-97683232D01*
X214877366Y-97826805D01*
X214877371Y-97826807D01*
X214877372Y-97826808D01*
X214877373Y-97826809D01*
X214999328Y-97885538D01*
X215106992Y-97937387D01*
X215106993Y-97937387D01*
X215106996Y-97937389D01*
X215350542Y-98012513D01*
X215602565Y-98050500D01*
X215908789Y-98050500D01*
X215908798Y-98050499D01*
X218060361Y-98050499D01*
X218060389Y-98050500D01*
X218062565Y-98050500D01*
X218317435Y-98050500D01*
X218569458Y-98012513D01*
X218813004Y-97937389D01*
X219042634Y-97826805D01*
X219253217Y-97683232D01*
X219440050Y-97509877D01*
X219598959Y-97310612D01*
X219726393Y-97089888D01*
X219819508Y-96852637D01*
X219876222Y-96604157D01*
X219891056Y-96406204D01*
X219895268Y-96350004D01*
X219895268Y-96349995D01*
X219876222Y-96095845D01*
X219819509Y-95847369D01*
X219819508Y-95847363D01*
X219726393Y-95610112D01*
X219598959Y-95389388D01*
X219440050Y-95190123D01*
X219253217Y-95016768D01*
X219042634Y-94873195D01*
X219042630Y-94873193D01*
X219042627Y-94873191D01*
X219042626Y-94873190D01*
X218813006Y-94762612D01*
X218813008Y-94762612D01*
X218569466Y-94687489D01*
X218569462Y-94687488D01*
X218569458Y-94687487D01*
X218448231Y-94669214D01*
X218317440Y-94649500D01*
X218317435Y-94649500D01*
X218062565Y-94649500D01*
X218062564Y-94649500D01*
X215857441Y-94649500D01*
X215857435Y-94649500D01*
X215602565Y-94649500D01*
X215602559Y-94649500D01*
X215445609Y-94673157D01*
X215350542Y-94687487D01*
X215350538Y-94687488D01*
X215350539Y-94687488D01*
X215350533Y-94687489D01*
X215106992Y-94762612D01*
X214877373Y-94873190D01*
X214877372Y-94873191D01*
X214666782Y-95016768D01*
X214479952Y-95190121D01*
X214479950Y-95190123D01*
X214321041Y-95389388D01*
X214193608Y-95610109D01*
X214100492Y-95847362D01*
X214100490Y-95847369D01*
X214043777Y-96095845D01*
X214024732Y-96349995D01*
X214024732Y-96350004D01*
X205787562Y-96350004D01*
X205782883Y-96349501D01*
X205782881Y-96349500D01*
X205782873Y-96349500D01*
X205782864Y-96349500D01*
X204087129Y-96349500D01*
X204087123Y-96349501D01*
X204027516Y-96355908D01*
X203892671Y-96406202D01*
X203892664Y-96406206D01*
X203777455Y-96492452D01*
X203764263Y-96510074D01*
X203708328Y-96551943D01*
X203638636Y-96556924D01*
X203577314Y-96523437D01*
X203565736Y-96510074D01*
X203552546Y-96492454D01*
X203552544Y-96492453D01*
X203552544Y-96492452D01*
X203437335Y-96406206D01*
X203437328Y-96406202D01*
X203302482Y-96355908D01*
X203302483Y-96355908D01*
X203242883Y-96349501D01*
X203242881Y-96349500D01*
X203242873Y-96349500D01*
X203242864Y-96349500D01*
X201547129Y-96349500D01*
X201547123Y-96349501D01*
X201487516Y-96355908D01*
X201352671Y-96406202D01*
X201352664Y-96406206D01*
X201237455Y-96492452D01*
X201237452Y-96492455D01*
X201151206Y-96607664D01*
X201151202Y-96607671D01*
X201100908Y-96742517D01*
X201094501Y-96802116D01*
X201094501Y-96802123D01*
X201094500Y-96802135D01*
X201094500Y-98497870D01*
X191980165Y-98497870D01*
X191959508Y-98407363D01*
X191866393Y-98170112D01*
X191738959Y-97949388D01*
X191580050Y-97750123D01*
X191393217Y-97576768D01*
X191182634Y-97433195D01*
X191182630Y-97433193D01*
X191182627Y-97433191D01*
X191182626Y-97433190D01*
X190953006Y-97322612D01*
X190953008Y-97322612D01*
X190709466Y-97247489D01*
X190709462Y-97247488D01*
X190709458Y-97247487D01*
X190588231Y-97229214D01*
X190457440Y-97209500D01*
X190457435Y-97209500D01*
X190202565Y-97209500D01*
X190202559Y-97209500D01*
X190045609Y-97233157D01*
X189950542Y-97247487D01*
X189950538Y-97247488D01*
X189950539Y-97247488D01*
X189950533Y-97247489D01*
X189706992Y-97322612D01*
X189477373Y-97433190D01*
X189477372Y-97433191D01*
X189266782Y-97576768D01*
X189079952Y-97750121D01*
X189079950Y-97750123D01*
X188921041Y-97949388D01*
X188793608Y-98170109D01*
X188700492Y-98407362D01*
X188700490Y-98407369D01*
X188643777Y-98655845D01*
X188624732Y-98909995D01*
X188624732Y-98910004D01*
X188643777Y-99164154D01*
X188688832Y-99361554D01*
X188700492Y-99412637D01*
X188793607Y-99649888D01*
X188921041Y-99870612D01*
X188986265Y-99952400D01*
X189062653Y-100048187D01*
X189089061Y-100112874D01*
X189076306Y-100181569D01*
X189028435Y-100232463D01*
X188965706Y-100249500D01*
X188634497Y-100249500D01*
X188589601Y-100253660D01*
X188468464Y-100264884D01*
X188468462Y-100264885D01*
X188254476Y-100325769D01*
X188254461Y-100325775D01*
X188055316Y-100424938D01*
X188055308Y-100424943D01*
X187877761Y-100559020D01*
X187727876Y-100723437D01*
X187727874Y-100723439D01*
X187610754Y-100912595D01*
X187610753Y-100912599D01*
X187530382Y-101120060D01*
X187489500Y-101338757D01*
X187489500Y-101561243D01*
X183112654Y-101561243D01*
X183120610Y-101450000D01*
X183100196Y-101164572D01*
X183098476Y-101156667D01*
X183039371Y-100884962D01*
X183039370Y-100884960D01*
X183039369Y-100884954D01*
X182939367Y-100616839D01*
X182928632Y-100597180D01*
X182802229Y-100365690D01*
X182802224Y-100365682D01*
X182630745Y-100136612D01*
X182630729Y-100136594D01*
X182428405Y-99934270D01*
X182428387Y-99934254D01*
X182199317Y-99762775D01*
X182199309Y-99762770D01*
X181948166Y-99625635D01*
X181948167Y-99625635D01*
X181840914Y-99585632D01*
X181680046Y-99525631D01*
X181680043Y-99525630D01*
X181680037Y-99525628D01*
X181400433Y-99464804D01*
X181186450Y-99449500D01*
X181186448Y-99449500D01*
X181043552Y-99449500D01*
X181043549Y-99449500D01*
X180829566Y-99464804D01*
X180549962Y-99525628D01*
X180281833Y-99625635D01*
X180030690Y-99762770D01*
X180030682Y-99762775D01*
X179801612Y-99934254D01*
X179801594Y-99934270D01*
X179599270Y-100136594D01*
X179599254Y-100136612D01*
X179427775Y-100365682D01*
X179427770Y-100365690D01*
X179290635Y-100616833D01*
X179190628Y-100884962D01*
X179129804Y-101164566D01*
X179109390Y-101449998D01*
X179109390Y-101450001D01*
X177615499Y-101450001D01*
X177615499Y-96350004D01*
X194974732Y-96350004D01*
X194993777Y-96604154D01*
X195038963Y-96802129D01*
X195050492Y-96852637D01*
X195143607Y-97089888D01*
X195271041Y-97310612D01*
X195429950Y-97509877D01*
X195616783Y-97683232D01*
X195827366Y-97826805D01*
X195827371Y-97826807D01*
X195827372Y-97826808D01*
X195827373Y-97826809D01*
X195949328Y-97885538D01*
X196056992Y-97937387D01*
X196056993Y-97937387D01*
X196056996Y-97937389D01*
X196300542Y-98012513D01*
X196552565Y-98050500D01*
X196858789Y-98050500D01*
X196858798Y-98050499D01*
X199010361Y-98050499D01*
X199010389Y-98050500D01*
X199012565Y-98050500D01*
X199267435Y-98050500D01*
X199519458Y-98012513D01*
X199763004Y-97937389D01*
X199992634Y-97826805D01*
X200203217Y-97683232D01*
X200390050Y-97509877D01*
X200548959Y-97310612D01*
X200676393Y-97089888D01*
X200769508Y-96852637D01*
X200826222Y-96604157D01*
X200841056Y-96406204D01*
X200845268Y-96350004D01*
X200845268Y-96349995D01*
X200826222Y-96095845D01*
X200769509Y-95847369D01*
X200769508Y-95847363D01*
X200676393Y-95610112D01*
X200548959Y-95389388D01*
X200390050Y-95190123D01*
X200203217Y-95016768D01*
X199992634Y-94873195D01*
X199992630Y-94873193D01*
X199992627Y-94873191D01*
X199992626Y-94873190D01*
X199763006Y-94762612D01*
X199763008Y-94762612D01*
X199519466Y-94687489D01*
X199519462Y-94687488D01*
X199519458Y-94687487D01*
X199398231Y-94669214D01*
X199267440Y-94649500D01*
X199267435Y-94649500D01*
X199012565Y-94649500D01*
X199012564Y-94649500D01*
X196807441Y-94649500D01*
X196807435Y-94649500D01*
X196552565Y-94649500D01*
X196552559Y-94649500D01*
X196395609Y-94673157D01*
X196300542Y-94687487D01*
X196300538Y-94687488D01*
X196300539Y-94687488D01*
X196300533Y-94687489D01*
X196056992Y-94762612D01*
X195827373Y-94873190D01*
X195827372Y-94873191D01*
X195616782Y-95016768D01*
X195429952Y-95190121D01*
X195429950Y-95190123D01*
X195271041Y-95389388D01*
X195143608Y-95610109D01*
X195050492Y-95847362D01*
X195050490Y-95847369D01*
X194993777Y-96095845D01*
X194974732Y-96349995D01*
X194974732Y-96350004D01*
X177615499Y-96350004D01*
X177615499Y-92428479D01*
X177615888Y-92421543D01*
X177618464Y-92398685D01*
X177628933Y-92319163D01*
X177634827Y-92294407D01*
X177646775Y-92260263D01*
X177648006Y-92257035D01*
X177670474Y-92202794D01*
X177680021Y-92184313D01*
X177701922Y-92149459D01*
X177705197Y-92144752D01*
X177742003Y-92096786D01*
X177747323Y-92090718D01*
X177780718Y-92057323D01*
X177786786Y-92052003D01*
X177834752Y-92015197D01*
X177839459Y-92011922D01*
X177874313Y-91990021D01*
X177892794Y-91980474D01*
X177947035Y-91958006D01*
X177950263Y-91956775D01*
X177953351Y-91955694D01*
X177984407Y-91944827D01*
X178009163Y-91938933D01*
X178088629Y-91928471D01*
X178111541Y-91925889D01*
X178118481Y-91925500D01*
X217575240Y-91925500D01*
X217575383Y-91925528D01*
X217575384Y-91925524D01*
X217599997Y-91925539D01*
X217600000Y-91925541D01*
X217600383Y-91925383D01*
X217600500Y-91925099D01*
X217600541Y-91925000D01*
X217600540Y-91924997D01*
X217600583Y-91900889D01*
X217600500Y-91900467D01*
X217600500Y-91584769D01*
X217620185Y-91517730D01*
X217672989Y-91471975D01*
X217742147Y-91462031D01*
X217805703Y-91491056D01*
X217826073Y-91513644D01*
X217831505Y-91521401D01*
X217998599Y-91688495D01*
X218080208Y-91745638D01*
X218192165Y-91824032D01*
X218192167Y-91824033D01*
X218192170Y-91824035D01*
X218406337Y-91923903D01*
X218406343Y-91923904D01*
X218406344Y-91923905D01*
X218459038Y-91938024D01*
X218634592Y-91985063D01*
X218811034Y-92000500D01*
X218869999Y-92005659D01*
X218870000Y-92005659D01*
X218870001Y-92005659D01*
X218928966Y-92000500D01*
X219105408Y-91985063D01*
X219333663Y-91923903D01*
X219547830Y-91824035D01*
X219741401Y-91688495D01*
X219908495Y-91521401D01*
X220038426Y-91335840D01*
X220093001Y-91292217D01*
X220162499Y-91285023D01*
X220224854Y-91316546D01*
X220241574Y-91335841D01*
X220371505Y-91521401D01*
X220538599Y-91688495D01*
X220620208Y-91745638D01*
X220732165Y-91824032D01*
X220732167Y-91824033D01*
X220732170Y-91824035D01*
X220946337Y-91923903D01*
X220946343Y-91923904D01*
X220946344Y-91923905D01*
X220999038Y-91938024D01*
X221174592Y-91985063D01*
X221351034Y-92000500D01*
X221409999Y-92005659D01*
X221410000Y-92005659D01*
X221410001Y-92005659D01*
X221468966Y-92000500D01*
X221645408Y-91985063D01*
X221873663Y-91923903D01*
X222087830Y-91824035D01*
X222281401Y-91688495D01*
X222448495Y-91521401D01*
X222578426Y-91335841D01*
X222633002Y-91292217D01*
X222702500Y-91285023D01*
X222764855Y-91316546D01*
G37*
G04 #@! TD.AperFunction*
M02*
