G04 #@! TF.GenerationSoftware,KiCad,Pcbnew,7.0.5*
G04 #@! TF.CreationDate,2023-08-14T09:41:47+08:00*
G04 #@! TF.ProjectId,LT,4c542e6b-6963-4616-945f-706362585858,rev?*
G04 #@! TF.SameCoordinates,Original*
G04 #@! TF.FileFunction,Copper,L1,Top*
G04 #@! TF.FilePolarity,Positive*
%FSLAX46Y46*%
G04 Gerber Fmt 4.6, Leading zero omitted, Abs format (unit mm)*
G04 Created by KiCad (PCBNEW 7.0.5) date 2023-08-14 09:41:47*
%MOMM*%
%LPD*%
G01*
G04 APERTURE LIST*
G04 Aperture macros list*
%AMRoundRect*
0 Rectangle with rounded corners*
0 $1 Rounding radius*
0 $2 $3 $4 $5 $6 $7 $8 $9 X,Y pos of 4 corners*
0 Add a 4 corners polygon primitive as box body*
4,1,4,$2,$3,$4,$5,$6,$7,$8,$9,$2,$3,0*
0 Add four circle primitives for the rounded corners*
1,1,$1+$1,$2,$3*
1,1,$1+$1,$4,$5*
1,1,$1+$1,$6,$7*
1,1,$1+$1,$8,$9*
0 Add four rect primitives between the rounded corners*
20,1,$1+$1,$2,$3,$4,$5,0*
20,1,$1+$1,$4,$5,$6,$7,0*
20,1,$1+$1,$6,$7,$8,$9,0*
20,1,$1+$1,$8,$9,$2,$3,0*%
%AMHorizOval*
0 Thick line with rounded ends*
0 $1 width*
0 $2 $3 position (X,Y) of the first rounded end (center of the circle)*
0 $4 $5 position (X,Y) of the second rounded end (center of the circle)*
0 Add line between two ends*
20,1,$1,$2,$3,$4,$5,0*
0 Add two circle primitives to create the rounded ends*
1,1,$1,$2,$3*
1,1,$1,$4,$5*%
%AMOutline4P*
0 Free polygon, 4 corners , with rotation*
0 The origin of the aperture is its center*
0 number of corners: always 4*
0 $1 to $8 corner X, Y*
0 $9 Rotation angle, in degrees counterclockwise*
0 create outline with 4 corners*
4,1,4,$1,$2,$3,$4,$5,$6,$7,$8,$1,$2,$9*%
G04 Aperture macros list end*
G04 #@! TA.AperFunction,ComponentPad*
%ADD10RoundRect,0.425000X-0.425000X0.425000X-0.425000X-0.425000X0.425000X-0.425000X0.425000X0.425000X0*%
G04 #@! TD*
G04 #@! TA.AperFunction,ComponentPad*
%ADD11O,1.700000X1.700000*%
G04 #@! TD*
G04 #@! TA.AperFunction,ComponentPad*
%ADD12HorizOval,2.400000X-0.083193X0.543672X0.083193X-0.543672X0*%
G04 #@! TD*
G04 #@! TA.AperFunction,ComponentPad*
%ADD13C,2.400000*%
G04 #@! TD*
G04 #@! TA.AperFunction,SMDPad,CuDef*
%ADD14Outline4P,-1.300000X-1.200000X1.300000X-1.200000X1.300000X1.200000X-1.300000X1.200000X335.000000*%
G04 #@! TD*
G04 #@! TA.AperFunction,SMDPad,CuDef*
%ADD15Outline4P,-1.200000X-1.200000X1.200000X-1.200000X1.200000X1.200000X-1.200000X1.200000X335.000000*%
G04 #@! TD*
G04 #@! TA.AperFunction,ComponentPad*
%ADD16HorizOval,2.400000X-0.305164X0.457575X0.305164X-0.457575X0*%
G04 #@! TD*
G04 #@! TA.AperFunction,SMDPad,CuDef*
%ADD17Outline4P,-1.300000X-1.200000X1.300000X-1.200000X1.300000X1.200000X-1.300000X1.200000X0.000000*%
G04 #@! TD*
G04 #@! TA.AperFunction,SMDPad,CuDef*
%ADD18Outline4P,-1.200000X-1.200000X1.200000X-1.200000X1.200000X1.200000X-1.200000X1.200000X0.000000*%
G04 #@! TD*
G04 #@! TA.AperFunction,ComponentPad*
%ADD19R,1.600000X1.600000*%
G04 #@! TD*
G04 #@! TA.AperFunction,ComponentPad*
%ADD20O,1.600000X1.600000*%
G04 #@! TD*
G04 #@! TA.AperFunction,Conductor*
%ADD21C,0.250000*%
G04 #@! TD*
G04 APERTURE END LIST*
D10*
X226490000Y-90650000D03*
D11*
X223950000Y-90650000D03*
X221410000Y-90650000D03*
X218870000Y-90650000D03*
D12*
X229317200Y-108233400D03*
D13*
X232993392Y-102455701D03*
X232879526Y-111715114D03*
D14*
X234057726Y-112264518D03*
D13*
X239830349Y-102819179D03*
X235235927Y-112813921D03*
D15*
X240945107Y-103338999D03*
D13*
X242059866Y-103858820D03*
D16*
X189440000Y-105700000D03*
D13*
X190330000Y-98910000D03*
X194140000Y-107350000D03*
D17*
X195440000Y-107350000D03*
D13*
X196680000Y-96350000D03*
X196740000Y-107350000D03*
D18*
X197910000Y-96350000D03*
D13*
X199140000Y-96350000D03*
D16*
X208490000Y-105700000D03*
D13*
X209380000Y-98910000D03*
X213190000Y-107350000D03*
D17*
X214490000Y-107350000D03*
D13*
X215730000Y-96350000D03*
X215790000Y-107350000D03*
D18*
X216960000Y-96350000D03*
D13*
X218190000Y-96350000D03*
D19*
X221445000Y-97650000D03*
D20*
X221445000Y-105250000D03*
D19*
X202395000Y-97650000D03*
D20*
X202395000Y-105250000D03*
D19*
X204935000Y-97650000D03*
D20*
X204935000Y-105250000D03*
D21*
X196740000Y-107350000D02*
X200295000Y-107350000D01*
X200295000Y-107350000D02*
X202395000Y-105250000D01*
X207461787Y-107776787D02*
X204935000Y-105250000D01*
X212763213Y-107776787D02*
X207461787Y-107776787D01*
X213190000Y-107350000D02*
X212763213Y-107776787D01*
X201929009Y-104125000D02*
X206915000Y-104125000D01*
X189440000Y-105700000D02*
X200354009Y-105700000D01*
X200354009Y-105700000D02*
X201929009Y-104125000D01*
X206915000Y-104125000D02*
X208490000Y-105700000D01*
X219404009Y-105700000D02*
X221937409Y-108233400D01*
X221937409Y-108233400D02*
X229317200Y-108233400D01*
X208490000Y-105700000D02*
X219404009Y-105700000D01*
G04 #@! TA.AperFunction,NonConductor*
G36*
X227733066Y-89397813D02*
G01*
X227758376Y-89441650D01*
X227759500Y-89454500D01*
X227759500Y-92309142D01*
X227759476Y-92310147D01*
X227759531Y-92310297D01*
X227759644Y-92310410D01*
X227760544Y-92310805D01*
X230758746Y-93707088D01*
X230759036Y-93707259D01*
X230765528Y-93710286D01*
X230765530Y-93710288D01*
X247557636Y-101540574D01*
X247557665Y-101540600D01*
X247575726Y-101549012D01*
X247579394Y-101550978D01*
X247600339Y-101563779D01*
X247672194Y-101609555D01*
X247684104Y-101618993D01*
X247714314Y-101648462D01*
X247715758Y-101649951D01*
X247758567Y-101696669D01*
X247766172Y-101706517D01*
X247791508Y-101745747D01*
X247793246Y-101748737D01*
X247822321Y-101804588D01*
X247824272Y-101809023D01*
X247841611Y-101856665D01*
X247842967Y-101861316D01*
X247856581Y-101922726D01*
X247857172Y-101926136D01*
X247862990Y-101972566D01*
X247863494Y-101984995D01*
X247860737Y-102048116D01*
X247860589Y-102050185D01*
X247856369Y-102092373D01*
X247853311Y-102107260D01*
X247827927Y-102187763D01*
X247819835Y-102211851D01*
X247818294Y-102215708D01*
X240191847Y-118570675D01*
X240189885Y-118574334D01*
X240177192Y-118595105D01*
X240131282Y-118667169D01*
X240121846Y-118679077D01*
X240092614Y-118709049D01*
X240091124Y-118710494D01*
X240044115Y-118753570D01*
X240034269Y-118761174D01*
X239995323Y-118786328D01*
X239992332Y-118788067D01*
X239936128Y-118817325D01*
X239931693Y-118819276D01*
X239884377Y-118836497D01*
X239879726Y-118837852D01*
X239817918Y-118851556D01*
X239814506Y-118852147D01*
X239768423Y-118857920D01*
X239755996Y-118858424D01*
X239692500Y-118855651D01*
X239690427Y-118855502D01*
X239648545Y-118851309D01*
X239633664Y-118848252D01*
X239552959Y-118822804D01*
X239529021Y-118814760D01*
X239525167Y-118813220D01*
X224303238Y-111715117D01*
X231424055Y-111715117D01*
X231443904Y-111954670D01*
X231443904Y-111954671D01*
X231502918Y-112187711D01*
X231570299Y-112341323D01*
X231599477Y-112407842D01*
X231730955Y-112609083D01*
X231893762Y-112785939D01*
X232083459Y-112933586D01*
X232217088Y-113005902D01*
X232294871Y-113047997D01*
X232334168Y-113061487D01*
X232337793Y-113062950D01*
X232817224Y-113286512D01*
X234582691Y-114109762D01*
X234584616Y-114110731D01*
X234651271Y-114146803D01*
X234878630Y-114224855D01*
X235115735Y-114264421D01*
X235356119Y-114264421D01*
X235593224Y-114224855D01*
X235820583Y-114146803D01*
X236031994Y-114032393D01*
X236221691Y-113884746D01*
X236384498Y-113707890D01*
X236515976Y-113506649D01*
X236612537Y-113286512D01*
X236671547Y-113053484D01*
X236671547Y-113053480D01*
X236671548Y-113053478D01*
X236671548Y-113053477D01*
X236691398Y-112813924D01*
X236691398Y-112813917D01*
X236671548Y-112574364D01*
X236671548Y-112574363D01*
X236671547Y-112574358D01*
X236612537Y-112341330D01*
X236515976Y-112121193D01*
X236384498Y-111919952D01*
X236221691Y-111743096D01*
X236031994Y-111595449D01*
X235969681Y-111561727D01*
X235820590Y-111481042D01*
X235820581Y-111481038D01*
X235781278Y-111467545D01*
X235777654Y-111466083D01*
X233532795Y-110419289D01*
X233530842Y-110418306D01*
X233493212Y-110397942D01*
X233464185Y-110382233D01*
X233447322Y-110376444D01*
X233236823Y-110304180D01*
X233236820Y-110304179D01*
X233236819Y-110304179D01*
X232999720Y-110264614D01*
X232999718Y-110264614D01*
X232759334Y-110264614D01*
X232759331Y-110264614D01*
X232522230Y-110304179D01*
X232294870Y-110382231D01*
X232083466Y-110496638D01*
X232083454Y-110496645D01*
X231893760Y-110644290D01*
X231730953Y-110821147D01*
X231599477Y-111022385D01*
X231502918Y-111242516D01*
X231443904Y-111475556D01*
X231443904Y-111475557D01*
X231424055Y-111715110D01*
X231424055Y-111715117D01*
X224303238Y-111715117D01*
X222727287Y-110980239D01*
X222724784Y-110978490D01*
X222715100Y-110974500D01*
X222715099Y-110974500D01*
X178117075Y-110974500D01*
X178112936Y-110974267D01*
X178092976Y-110972018D01*
X178088678Y-110971534D01*
X178004049Y-110960392D01*
X177989269Y-110956873D01*
X177949609Y-110942996D01*
X177947680Y-110942260D01*
X177888919Y-110917920D01*
X177877873Y-110912214D01*
X177864482Y-110903800D01*
X177838498Y-110887472D01*
X177835658Y-110885497D01*
X177804313Y-110861446D01*
X177785496Y-110847007D01*
X177781858Y-110843816D01*
X177746182Y-110808140D01*
X177742994Y-110804505D01*
X177704501Y-110754340D01*
X177702526Y-110751500D01*
X177693739Y-110737518D01*
X177677779Y-110712117D01*
X177672082Y-110701089D01*
X177647723Y-110642281D01*
X177647015Y-110640423D01*
X177633123Y-110600722D01*
X177629607Y-110585954D01*
X177618471Y-110501372D01*
X177615731Y-110477052D01*
X177615499Y-110472936D01*
X177615499Y-105135964D01*
X187683263Y-105135964D01*
X187685538Y-105376338D01*
X187727344Y-105613052D01*
X187807542Y-105839656D01*
X187807545Y-105839664D01*
X187807546Y-105839665D01*
X187894791Y-105997300D01*
X187894807Y-105997326D01*
X188571699Y-107012286D01*
X188571700Y-107012287D01*
X188683711Y-107153423D01*
X188683713Y-107153425D01*
X188862101Y-107314553D01*
X189064577Y-107444120D01*
X189064585Y-107444123D01*
X189064588Y-107444125D01*
X189285617Y-107538594D01*
X189519184Y-107595396D01*
X189519187Y-107595396D01*
X189519194Y-107595398D01*
X189718671Y-107610028D01*
X189758932Y-107612981D01*
X189758932Y-107612980D01*
X189758934Y-107612981D01*
X189903428Y-107599630D01*
X189998291Y-107590866D01*
X189998293Y-107590865D01*
X189998298Y-107590865D01*
X190230757Y-107529652D01*
X190449971Y-107431013D01*
X190649959Y-107297637D01*
X190825267Y-107133164D01*
X190971112Y-106942080D01*
X191083517Y-106729596D01*
X191159415Y-106501508D01*
X191196736Y-106264039D01*
X191195658Y-106150200D01*
X191212521Y-106102472D01*
X191256117Y-106076749D01*
X191269656Y-106075500D01*
X193200364Y-106075500D01*
X193247930Y-106092813D01*
X193273240Y-106136650D01*
X193264450Y-106186500D01*
X193245817Y-106207894D01*
X193223545Y-106225230D01*
X193154234Y-106279176D01*
X192991427Y-106456033D01*
X192859951Y-106657271D01*
X192763392Y-106877402D01*
X192704378Y-107110442D01*
X192704378Y-107110443D01*
X192684529Y-107349996D01*
X192684529Y-107350003D01*
X192704378Y-107589556D01*
X192704378Y-107589557D01*
X192720802Y-107654414D01*
X192752942Y-107781334D01*
X192763392Y-107822597D01*
X192859951Y-108042728D01*
X192919881Y-108134458D01*
X192991429Y-108243969D01*
X193154236Y-108420825D01*
X193343933Y-108568472D01*
X193555344Y-108682882D01*
X193782703Y-108760934D01*
X194019808Y-108800500D01*
X196860192Y-108800500D01*
X197097297Y-108760934D01*
X197324656Y-108682882D01*
X197536067Y-108568472D01*
X197725764Y-108420825D01*
X197888571Y-108243969D01*
X198020049Y-108042728D01*
X198116610Y-107822591D01*
X198127057Y-107781333D01*
X198155517Y-107739473D01*
X198198793Y-107725500D01*
X200248383Y-107725500D01*
X200263567Y-107727074D01*
X200279268Y-107730367D01*
X200316036Y-107725783D01*
X200320615Y-107725500D01*
X200326111Y-107725500D01*
X200326114Y-107725500D01*
X200348387Y-107721782D01*
X200349887Y-107721564D01*
X200355604Y-107720851D01*
X200403626Y-107714866D01*
X200403629Y-107714864D01*
X200409507Y-107713115D01*
X200409587Y-107713386D01*
X200412904Y-107712323D01*
X200412812Y-107712055D01*
X200418606Y-107710065D01*
X200418610Y-107710065D01*
X200466235Y-107684290D01*
X200467535Y-107683622D01*
X200516211Y-107659826D01*
X200516213Y-107659823D01*
X200521204Y-107656261D01*
X200521369Y-107656493D01*
X200524158Y-107654414D01*
X200523983Y-107654189D01*
X200528821Y-107650422D01*
X200528821Y-107650421D01*
X200528826Y-107650419D01*
X200565535Y-107610541D01*
X200566517Y-107609518D01*
X201928808Y-106247227D01*
X201974683Y-106225836D01*
X202002608Y-106228739D01*
X202189066Y-106285300D01*
X202395000Y-106305583D01*
X202600934Y-106285300D01*
X202798954Y-106225232D01*
X202981450Y-106127685D01*
X203141410Y-105996410D01*
X203272685Y-105836450D01*
X203370232Y-105653954D01*
X203430300Y-105455934D01*
X203450583Y-105250000D01*
X203430300Y-105044066D01*
X203370232Y-104846046D01*
X203272685Y-104663550D01*
X203238129Y-104621443D01*
X203221337Y-104573693D01*
X203239168Y-104526318D01*
X203283279Y-104501488D01*
X203295333Y-104500500D01*
X204034667Y-104500500D01*
X204082233Y-104517813D01*
X204107543Y-104561650D01*
X204098753Y-104611500D01*
X204091872Y-104621440D01*
X204090234Y-104623438D01*
X204057315Y-104663549D01*
X203959769Y-104846043D01*
X203899700Y-105044064D01*
X203879417Y-105249999D01*
X203879417Y-105250000D01*
X203885260Y-105309320D01*
X203899700Y-105455935D01*
X203903786Y-105469404D01*
X203956258Y-105642384D01*
X203959769Y-105653956D01*
X204057315Y-105836450D01*
X204153527Y-105953686D01*
X204188590Y-105996410D01*
X204348550Y-106127685D01*
X204531046Y-106225232D01*
X204729066Y-106285300D01*
X204935000Y-106305583D01*
X205140934Y-106285300D01*
X205327386Y-106228741D01*
X205377929Y-106231501D01*
X205401192Y-106247229D01*
X207163305Y-108009342D01*
X207172929Y-108021193D01*
X207181702Y-108034621D01*
X207181705Y-108034625D01*
X207210941Y-108057381D01*
X207214378Y-108060415D01*
X207218271Y-108064308D01*
X207236645Y-108077426D01*
X207237872Y-108078341D01*
X207256690Y-108092987D01*
X207280598Y-108111596D01*
X207280599Y-108111596D01*
X207280600Y-108111597D01*
X207285993Y-108114516D01*
X207285858Y-108114764D01*
X207288957Y-108116359D01*
X207289082Y-108116105D01*
X207294586Y-108118796D01*
X207294587Y-108118796D01*
X207294588Y-108118797D01*
X207323081Y-108127279D01*
X207346462Y-108134241D01*
X207347894Y-108134699D01*
X207371259Y-108142720D01*
X207399125Y-108152287D01*
X207405172Y-108153296D01*
X207405125Y-108153572D01*
X207408579Y-108154076D01*
X207408614Y-108153796D01*
X207414691Y-108154553D01*
X207414698Y-108154555D01*
X207447697Y-108153190D01*
X207468783Y-108152319D01*
X207470311Y-108152287D01*
X211941484Y-108152287D01*
X211989050Y-108169600D01*
X212003434Y-108185813D01*
X212041429Y-108243969D01*
X212167401Y-108380812D01*
X212204236Y-108420825D01*
X212393933Y-108568472D01*
X212605344Y-108682882D01*
X212832703Y-108760934D01*
X213069808Y-108800500D01*
X215910192Y-108800500D01*
X216147297Y-108760934D01*
X216374656Y-108682882D01*
X216586067Y-108568472D01*
X216775764Y-108420825D01*
X216938571Y-108243969D01*
X217070049Y-108042728D01*
X217166610Y-107822591D01*
X217225620Y-107589563D01*
X217225620Y-107589559D01*
X217225621Y-107589557D01*
X217225621Y-107589556D01*
X217245471Y-107350003D01*
X217245471Y-107349996D01*
X217225621Y-107110443D01*
X217225621Y-107110442D01*
X217224844Y-107107372D01*
X217166610Y-106877409D01*
X217070049Y-106657272D01*
X216938571Y-106456031D01*
X216775764Y-106279175D01*
X216684183Y-106207894D01*
X216657281Y-106165019D01*
X216664234Y-106114879D01*
X216701789Y-106080939D01*
X216729636Y-106075500D01*
X219217820Y-106075500D01*
X219265386Y-106092813D01*
X219270146Y-106097174D01*
X221638927Y-108465955D01*
X221648549Y-108477804D01*
X221657325Y-108491236D01*
X221680412Y-108509205D01*
X221686563Y-108513993D01*
X221690002Y-108517031D01*
X221693891Y-108520919D01*
X221693890Y-108520919D01*
X221699818Y-108525151D01*
X221712293Y-108534058D01*
X221713492Y-108534953D01*
X221756216Y-108568207D01*
X221761611Y-108571126D01*
X221761476Y-108571374D01*
X221764579Y-108572972D01*
X221764704Y-108572718D01*
X221770207Y-108575408D01*
X221770210Y-108575410D01*
X221822141Y-108590870D01*
X221823501Y-108591306D01*
X221874749Y-108608900D01*
X221874750Y-108608900D01*
X221880800Y-108609910D01*
X221880753Y-108610187D01*
X221884200Y-108610689D01*
X221884235Y-108610410D01*
X221890315Y-108611167D01*
X221890321Y-108611169D01*
X221924002Y-108609775D01*
X221944419Y-108608932D01*
X221945948Y-108608900D01*
X227843738Y-108608900D01*
X227891304Y-108626213D01*
X227916614Y-108670050D01*
X227916883Y-108671685D01*
X227972630Y-109035995D01*
X227975658Y-109055779D01*
X227975661Y-109055796D01*
X228017527Y-109231028D01*
X228017528Y-109231031D01*
X228111106Y-109452452D01*
X228111107Y-109452454D01*
X228111108Y-109452456D01*
X228239850Y-109655445D01*
X228239861Y-109655459D01*
X228400257Y-109834486D01*
X228400259Y-109834489D01*
X228587941Y-109984681D01*
X228587941Y-109984682D01*
X228667057Y-110028888D01*
X228797792Y-110101938D01*
X229024076Y-110183053D01*
X229260625Y-110225817D01*
X229394159Y-110227620D01*
X229500983Y-110229063D01*
X229500983Y-110229062D01*
X229500987Y-110229063D01*
X229738605Y-110192703D01*
X229966997Y-110117728D01*
X230179934Y-110006183D01*
X230371607Y-109861112D01*
X230536788Y-109686470D01*
X230670970Y-109487023D01*
X230770496Y-109268210D01*
X230832648Y-109036000D01*
X230855731Y-108796727D01*
X230855698Y-108796257D01*
X230853251Y-108760934D01*
X230843278Y-108616970D01*
X230658743Y-107411026D01*
X230658738Y-107411008D01*
X230658737Y-107410998D01*
X230616874Y-107235773D01*
X230601160Y-107198591D01*
X230523294Y-107014349D01*
X230487040Y-106957187D01*
X230394549Y-106811354D01*
X230394538Y-106811340D01*
X230234142Y-106632313D01*
X230234140Y-106632310D01*
X230046459Y-106482119D01*
X230046457Y-106482118D01*
X230046456Y-106482117D01*
X229969478Y-106439105D01*
X229836609Y-106364863D01*
X229671238Y-106305583D01*
X229613206Y-106284780D01*
X232568778Y-106284780D01*
X232578628Y-106616997D01*
X232578630Y-106617019D01*
X232627704Y-106945754D01*
X232627705Y-106945755D01*
X232715318Y-107266392D01*
X232840240Y-107574414D01*
X232915746Y-107711373D01*
X232984636Y-107836334D01*
X233000713Y-107865495D01*
X233000716Y-107865501D01*
X233180713Y-108116359D01*
X233194493Y-108135563D01*
X233418851Y-108380812D01*
X233670640Y-108597804D01*
X233875290Y-108735646D01*
X233946325Y-108783492D01*
X233946327Y-108783493D01*
X234242041Y-108935272D01*
X234553630Y-109051011D01*
X234876721Y-109129085D01*
X235206779Y-109168398D01*
X235206783Y-109168398D01*
X235455997Y-109168398D01*
X235704781Y-109153634D01*
X236031930Y-109094837D01*
X236349828Y-108997760D01*
X236654014Y-108863766D01*
X236940217Y-108694735D01*
X237096634Y-108575324D01*
X238835213Y-108575324D01*
X238861419Y-108796253D01*
X238861420Y-108796258D01*
X238904858Y-108935272D01*
X238927777Y-109008617D01*
X239032026Y-109205167D01*
X239170615Y-109379216D01*
X239170617Y-109379218D01*
X239295155Y-109487029D01*
X239338826Y-109524834D01*
X239482801Y-109608947D01*
X239855298Y-109782646D01*
X239855307Y-109782649D01*
X239855308Y-109782650D01*
X239917239Y-109804831D01*
X240012277Y-109838872D01*
X240231951Y-109874127D01*
X240454364Y-109868418D01*
X240671940Y-109821938D01*
X240877271Y-109736269D01*
X241063364Y-109614330D01*
X241223882Y-109460273D01*
X241353359Y-109279344D01*
X241447386Y-109077703D01*
X241484301Y-108934047D01*
X241502760Y-108862220D01*
X241507137Y-108796725D01*
X241517597Y-108640229D01*
X241491390Y-108419293D01*
X241425033Y-108206933D01*
X241320784Y-108010383D01*
X241182195Y-107836334D01*
X241182070Y-107836226D01*
X241013983Y-107690715D01*
X241013978Y-107690712D01*
X240876845Y-107610597D01*
X240870009Y-107606603D01*
X240497512Y-107432904D01*
X240497505Y-107432901D01*
X240497502Y-107432900D01*
X240497494Y-107432897D01*
X240340534Y-107376679D01*
X240120862Y-107341423D01*
X240120859Y-107341423D01*
X239987411Y-107344848D01*
X239898444Y-107347132D01*
X239898443Y-107347132D01*
X239747528Y-107379372D01*
X239680870Y-107393612D01*
X239680869Y-107393612D01*
X239680866Y-107393613D01*
X239475542Y-107479279D01*
X239475540Y-107479280D01*
X239289443Y-107601221D01*
X239128929Y-107755274D01*
X238999451Y-107936205D01*
X238905423Y-108137848D01*
X238850049Y-108353329D01*
X238835213Y-108575319D01*
X238835213Y-108575324D01*
X237096634Y-108575324D01*
X237204419Y-108493040D01*
X237442911Y-108261514D01*
X237652347Y-108003404D01*
X237829784Y-107722336D01*
X237972734Y-107422255D01*
X238079189Y-107107373D01*
X238147654Y-106782110D01*
X238177169Y-106451032D01*
X238177169Y-106451018D01*
X238177169Y-106451015D01*
X238169326Y-106186500D01*
X238167319Y-106118788D01*
X238118243Y-105790040D01*
X238030629Y-105469404D01*
X238019582Y-105442166D01*
X237905707Y-105161381D01*
X237887960Y-105129190D01*
X237745232Y-104870295D01*
X237551455Y-104600233D01*
X237327097Y-104354984D01*
X237075308Y-104137992D01*
X236896229Y-104017373D01*
X236799622Y-103952303D01*
X236643227Y-103872032D01*
X236503907Y-103800524D01*
X236192318Y-103684785D01*
X235869227Y-103606711D01*
X235539169Y-103567398D01*
X235289951Y-103567398D01*
X235041175Y-103582161D01*
X235041158Y-103582163D01*
X234714023Y-103640957D01*
X234396121Y-103738035D01*
X234091928Y-103872032D01*
X233805747Y-104041050D01*
X233805726Y-104041064D01*
X233541531Y-104242753D01*
X233541521Y-104242762D01*
X233303042Y-104474276D01*
X233303037Y-104474281D01*
X233303037Y-104474282D01*
X233143900Y-104670404D01*
X233093599Y-104732395D01*
X233093597Y-104732396D01*
X232916163Y-105013460D01*
X232916162Y-105013462D01*
X232773213Y-105313542D01*
X232666761Y-105628413D01*
X232666758Y-105628423D01*
X232598295Y-105953676D01*
X232598294Y-105953685D01*
X232598294Y-105953686D01*
X232572972Y-106237737D01*
X232568778Y-106284777D01*
X232568778Y-106284780D01*
X229613206Y-106284780D01*
X229610324Y-106283747D01*
X229373775Y-106240983D01*
X229373774Y-106240982D01*
X229373769Y-106240982D01*
X229133417Y-106237736D01*
X228895798Y-106274097D01*
X228667401Y-106349073D01*
X228454465Y-106460617D01*
X228262797Y-106605686D01*
X228262794Y-106605688D01*
X228262794Y-106605689D01*
X228252088Y-106617008D01*
X228097610Y-106780332D01*
X227963430Y-106979776D01*
X227963428Y-106979779D01*
X227863908Y-107198579D01*
X227863905Y-107198588D01*
X227863904Y-107198591D01*
X227839361Y-107290287D01*
X227801752Y-107430800D01*
X227801751Y-107430805D01*
X227778668Y-107670075D01*
X227786200Y-107778786D01*
X227772216Y-107827435D01*
X227730233Y-107855713D01*
X227712377Y-107857900D01*
X222123598Y-107857900D01*
X222076032Y-107840587D01*
X222071272Y-107836226D01*
X220892319Y-106657273D01*
X219702488Y-105467441D01*
X219692862Y-105455586D01*
X219684095Y-105442166D01*
X219684092Y-105442163D01*
X219654862Y-105419412D01*
X219651424Y-105416377D01*
X219647527Y-105412480D01*
X219638013Y-105405687D01*
X219629132Y-105399346D01*
X219627906Y-105398432D01*
X219599514Y-105376334D01*
X219585198Y-105365191D01*
X219585195Y-105365190D01*
X219585194Y-105365189D01*
X219579804Y-105362272D01*
X219579937Y-105362024D01*
X219576838Y-105360429D01*
X219576715Y-105360682D01*
X219571210Y-105357990D01*
X219519356Y-105342552D01*
X219517901Y-105342086D01*
X219466670Y-105324499D01*
X219460624Y-105323491D01*
X219460670Y-105323214D01*
X219457215Y-105322710D01*
X219457181Y-105322991D01*
X219451098Y-105322232D01*
X219451097Y-105322232D01*
X219451095Y-105322232D01*
X219397012Y-105324468D01*
X219395484Y-105324500D01*
X210022653Y-105324500D01*
X209975087Y-105307187D01*
X209961088Y-105291558D01*
X209937717Y-105256515D01*
X209933372Y-105250000D01*
X220389417Y-105250000D01*
X220409700Y-105455935D01*
X220413786Y-105469404D01*
X220466258Y-105642384D01*
X220469769Y-105653956D01*
X220567315Y-105836450D01*
X220663527Y-105953686D01*
X220698590Y-105996410D01*
X220858550Y-106127685D01*
X221041046Y-106225232D01*
X221239066Y-106285300D01*
X221445000Y-106305583D01*
X221650934Y-106285300D01*
X221848954Y-106225232D01*
X222031450Y-106127685D01*
X222191410Y-105996410D01*
X222322685Y-105836450D01*
X222420232Y-105653954D01*
X222480300Y-105455934D01*
X222500583Y-105250000D01*
X222480300Y-105044066D01*
X222420232Y-104846046D01*
X222322685Y-104663550D01*
X222191410Y-104503590D01*
X222135765Y-104457924D01*
X222031450Y-104372315D01*
X221848956Y-104274769D01*
X221848955Y-104274768D01*
X221848954Y-104274768D01*
X221720275Y-104235734D01*
X221650935Y-104214700D01*
X221547966Y-104204558D01*
X221445000Y-104194417D01*
X221444999Y-104194417D01*
X221239064Y-104214700D01*
X221041043Y-104274769D01*
X220858549Y-104372315D01*
X220698590Y-104503589D01*
X220698589Y-104503590D01*
X220567315Y-104663549D01*
X220469769Y-104846043D01*
X220409700Y-105044064D01*
X220389417Y-105250000D01*
X209933372Y-105250000D01*
X209542259Y-104663549D01*
X209358300Y-104387713D01*
X209358299Y-104387712D01*
X209246288Y-104246576D01*
X209246284Y-104246572D01*
X209067899Y-104085447D01*
X208993212Y-104037654D01*
X208865423Y-103955880D01*
X208865417Y-103955877D01*
X208865411Y-103955874D01*
X208644382Y-103861405D01*
X208410815Y-103804603D01*
X208410807Y-103804602D01*
X208171067Y-103787018D01*
X208171060Y-103787019D01*
X207931708Y-103809133D01*
X207699239Y-103870349D01*
X207480031Y-103968986D01*
X207480026Y-103968989D01*
X207416523Y-104011340D01*
X207367344Y-104023328D01*
X207323139Y-104002101D01*
X207213479Y-103892441D01*
X207203853Y-103880586D01*
X207195086Y-103867166D01*
X207195083Y-103867163D01*
X207165853Y-103844412D01*
X207162415Y-103841377D01*
X207158518Y-103837480D01*
X207149004Y-103830687D01*
X207140123Y-103824346D01*
X207138897Y-103823432D01*
X207114705Y-103804603D01*
X207096189Y-103790191D01*
X207096186Y-103790190D01*
X207096185Y-103790189D01*
X207090795Y-103787272D01*
X207090928Y-103787024D01*
X207087829Y-103785429D01*
X207087706Y-103785682D01*
X207082201Y-103782990D01*
X207030347Y-103767552D01*
X207028892Y-103767086D01*
X206977661Y-103749499D01*
X206971615Y-103748491D01*
X206971661Y-103748214D01*
X206968206Y-103747710D01*
X206968172Y-103747991D01*
X206962089Y-103747232D01*
X206962088Y-103747232D01*
X206962086Y-103747232D01*
X206908003Y-103749468D01*
X206906475Y-103749500D01*
X201975626Y-103749500D01*
X201960441Y-103747925D01*
X201944740Y-103744633D01*
X201907974Y-103749216D01*
X201903395Y-103749500D01*
X201897888Y-103749500D01*
X201875622Y-103753216D01*
X201874111Y-103753436D01*
X201820383Y-103760134D01*
X201814507Y-103761884D01*
X201814426Y-103761615D01*
X201811111Y-103762677D01*
X201811202Y-103762942D01*
X201805401Y-103764933D01*
X201757798Y-103790694D01*
X201756440Y-103791393D01*
X201707796Y-103815174D01*
X201702806Y-103818737D01*
X201702645Y-103818511D01*
X201699846Y-103820598D01*
X201700017Y-103820818D01*
X201695184Y-103824578D01*
X201658524Y-103864400D01*
X201657466Y-103865503D01*
X200220145Y-105302826D01*
X200174269Y-105324218D01*
X200167819Y-105324500D01*
X190972653Y-105324500D01*
X190925087Y-105307187D01*
X190911088Y-105291558D01*
X190887717Y-105256515D01*
X190492259Y-104663549D01*
X190308300Y-104387713D01*
X190308299Y-104387712D01*
X190196288Y-104246576D01*
X190196284Y-104246572D01*
X190017899Y-104085447D01*
X189943212Y-104037654D01*
X189815423Y-103955880D01*
X189815417Y-103955877D01*
X189815411Y-103955874D01*
X189594382Y-103861405D01*
X189360815Y-103804603D01*
X189360807Y-103804602D01*
X189121067Y-103787018D01*
X189121060Y-103787019D01*
X188881708Y-103809133D01*
X188649239Y-103870349D01*
X188430032Y-103968986D01*
X188430030Y-103968987D01*
X188240234Y-104095565D01*
X188230038Y-104102365D01*
X188230036Y-104102367D01*
X188054734Y-104266834D01*
X188054731Y-104266837D01*
X187908891Y-104457915D01*
X187908885Y-104457924D01*
X187796484Y-104670399D01*
X187720584Y-104898494D01*
X187683264Y-105135960D01*
X187683263Y-105135964D01*
X177615499Y-105135964D01*
X177615499Y-101450006D01*
X179109390Y-101450006D01*
X179129803Y-101735425D01*
X179190630Y-102015042D01*
X179190635Y-102015060D01*
X179290630Y-102283156D01*
X179427772Y-102534313D01*
X179461690Y-102579622D01*
X179599261Y-102763395D01*
X179801605Y-102965739D01*
X179961590Y-103085502D01*
X180030686Y-103137227D01*
X180281843Y-103274369D01*
X180549939Y-103374364D01*
X180549945Y-103374365D01*
X180549954Y-103374369D01*
X180829572Y-103435196D01*
X181043539Y-103450499D01*
X181043544Y-103450500D01*
X181043552Y-103450500D01*
X181186456Y-103450500D01*
X181186459Y-103450499D01*
X181400428Y-103435196D01*
X181680046Y-103374369D01*
X181680057Y-103374364D01*
X181680060Y-103374364D01*
X181948156Y-103274369D01*
X181948156Y-103274368D01*
X181948161Y-103274367D01*
X182199315Y-103137226D01*
X182428395Y-102965739D01*
X182630739Y-102763395D01*
X182802226Y-102534315D01*
X182939367Y-102283161D01*
X182964363Y-102216144D01*
X183039364Y-102015060D01*
X183039364Y-102015057D01*
X183039369Y-102015046D01*
X183100196Y-101735428D01*
X183109199Y-101609555D01*
X183112654Y-101561246D01*
X187489500Y-101561246D01*
X187530382Y-101779942D01*
X187585698Y-101922726D01*
X187610753Y-101987401D01*
X187635803Y-102027858D01*
X187719482Y-102163006D01*
X187727876Y-102176562D01*
X187877764Y-102340981D01*
X187877767Y-102340983D01*
X188055306Y-102475055D01*
X188055309Y-102475057D01*
X188055310Y-102475057D01*
X188055311Y-102475058D01*
X188254472Y-102574229D01*
X188468464Y-102635115D01*
X188634497Y-102650500D01*
X188634499Y-102650500D01*
X189045501Y-102650500D01*
X189045503Y-102650500D01*
X189211536Y-102635115D01*
X189425528Y-102574229D01*
X189624689Y-102475058D01*
X189802236Y-102340981D01*
X189952124Y-102176562D01*
X190069247Y-101987401D01*
X190149618Y-101779940D01*
X190190500Y-101561243D01*
X190190500Y-101366882D01*
X191335804Y-101366882D01*
X191345654Y-101699099D01*
X191345656Y-101699121D01*
X191394730Y-102027856D01*
X191394731Y-102027857D01*
X191482344Y-102348494D01*
X191607266Y-102656516D01*
X191666190Y-102763397D01*
X191749138Y-102913858D01*
X191767739Y-102947597D01*
X191767742Y-102947603D01*
X191956706Y-103210958D01*
X191961519Y-103217665D01*
X192185877Y-103462914D01*
X192437666Y-103679906D01*
X192638494Y-103815174D01*
X192713351Y-103865594D01*
X192713353Y-103865595D01*
X193009067Y-104017374D01*
X193320656Y-104133113D01*
X193643747Y-104211187D01*
X193973805Y-104250500D01*
X193973809Y-104250500D01*
X194223023Y-104250500D01*
X194471807Y-104235736D01*
X194798956Y-104176939D01*
X195116854Y-104079862D01*
X195421040Y-103945868D01*
X195707243Y-103776837D01*
X195971445Y-103575142D01*
X196209937Y-103343616D01*
X196419373Y-103085506D01*
X196596810Y-102804438D01*
X196739760Y-102504357D01*
X196846215Y-102189475D01*
X196914680Y-101864212D01*
X196941689Y-101561246D01*
X198089500Y-101561246D01*
X198130382Y-101779942D01*
X198185698Y-101922726D01*
X198210753Y-101987401D01*
X198235803Y-102027858D01*
X198319482Y-102163006D01*
X198327876Y-102176562D01*
X198477764Y-102340981D01*
X198477767Y-102340983D01*
X198655306Y-102475055D01*
X198655309Y-102475057D01*
X198655310Y-102475057D01*
X198655311Y-102475058D01*
X198854472Y-102574229D01*
X199068464Y-102635115D01*
X199234497Y-102650500D01*
X199234499Y-102650500D01*
X199645501Y-102650500D01*
X199645503Y-102650500D01*
X199811536Y-102635115D01*
X200025528Y-102574229D01*
X200224689Y-102475058D01*
X200402236Y-102340981D01*
X200552124Y-102176562D01*
X200669247Y-101987401D01*
X200749618Y-101779940D01*
X200790499Y-101561246D01*
X206539500Y-101561246D01*
X206580382Y-101779942D01*
X206635698Y-101922726D01*
X206660753Y-101987401D01*
X206685803Y-102027858D01*
X206769482Y-102163006D01*
X206777876Y-102176562D01*
X206927764Y-102340981D01*
X206927767Y-102340983D01*
X207105306Y-102475055D01*
X207105309Y-102475057D01*
X207105310Y-102475057D01*
X207105311Y-102475058D01*
X207304472Y-102574229D01*
X207518464Y-102635115D01*
X207684497Y-102650500D01*
X207684499Y-102650500D01*
X208095501Y-102650500D01*
X208095503Y-102650500D01*
X208261536Y-102635115D01*
X208475528Y-102574229D01*
X208674689Y-102475058D01*
X208852236Y-102340981D01*
X209002124Y-102176562D01*
X209119247Y-101987401D01*
X209199618Y-101779940D01*
X209240500Y-101561243D01*
X209240500Y-101366882D01*
X210385804Y-101366882D01*
X210395654Y-101699099D01*
X210395656Y-101699121D01*
X210444730Y-102027856D01*
X210444731Y-102027857D01*
X210532344Y-102348494D01*
X210657266Y-102656516D01*
X210716190Y-102763397D01*
X210799138Y-102913858D01*
X210817739Y-102947597D01*
X210817742Y-102947603D01*
X211006706Y-103210958D01*
X211011519Y-103217665D01*
X211235877Y-103462914D01*
X211487666Y-103679906D01*
X211688494Y-103815174D01*
X211763351Y-103865594D01*
X211763353Y-103865595D01*
X212059067Y-104017374D01*
X212370656Y-104133113D01*
X212693747Y-104211187D01*
X213023805Y-104250500D01*
X213023809Y-104250500D01*
X213273023Y-104250500D01*
X213521807Y-104235736D01*
X213848956Y-104176939D01*
X214115415Y-104095570D01*
X229228351Y-104095570D01*
X229254557Y-104316499D01*
X229254558Y-104316504D01*
X229320119Y-104526318D01*
X229320915Y-104528863D01*
X229425164Y-104725413D01*
X229563753Y-104899462D01*
X229563755Y-104899464D01*
X229695438Y-105013460D01*
X229731964Y-105045080D01*
X229875939Y-105129193D01*
X230248436Y-105302892D01*
X230248445Y-105302895D01*
X230248446Y-105302896D01*
X230305947Y-105323491D01*
X230405415Y-105359118D01*
X230625089Y-105394373D01*
X230847502Y-105388664D01*
X231065078Y-105342184D01*
X231270409Y-105256515D01*
X231456502Y-105134576D01*
X231582695Y-105013462D01*
X231617018Y-104980521D01*
X231617018Y-104980520D01*
X231617020Y-104980519D01*
X231746497Y-104799590D01*
X231840524Y-104597949D01*
X231894549Y-104387715D01*
X231895898Y-104382466D01*
X231899310Y-104331411D01*
X231910735Y-104160475D01*
X231884528Y-103939539D01*
X231818171Y-103727179D01*
X231713922Y-103530629D01*
X231575333Y-103356580D01*
X231567347Y-103349667D01*
X231407121Y-103210961D01*
X231407116Y-103210958D01*
X231263150Y-103126851D01*
X231263152Y-103126851D01*
X231263147Y-103126849D01*
X230890650Y-102953150D01*
X230890643Y-102953147D01*
X230890640Y-102953146D01*
X230890632Y-102953143D01*
X230733672Y-102896925D01*
X230514000Y-102861669D01*
X230513997Y-102861669D01*
X230380549Y-102865094D01*
X230291582Y-102867378D01*
X230291581Y-102867378D01*
X230114259Y-102905259D01*
X230074008Y-102913858D01*
X230074007Y-102913858D01*
X230074004Y-102913859D01*
X229868680Y-102999525D01*
X229868678Y-102999526D01*
X229682581Y-103121467D01*
X229522067Y-103275520D01*
X229392589Y-103456451D01*
X229298561Y-103658094D01*
X229243187Y-103873575D01*
X229228351Y-104095565D01*
X229228351Y-104095570D01*
X214115415Y-104095570D01*
X214166854Y-104079862D01*
X214471040Y-103945868D01*
X214757243Y-103776837D01*
X215021445Y-103575142D01*
X215259937Y-103343616D01*
X215469373Y-103085506D01*
X215646810Y-102804438D01*
X215789760Y-102504357D01*
X215896215Y-102189475D01*
X215964680Y-101864212D01*
X215991689Y-101561246D01*
X217139500Y-101561246D01*
X217180382Y-101779942D01*
X217235698Y-101922726D01*
X217260753Y-101987401D01*
X217285803Y-102027858D01*
X217369482Y-102163006D01*
X217377876Y-102176562D01*
X217527764Y-102340981D01*
X217527767Y-102340983D01*
X217705306Y-102475055D01*
X217705309Y-102475057D01*
X217705310Y-102475057D01*
X217705311Y-102475058D01*
X217904472Y-102574229D01*
X218118464Y-102635115D01*
X218284497Y-102650500D01*
X218284499Y-102650500D01*
X218695501Y-102650500D01*
X218695503Y-102650500D01*
X218861536Y-102635115D01*
X219075528Y-102574229D01*
X219274689Y-102475058D01*
X219452236Y-102340981D01*
X219602124Y-102176562D01*
X219719247Y-101987401D01*
X219799618Y-101779940D01*
X219840500Y-101561243D01*
X219840500Y-101450006D01*
X222814390Y-101450006D01*
X222834803Y-101735425D01*
X222895630Y-102015042D01*
X222895635Y-102015060D01*
X222995630Y-102283156D01*
X223132772Y-102534313D01*
X223166690Y-102579622D01*
X223304261Y-102763395D01*
X223506605Y-102965739D01*
X223666590Y-103085502D01*
X223735686Y-103137227D01*
X223986843Y-103274369D01*
X224254939Y-103374364D01*
X224254945Y-103374365D01*
X224254954Y-103374369D01*
X224534572Y-103435196D01*
X224748539Y-103450499D01*
X224748544Y-103450500D01*
X224748552Y-103450500D01*
X224891456Y-103450500D01*
X224891459Y-103450499D01*
X225105428Y-103435196D01*
X225385046Y-103374369D01*
X225385057Y-103374364D01*
X225385060Y-103374364D01*
X225653156Y-103274369D01*
X225653156Y-103274368D01*
X225653161Y-103274367D01*
X225904315Y-103137226D01*
X226133395Y-102965739D01*
X226335739Y-102763395D01*
X226507226Y-102534315D01*
X226550151Y-102455704D01*
X231537921Y-102455704D01*
X231557770Y-102695257D01*
X231557770Y-102695258D01*
X231585418Y-102804437D01*
X231613127Y-102913859D01*
X231616784Y-102928298D01*
X231685742Y-103085506D01*
X231713343Y-103148429D01*
X231844821Y-103349670D01*
X232007628Y-103526526D01*
X232197325Y-103674173D01*
X232408736Y-103788583D01*
X232636095Y-103866635D01*
X232873200Y-103906201D01*
X233113584Y-103906201D01*
X233350689Y-103866635D01*
X233578048Y-103788583D01*
X233789459Y-103674173D01*
X233979156Y-103526526D01*
X234141963Y-103349670D01*
X234273441Y-103148429D01*
X234370002Y-102928292D01*
X234397632Y-102819182D01*
X238374878Y-102819182D01*
X238394727Y-103058735D01*
X238394727Y-103058736D01*
X238453741Y-103291776D01*
X238516651Y-103435196D01*
X238550300Y-103511907D01*
X238681778Y-103713148D01*
X238844585Y-103890004D01*
X239034282Y-104037651D01*
X239245693Y-104152061D01*
X239270191Y-104160471D01*
X239284992Y-104165552D01*
X239288618Y-104167015D01*
X241406594Y-105154644D01*
X241408567Y-105155637D01*
X241475206Y-105191700D01*
X241475210Y-105191702D01*
X241702569Y-105269754D01*
X241939674Y-105309320D01*
X242180058Y-105309320D01*
X242417163Y-105269754D01*
X242644522Y-105191702D01*
X242855933Y-105077292D01*
X243045630Y-104929645D01*
X243208437Y-104752789D01*
X243339915Y-104551548D01*
X243436476Y-104331411D01*
X243495486Y-104098383D01*
X243495486Y-104098379D01*
X243495487Y-104098377D01*
X243495487Y-104098376D01*
X243515337Y-103858823D01*
X243515337Y-103858816D01*
X243495487Y-103619263D01*
X243495487Y-103619262D01*
X243492309Y-103606711D01*
X243436476Y-103386229D01*
X243339915Y-103166092D01*
X243208437Y-102964851D01*
X243045630Y-102787995D01*
X242855933Y-102640348D01*
X242813947Y-102617626D01*
X242644530Y-102525941D01*
X242644524Y-102525939D01*
X242644523Y-102525938D01*
X242644522Y-102525938D01*
X242605226Y-102512447D01*
X242601602Y-102510985D01*
X240483612Y-101523349D01*
X240481639Y-101522356D01*
X240415006Y-101486297D01*
X240306067Y-101448898D01*
X240187646Y-101408245D01*
X240187643Y-101408244D01*
X240187642Y-101408244D01*
X239950543Y-101368679D01*
X239950541Y-101368679D01*
X239710157Y-101368679D01*
X239710154Y-101368679D01*
X239473053Y-101408244D01*
X239245693Y-101486296D01*
X239034289Y-101600703D01*
X239034277Y-101600710D01*
X238844583Y-101748355D01*
X238681776Y-101925212D01*
X238550300Y-102126450D01*
X238453741Y-102346581D01*
X238453739Y-102346586D01*
X238453739Y-102346588D01*
X238439781Y-102401707D01*
X238394727Y-102579621D01*
X238394727Y-102579622D01*
X238374878Y-102819175D01*
X238374878Y-102819182D01*
X234397632Y-102819182D01*
X234429012Y-102695264D01*
X234429012Y-102695260D01*
X234429013Y-102695258D01*
X234429013Y-102695257D01*
X234448863Y-102455704D01*
X234448863Y-102455697D01*
X234429013Y-102216144D01*
X234429013Y-102216143D01*
X234422260Y-102189475D01*
X234370002Y-101983110D01*
X234273441Y-101762973D01*
X234141963Y-101561732D01*
X233979156Y-101384876D01*
X233789459Y-101237229D01*
X233701107Y-101189415D01*
X233578047Y-101122818D01*
X233350687Y-101044766D01*
X233113586Y-101005201D01*
X233113584Y-101005201D01*
X232873200Y-101005201D01*
X232873197Y-101005201D01*
X232636096Y-101044766D01*
X232408736Y-101122818D01*
X232197332Y-101237225D01*
X232197320Y-101237232D01*
X232007626Y-101384877D01*
X231844819Y-101561734D01*
X231713343Y-101762972D01*
X231616784Y-101983103D01*
X231616782Y-101983108D01*
X231616782Y-101983110D01*
X231613424Y-101996372D01*
X231557770Y-102216143D01*
X231557770Y-102216144D01*
X231537921Y-102455697D01*
X231537921Y-102455704D01*
X226550151Y-102455704D01*
X226644367Y-102283161D01*
X226669363Y-102216144D01*
X226744364Y-102015060D01*
X226744364Y-102015057D01*
X226744369Y-102015046D01*
X226805196Y-101735428D01*
X226814199Y-101609555D01*
X226825610Y-101450006D01*
X226825610Y-101449993D01*
X226805196Y-101164574D01*
X226779134Y-101044767D01*
X226744369Y-100884954D01*
X226744365Y-100884945D01*
X226744364Y-100884939D01*
X226644369Y-100616843D01*
X226507227Y-100365686D01*
X226431768Y-100264885D01*
X226335739Y-100136605D01*
X226133395Y-99934261D01*
X225959341Y-99803966D01*
X225904313Y-99762772D01*
X225653156Y-99625630D01*
X225385060Y-99525635D01*
X225385042Y-99525630D01*
X225105425Y-99464803D01*
X224891460Y-99449500D01*
X224891448Y-99449500D01*
X224748552Y-99449500D01*
X224748539Y-99449500D01*
X224534574Y-99464803D01*
X224254957Y-99525630D01*
X224254939Y-99525635D01*
X223986843Y-99625630D01*
X223735686Y-99762772D01*
X223506602Y-99934263D01*
X223304263Y-100136602D01*
X223132772Y-100365686D01*
X222995630Y-100616843D01*
X222895635Y-100884939D01*
X222895630Y-100884957D01*
X222834803Y-101164574D01*
X222814390Y-101449993D01*
X222814390Y-101450006D01*
X219840500Y-101450006D01*
X219840500Y-101338757D01*
X219799618Y-101120060D01*
X219719247Y-100912599D01*
X219602124Y-100723438D01*
X219452236Y-100559019D01*
X219442286Y-100551505D01*
X219274693Y-100424944D01*
X219274690Y-100424942D01*
X219175108Y-100375356D01*
X219075528Y-100325771D01*
X219075524Y-100325770D01*
X219075522Y-100325769D01*
X218861537Y-100264885D01*
X218861524Y-100264883D01*
X218695509Y-100249500D01*
X218695503Y-100249500D01*
X218284497Y-100249500D01*
X218284490Y-100249500D01*
X218118475Y-100264883D01*
X218118462Y-100264885D01*
X217904477Y-100325769D01*
X217904472Y-100325771D01*
X217705309Y-100424942D01*
X217705306Y-100424944D01*
X217527767Y-100559016D01*
X217377874Y-100723440D01*
X217260756Y-100912594D01*
X217260751Y-100912604D01*
X217180382Y-101120057D01*
X217139500Y-101338753D01*
X217139500Y-101561246D01*
X215991689Y-101561246D01*
X215994195Y-101533134D01*
X215994195Y-101533120D01*
X215994195Y-101533117D01*
X215984345Y-101200900D01*
X215984345Y-101200890D01*
X215935269Y-100872142D01*
X215847655Y-100551506D01*
X215796326Y-100424944D01*
X215722733Y-100243483D01*
X215663811Y-100136605D01*
X215562258Y-99952397D01*
X215368481Y-99682335D01*
X215144123Y-99437086D01*
X214892334Y-99220094D01*
X214748407Y-99123152D01*
X214616648Y-99034405D01*
X214460253Y-98954134D01*
X214320933Y-98882626D01*
X214009344Y-98766887D01*
X213686253Y-98688813D01*
X213356195Y-98649500D01*
X213106977Y-98649500D01*
X212858201Y-98664263D01*
X212858184Y-98664265D01*
X212531049Y-98723059D01*
X212213147Y-98820137D01*
X211908954Y-98954134D01*
X211622773Y-99123152D01*
X211622752Y-99123166D01*
X211358557Y-99324855D01*
X211358547Y-99324864D01*
X211120068Y-99556378D01*
X211120063Y-99556383D01*
X211120063Y-99556384D01*
X210919168Y-99803969D01*
X210910625Y-99814497D01*
X210910623Y-99814498D01*
X210733189Y-100095562D01*
X210733188Y-100095564D01*
X210590239Y-100395644D01*
X210483787Y-100710515D01*
X210483784Y-100710525D01*
X210415321Y-101035778D01*
X210415320Y-101035787D01*
X210415320Y-101035788D01*
X210400602Y-101200890D01*
X210385804Y-101366879D01*
X210385804Y-101366882D01*
X209240500Y-101366882D01*
X209240500Y-101338757D01*
X209199618Y-101120060D01*
X209119247Y-100912599D01*
X209002124Y-100723438D01*
X208852236Y-100559019D01*
X208842286Y-100551505D01*
X208674693Y-100424944D01*
X208674690Y-100424942D01*
X208575108Y-100375356D01*
X208475528Y-100325771D01*
X208475524Y-100325770D01*
X208475522Y-100325769D01*
X208261537Y-100264885D01*
X208261524Y-100264883D01*
X208095509Y-100249500D01*
X208095503Y-100249500D01*
X207684497Y-100249500D01*
X207684490Y-100249500D01*
X207518475Y-100264883D01*
X207518462Y-100264885D01*
X207304477Y-100325769D01*
X207304472Y-100325771D01*
X207105309Y-100424942D01*
X207105306Y-100424944D01*
X206927767Y-100559016D01*
X206777874Y-100723440D01*
X206660756Y-100912594D01*
X206660751Y-100912604D01*
X206580382Y-101120057D01*
X206539500Y-101338753D01*
X206539500Y-101561246D01*
X200790499Y-101561246D01*
X200790500Y-101561243D01*
X200790500Y-101338757D01*
X200749618Y-101120060D01*
X200669247Y-100912599D01*
X200552124Y-100723438D01*
X200402236Y-100559019D01*
X200392286Y-100551505D01*
X200224693Y-100424944D01*
X200224690Y-100424942D01*
X200125108Y-100375356D01*
X200025528Y-100325771D01*
X200025524Y-100325770D01*
X200025522Y-100325769D01*
X199811537Y-100264885D01*
X199811524Y-100264883D01*
X199645509Y-100249500D01*
X199645503Y-100249500D01*
X199234497Y-100249500D01*
X199234490Y-100249500D01*
X199068475Y-100264883D01*
X199068462Y-100264885D01*
X198854477Y-100325769D01*
X198854472Y-100325771D01*
X198655309Y-100424942D01*
X198655306Y-100424944D01*
X198477767Y-100559016D01*
X198327874Y-100723440D01*
X198210756Y-100912594D01*
X198210751Y-100912604D01*
X198130382Y-101120057D01*
X198089500Y-101338753D01*
X198089500Y-101561246D01*
X196941689Y-101561246D01*
X196944195Y-101533134D01*
X196944195Y-101533120D01*
X196944195Y-101533117D01*
X196934345Y-101200900D01*
X196934345Y-101200890D01*
X196885269Y-100872142D01*
X196797655Y-100551506D01*
X196746326Y-100424944D01*
X196672733Y-100243483D01*
X196613811Y-100136605D01*
X196512258Y-99952397D01*
X196318481Y-99682335D01*
X196094123Y-99437086D01*
X195842334Y-99220094D01*
X195698407Y-99123152D01*
X195566648Y-99034405D01*
X195410253Y-98954134D01*
X195324272Y-98910003D01*
X207924529Y-98910003D01*
X207944378Y-99149556D01*
X207944378Y-99149557D01*
X207962242Y-99220099D01*
X207988769Y-99324855D01*
X208003392Y-99382597D01*
X208099951Y-99602728D01*
X208204513Y-99762772D01*
X208231429Y-99803969D01*
X208394236Y-99980825D01*
X208583933Y-100128472D01*
X208795344Y-100242882D01*
X209022703Y-100320934D01*
X209259808Y-100360500D01*
X209500192Y-100360500D01*
X209737297Y-100320934D01*
X209964656Y-100242882D01*
X210176067Y-100128472D01*
X210365764Y-99980825D01*
X210528571Y-99803969D01*
X210660049Y-99602728D01*
X210756610Y-99382591D01*
X210815620Y-99149563D01*
X210815620Y-99149559D01*
X210815621Y-99149557D01*
X210815621Y-99149556D01*
X210835471Y-98910003D01*
X210835471Y-98909996D01*
X210815621Y-98670443D01*
X210815621Y-98670442D01*
X210814057Y-98664264D01*
X210766047Y-98474674D01*
X220394500Y-98474674D01*
X220409034Y-98547740D01*
X220464399Y-98630601D01*
X220547260Y-98685966D01*
X220620326Y-98700500D01*
X220620328Y-98700500D01*
X222269672Y-98700500D01*
X222269674Y-98700500D01*
X222342740Y-98685966D01*
X222425601Y-98630601D01*
X222480966Y-98547740D01*
X222495500Y-98474674D01*
X222495500Y-96825326D01*
X222480966Y-96752260D01*
X222425601Y-96669399D01*
X222342740Y-96614034D01*
X222269674Y-96599500D01*
X220620326Y-96599500D01*
X220571615Y-96609189D01*
X220547259Y-96614034D01*
X220464399Y-96669398D01*
X220464398Y-96669399D01*
X220409034Y-96752259D01*
X220409033Y-96752260D01*
X220409034Y-96752260D01*
X220394500Y-96825326D01*
X220394500Y-98474674D01*
X210766047Y-98474674D01*
X210756610Y-98437409D01*
X210660049Y-98217272D01*
X210528571Y-98016031D01*
X210365764Y-97839175D01*
X210176067Y-97691528D01*
X210087715Y-97643714D01*
X209964655Y-97577117D01*
X209737295Y-97499065D01*
X209500194Y-97459500D01*
X209500192Y-97459500D01*
X209259808Y-97459500D01*
X209259805Y-97459500D01*
X209022704Y-97499065D01*
X208795344Y-97577117D01*
X208583940Y-97691524D01*
X208583928Y-97691531D01*
X208394234Y-97839176D01*
X208231427Y-98016033D01*
X208099951Y-98217271D01*
X208003392Y-98437402D01*
X207944378Y-98670442D01*
X207944378Y-98670443D01*
X207924529Y-98909996D01*
X207924529Y-98910003D01*
X195324272Y-98910003D01*
X195270933Y-98882626D01*
X194959344Y-98766887D01*
X194636253Y-98688813D01*
X194306195Y-98649500D01*
X194056977Y-98649500D01*
X193808201Y-98664263D01*
X193808184Y-98664265D01*
X193481049Y-98723059D01*
X193163147Y-98820137D01*
X192858954Y-98954134D01*
X192572773Y-99123152D01*
X192572752Y-99123166D01*
X192308557Y-99324855D01*
X192308547Y-99324864D01*
X192070068Y-99556378D01*
X192070063Y-99556383D01*
X192070063Y-99556384D01*
X191869168Y-99803969D01*
X191860625Y-99814497D01*
X191860623Y-99814498D01*
X191683189Y-100095562D01*
X191683188Y-100095564D01*
X191540239Y-100395644D01*
X191433787Y-100710515D01*
X191433784Y-100710525D01*
X191365321Y-101035778D01*
X191365320Y-101035787D01*
X191365320Y-101035788D01*
X191350602Y-101200890D01*
X191335804Y-101366879D01*
X191335804Y-101366882D01*
X190190500Y-101366882D01*
X190190500Y-101338757D01*
X190149618Y-101120060D01*
X190069247Y-100912599D01*
X189952124Y-100723438D01*
X189802236Y-100559019D01*
X189792286Y-100551505D01*
X189624693Y-100424944D01*
X189624690Y-100424942D01*
X189525108Y-100375356D01*
X189425528Y-100325771D01*
X189425524Y-100325770D01*
X189425522Y-100325769D01*
X189211537Y-100264885D01*
X189211524Y-100264883D01*
X189045509Y-100249500D01*
X189045503Y-100249500D01*
X188634497Y-100249500D01*
X188634490Y-100249500D01*
X188468475Y-100264883D01*
X188468462Y-100264885D01*
X188254477Y-100325769D01*
X188254472Y-100325771D01*
X188055309Y-100424942D01*
X188055306Y-100424944D01*
X187877767Y-100559016D01*
X187727874Y-100723440D01*
X187610756Y-100912594D01*
X187610751Y-100912604D01*
X187530382Y-101120057D01*
X187489500Y-101338753D01*
X187489500Y-101561246D01*
X183112654Y-101561246D01*
X183120610Y-101450006D01*
X183120610Y-101449993D01*
X183100196Y-101164574D01*
X183074134Y-101044767D01*
X183039369Y-100884954D01*
X183039365Y-100884945D01*
X183039364Y-100884939D01*
X182939369Y-100616843D01*
X182802227Y-100365686D01*
X182726768Y-100264885D01*
X182630739Y-100136605D01*
X182428395Y-99934261D01*
X182254341Y-99803966D01*
X182199313Y-99762772D01*
X181948156Y-99625630D01*
X181680060Y-99525635D01*
X181680042Y-99525630D01*
X181400425Y-99464803D01*
X181186460Y-99449500D01*
X181186448Y-99449500D01*
X181043552Y-99449500D01*
X181043539Y-99449500D01*
X180829574Y-99464803D01*
X180549957Y-99525630D01*
X180549939Y-99525635D01*
X180281843Y-99625630D01*
X180030686Y-99762772D01*
X179801602Y-99934263D01*
X179599263Y-100136602D01*
X179427772Y-100365686D01*
X179290630Y-100616843D01*
X179190635Y-100884939D01*
X179190630Y-100884957D01*
X179129803Y-101164574D01*
X179109390Y-101449993D01*
X179109390Y-101450006D01*
X177615499Y-101450006D01*
X177615499Y-98910003D01*
X188874529Y-98910003D01*
X188894378Y-99149556D01*
X188894378Y-99149557D01*
X188912242Y-99220099D01*
X188938769Y-99324855D01*
X188953392Y-99382597D01*
X189049951Y-99602728D01*
X189154513Y-99762772D01*
X189181429Y-99803969D01*
X189344236Y-99980825D01*
X189533933Y-100128472D01*
X189745344Y-100242882D01*
X189972703Y-100320934D01*
X190209808Y-100360500D01*
X190450192Y-100360500D01*
X190687297Y-100320934D01*
X190914656Y-100242882D01*
X191126067Y-100128472D01*
X191315764Y-99980825D01*
X191478571Y-99803969D01*
X191610049Y-99602728D01*
X191706610Y-99382591D01*
X191765620Y-99149563D01*
X191765620Y-99149559D01*
X191765621Y-99149557D01*
X191765621Y-99149556D01*
X191785471Y-98910003D01*
X191785471Y-98909996D01*
X191765621Y-98670443D01*
X191765621Y-98670442D01*
X191764057Y-98664264D01*
X191716047Y-98474674D01*
X201344500Y-98474674D01*
X201359034Y-98547740D01*
X201414399Y-98630601D01*
X201497260Y-98685966D01*
X201570326Y-98700500D01*
X201570328Y-98700500D01*
X203219672Y-98700500D01*
X203219674Y-98700500D01*
X203292740Y-98685966D01*
X203375601Y-98630601D01*
X203430966Y-98547740D01*
X203445500Y-98474674D01*
X203884500Y-98474674D01*
X203899034Y-98547740D01*
X203954399Y-98630601D01*
X204037260Y-98685966D01*
X204110326Y-98700500D01*
X204110328Y-98700500D01*
X205759672Y-98700500D01*
X205759674Y-98700500D01*
X205832740Y-98685966D01*
X205915601Y-98630601D01*
X205970966Y-98547740D01*
X205985500Y-98474674D01*
X205985500Y-96825326D01*
X205970966Y-96752260D01*
X205915601Y-96669399D01*
X205832740Y-96614034D01*
X205759674Y-96599500D01*
X204110326Y-96599500D01*
X204061615Y-96609189D01*
X204037259Y-96614034D01*
X203954399Y-96669398D01*
X203954398Y-96669399D01*
X203899034Y-96752259D01*
X203899033Y-96752260D01*
X203899034Y-96752260D01*
X203884500Y-96825326D01*
X203884500Y-98474674D01*
X203445500Y-98474674D01*
X203445500Y-96825326D01*
X203430966Y-96752260D01*
X203375601Y-96669399D01*
X203292740Y-96614034D01*
X203219674Y-96599500D01*
X201570326Y-96599500D01*
X201521615Y-96609189D01*
X201497259Y-96614034D01*
X201414399Y-96669398D01*
X201414398Y-96669399D01*
X201359034Y-96752259D01*
X201359033Y-96752260D01*
X201359034Y-96752260D01*
X201344500Y-96825326D01*
X201344500Y-98474674D01*
X191716047Y-98474674D01*
X191706610Y-98437409D01*
X191610049Y-98217272D01*
X191478571Y-98016031D01*
X191315764Y-97839175D01*
X191126067Y-97691528D01*
X191037715Y-97643714D01*
X190914655Y-97577117D01*
X190687295Y-97499065D01*
X190450194Y-97459500D01*
X190450192Y-97459500D01*
X190209808Y-97459500D01*
X190209805Y-97459500D01*
X189972704Y-97499065D01*
X189745344Y-97577117D01*
X189533940Y-97691524D01*
X189533928Y-97691531D01*
X189344234Y-97839176D01*
X189181427Y-98016033D01*
X189049951Y-98217271D01*
X188953392Y-98437402D01*
X188894378Y-98670442D01*
X188894378Y-98670443D01*
X188874529Y-98909996D01*
X188874529Y-98910003D01*
X177615499Y-98910003D01*
X177615499Y-96350003D01*
X195224529Y-96350003D01*
X195244378Y-96589556D01*
X195244378Y-96589557D01*
X195303392Y-96822597D01*
X195399951Y-97042727D01*
X195399951Y-97042728D01*
X195531429Y-97243969D01*
X195694236Y-97420825D01*
X195883933Y-97568472D01*
X196095344Y-97682882D01*
X196322703Y-97760934D01*
X196559808Y-97800500D01*
X199260192Y-97800500D01*
X199497297Y-97760934D01*
X199724656Y-97682882D01*
X199936067Y-97568472D01*
X200125764Y-97420825D01*
X200288571Y-97243969D01*
X200420049Y-97042728D01*
X200516610Y-96822591D01*
X200575620Y-96589563D01*
X200575620Y-96589559D01*
X200575621Y-96589557D01*
X200575621Y-96589556D01*
X200595471Y-96350003D01*
X214274529Y-96350003D01*
X214294378Y-96589556D01*
X214294378Y-96589557D01*
X214353392Y-96822597D01*
X214449950Y-97042727D01*
X214449951Y-97042728D01*
X214581429Y-97243969D01*
X214744236Y-97420825D01*
X214933933Y-97568472D01*
X215145344Y-97682882D01*
X215372703Y-97760934D01*
X215609808Y-97800500D01*
X218310192Y-97800500D01*
X218547297Y-97760934D01*
X218774656Y-97682882D01*
X218986067Y-97568472D01*
X219175764Y-97420825D01*
X219338571Y-97243969D01*
X219470049Y-97042728D01*
X219566610Y-96822591D01*
X219625620Y-96589563D01*
X219625620Y-96589559D01*
X219625621Y-96589557D01*
X219625621Y-96589556D01*
X219645471Y-96350003D01*
X219645471Y-96349996D01*
X219625621Y-96110443D01*
X219625621Y-96110442D01*
X219625620Y-96110437D01*
X219566610Y-95877409D01*
X219470049Y-95657272D01*
X219338571Y-95456031D01*
X219175764Y-95279175D01*
X218986067Y-95131528D01*
X218897715Y-95083714D01*
X218774655Y-95017117D01*
X218547295Y-94939065D01*
X218310194Y-94899500D01*
X218310192Y-94899500D01*
X218184674Y-94899500D01*
X215850192Y-94899500D01*
X215609808Y-94899500D01*
X215609805Y-94899500D01*
X215372704Y-94939065D01*
X215145344Y-95017117D01*
X214933940Y-95131524D01*
X214933928Y-95131531D01*
X214744234Y-95279176D01*
X214581427Y-95456033D01*
X214449951Y-95657271D01*
X214353392Y-95877402D01*
X214294378Y-96110442D01*
X214294378Y-96110443D01*
X214274529Y-96349996D01*
X214274529Y-96350003D01*
X200595471Y-96350003D01*
X200595471Y-96349996D01*
X200575621Y-96110443D01*
X200575621Y-96110442D01*
X200575620Y-96110437D01*
X200516610Y-95877409D01*
X200420049Y-95657272D01*
X200288571Y-95456031D01*
X200125764Y-95279175D01*
X199936067Y-95131528D01*
X199847715Y-95083714D01*
X199724655Y-95017117D01*
X199497295Y-94939065D01*
X199260194Y-94899500D01*
X199260192Y-94899500D01*
X199134674Y-94899500D01*
X196800192Y-94899500D01*
X196559808Y-94899500D01*
X196559805Y-94899500D01*
X196322704Y-94939065D01*
X196095344Y-95017117D01*
X195883940Y-95131524D01*
X195883928Y-95131531D01*
X195694234Y-95279176D01*
X195531427Y-95456033D01*
X195399951Y-95657271D01*
X195303392Y-95877402D01*
X195244378Y-96110442D01*
X195244378Y-96110443D01*
X195224529Y-96349996D01*
X195224529Y-96350003D01*
X177615499Y-96350003D01*
X177615499Y-92427079D01*
X177615732Y-92422935D01*
X177616422Y-92416805D01*
X177618468Y-92398647D01*
X177629607Y-92314041D01*
X177633122Y-92299281D01*
X177647023Y-92259552D01*
X177647714Y-92257741D01*
X177672087Y-92198900D01*
X177677773Y-92187891D01*
X177702530Y-92148492D01*
X177704489Y-92145674D01*
X177743006Y-92095478D01*
X177746167Y-92091874D01*
X177781874Y-92056167D01*
X177785478Y-92053006D01*
X177835674Y-92014489D01*
X177838492Y-92012530D01*
X177877891Y-91987773D01*
X177888900Y-91982087D01*
X177947741Y-91957714D01*
X177949552Y-91957023D01*
X177989281Y-91943122D01*
X178004041Y-91939607D01*
X178088620Y-91928472D01*
X178102767Y-91926878D01*
X178112938Y-91925733D01*
X178117083Y-91925500D01*
X217585183Y-91925500D01*
X217585339Y-91925531D01*
X217599999Y-91925541D01*
X217599999Y-91925540D01*
X217600000Y-91925541D01*
X217600383Y-91925383D01*
X217600500Y-91925099D01*
X217600541Y-91925000D01*
X217600540Y-91924997D01*
X217600566Y-91910656D01*
X217600500Y-91910318D01*
X217600500Y-90650003D01*
X217764784Y-90650003D01*
X217783601Y-90853076D01*
X217783602Y-90853082D01*
X217839416Y-91049244D01*
X217839418Y-91049250D01*
X217930327Y-91231821D01*
X217930328Y-91231822D01*
X217930329Y-91231825D01*
X218053234Y-91394578D01*
X218053235Y-91394579D01*
X218163012Y-91494653D01*
X218203959Y-91531981D01*
X218377363Y-91639348D01*
X218567544Y-91713024D01*
X218768024Y-91750500D01*
X218768026Y-91750500D01*
X218971974Y-91750500D01*
X218971976Y-91750500D01*
X219172456Y-91713024D01*
X219362637Y-91639348D01*
X219536041Y-91531981D01*
X219686764Y-91394579D01*
X219809673Y-91231821D01*
X219900582Y-91049250D01*
X219956397Y-90853083D01*
X219975215Y-90650003D01*
X220304784Y-90650003D01*
X220323601Y-90853076D01*
X220323602Y-90853082D01*
X220379416Y-91049244D01*
X220379418Y-91049250D01*
X220470327Y-91231821D01*
X220470328Y-91231822D01*
X220470329Y-91231825D01*
X220593234Y-91394578D01*
X220593235Y-91394579D01*
X220703012Y-91494653D01*
X220743959Y-91531981D01*
X220917363Y-91639348D01*
X221107544Y-91713024D01*
X221308024Y-91750500D01*
X221308026Y-91750500D01*
X221511974Y-91750500D01*
X221511976Y-91750500D01*
X221712456Y-91713024D01*
X221902637Y-91639348D01*
X222076041Y-91531981D01*
X222226764Y-91394579D01*
X222349673Y-91231821D01*
X222440582Y-91049250D01*
X222496397Y-90853083D01*
X222515215Y-90650003D01*
X222844784Y-90650003D01*
X222863601Y-90853076D01*
X222863602Y-90853082D01*
X222919416Y-91049244D01*
X222919418Y-91049250D01*
X223010327Y-91231821D01*
X223010328Y-91231822D01*
X223010329Y-91231825D01*
X223133234Y-91394578D01*
X223133235Y-91394579D01*
X223243012Y-91494653D01*
X223283959Y-91531981D01*
X223457363Y-91639348D01*
X223647544Y-91713024D01*
X223848024Y-91750500D01*
X223848026Y-91750500D01*
X224051974Y-91750500D01*
X224051976Y-91750500D01*
X224252456Y-91713024D01*
X224442637Y-91639348D01*
X224616041Y-91531981D01*
X224766764Y-91394579D01*
X224889673Y-91231821D01*
X224940572Y-91129601D01*
X225389500Y-91129601D01*
X225395684Y-91197651D01*
X225395686Y-91197661D01*
X225444486Y-91354267D01*
X225529352Y-91494653D01*
X225645347Y-91610648D01*
X225692823Y-91639348D01*
X225785732Y-91695513D01*
X225857803Y-91717971D01*
X225942343Y-91744315D01*
X226010406Y-91750500D01*
X226010408Y-91750500D01*
X226969592Y-91750500D01*
X226969594Y-91750500D01*
X227037657Y-91744315D01*
X227194270Y-91695512D01*
X227334653Y-91610648D01*
X227450648Y-91494653D01*
X227535512Y-91354270D01*
X227584315Y-91197657D01*
X227590500Y-91129594D01*
X227590500Y-90170406D01*
X227584315Y-90102343D01*
X227535512Y-89945730D01*
X227450648Y-89805347D01*
X227334653Y-89689352D01*
X227194270Y-89604488D01*
X227194267Y-89604486D01*
X227037661Y-89555686D01*
X227037658Y-89555685D01*
X227037657Y-89555685D01*
X227037655Y-89555684D01*
X227037651Y-89555684D01*
X226969601Y-89549500D01*
X226969594Y-89549500D01*
X226010406Y-89549500D01*
X226010398Y-89549500D01*
X225942348Y-89555684D01*
X225942338Y-89555686D01*
X225785732Y-89604486D01*
X225645346Y-89689352D01*
X225529352Y-89805346D01*
X225444486Y-89945732D01*
X225395686Y-90102338D01*
X225395684Y-90102348D01*
X225389500Y-90170398D01*
X225389500Y-91129601D01*
X224940572Y-91129601D01*
X224980582Y-91049250D01*
X225036397Y-90853083D01*
X225055215Y-90650000D01*
X225036397Y-90446917D01*
X224980582Y-90250750D01*
X224889673Y-90068179D01*
X224889670Y-90068175D01*
X224889670Y-90068174D01*
X224766765Y-89905421D01*
X224766764Y-89905420D01*
X224616041Y-89768019D01*
X224488989Y-89689352D01*
X224442637Y-89660652D01*
X224252456Y-89586976D01*
X224164407Y-89570516D01*
X224051979Y-89549500D01*
X224051976Y-89549500D01*
X223848024Y-89549500D01*
X223848020Y-89549500D01*
X223698115Y-89577522D01*
X223647544Y-89586976D01*
X223647542Y-89586976D01*
X223647540Y-89586977D01*
X223457368Y-89660650D01*
X223457363Y-89660652D01*
X223457358Y-89660654D01*
X223457358Y-89660655D01*
X223283958Y-89768019D01*
X223283957Y-89768019D01*
X223133235Y-89905420D01*
X223133234Y-89905421D01*
X223010329Y-90068174D01*
X223010328Y-90068177D01*
X222919418Y-90250750D01*
X222919416Y-90250755D01*
X222863602Y-90446917D01*
X222863601Y-90446923D01*
X222844784Y-90649996D01*
X222844784Y-90650003D01*
X222515215Y-90650003D01*
X222515215Y-90650000D01*
X222496397Y-90446917D01*
X222440582Y-90250750D01*
X222349673Y-90068179D01*
X222349670Y-90068175D01*
X222349670Y-90068174D01*
X222226765Y-89905421D01*
X222226764Y-89905420D01*
X222076041Y-89768019D01*
X221948989Y-89689352D01*
X221902637Y-89660652D01*
X221712456Y-89586976D01*
X221624407Y-89570516D01*
X221511979Y-89549500D01*
X221511976Y-89549500D01*
X221308024Y-89549500D01*
X221308020Y-89549500D01*
X221158115Y-89577522D01*
X221107544Y-89586976D01*
X221107542Y-89586976D01*
X221107540Y-89586977D01*
X220917368Y-89660650D01*
X220917363Y-89660652D01*
X220917358Y-89660654D01*
X220917358Y-89660655D01*
X220743958Y-89768019D01*
X220743957Y-89768019D01*
X220593235Y-89905420D01*
X220593234Y-89905421D01*
X220470329Y-90068174D01*
X220470328Y-90068177D01*
X220379418Y-90250750D01*
X220379416Y-90250755D01*
X220323602Y-90446917D01*
X220323601Y-90446923D01*
X220304784Y-90649996D01*
X220304784Y-90650003D01*
X219975215Y-90650003D01*
X219975215Y-90650000D01*
X219956397Y-90446917D01*
X219900582Y-90250750D01*
X219809673Y-90068179D01*
X219809670Y-90068175D01*
X219809670Y-90068174D01*
X219686765Y-89905421D01*
X219686764Y-89905420D01*
X219536041Y-89768019D01*
X219408989Y-89689352D01*
X219362637Y-89660652D01*
X219172456Y-89586976D01*
X219084407Y-89570516D01*
X218971979Y-89549500D01*
X218971976Y-89549500D01*
X218768024Y-89549500D01*
X218768020Y-89549500D01*
X218618115Y-89577522D01*
X218567544Y-89586976D01*
X218567542Y-89586976D01*
X218567540Y-89586977D01*
X218377368Y-89660650D01*
X218377363Y-89660652D01*
X218377358Y-89660654D01*
X218377358Y-89660655D01*
X218203958Y-89768019D01*
X218203957Y-89768019D01*
X218053235Y-89905420D01*
X218053234Y-89905421D01*
X217930329Y-90068174D01*
X217930328Y-90068177D01*
X217839418Y-90250750D01*
X217839416Y-90250755D01*
X217783602Y-90446917D01*
X217783601Y-90446923D01*
X217764784Y-90649996D01*
X217764784Y-90650003D01*
X217600500Y-90650003D01*
X217600500Y-89454500D01*
X217617813Y-89406934D01*
X217661650Y-89381624D01*
X217674500Y-89380500D01*
X227685500Y-89380500D01*
X227733066Y-89397813D01*
G37*
G04 #@! TD.AperFunction*
G04 #@! TA.AperFunction,NonConductor*
G36*
X201323162Y-105348362D02*
G01*
X201352196Y-105389826D01*
X201354361Y-105401725D01*
X201359700Y-105455935D01*
X201416258Y-105642383D01*
X201413498Y-105692927D01*
X201397770Y-105716190D01*
X200161136Y-106952826D01*
X200115260Y-106974218D01*
X200108810Y-106974500D01*
X198198793Y-106974500D01*
X198151227Y-106957187D01*
X198127057Y-106918666D01*
X198116610Y-106877409D01*
X198087634Y-106811350D01*
X198020050Y-106657273D01*
X197888572Y-106456033D01*
X197888571Y-106456031D01*
X197725764Y-106279175D01*
X197634183Y-106207894D01*
X197607281Y-106165019D01*
X197614234Y-106114879D01*
X197651789Y-106080939D01*
X197679636Y-106075500D01*
X200307392Y-106075500D01*
X200322576Y-106077074D01*
X200338277Y-106080367D01*
X200375045Y-106075783D01*
X200379624Y-106075500D01*
X200385120Y-106075500D01*
X200385123Y-106075500D01*
X200407396Y-106071782D01*
X200408896Y-106071564D01*
X200414613Y-106070851D01*
X200462635Y-106064866D01*
X200462638Y-106064864D01*
X200468516Y-106063115D01*
X200468596Y-106063386D01*
X200471913Y-106062323D01*
X200471821Y-106062055D01*
X200477615Y-106060065D01*
X200477619Y-106060065D01*
X200525244Y-106034290D01*
X200526544Y-106033622D01*
X200575220Y-106009826D01*
X200575222Y-106009823D01*
X200580213Y-106006261D01*
X200580378Y-106006493D01*
X200583167Y-106004414D01*
X200582992Y-106004189D01*
X200587830Y-106000422D01*
X200587830Y-106000421D01*
X200587835Y-106000419D01*
X200624544Y-105960541D01*
X200625526Y-105959518D01*
X201228392Y-105356652D01*
X201274267Y-105335261D01*
X201323162Y-105348362D01*
G37*
G04 #@! TD.AperFunction*
G04 #@! TA.AperFunction,NonConductor*
G36*
X212297930Y-106092813D02*
G01*
X212323240Y-106136650D01*
X212314450Y-106186500D01*
X212295817Y-106207894D01*
X212273545Y-106225230D01*
X212204234Y-106279176D01*
X212041427Y-106456033D01*
X211909951Y-106657271D01*
X211813392Y-106877402D01*
X211754378Y-107110442D01*
X211754378Y-107110443D01*
X211735904Y-107333398D01*
X211714723Y-107379372D01*
X211668945Y-107400975D01*
X211662157Y-107401287D01*
X209776510Y-107401287D01*
X209728944Y-107383974D01*
X209703634Y-107340137D01*
X209712424Y-107290287D01*
X209725878Y-107273320D01*
X209765898Y-107235773D01*
X209875267Y-107133164D01*
X210021112Y-106942080D01*
X210133517Y-106729596D01*
X210209415Y-106501508D01*
X210246736Y-106264039D01*
X210245658Y-106150200D01*
X210262521Y-106102472D01*
X210306117Y-106076749D01*
X210319656Y-106075500D01*
X212250364Y-106075500D01*
X212297930Y-106092813D01*
G37*
G04 #@! TD.AperFunction*
G04 #@! TA.AperFunction,NonConductor*
G36*
X206776377Y-104517813D02*
G01*
X206781137Y-104522174D01*
X206836525Y-104577562D01*
X206857917Y-104623438D01*
X206849612Y-104664488D01*
X206846484Y-104670400D01*
X206770584Y-104898494D01*
X206733264Y-105135960D01*
X206733263Y-105135964D01*
X206735538Y-105376338D01*
X206777344Y-105613052D01*
X206857542Y-105839656D01*
X206857545Y-105839664D01*
X206857546Y-105839665D01*
X206944791Y-105997300D01*
X206944807Y-105997326D01*
X207621699Y-107012286D01*
X207621700Y-107012287D01*
X207733711Y-107153423D01*
X207733714Y-107153427D01*
X207865402Y-107272372D01*
X207889096Y-107317103D01*
X207878494Y-107366599D01*
X207838557Y-107397701D01*
X207815800Y-107401287D01*
X207647977Y-107401287D01*
X207600411Y-107383974D01*
X207595651Y-107379613D01*
X205932229Y-105716191D01*
X205910837Y-105670315D01*
X205913740Y-105642387D01*
X205970300Y-105455934D01*
X205990583Y-105250000D01*
X205970300Y-105044066D01*
X205910232Y-104846046D01*
X205812685Y-104663550D01*
X205778129Y-104621443D01*
X205761337Y-104573693D01*
X205779168Y-104526318D01*
X205823279Y-104501488D01*
X205835333Y-104500500D01*
X206728811Y-104500500D01*
X206776377Y-104517813D01*
G37*
G04 #@! TD.AperFunction*
M02*
