%TF.GenerationSoftware,KiCad,Pcbnew,7.0.5*%
%TF.CreationDate,2023-08-10T21:36:05+08:00*%
%TF.ProjectId,LT,4c542e6b-6963-4616-945f-706362585858,rev?*%
%TF.SameCoordinates,Original*%
%TF.FileFunction,Drillmap*%
%TF.FilePolarity,Positive*%
%FSLAX45Y45*%
G04 Gerber Fmt 4.5, Leading zero omitted, Abs format (unit mm)*
G04 Created by KiCad (PCBNEW 7.0.5) date 2023-08-10 21:36:05*
%MOMM*%
%LPD*%
G01*
G04 APERTURE LIST*
%ADD10C,0.100000*%
%ADD11C,0.200000*%
%ADD12C,0.190000*%
%ADD13C,0.350000*%
%ADD14C,0.510000*%
G04 APERTURE END LIST*
D10*
X22271500Y-11097500D02*
X17811500Y-11097500D01*
X17761500Y-9242500D02*
X17761500Y-11047500D01*
X21760000Y-9192500D02*
X21760000Y-8938000D01*
X21760000Y-9192500D02*
X17811500Y-9192500D01*
X17761500Y-11047500D02*
G75*
G03*
X17811500Y-11097500I50000J0D01*
G01*
X23076590Y-9370987D02*
X22776000Y-9231000D01*
X22776000Y-8938000D02*
X22776000Y-9231000D01*
X17811500Y-9192500D02*
G75*
G03*
X17761500Y-9242500I0J-50000D01*
G01*
X21760000Y-8938000D02*
X22776000Y-8938000D01*
D11*
D12*
X18789000Y-10050000D02*
X18979000Y-10240000D01*
X18979000Y-10050000D02*
X18789000Y-10240000D01*
D11*
X18869000Y-10240000D02*
X18899000Y-10240000D01*
X18899000Y-10240000D02*
G75*
G03*
X18899000Y-10050000I0J95000D01*
G01*
X18899000Y-10050000D02*
X18869000Y-10050000D01*
X18869000Y-10050000D02*
G75*
G03*
X18869000Y-10240000I0J-95000D01*
G01*
D12*
X19849000Y-10050000D02*
X20039000Y-10240000D01*
X20039000Y-10050000D02*
X19849000Y-10240000D01*
D11*
X19929000Y-10240000D02*
X19959000Y-10240000D01*
X19959000Y-10240000D02*
G75*
G03*
X19959000Y-10050000I0J95000D01*
G01*
X19959000Y-10050000D02*
X19929000Y-10050000D01*
X19929000Y-10050000D02*
G75*
G03*
X19929000Y-10240000I0J-95000D01*
G01*
D12*
X20694000Y-10050000D02*
X20884000Y-10240000D01*
X20884000Y-10050000D02*
X20694000Y-10240000D01*
D11*
X20774000Y-10240000D02*
X20804000Y-10240000D01*
X20804000Y-10240000D02*
G75*
G03*
X20804000Y-10050000I0J95000D01*
G01*
X20804000Y-10050000D02*
X20774000Y-10050000D01*
X20774000Y-10050000D02*
G75*
G03*
X20774000Y-10240000I0J-95000D01*
G01*
D12*
X21754000Y-10050000D02*
X21944000Y-10240000D01*
X21944000Y-10050000D02*
X21754000Y-10240000D01*
D11*
X21834000Y-10240000D02*
X21864000Y-10240000D01*
X21864000Y-10240000D02*
G75*
G03*
X21864000Y-10050000I0J95000D01*
G01*
X21864000Y-10050000D02*
X21834000Y-10050000D01*
X21834000Y-10050000D02*
G75*
G03*
X21834000Y-10240000I0J-95000D01*
G01*
D12*
X22961954Y-10317802D02*
X23151954Y-10507802D01*
X23151954Y-10317802D02*
X22961954Y-10507802D01*
D11*
X23003211Y-10492562D02*
X23030400Y-10505241D01*
X23030400Y-10505241D02*
G75*
G03*
X23110698Y-10333042I40149J86099D01*
G01*
X23110698Y-10333042D02*
X23083508Y-10320364D01*
X23083508Y-10320364D02*
G75*
G03*
X23003211Y-10492562I-40149J-86099D01*
G01*
D12*
X23922640Y-10765778D02*
X24112640Y-10955778D01*
X24112640Y-10765778D02*
X23922640Y-10955778D01*
D11*
X23963897Y-10940538D02*
X23991086Y-10953216D01*
X23991086Y-10953216D02*
G75*
G03*
X24071384Y-10781018I40149J86099D01*
G01*
X24071384Y-10781018D02*
X24044195Y-10768339D01*
X24044195Y-10768339D02*
G75*
G03*
X23963897Y-10940537I-40149J-86099D01*
G01*
D13*
X18286500Y-10145000D02*
G75*
G03*
X18286500Y-10145000I-175000J0D01*
G01*
X22657000Y-10145000D02*
G75*
G03*
X22657000Y-10145000I-175000J0D01*
G01*
D14*
X19414000Y-9890000D02*
X19414000Y-10400000D01*
X19159000Y-10145000D02*
X19669000Y-10145000D01*
X21319000Y-9890000D02*
X21319000Y-10400000D01*
X21064000Y-10145000D02*
X21574000Y-10145000D01*
X23537297Y-10381790D02*
X23537297Y-10891790D01*
X23282297Y-10636790D02*
X23792297Y-10636790D01*
D11*
X18017277Y-12203629D02*
X18017277Y-12003629D01*
X18017277Y-12003629D02*
X18064896Y-12003629D01*
X18064896Y-12003629D02*
X18093467Y-12013153D01*
X18093467Y-12013153D02*
X18112515Y-12032201D01*
X18112515Y-12032201D02*
X18122039Y-12051248D01*
X18122039Y-12051248D02*
X18131563Y-12089344D01*
X18131563Y-12089344D02*
X18131563Y-12117915D01*
X18131563Y-12117915D02*
X18122039Y-12156010D01*
X18122039Y-12156010D02*
X18112515Y-12175058D01*
X18112515Y-12175058D02*
X18093467Y-12194106D01*
X18093467Y-12194106D02*
X18064896Y-12203629D01*
X18064896Y-12203629D02*
X18017277Y-12203629D01*
X18217277Y-12203629D02*
X18217277Y-12070296D01*
X18217277Y-12108391D02*
X18226801Y-12089344D01*
X18226801Y-12089344D02*
X18236324Y-12079820D01*
X18236324Y-12079820D02*
X18255372Y-12070296D01*
X18255372Y-12070296D02*
X18274420Y-12070296D01*
X18341086Y-12203629D02*
X18341086Y-12070296D01*
X18341086Y-12003629D02*
X18331563Y-12013153D01*
X18331563Y-12013153D02*
X18341086Y-12022677D01*
X18341086Y-12022677D02*
X18350610Y-12013153D01*
X18350610Y-12013153D02*
X18341086Y-12003629D01*
X18341086Y-12003629D02*
X18341086Y-12022677D01*
X18464896Y-12203629D02*
X18445848Y-12194106D01*
X18445848Y-12194106D02*
X18436324Y-12175058D01*
X18436324Y-12175058D02*
X18436324Y-12003629D01*
X18569658Y-12203629D02*
X18550610Y-12194106D01*
X18550610Y-12194106D02*
X18541086Y-12175058D01*
X18541086Y-12175058D02*
X18541086Y-12003629D01*
X18798229Y-12203629D02*
X18798229Y-12003629D01*
X18798229Y-12003629D02*
X18864896Y-12146486D01*
X18864896Y-12146486D02*
X18931563Y-12003629D01*
X18931563Y-12003629D02*
X18931563Y-12203629D01*
X19112515Y-12203629D02*
X19112515Y-12098867D01*
X19112515Y-12098867D02*
X19102991Y-12079820D01*
X19102991Y-12079820D02*
X19083944Y-12070296D01*
X19083944Y-12070296D02*
X19045848Y-12070296D01*
X19045848Y-12070296D02*
X19026801Y-12079820D01*
X19112515Y-12194106D02*
X19093467Y-12203629D01*
X19093467Y-12203629D02*
X19045848Y-12203629D01*
X19045848Y-12203629D02*
X19026801Y-12194106D01*
X19026801Y-12194106D02*
X19017277Y-12175058D01*
X19017277Y-12175058D02*
X19017277Y-12156010D01*
X19017277Y-12156010D02*
X19026801Y-12136963D01*
X19026801Y-12136963D02*
X19045848Y-12127439D01*
X19045848Y-12127439D02*
X19093467Y-12127439D01*
X19093467Y-12127439D02*
X19112515Y-12117915D01*
X19207753Y-12070296D02*
X19207753Y-12270296D01*
X19207753Y-12079820D02*
X19226801Y-12070296D01*
X19226801Y-12070296D02*
X19264896Y-12070296D01*
X19264896Y-12070296D02*
X19283944Y-12079820D01*
X19283944Y-12079820D02*
X19293467Y-12089344D01*
X19293467Y-12089344D02*
X19302991Y-12108391D01*
X19302991Y-12108391D02*
X19302991Y-12165534D01*
X19302991Y-12165534D02*
X19293467Y-12184582D01*
X19293467Y-12184582D02*
X19283944Y-12194106D01*
X19283944Y-12194106D02*
X19264896Y-12203629D01*
X19264896Y-12203629D02*
X19226801Y-12203629D01*
X19226801Y-12203629D02*
X19207753Y-12194106D01*
X19388705Y-12184582D02*
X19398229Y-12194106D01*
X19398229Y-12194106D02*
X19388705Y-12203629D01*
X19388705Y-12203629D02*
X19379182Y-12194106D01*
X19379182Y-12194106D02*
X19388705Y-12184582D01*
X19388705Y-12184582D02*
X19388705Y-12203629D01*
X19388705Y-12079820D02*
X19398229Y-12089344D01*
X19398229Y-12089344D02*
X19388705Y-12098867D01*
X19388705Y-12098867D02*
X19379182Y-12089344D01*
X19379182Y-12089344D02*
X19388705Y-12079820D01*
X19388705Y-12079820D02*
X19388705Y-12098867D01*
D12*
X17566500Y-12437146D02*
X17756500Y-12627146D01*
X17756500Y-12437146D02*
X17566500Y-12627146D01*
D11*
X18122039Y-12623629D02*
X18007753Y-12623629D01*
X18064896Y-12623629D02*
X18064896Y-12423629D01*
X18064896Y-12423629D02*
X18045848Y-12452201D01*
X18045848Y-12452201D02*
X18026801Y-12471248D01*
X18026801Y-12471248D02*
X18007753Y-12480772D01*
X18207753Y-12604582D02*
X18217277Y-12614106D01*
X18217277Y-12614106D02*
X18207753Y-12623629D01*
X18207753Y-12623629D02*
X18198229Y-12614106D01*
X18198229Y-12614106D02*
X18207753Y-12604582D01*
X18207753Y-12604582D02*
X18207753Y-12623629D01*
X18312515Y-12623629D02*
X18350610Y-12623629D01*
X18350610Y-12623629D02*
X18369658Y-12614106D01*
X18369658Y-12614106D02*
X18379182Y-12604582D01*
X18379182Y-12604582D02*
X18398229Y-12576010D01*
X18398229Y-12576010D02*
X18407753Y-12537915D01*
X18407753Y-12537915D02*
X18407753Y-12461725D01*
X18407753Y-12461725D02*
X18398229Y-12442677D01*
X18398229Y-12442677D02*
X18388705Y-12433153D01*
X18388705Y-12433153D02*
X18369658Y-12423629D01*
X18369658Y-12423629D02*
X18331563Y-12423629D01*
X18331563Y-12423629D02*
X18312515Y-12433153D01*
X18312515Y-12433153D02*
X18302991Y-12442677D01*
X18302991Y-12442677D02*
X18293467Y-12461725D01*
X18293467Y-12461725D02*
X18293467Y-12509344D01*
X18293467Y-12509344D02*
X18302991Y-12528391D01*
X18302991Y-12528391D02*
X18312515Y-12537915D01*
X18312515Y-12537915D02*
X18331563Y-12547439D01*
X18331563Y-12547439D02*
X18369658Y-12547439D01*
X18369658Y-12547439D02*
X18388705Y-12537915D01*
X18388705Y-12537915D02*
X18398229Y-12528391D01*
X18398229Y-12528391D02*
X18407753Y-12509344D01*
X18531563Y-12423629D02*
X18550610Y-12423629D01*
X18550610Y-12423629D02*
X18569658Y-12433153D01*
X18569658Y-12433153D02*
X18579182Y-12442677D01*
X18579182Y-12442677D02*
X18588705Y-12461725D01*
X18588705Y-12461725D02*
X18598229Y-12499820D01*
X18598229Y-12499820D02*
X18598229Y-12547439D01*
X18598229Y-12547439D02*
X18588705Y-12585534D01*
X18588705Y-12585534D02*
X18579182Y-12604582D01*
X18579182Y-12604582D02*
X18569658Y-12614106D01*
X18569658Y-12614106D02*
X18550610Y-12623629D01*
X18550610Y-12623629D02*
X18531563Y-12623629D01*
X18531563Y-12623629D02*
X18512515Y-12614106D01*
X18512515Y-12614106D02*
X18502991Y-12604582D01*
X18502991Y-12604582D02*
X18493467Y-12585534D01*
X18493467Y-12585534D02*
X18483944Y-12547439D01*
X18483944Y-12547439D02*
X18483944Y-12499820D01*
X18483944Y-12499820D02*
X18493467Y-12461725D01*
X18493467Y-12461725D02*
X18502991Y-12442677D01*
X18502991Y-12442677D02*
X18512515Y-12433153D01*
X18512515Y-12433153D02*
X18531563Y-12423629D01*
X18722039Y-12423629D02*
X18741086Y-12423629D01*
X18741086Y-12423629D02*
X18760134Y-12433153D01*
X18760134Y-12433153D02*
X18769658Y-12442677D01*
X18769658Y-12442677D02*
X18779182Y-12461725D01*
X18779182Y-12461725D02*
X18788705Y-12499820D01*
X18788705Y-12499820D02*
X18788705Y-12547439D01*
X18788705Y-12547439D02*
X18779182Y-12585534D01*
X18779182Y-12585534D02*
X18769658Y-12604582D01*
X18769658Y-12604582D02*
X18760134Y-12614106D01*
X18760134Y-12614106D02*
X18741086Y-12623629D01*
X18741086Y-12623629D02*
X18722039Y-12623629D01*
X18722039Y-12623629D02*
X18702991Y-12614106D01*
X18702991Y-12614106D02*
X18693467Y-12604582D01*
X18693467Y-12604582D02*
X18683944Y-12585534D01*
X18683944Y-12585534D02*
X18674420Y-12547439D01*
X18674420Y-12547439D02*
X18674420Y-12499820D01*
X18674420Y-12499820D02*
X18683944Y-12461725D01*
X18683944Y-12461725D02*
X18693467Y-12442677D01*
X18693467Y-12442677D02*
X18702991Y-12433153D01*
X18702991Y-12433153D02*
X18722039Y-12423629D01*
X18874420Y-12623629D02*
X18874420Y-12490296D01*
X18874420Y-12509344D02*
X18883944Y-12499820D01*
X18883944Y-12499820D02*
X18902991Y-12490296D01*
X18902991Y-12490296D02*
X18931563Y-12490296D01*
X18931563Y-12490296D02*
X18950610Y-12499820D01*
X18950610Y-12499820D02*
X18960134Y-12518867D01*
X18960134Y-12518867D02*
X18960134Y-12623629D01*
X18960134Y-12518867D02*
X18969658Y-12499820D01*
X18969658Y-12499820D02*
X18988705Y-12490296D01*
X18988705Y-12490296D02*
X19017277Y-12490296D01*
X19017277Y-12490296D02*
X19036325Y-12499820D01*
X19036325Y-12499820D02*
X19045848Y-12518867D01*
X19045848Y-12518867D02*
X19045848Y-12623629D01*
X19141086Y-12623629D02*
X19141086Y-12490296D01*
X19141086Y-12509344D02*
X19150610Y-12499820D01*
X19150610Y-12499820D02*
X19169658Y-12490296D01*
X19169658Y-12490296D02*
X19198229Y-12490296D01*
X19198229Y-12490296D02*
X19217277Y-12499820D01*
X19217277Y-12499820D02*
X19226801Y-12518867D01*
X19226801Y-12518867D02*
X19226801Y-12623629D01*
X19226801Y-12518867D02*
X19236325Y-12499820D01*
X19236325Y-12499820D02*
X19255372Y-12490296D01*
X19255372Y-12490296D02*
X19283944Y-12490296D01*
X19283944Y-12490296D02*
X19302991Y-12499820D01*
X19302991Y-12499820D02*
X19312515Y-12518867D01*
X19312515Y-12518867D02*
X19312515Y-12623629D01*
X19702991Y-12414106D02*
X19531563Y-12671248D01*
X19960134Y-12423629D02*
X19979182Y-12423629D01*
X19979182Y-12423629D02*
X19998229Y-12433153D01*
X19998229Y-12433153D02*
X20007753Y-12442677D01*
X20007753Y-12442677D02*
X20017277Y-12461725D01*
X20017277Y-12461725D02*
X20026801Y-12499820D01*
X20026801Y-12499820D02*
X20026801Y-12547439D01*
X20026801Y-12547439D02*
X20017277Y-12585534D01*
X20017277Y-12585534D02*
X20007753Y-12604582D01*
X20007753Y-12604582D02*
X19998229Y-12614106D01*
X19998229Y-12614106D02*
X19979182Y-12623629D01*
X19979182Y-12623629D02*
X19960134Y-12623629D01*
X19960134Y-12623629D02*
X19941087Y-12614106D01*
X19941087Y-12614106D02*
X19931563Y-12604582D01*
X19931563Y-12604582D02*
X19922039Y-12585534D01*
X19922039Y-12585534D02*
X19912515Y-12547439D01*
X19912515Y-12547439D02*
X19912515Y-12499820D01*
X19912515Y-12499820D02*
X19922039Y-12461725D01*
X19922039Y-12461725D02*
X19931563Y-12442677D01*
X19931563Y-12442677D02*
X19941087Y-12433153D01*
X19941087Y-12433153D02*
X19960134Y-12423629D01*
X20112515Y-12604582D02*
X20122039Y-12614106D01*
X20122039Y-12614106D02*
X20112515Y-12623629D01*
X20112515Y-12623629D02*
X20102991Y-12614106D01*
X20102991Y-12614106D02*
X20112515Y-12604582D01*
X20112515Y-12604582D02*
X20112515Y-12623629D01*
X20245848Y-12423629D02*
X20264896Y-12423629D01*
X20264896Y-12423629D02*
X20283944Y-12433153D01*
X20283944Y-12433153D02*
X20293468Y-12442677D01*
X20293468Y-12442677D02*
X20302991Y-12461725D01*
X20302991Y-12461725D02*
X20312515Y-12499820D01*
X20312515Y-12499820D02*
X20312515Y-12547439D01*
X20312515Y-12547439D02*
X20302991Y-12585534D01*
X20302991Y-12585534D02*
X20293468Y-12604582D01*
X20293468Y-12604582D02*
X20283944Y-12614106D01*
X20283944Y-12614106D02*
X20264896Y-12623629D01*
X20264896Y-12623629D02*
X20245848Y-12623629D01*
X20245848Y-12623629D02*
X20226801Y-12614106D01*
X20226801Y-12614106D02*
X20217277Y-12604582D01*
X20217277Y-12604582D02*
X20207753Y-12585534D01*
X20207753Y-12585534D02*
X20198229Y-12547439D01*
X20198229Y-12547439D02*
X20198229Y-12499820D01*
X20198229Y-12499820D02*
X20207753Y-12461725D01*
X20207753Y-12461725D02*
X20217277Y-12442677D01*
X20217277Y-12442677D02*
X20226801Y-12433153D01*
X20226801Y-12433153D02*
X20245848Y-12423629D01*
X20379182Y-12423629D02*
X20512515Y-12423629D01*
X20512515Y-12423629D02*
X20426801Y-12623629D01*
X20674420Y-12490296D02*
X20674420Y-12623629D01*
X20626801Y-12414106D02*
X20579182Y-12556963D01*
X20579182Y-12556963D02*
X20702991Y-12556963D01*
X20807753Y-12509344D02*
X20788706Y-12499820D01*
X20788706Y-12499820D02*
X20779182Y-12490296D01*
X20779182Y-12490296D02*
X20769658Y-12471248D01*
X20769658Y-12471248D02*
X20769658Y-12461725D01*
X20769658Y-12461725D02*
X20779182Y-12442677D01*
X20779182Y-12442677D02*
X20788706Y-12433153D01*
X20788706Y-12433153D02*
X20807753Y-12423629D01*
X20807753Y-12423629D02*
X20845849Y-12423629D01*
X20845849Y-12423629D02*
X20864896Y-12433153D01*
X20864896Y-12433153D02*
X20874420Y-12442677D01*
X20874420Y-12442677D02*
X20883944Y-12461725D01*
X20883944Y-12461725D02*
X20883944Y-12471248D01*
X20883944Y-12471248D02*
X20874420Y-12490296D01*
X20874420Y-12490296D02*
X20864896Y-12499820D01*
X20864896Y-12499820D02*
X20845849Y-12509344D01*
X20845849Y-12509344D02*
X20807753Y-12509344D01*
X20807753Y-12509344D02*
X20788706Y-12518867D01*
X20788706Y-12518867D02*
X20779182Y-12528391D01*
X20779182Y-12528391D02*
X20769658Y-12547439D01*
X20769658Y-12547439D02*
X20769658Y-12585534D01*
X20769658Y-12585534D02*
X20779182Y-12604582D01*
X20779182Y-12604582D02*
X20788706Y-12614106D01*
X20788706Y-12614106D02*
X20807753Y-12623629D01*
X20807753Y-12623629D02*
X20845849Y-12623629D01*
X20845849Y-12623629D02*
X20864896Y-12614106D01*
X20864896Y-12614106D02*
X20874420Y-12604582D01*
X20874420Y-12604582D02*
X20883944Y-12585534D01*
X20883944Y-12585534D02*
X20883944Y-12547439D01*
X20883944Y-12547439D02*
X20874420Y-12528391D01*
X20874420Y-12528391D02*
X20864896Y-12518867D01*
X20864896Y-12518867D02*
X20845849Y-12509344D01*
X20960134Y-12423629D02*
X20960134Y-12461725D01*
X21036325Y-12423629D02*
X21036325Y-12461725D01*
X21331563Y-12699820D02*
X21322039Y-12690296D01*
X21322039Y-12690296D02*
X21302991Y-12661725D01*
X21302991Y-12661725D02*
X21293468Y-12642677D01*
X21293468Y-12642677D02*
X21283944Y-12614106D01*
X21283944Y-12614106D02*
X21274420Y-12566486D01*
X21274420Y-12566486D02*
X21274420Y-12528391D01*
X21274420Y-12528391D02*
X21283944Y-12480772D01*
X21283944Y-12480772D02*
X21293468Y-12452201D01*
X21293468Y-12452201D02*
X21302991Y-12433153D01*
X21302991Y-12433153D02*
X21322039Y-12404582D01*
X21322039Y-12404582D02*
X21331563Y-12395058D01*
X21445849Y-12423629D02*
X21464896Y-12423629D01*
X21464896Y-12423629D02*
X21483944Y-12433153D01*
X21483944Y-12433153D02*
X21493468Y-12442677D01*
X21493468Y-12442677D02*
X21502991Y-12461725D01*
X21502991Y-12461725D02*
X21512515Y-12499820D01*
X21512515Y-12499820D02*
X21512515Y-12547439D01*
X21512515Y-12547439D02*
X21502991Y-12585534D01*
X21502991Y-12585534D02*
X21493468Y-12604582D01*
X21493468Y-12604582D02*
X21483944Y-12614106D01*
X21483944Y-12614106D02*
X21464896Y-12623629D01*
X21464896Y-12623629D02*
X21445849Y-12623629D01*
X21445849Y-12623629D02*
X21426801Y-12614106D01*
X21426801Y-12614106D02*
X21417277Y-12604582D01*
X21417277Y-12604582D02*
X21407753Y-12585534D01*
X21407753Y-12585534D02*
X21398230Y-12547439D01*
X21398230Y-12547439D02*
X21398230Y-12499820D01*
X21398230Y-12499820D02*
X21407753Y-12461725D01*
X21407753Y-12461725D02*
X21417277Y-12442677D01*
X21417277Y-12442677D02*
X21426801Y-12433153D01*
X21426801Y-12433153D02*
X21445849Y-12423629D01*
X21750611Y-12623629D02*
X21750611Y-12423629D01*
X21836325Y-12623629D02*
X21836325Y-12518867D01*
X21836325Y-12518867D02*
X21826801Y-12499820D01*
X21826801Y-12499820D02*
X21807753Y-12490296D01*
X21807753Y-12490296D02*
X21779182Y-12490296D01*
X21779182Y-12490296D02*
X21760134Y-12499820D01*
X21760134Y-12499820D02*
X21750611Y-12509344D01*
X21960134Y-12623629D02*
X21941087Y-12614106D01*
X21941087Y-12614106D02*
X21931563Y-12604582D01*
X21931563Y-12604582D02*
X21922039Y-12585534D01*
X21922039Y-12585534D02*
X21922039Y-12528391D01*
X21922039Y-12528391D02*
X21931563Y-12509344D01*
X21931563Y-12509344D02*
X21941087Y-12499820D01*
X21941087Y-12499820D02*
X21960134Y-12490296D01*
X21960134Y-12490296D02*
X21988706Y-12490296D01*
X21988706Y-12490296D02*
X22007753Y-12499820D01*
X22007753Y-12499820D02*
X22017277Y-12509344D01*
X22017277Y-12509344D02*
X22026801Y-12528391D01*
X22026801Y-12528391D02*
X22026801Y-12585534D01*
X22026801Y-12585534D02*
X22017277Y-12604582D01*
X22017277Y-12604582D02*
X22007753Y-12614106D01*
X22007753Y-12614106D02*
X21988706Y-12623629D01*
X21988706Y-12623629D02*
X21960134Y-12623629D01*
X22141087Y-12623629D02*
X22122039Y-12614106D01*
X22122039Y-12614106D02*
X22112515Y-12595058D01*
X22112515Y-12595058D02*
X22112515Y-12423629D01*
X22293468Y-12614106D02*
X22274420Y-12623629D01*
X22274420Y-12623629D02*
X22236325Y-12623629D01*
X22236325Y-12623629D02*
X22217277Y-12614106D01*
X22217277Y-12614106D02*
X22207753Y-12595058D01*
X22207753Y-12595058D02*
X22207753Y-12518867D01*
X22207753Y-12518867D02*
X22217277Y-12499820D01*
X22217277Y-12499820D02*
X22236325Y-12490296D01*
X22236325Y-12490296D02*
X22274420Y-12490296D01*
X22274420Y-12490296D02*
X22293468Y-12499820D01*
X22293468Y-12499820D02*
X22302992Y-12518867D01*
X22302992Y-12518867D02*
X22302992Y-12537915D01*
X22302992Y-12537915D02*
X22207753Y-12556963D01*
X22379182Y-12614106D02*
X22398230Y-12623629D01*
X22398230Y-12623629D02*
X22436325Y-12623629D01*
X22436325Y-12623629D02*
X22455372Y-12614106D01*
X22455372Y-12614106D02*
X22464896Y-12595058D01*
X22464896Y-12595058D02*
X22464896Y-12585534D01*
X22464896Y-12585534D02*
X22455372Y-12566486D01*
X22455372Y-12566486D02*
X22436325Y-12556963D01*
X22436325Y-12556963D02*
X22407753Y-12556963D01*
X22407753Y-12556963D02*
X22388706Y-12547439D01*
X22388706Y-12547439D02*
X22379182Y-12528391D01*
X22379182Y-12528391D02*
X22379182Y-12518867D01*
X22379182Y-12518867D02*
X22388706Y-12499820D01*
X22388706Y-12499820D02*
X22407753Y-12490296D01*
X22407753Y-12490296D02*
X22436325Y-12490296D01*
X22436325Y-12490296D02*
X22455372Y-12499820D01*
X22702992Y-12547439D02*
X22855373Y-12547439D01*
X22779182Y-12623629D02*
X22779182Y-12471248D01*
X23188706Y-12423629D02*
X23150611Y-12423629D01*
X23150611Y-12423629D02*
X23131563Y-12433153D01*
X23131563Y-12433153D02*
X23122039Y-12442677D01*
X23122039Y-12442677D02*
X23102992Y-12471248D01*
X23102992Y-12471248D02*
X23093468Y-12509344D01*
X23093468Y-12509344D02*
X23093468Y-12585534D01*
X23093468Y-12585534D02*
X23102992Y-12604582D01*
X23102992Y-12604582D02*
X23112515Y-12614106D01*
X23112515Y-12614106D02*
X23131563Y-12623629D01*
X23131563Y-12623629D02*
X23169658Y-12623629D01*
X23169658Y-12623629D02*
X23188706Y-12614106D01*
X23188706Y-12614106D02*
X23198230Y-12604582D01*
X23198230Y-12604582D02*
X23207753Y-12585534D01*
X23207753Y-12585534D02*
X23207753Y-12537915D01*
X23207753Y-12537915D02*
X23198230Y-12518867D01*
X23198230Y-12518867D02*
X23188706Y-12509344D01*
X23188706Y-12509344D02*
X23169658Y-12499820D01*
X23169658Y-12499820D02*
X23131563Y-12499820D01*
X23131563Y-12499820D02*
X23112515Y-12509344D01*
X23112515Y-12509344D02*
X23102992Y-12518867D01*
X23102992Y-12518867D02*
X23093468Y-12537915D01*
X23436325Y-12614106D02*
X23455373Y-12623629D01*
X23455373Y-12623629D02*
X23493468Y-12623629D01*
X23493468Y-12623629D02*
X23512515Y-12614106D01*
X23512515Y-12614106D02*
X23522039Y-12595058D01*
X23522039Y-12595058D02*
X23522039Y-12585534D01*
X23522039Y-12585534D02*
X23512515Y-12566486D01*
X23512515Y-12566486D02*
X23493468Y-12556963D01*
X23493468Y-12556963D02*
X23464896Y-12556963D01*
X23464896Y-12556963D02*
X23445849Y-12547439D01*
X23445849Y-12547439D02*
X23436325Y-12528391D01*
X23436325Y-12528391D02*
X23436325Y-12518867D01*
X23436325Y-12518867D02*
X23445849Y-12499820D01*
X23445849Y-12499820D02*
X23464896Y-12490296D01*
X23464896Y-12490296D02*
X23493468Y-12490296D01*
X23493468Y-12490296D02*
X23512515Y-12499820D01*
X23636325Y-12623629D02*
X23617277Y-12614106D01*
X23617277Y-12614106D02*
X23607754Y-12595058D01*
X23607754Y-12595058D02*
X23607754Y-12423629D01*
X23741087Y-12623629D02*
X23722039Y-12614106D01*
X23722039Y-12614106D02*
X23712515Y-12604582D01*
X23712515Y-12604582D02*
X23702992Y-12585534D01*
X23702992Y-12585534D02*
X23702992Y-12528391D01*
X23702992Y-12528391D02*
X23712515Y-12509344D01*
X23712515Y-12509344D02*
X23722039Y-12499820D01*
X23722039Y-12499820D02*
X23741087Y-12490296D01*
X23741087Y-12490296D02*
X23769658Y-12490296D01*
X23769658Y-12490296D02*
X23788706Y-12499820D01*
X23788706Y-12499820D02*
X23798230Y-12509344D01*
X23798230Y-12509344D02*
X23807754Y-12528391D01*
X23807754Y-12528391D02*
X23807754Y-12585534D01*
X23807754Y-12585534D02*
X23798230Y-12604582D01*
X23798230Y-12604582D02*
X23788706Y-12614106D01*
X23788706Y-12614106D02*
X23769658Y-12623629D01*
X23769658Y-12623629D02*
X23741087Y-12623629D01*
X23864896Y-12490296D02*
X23941087Y-12490296D01*
X23893468Y-12423629D02*
X23893468Y-12595058D01*
X23893468Y-12595058D02*
X23902992Y-12614106D01*
X23902992Y-12614106D02*
X23922039Y-12623629D01*
X23922039Y-12623629D02*
X23941087Y-12623629D01*
X23998230Y-12614106D02*
X24017277Y-12623629D01*
X24017277Y-12623629D02*
X24055373Y-12623629D01*
X24055373Y-12623629D02*
X24074420Y-12614106D01*
X24074420Y-12614106D02*
X24083944Y-12595058D01*
X24083944Y-12595058D02*
X24083944Y-12585534D01*
X24083944Y-12585534D02*
X24074420Y-12566486D01*
X24074420Y-12566486D02*
X24055373Y-12556963D01*
X24055373Y-12556963D02*
X24026801Y-12556963D01*
X24026801Y-12556963D02*
X24007754Y-12547439D01*
X24007754Y-12547439D02*
X23998230Y-12528391D01*
X23998230Y-12528391D02*
X23998230Y-12518867D01*
X23998230Y-12518867D02*
X24007754Y-12499820D01*
X24007754Y-12499820D02*
X24026801Y-12490296D01*
X24026801Y-12490296D02*
X24055373Y-12490296D01*
X24055373Y-12490296D02*
X24074420Y-12499820D01*
X24150611Y-12699820D02*
X24160135Y-12690296D01*
X24160135Y-12690296D02*
X24179182Y-12661725D01*
X24179182Y-12661725D02*
X24188706Y-12642677D01*
X24188706Y-12642677D02*
X24198230Y-12614106D01*
X24198230Y-12614106D02*
X24207754Y-12566486D01*
X24207754Y-12566486D02*
X24207754Y-12528391D01*
X24207754Y-12528391D02*
X24198230Y-12480772D01*
X24198230Y-12480772D02*
X24188706Y-12452201D01*
X24188706Y-12452201D02*
X24179182Y-12433153D01*
X24179182Y-12433153D02*
X24160135Y-12404582D01*
X24160135Y-12404582D02*
X24150611Y-12395058D01*
X24512516Y-12699820D02*
X24502992Y-12690296D01*
X24502992Y-12690296D02*
X24483944Y-12661725D01*
X24483944Y-12661725D02*
X24474420Y-12642677D01*
X24474420Y-12642677D02*
X24464896Y-12614106D01*
X24464896Y-12614106D02*
X24455373Y-12566486D01*
X24455373Y-12566486D02*
X24455373Y-12528391D01*
X24455373Y-12528391D02*
X24464896Y-12480772D01*
X24464896Y-12480772D02*
X24474420Y-12452201D01*
X24474420Y-12452201D02*
X24483944Y-12433153D01*
X24483944Y-12433153D02*
X24502992Y-12404582D01*
X24502992Y-12404582D02*
X24512516Y-12395058D01*
X24588706Y-12490296D02*
X24588706Y-12623629D01*
X24588706Y-12509344D02*
X24598230Y-12499820D01*
X24598230Y-12499820D02*
X24617277Y-12490296D01*
X24617277Y-12490296D02*
X24645849Y-12490296D01*
X24645849Y-12490296D02*
X24664896Y-12499820D01*
X24664896Y-12499820D02*
X24674420Y-12518867D01*
X24674420Y-12518867D02*
X24674420Y-12623629D01*
X24798230Y-12623629D02*
X24779182Y-12614106D01*
X24779182Y-12614106D02*
X24769658Y-12604582D01*
X24769658Y-12604582D02*
X24760135Y-12585534D01*
X24760135Y-12585534D02*
X24760135Y-12528391D01*
X24760135Y-12528391D02*
X24769658Y-12509344D01*
X24769658Y-12509344D02*
X24779182Y-12499820D01*
X24779182Y-12499820D02*
X24798230Y-12490296D01*
X24798230Y-12490296D02*
X24826801Y-12490296D01*
X24826801Y-12490296D02*
X24845849Y-12499820D01*
X24845849Y-12499820D02*
X24855373Y-12509344D01*
X24855373Y-12509344D02*
X24864896Y-12528391D01*
X24864896Y-12528391D02*
X24864896Y-12585534D01*
X24864896Y-12585534D02*
X24855373Y-12604582D01*
X24855373Y-12604582D02*
X24845849Y-12614106D01*
X24845849Y-12614106D02*
X24826801Y-12623629D01*
X24826801Y-12623629D02*
X24798230Y-12623629D01*
X24922039Y-12490296D02*
X24998230Y-12490296D01*
X24950611Y-12423629D02*
X24950611Y-12595058D01*
X24950611Y-12595058D02*
X24960135Y-12614106D01*
X24960135Y-12614106D02*
X24979182Y-12623629D01*
X24979182Y-12623629D02*
X24998230Y-12623629D01*
X25217277Y-12490296D02*
X25217277Y-12690296D01*
X25217277Y-12499820D02*
X25236325Y-12490296D01*
X25236325Y-12490296D02*
X25274420Y-12490296D01*
X25274420Y-12490296D02*
X25293468Y-12499820D01*
X25293468Y-12499820D02*
X25302992Y-12509344D01*
X25302992Y-12509344D02*
X25312516Y-12528391D01*
X25312516Y-12528391D02*
X25312516Y-12585534D01*
X25312516Y-12585534D02*
X25302992Y-12604582D01*
X25302992Y-12604582D02*
X25293468Y-12614106D01*
X25293468Y-12614106D02*
X25274420Y-12623629D01*
X25274420Y-12623629D02*
X25236325Y-12623629D01*
X25236325Y-12623629D02*
X25217277Y-12614106D01*
X25426801Y-12623629D02*
X25407754Y-12614106D01*
X25407754Y-12614106D02*
X25398230Y-12595058D01*
X25398230Y-12595058D02*
X25398230Y-12423629D01*
X25588706Y-12623629D02*
X25588706Y-12518867D01*
X25588706Y-12518867D02*
X25579182Y-12499820D01*
X25579182Y-12499820D02*
X25560135Y-12490296D01*
X25560135Y-12490296D02*
X25522039Y-12490296D01*
X25522039Y-12490296D02*
X25502992Y-12499820D01*
X25588706Y-12614106D02*
X25569658Y-12623629D01*
X25569658Y-12623629D02*
X25522039Y-12623629D01*
X25522039Y-12623629D02*
X25502992Y-12614106D01*
X25502992Y-12614106D02*
X25493468Y-12595058D01*
X25493468Y-12595058D02*
X25493468Y-12576010D01*
X25493468Y-12576010D02*
X25502992Y-12556963D01*
X25502992Y-12556963D02*
X25522039Y-12547439D01*
X25522039Y-12547439D02*
X25569658Y-12547439D01*
X25569658Y-12547439D02*
X25588706Y-12537915D01*
X25655373Y-12490296D02*
X25731563Y-12490296D01*
X25683944Y-12423629D02*
X25683944Y-12595058D01*
X25683944Y-12595058D02*
X25693468Y-12614106D01*
X25693468Y-12614106D02*
X25712516Y-12623629D01*
X25712516Y-12623629D02*
X25731563Y-12623629D01*
X25874420Y-12614106D02*
X25855373Y-12623629D01*
X25855373Y-12623629D02*
X25817277Y-12623629D01*
X25817277Y-12623629D02*
X25798230Y-12614106D01*
X25798230Y-12614106D02*
X25788706Y-12595058D01*
X25788706Y-12595058D02*
X25788706Y-12518867D01*
X25788706Y-12518867D02*
X25798230Y-12499820D01*
X25798230Y-12499820D02*
X25817277Y-12490296D01*
X25817277Y-12490296D02*
X25855373Y-12490296D01*
X25855373Y-12490296D02*
X25874420Y-12499820D01*
X25874420Y-12499820D02*
X25883944Y-12518867D01*
X25883944Y-12518867D02*
X25883944Y-12537915D01*
X25883944Y-12537915D02*
X25788706Y-12556963D01*
X26055373Y-12623629D02*
X26055373Y-12423629D01*
X26055373Y-12614106D02*
X26036325Y-12623629D01*
X26036325Y-12623629D02*
X25998230Y-12623629D01*
X25998230Y-12623629D02*
X25979182Y-12614106D01*
X25979182Y-12614106D02*
X25969658Y-12604582D01*
X25969658Y-12604582D02*
X25960135Y-12585534D01*
X25960135Y-12585534D02*
X25960135Y-12528391D01*
X25960135Y-12528391D02*
X25969658Y-12509344D01*
X25969658Y-12509344D02*
X25979182Y-12499820D01*
X25979182Y-12499820D02*
X25998230Y-12490296D01*
X25998230Y-12490296D02*
X26036325Y-12490296D01*
X26036325Y-12490296D02*
X26055373Y-12499820D01*
X26131563Y-12699820D02*
X26141087Y-12690296D01*
X26141087Y-12690296D02*
X26160135Y-12661725D01*
X26160135Y-12661725D02*
X26169658Y-12642677D01*
X26169658Y-12642677D02*
X26179182Y-12614106D01*
X26179182Y-12614106D02*
X26188706Y-12566486D01*
X26188706Y-12566486D02*
X26188706Y-12528391D01*
X26188706Y-12528391D02*
X26179182Y-12480772D01*
X26179182Y-12480772D02*
X26169658Y-12452201D01*
X26169658Y-12452201D02*
X26160135Y-12433153D01*
X26160135Y-12433153D02*
X26141087Y-12404582D01*
X26141087Y-12404582D02*
X26131563Y-12395058D01*
X17756500Y-12842146D02*
G75*
G03*
X17756500Y-12842146I-100000J0D01*
G01*
X17998229Y-12733629D02*
X18122039Y-12733629D01*
X18122039Y-12733629D02*
X18055372Y-12809820D01*
X18055372Y-12809820D02*
X18083944Y-12809820D01*
X18083944Y-12809820D02*
X18102991Y-12819344D01*
X18102991Y-12819344D02*
X18112515Y-12828867D01*
X18112515Y-12828867D02*
X18122039Y-12847915D01*
X18122039Y-12847915D02*
X18122039Y-12895534D01*
X18122039Y-12895534D02*
X18112515Y-12914582D01*
X18112515Y-12914582D02*
X18102991Y-12924106D01*
X18102991Y-12924106D02*
X18083944Y-12933629D01*
X18083944Y-12933629D02*
X18026801Y-12933629D01*
X18026801Y-12933629D02*
X18007753Y-12924106D01*
X18007753Y-12924106D02*
X17998229Y-12914582D01*
X18207753Y-12914582D02*
X18217277Y-12924106D01*
X18217277Y-12924106D02*
X18207753Y-12933629D01*
X18207753Y-12933629D02*
X18198229Y-12924106D01*
X18198229Y-12924106D02*
X18207753Y-12914582D01*
X18207753Y-12914582D02*
X18207753Y-12933629D01*
X18398229Y-12733629D02*
X18302991Y-12733629D01*
X18302991Y-12733629D02*
X18293467Y-12828867D01*
X18293467Y-12828867D02*
X18302991Y-12819344D01*
X18302991Y-12819344D02*
X18322039Y-12809820D01*
X18322039Y-12809820D02*
X18369658Y-12809820D01*
X18369658Y-12809820D02*
X18388705Y-12819344D01*
X18388705Y-12819344D02*
X18398229Y-12828867D01*
X18398229Y-12828867D02*
X18407753Y-12847915D01*
X18407753Y-12847915D02*
X18407753Y-12895534D01*
X18407753Y-12895534D02*
X18398229Y-12914582D01*
X18398229Y-12914582D02*
X18388705Y-12924106D01*
X18388705Y-12924106D02*
X18369658Y-12933629D01*
X18369658Y-12933629D02*
X18322039Y-12933629D01*
X18322039Y-12933629D02*
X18302991Y-12924106D01*
X18302991Y-12924106D02*
X18293467Y-12914582D01*
X18531563Y-12733629D02*
X18550610Y-12733629D01*
X18550610Y-12733629D02*
X18569658Y-12743153D01*
X18569658Y-12743153D02*
X18579182Y-12752677D01*
X18579182Y-12752677D02*
X18588705Y-12771725D01*
X18588705Y-12771725D02*
X18598229Y-12809820D01*
X18598229Y-12809820D02*
X18598229Y-12857439D01*
X18598229Y-12857439D02*
X18588705Y-12895534D01*
X18588705Y-12895534D02*
X18579182Y-12914582D01*
X18579182Y-12914582D02*
X18569658Y-12924106D01*
X18569658Y-12924106D02*
X18550610Y-12933629D01*
X18550610Y-12933629D02*
X18531563Y-12933629D01*
X18531563Y-12933629D02*
X18512515Y-12924106D01*
X18512515Y-12924106D02*
X18502991Y-12914582D01*
X18502991Y-12914582D02*
X18493467Y-12895534D01*
X18493467Y-12895534D02*
X18483944Y-12857439D01*
X18483944Y-12857439D02*
X18483944Y-12809820D01*
X18483944Y-12809820D02*
X18493467Y-12771725D01*
X18493467Y-12771725D02*
X18502991Y-12752677D01*
X18502991Y-12752677D02*
X18512515Y-12743153D01*
X18512515Y-12743153D02*
X18531563Y-12733629D01*
X18722039Y-12733629D02*
X18741086Y-12733629D01*
X18741086Y-12733629D02*
X18760134Y-12743153D01*
X18760134Y-12743153D02*
X18769658Y-12752677D01*
X18769658Y-12752677D02*
X18779182Y-12771725D01*
X18779182Y-12771725D02*
X18788705Y-12809820D01*
X18788705Y-12809820D02*
X18788705Y-12857439D01*
X18788705Y-12857439D02*
X18779182Y-12895534D01*
X18779182Y-12895534D02*
X18769658Y-12914582D01*
X18769658Y-12914582D02*
X18760134Y-12924106D01*
X18760134Y-12924106D02*
X18741086Y-12933629D01*
X18741086Y-12933629D02*
X18722039Y-12933629D01*
X18722039Y-12933629D02*
X18702991Y-12924106D01*
X18702991Y-12924106D02*
X18693467Y-12914582D01*
X18693467Y-12914582D02*
X18683944Y-12895534D01*
X18683944Y-12895534D02*
X18674420Y-12857439D01*
X18674420Y-12857439D02*
X18674420Y-12809820D01*
X18674420Y-12809820D02*
X18683944Y-12771725D01*
X18683944Y-12771725D02*
X18693467Y-12752677D01*
X18693467Y-12752677D02*
X18702991Y-12743153D01*
X18702991Y-12743153D02*
X18722039Y-12733629D01*
X18874420Y-12933629D02*
X18874420Y-12800296D01*
X18874420Y-12819344D02*
X18883944Y-12809820D01*
X18883944Y-12809820D02*
X18902991Y-12800296D01*
X18902991Y-12800296D02*
X18931563Y-12800296D01*
X18931563Y-12800296D02*
X18950610Y-12809820D01*
X18950610Y-12809820D02*
X18960134Y-12828867D01*
X18960134Y-12828867D02*
X18960134Y-12933629D01*
X18960134Y-12828867D02*
X18969658Y-12809820D01*
X18969658Y-12809820D02*
X18988705Y-12800296D01*
X18988705Y-12800296D02*
X19017277Y-12800296D01*
X19017277Y-12800296D02*
X19036325Y-12809820D01*
X19036325Y-12809820D02*
X19045848Y-12828867D01*
X19045848Y-12828867D02*
X19045848Y-12933629D01*
X19141086Y-12933629D02*
X19141086Y-12800296D01*
X19141086Y-12819344D02*
X19150610Y-12809820D01*
X19150610Y-12809820D02*
X19169658Y-12800296D01*
X19169658Y-12800296D02*
X19198229Y-12800296D01*
X19198229Y-12800296D02*
X19217277Y-12809820D01*
X19217277Y-12809820D02*
X19226801Y-12828867D01*
X19226801Y-12828867D02*
X19226801Y-12933629D01*
X19226801Y-12828867D02*
X19236325Y-12809820D01*
X19236325Y-12809820D02*
X19255372Y-12800296D01*
X19255372Y-12800296D02*
X19283944Y-12800296D01*
X19283944Y-12800296D02*
X19302991Y-12809820D01*
X19302991Y-12809820D02*
X19312515Y-12828867D01*
X19312515Y-12828867D02*
X19312515Y-12933629D01*
X19702991Y-12724106D02*
X19531563Y-12981248D01*
X19960134Y-12733629D02*
X19979182Y-12733629D01*
X19979182Y-12733629D02*
X19998229Y-12743153D01*
X19998229Y-12743153D02*
X20007753Y-12752677D01*
X20007753Y-12752677D02*
X20017277Y-12771725D01*
X20017277Y-12771725D02*
X20026801Y-12809820D01*
X20026801Y-12809820D02*
X20026801Y-12857439D01*
X20026801Y-12857439D02*
X20017277Y-12895534D01*
X20017277Y-12895534D02*
X20007753Y-12914582D01*
X20007753Y-12914582D02*
X19998229Y-12924106D01*
X19998229Y-12924106D02*
X19979182Y-12933629D01*
X19979182Y-12933629D02*
X19960134Y-12933629D01*
X19960134Y-12933629D02*
X19941087Y-12924106D01*
X19941087Y-12924106D02*
X19931563Y-12914582D01*
X19931563Y-12914582D02*
X19922039Y-12895534D01*
X19922039Y-12895534D02*
X19912515Y-12857439D01*
X19912515Y-12857439D02*
X19912515Y-12809820D01*
X19912515Y-12809820D02*
X19922039Y-12771725D01*
X19922039Y-12771725D02*
X19931563Y-12752677D01*
X19931563Y-12752677D02*
X19941087Y-12743153D01*
X19941087Y-12743153D02*
X19960134Y-12733629D01*
X20112515Y-12914582D02*
X20122039Y-12924106D01*
X20122039Y-12924106D02*
X20112515Y-12933629D01*
X20112515Y-12933629D02*
X20102991Y-12924106D01*
X20102991Y-12924106D02*
X20112515Y-12914582D01*
X20112515Y-12914582D02*
X20112515Y-12933629D01*
X20312515Y-12933629D02*
X20198229Y-12933629D01*
X20255372Y-12933629D02*
X20255372Y-12733629D01*
X20255372Y-12733629D02*
X20236325Y-12762201D01*
X20236325Y-12762201D02*
X20217277Y-12781248D01*
X20217277Y-12781248D02*
X20198229Y-12790772D01*
X20379182Y-12733629D02*
X20502991Y-12733629D01*
X20502991Y-12733629D02*
X20436325Y-12809820D01*
X20436325Y-12809820D02*
X20464896Y-12809820D01*
X20464896Y-12809820D02*
X20483944Y-12819344D01*
X20483944Y-12819344D02*
X20493468Y-12828867D01*
X20493468Y-12828867D02*
X20502991Y-12847915D01*
X20502991Y-12847915D02*
X20502991Y-12895534D01*
X20502991Y-12895534D02*
X20493468Y-12914582D01*
X20493468Y-12914582D02*
X20483944Y-12924106D01*
X20483944Y-12924106D02*
X20464896Y-12933629D01*
X20464896Y-12933629D02*
X20407753Y-12933629D01*
X20407753Y-12933629D02*
X20388706Y-12924106D01*
X20388706Y-12924106D02*
X20379182Y-12914582D01*
X20569658Y-12733629D02*
X20702991Y-12733629D01*
X20702991Y-12733629D02*
X20617277Y-12933629D01*
X20807753Y-12819344D02*
X20788706Y-12809820D01*
X20788706Y-12809820D02*
X20779182Y-12800296D01*
X20779182Y-12800296D02*
X20769658Y-12781248D01*
X20769658Y-12781248D02*
X20769658Y-12771725D01*
X20769658Y-12771725D02*
X20779182Y-12752677D01*
X20779182Y-12752677D02*
X20788706Y-12743153D01*
X20788706Y-12743153D02*
X20807753Y-12733629D01*
X20807753Y-12733629D02*
X20845849Y-12733629D01*
X20845849Y-12733629D02*
X20864896Y-12743153D01*
X20864896Y-12743153D02*
X20874420Y-12752677D01*
X20874420Y-12752677D02*
X20883944Y-12771725D01*
X20883944Y-12771725D02*
X20883944Y-12781248D01*
X20883944Y-12781248D02*
X20874420Y-12800296D01*
X20874420Y-12800296D02*
X20864896Y-12809820D01*
X20864896Y-12809820D02*
X20845849Y-12819344D01*
X20845849Y-12819344D02*
X20807753Y-12819344D01*
X20807753Y-12819344D02*
X20788706Y-12828867D01*
X20788706Y-12828867D02*
X20779182Y-12838391D01*
X20779182Y-12838391D02*
X20769658Y-12857439D01*
X20769658Y-12857439D02*
X20769658Y-12895534D01*
X20769658Y-12895534D02*
X20779182Y-12914582D01*
X20779182Y-12914582D02*
X20788706Y-12924106D01*
X20788706Y-12924106D02*
X20807753Y-12933629D01*
X20807753Y-12933629D02*
X20845849Y-12933629D01*
X20845849Y-12933629D02*
X20864896Y-12924106D01*
X20864896Y-12924106D02*
X20874420Y-12914582D01*
X20874420Y-12914582D02*
X20883944Y-12895534D01*
X20883944Y-12895534D02*
X20883944Y-12857439D01*
X20883944Y-12857439D02*
X20874420Y-12838391D01*
X20874420Y-12838391D02*
X20864896Y-12828867D01*
X20864896Y-12828867D02*
X20845849Y-12819344D01*
X20960134Y-12733629D02*
X20960134Y-12771725D01*
X21036325Y-12733629D02*
X21036325Y-12771725D01*
X21331563Y-13009820D02*
X21322039Y-13000296D01*
X21322039Y-13000296D02*
X21302991Y-12971725D01*
X21302991Y-12971725D02*
X21293468Y-12952677D01*
X21293468Y-12952677D02*
X21283944Y-12924106D01*
X21283944Y-12924106D02*
X21274420Y-12876486D01*
X21274420Y-12876486D02*
X21274420Y-12838391D01*
X21274420Y-12838391D02*
X21283944Y-12790772D01*
X21283944Y-12790772D02*
X21293468Y-12762201D01*
X21293468Y-12762201D02*
X21302991Y-12743153D01*
X21302991Y-12743153D02*
X21322039Y-12714582D01*
X21322039Y-12714582D02*
X21331563Y-12705058D01*
X21398230Y-12752677D02*
X21407753Y-12743153D01*
X21407753Y-12743153D02*
X21426801Y-12733629D01*
X21426801Y-12733629D02*
X21474420Y-12733629D01*
X21474420Y-12733629D02*
X21493468Y-12743153D01*
X21493468Y-12743153D02*
X21502991Y-12752677D01*
X21502991Y-12752677D02*
X21512515Y-12771725D01*
X21512515Y-12771725D02*
X21512515Y-12790772D01*
X21512515Y-12790772D02*
X21502991Y-12819344D01*
X21502991Y-12819344D02*
X21388706Y-12933629D01*
X21388706Y-12933629D02*
X21512515Y-12933629D01*
X21750611Y-12933629D02*
X21750611Y-12733629D01*
X21836325Y-12933629D02*
X21836325Y-12828867D01*
X21836325Y-12828867D02*
X21826801Y-12809820D01*
X21826801Y-12809820D02*
X21807753Y-12800296D01*
X21807753Y-12800296D02*
X21779182Y-12800296D01*
X21779182Y-12800296D02*
X21760134Y-12809820D01*
X21760134Y-12809820D02*
X21750611Y-12819344D01*
X21960134Y-12933629D02*
X21941087Y-12924106D01*
X21941087Y-12924106D02*
X21931563Y-12914582D01*
X21931563Y-12914582D02*
X21922039Y-12895534D01*
X21922039Y-12895534D02*
X21922039Y-12838391D01*
X21922039Y-12838391D02*
X21931563Y-12819344D01*
X21931563Y-12819344D02*
X21941087Y-12809820D01*
X21941087Y-12809820D02*
X21960134Y-12800296D01*
X21960134Y-12800296D02*
X21988706Y-12800296D01*
X21988706Y-12800296D02*
X22007753Y-12809820D01*
X22007753Y-12809820D02*
X22017277Y-12819344D01*
X22017277Y-12819344D02*
X22026801Y-12838391D01*
X22026801Y-12838391D02*
X22026801Y-12895534D01*
X22026801Y-12895534D02*
X22017277Y-12914582D01*
X22017277Y-12914582D02*
X22007753Y-12924106D01*
X22007753Y-12924106D02*
X21988706Y-12933629D01*
X21988706Y-12933629D02*
X21960134Y-12933629D01*
X22141087Y-12933629D02*
X22122039Y-12924106D01*
X22122039Y-12924106D02*
X22112515Y-12905058D01*
X22112515Y-12905058D02*
X22112515Y-12733629D01*
X22293468Y-12924106D02*
X22274420Y-12933629D01*
X22274420Y-12933629D02*
X22236325Y-12933629D01*
X22236325Y-12933629D02*
X22217277Y-12924106D01*
X22217277Y-12924106D02*
X22207753Y-12905058D01*
X22207753Y-12905058D02*
X22207753Y-12828867D01*
X22207753Y-12828867D02*
X22217277Y-12809820D01*
X22217277Y-12809820D02*
X22236325Y-12800296D01*
X22236325Y-12800296D02*
X22274420Y-12800296D01*
X22274420Y-12800296D02*
X22293468Y-12809820D01*
X22293468Y-12809820D02*
X22302992Y-12828867D01*
X22302992Y-12828867D02*
X22302992Y-12847915D01*
X22302992Y-12847915D02*
X22207753Y-12866963D01*
X22379182Y-12924106D02*
X22398230Y-12933629D01*
X22398230Y-12933629D02*
X22436325Y-12933629D01*
X22436325Y-12933629D02*
X22455372Y-12924106D01*
X22455372Y-12924106D02*
X22464896Y-12905058D01*
X22464896Y-12905058D02*
X22464896Y-12895534D01*
X22464896Y-12895534D02*
X22455372Y-12876486D01*
X22455372Y-12876486D02*
X22436325Y-12866963D01*
X22436325Y-12866963D02*
X22407753Y-12866963D01*
X22407753Y-12866963D02*
X22388706Y-12857439D01*
X22388706Y-12857439D02*
X22379182Y-12838391D01*
X22379182Y-12838391D02*
X22379182Y-12828867D01*
X22379182Y-12828867D02*
X22388706Y-12809820D01*
X22388706Y-12809820D02*
X22407753Y-12800296D01*
X22407753Y-12800296D02*
X22436325Y-12800296D01*
X22436325Y-12800296D02*
X22455372Y-12809820D01*
X22531563Y-13009820D02*
X22541087Y-13000296D01*
X22541087Y-13000296D02*
X22560134Y-12971725D01*
X22560134Y-12971725D02*
X22569658Y-12952677D01*
X22569658Y-12952677D02*
X22579182Y-12924106D01*
X22579182Y-12924106D02*
X22588706Y-12876486D01*
X22588706Y-12876486D02*
X22588706Y-12838391D01*
X22588706Y-12838391D02*
X22579182Y-12790772D01*
X22579182Y-12790772D02*
X22569658Y-12762201D01*
X22569658Y-12762201D02*
X22560134Y-12743153D01*
X22560134Y-12743153D02*
X22541087Y-12714582D01*
X22541087Y-12714582D02*
X22531563Y-12705058D01*
X22893468Y-13009820D02*
X22883944Y-13000296D01*
X22883944Y-13000296D02*
X22864896Y-12971725D01*
X22864896Y-12971725D02*
X22855372Y-12952677D01*
X22855372Y-12952677D02*
X22845849Y-12924106D01*
X22845849Y-12924106D02*
X22836325Y-12876486D01*
X22836325Y-12876486D02*
X22836325Y-12838391D01*
X22836325Y-12838391D02*
X22845849Y-12790772D01*
X22845849Y-12790772D02*
X22855372Y-12762201D01*
X22855372Y-12762201D02*
X22864896Y-12743153D01*
X22864896Y-12743153D02*
X22883944Y-12714582D01*
X22883944Y-12714582D02*
X22893468Y-12705058D01*
X22969658Y-12800296D02*
X22969658Y-12933629D01*
X22969658Y-12819344D02*
X22979182Y-12809820D01*
X22979182Y-12809820D02*
X22998230Y-12800296D01*
X22998230Y-12800296D02*
X23026801Y-12800296D01*
X23026801Y-12800296D02*
X23045849Y-12809820D01*
X23045849Y-12809820D02*
X23055372Y-12828867D01*
X23055372Y-12828867D02*
X23055372Y-12933629D01*
X23179182Y-12933629D02*
X23160134Y-12924106D01*
X23160134Y-12924106D02*
X23150611Y-12914582D01*
X23150611Y-12914582D02*
X23141087Y-12895534D01*
X23141087Y-12895534D02*
X23141087Y-12838391D01*
X23141087Y-12838391D02*
X23150611Y-12819344D01*
X23150611Y-12819344D02*
X23160134Y-12809820D01*
X23160134Y-12809820D02*
X23179182Y-12800296D01*
X23179182Y-12800296D02*
X23207753Y-12800296D01*
X23207753Y-12800296D02*
X23226801Y-12809820D01*
X23226801Y-12809820D02*
X23236325Y-12819344D01*
X23236325Y-12819344D02*
X23245849Y-12838391D01*
X23245849Y-12838391D02*
X23245849Y-12895534D01*
X23245849Y-12895534D02*
X23236325Y-12914582D01*
X23236325Y-12914582D02*
X23226801Y-12924106D01*
X23226801Y-12924106D02*
X23207753Y-12933629D01*
X23207753Y-12933629D02*
X23179182Y-12933629D01*
X23302992Y-12800296D02*
X23379182Y-12800296D01*
X23331563Y-12733629D02*
X23331563Y-12905058D01*
X23331563Y-12905058D02*
X23341087Y-12924106D01*
X23341087Y-12924106D02*
X23360134Y-12933629D01*
X23360134Y-12933629D02*
X23379182Y-12933629D01*
X23598230Y-12800296D02*
X23598230Y-13000296D01*
X23598230Y-12809820D02*
X23617277Y-12800296D01*
X23617277Y-12800296D02*
X23655373Y-12800296D01*
X23655373Y-12800296D02*
X23674420Y-12809820D01*
X23674420Y-12809820D02*
X23683944Y-12819344D01*
X23683944Y-12819344D02*
X23693468Y-12838391D01*
X23693468Y-12838391D02*
X23693468Y-12895534D01*
X23693468Y-12895534D02*
X23683944Y-12914582D01*
X23683944Y-12914582D02*
X23674420Y-12924106D01*
X23674420Y-12924106D02*
X23655373Y-12933629D01*
X23655373Y-12933629D02*
X23617277Y-12933629D01*
X23617277Y-12933629D02*
X23598230Y-12924106D01*
X23807753Y-12933629D02*
X23788706Y-12924106D01*
X23788706Y-12924106D02*
X23779182Y-12905058D01*
X23779182Y-12905058D02*
X23779182Y-12733629D01*
X23969658Y-12933629D02*
X23969658Y-12828867D01*
X23969658Y-12828867D02*
X23960134Y-12809820D01*
X23960134Y-12809820D02*
X23941087Y-12800296D01*
X23941087Y-12800296D02*
X23902992Y-12800296D01*
X23902992Y-12800296D02*
X23883944Y-12809820D01*
X23969658Y-12924106D02*
X23950611Y-12933629D01*
X23950611Y-12933629D02*
X23902992Y-12933629D01*
X23902992Y-12933629D02*
X23883944Y-12924106D01*
X23883944Y-12924106D02*
X23874420Y-12905058D01*
X23874420Y-12905058D02*
X23874420Y-12886010D01*
X23874420Y-12886010D02*
X23883944Y-12866963D01*
X23883944Y-12866963D02*
X23902992Y-12857439D01*
X23902992Y-12857439D02*
X23950611Y-12857439D01*
X23950611Y-12857439D02*
X23969658Y-12847915D01*
X24036325Y-12800296D02*
X24112515Y-12800296D01*
X24064896Y-12733629D02*
X24064896Y-12905058D01*
X24064896Y-12905058D02*
X24074420Y-12924106D01*
X24074420Y-12924106D02*
X24093468Y-12933629D01*
X24093468Y-12933629D02*
X24112515Y-12933629D01*
X24255373Y-12924106D02*
X24236325Y-12933629D01*
X24236325Y-12933629D02*
X24198230Y-12933629D01*
X24198230Y-12933629D02*
X24179182Y-12924106D01*
X24179182Y-12924106D02*
X24169658Y-12905058D01*
X24169658Y-12905058D02*
X24169658Y-12828867D01*
X24169658Y-12828867D02*
X24179182Y-12809820D01*
X24179182Y-12809820D02*
X24198230Y-12800296D01*
X24198230Y-12800296D02*
X24236325Y-12800296D01*
X24236325Y-12800296D02*
X24255373Y-12809820D01*
X24255373Y-12809820D02*
X24264896Y-12828867D01*
X24264896Y-12828867D02*
X24264896Y-12847915D01*
X24264896Y-12847915D02*
X24169658Y-12866963D01*
X24436325Y-12933629D02*
X24436325Y-12733629D01*
X24436325Y-12924106D02*
X24417277Y-12933629D01*
X24417277Y-12933629D02*
X24379182Y-12933629D01*
X24379182Y-12933629D02*
X24360134Y-12924106D01*
X24360134Y-12924106D02*
X24350611Y-12914582D01*
X24350611Y-12914582D02*
X24341087Y-12895534D01*
X24341087Y-12895534D02*
X24341087Y-12838391D01*
X24341087Y-12838391D02*
X24350611Y-12819344D01*
X24350611Y-12819344D02*
X24360134Y-12809820D01*
X24360134Y-12809820D02*
X24379182Y-12800296D01*
X24379182Y-12800296D02*
X24417277Y-12800296D01*
X24417277Y-12800296D02*
X24436325Y-12809820D01*
X24512515Y-13009820D02*
X24522039Y-13000296D01*
X24522039Y-13000296D02*
X24541087Y-12971725D01*
X24541087Y-12971725D02*
X24550611Y-12952677D01*
X24550611Y-12952677D02*
X24560134Y-12924106D01*
X24560134Y-12924106D02*
X24569658Y-12876486D01*
X24569658Y-12876486D02*
X24569658Y-12838391D01*
X24569658Y-12838391D02*
X24560134Y-12790772D01*
X24560134Y-12790772D02*
X24550611Y-12762201D01*
X24550611Y-12762201D02*
X24541087Y-12743153D01*
X24541087Y-12743153D02*
X24522039Y-12714582D01*
X24522039Y-12714582D02*
X24512515Y-12705058D01*
X17656500Y-13062146D02*
X17656500Y-13262146D01*
X17556500Y-13162146D02*
X17756500Y-13162146D01*
X18112515Y-13053629D02*
X18017277Y-13053629D01*
X18017277Y-13053629D02*
X18007753Y-13148867D01*
X18007753Y-13148867D02*
X18017277Y-13139344D01*
X18017277Y-13139344D02*
X18036324Y-13129820D01*
X18036324Y-13129820D02*
X18083944Y-13129820D01*
X18083944Y-13129820D02*
X18102991Y-13139344D01*
X18102991Y-13139344D02*
X18112515Y-13148867D01*
X18112515Y-13148867D02*
X18122039Y-13167915D01*
X18122039Y-13167915D02*
X18122039Y-13215534D01*
X18122039Y-13215534D02*
X18112515Y-13234582D01*
X18112515Y-13234582D02*
X18102991Y-13244106D01*
X18102991Y-13244106D02*
X18083944Y-13253629D01*
X18083944Y-13253629D02*
X18036324Y-13253629D01*
X18036324Y-13253629D02*
X18017277Y-13244106D01*
X18017277Y-13244106D02*
X18007753Y-13234582D01*
X18207753Y-13234582D02*
X18217277Y-13244106D01*
X18217277Y-13244106D02*
X18207753Y-13253629D01*
X18207753Y-13253629D02*
X18198229Y-13244106D01*
X18198229Y-13244106D02*
X18207753Y-13234582D01*
X18207753Y-13234582D02*
X18207753Y-13253629D01*
X18407753Y-13253629D02*
X18293467Y-13253629D01*
X18350610Y-13253629D02*
X18350610Y-13053629D01*
X18350610Y-13053629D02*
X18331563Y-13082201D01*
X18331563Y-13082201D02*
X18312515Y-13101248D01*
X18312515Y-13101248D02*
X18293467Y-13110772D01*
X18531563Y-13053629D02*
X18550610Y-13053629D01*
X18550610Y-13053629D02*
X18569658Y-13063153D01*
X18569658Y-13063153D02*
X18579182Y-13072677D01*
X18579182Y-13072677D02*
X18588705Y-13091725D01*
X18588705Y-13091725D02*
X18598229Y-13129820D01*
X18598229Y-13129820D02*
X18598229Y-13177439D01*
X18598229Y-13177439D02*
X18588705Y-13215534D01*
X18588705Y-13215534D02*
X18579182Y-13234582D01*
X18579182Y-13234582D02*
X18569658Y-13244106D01*
X18569658Y-13244106D02*
X18550610Y-13253629D01*
X18550610Y-13253629D02*
X18531563Y-13253629D01*
X18531563Y-13253629D02*
X18512515Y-13244106D01*
X18512515Y-13244106D02*
X18502991Y-13234582D01*
X18502991Y-13234582D02*
X18493467Y-13215534D01*
X18493467Y-13215534D02*
X18483944Y-13177439D01*
X18483944Y-13177439D02*
X18483944Y-13129820D01*
X18483944Y-13129820D02*
X18493467Y-13091725D01*
X18493467Y-13091725D02*
X18502991Y-13072677D01*
X18502991Y-13072677D02*
X18512515Y-13063153D01*
X18512515Y-13063153D02*
X18531563Y-13053629D01*
X18722039Y-13053629D02*
X18741086Y-13053629D01*
X18741086Y-13053629D02*
X18760134Y-13063153D01*
X18760134Y-13063153D02*
X18769658Y-13072677D01*
X18769658Y-13072677D02*
X18779182Y-13091725D01*
X18779182Y-13091725D02*
X18788705Y-13129820D01*
X18788705Y-13129820D02*
X18788705Y-13177439D01*
X18788705Y-13177439D02*
X18779182Y-13215534D01*
X18779182Y-13215534D02*
X18769658Y-13234582D01*
X18769658Y-13234582D02*
X18760134Y-13244106D01*
X18760134Y-13244106D02*
X18741086Y-13253629D01*
X18741086Y-13253629D02*
X18722039Y-13253629D01*
X18722039Y-13253629D02*
X18702991Y-13244106D01*
X18702991Y-13244106D02*
X18693467Y-13234582D01*
X18693467Y-13234582D02*
X18683944Y-13215534D01*
X18683944Y-13215534D02*
X18674420Y-13177439D01*
X18674420Y-13177439D02*
X18674420Y-13129820D01*
X18674420Y-13129820D02*
X18683944Y-13091725D01*
X18683944Y-13091725D02*
X18693467Y-13072677D01*
X18693467Y-13072677D02*
X18702991Y-13063153D01*
X18702991Y-13063153D02*
X18722039Y-13053629D01*
X18874420Y-13253629D02*
X18874420Y-13120296D01*
X18874420Y-13139344D02*
X18883944Y-13129820D01*
X18883944Y-13129820D02*
X18902991Y-13120296D01*
X18902991Y-13120296D02*
X18931563Y-13120296D01*
X18931563Y-13120296D02*
X18950610Y-13129820D01*
X18950610Y-13129820D02*
X18960134Y-13148867D01*
X18960134Y-13148867D02*
X18960134Y-13253629D01*
X18960134Y-13148867D02*
X18969658Y-13129820D01*
X18969658Y-13129820D02*
X18988705Y-13120296D01*
X18988705Y-13120296D02*
X19017277Y-13120296D01*
X19017277Y-13120296D02*
X19036325Y-13129820D01*
X19036325Y-13129820D02*
X19045848Y-13148867D01*
X19045848Y-13148867D02*
X19045848Y-13253629D01*
X19141086Y-13253629D02*
X19141086Y-13120296D01*
X19141086Y-13139344D02*
X19150610Y-13129820D01*
X19150610Y-13129820D02*
X19169658Y-13120296D01*
X19169658Y-13120296D02*
X19198229Y-13120296D01*
X19198229Y-13120296D02*
X19217277Y-13129820D01*
X19217277Y-13129820D02*
X19226801Y-13148867D01*
X19226801Y-13148867D02*
X19226801Y-13253629D01*
X19226801Y-13148867D02*
X19236325Y-13129820D01*
X19236325Y-13129820D02*
X19255372Y-13120296D01*
X19255372Y-13120296D02*
X19283944Y-13120296D01*
X19283944Y-13120296D02*
X19302991Y-13129820D01*
X19302991Y-13129820D02*
X19312515Y-13148867D01*
X19312515Y-13148867D02*
X19312515Y-13253629D01*
X19702991Y-13044106D02*
X19531563Y-13301248D01*
X19960134Y-13053629D02*
X19979182Y-13053629D01*
X19979182Y-13053629D02*
X19998229Y-13063153D01*
X19998229Y-13063153D02*
X20007753Y-13072677D01*
X20007753Y-13072677D02*
X20017277Y-13091725D01*
X20017277Y-13091725D02*
X20026801Y-13129820D01*
X20026801Y-13129820D02*
X20026801Y-13177439D01*
X20026801Y-13177439D02*
X20017277Y-13215534D01*
X20017277Y-13215534D02*
X20007753Y-13234582D01*
X20007753Y-13234582D02*
X19998229Y-13244106D01*
X19998229Y-13244106D02*
X19979182Y-13253629D01*
X19979182Y-13253629D02*
X19960134Y-13253629D01*
X19960134Y-13253629D02*
X19941087Y-13244106D01*
X19941087Y-13244106D02*
X19931563Y-13234582D01*
X19931563Y-13234582D02*
X19922039Y-13215534D01*
X19922039Y-13215534D02*
X19912515Y-13177439D01*
X19912515Y-13177439D02*
X19912515Y-13129820D01*
X19912515Y-13129820D02*
X19922039Y-13091725D01*
X19922039Y-13091725D02*
X19931563Y-13072677D01*
X19931563Y-13072677D02*
X19941087Y-13063153D01*
X19941087Y-13063153D02*
X19960134Y-13053629D01*
X20112515Y-13234582D02*
X20122039Y-13244106D01*
X20122039Y-13244106D02*
X20112515Y-13253629D01*
X20112515Y-13253629D02*
X20102991Y-13244106D01*
X20102991Y-13244106D02*
X20112515Y-13234582D01*
X20112515Y-13234582D02*
X20112515Y-13253629D01*
X20198229Y-13072677D02*
X20207753Y-13063153D01*
X20207753Y-13063153D02*
X20226801Y-13053629D01*
X20226801Y-13053629D02*
X20274420Y-13053629D01*
X20274420Y-13053629D02*
X20293468Y-13063153D01*
X20293468Y-13063153D02*
X20302991Y-13072677D01*
X20302991Y-13072677D02*
X20312515Y-13091725D01*
X20312515Y-13091725D02*
X20312515Y-13110772D01*
X20312515Y-13110772D02*
X20302991Y-13139344D01*
X20302991Y-13139344D02*
X20188706Y-13253629D01*
X20188706Y-13253629D02*
X20312515Y-13253629D01*
X20436325Y-13053629D02*
X20455372Y-13053629D01*
X20455372Y-13053629D02*
X20474420Y-13063153D01*
X20474420Y-13063153D02*
X20483944Y-13072677D01*
X20483944Y-13072677D02*
X20493468Y-13091725D01*
X20493468Y-13091725D02*
X20502991Y-13129820D01*
X20502991Y-13129820D02*
X20502991Y-13177439D01*
X20502991Y-13177439D02*
X20493468Y-13215534D01*
X20493468Y-13215534D02*
X20483944Y-13234582D01*
X20483944Y-13234582D02*
X20474420Y-13244106D01*
X20474420Y-13244106D02*
X20455372Y-13253629D01*
X20455372Y-13253629D02*
X20436325Y-13253629D01*
X20436325Y-13253629D02*
X20417277Y-13244106D01*
X20417277Y-13244106D02*
X20407753Y-13234582D01*
X20407753Y-13234582D02*
X20398229Y-13215534D01*
X20398229Y-13215534D02*
X20388706Y-13177439D01*
X20388706Y-13177439D02*
X20388706Y-13129820D01*
X20388706Y-13129820D02*
X20398229Y-13091725D01*
X20398229Y-13091725D02*
X20407753Y-13072677D01*
X20407753Y-13072677D02*
X20417277Y-13063153D01*
X20417277Y-13063153D02*
X20436325Y-13053629D01*
X20626801Y-13053629D02*
X20645849Y-13053629D01*
X20645849Y-13053629D02*
X20664896Y-13063153D01*
X20664896Y-13063153D02*
X20674420Y-13072677D01*
X20674420Y-13072677D02*
X20683944Y-13091725D01*
X20683944Y-13091725D02*
X20693468Y-13129820D01*
X20693468Y-13129820D02*
X20693468Y-13177439D01*
X20693468Y-13177439D02*
X20683944Y-13215534D01*
X20683944Y-13215534D02*
X20674420Y-13234582D01*
X20674420Y-13234582D02*
X20664896Y-13244106D01*
X20664896Y-13244106D02*
X20645849Y-13253629D01*
X20645849Y-13253629D02*
X20626801Y-13253629D01*
X20626801Y-13253629D02*
X20607753Y-13244106D01*
X20607753Y-13244106D02*
X20598229Y-13234582D01*
X20598229Y-13234582D02*
X20588706Y-13215534D01*
X20588706Y-13215534D02*
X20579182Y-13177439D01*
X20579182Y-13177439D02*
X20579182Y-13129820D01*
X20579182Y-13129820D02*
X20588706Y-13091725D01*
X20588706Y-13091725D02*
X20598229Y-13072677D01*
X20598229Y-13072677D02*
X20607753Y-13063153D01*
X20607753Y-13063153D02*
X20626801Y-13053629D01*
X20807753Y-13139344D02*
X20788706Y-13129820D01*
X20788706Y-13129820D02*
X20779182Y-13120296D01*
X20779182Y-13120296D02*
X20769658Y-13101248D01*
X20769658Y-13101248D02*
X20769658Y-13091725D01*
X20769658Y-13091725D02*
X20779182Y-13072677D01*
X20779182Y-13072677D02*
X20788706Y-13063153D01*
X20788706Y-13063153D02*
X20807753Y-13053629D01*
X20807753Y-13053629D02*
X20845849Y-13053629D01*
X20845849Y-13053629D02*
X20864896Y-13063153D01*
X20864896Y-13063153D02*
X20874420Y-13072677D01*
X20874420Y-13072677D02*
X20883944Y-13091725D01*
X20883944Y-13091725D02*
X20883944Y-13101248D01*
X20883944Y-13101248D02*
X20874420Y-13120296D01*
X20874420Y-13120296D02*
X20864896Y-13129820D01*
X20864896Y-13129820D02*
X20845849Y-13139344D01*
X20845849Y-13139344D02*
X20807753Y-13139344D01*
X20807753Y-13139344D02*
X20788706Y-13148867D01*
X20788706Y-13148867D02*
X20779182Y-13158391D01*
X20779182Y-13158391D02*
X20769658Y-13177439D01*
X20769658Y-13177439D02*
X20769658Y-13215534D01*
X20769658Y-13215534D02*
X20779182Y-13234582D01*
X20779182Y-13234582D02*
X20788706Y-13244106D01*
X20788706Y-13244106D02*
X20807753Y-13253629D01*
X20807753Y-13253629D02*
X20845849Y-13253629D01*
X20845849Y-13253629D02*
X20864896Y-13244106D01*
X20864896Y-13244106D02*
X20874420Y-13234582D01*
X20874420Y-13234582D02*
X20883944Y-13215534D01*
X20883944Y-13215534D02*
X20883944Y-13177439D01*
X20883944Y-13177439D02*
X20874420Y-13158391D01*
X20874420Y-13158391D02*
X20864896Y-13148867D01*
X20864896Y-13148867D02*
X20845849Y-13139344D01*
X20960134Y-13053629D02*
X20960134Y-13091725D01*
X21036325Y-13053629D02*
X21036325Y-13091725D01*
X21331563Y-13329820D02*
X21322039Y-13320296D01*
X21322039Y-13320296D02*
X21302991Y-13291725D01*
X21302991Y-13291725D02*
X21293468Y-13272677D01*
X21293468Y-13272677D02*
X21283944Y-13244106D01*
X21283944Y-13244106D02*
X21274420Y-13196486D01*
X21274420Y-13196486D02*
X21274420Y-13158391D01*
X21274420Y-13158391D02*
X21283944Y-13110772D01*
X21283944Y-13110772D02*
X21293468Y-13082201D01*
X21293468Y-13082201D02*
X21302991Y-13063153D01*
X21302991Y-13063153D02*
X21322039Y-13034582D01*
X21322039Y-13034582D02*
X21331563Y-13025058D01*
X21388706Y-13053629D02*
X21512515Y-13053629D01*
X21512515Y-13053629D02*
X21445849Y-13129820D01*
X21445849Y-13129820D02*
X21474420Y-13129820D01*
X21474420Y-13129820D02*
X21493468Y-13139344D01*
X21493468Y-13139344D02*
X21502991Y-13148867D01*
X21502991Y-13148867D02*
X21512515Y-13167915D01*
X21512515Y-13167915D02*
X21512515Y-13215534D01*
X21512515Y-13215534D02*
X21502991Y-13234582D01*
X21502991Y-13234582D02*
X21493468Y-13244106D01*
X21493468Y-13244106D02*
X21474420Y-13253629D01*
X21474420Y-13253629D02*
X21417277Y-13253629D01*
X21417277Y-13253629D02*
X21398230Y-13244106D01*
X21398230Y-13244106D02*
X21388706Y-13234582D01*
X21750611Y-13253629D02*
X21750611Y-13053629D01*
X21836325Y-13253629D02*
X21836325Y-13148867D01*
X21836325Y-13148867D02*
X21826801Y-13129820D01*
X21826801Y-13129820D02*
X21807753Y-13120296D01*
X21807753Y-13120296D02*
X21779182Y-13120296D01*
X21779182Y-13120296D02*
X21760134Y-13129820D01*
X21760134Y-13129820D02*
X21750611Y-13139344D01*
X21960134Y-13253629D02*
X21941087Y-13244106D01*
X21941087Y-13244106D02*
X21931563Y-13234582D01*
X21931563Y-13234582D02*
X21922039Y-13215534D01*
X21922039Y-13215534D02*
X21922039Y-13158391D01*
X21922039Y-13158391D02*
X21931563Y-13139344D01*
X21931563Y-13139344D02*
X21941087Y-13129820D01*
X21941087Y-13129820D02*
X21960134Y-13120296D01*
X21960134Y-13120296D02*
X21988706Y-13120296D01*
X21988706Y-13120296D02*
X22007753Y-13129820D01*
X22007753Y-13129820D02*
X22017277Y-13139344D01*
X22017277Y-13139344D02*
X22026801Y-13158391D01*
X22026801Y-13158391D02*
X22026801Y-13215534D01*
X22026801Y-13215534D02*
X22017277Y-13234582D01*
X22017277Y-13234582D02*
X22007753Y-13244106D01*
X22007753Y-13244106D02*
X21988706Y-13253629D01*
X21988706Y-13253629D02*
X21960134Y-13253629D01*
X22141087Y-13253629D02*
X22122039Y-13244106D01*
X22122039Y-13244106D02*
X22112515Y-13225058D01*
X22112515Y-13225058D02*
X22112515Y-13053629D01*
X22293468Y-13244106D02*
X22274420Y-13253629D01*
X22274420Y-13253629D02*
X22236325Y-13253629D01*
X22236325Y-13253629D02*
X22217277Y-13244106D01*
X22217277Y-13244106D02*
X22207753Y-13225058D01*
X22207753Y-13225058D02*
X22207753Y-13148867D01*
X22207753Y-13148867D02*
X22217277Y-13129820D01*
X22217277Y-13129820D02*
X22236325Y-13120296D01*
X22236325Y-13120296D02*
X22274420Y-13120296D01*
X22274420Y-13120296D02*
X22293468Y-13129820D01*
X22293468Y-13129820D02*
X22302992Y-13148867D01*
X22302992Y-13148867D02*
X22302992Y-13167915D01*
X22302992Y-13167915D02*
X22207753Y-13186963D01*
X22379182Y-13244106D02*
X22398230Y-13253629D01*
X22398230Y-13253629D02*
X22436325Y-13253629D01*
X22436325Y-13253629D02*
X22455372Y-13244106D01*
X22455372Y-13244106D02*
X22464896Y-13225058D01*
X22464896Y-13225058D02*
X22464896Y-13215534D01*
X22464896Y-13215534D02*
X22455372Y-13196486D01*
X22455372Y-13196486D02*
X22436325Y-13186963D01*
X22436325Y-13186963D02*
X22407753Y-13186963D01*
X22407753Y-13186963D02*
X22388706Y-13177439D01*
X22388706Y-13177439D02*
X22379182Y-13158391D01*
X22379182Y-13158391D02*
X22379182Y-13148867D01*
X22379182Y-13148867D02*
X22388706Y-13129820D01*
X22388706Y-13129820D02*
X22407753Y-13120296D01*
X22407753Y-13120296D02*
X22436325Y-13120296D01*
X22436325Y-13120296D02*
X22455372Y-13129820D01*
X22531563Y-13329820D02*
X22541087Y-13320296D01*
X22541087Y-13320296D02*
X22560134Y-13291725D01*
X22560134Y-13291725D02*
X22569658Y-13272677D01*
X22569658Y-13272677D02*
X22579182Y-13244106D01*
X22579182Y-13244106D02*
X22588706Y-13196486D01*
X22588706Y-13196486D02*
X22588706Y-13158391D01*
X22588706Y-13158391D02*
X22579182Y-13110772D01*
X22579182Y-13110772D02*
X22569658Y-13082201D01*
X22569658Y-13082201D02*
X22560134Y-13063153D01*
X22560134Y-13063153D02*
X22541087Y-13034582D01*
X22541087Y-13034582D02*
X22531563Y-13025058D01*
X22893468Y-13329820D02*
X22883944Y-13320296D01*
X22883944Y-13320296D02*
X22864896Y-13291725D01*
X22864896Y-13291725D02*
X22855372Y-13272677D01*
X22855372Y-13272677D02*
X22845849Y-13244106D01*
X22845849Y-13244106D02*
X22836325Y-13196486D01*
X22836325Y-13196486D02*
X22836325Y-13158391D01*
X22836325Y-13158391D02*
X22845849Y-13110772D01*
X22845849Y-13110772D02*
X22855372Y-13082201D01*
X22855372Y-13082201D02*
X22864896Y-13063153D01*
X22864896Y-13063153D02*
X22883944Y-13034582D01*
X22883944Y-13034582D02*
X22893468Y-13025058D01*
X22969658Y-13120296D02*
X22969658Y-13253629D01*
X22969658Y-13139344D02*
X22979182Y-13129820D01*
X22979182Y-13129820D02*
X22998230Y-13120296D01*
X22998230Y-13120296D02*
X23026801Y-13120296D01*
X23026801Y-13120296D02*
X23045849Y-13129820D01*
X23045849Y-13129820D02*
X23055372Y-13148867D01*
X23055372Y-13148867D02*
X23055372Y-13253629D01*
X23179182Y-13253629D02*
X23160134Y-13244106D01*
X23160134Y-13244106D02*
X23150611Y-13234582D01*
X23150611Y-13234582D02*
X23141087Y-13215534D01*
X23141087Y-13215534D02*
X23141087Y-13158391D01*
X23141087Y-13158391D02*
X23150611Y-13139344D01*
X23150611Y-13139344D02*
X23160134Y-13129820D01*
X23160134Y-13129820D02*
X23179182Y-13120296D01*
X23179182Y-13120296D02*
X23207753Y-13120296D01*
X23207753Y-13120296D02*
X23226801Y-13129820D01*
X23226801Y-13129820D02*
X23236325Y-13139344D01*
X23236325Y-13139344D02*
X23245849Y-13158391D01*
X23245849Y-13158391D02*
X23245849Y-13215534D01*
X23245849Y-13215534D02*
X23236325Y-13234582D01*
X23236325Y-13234582D02*
X23226801Y-13244106D01*
X23226801Y-13244106D02*
X23207753Y-13253629D01*
X23207753Y-13253629D02*
X23179182Y-13253629D01*
X23302992Y-13120296D02*
X23379182Y-13120296D01*
X23331563Y-13053629D02*
X23331563Y-13225058D01*
X23331563Y-13225058D02*
X23341087Y-13244106D01*
X23341087Y-13244106D02*
X23360134Y-13253629D01*
X23360134Y-13253629D02*
X23379182Y-13253629D01*
X23598230Y-13120296D02*
X23598230Y-13320296D01*
X23598230Y-13129820D02*
X23617277Y-13120296D01*
X23617277Y-13120296D02*
X23655373Y-13120296D01*
X23655373Y-13120296D02*
X23674420Y-13129820D01*
X23674420Y-13129820D02*
X23683944Y-13139344D01*
X23683944Y-13139344D02*
X23693468Y-13158391D01*
X23693468Y-13158391D02*
X23693468Y-13215534D01*
X23693468Y-13215534D02*
X23683944Y-13234582D01*
X23683944Y-13234582D02*
X23674420Y-13244106D01*
X23674420Y-13244106D02*
X23655373Y-13253629D01*
X23655373Y-13253629D02*
X23617277Y-13253629D01*
X23617277Y-13253629D02*
X23598230Y-13244106D01*
X23807753Y-13253629D02*
X23788706Y-13244106D01*
X23788706Y-13244106D02*
X23779182Y-13225058D01*
X23779182Y-13225058D02*
X23779182Y-13053629D01*
X23969658Y-13253629D02*
X23969658Y-13148867D01*
X23969658Y-13148867D02*
X23960134Y-13129820D01*
X23960134Y-13129820D02*
X23941087Y-13120296D01*
X23941087Y-13120296D02*
X23902992Y-13120296D01*
X23902992Y-13120296D02*
X23883944Y-13129820D01*
X23969658Y-13244106D02*
X23950611Y-13253629D01*
X23950611Y-13253629D02*
X23902992Y-13253629D01*
X23902992Y-13253629D02*
X23883944Y-13244106D01*
X23883944Y-13244106D02*
X23874420Y-13225058D01*
X23874420Y-13225058D02*
X23874420Y-13206010D01*
X23874420Y-13206010D02*
X23883944Y-13186963D01*
X23883944Y-13186963D02*
X23902992Y-13177439D01*
X23902992Y-13177439D02*
X23950611Y-13177439D01*
X23950611Y-13177439D02*
X23969658Y-13167915D01*
X24036325Y-13120296D02*
X24112515Y-13120296D01*
X24064896Y-13053629D02*
X24064896Y-13225058D01*
X24064896Y-13225058D02*
X24074420Y-13244106D01*
X24074420Y-13244106D02*
X24093468Y-13253629D01*
X24093468Y-13253629D02*
X24112515Y-13253629D01*
X24255373Y-13244106D02*
X24236325Y-13253629D01*
X24236325Y-13253629D02*
X24198230Y-13253629D01*
X24198230Y-13253629D02*
X24179182Y-13244106D01*
X24179182Y-13244106D02*
X24169658Y-13225058D01*
X24169658Y-13225058D02*
X24169658Y-13148867D01*
X24169658Y-13148867D02*
X24179182Y-13129820D01*
X24179182Y-13129820D02*
X24198230Y-13120296D01*
X24198230Y-13120296D02*
X24236325Y-13120296D01*
X24236325Y-13120296D02*
X24255373Y-13129820D01*
X24255373Y-13129820D02*
X24264896Y-13148867D01*
X24264896Y-13148867D02*
X24264896Y-13167915D01*
X24264896Y-13167915D02*
X24169658Y-13186963D01*
X24436325Y-13253629D02*
X24436325Y-13053629D01*
X24436325Y-13244106D02*
X24417277Y-13253629D01*
X24417277Y-13253629D02*
X24379182Y-13253629D01*
X24379182Y-13253629D02*
X24360134Y-13244106D01*
X24360134Y-13244106D02*
X24350611Y-13234582D01*
X24350611Y-13234582D02*
X24341087Y-13215534D01*
X24341087Y-13215534D02*
X24341087Y-13158391D01*
X24341087Y-13158391D02*
X24350611Y-13139344D01*
X24350611Y-13139344D02*
X24360134Y-13129820D01*
X24360134Y-13129820D02*
X24379182Y-13120296D01*
X24379182Y-13120296D02*
X24417277Y-13120296D01*
X24417277Y-13120296D02*
X24436325Y-13129820D01*
X24512515Y-13329820D02*
X24522039Y-13320296D01*
X24522039Y-13320296D02*
X24541087Y-13291725D01*
X24541087Y-13291725D02*
X24550611Y-13272677D01*
X24550611Y-13272677D02*
X24560134Y-13244106D01*
X24560134Y-13244106D02*
X24569658Y-13196486D01*
X24569658Y-13196486D02*
X24569658Y-13158391D01*
X24569658Y-13158391D02*
X24560134Y-13110772D01*
X24560134Y-13110772D02*
X24550611Y-13082201D01*
X24550611Y-13082201D02*
X24541087Y-13063153D01*
X24541087Y-13063153D02*
X24522039Y-13034582D01*
X24522039Y-13034582D02*
X24512515Y-13025058D01*
M02*
