%TF.GenerationSoftware,KiCad,Pcbnew,7.0.5*%
%TF.CreationDate,2023-08-16T13:58:58+08:00*%
%TF.ProjectId,LT,4c542e6b-6963-4616-945f-706362585858,rev?*%
%TF.SameCoordinates,Original*%
%TF.FileFunction,Drillmap*%
%TF.FilePolarity,Positive*%
%FSLAX45Y45*%
G04 Gerber Fmt 4.5, Leading zero omitted, Abs format (unit mm)*
G04 Created by KiCad (PCBNEW 7.0.5) date 2023-08-16 13:58:58*
%MOMM*%
%LPD*%
G01*
G04 APERTURE LIST*
%ADD10C,0.100000*%
%ADD11C,0.200000*%
%ADD12C,0.080000*%
%ADD13C,0.150000*%
G04 APERTURE END LIST*
D10*
X22271500Y-11097500D02*
X17811500Y-11097500D01*
X17761500Y-9242500D02*
X17761500Y-11047500D01*
X21760000Y-9192500D02*
X21760000Y-8938000D01*
X21760000Y-9192500D02*
X17811500Y-9192500D01*
X17761500Y-11047500D02*
G75*
G03*
X17811500Y-11097500I50000J0D01*
G01*
X23076590Y-9370987D02*
X22776000Y-9231000D01*
X22776000Y-8938000D02*
X22776000Y-9231000D01*
X17811500Y-9192500D02*
G75*
G03*
X17761500Y-9242500I0J-50000D01*
G01*
X21760000Y-8938000D02*
X22776000Y-8938000D01*
D11*
D12*
X20199500Y-9725000D02*
X20279500Y-9805000D01*
X20279500Y-9725000D02*
X20199500Y-9805000D01*
X20199500Y-10485000D02*
X20279500Y-10565000D01*
X20279500Y-10485000D02*
X20199500Y-10565000D01*
X20453500Y-9725000D02*
X20533500Y-9805000D01*
X20533500Y-9725000D02*
X20453500Y-9805000D01*
X20453500Y-10485000D02*
X20533500Y-10565000D01*
X20533500Y-10485000D02*
X20453500Y-10565000D01*
X22104500Y-9725000D02*
X22184500Y-9805000D01*
X22184500Y-9725000D02*
X22104500Y-9805000D01*
X22104500Y-10485000D02*
X22184500Y-10565000D01*
X22184500Y-10485000D02*
X22104500Y-10565000D01*
D10*
X21937000Y-9065000D02*
G75*
G03*
X21937000Y-9065000I-50000J0D01*
G01*
X22191000Y-9065000D02*
G75*
G03*
X22191000Y-9065000I-50000J0D01*
G01*
X22445000Y-9065000D02*
G75*
G03*
X22445000Y-9065000I-50000J0D01*
G01*
X22699000Y-9065000D02*
G75*
G03*
X22699000Y-9065000I-50000J0D01*
G01*
D13*
X18944000Y-10495000D02*
X18944000Y-10645000D01*
X18869000Y-10570000D02*
X19019000Y-10570000D01*
D11*
X19034139Y-10569984D02*
X18978654Y-10486789D01*
X18978654Y-10486789D02*
G75*
G03*
X18853861Y-10570016I-62397J-41613D01*
G01*
X18853861Y-10570016D02*
X18909346Y-10653211D01*
X18909346Y-10653211D02*
G75*
G03*
X19034139Y-10569984I62397J41613D01*
G01*
D13*
X19033000Y-9816000D02*
X19033000Y-9966000D01*
X18958000Y-9891000D02*
X19108000Y-9891000D01*
X19414000Y-10660000D02*
X19414000Y-10810000D01*
X19339000Y-10735000D02*
X19489000Y-10735000D01*
X19668000Y-9560000D02*
X19668000Y-9710000D01*
X19593000Y-9635000D02*
X19743000Y-9635000D01*
X19674000Y-10660000D02*
X19674000Y-10810000D01*
X19599000Y-10735000D02*
X19749000Y-10735000D01*
X19914000Y-9560000D02*
X19914000Y-9710000D01*
X19839000Y-9635000D02*
X19989000Y-9635000D01*
D11*
X19989000Y-9635000D02*
X19989000Y-9635000D01*
X19989000Y-9635000D02*
G75*
G03*
X19839000Y-9635000I-75000J0D01*
G01*
X19839000Y-9635000D02*
X19839000Y-9635000D01*
X19839000Y-9635000D02*
G75*
G03*
X19989000Y-9635000I75000J0D01*
G01*
D13*
X20849000Y-10495000D02*
X20849000Y-10645000D01*
X20774000Y-10570000D02*
X20924000Y-10570000D01*
D11*
X20939139Y-10569984D02*
X20883654Y-10486789D01*
X20883654Y-10486789D02*
G75*
G03*
X20758861Y-10570016I-62397J-41613D01*
G01*
X20758861Y-10570016D02*
X20814346Y-10653211D01*
X20814346Y-10653211D02*
G75*
G03*
X20939139Y-10569984I62397J41613D01*
G01*
D13*
X20938000Y-9816000D02*
X20938000Y-9966000D01*
X20863000Y-9891000D02*
X21013000Y-9891000D01*
X21319000Y-10660000D02*
X21319000Y-10810000D01*
X21244000Y-10735000D02*
X21394000Y-10735000D01*
X21573000Y-9560000D02*
X21573000Y-9710000D01*
X21498000Y-9635000D02*
X21648000Y-9635000D01*
X21579000Y-10660000D02*
X21579000Y-10810000D01*
X21504000Y-10735000D02*
X21654000Y-10735000D01*
X21819000Y-9560000D02*
X21819000Y-9710000D01*
X21744000Y-9635000D02*
X21894000Y-9635000D01*
D11*
X21894000Y-9635000D02*
X21894000Y-9635000D01*
X21894000Y-9635000D02*
G75*
G03*
X21744000Y-9635000I-75000J0D01*
G01*
X21744000Y-9635000D02*
X21744000Y-9635000D01*
X21744000Y-9635000D02*
G75*
G03*
X21894000Y-9635000I75000J0D01*
G01*
D13*
X22931720Y-10748340D02*
X22931720Y-10898340D01*
X22856720Y-10823340D02*
X23006720Y-10823340D01*
D11*
X23013420Y-10861420D02*
X22998294Y-10762571D01*
X22998294Y-10762571D02*
G75*
G03*
X22850020Y-10785260I-74137J-11345D01*
G01*
X22850020Y-10785260D02*
X22865146Y-10884109D01*
X22865146Y-10884109D02*
G75*
G03*
X23013420Y-10861420I74137J11345D01*
G01*
D13*
X23287953Y-11096511D02*
X23287953Y-11246511D01*
X23212953Y-11171511D02*
X23362953Y-11171511D01*
X23299339Y-10170570D02*
X23299339Y-10320570D01*
X23224339Y-10245570D02*
X23374339Y-10245570D01*
X23523593Y-11206392D02*
X23523593Y-11356392D01*
X23448593Y-11281392D02*
X23598593Y-11281392D01*
X23983035Y-10206918D02*
X23983035Y-10356918D01*
X23908035Y-10281918D02*
X24058035Y-10281918D01*
X24205987Y-10310882D02*
X24205987Y-10460882D01*
X24130987Y-10385882D02*
X24280987Y-10385882D01*
D11*
X24273960Y-10417578D02*
X24273960Y-10417578D01*
X24273960Y-10417578D02*
G75*
G03*
X24138013Y-10354186I-67973J31696D01*
G01*
X24138013Y-10354186D02*
X24138013Y-10354186D01*
X24138013Y-10354186D02*
G75*
G03*
X24273960Y-10417578I67973J-31696D01*
G01*
X18017277Y-12203629D02*
X18017277Y-12003629D01*
X18017277Y-12003629D02*
X18064896Y-12003629D01*
X18064896Y-12003629D02*
X18093467Y-12013153D01*
X18093467Y-12013153D02*
X18112515Y-12032201D01*
X18112515Y-12032201D02*
X18122039Y-12051248D01*
X18122039Y-12051248D02*
X18131563Y-12089344D01*
X18131563Y-12089344D02*
X18131563Y-12117915D01*
X18131563Y-12117915D02*
X18122039Y-12156010D01*
X18122039Y-12156010D02*
X18112515Y-12175058D01*
X18112515Y-12175058D02*
X18093467Y-12194106D01*
X18093467Y-12194106D02*
X18064896Y-12203629D01*
X18064896Y-12203629D02*
X18017277Y-12203629D01*
X18217277Y-12203629D02*
X18217277Y-12070296D01*
X18217277Y-12108391D02*
X18226801Y-12089344D01*
X18226801Y-12089344D02*
X18236324Y-12079820D01*
X18236324Y-12079820D02*
X18255372Y-12070296D01*
X18255372Y-12070296D02*
X18274420Y-12070296D01*
X18341086Y-12203629D02*
X18341086Y-12070296D01*
X18341086Y-12003629D02*
X18331563Y-12013153D01*
X18331563Y-12013153D02*
X18341086Y-12022677D01*
X18341086Y-12022677D02*
X18350610Y-12013153D01*
X18350610Y-12013153D02*
X18341086Y-12003629D01*
X18341086Y-12003629D02*
X18341086Y-12022677D01*
X18464896Y-12203629D02*
X18445848Y-12194106D01*
X18445848Y-12194106D02*
X18436324Y-12175058D01*
X18436324Y-12175058D02*
X18436324Y-12003629D01*
X18569658Y-12203629D02*
X18550610Y-12194106D01*
X18550610Y-12194106D02*
X18541086Y-12175058D01*
X18541086Y-12175058D02*
X18541086Y-12003629D01*
X18798229Y-12203629D02*
X18798229Y-12003629D01*
X18798229Y-12003629D02*
X18864896Y-12146486D01*
X18864896Y-12146486D02*
X18931563Y-12003629D01*
X18931563Y-12003629D02*
X18931563Y-12203629D01*
X19112515Y-12203629D02*
X19112515Y-12098867D01*
X19112515Y-12098867D02*
X19102991Y-12079820D01*
X19102991Y-12079820D02*
X19083944Y-12070296D01*
X19083944Y-12070296D02*
X19045848Y-12070296D01*
X19045848Y-12070296D02*
X19026801Y-12079820D01*
X19112515Y-12194106D02*
X19093467Y-12203629D01*
X19093467Y-12203629D02*
X19045848Y-12203629D01*
X19045848Y-12203629D02*
X19026801Y-12194106D01*
X19026801Y-12194106D02*
X19017277Y-12175058D01*
X19017277Y-12175058D02*
X19017277Y-12156010D01*
X19017277Y-12156010D02*
X19026801Y-12136963D01*
X19026801Y-12136963D02*
X19045848Y-12127439D01*
X19045848Y-12127439D02*
X19093467Y-12127439D01*
X19093467Y-12127439D02*
X19112515Y-12117915D01*
X19207753Y-12070296D02*
X19207753Y-12270296D01*
X19207753Y-12079820D02*
X19226801Y-12070296D01*
X19226801Y-12070296D02*
X19264896Y-12070296D01*
X19264896Y-12070296D02*
X19283944Y-12079820D01*
X19283944Y-12079820D02*
X19293467Y-12089344D01*
X19293467Y-12089344D02*
X19302991Y-12108391D01*
X19302991Y-12108391D02*
X19302991Y-12165534D01*
X19302991Y-12165534D02*
X19293467Y-12184582D01*
X19293467Y-12184582D02*
X19283944Y-12194106D01*
X19283944Y-12194106D02*
X19264896Y-12203629D01*
X19264896Y-12203629D02*
X19226801Y-12203629D01*
X19226801Y-12203629D02*
X19207753Y-12194106D01*
X19388705Y-12184582D02*
X19398229Y-12194106D01*
X19398229Y-12194106D02*
X19388705Y-12203629D01*
X19388705Y-12203629D02*
X19379182Y-12194106D01*
X19379182Y-12194106D02*
X19388705Y-12184582D01*
X19388705Y-12184582D02*
X19388705Y-12203629D01*
X19388705Y-12079820D02*
X19398229Y-12089344D01*
X19398229Y-12089344D02*
X19388705Y-12098867D01*
X19388705Y-12098867D02*
X19379182Y-12089344D01*
X19379182Y-12089344D02*
X19388705Y-12079820D01*
X19388705Y-12079820D02*
X19388705Y-12098867D01*
D12*
X17676500Y-12492146D02*
X17756500Y-12572146D01*
X17756500Y-12492146D02*
X17676500Y-12572146D01*
D11*
X18055372Y-12423629D02*
X18074420Y-12423629D01*
X18074420Y-12423629D02*
X18093467Y-12433153D01*
X18093467Y-12433153D02*
X18102991Y-12442677D01*
X18102991Y-12442677D02*
X18112515Y-12461725D01*
X18112515Y-12461725D02*
X18122039Y-12499820D01*
X18122039Y-12499820D02*
X18122039Y-12547439D01*
X18122039Y-12547439D02*
X18112515Y-12585534D01*
X18112515Y-12585534D02*
X18102991Y-12604582D01*
X18102991Y-12604582D02*
X18093467Y-12614106D01*
X18093467Y-12614106D02*
X18074420Y-12623629D01*
X18074420Y-12623629D02*
X18055372Y-12623629D01*
X18055372Y-12623629D02*
X18036324Y-12614106D01*
X18036324Y-12614106D02*
X18026801Y-12604582D01*
X18026801Y-12604582D02*
X18017277Y-12585534D01*
X18017277Y-12585534D02*
X18007753Y-12547439D01*
X18007753Y-12547439D02*
X18007753Y-12499820D01*
X18007753Y-12499820D02*
X18017277Y-12461725D01*
X18017277Y-12461725D02*
X18026801Y-12442677D01*
X18026801Y-12442677D02*
X18036324Y-12433153D01*
X18036324Y-12433153D02*
X18055372Y-12423629D01*
X18207753Y-12604582D02*
X18217277Y-12614106D01*
X18217277Y-12614106D02*
X18207753Y-12623629D01*
X18207753Y-12623629D02*
X18198229Y-12614106D01*
X18198229Y-12614106D02*
X18207753Y-12604582D01*
X18207753Y-12604582D02*
X18207753Y-12623629D01*
X18331563Y-12509344D02*
X18312515Y-12499820D01*
X18312515Y-12499820D02*
X18302991Y-12490296D01*
X18302991Y-12490296D02*
X18293467Y-12471248D01*
X18293467Y-12471248D02*
X18293467Y-12461725D01*
X18293467Y-12461725D02*
X18302991Y-12442677D01*
X18302991Y-12442677D02*
X18312515Y-12433153D01*
X18312515Y-12433153D02*
X18331563Y-12423629D01*
X18331563Y-12423629D02*
X18369658Y-12423629D01*
X18369658Y-12423629D02*
X18388705Y-12433153D01*
X18388705Y-12433153D02*
X18398229Y-12442677D01*
X18398229Y-12442677D02*
X18407753Y-12461725D01*
X18407753Y-12461725D02*
X18407753Y-12471248D01*
X18407753Y-12471248D02*
X18398229Y-12490296D01*
X18398229Y-12490296D02*
X18388705Y-12499820D01*
X18388705Y-12499820D02*
X18369658Y-12509344D01*
X18369658Y-12509344D02*
X18331563Y-12509344D01*
X18331563Y-12509344D02*
X18312515Y-12518867D01*
X18312515Y-12518867D02*
X18302991Y-12528391D01*
X18302991Y-12528391D02*
X18293467Y-12547439D01*
X18293467Y-12547439D02*
X18293467Y-12585534D01*
X18293467Y-12585534D02*
X18302991Y-12604582D01*
X18302991Y-12604582D02*
X18312515Y-12614106D01*
X18312515Y-12614106D02*
X18331563Y-12623629D01*
X18331563Y-12623629D02*
X18369658Y-12623629D01*
X18369658Y-12623629D02*
X18388705Y-12614106D01*
X18388705Y-12614106D02*
X18398229Y-12604582D01*
X18398229Y-12604582D02*
X18407753Y-12585534D01*
X18407753Y-12585534D02*
X18407753Y-12547439D01*
X18407753Y-12547439D02*
X18398229Y-12528391D01*
X18398229Y-12528391D02*
X18388705Y-12518867D01*
X18388705Y-12518867D02*
X18369658Y-12509344D01*
X18531563Y-12423629D02*
X18550610Y-12423629D01*
X18550610Y-12423629D02*
X18569658Y-12433153D01*
X18569658Y-12433153D02*
X18579182Y-12442677D01*
X18579182Y-12442677D02*
X18588705Y-12461725D01*
X18588705Y-12461725D02*
X18598229Y-12499820D01*
X18598229Y-12499820D02*
X18598229Y-12547439D01*
X18598229Y-12547439D02*
X18588705Y-12585534D01*
X18588705Y-12585534D02*
X18579182Y-12604582D01*
X18579182Y-12604582D02*
X18569658Y-12614106D01*
X18569658Y-12614106D02*
X18550610Y-12623629D01*
X18550610Y-12623629D02*
X18531563Y-12623629D01*
X18531563Y-12623629D02*
X18512515Y-12614106D01*
X18512515Y-12614106D02*
X18502991Y-12604582D01*
X18502991Y-12604582D02*
X18493467Y-12585534D01*
X18493467Y-12585534D02*
X18483944Y-12547439D01*
X18483944Y-12547439D02*
X18483944Y-12499820D01*
X18483944Y-12499820D02*
X18493467Y-12461725D01*
X18493467Y-12461725D02*
X18502991Y-12442677D01*
X18502991Y-12442677D02*
X18512515Y-12433153D01*
X18512515Y-12433153D02*
X18531563Y-12423629D01*
X18722039Y-12423629D02*
X18741086Y-12423629D01*
X18741086Y-12423629D02*
X18760134Y-12433153D01*
X18760134Y-12433153D02*
X18769658Y-12442677D01*
X18769658Y-12442677D02*
X18779182Y-12461725D01*
X18779182Y-12461725D02*
X18788705Y-12499820D01*
X18788705Y-12499820D02*
X18788705Y-12547439D01*
X18788705Y-12547439D02*
X18779182Y-12585534D01*
X18779182Y-12585534D02*
X18769658Y-12604582D01*
X18769658Y-12604582D02*
X18760134Y-12614106D01*
X18760134Y-12614106D02*
X18741086Y-12623629D01*
X18741086Y-12623629D02*
X18722039Y-12623629D01*
X18722039Y-12623629D02*
X18702991Y-12614106D01*
X18702991Y-12614106D02*
X18693467Y-12604582D01*
X18693467Y-12604582D02*
X18683944Y-12585534D01*
X18683944Y-12585534D02*
X18674420Y-12547439D01*
X18674420Y-12547439D02*
X18674420Y-12499820D01*
X18674420Y-12499820D02*
X18683944Y-12461725D01*
X18683944Y-12461725D02*
X18693467Y-12442677D01*
X18693467Y-12442677D02*
X18702991Y-12433153D01*
X18702991Y-12433153D02*
X18722039Y-12423629D01*
X18874420Y-12623629D02*
X18874420Y-12490296D01*
X18874420Y-12509344D02*
X18883944Y-12499820D01*
X18883944Y-12499820D02*
X18902991Y-12490296D01*
X18902991Y-12490296D02*
X18931563Y-12490296D01*
X18931563Y-12490296D02*
X18950610Y-12499820D01*
X18950610Y-12499820D02*
X18960134Y-12518867D01*
X18960134Y-12518867D02*
X18960134Y-12623629D01*
X18960134Y-12518867D02*
X18969658Y-12499820D01*
X18969658Y-12499820D02*
X18988705Y-12490296D01*
X18988705Y-12490296D02*
X19017277Y-12490296D01*
X19017277Y-12490296D02*
X19036325Y-12499820D01*
X19036325Y-12499820D02*
X19045848Y-12518867D01*
X19045848Y-12518867D02*
X19045848Y-12623629D01*
X19141086Y-12623629D02*
X19141086Y-12490296D01*
X19141086Y-12509344D02*
X19150610Y-12499820D01*
X19150610Y-12499820D02*
X19169658Y-12490296D01*
X19169658Y-12490296D02*
X19198229Y-12490296D01*
X19198229Y-12490296D02*
X19217277Y-12499820D01*
X19217277Y-12499820D02*
X19226801Y-12518867D01*
X19226801Y-12518867D02*
X19226801Y-12623629D01*
X19226801Y-12518867D02*
X19236325Y-12499820D01*
X19236325Y-12499820D02*
X19255372Y-12490296D01*
X19255372Y-12490296D02*
X19283944Y-12490296D01*
X19283944Y-12490296D02*
X19302991Y-12499820D01*
X19302991Y-12499820D02*
X19312515Y-12518867D01*
X19312515Y-12518867D02*
X19312515Y-12623629D01*
X19702991Y-12414106D02*
X19531563Y-12671248D01*
X19960134Y-12423629D02*
X19979182Y-12423629D01*
X19979182Y-12423629D02*
X19998229Y-12433153D01*
X19998229Y-12433153D02*
X20007753Y-12442677D01*
X20007753Y-12442677D02*
X20017277Y-12461725D01*
X20017277Y-12461725D02*
X20026801Y-12499820D01*
X20026801Y-12499820D02*
X20026801Y-12547439D01*
X20026801Y-12547439D02*
X20017277Y-12585534D01*
X20017277Y-12585534D02*
X20007753Y-12604582D01*
X20007753Y-12604582D02*
X19998229Y-12614106D01*
X19998229Y-12614106D02*
X19979182Y-12623629D01*
X19979182Y-12623629D02*
X19960134Y-12623629D01*
X19960134Y-12623629D02*
X19941087Y-12614106D01*
X19941087Y-12614106D02*
X19931563Y-12604582D01*
X19931563Y-12604582D02*
X19922039Y-12585534D01*
X19922039Y-12585534D02*
X19912515Y-12547439D01*
X19912515Y-12547439D02*
X19912515Y-12499820D01*
X19912515Y-12499820D02*
X19922039Y-12461725D01*
X19922039Y-12461725D02*
X19931563Y-12442677D01*
X19931563Y-12442677D02*
X19941087Y-12433153D01*
X19941087Y-12433153D02*
X19960134Y-12423629D01*
X20112515Y-12604582D02*
X20122039Y-12614106D01*
X20122039Y-12614106D02*
X20112515Y-12623629D01*
X20112515Y-12623629D02*
X20102991Y-12614106D01*
X20102991Y-12614106D02*
X20112515Y-12604582D01*
X20112515Y-12604582D02*
X20112515Y-12623629D01*
X20245848Y-12423629D02*
X20264896Y-12423629D01*
X20264896Y-12423629D02*
X20283944Y-12433153D01*
X20283944Y-12433153D02*
X20293468Y-12442677D01*
X20293468Y-12442677D02*
X20302991Y-12461725D01*
X20302991Y-12461725D02*
X20312515Y-12499820D01*
X20312515Y-12499820D02*
X20312515Y-12547439D01*
X20312515Y-12547439D02*
X20302991Y-12585534D01*
X20302991Y-12585534D02*
X20293468Y-12604582D01*
X20293468Y-12604582D02*
X20283944Y-12614106D01*
X20283944Y-12614106D02*
X20264896Y-12623629D01*
X20264896Y-12623629D02*
X20245848Y-12623629D01*
X20245848Y-12623629D02*
X20226801Y-12614106D01*
X20226801Y-12614106D02*
X20217277Y-12604582D01*
X20217277Y-12604582D02*
X20207753Y-12585534D01*
X20207753Y-12585534D02*
X20198229Y-12547439D01*
X20198229Y-12547439D02*
X20198229Y-12499820D01*
X20198229Y-12499820D02*
X20207753Y-12461725D01*
X20207753Y-12461725D02*
X20217277Y-12442677D01*
X20217277Y-12442677D02*
X20226801Y-12433153D01*
X20226801Y-12433153D02*
X20245848Y-12423629D01*
X20379182Y-12423629D02*
X20502991Y-12423629D01*
X20502991Y-12423629D02*
X20436325Y-12499820D01*
X20436325Y-12499820D02*
X20464896Y-12499820D01*
X20464896Y-12499820D02*
X20483944Y-12509344D01*
X20483944Y-12509344D02*
X20493468Y-12518867D01*
X20493468Y-12518867D02*
X20502991Y-12537915D01*
X20502991Y-12537915D02*
X20502991Y-12585534D01*
X20502991Y-12585534D02*
X20493468Y-12604582D01*
X20493468Y-12604582D02*
X20483944Y-12614106D01*
X20483944Y-12614106D02*
X20464896Y-12623629D01*
X20464896Y-12623629D02*
X20407753Y-12623629D01*
X20407753Y-12623629D02*
X20388706Y-12614106D01*
X20388706Y-12614106D02*
X20379182Y-12604582D01*
X20693468Y-12623629D02*
X20579182Y-12623629D01*
X20636325Y-12623629D02*
X20636325Y-12423629D01*
X20636325Y-12423629D02*
X20617277Y-12452201D01*
X20617277Y-12452201D02*
X20598229Y-12471248D01*
X20598229Y-12471248D02*
X20579182Y-12480772D01*
X20874420Y-12423629D02*
X20779182Y-12423629D01*
X20779182Y-12423629D02*
X20769658Y-12518867D01*
X20769658Y-12518867D02*
X20779182Y-12509344D01*
X20779182Y-12509344D02*
X20798229Y-12499820D01*
X20798229Y-12499820D02*
X20845849Y-12499820D01*
X20845849Y-12499820D02*
X20864896Y-12509344D01*
X20864896Y-12509344D02*
X20874420Y-12518867D01*
X20874420Y-12518867D02*
X20883944Y-12537915D01*
X20883944Y-12537915D02*
X20883944Y-12585534D01*
X20883944Y-12585534D02*
X20874420Y-12604582D01*
X20874420Y-12604582D02*
X20864896Y-12614106D01*
X20864896Y-12614106D02*
X20845849Y-12623629D01*
X20845849Y-12623629D02*
X20798229Y-12623629D01*
X20798229Y-12623629D02*
X20779182Y-12614106D01*
X20779182Y-12614106D02*
X20769658Y-12604582D01*
X20960134Y-12423629D02*
X20960134Y-12461725D01*
X21036325Y-12423629D02*
X21036325Y-12461725D01*
X21331563Y-12699820D02*
X21322039Y-12690296D01*
X21322039Y-12690296D02*
X21302991Y-12661725D01*
X21302991Y-12661725D02*
X21293468Y-12642677D01*
X21293468Y-12642677D02*
X21283944Y-12614106D01*
X21283944Y-12614106D02*
X21274420Y-12566486D01*
X21274420Y-12566486D02*
X21274420Y-12528391D01*
X21274420Y-12528391D02*
X21283944Y-12480772D01*
X21283944Y-12480772D02*
X21293468Y-12452201D01*
X21293468Y-12452201D02*
X21302991Y-12433153D01*
X21302991Y-12433153D02*
X21322039Y-12404582D01*
X21322039Y-12404582D02*
X21331563Y-12395058D01*
X21493468Y-12423629D02*
X21455372Y-12423629D01*
X21455372Y-12423629D02*
X21436325Y-12433153D01*
X21436325Y-12433153D02*
X21426801Y-12442677D01*
X21426801Y-12442677D02*
X21407753Y-12471248D01*
X21407753Y-12471248D02*
X21398230Y-12509344D01*
X21398230Y-12509344D02*
X21398230Y-12585534D01*
X21398230Y-12585534D02*
X21407753Y-12604582D01*
X21407753Y-12604582D02*
X21417277Y-12614106D01*
X21417277Y-12614106D02*
X21436325Y-12623629D01*
X21436325Y-12623629D02*
X21474420Y-12623629D01*
X21474420Y-12623629D02*
X21493468Y-12614106D01*
X21493468Y-12614106D02*
X21502991Y-12604582D01*
X21502991Y-12604582D02*
X21512515Y-12585534D01*
X21512515Y-12585534D02*
X21512515Y-12537915D01*
X21512515Y-12537915D02*
X21502991Y-12518867D01*
X21502991Y-12518867D02*
X21493468Y-12509344D01*
X21493468Y-12509344D02*
X21474420Y-12499820D01*
X21474420Y-12499820D02*
X21436325Y-12499820D01*
X21436325Y-12499820D02*
X21417277Y-12509344D01*
X21417277Y-12509344D02*
X21407753Y-12518867D01*
X21407753Y-12518867D02*
X21398230Y-12537915D01*
X21750611Y-12623629D02*
X21750611Y-12423629D01*
X21836325Y-12623629D02*
X21836325Y-12518867D01*
X21836325Y-12518867D02*
X21826801Y-12499820D01*
X21826801Y-12499820D02*
X21807753Y-12490296D01*
X21807753Y-12490296D02*
X21779182Y-12490296D01*
X21779182Y-12490296D02*
X21760134Y-12499820D01*
X21760134Y-12499820D02*
X21750611Y-12509344D01*
X21960134Y-12623629D02*
X21941087Y-12614106D01*
X21941087Y-12614106D02*
X21931563Y-12604582D01*
X21931563Y-12604582D02*
X21922039Y-12585534D01*
X21922039Y-12585534D02*
X21922039Y-12528391D01*
X21922039Y-12528391D02*
X21931563Y-12509344D01*
X21931563Y-12509344D02*
X21941087Y-12499820D01*
X21941087Y-12499820D02*
X21960134Y-12490296D01*
X21960134Y-12490296D02*
X21988706Y-12490296D01*
X21988706Y-12490296D02*
X22007753Y-12499820D01*
X22007753Y-12499820D02*
X22017277Y-12509344D01*
X22017277Y-12509344D02*
X22026801Y-12528391D01*
X22026801Y-12528391D02*
X22026801Y-12585534D01*
X22026801Y-12585534D02*
X22017277Y-12604582D01*
X22017277Y-12604582D02*
X22007753Y-12614106D01*
X22007753Y-12614106D02*
X21988706Y-12623629D01*
X21988706Y-12623629D02*
X21960134Y-12623629D01*
X22141087Y-12623629D02*
X22122039Y-12614106D01*
X22122039Y-12614106D02*
X22112515Y-12595058D01*
X22112515Y-12595058D02*
X22112515Y-12423629D01*
X22293468Y-12614106D02*
X22274420Y-12623629D01*
X22274420Y-12623629D02*
X22236325Y-12623629D01*
X22236325Y-12623629D02*
X22217277Y-12614106D01*
X22217277Y-12614106D02*
X22207753Y-12595058D01*
X22207753Y-12595058D02*
X22207753Y-12518867D01*
X22207753Y-12518867D02*
X22217277Y-12499820D01*
X22217277Y-12499820D02*
X22236325Y-12490296D01*
X22236325Y-12490296D02*
X22274420Y-12490296D01*
X22274420Y-12490296D02*
X22293468Y-12499820D01*
X22293468Y-12499820D02*
X22302992Y-12518867D01*
X22302992Y-12518867D02*
X22302992Y-12537915D01*
X22302992Y-12537915D02*
X22207753Y-12556963D01*
X22379182Y-12614106D02*
X22398230Y-12623629D01*
X22398230Y-12623629D02*
X22436325Y-12623629D01*
X22436325Y-12623629D02*
X22455372Y-12614106D01*
X22455372Y-12614106D02*
X22464896Y-12595058D01*
X22464896Y-12595058D02*
X22464896Y-12585534D01*
X22464896Y-12585534D02*
X22455372Y-12566486D01*
X22455372Y-12566486D02*
X22436325Y-12556963D01*
X22436325Y-12556963D02*
X22407753Y-12556963D01*
X22407753Y-12556963D02*
X22388706Y-12547439D01*
X22388706Y-12547439D02*
X22379182Y-12528391D01*
X22379182Y-12528391D02*
X22379182Y-12518867D01*
X22379182Y-12518867D02*
X22388706Y-12499820D01*
X22388706Y-12499820D02*
X22407753Y-12490296D01*
X22407753Y-12490296D02*
X22436325Y-12490296D01*
X22436325Y-12490296D02*
X22455372Y-12499820D01*
X22531563Y-12699820D02*
X22541087Y-12690296D01*
X22541087Y-12690296D02*
X22560134Y-12661725D01*
X22560134Y-12661725D02*
X22569658Y-12642677D01*
X22569658Y-12642677D02*
X22579182Y-12614106D01*
X22579182Y-12614106D02*
X22588706Y-12566486D01*
X22588706Y-12566486D02*
X22588706Y-12528391D01*
X22588706Y-12528391D02*
X22579182Y-12480772D01*
X22579182Y-12480772D02*
X22569658Y-12452201D01*
X22569658Y-12452201D02*
X22560134Y-12433153D01*
X22560134Y-12433153D02*
X22541087Y-12404582D01*
X22541087Y-12404582D02*
X22531563Y-12395058D01*
D10*
X17756500Y-12796146D02*
G75*
G03*
X17756500Y-12796146I-50000J0D01*
G01*
D11*
X18122039Y-12887629D02*
X18007753Y-12887629D01*
X18064896Y-12887629D02*
X18064896Y-12687629D01*
X18064896Y-12687629D02*
X18045848Y-12716201D01*
X18045848Y-12716201D02*
X18026801Y-12735248D01*
X18026801Y-12735248D02*
X18007753Y-12744772D01*
X18207753Y-12868582D02*
X18217277Y-12878106D01*
X18217277Y-12878106D02*
X18207753Y-12887629D01*
X18207753Y-12887629D02*
X18198229Y-12878106D01*
X18198229Y-12878106D02*
X18207753Y-12868582D01*
X18207753Y-12868582D02*
X18207753Y-12887629D01*
X18341086Y-12687629D02*
X18360134Y-12687629D01*
X18360134Y-12687629D02*
X18379182Y-12697153D01*
X18379182Y-12697153D02*
X18388705Y-12706677D01*
X18388705Y-12706677D02*
X18398229Y-12725725D01*
X18398229Y-12725725D02*
X18407753Y-12763820D01*
X18407753Y-12763820D02*
X18407753Y-12811439D01*
X18407753Y-12811439D02*
X18398229Y-12849534D01*
X18398229Y-12849534D02*
X18388705Y-12868582D01*
X18388705Y-12868582D02*
X18379182Y-12878106D01*
X18379182Y-12878106D02*
X18360134Y-12887629D01*
X18360134Y-12887629D02*
X18341086Y-12887629D01*
X18341086Y-12887629D02*
X18322039Y-12878106D01*
X18322039Y-12878106D02*
X18312515Y-12868582D01*
X18312515Y-12868582D02*
X18302991Y-12849534D01*
X18302991Y-12849534D02*
X18293467Y-12811439D01*
X18293467Y-12811439D02*
X18293467Y-12763820D01*
X18293467Y-12763820D02*
X18302991Y-12725725D01*
X18302991Y-12725725D02*
X18312515Y-12706677D01*
X18312515Y-12706677D02*
X18322039Y-12697153D01*
X18322039Y-12697153D02*
X18341086Y-12687629D01*
X18531563Y-12687629D02*
X18550610Y-12687629D01*
X18550610Y-12687629D02*
X18569658Y-12697153D01*
X18569658Y-12697153D02*
X18579182Y-12706677D01*
X18579182Y-12706677D02*
X18588705Y-12725725D01*
X18588705Y-12725725D02*
X18598229Y-12763820D01*
X18598229Y-12763820D02*
X18598229Y-12811439D01*
X18598229Y-12811439D02*
X18588705Y-12849534D01*
X18588705Y-12849534D02*
X18579182Y-12868582D01*
X18579182Y-12868582D02*
X18569658Y-12878106D01*
X18569658Y-12878106D02*
X18550610Y-12887629D01*
X18550610Y-12887629D02*
X18531563Y-12887629D01*
X18531563Y-12887629D02*
X18512515Y-12878106D01*
X18512515Y-12878106D02*
X18502991Y-12868582D01*
X18502991Y-12868582D02*
X18493467Y-12849534D01*
X18493467Y-12849534D02*
X18483944Y-12811439D01*
X18483944Y-12811439D02*
X18483944Y-12763820D01*
X18483944Y-12763820D02*
X18493467Y-12725725D01*
X18493467Y-12725725D02*
X18502991Y-12706677D01*
X18502991Y-12706677D02*
X18512515Y-12697153D01*
X18512515Y-12697153D02*
X18531563Y-12687629D01*
X18722039Y-12687629D02*
X18741086Y-12687629D01*
X18741086Y-12687629D02*
X18760134Y-12697153D01*
X18760134Y-12697153D02*
X18769658Y-12706677D01*
X18769658Y-12706677D02*
X18779182Y-12725725D01*
X18779182Y-12725725D02*
X18788705Y-12763820D01*
X18788705Y-12763820D02*
X18788705Y-12811439D01*
X18788705Y-12811439D02*
X18779182Y-12849534D01*
X18779182Y-12849534D02*
X18769658Y-12868582D01*
X18769658Y-12868582D02*
X18760134Y-12878106D01*
X18760134Y-12878106D02*
X18741086Y-12887629D01*
X18741086Y-12887629D02*
X18722039Y-12887629D01*
X18722039Y-12887629D02*
X18702991Y-12878106D01*
X18702991Y-12878106D02*
X18693467Y-12868582D01*
X18693467Y-12868582D02*
X18683944Y-12849534D01*
X18683944Y-12849534D02*
X18674420Y-12811439D01*
X18674420Y-12811439D02*
X18674420Y-12763820D01*
X18674420Y-12763820D02*
X18683944Y-12725725D01*
X18683944Y-12725725D02*
X18693467Y-12706677D01*
X18693467Y-12706677D02*
X18702991Y-12697153D01*
X18702991Y-12697153D02*
X18722039Y-12687629D01*
X18874420Y-12887629D02*
X18874420Y-12754296D01*
X18874420Y-12773344D02*
X18883944Y-12763820D01*
X18883944Y-12763820D02*
X18902991Y-12754296D01*
X18902991Y-12754296D02*
X18931563Y-12754296D01*
X18931563Y-12754296D02*
X18950610Y-12763820D01*
X18950610Y-12763820D02*
X18960134Y-12782867D01*
X18960134Y-12782867D02*
X18960134Y-12887629D01*
X18960134Y-12782867D02*
X18969658Y-12763820D01*
X18969658Y-12763820D02*
X18988705Y-12754296D01*
X18988705Y-12754296D02*
X19017277Y-12754296D01*
X19017277Y-12754296D02*
X19036325Y-12763820D01*
X19036325Y-12763820D02*
X19045848Y-12782867D01*
X19045848Y-12782867D02*
X19045848Y-12887629D01*
X19141086Y-12887629D02*
X19141086Y-12754296D01*
X19141086Y-12773344D02*
X19150610Y-12763820D01*
X19150610Y-12763820D02*
X19169658Y-12754296D01*
X19169658Y-12754296D02*
X19198229Y-12754296D01*
X19198229Y-12754296D02*
X19217277Y-12763820D01*
X19217277Y-12763820D02*
X19226801Y-12782867D01*
X19226801Y-12782867D02*
X19226801Y-12887629D01*
X19226801Y-12782867D02*
X19236325Y-12763820D01*
X19236325Y-12763820D02*
X19255372Y-12754296D01*
X19255372Y-12754296D02*
X19283944Y-12754296D01*
X19283944Y-12754296D02*
X19302991Y-12763820D01*
X19302991Y-12763820D02*
X19312515Y-12782867D01*
X19312515Y-12782867D02*
X19312515Y-12887629D01*
X19702991Y-12678106D02*
X19531563Y-12935248D01*
X19960134Y-12687629D02*
X19979182Y-12687629D01*
X19979182Y-12687629D02*
X19998229Y-12697153D01*
X19998229Y-12697153D02*
X20007753Y-12706677D01*
X20007753Y-12706677D02*
X20017277Y-12725725D01*
X20017277Y-12725725D02*
X20026801Y-12763820D01*
X20026801Y-12763820D02*
X20026801Y-12811439D01*
X20026801Y-12811439D02*
X20017277Y-12849534D01*
X20017277Y-12849534D02*
X20007753Y-12868582D01*
X20007753Y-12868582D02*
X19998229Y-12878106D01*
X19998229Y-12878106D02*
X19979182Y-12887629D01*
X19979182Y-12887629D02*
X19960134Y-12887629D01*
X19960134Y-12887629D02*
X19941087Y-12878106D01*
X19941087Y-12878106D02*
X19931563Y-12868582D01*
X19931563Y-12868582D02*
X19922039Y-12849534D01*
X19922039Y-12849534D02*
X19912515Y-12811439D01*
X19912515Y-12811439D02*
X19912515Y-12763820D01*
X19912515Y-12763820D02*
X19922039Y-12725725D01*
X19922039Y-12725725D02*
X19931563Y-12706677D01*
X19931563Y-12706677D02*
X19941087Y-12697153D01*
X19941087Y-12697153D02*
X19960134Y-12687629D01*
X20112515Y-12868582D02*
X20122039Y-12878106D01*
X20122039Y-12878106D02*
X20112515Y-12887629D01*
X20112515Y-12887629D02*
X20102991Y-12878106D01*
X20102991Y-12878106D02*
X20112515Y-12868582D01*
X20112515Y-12868582D02*
X20112515Y-12887629D01*
X20245848Y-12687629D02*
X20264896Y-12687629D01*
X20264896Y-12687629D02*
X20283944Y-12697153D01*
X20283944Y-12697153D02*
X20293468Y-12706677D01*
X20293468Y-12706677D02*
X20302991Y-12725725D01*
X20302991Y-12725725D02*
X20312515Y-12763820D01*
X20312515Y-12763820D02*
X20312515Y-12811439D01*
X20312515Y-12811439D02*
X20302991Y-12849534D01*
X20302991Y-12849534D02*
X20293468Y-12868582D01*
X20293468Y-12868582D02*
X20283944Y-12878106D01*
X20283944Y-12878106D02*
X20264896Y-12887629D01*
X20264896Y-12887629D02*
X20245848Y-12887629D01*
X20245848Y-12887629D02*
X20226801Y-12878106D01*
X20226801Y-12878106D02*
X20217277Y-12868582D01*
X20217277Y-12868582D02*
X20207753Y-12849534D01*
X20207753Y-12849534D02*
X20198229Y-12811439D01*
X20198229Y-12811439D02*
X20198229Y-12763820D01*
X20198229Y-12763820D02*
X20207753Y-12725725D01*
X20207753Y-12725725D02*
X20217277Y-12706677D01*
X20217277Y-12706677D02*
X20226801Y-12697153D01*
X20226801Y-12697153D02*
X20245848Y-12687629D01*
X20379182Y-12687629D02*
X20502991Y-12687629D01*
X20502991Y-12687629D02*
X20436325Y-12763820D01*
X20436325Y-12763820D02*
X20464896Y-12763820D01*
X20464896Y-12763820D02*
X20483944Y-12773344D01*
X20483944Y-12773344D02*
X20493468Y-12782867D01*
X20493468Y-12782867D02*
X20502991Y-12801915D01*
X20502991Y-12801915D02*
X20502991Y-12849534D01*
X20502991Y-12849534D02*
X20493468Y-12868582D01*
X20493468Y-12868582D02*
X20483944Y-12878106D01*
X20483944Y-12878106D02*
X20464896Y-12887629D01*
X20464896Y-12887629D02*
X20407753Y-12887629D01*
X20407753Y-12887629D02*
X20388706Y-12878106D01*
X20388706Y-12878106D02*
X20379182Y-12868582D01*
X20598229Y-12887629D02*
X20636325Y-12887629D01*
X20636325Y-12887629D02*
X20655372Y-12878106D01*
X20655372Y-12878106D02*
X20664896Y-12868582D01*
X20664896Y-12868582D02*
X20683944Y-12840010D01*
X20683944Y-12840010D02*
X20693468Y-12801915D01*
X20693468Y-12801915D02*
X20693468Y-12725725D01*
X20693468Y-12725725D02*
X20683944Y-12706677D01*
X20683944Y-12706677D02*
X20674420Y-12697153D01*
X20674420Y-12697153D02*
X20655372Y-12687629D01*
X20655372Y-12687629D02*
X20617277Y-12687629D01*
X20617277Y-12687629D02*
X20598229Y-12697153D01*
X20598229Y-12697153D02*
X20588706Y-12706677D01*
X20588706Y-12706677D02*
X20579182Y-12725725D01*
X20579182Y-12725725D02*
X20579182Y-12773344D01*
X20579182Y-12773344D02*
X20588706Y-12792391D01*
X20588706Y-12792391D02*
X20598229Y-12801915D01*
X20598229Y-12801915D02*
X20617277Y-12811439D01*
X20617277Y-12811439D02*
X20655372Y-12811439D01*
X20655372Y-12811439D02*
X20674420Y-12801915D01*
X20674420Y-12801915D02*
X20683944Y-12792391D01*
X20683944Y-12792391D02*
X20693468Y-12773344D01*
X20864896Y-12754296D02*
X20864896Y-12887629D01*
X20817277Y-12678106D02*
X20769658Y-12820963D01*
X20769658Y-12820963D02*
X20893468Y-12820963D01*
X20960134Y-12687629D02*
X20960134Y-12725725D01*
X21036325Y-12687629D02*
X21036325Y-12725725D01*
X21331563Y-12963820D02*
X21322039Y-12954296D01*
X21322039Y-12954296D02*
X21302991Y-12925725D01*
X21302991Y-12925725D02*
X21293468Y-12906677D01*
X21293468Y-12906677D02*
X21283944Y-12878106D01*
X21283944Y-12878106D02*
X21274420Y-12830486D01*
X21274420Y-12830486D02*
X21274420Y-12792391D01*
X21274420Y-12792391D02*
X21283944Y-12744772D01*
X21283944Y-12744772D02*
X21293468Y-12716201D01*
X21293468Y-12716201D02*
X21302991Y-12697153D01*
X21302991Y-12697153D02*
X21322039Y-12668582D01*
X21322039Y-12668582D02*
X21331563Y-12659058D01*
X21493468Y-12754296D02*
X21493468Y-12887629D01*
X21445849Y-12678106D02*
X21398230Y-12820963D01*
X21398230Y-12820963D02*
X21522039Y-12820963D01*
X21750611Y-12887629D02*
X21750611Y-12687629D01*
X21836325Y-12887629D02*
X21836325Y-12782867D01*
X21836325Y-12782867D02*
X21826801Y-12763820D01*
X21826801Y-12763820D02*
X21807753Y-12754296D01*
X21807753Y-12754296D02*
X21779182Y-12754296D01*
X21779182Y-12754296D02*
X21760134Y-12763820D01*
X21760134Y-12763820D02*
X21750611Y-12773344D01*
X21960134Y-12887629D02*
X21941087Y-12878106D01*
X21941087Y-12878106D02*
X21931563Y-12868582D01*
X21931563Y-12868582D02*
X21922039Y-12849534D01*
X21922039Y-12849534D02*
X21922039Y-12792391D01*
X21922039Y-12792391D02*
X21931563Y-12773344D01*
X21931563Y-12773344D02*
X21941087Y-12763820D01*
X21941087Y-12763820D02*
X21960134Y-12754296D01*
X21960134Y-12754296D02*
X21988706Y-12754296D01*
X21988706Y-12754296D02*
X22007753Y-12763820D01*
X22007753Y-12763820D02*
X22017277Y-12773344D01*
X22017277Y-12773344D02*
X22026801Y-12792391D01*
X22026801Y-12792391D02*
X22026801Y-12849534D01*
X22026801Y-12849534D02*
X22017277Y-12868582D01*
X22017277Y-12868582D02*
X22007753Y-12878106D01*
X22007753Y-12878106D02*
X21988706Y-12887629D01*
X21988706Y-12887629D02*
X21960134Y-12887629D01*
X22141087Y-12887629D02*
X22122039Y-12878106D01*
X22122039Y-12878106D02*
X22112515Y-12859058D01*
X22112515Y-12859058D02*
X22112515Y-12687629D01*
X22293468Y-12878106D02*
X22274420Y-12887629D01*
X22274420Y-12887629D02*
X22236325Y-12887629D01*
X22236325Y-12887629D02*
X22217277Y-12878106D01*
X22217277Y-12878106D02*
X22207753Y-12859058D01*
X22207753Y-12859058D02*
X22207753Y-12782867D01*
X22207753Y-12782867D02*
X22217277Y-12763820D01*
X22217277Y-12763820D02*
X22236325Y-12754296D01*
X22236325Y-12754296D02*
X22274420Y-12754296D01*
X22274420Y-12754296D02*
X22293468Y-12763820D01*
X22293468Y-12763820D02*
X22302992Y-12782867D01*
X22302992Y-12782867D02*
X22302992Y-12801915D01*
X22302992Y-12801915D02*
X22207753Y-12820963D01*
X22379182Y-12878106D02*
X22398230Y-12887629D01*
X22398230Y-12887629D02*
X22436325Y-12887629D01*
X22436325Y-12887629D02*
X22455372Y-12878106D01*
X22455372Y-12878106D02*
X22464896Y-12859058D01*
X22464896Y-12859058D02*
X22464896Y-12849534D01*
X22464896Y-12849534D02*
X22455372Y-12830486D01*
X22455372Y-12830486D02*
X22436325Y-12820963D01*
X22436325Y-12820963D02*
X22407753Y-12820963D01*
X22407753Y-12820963D02*
X22388706Y-12811439D01*
X22388706Y-12811439D02*
X22379182Y-12792391D01*
X22379182Y-12792391D02*
X22379182Y-12782867D01*
X22379182Y-12782867D02*
X22388706Y-12763820D01*
X22388706Y-12763820D02*
X22407753Y-12754296D01*
X22407753Y-12754296D02*
X22436325Y-12754296D01*
X22436325Y-12754296D02*
X22455372Y-12763820D01*
X22531563Y-12963820D02*
X22541087Y-12954296D01*
X22541087Y-12954296D02*
X22560134Y-12925725D01*
X22560134Y-12925725D02*
X22569658Y-12906677D01*
X22569658Y-12906677D02*
X22579182Y-12878106D01*
X22579182Y-12878106D02*
X22588706Y-12830486D01*
X22588706Y-12830486D02*
X22588706Y-12792391D01*
X22588706Y-12792391D02*
X22579182Y-12744772D01*
X22579182Y-12744772D02*
X22569658Y-12716201D01*
X22569658Y-12716201D02*
X22560134Y-12697153D01*
X22560134Y-12697153D02*
X22541087Y-12668582D01*
X22541087Y-12668582D02*
X22531563Y-12659058D01*
D13*
X17681500Y-12985146D02*
X17681500Y-13135146D01*
X17606500Y-13060146D02*
X17756500Y-13060146D01*
D11*
X18122039Y-13151629D02*
X18007753Y-13151629D01*
X18064896Y-13151629D02*
X18064896Y-12951629D01*
X18064896Y-12951629D02*
X18045848Y-12980201D01*
X18045848Y-12980201D02*
X18026801Y-12999248D01*
X18026801Y-12999248D02*
X18007753Y-13008772D01*
X18207753Y-13132582D02*
X18217277Y-13142106D01*
X18217277Y-13142106D02*
X18207753Y-13151629D01*
X18207753Y-13151629D02*
X18198229Y-13142106D01*
X18198229Y-13142106D02*
X18207753Y-13132582D01*
X18207753Y-13132582D02*
X18207753Y-13151629D01*
X18398229Y-12951629D02*
X18302991Y-12951629D01*
X18302991Y-12951629D02*
X18293467Y-13046867D01*
X18293467Y-13046867D02*
X18302991Y-13037344D01*
X18302991Y-13037344D02*
X18322039Y-13027820D01*
X18322039Y-13027820D02*
X18369658Y-13027820D01*
X18369658Y-13027820D02*
X18388705Y-13037344D01*
X18388705Y-13037344D02*
X18398229Y-13046867D01*
X18398229Y-13046867D02*
X18407753Y-13065915D01*
X18407753Y-13065915D02*
X18407753Y-13113534D01*
X18407753Y-13113534D02*
X18398229Y-13132582D01*
X18398229Y-13132582D02*
X18388705Y-13142106D01*
X18388705Y-13142106D02*
X18369658Y-13151629D01*
X18369658Y-13151629D02*
X18322039Y-13151629D01*
X18322039Y-13151629D02*
X18302991Y-13142106D01*
X18302991Y-13142106D02*
X18293467Y-13132582D01*
X18531563Y-12951629D02*
X18550610Y-12951629D01*
X18550610Y-12951629D02*
X18569658Y-12961153D01*
X18569658Y-12961153D02*
X18579182Y-12970677D01*
X18579182Y-12970677D02*
X18588705Y-12989725D01*
X18588705Y-12989725D02*
X18598229Y-13027820D01*
X18598229Y-13027820D02*
X18598229Y-13075439D01*
X18598229Y-13075439D02*
X18588705Y-13113534D01*
X18588705Y-13113534D02*
X18579182Y-13132582D01*
X18579182Y-13132582D02*
X18569658Y-13142106D01*
X18569658Y-13142106D02*
X18550610Y-13151629D01*
X18550610Y-13151629D02*
X18531563Y-13151629D01*
X18531563Y-13151629D02*
X18512515Y-13142106D01*
X18512515Y-13142106D02*
X18502991Y-13132582D01*
X18502991Y-13132582D02*
X18493467Y-13113534D01*
X18493467Y-13113534D02*
X18483944Y-13075439D01*
X18483944Y-13075439D02*
X18483944Y-13027820D01*
X18483944Y-13027820D02*
X18493467Y-12989725D01*
X18493467Y-12989725D02*
X18502991Y-12970677D01*
X18502991Y-12970677D02*
X18512515Y-12961153D01*
X18512515Y-12961153D02*
X18531563Y-12951629D01*
X18722039Y-12951629D02*
X18741086Y-12951629D01*
X18741086Y-12951629D02*
X18760134Y-12961153D01*
X18760134Y-12961153D02*
X18769658Y-12970677D01*
X18769658Y-12970677D02*
X18779182Y-12989725D01*
X18779182Y-12989725D02*
X18788705Y-13027820D01*
X18788705Y-13027820D02*
X18788705Y-13075439D01*
X18788705Y-13075439D02*
X18779182Y-13113534D01*
X18779182Y-13113534D02*
X18769658Y-13132582D01*
X18769658Y-13132582D02*
X18760134Y-13142106D01*
X18760134Y-13142106D02*
X18741086Y-13151629D01*
X18741086Y-13151629D02*
X18722039Y-13151629D01*
X18722039Y-13151629D02*
X18702991Y-13142106D01*
X18702991Y-13142106D02*
X18693467Y-13132582D01*
X18693467Y-13132582D02*
X18683944Y-13113534D01*
X18683944Y-13113534D02*
X18674420Y-13075439D01*
X18674420Y-13075439D02*
X18674420Y-13027820D01*
X18674420Y-13027820D02*
X18683944Y-12989725D01*
X18683944Y-12989725D02*
X18693467Y-12970677D01*
X18693467Y-12970677D02*
X18702991Y-12961153D01*
X18702991Y-12961153D02*
X18722039Y-12951629D01*
X18874420Y-13151629D02*
X18874420Y-13018296D01*
X18874420Y-13037344D02*
X18883944Y-13027820D01*
X18883944Y-13027820D02*
X18902991Y-13018296D01*
X18902991Y-13018296D02*
X18931563Y-13018296D01*
X18931563Y-13018296D02*
X18950610Y-13027820D01*
X18950610Y-13027820D02*
X18960134Y-13046867D01*
X18960134Y-13046867D02*
X18960134Y-13151629D01*
X18960134Y-13046867D02*
X18969658Y-13027820D01*
X18969658Y-13027820D02*
X18988705Y-13018296D01*
X18988705Y-13018296D02*
X19017277Y-13018296D01*
X19017277Y-13018296D02*
X19036325Y-13027820D01*
X19036325Y-13027820D02*
X19045848Y-13046867D01*
X19045848Y-13046867D02*
X19045848Y-13151629D01*
X19141086Y-13151629D02*
X19141086Y-13018296D01*
X19141086Y-13037344D02*
X19150610Y-13027820D01*
X19150610Y-13027820D02*
X19169658Y-13018296D01*
X19169658Y-13018296D02*
X19198229Y-13018296D01*
X19198229Y-13018296D02*
X19217277Y-13027820D01*
X19217277Y-13027820D02*
X19226801Y-13046867D01*
X19226801Y-13046867D02*
X19226801Y-13151629D01*
X19226801Y-13046867D02*
X19236325Y-13027820D01*
X19236325Y-13027820D02*
X19255372Y-13018296D01*
X19255372Y-13018296D02*
X19283944Y-13018296D01*
X19283944Y-13018296D02*
X19302991Y-13027820D01*
X19302991Y-13027820D02*
X19312515Y-13046867D01*
X19312515Y-13046867D02*
X19312515Y-13151629D01*
X19702991Y-12942106D02*
X19531563Y-13199248D01*
X19960134Y-12951629D02*
X19979182Y-12951629D01*
X19979182Y-12951629D02*
X19998229Y-12961153D01*
X19998229Y-12961153D02*
X20007753Y-12970677D01*
X20007753Y-12970677D02*
X20017277Y-12989725D01*
X20017277Y-12989725D02*
X20026801Y-13027820D01*
X20026801Y-13027820D02*
X20026801Y-13075439D01*
X20026801Y-13075439D02*
X20017277Y-13113534D01*
X20017277Y-13113534D02*
X20007753Y-13132582D01*
X20007753Y-13132582D02*
X19998229Y-13142106D01*
X19998229Y-13142106D02*
X19979182Y-13151629D01*
X19979182Y-13151629D02*
X19960134Y-13151629D01*
X19960134Y-13151629D02*
X19941087Y-13142106D01*
X19941087Y-13142106D02*
X19931563Y-13132582D01*
X19931563Y-13132582D02*
X19922039Y-13113534D01*
X19922039Y-13113534D02*
X19912515Y-13075439D01*
X19912515Y-13075439D02*
X19912515Y-13027820D01*
X19912515Y-13027820D02*
X19922039Y-12989725D01*
X19922039Y-12989725D02*
X19931563Y-12970677D01*
X19931563Y-12970677D02*
X19941087Y-12961153D01*
X19941087Y-12961153D02*
X19960134Y-12951629D01*
X20112515Y-13132582D02*
X20122039Y-13142106D01*
X20122039Y-13142106D02*
X20112515Y-13151629D01*
X20112515Y-13151629D02*
X20102991Y-13142106D01*
X20102991Y-13142106D02*
X20112515Y-13132582D01*
X20112515Y-13132582D02*
X20112515Y-13151629D01*
X20245848Y-12951629D02*
X20264896Y-12951629D01*
X20264896Y-12951629D02*
X20283944Y-12961153D01*
X20283944Y-12961153D02*
X20293468Y-12970677D01*
X20293468Y-12970677D02*
X20302991Y-12989725D01*
X20302991Y-12989725D02*
X20312515Y-13027820D01*
X20312515Y-13027820D02*
X20312515Y-13075439D01*
X20312515Y-13075439D02*
X20302991Y-13113534D01*
X20302991Y-13113534D02*
X20293468Y-13132582D01*
X20293468Y-13132582D02*
X20283944Y-13142106D01*
X20283944Y-13142106D02*
X20264896Y-13151629D01*
X20264896Y-13151629D02*
X20245848Y-13151629D01*
X20245848Y-13151629D02*
X20226801Y-13142106D01*
X20226801Y-13142106D02*
X20217277Y-13132582D01*
X20217277Y-13132582D02*
X20207753Y-13113534D01*
X20207753Y-13113534D02*
X20198229Y-13075439D01*
X20198229Y-13075439D02*
X20198229Y-13027820D01*
X20198229Y-13027820D02*
X20207753Y-12989725D01*
X20207753Y-12989725D02*
X20217277Y-12970677D01*
X20217277Y-12970677D02*
X20226801Y-12961153D01*
X20226801Y-12961153D02*
X20245848Y-12951629D01*
X20493468Y-12951629D02*
X20398229Y-12951629D01*
X20398229Y-12951629D02*
X20388706Y-13046867D01*
X20388706Y-13046867D02*
X20398229Y-13037344D01*
X20398229Y-13037344D02*
X20417277Y-13027820D01*
X20417277Y-13027820D02*
X20464896Y-13027820D01*
X20464896Y-13027820D02*
X20483944Y-13037344D01*
X20483944Y-13037344D02*
X20493468Y-13046867D01*
X20493468Y-13046867D02*
X20502991Y-13065915D01*
X20502991Y-13065915D02*
X20502991Y-13113534D01*
X20502991Y-13113534D02*
X20493468Y-13132582D01*
X20493468Y-13132582D02*
X20483944Y-13142106D01*
X20483944Y-13142106D02*
X20464896Y-13151629D01*
X20464896Y-13151629D02*
X20417277Y-13151629D01*
X20417277Y-13151629D02*
X20398229Y-13142106D01*
X20398229Y-13142106D02*
X20388706Y-13132582D01*
X20598229Y-13151629D02*
X20636325Y-13151629D01*
X20636325Y-13151629D02*
X20655372Y-13142106D01*
X20655372Y-13142106D02*
X20664896Y-13132582D01*
X20664896Y-13132582D02*
X20683944Y-13104010D01*
X20683944Y-13104010D02*
X20693468Y-13065915D01*
X20693468Y-13065915D02*
X20693468Y-12989725D01*
X20693468Y-12989725D02*
X20683944Y-12970677D01*
X20683944Y-12970677D02*
X20674420Y-12961153D01*
X20674420Y-12961153D02*
X20655372Y-12951629D01*
X20655372Y-12951629D02*
X20617277Y-12951629D01*
X20617277Y-12951629D02*
X20598229Y-12961153D01*
X20598229Y-12961153D02*
X20588706Y-12970677D01*
X20588706Y-12970677D02*
X20579182Y-12989725D01*
X20579182Y-12989725D02*
X20579182Y-13037344D01*
X20579182Y-13037344D02*
X20588706Y-13056391D01*
X20588706Y-13056391D02*
X20598229Y-13065915D01*
X20598229Y-13065915D02*
X20617277Y-13075439D01*
X20617277Y-13075439D02*
X20655372Y-13075439D01*
X20655372Y-13075439D02*
X20674420Y-13065915D01*
X20674420Y-13065915D02*
X20683944Y-13056391D01*
X20683944Y-13056391D02*
X20693468Y-13037344D01*
X20883944Y-13151629D02*
X20769658Y-13151629D01*
X20826801Y-13151629D02*
X20826801Y-12951629D01*
X20826801Y-12951629D02*
X20807753Y-12980201D01*
X20807753Y-12980201D02*
X20788706Y-12999248D01*
X20788706Y-12999248D02*
X20769658Y-13008772D01*
X20960134Y-12951629D02*
X20960134Y-12989725D01*
X21036325Y-12951629D02*
X21036325Y-12989725D01*
X21331563Y-13227820D02*
X21322039Y-13218296D01*
X21322039Y-13218296D02*
X21302991Y-13189725D01*
X21302991Y-13189725D02*
X21293468Y-13170677D01*
X21293468Y-13170677D02*
X21283944Y-13142106D01*
X21283944Y-13142106D02*
X21274420Y-13094486D01*
X21274420Y-13094486D02*
X21274420Y-13056391D01*
X21274420Y-13056391D02*
X21283944Y-13008772D01*
X21283944Y-13008772D02*
X21293468Y-12980201D01*
X21293468Y-12980201D02*
X21302991Y-12961153D01*
X21302991Y-12961153D02*
X21322039Y-12932582D01*
X21322039Y-12932582D02*
X21331563Y-12923058D01*
X21512515Y-13151629D02*
X21398230Y-13151629D01*
X21455372Y-13151629D02*
X21455372Y-12951629D01*
X21455372Y-12951629D02*
X21436325Y-12980201D01*
X21436325Y-12980201D02*
X21417277Y-12999248D01*
X21417277Y-12999248D02*
X21398230Y-13008772D01*
X21588706Y-12970677D02*
X21598230Y-12961153D01*
X21598230Y-12961153D02*
X21617277Y-12951629D01*
X21617277Y-12951629D02*
X21664896Y-12951629D01*
X21664896Y-12951629D02*
X21683944Y-12961153D01*
X21683944Y-12961153D02*
X21693468Y-12970677D01*
X21693468Y-12970677D02*
X21702991Y-12989725D01*
X21702991Y-12989725D02*
X21702991Y-13008772D01*
X21702991Y-13008772D02*
X21693468Y-13037344D01*
X21693468Y-13037344D02*
X21579182Y-13151629D01*
X21579182Y-13151629D02*
X21702991Y-13151629D01*
X21941087Y-13151629D02*
X21941087Y-12951629D01*
X22026801Y-13151629D02*
X22026801Y-13046867D01*
X22026801Y-13046867D02*
X22017277Y-13027820D01*
X22017277Y-13027820D02*
X21998230Y-13018296D01*
X21998230Y-13018296D02*
X21969658Y-13018296D01*
X21969658Y-13018296D02*
X21950611Y-13027820D01*
X21950611Y-13027820D02*
X21941087Y-13037344D01*
X22150611Y-13151629D02*
X22131563Y-13142106D01*
X22131563Y-13142106D02*
X22122039Y-13132582D01*
X22122039Y-13132582D02*
X22112515Y-13113534D01*
X22112515Y-13113534D02*
X22112515Y-13056391D01*
X22112515Y-13056391D02*
X22122039Y-13037344D01*
X22122039Y-13037344D02*
X22131563Y-13027820D01*
X22131563Y-13027820D02*
X22150611Y-13018296D01*
X22150611Y-13018296D02*
X22179182Y-13018296D01*
X22179182Y-13018296D02*
X22198230Y-13027820D01*
X22198230Y-13027820D02*
X22207753Y-13037344D01*
X22207753Y-13037344D02*
X22217277Y-13056391D01*
X22217277Y-13056391D02*
X22217277Y-13113534D01*
X22217277Y-13113534D02*
X22207753Y-13132582D01*
X22207753Y-13132582D02*
X22198230Y-13142106D01*
X22198230Y-13142106D02*
X22179182Y-13151629D01*
X22179182Y-13151629D02*
X22150611Y-13151629D01*
X22331563Y-13151629D02*
X22312515Y-13142106D01*
X22312515Y-13142106D02*
X22302992Y-13123058D01*
X22302992Y-13123058D02*
X22302992Y-12951629D01*
X22483944Y-13142106D02*
X22464896Y-13151629D01*
X22464896Y-13151629D02*
X22426801Y-13151629D01*
X22426801Y-13151629D02*
X22407753Y-13142106D01*
X22407753Y-13142106D02*
X22398230Y-13123058D01*
X22398230Y-13123058D02*
X22398230Y-13046867D01*
X22398230Y-13046867D02*
X22407753Y-13027820D01*
X22407753Y-13027820D02*
X22426801Y-13018296D01*
X22426801Y-13018296D02*
X22464896Y-13018296D01*
X22464896Y-13018296D02*
X22483944Y-13027820D01*
X22483944Y-13027820D02*
X22493468Y-13046867D01*
X22493468Y-13046867D02*
X22493468Y-13065915D01*
X22493468Y-13065915D02*
X22398230Y-13084963D01*
X22569658Y-13142106D02*
X22588706Y-13151629D01*
X22588706Y-13151629D02*
X22626801Y-13151629D01*
X22626801Y-13151629D02*
X22645849Y-13142106D01*
X22645849Y-13142106D02*
X22655372Y-13123058D01*
X22655372Y-13123058D02*
X22655372Y-13113534D01*
X22655372Y-13113534D02*
X22645849Y-13094486D01*
X22645849Y-13094486D02*
X22626801Y-13084963D01*
X22626801Y-13084963D02*
X22598230Y-13084963D01*
X22598230Y-13084963D02*
X22579182Y-13075439D01*
X22579182Y-13075439D02*
X22569658Y-13056391D01*
X22569658Y-13056391D02*
X22569658Y-13046867D01*
X22569658Y-13046867D02*
X22579182Y-13027820D01*
X22579182Y-13027820D02*
X22598230Y-13018296D01*
X22598230Y-13018296D02*
X22626801Y-13018296D01*
X22626801Y-13018296D02*
X22645849Y-13027820D01*
X22893468Y-13075439D02*
X23045849Y-13075439D01*
X22969658Y-13151629D02*
X22969658Y-12999248D01*
X23379182Y-12951629D02*
X23341087Y-12951629D01*
X23341087Y-12951629D02*
X23322039Y-12961153D01*
X23322039Y-12961153D02*
X23312515Y-12970677D01*
X23312515Y-12970677D02*
X23293468Y-12999248D01*
X23293468Y-12999248D02*
X23283944Y-13037344D01*
X23283944Y-13037344D02*
X23283944Y-13113534D01*
X23283944Y-13113534D02*
X23293468Y-13132582D01*
X23293468Y-13132582D02*
X23302992Y-13142106D01*
X23302992Y-13142106D02*
X23322039Y-13151629D01*
X23322039Y-13151629D02*
X23360134Y-13151629D01*
X23360134Y-13151629D02*
X23379182Y-13142106D01*
X23379182Y-13142106D02*
X23388706Y-13132582D01*
X23388706Y-13132582D02*
X23398230Y-13113534D01*
X23398230Y-13113534D02*
X23398230Y-13065915D01*
X23398230Y-13065915D02*
X23388706Y-13046867D01*
X23388706Y-13046867D02*
X23379182Y-13037344D01*
X23379182Y-13037344D02*
X23360134Y-13027820D01*
X23360134Y-13027820D02*
X23322039Y-13027820D01*
X23322039Y-13027820D02*
X23302992Y-13037344D01*
X23302992Y-13037344D02*
X23293468Y-13046867D01*
X23293468Y-13046867D02*
X23283944Y-13065915D01*
X23626801Y-13142106D02*
X23645849Y-13151629D01*
X23645849Y-13151629D02*
X23683944Y-13151629D01*
X23683944Y-13151629D02*
X23702992Y-13142106D01*
X23702992Y-13142106D02*
X23712515Y-13123058D01*
X23712515Y-13123058D02*
X23712515Y-13113534D01*
X23712515Y-13113534D02*
X23702992Y-13094486D01*
X23702992Y-13094486D02*
X23683944Y-13084963D01*
X23683944Y-13084963D02*
X23655373Y-13084963D01*
X23655373Y-13084963D02*
X23636325Y-13075439D01*
X23636325Y-13075439D02*
X23626801Y-13056391D01*
X23626801Y-13056391D02*
X23626801Y-13046867D01*
X23626801Y-13046867D02*
X23636325Y-13027820D01*
X23636325Y-13027820D02*
X23655373Y-13018296D01*
X23655373Y-13018296D02*
X23683944Y-13018296D01*
X23683944Y-13018296D02*
X23702992Y-13027820D01*
X23826801Y-13151629D02*
X23807754Y-13142106D01*
X23807754Y-13142106D02*
X23798230Y-13123058D01*
X23798230Y-13123058D02*
X23798230Y-12951629D01*
X23931563Y-13151629D02*
X23912515Y-13142106D01*
X23912515Y-13142106D02*
X23902992Y-13132582D01*
X23902992Y-13132582D02*
X23893468Y-13113534D01*
X23893468Y-13113534D02*
X23893468Y-13056391D01*
X23893468Y-13056391D02*
X23902992Y-13037344D01*
X23902992Y-13037344D02*
X23912515Y-13027820D01*
X23912515Y-13027820D02*
X23931563Y-13018296D01*
X23931563Y-13018296D02*
X23960135Y-13018296D01*
X23960135Y-13018296D02*
X23979182Y-13027820D01*
X23979182Y-13027820D02*
X23988706Y-13037344D01*
X23988706Y-13037344D02*
X23998230Y-13056391D01*
X23998230Y-13056391D02*
X23998230Y-13113534D01*
X23998230Y-13113534D02*
X23988706Y-13132582D01*
X23988706Y-13132582D02*
X23979182Y-13142106D01*
X23979182Y-13142106D02*
X23960135Y-13151629D01*
X23960135Y-13151629D02*
X23931563Y-13151629D01*
X24055373Y-13018296D02*
X24131563Y-13018296D01*
X24083944Y-12951629D02*
X24083944Y-13123058D01*
X24083944Y-13123058D02*
X24093468Y-13142106D01*
X24093468Y-13142106D02*
X24112515Y-13151629D01*
X24112515Y-13151629D02*
X24131563Y-13151629D01*
X24188706Y-13142106D02*
X24207754Y-13151629D01*
X24207754Y-13151629D02*
X24245849Y-13151629D01*
X24245849Y-13151629D02*
X24264896Y-13142106D01*
X24264896Y-13142106D02*
X24274420Y-13123058D01*
X24274420Y-13123058D02*
X24274420Y-13113534D01*
X24274420Y-13113534D02*
X24264896Y-13094486D01*
X24264896Y-13094486D02*
X24245849Y-13084963D01*
X24245849Y-13084963D02*
X24217277Y-13084963D01*
X24217277Y-13084963D02*
X24198230Y-13075439D01*
X24198230Y-13075439D02*
X24188706Y-13056391D01*
X24188706Y-13056391D02*
X24188706Y-13046867D01*
X24188706Y-13046867D02*
X24198230Y-13027820D01*
X24198230Y-13027820D02*
X24217277Y-13018296D01*
X24217277Y-13018296D02*
X24245849Y-13018296D01*
X24245849Y-13018296D02*
X24264896Y-13027820D01*
X24341087Y-13227820D02*
X24350611Y-13218296D01*
X24350611Y-13218296D02*
X24369658Y-13189725D01*
X24369658Y-13189725D02*
X24379182Y-13170677D01*
X24379182Y-13170677D02*
X24388706Y-13142106D01*
X24388706Y-13142106D02*
X24398230Y-13094486D01*
X24398230Y-13094486D02*
X24398230Y-13056391D01*
X24398230Y-13056391D02*
X24388706Y-13008772D01*
X24388706Y-13008772D02*
X24379182Y-12980201D01*
X24379182Y-12980201D02*
X24369658Y-12961153D01*
X24369658Y-12961153D02*
X24350611Y-12932582D01*
X24350611Y-12932582D02*
X24341087Y-12923058D01*
M02*
