M48
; DRILL file {KiCad 7.0.5} date Sun Aug 20 01:59:18 2023
; FORMAT={-:-/ absolute / metric / decimal}
; #@! TF.CreationDate,2023-08-20T01:59:18+08:00
; #@! TF.GenerationSoftware,Kicad,Pcbnew,7.0.5
; #@! TF.FileFunction,Plated,1,2,PTH
FMAT,2
METRIC
; #@! TA.AperFunction,Plated,PTH,ComponentDrill
T1C0.800
; #@! TA.AperFunction,Plated,PTH,ComponentDrill
T2C1.000
; #@! TA.AperFunction,Plated,PTH,ComponentDrill
T3C1.500
%
G90
G05
T1
X202.395Y-97.65
X202.395Y-105.25
X204.935Y-97.65
X204.935Y-105.25
X221.445Y-97.65
X221.445Y-105.25
T2
X218.87Y-90.65
X221.41Y-90.65
X223.95Y-90.65
X226.49Y-90.65
T3
X190.33Y-98.91
X194.14Y-107.35
X196.68Y-96.35
X196.74Y-107.35
X209.38Y-98.91
X213.19Y-107.35
X215.73Y-96.35
X215.79Y-107.35
X232.88Y-111.715
X232.993Y-102.456
X235.236Y-112.814
X239.83Y-102.819
T3
X189.717Y-106.116G85X189.163Y-105.284
G05
X199.14Y-96.35G85X199.14Y-96.35
G05
X208.767Y-106.116G85X208.213Y-105.284
G05
X218.19Y-96.35G85X218.19Y-96.35
G05
X229.393Y-108.728G85X229.242Y-107.739
G05
X242.06Y-103.859G85X242.06Y-103.859
G05
T0
M30
